M48
;Layer_Color=9474304
;FILE_FORMAT=2:5
INCH,LZ
;TYPE=PLATED
T1F00S00C0.01181
T2F00S00C0.01575
T4F00S00C0.03150
%
T01
X0019Y0019
X0019058Y0023
X00265Y00285
X00335Y0027
X0041
Y00325
X00495Y0029
X00485Y0023
X0049Y0017
X0042Y00145
X00355Y002
X0027Y00175
X0022Y0034
X0016Y0046
X0028547Y0045531
Y0049468
X00315Y00475
X0034453Y0045531
Y0049468
X0039Y00555
X00415Y0056
X0045
X0051Y0055
X005284Y005316
X0049Y005
X0057Y00495
X006
X0069004Y0049
X0073Y0040976
Y00385
X0079697Y0038
X00815Y00475
X0081Y0054865
X0077276Y0056232
X0074Y0057077
X006696Y0068267
X00615Y0065
X005Y00675
X0051Y0059
X0044Y0063
X0042Y00648
X0039937Y00605
X0033Y00665
Y0072
X002884Y006866
X00225Y0066
X00255Y0054
X0025Y00515
X00565Y0041
X0059Y0037
X0053839Y0036957
X0058Y00265
X00665Y00275
X00685Y00255
X00705Y00275
X00715Y00325
X00705Y00195
X0065
Y00165
X0064Y0022
X00705Y0012
X00845Y00313
X01Y00165
X01065Y00175
Y00145
X01195Y0022
X0139Y0025
Y0015
X0149
Y0025
Y0035
X0139Y004
Y0051
X015Y0059
X0147136Y0066975
X0112Y0059
X01095Y00525
X01045Y00535
X01Y0055
X01005Y0062
X0121Y00455
X00675Y0077
X0158Y0066
Y0060757
Y0056
T02
X0037205Y007311
X0040945
X0044685
X0048228
X0051772
Y0078622
X0048228
X0055315
X0059055
X0062795
Y007311
X0059055
X0040945Y0078622
X0037205
T04
X0018583Y0073189
Y0081063
X0026457
Y0073189
X0073543
Y0081063
X0081417
Y0073189
X0098581Y0073188
Y0081062
X0106455
Y0073188
X0153542
Y0081062
X0161416
Y0073188
M30
