G04*
G04 #@! TF.GenerationSoftware,Altium Limited,Altium Designer,19.1.5 (86)*
G04*
G04 Layer_Physical_Order=3*
G04 Layer_Color=128*
%FSLAX25Y25*%
%MOIN*%
G70*
G01*
G75*
%ADD31C,0.00600*%
%ADD32C,0.00598*%
%ADD50C,0.02000*%
%ADD59C,0.05150*%
%ADD61C,0.03575*%
%ADD62C,0.03181*%
G36*
X85638Y29271D02*
X89305D01*
X91152Y27424D01*
X94362Y27424D01*
X94361Y86284D01*
X85639D01*
X85638Y29271D01*
D02*
G37*
D31*
X85939Y29571D02*
Y85984D01*
D32*
X94061Y27724D02*
Y85984D01*
D50*
X111678Y74410D02*
G03*
X117520Y68568I5843J1D01*
G01*
X142480Y68568D02*
G03*
X148322Y74410I-1J5843D01*
G01*
X112739Y10677D02*
G03*
X108615Y10677I-2062J0D01*
G01*
X108115Y22776D02*
G03*
X112239Y22776I2062J0D01*
G01*
X112239Y25362D02*
G03*
X110177Y27424I-2066J-4D01*
G01*
X85571Y29271D02*
G03*
X82721Y26422I-4J-2845D01*
G01*
X13361Y9700D02*
Y86284D01*
X111678D01*
Y74410D02*
Y86284D01*
X117520Y68568D02*
X142480D01*
Y68568D02*
Y68568D01*
X148322Y74410D02*
Y86284D01*
X166639D01*
Y9700D02*
Y86284D01*
X112739Y9700D02*
X166639D01*
X112739D02*
Y10677D01*
X108615D02*
X108615D01*
Y9700D02*
Y10677D01*
X93361Y9700D02*
X108615D01*
X93361D02*
Y23300D01*
X108115D01*
Y22776D02*
Y23300D01*
X112239Y22776D02*
X112239D01*
Y25362D01*
X91151Y27424D02*
X110177D01*
X89305Y29271D02*
X91151Y27424D01*
X85571Y29271D02*
X89305D01*
X82721Y26422D02*
X82721D01*
Y9700D02*
Y26422D01*
X13361Y9700D02*
X82721D01*
D59*
X106455Y81062D02*
D03*
Y73188D02*
D03*
X98581D02*
D03*
X26457Y81063D02*
D03*
Y73189D02*
D03*
X18583D02*
D03*
X153542Y73188D02*
D03*
X161416D02*
D03*
Y81062D02*
D03*
X153542D02*
D03*
X81417Y81063D02*
D03*
X73543D02*
D03*
Y73189D02*
D03*
X81417D02*
D03*
D61*
X48228Y78622D02*
D03*
X40945D02*
D03*
Y73110D02*
D03*
X44685D02*
D03*
X48228D02*
D03*
X59055D02*
D03*
X51772D02*
D03*
X59055Y78622D02*
D03*
X55315D02*
D03*
X51772D02*
D03*
D62*
X25500Y54000D02*
D03*
X25000Y51500D02*
D03*
X104500Y53500D02*
D03*
X73000Y38500D02*
D03*
Y40976D02*
D03*
X33500Y27000D02*
D03*
X33000Y72000D02*
D03*
X49000Y17000D02*
D03*
X68500Y25500D02*
D03*
X66500Y27500D02*
D03*
X70500D02*
D03*
X69004Y49000D02*
D03*
X45000Y56000D02*
D03*
X19058Y23000D02*
D03*
X79697Y38000D02*
D03*
X39937Y60500D02*
D03*
X44000Y63000D02*
D03*
X42000Y64800D02*
D03*
X39000Y55500D02*
D03*
X41500Y56000D02*
D03*
X28840Y68660D02*
D03*
X33000Y66500D02*
D03*
X84500Y31300D02*
D03*
X70500Y12000D02*
D03*
X41000Y27000D02*
D03*
X74000Y57077D02*
D03*
X119500Y22000D02*
D03*
X158000Y60757D02*
D03*
X100000Y55000D02*
D03*
X158000Y56000D02*
D03*
X121000Y45500D02*
D03*
X66960Y68267D02*
D03*
X51000Y59000D02*
D03*
X57000Y49500D02*
D03*
X52840Y53160D02*
D03*
X60000Y49500D02*
D03*
X67500Y77000D02*
D03*
X61500Y65000D02*
D03*
X26500Y28500D02*
D03*
X27000Y17500D02*
D03*
X106500Y14500D02*
D03*
Y17500D02*
D03*
X42000Y14500D02*
D03*
X58000Y26500D02*
D03*
X65000Y19500D02*
D03*
X49500Y29000D02*
D03*
X77276Y56232D02*
D03*
X81000Y54865D02*
D03*
X81500Y47500D02*
D03*
X147136Y66975D02*
D03*
X59000Y37000D02*
D03*
X56500Y41000D02*
D03*
X41000Y32500D02*
D03*
X22000Y34000D02*
D03*
X48500Y23000D02*
D03*
X65000Y16500D02*
D03*
X51000Y55000D02*
D03*
X53839Y36957D02*
D03*
M02*
