G04*
G04 #@! TF.GenerationSoftware,Altium Limited,Altium Designer,19.1.5 (86)*
G04*
G04 Layer_Physical_Order=4*
G04 Layer_Color=16711680*
%FSLAX25Y25*%
%MOIN*%
G70*
G01*
G75*
%ADD11C,0.00500*%
%ADD16C,0.00800*%
G04:AMPARAMS|DCode=19|XSize=35mil|YSize=35mil|CornerRadius=3.5mil|HoleSize=0mil|Usage=FLASHONLY|Rotation=90.000|XOffset=0mil|YOffset=0mil|HoleType=Round|Shape=RoundedRectangle|*
%AMROUNDEDRECTD19*
21,1,0.03500,0.02800,0,0,90.0*
21,1,0.02800,0.03500,0,0,90.0*
1,1,0.00700,0.01400,0.01400*
1,1,0.00700,0.01400,-0.01400*
1,1,0.00700,-0.01400,-0.01400*
1,1,0.00700,-0.01400,0.01400*
%
%ADD19ROUNDEDRECTD19*%
G04:AMPARAMS|DCode=21|XSize=16mil|YSize=35mil|CornerRadius=2.4mil|HoleSize=0mil|Usage=FLASHONLY|Rotation=180.000|XOffset=0mil|YOffset=0mil|HoleType=Round|Shape=RoundedRectangle|*
%AMROUNDEDRECTD21*
21,1,0.01600,0.03020,0,0,180.0*
21,1,0.01120,0.03500,0,0,180.0*
1,1,0.00480,-0.00560,0.01510*
1,1,0.00480,0.00560,0.01510*
1,1,0.00480,0.00560,-0.01510*
1,1,0.00480,-0.00560,-0.01510*
%
%ADD21ROUNDEDRECTD21*%
G04:AMPARAMS|DCode=22|XSize=35mil|YSize=35mil|CornerRadius=4.38mil|HoleSize=0mil|Usage=FLASHONLY|Rotation=90.000|XOffset=0mil|YOffset=0mil|HoleType=Round|Shape=RoundedRectangle|*
%AMROUNDEDRECTD22*
21,1,0.03500,0.02625,0,0,90.0*
21,1,0.02625,0.03500,0,0,90.0*
1,1,0.00875,0.01313,0.01313*
1,1,0.00875,0.01313,-0.01313*
1,1,0.00875,-0.01313,-0.01313*
1,1,0.00875,-0.01313,0.01313*
%
%ADD22ROUNDEDRECTD22*%
G04:AMPARAMS|DCode=23|XSize=35mil|YSize=35mil|CornerRadius=4.38mil|HoleSize=0mil|Usage=FLASHONLY|Rotation=0.000|XOffset=0mil|YOffset=0mil|HoleType=Round|Shape=RoundedRectangle|*
%AMROUNDEDRECTD23*
21,1,0.03500,0.02625,0,0,0.0*
21,1,0.02625,0.03500,0,0,0.0*
1,1,0.00875,0.01313,-0.01313*
1,1,0.00875,-0.01313,-0.01313*
1,1,0.00875,-0.01313,0.01313*
1,1,0.00875,0.01313,0.01313*
%
%ADD23ROUNDEDRECTD23*%
G04:AMPARAMS|DCode=24|XSize=27.56mil|YSize=35.43mil|CornerRadius=6.89mil|HoleSize=0mil|Usage=FLASHONLY|Rotation=270.000|XOffset=0mil|YOffset=0mil|HoleType=Round|Shape=RoundedRectangle|*
%AMROUNDEDRECTD24*
21,1,0.02756,0.02165,0,0,270.0*
21,1,0.01378,0.03543,0,0,270.0*
1,1,0.01378,-0.01083,-0.00689*
1,1,0.01378,-0.01083,0.00689*
1,1,0.01378,0.01083,0.00689*
1,1,0.01378,0.01083,-0.00689*
%
%ADD24ROUNDEDRECTD24*%
G04:AMPARAMS|DCode=28|XSize=35mil|YSize=35mil|CornerRadius=3.5mil|HoleSize=0mil|Usage=FLASHONLY|Rotation=180.000|XOffset=0mil|YOffset=0mil|HoleType=Round|Shape=RoundedRectangle|*
%AMROUNDEDRECTD28*
21,1,0.03500,0.02800,0,0,180.0*
21,1,0.02800,0.03500,0,0,180.0*
1,1,0.00700,-0.01400,0.01400*
1,1,0.00700,0.01400,0.01400*
1,1,0.00700,0.01400,-0.01400*
1,1,0.00700,-0.01400,-0.01400*
%
%ADD28ROUNDEDRECTD28*%
G04:AMPARAMS|DCode=30|XSize=23.62mil|YSize=43.31mil|CornerRadius=5.91mil|HoleSize=0mil|Usage=FLASHONLY|Rotation=180.000|XOffset=0mil|YOffset=0mil|HoleType=Round|Shape=RoundedRectangle|*
%AMROUNDEDRECTD30*
21,1,0.02362,0.03150,0,0,180.0*
21,1,0.01181,0.04331,0,0,180.0*
1,1,0.01181,-0.00591,0.01575*
1,1,0.01181,0.00591,0.01575*
1,1,0.01181,0.00591,-0.01575*
1,1,0.01181,-0.00591,-0.01575*
%
%ADD30ROUNDEDRECTD30*%
%ADD50C,0.02000*%
%ADD51C,0.01200*%
%ADD52C,0.01000*%
%ADD54O,0.05118X0.06535*%
%ADD55O,0.08465X0.03543*%
%ADD56O,0.02992X0.03937*%
%ADD57C,0.01968*%
%ADD58C,0.02362*%
G04:AMPARAMS|DCode=63|XSize=43.31mil|YSize=94.49mil|CornerRadius=17.32mil|HoleSize=0mil|Usage=FLASHONLY|Rotation=340.000|XOffset=0mil|YOffset=0mil|HoleType=Round|Shape=RoundedRectangle|*
%AMROUNDEDRECTD63*
21,1,0.04331,0.05984,0,0,340.0*
21,1,0.00866,0.09449,0,0,340.0*
1,1,0.03465,-0.00616,-0.02960*
1,1,0.03465,-0.01430,-0.02664*
1,1,0.03465,0.00616,0.02960*
1,1,0.03465,0.01430,0.02664*
%
%ADD63ROUNDEDRECTD63*%
G04:AMPARAMS|DCode=64|XSize=25mil|YSize=90mil|CornerRadius=12.5mil|HoleSize=0mil|Usage=FLASHONLY|Rotation=90.000|XOffset=0mil|YOffset=0mil|HoleType=Round|Shape=RoundedRectangle|*
%AMROUNDEDRECTD64*
21,1,0.02500,0.06500,0,0,90.0*
21,1,0.00000,0.09000,0,0,90.0*
1,1,0.02500,0.03250,0.00000*
1,1,0.02500,0.03250,0.00000*
1,1,0.02500,-0.03250,0.00000*
1,1,0.02500,-0.03250,0.00000*
%
%ADD64ROUNDEDRECTD64*%
G04:AMPARAMS|DCode=65|XSize=10mil|YSize=16mil|CornerRadius=2.5mil|HoleSize=0mil|Usage=FLASHONLY|Rotation=270.000|XOffset=0mil|YOffset=0mil|HoleType=Round|Shape=RoundedRectangle|*
%AMROUNDEDRECTD65*
21,1,0.01000,0.01100,0,0,270.0*
21,1,0.00500,0.01600,0,0,270.0*
1,1,0.00500,-0.00550,-0.00250*
1,1,0.00500,-0.00550,0.00250*
1,1,0.00500,0.00550,0.00250*
1,1,0.00500,0.00550,-0.00250*
%
%ADD65ROUNDEDRECTD65*%
%ADD66R,0.01968X0.03150*%
G04:AMPARAMS|DCode=67|XSize=35.43mil|YSize=31.5mil|CornerRadius=3.94mil|HoleSize=0mil|Usage=FLASHONLY|Rotation=180.000|XOffset=0mil|YOffset=0mil|HoleType=Round|Shape=RoundedRectangle|*
%AMROUNDEDRECTD67*
21,1,0.03543,0.02362,0,0,180.0*
21,1,0.02756,0.03150,0,0,180.0*
1,1,0.00787,-0.01378,0.01181*
1,1,0.00787,0.01378,0.01181*
1,1,0.00787,0.01378,-0.01181*
1,1,0.00787,-0.01378,-0.01181*
%
%ADD67ROUNDEDRECTD67*%
%ADD68O,0.05906X0.02362*%
G04:AMPARAMS|DCode=69|XSize=27.56mil|YSize=59.06mil|CornerRadius=6.89mil|HoleSize=0mil|Usage=FLASHONLY|Rotation=270.000|XOffset=0mil|YOffset=0mil|HoleType=Round|Shape=RoundedRectangle|*
%AMROUNDEDRECTD69*
21,1,0.02756,0.04528,0,0,270.0*
21,1,0.01378,0.05906,0,0,270.0*
1,1,0.01378,-0.02264,-0.00689*
1,1,0.01378,-0.02264,0.00689*
1,1,0.01378,0.02264,0.00689*
1,1,0.01378,0.02264,-0.00689*
%
%ADD69ROUNDEDRECTD69*%
G04:AMPARAMS|DCode=70|XSize=31.5mil|YSize=31.5mil|CornerRadius=3.15mil|HoleSize=0mil|Usage=FLASHONLY|Rotation=270.000|XOffset=0mil|YOffset=0mil|HoleType=Round|Shape=RoundedRectangle|*
%AMROUNDEDRECTD70*
21,1,0.03150,0.02520,0,0,270.0*
21,1,0.02520,0.03150,0,0,270.0*
1,1,0.00630,-0.01260,-0.01260*
1,1,0.00630,-0.01260,0.01260*
1,1,0.00630,0.01260,0.01260*
1,1,0.00630,0.01260,-0.01260*
%
%ADD70ROUNDEDRECTD70*%
G04:AMPARAMS|DCode=71|XSize=17.72mil|YSize=35.43mil|CornerRadius=4.43mil|HoleSize=0mil|Usage=FLASHONLY|Rotation=90.000|XOffset=0mil|YOffset=0mil|HoleType=Round|Shape=RoundedRectangle|*
%AMROUNDEDRECTD71*
21,1,0.01772,0.02657,0,0,90.0*
21,1,0.00886,0.03543,0,0,90.0*
1,1,0.00886,0.01329,0.00443*
1,1,0.00886,0.01329,-0.00443*
1,1,0.00886,-0.01329,-0.00443*
1,1,0.00886,-0.01329,0.00443*
%
%ADD71ROUNDEDRECTD71*%
G04:AMPARAMS|DCode=72|XSize=12mil|YSize=22mil|CornerRadius=3mil|HoleSize=0mil|Usage=FLASHONLY|Rotation=270.000|XOffset=0mil|YOffset=0mil|HoleType=Round|Shape=RoundedRectangle|*
%AMROUNDEDRECTD72*
21,1,0.01200,0.01600,0,0,270.0*
21,1,0.00600,0.02200,0,0,270.0*
1,1,0.00600,-0.00800,-0.00300*
1,1,0.00600,-0.00800,0.00300*
1,1,0.00600,0.00800,0.00300*
1,1,0.00600,0.00800,-0.00300*
%
%ADD72ROUNDEDRECTD72*%
G04:AMPARAMS|DCode=73|XSize=12mil|YSize=32mil|CornerRadius=3mil|HoleSize=0mil|Usage=FLASHONLY|Rotation=270.000|XOffset=0mil|YOffset=0mil|HoleType=Round|Shape=RoundedRectangle|*
%AMROUNDEDRECTD73*
21,1,0.01200,0.02600,0,0,270.0*
21,1,0.00600,0.03200,0,0,270.0*
1,1,0.00600,-0.01300,-0.00300*
1,1,0.00600,-0.01300,0.00300*
1,1,0.00600,0.01300,0.00300*
1,1,0.00600,0.01300,-0.00300*
%
%ADD73ROUNDEDRECTD73*%
G04:AMPARAMS|DCode=74|XSize=12mil|YSize=22mil|CornerRadius=3mil|HoleSize=0mil|Usage=FLASHONLY|Rotation=0.000|XOffset=0mil|YOffset=0mil|HoleType=Round|Shape=RoundedRectangle|*
%AMROUNDEDRECTD74*
21,1,0.01200,0.01600,0,0,0.0*
21,1,0.00600,0.02200,0,0,0.0*
1,1,0.00600,0.00300,-0.00800*
1,1,0.00600,-0.00300,-0.00800*
1,1,0.00600,-0.00300,0.00800*
1,1,0.00600,0.00300,0.00800*
%
%ADD74ROUNDEDRECTD74*%
G04:AMPARAMS|DCode=75|XSize=12mil|YSize=32mil|CornerRadius=3mil|HoleSize=0mil|Usage=FLASHONLY|Rotation=0.000|XOffset=0mil|YOffset=0mil|HoleType=Round|Shape=RoundedRectangle|*
%AMROUNDEDRECTD75*
21,1,0.01200,0.02600,0,0,0.0*
21,1,0.00600,0.03200,0,0,0.0*
1,1,0.00600,0.00300,-0.01300*
1,1,0.00600,-0.00300,-0.01300*
1,1,0.00600,-0.00300,0.01300*
1,1,0.00600,0.00300,0.01300*
%
%ADD75ROUNDEDRECTD75*%
G04:AMPARAMS|DCode=76|XSize=7.87mil|YSize=20.67mil|CornerRadius=1.97mil|HoleSize=0mil|Usage=FLASHONLY|Rotation=0.000|XOffset=0mil|YOffset=0mil|HoleType=Round|Shape=RoundedRectangle|*
%AMROUNDEDRECTD76*
21,1,0.00787,0.01673,0,0,0.0*
21,1,0.00394,0.02067,0,0,0.0*
1,1,0.00394,0.00197,-0.00837*
1,1,0.00394,-0.00197,-0.00837*
1,1,0.00394,-0.00197,0.00837*
1,1,0.00394,0.00197,0.00837*
%
%ADD76ROUNDEDRECTD76*%
G04:AMPARAMS|DCode=77|XSize=15.75mil|YSize=20.67mil|CornerRadius=3.94mil|HoleSize=0mil|Usage=FLASHONLY|Rotation=180.000|XOffset=0mil|YOffset=0mil|HoleType=Round|Shape=RoundedRectangle|*
%AMROUNDEDRECTD77*
21,1,0.01575,0.01280,0,0,180.0*
21,1,0.00787,0.02067,0,0,180.0*
1,1,0.00787,-0.00394,0.00640*
1,1,0.00787,0.00394,0.00640*
1,1,0.00787,0.00394,-0.00640*
1,1,0.00787,-0.00394,-0.00640*
%
%ADD77ROUNDEDRECTD77*%
G04:AMPARAMS|DCode=78|XSize=90mil|YSize=47.24mil|CornerRadius=0mil|HoleSize=0mil|Usage=FLASHONLY|Rotation=0.000|XOffset=0mil|YOffset=0mil|HoleType=Round|Shape=Octagon|*
%AMOCTAGOND78*
4,1,8,0.04500,-0.01181,0.04500,0.01181,0.03319,0.02362,-0.03319,0.02362,-0.04500,0.01181,-0.04500,-0.01181,-0.03319,-0.02362,0.03319,-0.02362,0.04500,-0.01181,0.0*
%
%ADD78OCTAGOND78*%

G04:AMPARAMS|DCode=79|XSize=78.74mil|YSize=31.5mil|CornerRadius=7.87mil|HoleSize=0mil|Usage=FLASHONLY|Rotation=90.000|XOffset=0mil|YOffset=0mil|HoleType=Round|Shape=RoundedRectangle|*
%AMROUNDEDRECTD79*
21,1,0.07874,0.01575,0,0,90.0*
21,1,0.06299,0.03150,0,0,90.0*
1,1,0.01575,0.00787,0.03150*
1,1,0.01575,0.00787,-0.03150*
1,1,0.01575,-0.00787,-0.03150*
1,1,0.01575,-0.00787,0.03150*
%
%ADD79ROUNDEDRECTD79*%
%ADD80O,0.00906X0.03150*%
%ADD81R,0.09449X0.06496*%
%ADD82O,0.01181X0.05709*%
G04:AMPARAMS|DCode=83|XSize=31.58mil|YSize=38.27mil|CornerRadius=7.89mil|HoleSize=0mil|Usage=FLASHONLY|Rotation=270.000|XOffset=0mil|YOffset=0mil|HoleType=Round|Shape=RoundedRectangle|*
%AMROUNDEDRECTD83*
21,1,0.03158,0.02248,0,0,270.0*
21,1,0.01579,0.03827,0,0,270.0*
1,1,0.01579,-0.01124,-0.00789*
1,1,0.01579,-0.01124,0.00789*
1,1,0.01579,0.01124,0.00789*
1,1,0.01579,0.01124,-0.00789*
%
%ADD83ROUNDEDRECTD83*%
G04:AMPARAMS|DCode=84|XSize=31.58mil|YSize=38.27mil|CornerRadius=7.89mil|HoleSize=0mil|Usage=FLASHONLY|Rotation=0.000|XOffset=0mil|YOffset=0mil|HoleType=Round|Shape=RoundedRectangle|*
%AMROUNDEDRECTD84*
21,1,0.03158,0.02248,0,0,0.0*
21,1,0.01579,0.03827,0,0,0.0*
1,1,0.01579,0.00789,-0.01124*
1,1,0.01579,-0.00789,-0.01124*
1,1,0.01579,-0.00789,0.01124*
1,1,0.01579,0.00789,0.01124*
%
%ADD84ROUNDEDRECTD84*%
%ADD85C,0.01575*%
%ADD86R,0.03150X0.01102*%
G36*
X25755Y84765D02*
X25658Y84752D01*
X24914Y84444D01*
X24275Y83953D01*
X23785Y83314D01*
X23476Y82570D01*
X23371Y81772D01*
Y80354D01*
X23476Y79556D01*
X23785Y78812D01*
X24275Y78173D01*
X24914Y77682D01*
X25658Y77374D01*
Y76878D01*
X24914Y76570D01*
X24275Y76079D01*
X23785Y75440D01*
X23476Y74696D01*
X23371Y73898D01*
Y72480D01*
X23476Y71682D01*
X23785Y70938D01*
X24170Y70436D01*
X23979Y69936D01*
X21060D01*
X20870Y70436D01*
X21255Y70938D01*
X21563Y71682D01*
X21668Y72480D01*
Y73898D01*
X21563Y74696D01*
X21255Y75440D01*
X20764Y76079D01*
X20125Y76570D01*
X19381Y76878D01*
X18583Y76983D01*
X17784Y76878D01*
X17040Y76570D01*
X16401Y76079D01*
X15911Y75440D01*
X15602Y74696D01*
X15497Y73898D01*
Y72480D01*
X15602Y71682D01*
X15911Y70938D01*
X16401Y70299D01*
X17040Y69808D01*
X17784Y69500D01*
X18162Y69450D01*
X18341Y68922D01*
X17687Y68268D01*
X15188D01*
X14881Y68207D01*
X14753Y68243D01*
X14381Y68502D01*
Y85265D01*
X25722D01*
X25755Y84765D01*
D02*
G37*
G36*
X85638Y84911D02*
X85638Y47409D01*
X85607Y47396D01*
X85138Y47325D01*
X85013Y47513D01*
X84732Y47701D01*
X84400Y47767D01*
X82960D01*
X82898Y48079D01*
X82570Y48570D01*
X82079Y48898D01*
X81850Y48944D01*
X80825Y49970D01*
Y50297D01*
X80825Y50297D01*
X80739Y50726D01*
X80496Y51090D01*
X80496Y51090D01*
X79793Y51793D01*
X79429Y52036D01*
X79000Y52122D01*
X79000Y52122D01*
X77910D01*
X77703Y52622D01*
X79182Y54100D01*
X79726D01*
X79930Y53795D01*
X80421Y53467D01*
X81000Y53352D01*
X81579Y53467D01*
X82070Y53795D01*
X82398Y54286D01*
X82513Y54865D01*
X82398Y55444D01*
X82070Y55935D01*
X81579Y56263D01*
X81000Y56378D01*
X80421Y56263D01*
X79930Y55935D01*
X79726Y55630D01*
X79179D01*
X78777Y56067D01*
X78767Y56120D01*
X78789Y56232D01*
X78674Y56811D01*
X78346Y57302D01*
X77855Y57630D01*
X77276Y57746D01*
X76696Y57630D01*
X76205Y57302D01*
X76000Y56995D01*
X75711Y57044D01*
X75500Y57146D01*
X75398Y57656D01*
X75070Y58147D01*
X74579Y58475D01*
X74000Y58590D01*
X73421Y58475D01*
X72930Y58147D01*
X72602Y57656D01*
X72487Y57077D01*
X72558Y56717D01*
X71106Y55265D01*
X69219D01*
X68926Y55207D01*
X68678Y55041D01*
X68678Y55041D01*
X67637Y53999D01*
X67137Y54206D01*
Y54719D01*
X67063Y55086D01*
X66855Y55398D01*
X66569Y55589D01*
X66543Y55781D01*
Y55920D01*
X66569Y56111D01*
X66855Y56302D01*
X67063Y56614D01*
X67137Y56982D01*
Y57868D01*
X67106Y58024D01*
X69900Y60818D01*
X70063Y60786D01*
X70489Y60870D01*
X70849Y61111D01*
X71245D01*
X71606Y60870D01*
X72031Y60786D01*
X72457Y60870D01*
X72818Y61111D01*
X73059Y61472D01*
X73143Y61898D01*
Y66425D01*
X73059Y66851D01*
X72818Y67212D01*
X72457Y67453D01*
X72155Y67513D01*
X71127Y68541D01*
X70878Y68707D01*
X70586Y68765D01*
X69500D01*
X69500Y68765D01*
X69207Y68707D01*
X68959Y68541D01*
X68959Y68541D01*
X68934Y68515D01*
X68391Y68680D01*
X68358Y68846D01*
X68030Y69337D01*
X67539Y69665D01*
X66960Y69780D01*
X66381Y69665D01*
X65890Y69337D01*
X65562Y68846D01*
X65447Y68267D01*
X65562Y67688D01*
X65890Y67197D01*
X66381Y66869D01*
X66960Y66753D01*
X67458Y66852D01*
X67958Y66604D01*
Y63901D01*
X67581Y63592D01*
X67137Y63776D01*
Y64167D01*
X67063Y64535D01*
X66855Y64847D01*
X66543Y65056D01*
X66175Y65129D01*
X63518D01*
X63150Y65056D01*
X62918Y65480D01*
X62898Y65579D01*
X62570Y66070D01*
X62079Y66398D01*
X61500Y66513D01*
X60921Y66398D01*
X60430Y66070D01*
X60102Y65579D01*
X60082Y65480D01*
X59850Y65056D01*
X59482Y65129D01*
X56825D01*
X56457Y65056D01*
X56145Y64847D01*
X55937Y64535D01*
X55863Y64167D01*
Y63282D01*
X55937Y62914D01*
X56145Y62602D01*
X56431Y62411D01*
X56457Y62219D01*
Y62080D01*
X56431Y61889D01*
X56145Y61698D01*
X55937Y61386D01*
X55927Y61339D01*
X54942D01*
X54844Y61437D01*
Y62561D01*
X54790Y62833D01*
X54702Y62966D01*
Y63534D01*
X54790Y63667D01*
X54844Y63939D01*
Y65612D01*
X54790Y65884D01*
X54636Y66115D01*
X54434Y66250D01*
X53499Y67185D01*
Y68679D01*
X53441Y68971D01*
X53275Y69219D01*
X52536Y69958D01*
Y70755D01*
X52551Y70758D01*
X53211Y71199D01*
X53652Y71859D01*
X53807Y72638D01*
Y73583D01*
X53652Y74361D01*
X53211Y75022D01*
X52551Y75463D01*
X51772Y75618D01*
X51751Y75614D01*
X51735Y75636D01*
X51739Y75687D01*
X51973Y76155D01*
X52551Y76269D01*
X53211Y76710D01*
X53293Y76834D01*
X53793D01*
X53876Y76710D01*
X54536Y76269D01*
X55315Y76114D01*
X56094Y76269D01*
X56754Y76710D01*
X56935Y76981D01*
X57435D01*
X57616Y76710D01*
X58276Y76269D01*
X59055Y76114D01*
X59834Y76269D01*
X60494Y76710D01*
X60935Y77371D01*
X61090Y78150D01*
Y79094D01*
X60935Y79873D01*
X60494Y80534D01*
X59834Y80975D01*
X59055Y81130D01*
X58276Y80975D01*
X57616Y80534D01*
X57435Y80263D01*
X56935D01*
X56754Y80534D01*
X56094Y80975D01*
X55315Y81130D01*
X54536Y80975D01*
X53876Y80534D01*
X53793Y80410D01*
X53293D01*
X53211Y80534D01*
X52551Y80975D01*
X51772Y81130D01*
X50993Y80975D01*
X50981Y80967D01*
X50066Y81881D01*
X49818Y82047D01*
X49526Y82105D01*
X47298D01*
X47005Y82047D01*
X46757Y81881D01*
X45442Y80566D01*
X45276Y80317D01*
X45218Y80025D01*
Y76022D01*
X44889Y75670D01*
X44752Y75604D01*
X44685Y75618D01*
X43906Y75463D01*
X43246Y75022D01*
X43065Y74751D01*
X42565D01*
X42384Y75022D01*
X41724Y75463D01*
X40945Y75618D01*
X40166Y75463D01*
X39506Y75022D01*
X39065Y74361D01*
X38910Y73583D01*
Y72638D01*
X39065Y71859D01*
X39506Y71199D01*
X40166Y70758D01*
X40945Y70603D01*
X41724Y70758D01*
X42384Y71199D01*
X42565Y71470D01*
X43065D01*
X43246Y71199D01*
X43906Y70758D01*
X44685Y70603D01*
X45464Y70758D01*
X45476Y70766D01*
X47267Y68975D01*
Y66259D01*
X46779Y66111D01*
X46767Y66114D01*
X46754Y66120D01*
X46532Y66269D01*
X46260Y66323D01*
X45866D01*
X45594Y66269D01*
X45364Y66115D01*
X45210Y65884D01*
X45191Y65790D01*
X43123D01*
X43070Y65870D01*
X42579Y66198D01*
X42000Y66313D01*
X41421Y66198D01*
X40930Y65870D01*
X40664Y65472D01*
X40117Y65311D01*
X36388Y69041D01*
X36140Y69207D01*
X35847Y69265D01*
X33633D01*
X33441Y69727D01*
X33541Y69826D01*
X33707Y70074D01*
X33765Y70367D01*
Y70726D01*
X34070Y70930D01*
X34398Y71421D01*
X34513Y72000D01*
X34398Y72579D01*
X34070Y73070D01*
X33579Y73398D01*
X33000Y73513D01*
X32421Y73398D01*
X31930Y73070D01*
X31602Y72579D01*
X31487Y72000D01*
X31602Y71421D01*
X31930Y70930D01*
X31900Y70348D01*
X30723Y69171D01*
X30176Y69332D01*
X29910Y69730D01*
X29419Y70058D01*
X29128Y70116D01*
X28915Y70659D01*
X29129Y70938D01*
X29437Y71682D01*
X29542Y72480D01*
Y73898D01*
X29437Y74696D01*
X29129Y75440D01*
X28638Y76079D01*
X27999Y76570D01*
X27255Y76878D01*
Y77374D01*
X27999Y77682D01*
X28638Y78173D01*
X29129Y78812D01*
X29437Y79556D01*
X29542Y80354D01*
Y81772D01*
X29437Y82570D01*
X29129Y83314D01*
X28638Y83953D01*
X27999Y84444D01*
X27255Y84752D01*
X27158Y84765D01*
X27191Y85265D01*
X72809D01*
X72842Y84765D01*
X72745Y84752D01*
X72001Y84444D01*
X71362Y83953D01*
X70871Y83314D01*
X70563Y82570D01*
X70458Y81772D01*
Y80354D01*
X70563Y79556D01*
X70871Y78812D01*
X71362Y78173D01*
X72001Y77682D01*
X72745Y77374D01*
Y76878D01*
X72001Y76570D01*
X71362Y76079D01*
X70871Y75440D01*
X70563Y74696D01*
X70458Y73898D01*
Y72480D01*
X70563Y71682D01*
X70871Y70938D01*
X71362Y70299D01*
X72001Y69808D01*
X72745Y69500D01*
X73543Y69395D01*
X74342Y69500D01*
X75086Y69808D01*
X75725Y70299D01*
X76215Y70938D01*
X76524Y71682D01*
X76629Y72480D01*
Y73898D01*
X76524Y74696D01*
X76215Y75440D01*
X75725Y76079D01*
X75086Y76570D01*
X74342Y76878D01*
Y77374D01*
X75086Y77682D01*
X75725Y78173D01*
X76215Y78812D01*
X76524Y79556D01*
X76629Y80354D01*
Y81772D01*
X76524Y82570D01*
X76215Y83314D01*
X75725Y83953D01*
X75086Y84444D01*
X74342Y84752D01*
X74245Y84765D01*
X74278Y85265D01*
X80683D01*
X80716Y84765D01*
X80619Y84752D01*
X79875Y84444D01*
X79236Y83953D01*
X78745Y83314D01*
X78437Y82570D01*
X78332Y81772D01*
Y80354D01*
X78437Y79556D01*
X78745Y78812D01*
X79236Y78173D01*
X79875Y77682D01*
X80619Y77374D01*
Y76878D01*
X79875Y76570D01*
X79236Y76079D01*
X78745Y75440D01*
X78437Y74696D01*
X78332Y73898D01*
Y72480D01*
X78437Y71682D01*
X78745Y70938D01*
X79236Y70299D01*
X79875Y69808D01*
X80619Y69500D01*
X81417Y69395D01*
X82216Y69500D01*
X82960Y69808D01*
X83599Y70299D01*
X84089Y70938D01*
X84398Y71682D01*
X84503Y72480D01*
Y73898D01*
X84398Y74696D01*
X84089Y75440D01*
X83599Y76079D01*
X82960Y76570D01*
X82216Y76878D01*
Y77374D01*
X82960Y77682D01*
X83599Y78173D01*
X84089Y78812D01*
X84398Y79556D01*
X84503Y80354D01*
Y81772D01*
X84398Y82570D01*
X84089Y83314D01*
X83599Y83953D01*
X82960Y84444D01*
X82216Y84752D01*
X82119Y84765D01*
X82152Y85265D01*
X85285D01*
X85638Y84911D01*
D02*
G37*
G36*
X165619Y59462D02*
X165390Y59330D01*
X165119Y59256D01*
X164628Y59584D01*
X163972Y59714D01*
X160429D01*
X159773Y59584D01*
X159608Y59473D01*
X159200Y59881D01*
X159398Y60177D01*
X159513Y60757D01*
X159398Y61336D01*
X159070Y61827D01*
X158579Y62155D01*
X158000Y62270D01*
X157421Y62155D01*
X157265Y62050D01*
X156765Y62318D01*
Y69183D01*
X158041Y70459D01*
X158206Y70707D01*
X158236Y70856D01*
X158712Y70931D01*
X158750Y70928D01*
X159234Y70297D01*
X159873Y69807D01*
X160617Y69499D01*
X161416Y69393D01*
X162215Y69499D01*
X162959Y69807D01*
X163598Y70297D01*
X164088Y70936D01*
X164396Y71680D01*
X164501Y72479D01*
Y73896D01*
X164396Y74695D01*
X164088Y75439D01*
X163598Y76078D01*
X162959Y76568D01*
X162215Y76877D01*
Y77373D01*
X162959Y77681D01*
X163598Y78171D01*
X164088Y78810D01*
X164396Y79554D01*
X164501Y80353D01*
Y81770D01*
X164396Y82569D01*
X164088Y83313D01*
X163598Y83952D01*
X162959Y84442D01*
X162215Y84751D01*
X162107Y84765D01*
X162140Y85265D01*
X165619D01*
Y59462D01*
D02*
G37*
G36*
X110658Y74410D02*
X110663Y74384D01*
X110660Y74359D01*
X110688Y73787D01*
X110706Y73713D01*
X110706Y73638D01*
X110930Y72515D01*
X110968Y72422D01*
X110988Y72324D01*
X111426Y71266D01*
X111482Y71182D01*
X111520Y71089D01*
X112157Y70137D01*
X112228Y70066D01*
X112283Y69983D01*
X113093Y69173D01*
X113177Y69117D01*
X113248Y69046D01*
X114200Y68410D01*
X114292Y68372D01*
X114376Y68316D01*
X115434Y67878D01*
X115532Y67858D01*
X115625Y67820D01*
X116748Y67596D01*
X116824Y67596D01*
X116897Y67578D01*
X117470Y67549D01*
X117495Y67553D01*
X117520Y67548D01*
X142480D01*
X142505Y67553D01*
X142531Y67549D01*
X143103Y67578D01*
X143176Y67596D01*
X143252Y67596D01*
X143704Y67686D01*
X143951Y67225D01*
X143477Y66752D01*
X143251Y66707D01*
X143007Y66544D01*
X142594D01*
X142349Y66707D01*
X142060Y66764D01*
X140940D01*
X140651Y66707D01*
X140407Y66544D01*
X139994D01*
X139749Y66707D01*
X139460Y66764D01*
X138340D01*
X138051Y66707D01*
X137806Y66544D01*
X137643Y66299D01*
X137585Y66010D01*
Y65622D01*
X136768D01*
Y65812D01*
X136696Y66178D01*
X136488Y66488D01*
X136178Y66696D01*
X135812Y66768D01*
X133187D01*
X132822Y66696D01*
X132512Y66488D01*
X132304Y66178D01*
X132232Y65812D01*
Y63187D01*
X132304Y62822D01*
X132512Y62512D01*
X132822Y62304D01*
X133187Y62232D01*
X133378D01*
Y61303D01*
X128734Y56658D01*
X128230Y56702D01*
X128006Y57122D01*
X128154Y57344D01*
X128285Y58000D01*
X128154Y58656D01*
X127783Y59212D01*
X127227Y59584D01*
X126571Y59714D01*
X123367D01*
X120885Y62196D01*
X120554Y62417D01*
X120164Y62495D01*
X116976D01*
X116695Y62965D01*
X116697Y62995D01*
X116762Y63319D01*
Y65681D01*
X116692Y66030D01*
X116495Y66325D01*
X116199Y66523D01*
X115850Y66592D01*
X113094D01*
X112746Y66523D01*
X112519Y66372D01*
X111615D01*
Y67510D01*
X111557Y67799D01*
X111393Y68044D01*
X111149Y68207D01*
X110860Y68265D01*
X109740D01*
X109451Y68207D01*
X109206Y68044D01*
X108793D01*
X108549Y68207D01*
X108260Y68265D01*
X107140D01*
X106851Y68207D01*
X106606Y68044D01*
X106443Y67799D01*
X106386Y67510D01*
Y64490D01*
X106443Y64201D01*
X106578Y63999D01*
Y63826D01*
X106578Y63826D01*
X106664Y63396D01*
X106907Y63033D01*
X108537Y61403D01*
X105353Y58220D01*
X101105D01*
X98462Y60863D01*
Y62087D01*
X98378Y62512D01*
X98137Y62873D01*
X97916Y63020D01*
Y63733D01*
X98900D01*
X99232Y63799D01*
X99513Y63987D01*
X99701Y64268D01*
X99767Y64600D01*
Y67400D01*
X99701Y67732D01*
X99513Y68013D01*
X99232Y68201D01*
X99129Y68221D01*
Y69466D01*
X99380Y69499D01*
X100124Y69807D01*
X100763Y70297D01*
X101253Y70936D01*
X101562Y71680D01*
X101667Y72479D01*
Y73896D01*
X101562Y74695D01*
X101253Y75439D01*
X100763Y76078D01*
X100124Y76568D01*
X99380Y76877D01*
X98581Y76982D01*
X97783Y76877D01*
X97039Y76568D01*
X96400Y76078D01*
X95909Y75439D01*
X95601Y74695D01*
X95496Y73896D01*
Y72479D01*
X95601Y71680D01*
X95909Y70936D01*
X96400Y70297D01*
X97039Y69807D01*
X97089Y69786D01*
Y68267D01*
X96100D01*
X95768Y68201D01*
X95487Y68013D01*
X95299Y67732D01*
X95233Y67400D01*
Y64600D01*
X95299Y64268D01*
X95487Y63987D01*
X95768Y63799D01*
X95877Y63778D01*
Y63140D01*
X95744Y63114D01*
X95383Y62873D01*
X95142Y62512D01*
X95057Y62087D01*
Y58937D01*
X95142Y58512D01*
X95383Y58151D01*
X95744Y57910D01*
X96169Y57825D01*
X97350D01*
X97776Y57910D01*
X98137Y58151D01*
X98277Y58165D01*
X99566Y56875D01*
X99460Y56527D01*
X99370Y56364D01*
X98930Y56070D01*
X98602Y55579D01*
X98487Y55000D01*
X98602Y54421D01*
X98930Y53930D01*
X98699Y53493D01*
X97376Y52170D01*
X97350Y52175D01*
X96169D01*
X95744Y52090D01*
X95383Y51849D01*
X95142Y51489D01*
X95057Y51063D01*
Y47913D01*
X95142Y47488D01*
X95383Y47127D01*
X95744Y46886D01*
X96169Y46801D01*
X97350D01*
X97776Y46886D01*
X98137Y47127D01*
X98378Y47488D01*
X98462Y47913D01*
Y51063D01*
X98457Y51088D01*
X100260Y52891D01*
X100426Y53139D01*
X100484Y53432D01*
Y53583D01*
X100579Y53602D01*
X101070Y53930D01*
X101398Y54421D01*
X101513Y55000D01*
X101398Y55579D01*
X101330Y55680D01*
X101598Y56180D01*
X105776D01*
X106166Y56258D01*
X106497Y56479D01*
X110447Y60429D01*
X114083Y59106D01*
X114294Y58653D01*
X112607Y54016D01*
X107969Y51854D01*
X107136Y49564D01*
X106632Y49323D01*
X106309Y49299D01*
X105943Y49639D01*
Y51063D01*
X105858Y51489D01*
X105617Y51849D01*
X105609Y51855D01*
X105571Y52410D01*
X105594Y52466D01*
X105898Y52921D01*
X106013Y53500D01*
X105898Y54079D01*
X105570Y54570D01*
X105079Y54898D01*
X104500Y55013D01*
X103921Y54898D01*
X103430Y54570D01*
X103102Y54079D01*
X102987Y53500D01*
X103102Y52921D01*
X103305Y52616D01*
X103265Y52358D01*
X103176Y52084D01*
X103139Y52034D01*
X102863Y51849D01*
X102622Y51489D01*
X102538Y51063D01*
Y48354D01*
X101198Y47763D01*
X99298Y46505D01*
X97638Y44943D01*
X96266Y43123D01*
X95221Y41097D01*
X94862Y39961D01*
X94362Y40038D01*
X94361Y84911D01*
X94715Y85265D01*
X105731D01*
X105764Y84765D01*
X105657Y84751D01*
X104913Y84442D01*
X104274Y83952D01*
X103783Y83313D01*
X103475Y82569D01*
X103370Y81770D01*
Y80353D01*
X103475Y79554D01*
X103783Y78810D01*
X104274Y78171D01*
X104913Y77681D01*
X105657Y77373D01*
Y76877D01*
X104913Y76568D01*
X104274Y76078D01*
X103783Y75439D01*
X103475Y74695D01*
X103370Y73896D01*
Y72479D01*
X103475Y71680D01*
X103783Y70936D01*
X104274Y70297D01*
X104913Y69807D01*
X105657Y69499D01*
X106455Y69393D01*
X107254Y69499D01*
X107998Y69807D01*
X108637Y70297D01*
X109127Y70936D01*
X109436Y71680D01*
X109541Y72479D01*
Y73896D01*
X109436Y74695D01*
X109127Y75439D01*
X108637Y76078D01*
X107998Y76568D01*
X107254Y76877D01*
Y77373D01*
X107998Y77681D01*
X108637Y78171D01*
X109127Y78810D01*
X109436Y79554D01*
X109541Y80353D01*
Y81770D01*
X109436Y82569D01*
X109127Y83313D01*
X108637Y83952D01*
X107998Y84442D01*
X107254Y84751D01*
X107147Y84765D01*
X107179Y85265D01*
X110658D01*
Y74410D01*
D02*
G37*
G36*
X152850Y84765D02*
X152743Y84751D01*
X151999Y84442D01*
X151360Y83952D01*
X150870Y83313D01*
X150562Y82569D01*
X150457Y81770D01*
Y80353D01*
X150562Y79554D01*
X150870Y78810D01*
X151360Y78171D01*
X151999Y77681D01*
X152743Y77373D01*
Y76877D01*
X151999Y76568D01*
X151360Y76078D01*
X150870Y75439D01*
X150562Y74695D01*
X150457Y73896D01*
Y72479D01*
X150562Y71680D01*
X150870Y70936D01*
X151360Y70297D01*
X151999Y69807D01*
X152743Y69499D01*
X153542Y69393D01*
X154341Y69499D01*
X154760Y69672D01*
X154902Y69621D01*
X155235Y69328D01*
Y58000D01*
X155294Y57707D01*
X155459Y57459D01*
X156558Y56360D01*
X156487Y56000D01*
X156602Y55421D01*
X156930Y54930D01*
X157235Y54726D01*
Y46010D01*
X157293Y45717D01*
X157459Y45469D01*
X159017Y43912D01*
X158846Y43656D01*
X158715Y43000D01*
X158846Y42344D01*
X159217Y41788D01*
X159773Y41416D01*
X160429Y41286D01*
X163972D01*
X164628Y41416D01*
X165119Y41744D01*
X165390Y41670D01*
X165619Y41538D01*
Y39462D01*
X165390Y39330D01*
X165119Y39256D01*
X164628Y39584D01*
X163972Y39714D01*
X160429D01*
X160412Y39711D01*
X156581Y43541D01*
X156333Y43707D01*
X156041Y43765D01*
X131898D01*
X128182Y47481D01*
X128285Y48000D01*
X128154Y48656D01*
X127783Y49212D01*
X127227Y49584D01*
X126571Y49714D01*
X123028D01*
X122372Y49584D01*
X121816Y49212D01*
X121444Y48656D01*
X121314Y48000D01*
X121425Y47438D01*
X121230Y47145D01*
X121073Y46999D01*
X121000Y47013D01*
X120421Y46898D01*
X119930Y46570D01*
X119602Y46079D01*
X119487Y45500D01*
X119602Y44921D01*
X119930Y44430D01*
X120421Y44102D01*
X120932Y44000D01*
X121416Y43516D01*
X121314Y43000D01*
X121444Y42344D01*
X121816Y41788D01*
X122372Y41416D01*
X123028Y41286D01*
X126571D01*
X127227Y41416D01*
X127783Y41788D01*
X128154Y42344D01*
X128285Y43000D01*
X128154Y43656D01*
X127783Y44212D01*
X127227Y44584D01*
X126571Y44714D01*
X123028D01*
X122820Y44673D01*
X122740Y44719D01*
X122435Y45106D01*
X122513Y45500D01*
X122435Y45894D01*
X122740Y46281D01*
X122820Y46327D01*
X123028Y46286D01*
X126571D01*
X127107Y46393D01*
X131041Y42459D01*
X131289Y42294D01*
X131581Y42235D01*
X131581Y42235D01*
X155724D01*
X159029Y38930D01*
X158846Y38656D01*
X158715Y38000D01*
X158846Y37344D01*
X159217Y36788D01*
X159773Y36416D01*
X160429Y36286D01*
X163972D01*
X164628Y36416D01*
X165119Y36744D01*
X165390Y36670D01*
X165619Y36538D01*
Y34462D01*
X165390Y34330D01*
X165119Y34256D01*
X164628Y34584D01*
X163972Y34714D01*
X160429D01*
X159773Y34584D01*
X159217Y34212D01*
X158846Y33656D01*
X158715Y33000D01*
X158846Y32344D01*
X159217Y31788D01*
X159773Y31416D01*
X160429Y31286D01*
X163972D01*
X164628Y31416D01*
X165119Y31744D01*
X165390Y31670D01*
X165619Y31538D01*
Y29462D01*
X165390Y29330D01*
X165119Y29256D01*
X164628Y29584D01*
X163972Y29714D01*
X160429D01*
X159773Y29584D01*
X159217Y29212D01*
X158846Y28656D01*
X158715Y28000D01*
X158846Y27344D01*
X159217Y26788D01*
X159773Y26416D01*
X160429Y26286D01*
X163972D01*
X164628Y26416D01*
X165119Y26744D01*
X165390Y26670D01*
X165619Y26538D01*
Y19462D01*
X165390Y19330D01*
X165119Y19256D01*
X164628Y19584D01*
X163972Y19714D01*
X160429D01*
X159773Y19584D01*
X159217Y19212D01*
X158846Y18656D01*
X158715Y18000D01*
X158846Y17344D01*
X159217Y16788D01*
X159773Y16416D01*
X160429Y16286D01*
X163972D01*
X164628Y16416D01*
X165119Y16744D01*
X165390Y16670D01*
X165619Y16538D01*
Y14462D01*
X165390Y14330D01*
X165119Y14256D01*
X164628Y14584D01*
X163972Y14714D01*
X160429D01*
X159773Y14584D01*
X159217Y14212D01*
X158846Y13656D01*
X158715Y13000D01*
X158846Y12344D01*
X159217Y11788D01*
X159773Y11416D01*
X160429Y11286D01*
X163972D01*
X164628Y11416D01*
X165119Y11744D01*
X165390Y11670D01*
X165619Y11538D01*
Y10719D01*
X114251D01*
X113754Y10777D01*
X113714Y11179D01*
X113671Y11323D01*
X113642Y11470D01*
X113334Y12213D01*
X113113Y12544D01*
X112544Y13113D01*
X112268Y13297D01*
X112249Y13559D01*
X112294Y13841D01*
X112513Y13987D01*
X112701Y14268D01*
X112767Y14600D01*
Y17400D01*
X112701Y17732D01*
X112658Y17796D01*
X112647Y17885D01*
X112751Y18364D01*
X112793Y18425D01*
X112843Y18459D01*
X115620Y21235D01*
X118226D01*
X118430Y20930D01*
X118921Y20602D01*
X119500Y20487D01*
X120079Y20602D01*
X120570Y20930D01*
X120898Y21421D01*
X121013Y22000D01*
X120969Y22224D01*
X121444Y22344D01*
X121519Y22232D01*
X121816Y21788D01*
X122372Y21416D01*
X123028Y21286D01*
X126571D01*
X127227Y21416D01*
X127783Y21788D01*
X128154Y22344D01*
X128285Y23000D01*
X128154Y23656D01*
X127783Y24212D01*
X127227Y24584D01*
X126571Y24714D01*
X123028D01*
X122372Y24584D01*
X121816Y24212D01*
X121444Y23656D01*
X121314Y23000D01*
X121348Y22825D01*
X121373Y22699D01*
X120898Y22579D01*
X120823Y22691D01*
X120570Y23070D01*
X120079Y23398D01*
X119500Y23513D01*
X118921Y23398D01*
X118430Y23070D01*
X118226Y22765D01*
X115303D01*
X115010Y22706D01*
X114762Y22541D01*
X113314Y21093D01*
X112890Y21376D01*
X113142Y21983D01*
X113171Y22130D01*
X113214Y22273D01*
X113254Y22676D01*
X113249Y22726D01*
X113259Y22776D01*
Y23783D01*
X115069Y24774D01*
X116855Y26190D01*
X118376Y27888D01*
X119588Y29818D01*
X120456Y31925D01*
X120956Y34150D01*
X121073Y36426D01*
X120979Y37208D01*
X121444Y37344D01*
X121816Y36788D01*
X122372Y36416D01*
X123028Y36286D01*
X126571D01*
X127227Y36416D01*
X127783Y36788D01*
X128154Y37344D01*
X128285Y38000D01*
X128154Y38656D01*
X127783Y39212D01*
X127227Y39584D01*
X126571Y39714D01*
X123028D01*
X122372Y39584D01*
X121816Y39212D01*
X121444Y38656D01*
X121360Y38235D01*
X120854Y38255D01*
X120803Y38689D01*
X120154Y40874D01*
X119146Y42919D01*
X117806Y44763D01*
X116990Y45559D01*
X116755Y46063D01*
X117668Y48571D01*
X118205Y48965D01*
X118666Y49725D01*
X120360Y54378D01*
X121325D01*
X121593Y53878D01*
X121444Y53656D01*
X121314Y53000D01*
X121444Y52344D01*
X121816Y51788D01*
X122372Y51416D01*
X123028Y51286D01*
X126571D01*
X127227Y51416D01*
X127783Y51788D01*
X127843Y51878D01*
X129661D01*
X129661Y51878D01*
X130091Y51964D01*
X130455Y52207D01*
X138101Y59853D01*
X140636D01*
X140636Y59853D01*
X141066Y59939D01*
X141429Y60182D01*
X142293Y61045D01*
X142293Y61045D01*
X142536Y61409D01*
X142622Y61839D01*
X142622Y61839D01*
Y62158D01*
X142724Y62238D01*
X143111Y62376D01*
X143137Y62370D01*
X143251Y62293D01*
X143540Y62235D01*
X144660D01*
X144949Y62293D01*
X145194Y62457D01*
X145357Y62701D01*
X145414Y62990D01*
Y65517D01*
X145751Y65853D01*
X146143D01*
X146557Y65577D01*
X147136Y65462D01*
X147716Y65577D01*
X148206Y65905D01*
X148535Y66396D01*
X148650Y66975D01*
X148535Y67554D01*
X148206Y68045D01*
X147716Y68373D01*
X147136Y68488D01*
X146682Y68398D01*
X146487Y68869D01*
X146752Y69046D01*
X146824Y69117D01*
X146907Y69173D01*
X147717Y69983D01*
X147772Y70066D01*
X147843Y70137D01*
X148480Y71090D01*
X148518Y71182D01*
X148574Y71266D01*
X149012Y72324D01*
X149032Y72422D01*
X149070Y72515D01*
X149294Y73638D01*
X149294Y73713D01*
X149312Y73787D01*
X149340Y74359D01*
X149337Y74384D01*
X149342Y74410D01*
X149342Y85265D01*
X152818D01*
X152850Y84765D01*
D02*
G37*
G36*
X26506Y66998D02*
X26448Y66623D01*
X26365Y66432D01*
X26177Y66307D01*
X23139Y63268D01*
X21188D01*
X20822Y63196D01*
X20512Y62988D01*
X20304Y62678D01*
X20232Y62313D01*
Y59688D01*
X20304Y59322D01*
X20512Y59012D01*
X20822Y58804D01*
X21188Y58732D01*
X23812D01*
X23959Y58761D01*
X24459Y58436D01*
Y57000D01*
X24617Y56617D01*
X24587Y56155D01*
X24540Y56041D01*
X23767D01*
X23384Y55883D01*
X23225Y55500D01*
Y54653D01*
X23191Y54480D01*
X23123Y54378D01*
X23020Y54309D01*
X22847Y54275D01*
X20153D01*
X19979Y54309D01*
X19877Y54378D01*
X19809Y54480D01*
X19786Y54597D01*
X19698Y54729D01*
X19638Y54874D01*
X19586Y54896D01*
X19556Y54942D01*
X19401Y54972D01*
X19255Y55033D01*
X18745D01*
X18599Y54973D01*
X18444Y54942D01*
X18414Y54896D01*
X18362Y54874D01*
X18302Y54729D01*
X18214Y54597D01*
X18191Y54480D01*
X18123Y54377D01*
X18021Y54309D01*
X17847Y54275D01*
X15153D01*
X14987Y54308D01*
X14881Y54287D01*
X14694Y54369D01*
X14381Y54647D01*
Y63498D01*
X14753Y63757D01*
X14881Y63793D01*
X15188Y63732D01*
X17812D01*
X18178Y63804D01*
X18488Y64012D01*
X18696Y64322D01*
X18768Y64688D01*
Y67187D01*
X19988Y68407D01*
X25098D01*
X26506Y66998D01*
D02*
G37*
G36*
X38000Y63852D02*
Y57265D01*
X36776Y56041D01*
X35500Y56041D01*
X35500Y56041D01*
X35401Y56000D01*
X35000D01*
X34000Y55000D01*
Y51248D01*
X32621D01*
X32354Y51748D01*
X32397Y51813D01*
X32471Y52185D01*
Y54429D01*
X32397Y54801D01*
X32187Y55116D01*
X32000Y55241D01*
Y63500D01*
X33648Y65148D01*
X34070Y65430D01*
X34117Y65500D01*
X36352D01*
X38000Y63852D01*
D02*
G37*
G36*
X26000Y55459D02*
X26000Y55459D01*
X27541D01*
X28000Y55000D01*
Y51248D01*
X26276D01*
Y49577D01*
X24020D01*
X23637Y49418D01*
X23479Y49036D01*
Y47933D01*
X23481Y47926D01*
X23620Y47500D01*
X23481Y47074D01*
X23479Y47067D01*
Y45965D01*
X23500Y45913D01*
Y41270D01*
X22750D01*
X22744Y41268D01*
X20188D01*
X20000Y41231D01*
X19578Y41489D01*
X19500Y41582D01*
Y47500D01*
X19000Y48000D01*
X14381D01*
Y53457D01*
X14517Y53578D01*
X14881Y53777D01*
X15100Y53733D01*
X17900D01*
X18232Y53799D01*
X18513Y53987D01*
X18701Y54268D01*
X18745Y54492D01*
X19255D01*
X19299Y54268D01*
X19487Y53987D01*
X19768Y53799D01*
X20100Y53733D01*
X22900D01*
X23232Y53799D01*
X23513Y53987D01*
X23701Y54268D01*
X23767Y54600D01*
Y55500D01*
X25901D01*
X26000Y55459D01*
D02*
G37*
G36*
X43000Y58034D02*
X43000Y52849D01*
X42900Y52767D01*
X40100D01*
X39768Y52701D01*
X39487Y52513D01*
X39299Y52232D01*
X39233Y51900D01*
Y51800D01*
X35000D01*
X35000Y55000D01*
X35500Y55500D01*
X37000Y55500D01*
X40000Y58500D01*
X42534D01*
X43000Y58034D01*
D02*
G37*
G36*
X49500Y70284D02*
Y69688D01*
X49558Y69395D01*
X49724Y69147D01*
X50970Y67902D01*
Y65260D01*
X51028Y64967D01*
X51061Y64917D01*
Y63939D01*
X51115Y63667D01*
X51204Y63534D01*
Y62966D01*
X51115Y62833D01*
X51061Y62561D01*
Y60997D01*
X51008Y60575D01*
X50677Y60449D01*
X50421Y60398D01*
X49930Y60070D01*
X49602Y59579D01*
X49487Y59000D01*
X49602Y58421D01*
X49930Y57930D01*
X50421Y57602D01*
X51000Y57487D01*
X51579Y57602D01*
X52070Y57930D01*
X52398Y58421D01*
X52480Y58832D01*
X52935Y59025D01*
X52990Y59029D01*
X53259Y58759D01*
X53259Y58759D01*
X53507Y58593D01*
X53800Y58535D01*
X53800Y58535D01*
X55083D01*
X55863Y57755D01*
Y56982D01*
X55937Y56614D01*
X56145Y56302D01*
X56431Y56111D01*
X56457Y55920D01*
Y55781D01*
X56431Y55589D01*
X56145Y55398D01*
X55937Y55086D01*
X55863Y54719D01*
Y53833D01*
X55937Y53465D01*
X55994Y53379D01*
X55980Y53346D01*
X55732Y53180D01*
X53316Y50765D01*
X51945D01*
X51653Y50706D01*
X51405Y50541D01*
X48227Y47363D01*
X47765Y47554D01*
Y50683D01*
X49476Y52395D01*
X51566D01*
X51770Y52090D01*
X52261Y51762D01*
X52840Y51646D01*
X53419Y51762D01*
X53910Y52090D01*
X54238Y52581D01*
X54354Y53160D01*
X54238Y53739D01*
X53910Y54230D01*
X53419Y54558D01*
X52954Y54650D01*
X52696Y54855D01*
X52491Y55113D01*
X52398Y55579D01*
X52070Y56070D01*
X51579Y56398D01*
X51000Y56513D01*
X50421Y56398D01*
X49930Y56070D01*
X49726Y55765D01*
X49586D01*
X49293Y55707D01*
X49045Y55541D01*
X48961Y55457D01*
X48499Y55648D01*
Y57133D01*
X48499Y57133D01*
X48441Y57425D01*
X48275Y57673D01*
X48275Y57673D01*
X47216Y58732D01*
X47207Y58858D01*
X47325Y59331D01*
X47429Y59400D01*
X48206Y60177D01*
X48228D01*
X48500Y60231D01*
X48731Y60385D01*
X48885Y60616D01*
X48939Y60888D01*
Y62561D01*
X48885Y62833D01*
X48796Y62966D01*
Y63534D01*
X48885Y63667D01*
X48939Y63939D01*
Y65612D01*
X48885Y65884D01*
X48796Y66017D01*
Y69291D01*
X48738Y69584D01*
X48572Y69832D01*
X48284Y70121D01*
X48462Y70649D01*
X49007Y70758D01*
X49019Y70766D01*
X49500Y70284D01*
D02*
G37*
G36*
X31000Y63500D02*
X31000Y55241D01*
X30813Y55116D01*
X30602Y54801D01*
X30529Y54429D01*
Y52185D01*
X30602Y51813D01*
X30646Y51748D01*
X30379Y51248D01*
X29000D01*
Y55000D01*
X28000Y56000D01*
X26000D01*
X25000Y57000D01*
X25000Y62967D01*
X27034Y65001D01*
X29499D01*
X31000Y63500D01*
D02*
G37*
G36*
X31901Y54524D02*
X31930Y54376D01*
Y52238D01*
X31873Y51950D01*
X31836Y51905D01*
X31849Y51773D01*
X31823Y51642D01*
X31869Y51574D01*
X31877Y51493D01*
X32144Y50993D01*
X32207Y50941D01*
X32238Y50865D01*
X32361Y50814D01*
X32464Y50730D01*
X32546Y50738D01*
X32621Y50707D01*
X34000D01*
X34383Y50865D01*
X34422Y50960D01*
X34545Y51248D01*
X35000Y51259D01*
X35210D01*
X35437Y51214D01*
X35664Y51259D01*
X39233D01*
X39616Y51417D01*
X39775Y51800D01*
Y51847D01*
X39809Y52021D01*
X39877Y52123D01*
X39979Y52191D01*
X40153Y52226D01*
X42900D01*
X43235Y51823D01*
Y42210D01*
X42900Y41767D01*
X40100D01*
X39768Y41701D01*
X39487Y41513D01*
X39299Y41232D01*
X39233Y40900D01*
Y40133D01*
X36831D01*
X36408Y40571D01*
Y42815D01*
X36334Y43187D01*
X36124Y43502D01*
X35809Y43712D01*
X35437Y43786D01*
X35065Y43712D01*
X34750Y43502D01*
X34155D01*
X33840Y43712D01*
X33468Y43786D01*
X33097Y43712D01*
X32782Y43502D01*
X32187D01*
X31872Y43712D01*
X31500Y43786D01*
X31128Y43712D01*
X30813Y43502D01*
X30602Y43187D01*
X30529Y42815D01*
Y40571D01*
X30590Y40265D01*
X30535Y40104D01*
X30291Y39765D01*
X28834D01*
X28700Y39930D01*
X28523Y40265D01*
X28583Y40563D01*
Y41693D01*
X28534Y41935D01*
Y42815D01*
X28460Y43187D01*
X28250Y43502D01*
X27935Y43712D01*
X27563Y43786D01*
X27191Y43712D01*
X26876Y43502D01*
X26665Y43187D01*
X26592Y42815D01*
Y41935D01*
X26543Y41693D01*
Y41270D01*
X24041D01*
Y45913D01*
X24020Y45965D01*
Y46979D01*
X24135Y47332D01*
X24122Y47500D01*
X24135Y47668D01*
X24020Y48021D01*
Y48928D01*
X24051Y49004D01*
X24127Y49036D01*
X26276D01*
X26658Y49194D01*
X26817Y49577D01*
Y50707D01*
X28000D01*
X28383Y50865D01*
X28617Y50865D01*
X29000Y50707D01*
X30379D01*
X30454Y50738D01*
X30536Y50730D01*
X30639Y50814D01*
X30762Y50865D01*
X30793Y50941D01*
X30856Y50993D01*
X31123Y51493D01*
X31131Y51574D01*
X31177Y51642D01*
X31151Y51773D01*
X31164Y51905D01*
X31127Y51950D01*
X31070Y52238D01*
Y54376D01*
X31099Y54524D01*
X31500Y54722D01*
X31901Y54524D01*
D02*
G37*
G36*
X64500Y45000D02*
X63800Y44300D01*
X63300D01*
Y45400D01*
X64500D01*
Y45000D01*
D02*
G37*
G36*
X52700Y44300D02*
X52200D01*
X51500Y45000D01*
Y45400D01*
X52700D01*
Y44300D01*
D02*
G37*
G36*
X63300Y43759D02*
X63759D01*
Y43300D01*
X63917Y42917D01*
X63917Y42917D01*
X63902Y42900D01*
X63773Y42814D01*
X63596Y42549D01*
X63534Y42237D01*
Y41637D01*
X63596Y41325D01*
X63734Y40953D01*
X63596Y40581D01*
X63534Y40268D01*
Y39669D01*
X63596Y39356D01*
X63773Y39092D01*
X64038Y38915D01*
X64350Y38853D01*
X66950D01*
X67262Y38915D01*
X67360Y38980D01*
X68446D01*
X69733Y37693D01*
Y35600D01*
X69799Y35268D01*
X69987Y34987D01*
X70268Y34799D01*
X70600Y34733D01*
X73400D01*
X73732Y34799D01*
X74013Y34987D01*
X74201Y35268D01*
X74232Y35424D01*
X74732Y35375D01*
Y33373D01*
X74804Y33007D01*
X75012Y32697D01*
X75322Y32489D01*
X75687Y32417D01*
X76235D01*
Y30817D01*
X72425Y27006D01*
X71964Y27253D01*
X72013Y27500D01*
X71898Y28079D01*
X71570Y28570D01*
X71079Y28898D01*
X70500Y29013D01*
X70265Y29437D01*
Y32744D01*
X70206Y33036D01*
X70041Y33284D01*
X68765Y34560D01*
Y34798D01*
X68707Y35091D01*
X68541Y35339D01*
X67766Y36114D01*
Y36331D01*
X67704Y36644D01*
X67527Y36908D01*
X67262Y37085D01*
X66950Y37147D01*
X64350D01*
X64038Y37085D01*
X63773Y36908D01*
X63596Y36644D01*
X63534Y36331D01*
Y35732D01*
X63596Y35419D01*
X63734Y35047D01*
X63596Y34675D01*
X63534Y34363D01*
Y33763D01*
X63596Y33451D01*
X63773Y33186D01*
X63902Y33100D01*
X63902Y33100D01*
X63902Y33100D01*
X63917Y33083D01*
Y33083D01*
X63759Y32700D01*
Y32241D01*
X63300D01*
X62917Y32083D01*
X62917Y32083D01*
X62900Y32098D01*
X62814Y32227D01*
X62549Y32404D01*
X62237Y32466D01*
X61637D01*
X61325Y32404D01*
X61060Y32227D01*
X60845D01*
X60581Y32404D01*
X60268Y32466D01*
X59668D01*
X59356Y32404D01*
X59092Y32227D01*
X58877D01*
X58612Y32404D01*
X58300Y32466D01*
X57700D01*
X57388Y32404D01*
X57123Y32227D01*
X56908D01*
X56644Y32404D01*
X56331Y32466D01*
X55731D01*
X55419Y32404D01*
X55328Y32342D01*
X54828Y32569D01*
Y34246D01*
X56536Y35954D01*
X57914D01*
X57930Y35930D01*
X58421Y35602D01*
X59000Y35487D01*
X59579Y35602D01*
X60070Y35930D01*
X60398Y36421D01*
X60513Y37000D01*
X60398Y37579D01*
X60070Y38070D01*
X59579Y38398D01*
X59000Y38513D01*
X58753Y38464D01*
X58506Y38925D01*
X59041Y39459D01*
X59206Y39707D01*
X59265Y40000D01*
Y42065D01*
X59265Y42065D01*
X59206Y42358D01*
X59041Y42606D01*
X59041Y42606D01*
X58677Y42970D01*
X58770Y43495D01*
X59150Y43673D01*
X59356Y43596D01*
X59668Y43534D01*
X60268D01*
X60581Y43596D01*
X60953Y43734D01*
X61325Y43596D01*
X61637Y43534D01*
X62237D01*
X62549Y43596D01*
X62814Y43773D01*
X62900Y43902D01*
X62900Y43902D01*
X62900Y43902D01*
X62917Y43917D01*
X62917D01*
X63300Y43759D01*
D02*
G37*
G36*
X65400Y43300D02*
X64300D01*
Y43800D01*
X65000Y44500D01*
X65400D01*
Y43300D01*
D02*
G37*
G36*
X51700Y43800D02*
Y43300D01*
X50600D01*
Y44500D01*
X51000D01*
X51700Y43800D01*
D02*
G37*
G36*
X18959Y47276D02*
Y41582D01*
X19029Y41412D01*
X19084Y41236D01*
X19162Y41143D01*
X19227Y40929D01*
X19157Y40819D01*
X19097Y40801D01*
X18583Y40847D01*
X18488Y40988D01*
X18178Y41196D01*
X17812Y41268D01*
X15188D01*
X14881Y41207D01*
X14753Y41243D01*
X14381Y41502D01*
Y47459D01*
X18776D01*
X18959Y47276D01*
D02*
G37*
G36*
X30500Y37453D02*
Y30631D01*
X28497Y28629D01*
X27955Y28793D01*
X27898Y29079D01*
X27570Y29570D01*
X27079Y29898D01*
X26500Y30013D01*
X25921Y29898D01*
X25430Y29570D01*
X25102Y29079D01*
X24987Y28500D01*
X25102Y27921D01*
X25430Y27430D01*
X25921Y27102D01*
X26261Y27034D01*
X26320Y26818D01*
X26314Y26514D01*
X25962Y26279D01*
X25677Y25852D01*
X25577Y25349D01*
Y23771D01*
X25609Y23609D01*
X23300Y21300D01*
X14381Y21300D01*
Y31624D01*
X14601Y31714D01*
X14881Y31793D01*
X15188Y31732D01*
X17812D01*
X18178Y31804D01*
X18188Y31811D01*
X20812D01*
X20822Y31804D01*
X21188Y31732D01*
X23812D01*
X24178Y31804D01*
X24488Y32012D01*
X24696Y32322D01*
X24768Y32688D01*
Y32768D01*
X25201Y33201D01*
Y36699D01*
X25207Y36707D01*
X25265Y37000D01*
X25265Y37000D01*
Y37683D01*
X25817Y38235D01*
X29635D01*
X30500Y37453D01*
D02*
G37*
G36*
X65400Y31500D02*
X65000D01*
X64300Y32200D01*
Y32700D01*
X65400D01*
Y31500D01*
D02*
G37*
G36*
X51700Y32200D02*
X51000Y31500D01*
X50600D01*
Y32700D01*
X51700D01*
Y32200D01*
D02*
G37*
G36*
X64500Y31000D02*
Y30600D01*
X63300D01*
Y31700D01*
X63800D01*
X64500Y31000D01*
D02*
G37*
G36*
X52700Y30600D02*
X51500D01*
Y31000D01*
X52200Y31700D01*
X52700D01*
Y30600D01*
D02*
G37*
G36*
X56852Y28164D02*
X57069Y28026D01*
X57085Y27674D01*
X56930Y27570D01*
X56602Y27079D01*
X56487Y26500D01*
X56602Y25921D01*
X56930Y25430D01*
X57421Y25102D01*
X58000Y24987D01*
X58579Y25102D01*
X59070Y25430D01*
X59398Y25921D01*
X59513Y26500D01*
X59398Y27079D01*
X59070Y27570D01*
X58915Y27674D01*
X58930Y27998D01*
X58986Y28039D01*
X59392Y28167D01*
X59438Y28168D01*
X65951Y21655D01*
X65911Y21161D01*
X65470Y20920D01*
X65000Y21013D01*
X64421Y20898D01*
X63930Y20570D01*
X63794Y20367D01*
X63281D01*
X63277Y20388D01*
X62890Y20966D01*
X62312Y21353D01*
X61629Y21489D01*
X55129D01*
X54446Y21353D01*
X53867Y20966D01*
X53480Y20388D01*
X53344Y19705D01*
X53480Y19022D01*
X53867Y18443D01*
X54303Y18152D01*
X54323Y18087D01*
Y17661D01*
X54303Y17596D01*
X53867Y17305D01*
X53480Y16726D01*
X53344Y16043D01*
X53480Y15360D01*
X53867Y14782D01*
X54303Y14490D01*
X54323Y14425D01*
Y14000D01*
X54303Y13935D01*
X53867Y13644D01*
X53480Y13065D01*
X53344Y12382D01*
X53480Y11699D01*
X53801Y11220D01*
X53683Y10864D01*
X53579Y10719D01*
X52599D01*
X52468Y10945D01*
X52392Y11220D01*
X52527Y11422D01*
X52591Y11740D01*
Y14260D01*
X52527Y14578D01*
X52347Y14847D01*
X52078Y15028D01*
X51760Y15091D01*
X49573D01*
X49523Y15591D01*
X49579Y15602D01*
X50070Y15930D01*
X50398Y16421D01*
X50495Y16909D01*
X51760D01*
X52078Y16972D01*
X52347Y17153D01*
X52527Y17422D01*
X52591Y17740D01*
Y20260D01*
X52527Y20578D01*
X52347Y20847D01*
X52078Y21027D01*
X51760Y21091D01*
X49240D01*
X48922Y21027D01*
X48653Y20847D01*
X48472Y20578D01*
X48409Y20260D01*
Y18788D01*
X48268Y18703D01*
X47768Y18987D01*
Y20312D01*
X47696Y20678D01*
X47488Y20988D01*
X47178Y21196D01*
X46812Y21268D01*
X46047D01*
X45997Y21768D01*
X46178Y21804D01*
X46488Y22012D01*
X46654Y22260D01*
X46692Y22273D01*
X46947Y22300D01*
X47197Y22279D01*
X47430Y21930D01*
X47921Y21602D01*
X48500Y21487D01*
X49079Y21602D01*
X49273Y21732D01*
X51812D01*
X52178Y21804D01*
X52488Y22012D01*
X52696Y22322D01*
X52768Y22688D01*
Y25313D01*
X53194Y25735D01*
X53414D01*
X53707Y25793D01*
X53955Y25959D01*
X56230Y28234D01*
X56331D01*
X56597Y28287D01*
X56852Y28164D01*
D02*
G37*
G36*
X25962Y22841D02*
X26389Y22556D01*
X26892Y22456D01*
X29038D01*
X29977Y21517D01*
X29896Y21108D01*
Y18860D01*
X29996Y18357D01*
X30281Y17931D01*
X30529Y17765D01*
X30378Y17265D01*
X28925D01*
X28513Y17500D01*
X28398Y18079D01*
X28070Y18570D01*
X27579Y18898D01*
X27000Y19013D01*
X26421Y18898D01*
X25930Y18570D01*
X25602Y18079D01*
X25487Y17500D01*
X25602Y16921D01*
X25930Y16430D01*
X26421Y16102D01*
X27000Y15987D01*
X27579Y16102D01*
X27857Y15959D01*
X28105Y15793D01*
X28397Y15735D01*
X34118D01*
X34270Y15235D01*
X34021Y15069D01*
X33736Y14643D01*
X33636Y14140D01*
Y11892D01*
X33736Y11389D01*
X33849Y11220D01*
X33582Y10719D01*
X14381D01*
Y20759D01*
X23300Y20759D01*
X23300Y20759D01*
X23683Y20917D01*
X23683Y20917D01*
X25638Y22873D01*
X25962Y22841D01*
D02*
G37*
G36*
X99016Y18362D02*
X100398D01*
X102053Y16707D01*
X102053Y16707D01*
X102417Y16464D01*
X102847Y16378D01*
X102847Y16378D01*
X105507D01*
X105623Y16301D01*
Y15699D01*
X105430Y15570D01*
X105102Y15079D01*
X105057Y14855D01*
X104840Y14638D01*
X102953D01*
Y10719D01*
X98047D01*
Y14638D01*
X95079D01*
Y10719D01*
X94381D01*
Y22280D01*
X95079D01*
Y18362D01*
X98047D01*
Y22280D01*
X99016D01*
Y18362D01*
D02*
G37*
G36*
X35148Y33788D02*
X35057Y33653D01*
X34965Y33189D01*
Y31811D01*
X35057Y31347D01*
X35320Y30954D01*
X35394Y30904D01*
X35243Y30404D01*
X33860D01*
X33357Y30304D01*
X32931Y30019D01*
X32646Y29592D01*
X32546Y29089D01*
Y28209D01*
X32419Y28081D01*
X32087Y27585D01*
X31971Y27000D01*
X32087Y26415D01*
X32419Y25919D01*
X32915Y25587D01*
X33500Y25471D01*
X34085Y25587D01*
X34581Y25919D01*
X34859Y26196D01*
X36108D01*
X36611Y26296D01*
X37038Y26581D01*
X37323Y27007D01*
X37423Y27511D01*
Y29089D01*
X37323Y29592D01*
X37038Y30019D01*
X36918Y30099D01*
X37070Y30599D01*
X38320D01*
X40184Y28735D01*
X40151Y28218D01*
X39930Y28070D01*
X39602Y27579D01*
X39487Y27000D01*
X39602Y26421D01*
X39930Y25930D01*
X40421Y25602D01*
X41000Y25487D01*
X41579Y25602D01*
X41810Y25756D01*
X42260Y25455D01*
X42232Y25313D01*
Y22688D01*
X42304Y22322D01*
X42512Y22012D01*
X42822Y21804D01*
X43187Y21732D01*
X43953D01*
X44003Y21232D01*
X43822Y21196D01*
X43512Y20988D01*
X43304Y20678D01*
X43232Y20312D01*
Y17813D01*
X42683Y17265D01*
X33622D01*
X33471Y17765D01*
X33719Y17931D01*
X34004Y18357D01*
X34104Y18860D01*
Y21108D01*
X34004Y21611D01*
X33719Y22038D01*
X33292Y22323D01*
X32789Y22423D01*
X31234D01*
X30360Y23297D01*
X30454Y23771D01*
Y25349D01*
X30354Y25852D01*
X30069Y26279D01*
X29643Y26564D01*
X29359Y26620D01*
X29177Y27129D01*
X29179Y27148D01*
X34041Y32009D01*
X34207Y32257D01*
X34265Y32550D01*
Y34232D01*
X34813D01*
X34847Y34238D01*
X35148Y33788D01*
D02*
G37*
G36*
X81687Y32417D02*
X82860D01*
X83127Y31917D01*
X83102Y31879D01*
X82987Y31300D01*
X83102Y30721D01*
X83430Y30230D01*
X83444Y30220D01*
X83454Y30201D01*
X83429Y29629D01*
X83196Y29473D01*
X83125Y29402D01*
X83041Y29346D01*
X82646Y28951D01*
X82590Y28868D01*
X82519Y28796D01*
X82209Y28332D01*
X82170Y28239D01*
X82114Y28155D01*
X81901Y27639D01*
X81881Y27540D01*
X81843Y27447D01*
X81735Y26899D01*
X81735Y26823D01*
X81716Y26750D01*
X81703Y26470D01*
X81707Y26446D01*
X81702Y26422D01*
Y10719D01*
X72031D01*
X71764Y11220D01*
X71898Y11421D01*
X72013Y12000D01*
X71898Y12579D01*
X71570Y13070D01*
X71079Y13398D01*
X70500Y13513D01*
X69921Y13398D01*
X69430Y13070D01*
X69102Y12579D01*
X68987Y12000D01*
X69102Y11421D01*
X69236Y11220D01*
X68969Y10719D01*
X63178D01*
X63074Y10864D01*
X62957Y11220D01*
X63277Y11699D01*
X63284Y11735D01*
X63500D01*
X63793Y11794D01*
X64041Y11959D01*
X67275Y15193D01*
X67441Y15442D01*
X67499Y15734D01*
Y21651D01*
X67602Y21735D01*
X70414D01*
X70707Y21793D01*
X70955Y21959D01*
X81458Y32462D01*
X81687Y32417D01*
D02*
G37*
%LPC*%
G36*
X40945Y81130D02*
X40166Y80975D01*
X39506Y80534D01*
X39065Y79873D01*
X38910Y79094D01*
Y78150D01*
X39065Y77371D01*
X39506Y76710D01*
X40166Y76269D01*
X40945Y76114D01*
X41724Y76269D01*
X42384Y76710D01*
X42825Y77371D01*
X42980Y78150D01*
Y79094D01*
X42825Y79873D01*
X42384Y80534D01*
X41724Y80975D01*
X40945Y81130D01*
D02*
G37*
G36*
X67500Y78513D02*
X66921Y78398D01*
X66430Y78070D01*
X66102Y77579D01*
X65987Y77000D01*
X66102Y76421D01*
X66430Y75930D01*
X66921Y75602D01*
X67500Y75487D01*
X68079Y75602D01*
X68570Y75930D01*
X68898Y76421D01*
X69013Y77000D01*
X68898Y77579D01*
X68570Y78070D01*
X68079Y78398D01*
X67500Y78513D01*
D02*
G37*
G36*
X59055Y75618D02*
X58276Y75463D01*
X57616Y75022D01*
X57175Y74361D01*
X57020Y73583D01*
Y72638D01*
X57175Y71859D01*
X57616Y71199D01*
X58276Y70758D01*
X59055Y70603D01*
X59834Y70758D01*
X60494Y71199D01*
X60935Y71859D01*
X61090Y72638D01*
Y73583D01*
X60935Y74361D01*
X60494Y75022D01*
X59834Y75463D01*
X59055Y75618D01*
D02*
G37*
G36*
X77937Y67537D02*
X77512Y67453D01*
X77151Y67212D01*
X76755D01*
X76394Y67453D01*
X75968Y67537D01*
X75543Y67453D01*
X75182Y67212D01*
X74941Y66851D01*
X74857Y66425D01*
Y61898D01*
X74941Y61472D01*
X75182Y61111D01*
X75543Y60870D01*
X75968Y60786D01*
X76394Y60870D01*
X76755Y61111D01*
X77151D01*
X77512Y60870D01*
X77937Y60786D01*
X78363Y60870D01*
X78723Y61111D01*
X78964Y61472D01*
X79049Y61898D01*
Y66425D01*
X78964Y66851D01*
X78723Y67212D01*
X78363Y67453D01*
X77937Y67537D01*
D02*
G37*
G36*
X129813Y66768D02*
X127188D01*
X126822Y66696D01*
X126512Y66488D01*
X126304Y66178D01*
X126266Y65985D01*
X125756Y65985D01*
X125747Y66030D01*
X125550Y66325D01*
X125254Y66523D01*
X124906Y66592D01*
X122150D01*
X121801Y66523D01*
X121505Y66325D01*
X121308Y66030D01*
X121238Y65681D01*
Y63319D01*
X121308Y62970D01*
X121505Y62675D01*
X121801Y62477D01*
X122150Y62408D01*
X124906D01*
X125254Y62477D01*
X125550Y62675D01*
X125747Y62970D01*
X125756Y63015D01*
X126266Y63015D01*
X126304Y62822D01*
X126512Y62512D01*
X126822Y62304D01*
X127188Y62232D01*
X129813D01*
X130178Y62304D01*
X130488Y62512D01*
X130696Y62822D01*
X130768Y63187D01*
Y65812D01*
X130696Y66178D01*
X130488Y66488D01*
X130178Y66696D01*
X129813Y66768D01*
D02*
G37*
G36*
X126571Y34714D02*
X123028D01*
X122372Y34584D01*
X121816Y34212D01*
X121444Y33656D01*
X121314Y33000D01*
X121444Y32344D01*
X121816Y31788D01*
X122372Y31416D01*
X123028Y31286D01*
X126571D01*
X127227Y31416D01*
X127783Y31788D01*
X128154Y32344D01*
X128285Y33000D01*
X128154Y33656D01*
X127783Y34212D01*
X127227Y34584D01*
X126571Y34714D01*
D02*
G37*
G36*
Y29714D02*
X123028D01*
X122372Y29584D01*
X121816Y29212D01*
X121444Y28656D01*
X121314Y28000D01*
X121444Y27344D01*
X121816Y26788D01*
X122372Y26416D01*
X123028Y26286D01*
X126571D01*
X127227Y26416D01*
X127783Y26788D01*
X128154Y27344D01*
X128285Y28000D01*
X128154Y28656D01*
X127783Y29212D01*
X127227Y29584D01*
X126571Y29714D01*
D02*
G37*
G36*
Y19714D02*
X123028D01*
X122372Y19584D01*
X121816Y19212D01*
X121444Y18656D01*
X121314Y18000D01*
X121444Y17344D01*
X121816Y16788D01*
X122372Y16416D01*
X123028Y16286D01*
X126571D01*
X127227Y16416D01*
X127783Y16788D01*
X128154Y17344D01*
X128285Y18000D01*
X128154Y18656D01*
X127783Y19212D01*
X127227Y19584D01*
X126571Y19714D01*
D02*
G37*
G36*
Y14714D02*
X123028D01*
X122372Y14584D01*
X121816Y14212D01*
X121444Y13656D01*
X121314Y13000D01*
X121444Y12344D01*
X121816Y11788D01*
X122372Y11416D01*
X123028Y11286D01*
X126571D01*
X127227Y11416D01*
X127783Y11788D01*
X128154Y12344D01*
X128285Y13000D01*
X128154Y13656D01*
X127783Y14212D01*
X127227Y14584D01*
X126571Y14714D01*
D02*
G37*
%LPD*%
D11*
X49500Y28745D02*
X50605Y29850D01*
X42226Y65026D02*
X46063D01*
X45026Y61974D02*
X46063D01*
X104240Y49488D02*
Y53500D01*
X104437Y20437D02*
X106063D01*
X107500Y19000D01*
X112303D02*
X115303Y22000D01*
X107500Y19000D02*
X112303D01*
X157500Y71000D02*
Y76437D01*
X161416Y80353D01*
Y81062D01*
X156000Y69500D02*
X157500Y71000D01*
X156000Y58000D02*
Y69500D01*
Y58000D02*
X158000Y56000D01*
X104240Y53500D02*
X104500D01*
X73849Y43103D02*
X76268Y40685D01*
X77000D01*
X72903Y43103D02*
X73849D01*
X72556Y43450D02*
X72903Y43103D01*
X72550Y43450D02*
X72556D01*
X72031Y43968D02*
X72550Y43450D01*
X75413Y43234D02*
X80451D01*
X74000Y44647D02*
X75413Y43234D01*
X34000Y39000D02*
X35000D01*
X33000D02*
X34000D01*
X32000D02*
X33000D01*
X31000D02*
X32000D01*
X25500D02*
X31000D01*
X31500Y39500D01*
X24500Y37000D02*
Y38000D01*
X24000Y36500D02*
X24500Y37000D01*
X19000Y36500D02*
X24000D01*
X24500Y38000D02*
X25500Y39000D01*
X35368Y39368D02*
X41368D01*
X35000Y39000D02*
X35368Y39368D01*
X41368D02*
X41500Y39500D01*
X35368Y39368D02*
X35437Y39437D01*
Y41693D01*
X33546Y39454D02*
X34000Y39000D01*
X33468Y39531D02*
X33546Y39454D01*
X33468Y39531D02*
Y41693D01*
X33454Y39454D02*
X33546D01*
X33000Y39000D02*
X33454Y39454D01*
X47000Y30000D02*
X49095Y32094D01*
X44799Y30000D02*
X47000D01*
X44740Y29941D02*
X44799Y30000D01*
X49095Y32094D02*
X49850D01*
X68722Y63573D02*
Y67222D01*
X65724Y60575D02*
X68722Y63573D01*
X33000Y70367D02*
Y72000D01*
X29399Y66766D02*
X33000Y70367D01*
X32547Y68500D02*
X35847D01*
X29813Y65766D02*
X32547Y68500D01*
X36433Y66500D02*
X42667Y60266D01*
X33000Y66500D02*
X36433D01*
X35847Y68500D02*
X43082Y61266D01*
X48031Y64776D02*
Y69291D01*
Y61724D02*
Y64776D01*
X32000Y19984D02*
Y20576D01*
X28016Y24560D02*
X32000Y20576D01*
X28016Y24560D02*
Y27066D01*
X33500Y32550D01*
X68500Y25500D02*
Y32329D01*
X63906Y27610D02*
X68016Y23500D01*
X70000D01*
X62102Y28000D02*
X67602Y22500D01*
X70414D01*
X59969Y28719D02*
X66734Y21953D01*
Y15734D02*
Y21953D01*
X66500Y27500D02*
Y31745D01*
X59969Y28719D02*
Y30350D01*
X62102Y28000D02*
Y30185D01*
X70414Y22500D02*
X82599Y34685D01*
X63906Y27610D02*
Y29850D01*
X70000Y23500D02*
X77000Y30500D01*
Y34000D01*
X66766Y34063D02*
X68500Y32329D01*
X70500Y27500D02*
Y27867D01*
X69500Y28867D02*
X70500Y27867D01*
X66150Y32094D02*
X66500Y31745D01*
X69500Y28867D02*
Y32744D01*
X68000Y34244D02*
X69500Y32744D01*
X56032Y44534D02*
X58500Y42065D01*
Y40000D02*
Y42065D01*
X56032Y44534D02*
Y45650D01*
X82599Y34685D02*
X83000D01*
X66000Y51000D02*
X67133D01*
X61937Y46937D02*
X66000Y51000D01*
X61937Y45650D02*
Y46937D01*
X63906Y46150D02*
Y46358D01*
X70047Y52500D02*
X76500D01*
X63906Y46358D02*
X70047Y52500D01*
X69633Y53500D02*
X74543D01*
X67133Y51000D02*
X69633Y53500D01*
X66719Y52000D02*
X69219Y54500D01*
X71423D01*
X65000Y52000D02*
X66719D01*
X59969Y46968D02*
X65000Y52000D01*
X61500Y61187D02*
X64037Y63724D01*
X64846D01*
X48000Y43171D02*
Y46055D01*
Y43171D02*
X48615Y42555D01*
X48704D01*
X49323Y41937D01*
X50350D01*
X61500Y54163D02*
Y61187D01*
X59976Y52640D02*
X61500Y54163D01*
X63776Y54276D02*
X64846D01*
X61140Y51640D02*
X63776Y54276D01*
X56687Y51640D02*
X61140D01*
X64846Y60575D02*
X65724D01*
X65425Y57425D02*
X70063Y62063D01*
X64846Y57425D02*
X65425D01*
X70063Y62063D02*
Y64161D01*
X53800Y59300D02*
X55400D01*
X51968Y61132D02*
X53800Y59300D01*
X51968Y61132D02*
Y61724D01*
X55400Y59300D02*
X57275Y57425D01*
X54625Y60575D02*
X58153D01*
X53937Y61263D02*
X54625Y60575D01*
X57275Y57425D02*
X58153D01*
X53937Y61263D02*
Y61724D01*
X58153Y60575D02*
Y63724D01*
Y54276D02*
Y57425D01*
X54047Y49000D02*
X56687Y51640D01*
X56273Y52640D02*
X59976D01*
X53633Y50000D02*
X56273Y52640D01*
X51968Y64776D02*
Y65026D01*
Y61724D02*
Y64776D01*
X51734Y65260D02*
X51968Y65026D01*
X46063Y61974D02*
Y64776D01*
Y65026D01*
X44000Y63000D02*
X45026Y61974D01*
X53937Y64776D02*
Y65665D01*
Y61724D02*
Y64776D01*
X48031Y61085D02*
Y61724D01*
X44063Y61266D02*
X45388Y59941D01*
X46888D01*
X48031Y61085D01*
X46132Y58734D02*
X47734Y57133D01*
X45180Y58734D02*
X46132D01*
X45718Y57734D02*
X46734Y56718D01*
X44766Y57734D02*
X45718D01*
X46000Y51414D02*
X49586Y55000D01*
X51000D01*
X43648Y60266D02*
X45180Y58734D01*
X43234Y59266D02*
X44766Y57734D01*
X44000Y52243D02*
X46734Y54977D01*
X45000Y51828D02*
X47734Y54563D01*
X49160Y53160D02*
X52840D01*
X47000Y51000D02*
X49160Y53160D01*
X47000Y42150D02*
Y51000D01*
X41234Y59266D02*
X43234D01*
X42667Y60266D02*
X43648D01*
X47734Y54563D02*
Y57133D01*
X42000Y64800D02*
X42226Y65026D01*
X39937Y60500D02*
X40000D01*
X43082Y61266D02*
X44063D01*
X40000Y60500D02*
X41234Y59266D01*
X26717Y65766D02*
X29813D01*
X27820Y66766D02*
X29399D01*
X51734Y65260D02*
Y68218D01*
X50265Y69688D02*
X51734Y68218D01*
X50265Y69688D02*
Y70601D01*
X52734Y66868D02*
Y68679D01*
X51772Y69641D02*
X52734Y68679D01*
X51772Y69641D02*
Y73110D01*
X48228Y72638D02*
X50265Y70601D01*
X48228Y72638D02*
Y73110D01*
X58000Y47500D02*
X60000Y49500D01*
X58000Y45650D02*
Y47500D01*
X45000Y40265D02*
X48615Y36650D01*
X48704D01*
X49323Y36031D01*
X50350D01*
X80451Y43234D02*
X83000Y40685D01*
X44000Y39851D02*
Y52243D01*
X45000Y40265D02*
Y51828D01*
X46000Y41000D02*
Y51414D01*
X46734Y54977D02*
Y56718D01*
X52095Y46766D02*
X53328Y48000D01*
X52095Y46150D02*
Y46766D01*
X52360Y49000D02*
X54047D01*
X49850Y46490D02*
X52360Y49000D01*
X49850Y43905D02*
Y46490D01*
X51945Y50000D02*
X53633D01*
X48000Y46055D02*
X51945Y50000D01*
X53328Y48000D02*
X55500D01*
X57000Y49500D01*
X33500Y32550D02*
Y36500D01*
X37181D01*
X37500Y32500D02*
X41000Y29000D01*
Y27000D02*
Y29000D01*
X37260Y32500D02*
X37500D01*
X37000D02*
X37260D01*
X44000Y39851D02*
X48000Y35851D01*
X46000Y41000D02*
X49000Y38000D01*
X38622Y35059D02*
X44740D01*
X37181Y36500D02*
X38622Y35059D01*
X48937Y34063D02*
X50350D01*
X48000Y35000D02*
X48937Y34063D01*
X48000Y35000D02*
Y35851D01*
X47000Y26500D02*
X53414D01*
X44500Y24000D02*
X47000Y26500D01*
X53414D02*
X56032Y29117D01*
X31500Y39500D02*
Y41693D01*
Y39500D02*
X32000Y39000D01*
X115303Y22000D02*
X119500D01*
X99719Y54719D02*
X100000Y55000D01*
X99719Y53432D02*
Y54719D01*
X96896Y50609D02*
X99719Y53432D01*
X96896Y49963D02*
Y50609D01*
X158000Y60000D02*
Y60757D01*
Y60000D02*
X160000Y58000D01*
X162201D01*
X158000Y46010D02*
Y56000D01*
X121000Y45014D02*
X123014Y43000D01*
X121000Y45014D02*
Y45500D01*
X123014Y43000D02*
X124799D01*
X131581D02*
X156041D01*
X126581Y48000D02*
X131581Y43000D01*
X124799Y48000D02*
X126581D01*
X158000Y46010D02*
X161010Y43000D01*
X156041D02*
X161041Y38000D01*
X22500Y61000D02*
Y61548D01*
X26717Y65766D01*
X25414Y69171D02*
X27820Y66766D01*
X19671Y69171D02*
X25414D01*
X16500Y66000D02*
X19671Y69171D01*
X57000Y38500D02*
X58500Y40000D01*
X55382Y38500D02*
X57000D01*
X53839Y36957D02*
X55382Y38500D01*
X56219Y36719D02*
X58719D01*
X54063Y34563D02*
X56219Y36719D01*
X54063Y30350D02*
Y34563D01*
X58719Y36719D02*
X59000Y37000D01*
X59969Y45650D02*
Y46968D01*
X76500Y52500D02*
X78865Y54865D01*
X74543Y53500D02*
X77276Y56232D01*
X71423Y54500D02*
X74000Y57077D01*
X70586Y68000D02*
X72031Y66554D01*
Y64161D02*
Y66554D01*
X69500Y68000D02*
X70586D01*
X68722Y67222D02*
X69500Y68000D01*
X65650Y34063D02*
X66766D01*
X27000Y17500D02*
X27397D01*
X28397Y16500D01*
X104437Y13154D02*
X105783Y14500D01*
X106500D01*
X104437Y12563D02*
Y13154D01*
X28397Y16500D02*
X43000D01*
X45500Y19000D01*
X58000Y26500D02*
Y30350D01*
X64898Y19602D02*
X65000Y19500D01*
X56032Y29117D02*
Y30350D01*
X49500Y28745D02*
Y29000D01*
X66766Y36031D02*
X68000Y34798D01*
Y34244D02*
Y34798D01*
X72031Y43968D02*
Y46839D01*
X74000Y44647D02*
Y46839D01*
X78865Y54865D02*
X81000D01*
X65650Y36031D02*
X66766D01*
X161041Y38000D02*
X162201D01*
X161010Y43000D02*
X162201D01*
X63500Y12500D02*
X66734Y15734D01*
X58497Y12500D02*
X63500D01*
X153542Y80747D02*
Y81062D01*
X54063Y43437D02*
X56500Y41000D01*
X54063Y43437D02*
Y45650D01*
X22000Y34000D02*
X22500D01*
X16500D02*
X19000Y36500D01*
X50605Y29850D02*
X52095D01*
X40484Y13016D02*
X40500Y13000D01*
X35740Y13016D02*
X40484D01*
X48500Y23000D02*
X49500D01*
X50500Y24000D01*
X58379Y12382D02*
X58497Y12500D01*
X64772Y16272D02*
X65000Y16500D01*
X58607Y16272D02*
X64772D01*
X58379Y16043D02*
X58607Y16272D01*
X58481Y19602D02*
X64898D01*
X58379Y19705D02*
X58481Y19602D01*
X61937Y30350D02*
X62102Y30185D01*
X47000Y42150D02*
X49094Y40056D01*
X48228Y73110D02*
Y73583D01*
X52734Y66868D02*
X53937Y65665D01*
X51772Y73110D02*
Y74094D01*
X44685Y72638D02*
Y73110D01*
Y72638D02*
X48031Y69291D01*
X49526Y81340D02*
X51772Y79094D01*
X47298Y81340D02*
X49526D01*
X45982Y80025D02*
X47298Y81340D01*
X48228Y77638D02*
X51772Y74094D01*
X48228Y77638D02*
Y78622D01*
X51772D02*
Y79094D01*
X45982Y75829D02*
Y80025D01*
Y75829D02*
X48228Y73583D01*
D16*
X45500Y13000D02*
X50500D01*
D19*
X41500Y39500D02*
D03*
Y45500D02*
D03*
Y56500D02*
D03*
Y50500D02*
D03*
X72000Y37000D02*
D03*
Y31000D02*
D03*
X83000Y51500D02*
D03*
Y45500D02*
D03*
X16500Y50000D02*
D03*
Y56000D02*
D03*
X21500Y50000D02*
D03*
Y56000D02*
D03*
D21*
X110300Y66000D02*
D03*
X107700D02*
D03*
X144100Y64500D02*
D03*
X138900D02*
D03*
X141500D02*
D03*
D22*
X40500Y13000D02*
D03*
Y19000D02*
D03*
X77000Y34685D02*
D03*
Y40685D02*
D03*
X83000Y34685D02*
D03*
Y40685D02*
D03*
X21500Y45000D02*
D03*
Y39000D02*
D03*
X16500Y45000D02*
D03*
Y39000D02*
D03*
X45500Y13000D02*
D03*
Y19000D02*
D03*
D23*
X16500Y66000D02*
D03*
X22500D02*
D03*
X128500Y64500D02*
D03*
X134500D02*
D03*
X22500Y34000D02*
D03*
X16500D02*
D03*
X27500Y36500D02*
D03*
X33500D02*
D03*
X22500Y61000D02*
D03*
X16500D02*
D03*
X50500Y24000D02*
D03*
X44500D02*
D03*
D24*
X44740Y35059D02*
D03*
Y29941D02*
D03*
X37260Y32500D02*
D03*
D28*
X110500Y16000D02*
D03*
X116500D02*
D03*
X97500Y66000D02*
D03*
X103500D02*
D03*
D30*
X104240Y49488D02*
D03*
X100500D02*
D03*
X96760D02*
D03*
Y60512D02*
D03*
X104240D02*
D03*
D50*
X33500Y27000D02*
X35000Y28500D01*
X19500Y24913D02*
X19988Y24425D01*
X35000Y28500D02*
X35484D01*
X19500Y24913D02*
Y29465D01*
D51*
X109000Y17500D02*
X110500Y16000D01*
X106500Y17500D02*
X109000D01*
X100500Y19846D02*
Y20437D01*
X113722Y65250D02*
X114472Y64500D01*
X110500Y65250D02*
X113722D01*
X110300Y65450D02*
X110500Y65250D01*
X110300Y65450D02*
Y66000D01*
X27154Y31378D02*
X27916Y32140D01*
X23523Y29465D02*
X25437Y31378D01*
X19500Y29465D02*
X23523D01*
X25437Y31378D02*
X27154D01*
X123528Y64500D02*
X128500D01*
X134500D02*
X138900D01*
X134500Y60839D02*
Y64500D01*
X129161Y55500D02*
X134500Y60839D01*
X141500Y61839D02*
Y64500D01*
X140636Y60975D02*
X141500Y61839D01*
X144100Y65789D02*
X145286Y66975D01*
X144100Y64500D02*
Y65789D01*
X145286Y66975D02*
X147136D01*
X119181Y55500D02*
X129161D01*
X129661Y53000D02*
X137636Y60975D01*
X124799Y53000D02*
X129661D01*
X117144Y53463D02*
X119181Y55500D01*
X137636Y60975D02*
X140636D01*
X70000Y50000D02*
X70053Y49946D01*
Y46848D02*
Y49946D01*
X71000Y51000D02*
X74493D01*
X70000Y50000D02*
X71000Y51000D01*
X74493D02*
X75959Y49534D01*
X107700Y63826D02*
Y66000D01*
Y63826D02*
X110051Y61475D01*
X102847Y17500D02*
X106500D01*
X100500Y19846D02*
X102847Y17500D01*
X70053Y46848D02*
X70063Y46839D01*
X79000Y51000D02*
X79703Y50297D01*
Y49505D02*
Y50297D01*
Y49505D02*
X81500Y47708D01*
Y47500D02*
Y47708D01*
X77444Y51000D02*
X79000D01*
X75978Y49534D02*
X77444Y51000D01*
X75978Y46848D02*
Y49534D01*
X75968Y46839D02*
X75978Y46848D01*
X75959D02*
Y49534D01*
Y46848D02*
X75968Y46839D01*
X100000Y13674D02*
Y16500D01*
Y13674D02*
X100636Y13038D01*
D52*
X71934Y36934D02*
X72500Y37500D01*
X69000Y39869D02*
X71934Y36934D01*
X71256Y32256D02*
X72000Y31511D01*
X105776Y57200D02*
X110051Y61475D01*
X100683Y57200D02*
X105776D01*
X96896Y60987D02*
X100683Y57200D01*
X72500Y38000D02*
X73000Y38500D01*
X71776Y42200D02*
X73000Y40976D01*
X70000Y42200D02*
X71776D01*
X72500Y37500D02*
Y38000D01*
X67120D02*
X69250Y35870D01*
X65650Y38000D02*
X67120D01*
X65681Y40000D02*
X69000D01*
X65650Y39968D02*
X65681Y40000D01*
X27500Y32556D02*
X27916Y32140D01*
X27500Y32556D02*
Y36500D01*
X49000Y17000D02*
Y17500D01*
X69000Y40000D02*
X69700Y40700D01*
X70000D01*
X27563Y40563D02*
Y41693D01*
X27250Y40250D02*
X27563Y40563D01*
X22750Y40250D02*
X27250D01*
X21500Y39000D02*
X22750Y40250D01*
X123639Y58000D02*
X124461D01*
X120164Y61475D02*
X123639Y58000D01*
X110051Y61475D02*
X120164D01*
X96896Y65735D02*
X98109Y66947D01*
X69250Y34761D02*
X71256Y32756D01*
X72000Y31000D02*
Y31511D01*
X69250Y34761D02*
Y35870D01*
X49000Y17500D02*
X50500Y19000D01*
X16500Y39000D02*
X21500D01*
X96896Y60987D02*
Y65735D01*
X98109Y66947D02*
Y72715D01*
X98581Y73188D01*
D54*
Y81062D02*
D03*
X106455D02*
D03*
Y73188D02*
D03*
X98581D02*
D03*
X18583Y81063D02*
D03*
X26457D02*
D03*
Y73189D02*
D03*
X18583D02*
D03*
X153542Y73188D02*
D03*
X161416D02*
D03*
Y81062D02*
D03*
X153542D02*
D03*
X81417Y81063D02*
D03*
X73543D02*
D03*
Y73189D02*
D03*
X81417D02*
D03*
D55*
X57874Y68268D02*
D03*
X42126Y83465D02*
D03*
Y68268D02*
D03*
X57874Y83465D02*
D03*
D56*
X48228Y78622D02*
D03*
X40945D02*
D03*
X37205D02*
D03*
Y73110D02*
D03*
X40945D02*
D03*
X44685D02*
D03*
X48228D02*
D03*
X62795D02*
D03*
X59055D02*
D03*
X51772D02*
D03*
X62795Y78622D02*
D03*
X59055D02*
D03*
X55315D02*
D03*
X51772D02*
D03*
D57*
X25500Y54000D02*
D03*
X25000Y51500D02*
D03*
X139000Y40000D02*
D03*
X158000Y66000D02*
D03*
X104500Y53500D02*
D03*
X109500Y52500D02*
D03*
X73000Y38500D02*
D03*
Y40976D02*
D03*
X33500Y27000D02*
D03*
X33000Y72000D02*
D03*
X49000Y17000D02*
D03*
X68500Y25500D02*
D03*
X66500Y27500D02*
D03*
X70500D02*
D03*
X69004Y49000D02*
D03*
X45000Y56000D02*
D03*
X19058Y23000D02*
D03*
X79697Y38000D02*
D03*
X39937Y60500D02*
D03*
X44000Y63000D02*
D03*
X50000Y67500D02*
D03*
X42000Y64800D02*
D03*
X39000Y55500D02*
D03*
X41500Y56000D02*
D03*
X28840Y68660D02*
D03*
X33000Y66500D02*
D03*
X84500Y31300D02*
D03*
X35500Y20000D02*
D03*
X70500Y12000D02*
D03*
X64000Y22000D02*
D03*
X49000Y50000D02*
D03*
X41000Y27000D02*
D03*
X19000Y19000D02*
D03*
X74000Y57077D02*
D03*
X119500Y22000D02*
D03*
X158000Y60757D02*
D03*
X100000Y55000D02*
D03*
X158000Y56000D02*
D03*
X121000Y45500D02*
D03*
X150000Y59000D02*
D03*
X66960Y68267D02*
D03*
X51000Y59000D02*
D03*
X57000Y49500D02*
D03*
X52840Y53160D02*
D03*
X60000Y49500D02*
D03*
X67500Y77000D02*
D03*
X61500Y65000D02*
D03*
X26500Y28500D02*
D03*
X27000Y17500D02*
D03*
X100500Y62000D02*
D03*
X106500Y14500D02*
D03*
Y17500D02*
D03*
X22500Y66000D02*
D03*
X42000Y14500D02*
D03*
X58000Y26500D02*
D03*
X65000Y19500D02*
D03*
X49500Y29000D02*
D03*
X71500Y32500D02*
D03*
X77276Y56232D02*
D03*
X81000Y54865D02*
D03*
X81500Y47500D02*
D03*
X16000Y46000D02*
D03*
X112000Y59000D02*
D03*
X100000Y16500D02*
D03*
X70500Y19500D02*
D03*
X149000Y15000D02*
D03*
X139000D02*
D03*
X149000Y25000D02*
D03*
X139000D02*
D03*
X149000Y35000D02*
D03*
X139000Y51000D02*
D03*
X147136Y66975D02*
D03*
X59000Y37000D02*
D03*
X56500Y41000D02*
D03*
X41000Y32500D02*
D03*
X22000Y34000D02*
D03*
X48500Y23000D02*
D03*
X65000Y16500D02*
D03*
X51000Y55000D02*
D03*
X53839Y36957D02*
D03*
D58*
X31500Y47500D02*
D03*
X34453Y45531D02*
D03*
Y49468D02*
D03*
X28547D02*
D03*
Y45531D02*
D03*
D63*
X111594Y55483D02*
D03*
X117144Y53463D02*
D03*
D64*
X58379Y12382D02*
D03*
Y16043D02*
D03*
Y19705D02*
D03*
Y23366D02*
D03*
D65*
X70000Y42200D02*
D03*
Y40700D02*
D03*
D66*
X96563Y12563D02*
D03*
X100500D02*
D03*
X104437D02*
D03*
Y20437D02*
D03*
X100500D02*
D03*
X96563D02*
D03*
D67*
X123528Y64500D02*
D03*
X114472D02*
D03*
D68*
X124799Y13000D02*
D03*
Y18000D02*
D03*
Y23000D02*
D03*
Y28000D02*
D03*
Y33000D02*
D03*
Y38000D02*
D03*
Y43000D02*
D03*
Y48000D02*
D03*
Y53000D02*
D03*
Y58000D02*
D03*
X162201Y13000D02*
D03*
Y18000D02*
D03*
Y23000D02*
D03*
Y28000D02*
D03*
Y33000D02*
D03*
Y38000D02*
D03*
Y43000D02*
D03*
Y48000D02*
D03*
Y53000D02*
D03*
Y58000D02*
D03*
D69*
X19500Y12535D02*
D03*
Y29465D02*
D03*
D70*
X50500Y19000D02*
D03*
Y13000D02*
D03*
D71*
X64846Y57425D02*
D03*
Y54276D02*
D03*
Y63724D02*
D03*
Y60575D02*
D03*
X58153D02*
D03*
Y63724D02*
D03*
Y54276D02*
D03*
Y57425D02*
D03*
D72*
X66150Y43905D02*
D03*
Y32094D02*
D03*
X49850D02*
D03*
Y43905D02*
D03*
D73*
X65650Y41937D02*
D03*
Y39968D02*
D03*
Y38000D02*
D03*
Y36031D02*
D03*
Y34063D02*
D03*
X50350D02*
D03*
Y36031D02*
D03*
Y38000D02*
D03*
Y39968D02*
D03*
Y41937D02*
D03*
D74*
X63906Y29850D02*
D03*
X52095D02*
D03*
Y46150D02*
D03*
X63906D02*
D03*
D75*
X61937Y30350D02*
D03*
X59969D02*
D03*
X58000D02*
D03*
X56032D02*
D03*
X54063D02*
D03*
Y45650D02*
D03*
X56032D02*
D03*
X58000D02*
D03*
X59969D02*
D03*
X61937D02*
D03*
D76*
X48031Y64776D02*
D03*
X46063D02*
D03*
X51968Y61724D02*
D03*
X53937D02*
D03*
X51968Y64776D02*
D03*
X53937D02*
D03*
X46063Y61724D02*
D03*
X48031D02*
D03*
D77*
X50000Y64776D02*
D03*
Y61724D02*
D03*
D78*
X19500Y24425D02*
D03*
Y17425D02*
D03*
D79*
X35437Y60500D02*
D03*
X27563D02*
D03*
D80*
Y53307D02*
D03*
X29531D02*
D03*
X31500D02*
D03*
X33468D02*
D03*
X35437D02*
D03*
Y41693D02*
D03*
X33468D02*
D03*
X31500D02*
D03*
X29531D02*
D03*
X27563D02*
D03*
D81*
X31500Y47500D02*
D03*
D82*
X70063Y64161D02*
D03*
X72031D02*
D03*
X74000D02*
D03*
X75968D02*
D03*
X77937D02*
D03*
X70063Y46839D02*
D03*
X72031D02*
D03*
X74000D02*
D03*
X75968D02*
D03*
X77937D02*
D03*
D83*
X28016Y24560D02*
D03*
Y32040D02*
D03*
X34984Y28300D02*
D03*
D84*
X35740Y13016D02*
D03*
X28260D02*
D03*
X32000Y19984D02*
D03*
D85*
X50000Y65026D02*
Y67500D01*
D86*
X37405Y46516D02*
D03*
Y48484D02*
D03*
X25594D02*
D03*
Y46516D02*
D03*
M02*
