G04*
G04 #@! TF.GenerationSoftware,Altium Limited,Altium Designer,19.1.5 (86)*
G04*
G04 Layer_Color=16711935*
%FSLAX25Y25*%
%MOIN*%
G70*
G01*
G75*
%ADD11C,0.00500*%
%ADD16C,0.00800*%
%ADD31C,0.00600*%
%ADD32C,0.00598*%
G04:AMPARAMS|DCode=34|XSize=39mil|YSize=39mil|CornerRadius=5.5mil|HoleSize=0mil|Usage=FLASHONLY|Rotation=90.000|XOffset=0mil|YOffset=0mil|HoleType=Round|Shape=RoundedRectangle|*
%AMROUNDEDRECTD34*
21,1,0.03900,0.02800,0,0,90.0*
21,1,0.02800,0.03900,0,0,90.0*
1,1,0.01100,0.01400,0.01400*
1,1,0.01100,0.01400,-0.01400*
1,1,0.01100,-0.01400,-0.01400*
1,1,0.01100,-0.01400,0.01400*
%
%ADD34ROUNDEDRECTD34*%
G04:AMPARAMS|DCode=36|XSize=20mil|YSize=39mil|CornerRadius=4.4mil|HoleSize=0mil|Usage=FLASHONLY|Rotation=180.000|XOffset=0mil|YOffset=0mil|HoleType=Round|Shape=RoundedRectangle|*
%AMROUNDEDRECTD36*
21,1,0.02000,0.03020,0,0,180.0*
21,1,0.01120,0.03900,0,0,180.0*
1,1,0.00880,-0.00560,0.01510*
1,1,0.00880,0.00560,0.01510*
1,1,0.00880,0.00560,-0.01510*
1,1,0.00880,-0.00560,-0.01510*
%
%ADD36ROUNDEDRECTD36*%
G04:AMPARAMS|DCode=37|XSize=39mil|YSize=39mil|CornerRadius=6.38mil|HoleSize=0mil|Usage=FLASHONLY|Rotation=90.000|XOffset=0mil|YOffset=0mil|HoleType=Round|Shape=RoundedRectangle|*
%AMROUNDEDRECTD37*
21,1,0.03900,0.02625,0,0,90.0*
21,1,0.02625,0.03900,0,0,90.0*
1,1,0.01275,0.01313,0.01313*
1,1,0.01275,0.01313,-0.01313*
1,1,0.01275,-0.01313,-0.01313*
1,1,0.01275,-0.01313,0.01313*
%
%ADD37ROUNDEDRECTD37*%
G04:AMPARAMS|DCode=38|XSize=39mil|YSize=39mil|CornerRadius=6.38mil|HoleSize=0mil|Usage=FLASHONLY|Rotation=0.000|XOffset=0mil|YOffset=0mil|HoleType=Round|Shape=RoundedRectangle|*
%AMROUNDEDRECTD38*
21,1,0.03900,0.02625,0,0,0.0*
21,1,0.02625,0.03900,0,0,0.0*
1,1,0.01275,0.01313,-0.01313*
1,1,0.01275,-0.01313,-0.01313*
1,1,0.01275,-0.01313,0.01313*
1,1,0.01275,0.01313,0.01313*
%
%ADD38ROUNDEDRECTD38*%
G04:AMPARAMS|DCode=39|XSize=31.56mil|YSize=39.43mil|CornerRadius=8.89mil|HoleSize=0mil|Usage=FLASHONLY|Rotation=270.000|XOffset=0mil|YOffset=0mil|HoleType=Round|Shape=RoundedRectangle|*
%AMROUNDEDRECTD39*
21,1,0.03156,0.02165,0,0,270.0*
21,1,0.01378,0.03943,0,0,270.0*
1,1,0.01778,-0.01083,-0.00689*
1,1,0.01778,-0.01083,0.00689*
1,1,0.01778,0.01083,0.00689*
1,1,0.01778,0.01083,-0.00689*
%
%ADD39ROUNDEDRECTD39*%
G04:AMPARAMS|DCode=43|XSize=39mil|YSize=39mil|CornerRadius=5.5mil|HoleSize=0mil|Usage=FLASHONLY|Rotation=180.000|XOffset=0mil|YOffset=0mil|HoleType=Round|Shape=RoundedRectangle|*
%AMROUNDEDRECTD43*
21,1,0.03900,0.02800,0,0,180.0*
21,1,0.02800,0.03900,0,0,180.0*
1,1,0.01100,-0.01400,0.01400*
1,1,0.01100,0.01400,0.01400*
1,1,0.01100,0.01400,-0.01400*
1,1,0.01100,-0.01400,-0.01400*
%
%ADD43ROUNDEDRECTD43*%
G04:AMPARAMS|DCode=45|XSize=27.62mil|YSize=47.31mil|CornerRadius=7.91mil|HoleSize=0mil|Usage=FLASHONLY|Rotation=180.000|XOffset=0mil|YOffset=0mil|HoleType=Round|Shape=RoundedRectangle|*
%AMROUNDEDRECTD45*
21,1,0.02762,0.03150,0,0,180.0*
21,1,0.01181,0.04731,0,0,180.0*
1,1,0.01581,-0.00591,0.01575*
1,1,0.01581,0.00591,0.01575*
1,1,0.01581,0.00591,-0.01575*
1,1,0.01581,-0.00591,-0.01575*
%
%ADD45ROUNDEDRECTD45*%
%ADD46O,0.05518X0.06935*%
%ADD47O,0.08865X0.03943*%
%ADD48O,0.03392X0.04337*%
G04:AMPARAMS|DCode=87|XSize=47.31mil|YSize=98.49mil|CornerRadius=19.32mil|HoleSize=0mil|Usage=FLASHONLY|Rotation=340.000|XOffset=0mil|YOffset=0mil|HoleType=Round|Shape=RoundedRectangle|*
%AMROUNDEDRECTD87*
21,1,0.04731,0.05984,0,0,340.0*
21,1,0.00866,0.09849,0,0,340.0*
1,1,0.03865,-0.00616,-0.02960*
1,1,0.03865,-0.01430,-0.02664*
1,1,0.03865,0.00616,0.02960*
1,1,0.03865,0.01430,0.02664*
%
%ADD87ROUNDEDRECTD87*%
G04:AMPARAMS|DCode=88|XSize=29mil|YSize=94mil|CornerRadius=14.5mil|HoleSize=0mil|Usage=FLASHONLY|Rotation=90.000|XOffset=0mil|YOffset=0mil|HoleType=Round|Shape=RoundedRectangle|*
%AMROUNDEDRECTD88*
21,1,0.02900,0.06500,0,0,90.0*
21,1,0.00000,0.09400,0,0,90.0*
1,1,0.02900,0.03250,0.00000*
1,1,0.02900,0.03250,0.00000*
1,1,0.02900,-0.03250,0.00000*
1,1,0.02900,-0.03250,0.00000*
%
%ADD88ROUNDEDRECTD88*%
G04:AMPARAMS|DCode=89|XSize=14mil|YSize=20mil|CornerRadius=4.5mil|HoleSize=0mil|Usage=FLASHONLY|Rotation=270.000|XOffset=0mil|YOffset=0mil|HoleType=Round|Shape=RoundedRectangle|*
%AMROUNDEDRECTD89*
21,1,0.01400,0.01100,0,0,270.0*
21,1,0.00500,0.02000,0,0,270.0*
1,1,0.00900,-0.00550,-0.00250*
1,1,0.00900,-0.00550,0.00250*
1,1,0.00900,0.00550,0.00250*
1,1,0.00900,0.00550,-0.00250*
%
%ADD89ROUNDEDRECTD89*%
%ADD90R,0.02368X0.03550*%
G04:AMPARAMS|DCode=91|XSize=39.43mil|YSize=35.5mil|CornerRadius=5.94mil|HoleSize=0mil|Usage=FLASHONLY|Rotation=180.000|XOffset=0mil|YOffset=0mil|HoleType=Round|Shape=RoundedRectangle|*
%AMROUNDEDRECTD91*
21,1,0.03943,0.02362,0,0,180.0*
21,1,0.02756,0.03550,0,0,180.0*
1,1,0.01187,-0.01378,0.01181*
1,1,0.01187,0.01378,0.01181*
1,1,0.01187,0.01378,-0.01181*
1,1,0.01187,-0.01378,-0.01181*
%
%ADD91ROUNDEDRECTD91*%
%ADD92O,0.06306X0.02762*%
G04:AMPARAMS|DCode=93|XSize=31.56mil|YSize=63.06mil|CornerRadius=8.89mil|HoleSize=0mil|Usage=FLASHONLY|Rotation=270.000|XOffset=0mil|YOffset=0mil|HoleType=Round|Shape=RoundedRectangle|*
%AMROUNDEDRECTD93*
21,1,0.03156,0.04528,0,0,270.0*
21,1,0.01378,0.06306,0,0,270.0*
1,1,0.01778,-0.02264,-0.00689*
1,1,0.01778,-0.02264,0.00689*
1,1,0.01778,0.02264,0.00689*
1,1,0.01778,0.02264,-0.00689*
%
%ADD93ROUNDEDRECTD93*%
G04:AMPARAMS|DCode=94|XSize=35.5mil|YSize=35.5mil|CornerRadius=5.15mil|HoleSize=0mil|Usage=FLASHONLY|Rotation=270.000|XOffset=0mil|YOffset=0mil|HoleType=Round|Shape=RoundedRectangle|*
%AMROUNDEDRECTD94*
21,1,0.03550,0.02520,0,0,270.0*
21,1,0.02520,0.03550,0,0,270.0*
1,1,0.01030,-0.01260,-0.01260*
1,1,0.01030,-0.01260,0.01260*
1,1,0.01030,0.01260,0.01260*
1,1,0.01030,0.01260,-0.01260*
%
%ADD94ROUNDEDRECTD94*%
G04:AMPARAMS|DCode=95|XSize=21.72mil|YSize=39.43mil|CornerRadius=6.43mil|HoleSize=0mil|Usage=FLASHONLY|Rotation=90.000|XOffset=0mil|YOffset=0mil|HoleType=Round|Shape=RoundedRectangle|*
%AMROUNDEDRECTD95*
21,1,0.02172,0.02657,0,0,90.0*
21,1,0.00886,0.03943,0,0,90.0*
1,1,0.01286,0.01329,0.00443*
1,1,0.01286,0.01329,-0.00443*
1,1,0.01286,-0.01329,-0.00443*
1,1,0.01286,-0.01329,0.00443*
%
%ADD95ROUNDEDRECTD95*%
G04:AMPARAMS|DCode=96|XSize=16mil|YSize=26mil|CornerRadius=5mil|HoleSize=0mil|Usage=FLASHONLY|Rotation=270.000|XOffset=0mil|YOffset=0mil|HoleType=Round|Shape=RoundedRectangle|*
%AMROUNDEDRECTD96*
21,1,0.01600,0.01600,0,0,270.0*
21,1,0.00600,0.02600,0,0,270.0*
1,1,0.01000,-0.00800,-0.00300*
1,1,0.01000,-0.00800,0.00300*
1,1,0.01000,0.00800,0.00300*
1,1,0.01000,0.00800,-0.00300*
%
%ADD96ROUNDEDRECTD96*%
G04:AMPARAMS|DCode=97|XSize=16mil|YSize=36mil|CornerRadius=5mil|HoleSize=0mil|Usage=FLASHONLY|Rotation=270.000|XOffset=0mil|YOffset=0mil|HoleType=Round|Shape=RoundedRectangle|*
%AMROUNDEDRECTD97*
21,1,0.01600,0.02600,0,0,270.0*
21,1,0.00600,0.03600,0,0,270.0*
1,1,0.01000,-0.01300,-0.00300*
1,1,0.01000,-0.01300,0.00300*
1,1,0.01000,0.01300,0.00300*
1,1,0.01000,0.01300,-0.00300*
%
%ADD97ROUNDEDRECTD97*%
G04:AMPARAMS|DCode=98|XSize=16mil|YSize=26mil|CornerRadius=5mil|HoleSize=0mil|Usage=FLASHONLY|Rotation=0.000|XOffset=0mil|YOffset=0mil|HoleType=Round|Shape=RoundedRectangle|*
%AMROUNDEDRECTD98*
21,1,0.01600,0.01600,0,0,0.0*
21,1,0.00600,0.02600,0,0,0.0*
1,1,0.01000,0.00300,-0.00800*
1,1,0.01000,-0.00300,-0.00800*
1,1,0.01000,-0.00300,0.00800*
1,1,0.01000,0.00300,0.00800*
%
%ADD98ROUNDEDRECTD98*%
G04:AMPARAMS|DCode=99|XSize=16mil|YSize=36mil|CornerRadius=5mil|HoleSize=0mil|Usage=FLASHONLY|Rotation=0.000|XOffset=0mil|YOffset=0mil|HoleType=Round|Shape=RoundedRectangle|*
%AMROUNDEDRECTD99*
21,1,0.01600,0.02600,0,0,0.0*
21,1,0.00600,0.03600,0,0,0.0*
1,1,0.01000,0.00300,-0.01300*
1,1,0.01000,-0.00300,-0.01300*
1,1,0.01000,-0.00300,0.01300*
1,1,0.01000,0.00300,0.01300*
%
%ADD99ROUNDEDRECTD99*%
G04:AMPARAMS|DCode=100|XSize=11.87mil|YSize=24.67mil|CornerRadius=3.97mil|HoleSize=0mil|Usage=FLASHONLY|Rotation=0.000|XOffset=0mil|YOffset=0mil|HoleType=Round|Shape=RoundedRectangle|*
%AMROUNDEDRECTD100*
21,1,0.01187,0.01673,0,0,0.0*
21,1,0.00394,0.02467,0,0,0.0*
1,1,0.00794,0.00197,-0.00837*
1,1,0.00794,-0.00197,-0.00837*
1,1,0.00794,-0.00197,0.00837*
1,1,0.00794,0.00197,0.00837*
%
%ADD100ROUNDEDRECTD100*%
G04:AMPARAMS|DCode=101|XSize=19.75mil|YSize=24.67mil|CornerRadius=5.94mil|HoleSize=0mil|Usage=FLASHONLY|Rotation=180.000|XOffset=0mil|YOffset=0mil|HoleType=Round|Shape=RoundedRectangle|*
%AMROUNDEDRECTD101*
21,1,0.01975,0.01280,0,0,180.0*
21,1,0.00787,0.02467,0,0,180.0*
1,1,0.01187,-0.00394,0.00640*
1,1,0.01187,0.00394,0.00640*
1,1,0.01187,0.00394,-0.00640*
1,1,0.01187,-0.00394,-0.00640*
%
%ADD101ROUNDEDRECTD101*%
G04:AMPARAMS|DCode=102|XSize=94mil|YSize=51.24mil|CornerRadius=0mil|HoleSize=0mil|Usage=FLASHONLY|Rotation=0.000|XOffset=0mil|YOffset=0mil|HoleType=Round|Shape=Octagon|*
%AMOCTAGOND102*
4,1,8,0.04700,-0.01281,0.04700,0.01281,0.03419,0.02562,-0.03419,0.02562,-0.04700,0.01281,-0.04700,-0.01281,-0.03419,-0.02562,0.03419,-0.02562,0.04700,-0.01281,0.0*
%
%ADD102OCTAGOND102*%

G04:AMPARAMS|DCode=103|XSize=82.74mil|YSize=35.5mil|CornerRadius=9.87mil|HoleSize=0mil|Usage=FLASHONLY|Rotation=90.000|XOffset=0mil|YOffset=0mil|HoleType=Round|Shape=RoundedRectangle|*
%AMROUNDEDRECTD103*
21,1,0.08274,0.01575,0,0,90.0*
21,1,0.06299,0.03550,0,0,90.0*
1,1,0.01975,0.00787,0.03150*
1,1,0.01975,0.00787,-0.03150*
1,1,0.01975,-0.00787,-0.03150*
1,1,0.01975,-0.00787,0.03150*
%
%ADD103ROUNDEDRECTD103*%
%ADD104O,0.01306X0.03550*%
%ADD105R,0.09849X0.06896*%
%ADD106O,0.01581X0.06109*%
G04:AMPARAMS|DCode=107|XSize=35.58mil|YSize=42.27mil|CornerRadius=9.89mil|HoleSize=0mil|Usage=FLASHONLY|Rotation=270.000|XOffset=0mil|YOffset=0mil|HoleType=Round|Shape=RoundedRectangle|*
%AMROUNDEDRECTD107*
21,1,0.03558,0.02248,0,0,270.0*
21,1,0.01579,0.04227,0,0,270.0*
1,1,0.01979,-0.01124,-0.00789*
1,1,0.01979,-0.01124,0.00789*
1,1,0.01979,0.01124,0.00789*
1,1,0.01979,0.01124,-0.00789*
%
%ADD107ROUNDEDRECTD107*%
G04:AMPARAMS|DCode=108|XSize=35.58mil|YSize=42.27mil|CornerRadius=9.89mil|HoleSize=0mil|Usage=FLASHONLY|Rotation=0.000|XOffset=0mil|YOffset=0mil|HoleType=Round|Shape=RoundedRectangle|*
%AMROUNDEDRECTD108*
21,1,0.03558,0.02248,0,0,0.0*
21,1,0.01579,0.04227,0,0,0.0*
1,1,0.01979,0.00789,-0.01124*
1,1,0.01979,-0.00789,-0.01124*
1,1,0.01979,-0.00789,0.01124*
1,1,0.01979,0.00789,0.01124*
%
%ADD108ROUNDEDRECTD108*%
%ADD109R,0.03550X0.01502*%
G36*
X51813Y32869D02*
X51870Y32813D01*
X51900Y32740D01*
Y32700D01*
Y32150D01*
X51050Y31300D01*
X50400D01*
Y32900D01*
X51740D01*
X51813Y32869D01*
D02*
G37*
G36*
X52813Y31870D02*
X52870Y31813D01*
X52900Y31740D01*
Y31700D01*
Y30400D01*
X51300D01*
Y31050D01*
X52150Y31900D01*
X52740D01*
X52813Y31870D01*
D02*
G37*
G36*
X52900Y44300D02*
Y44260D01*
X52870Y44187D01*
X52813Y44130D01*
X52740Y44100D01*
X52150D01*
X51300Y44950D01*
Y45600D01*
X52900D01*
Y44300D01*
D02*
G37*
G36*
X51900Y43850D02*
Y43300D01*
Y43260D01*
X51870Y43187D01*
X51813Y43130D01*
X51740Y43100D01*
X50400D01*
Y44700D01*
X51050D01*
X51900Y43850D01*
D02*
G37*
G36*
X65600Y31300D02*
X64950D01*
X64100Y32150D01*
Y32700D01*
Y32740D01*
X64130Y32813D01*
X64187Y32869D01*
X64260Y32900D01*
X65600D01*
Y31300D01*
D02*
G37*
G36*
X64700Y31050D02*
Y30400D01*
X63100D01*
Y31700D01*
Y31740D01*
X63130Y31813D01*
X63187Y31870D01*
X63260Y31900D01*
X63850D01*
X64700Y31050D01*
D02*
G37*
G36*
Y44950D02*
X63850Y44100D01*
X63260D01*
X63187Y44130D01*
X63130Y44187D01*
X63100Y44260D01*
Y44300D01*
Y45600D01*
X64700D01*
Y44950D01*
D02*
G37*
G36*
X65600Y43100D02*
X64260D01*
X64187Y43130D01*
X64130Y43187D01*
X64100Y43260D01*
Y43300D01*
Y43850D01*
X64950Y44700D01*
X65600D01*
Y43100D01*
D02*
G37*
D11*
X81501Y66500D02*
X83367D01*
X84300Y65567D01*
X83367Y64634D01*
X81501D01*
X84300Y63701D02*
Y62768D01*
Y63234D01*
X81501D01*
X81968Y63701D01*
X84300Y61368D02*
X83833D01*
Y60902D01*
X84300D01*
Y61368D01*
X81968Y59036D02*
X81501Y58569D01*
Y57636D01*
X81968Y57170D01*
X83833D01*
X84300Y57636D01*
Y58569D01*
X83833Y59036D01*
X81968D01*
D16*
X145100Y31400D02*
X147600Y18400D01*
X143000Y22800D02*
X146500Y19200D01*
X142500Y19500D02*
X146500Y19200D01*
X142800Y23400D02*
X146100Y23100D01*
X142500Y19500D02*
X146100Y23100D01*
X142800Y23400D02*
X145100Y31400D01*
X141100Y18400D02*
X143000Y22800D01*
X78100Y24400D02*
X80600Y11400D01*
X76000Y15800D02*
X79500Y12200D01*
X75500Y12500D02*
X79500Y12200D01*
X75800Y16400D02*
X79100Y16100D01*
X75500Y12500D02*
X79100Y16100D01*
X75800Y16400D02*
X78100Y24400D01*
X74100Y11400D02*
X76000Y15800D01*
D31*
X86939Y29571D02*
Y85984D01*
D32*
X93061Y27724D02*
Y85984D01*
D34*
X41500Y39500D02*
D03*
Y45500D02*
D03*
Y56500D02*
D03*
Y50500D02*
D03*
X72000Y37000D02*
D03*
Y31000D02*
D03*
X83000Y51500D02*
D03*
Y45500D02*
D03*
X16500Y50000D02*
D03*
Y56000D02*
D03*
X21500Y50000D02*
D03*
Y56000D02*
D03*
D36*
X110300Y66000D02*
D03*
X107700D02*
D03*
X144100Y64500D02*
D03*
X138900D02*
D03*
X141500D02*
D03*
D37*
X40500Y13000D02*
D03*
Y19000D02*
D03*
X77000Y34685D02*
D03*
Y40685D02*
D03*
X83000Y34685D02*
D03*
Y40685D02*
D03*
X21500Y45000D02*
D03*
Y39000D02*
D03*
X16500Y45000D02*
D03*
Y39000D02*
D03*
X45500Y13000D02*
D03*
Y19000D02*
D03*
D38*
X16500Y66000D02*
D03*
X22500D02*
D03*
X128500Y64500D02*
D03*
X134500D02*
D03*
X22500Y34000D02*
D03*
X16500D02*
D03*
X27500Y36500D02*
D03*
X33500D02*
D03*
X22500Y61000D02*
D03*
X16500D02*
D03*
X50500Y24000D02*
D03*
X44500D02*
D03*
D39*
X44740Y35059D02*
D03*
Y29941D02*
D03*
X37260Y32500D02*
D03*
D43*
X110500Y16000D02*
D03*
X116500D02*
D03*
X97500Y66000D02*
D03*
X103500D02*
D03*
D45*
X104240Y49488D02*
D03*
X100500D02*
D03*
X96760D02*
D03*
Y60512D02*
D03*
X104240D02*
D03*
D46*
X98581Y81062D02*
D03*
X106455D02*
D03*
Y73188D02*
D03*
X98581D02*
D03*
X18583Y81063D02*
D03*
X26457D02*
D03*
Y73189D02*
D03*
X18583D02*
D03*
X153542Y73188D02*
D03*
X161416D02*
D03*
Y81062D02*
D03*
X153542D02*
D03*
X81417Y81063D02*
D03*
X73543D02*
D03*
Y73189D02*
D03*
X81417D02*
D03*
D47*
X57874Y68268D02*
D03*
X42126Y83465D02*
D03*
Y68268D02*
D03*
X57874Y83465D02*
D03*
D48*
X48228Y78622D02*
D03*
X40945D02*
D03*
X37205D02*
D03*
Y73110D02*
D03*
X40945D02*
D03*
X44685D02*
D03*
X48228D02*
D03*
X62795D02*
D03*
X59055D02*
D03*
X51772D02*
D03*
X62795Y78622D02*
D03*
X59055D02*
D03*
X55315D02*
D03*
X51772D02*
D03*
D87*
X111594Y55483D02*
D03*
X117144Y53463D02*
D03*
D88*
X58379Y12382D02*
D03*
Y16043D02*
D03*
Y19705D02*
D03*
Y23366D02*
D03*
D89*
X70000Y42200D02*
D03*
Y40700D02*
D03*
D90*
X96563Y12563D02*
D03*
X100500D02*
D03*
X104437D02*
D03*
Y20437D02*
D03*
X100500D02*
D03*
X96563D02*
D03*
D91*
X123528Y64500D02*
D03*
X114472D02*
D03*
D92*
X124799Y13000D02*
D03*
Y18000D02*
D03*
Y23000D02*
D03*
Y28000D02*
D03*
Y33000D02*
D03*
Y38000D02*
D03*
Y43000D02*
D03*
Y48000D02*
D03*
Y53000D02*
D03*
Y58000D02*
D03*
X162201Y13000D02*
D03*
Y18000D02*
D03*
Y23000D02*
D03*
Y28000D02*
D03*
Y33000D02*
D03*
Y38000D02*
D03*
Y43000D02*
D03*
Y48000D02*
D03*
Y53000D02*
D03*
Y58000D02*
D03*
D93*
X19500Y12535D02*
D03*
Y29465D02*
D03*
D94*
X50500Y19000D02*
D03*
Y13000D02*
D03*
D95*
X64846Y57425D02*
D03*
Y54276D02*
D03*
Y63724D02*
D03*
Y60575D02*
D03*
X58153D02*
D03*
Y63724D02*
D03*
Y54276D02*
D03*
Y57425D02*
D03*
D96*
X66150Y43905D02*
D03*
Y32094D02*
D03*
X49850D02*
D03*
Y43905D02*
D03*
D97*
X65650Y41937D02*
D03*
Y39968D02*
D03*
Y38000D02*
D03*
Y36031D02*
D03*
Y34063D02*
D03*
X50350D02*
D03*
Y36031D02*
D03*
Y38000D02*
D03*
Y39968D02*
D03*
Y41937D02*
D03*
D98*
X63906Y29850D02*
D03*
X52095D02*
D03*
Y46150D02*
D03*
X63906D02*
D03*
D99*
X61937Y30350D02*
D03*
X59969D02*
D03*
X58000D02*
D03*
X56032D02*
D03*
X54063D02*
D03*
Y45650D02*
D03*
X56032D02*
D03*
X58000D02*
D03*
X59969D02*
D03*
X61937D02*
D03*
D100*
X48031Y64776D02*
D03*
X46063D02*
D03*
X51968Y61724D02*
D03*
X53937D02*
D03*
X51968Y64776D02*
D03*
X53937D02*
D03*
X46063Y61724D02*
D03*
X48031D02*
D03*
D101*
X50000Y64776D02*
D03*
Y61724D02*
D03*
D102*
X19500Y24425D02*
D03*
Y17425D02*
D03*
D103*
X35437Y60500D02*
D03*
X27563D02*
D03*
D104*
Y53307D02*
D03*
X29531D02*
D03*
X31500D02*
D03*
X33468D02*
D03*
X35437D02*
D03*
Y41693D02*
D03*
X33468D02*
D03*
X31500D02*
D03*
X29531D02*
D03*
X27563D02*
D03*
D105*
X31500Y47500D02*
D03*
D106*
X70063Y64161D02*
D03*
X72031D02*
D03*
X74000D02*
D03*
X75968D02*
D03*
X77937D02*
D03*
X70063Y46839D02*
D03*
X72031D02*
D03*
X74000D02*
D03*
X75968D02*
D03*
X77937D02*
D03*
D107*
X28016Y24560D02*
D03*
Y32040D02*
D03*
X34984Y28300D02*
D03*
D108*
X35740Y13016D02*
D03*
X28260D02*
D03*
X32000Y19984D02*
D03*
D109*
X37405Y46516D02*
D03*
Y48484D02*
D03*
X25594D02*
D03*
Y46516D02*
D03*
M02*
