G04*
G04 #@! TF.GenerationSoftware,Altium Limited,Altium Designer,19.1.5 (86)*
G04*
G04 Layer_Physical_Order=1*
G04 Layer_Color=255*
%FSLAX25Y25*%
%MOIN*%
G70*
G01*
G75*
%ADD11C,0.00500*%
%ADD16C,0.00800*%
%ADD18R,0.01260X0.10000*%
G04:AMPARAMS|DCode=19|XSize=35mil|YSize=35mil|CornerRadius=3.5mil|HoleSize=0mil|Usage=FLASHONLY|Rotation=90.000|XOffset=0mil|YOffset=0mil|HoleType=Round|Shape=RoundedRectangle|*
%AMROUNDEDRECTD19*
21,1,0.03500,0.02800,0,0,90.0*
21,1,0.02800,0.03500,0,0,90.0*
1,1,0.00700,0.01400,0.01400*
1,1,0.00700,0.01400,-0.01400*
1,1,0.00700,-0.01400,-0.01400*
1,1,0.00700,-0.01400,0.01400*
%
%ADD19ROUNDEDRECTD19*%
G04:AMPARAMS|DCode=20|XSize=31.5mil|YSize=23.62mil|CornerRadius=2.95mil|HoleSize=0mil|Usage=FLASHONLY|Rotation=165.000|XOffset=0mil|YOffset=0mil|HoleType=Round|Shape=RoundedRectangle|*
%AMROUNDEDRECTD20*
21,1,0.03150,0.01772,0,0,165.0*
21,1,0.02559,0.02362,0,0,165.0*
1,1,0.00591,-0.01007,0.01187*
1,1,0.00591,0.01465,0.00525*
1,1,0.00591,0.01007,-0.01187*
1,1,0.00591,-0.01465,-0.00525*
%
%ADD20ROUNDEDRECTD20*%
G04:AMPARAMS|DCode=21|XSize=16mil|YSize=35mil|CornerRadius=2.4mil|HoleSize=0mil|Usage=FLASHONLY|Rotation=180.000|XOffset=0mil|YOffset=0mil|HoleType=Round|Shape=RoundedRectangle|*
%AMROUNDEDRECTD21*
21,1,0.01600,0.03020,0,0,180.0*
21,1,0.01120,0.03500,0,0,180.0*
1,1,0.00480,-0.00560,0.01510*
1,1,0.00480,0.00560,0.01510*
1,1,0.00480,0.00560,-0.01510*
1,1,0.00480,-0.00560,-0.01510*
%
%ADD21ROUNDEDRECTD21*%
G04:AMPARAMS|DCode=22|XSize=35mil|YSize=35mil|CornerRadius=4.38mil|HoleSize=0mil|Usage=FLASHONLY|Rotation=90.000|XOffset=0mil|YOffset=0mil|HoleType=Round|Shape=RoundedRectangle|*
%AMROUNDEDRECTD22*
21,1,0.03500,0.02625,0,0,90.0*
21,1,0.02625,0.03500,0,0,90.0*
1,1,0.00875,0.01313,0.01313*
1,1,0.00875,0.01313,-0.01313*
1,1,0.00875,-0.01313,-0.01313*
1,1,0.00875,-0.01313,0.01313*
%
%ADD22ROUNDEDRECTD22*%
G04:AMPARAMS|DCode=23|XSize=35mil|YSize=35mil|CornerRadius=4.38mil|HoleSize=0mil|Usage=FLASHONLY|Rotation=0.000|XOffset=0mil|YOffset=0mil|HoleType=Round|Shape=RoundedRectangle|*
%AMROUNDEDRECTD23*
21,1,0.03500,0.02625,0,0,0.0*
21,1,0.02625,0.03500,0,0,0.0*
1,1,0.00875,0.01313,-0.01313*
1,1,0.00875,-0.01313,-0.01313*
1,1,0.00875,-0.01313,0.01313*
1,1,0.00875,0.01313,0.01313*
%
%ADD23ROUNDEDRECTD23*%
G04:AMPARAMS|DCode=24|XSize=27.56mil|YSize=35.43mil|CornerRadius=6.89mil|HoleSize=0mil|Usage=FLASHONLY|Rotation=270.000|XOffset=0mil|YOffset=0mil|HoleType=Round|Shape=RoundedRectangle|*
%AMROUNDEDRECTD24*
21,1,0.02756,0.02165,0,0,270.0*
21,1,0.01378,0.03543,0,0,270.0*
1,1,0.01378,-0.01083,-0.00689*
1,1,0.01378,-0.01083,0.00689*
1,1,0.01378,0.01083,0.00689*
1,1,0.01378,0.01083,-0.00689*
%
%ADD24ROUNDEDRECTD24*%
G04:AMPARAMS|DCode=25|XSize=27.56mil|YSize=35.43mil|CornerRadius=6.89mil|HoleSize=0mil|Usage=FLASHONLY|Rotation=0.000|XOffset=0mil|YOffset=0mil|HoleType=Round|Shape=RoundedRectangle|*
%AMROUNDEDRECTD25*
21,1,0.02756,0.02165,0,0,0.0*
21,1,0.01378,0.03543,0,0,0.0*
1,1,0.01378,0.00689,-0.01083*
1,1,0.01378,-0.00689,-0.01083*
1,1,0.01378,-0.00689,0.01083*
1,1,0.01378,0.00689,0.01083*
%
%ADD25ROUNDEDRECTD25*%
%ADD26R,0.02756X0.01102*%
%ADD27R,0.01102X0.02756*%
G04:AMPARAMS|DCode=28|XSize=35mil|YSize=35mil|CornerRadius=3.5mil|HoleSize=0mil|Usage=FLASHONLY|Rotation=180.000|XOffset=0mil|YOffset=0mil|HoleType=Round|Shape=RoundedRectangle|*
%AMROUNDEDRECTD28*
21,1,0.03500,0.02800,0,0,180.0*
21,1,0.02800,0.03500,0,0,180.0*
1,1,0.00700,-0.01400,0.01400*
1,1,0.00700,0.01400,0.01400*
1,1,0.00700,0.01400,-0.01400*
1,1,0.00700,-0.01400,-0.01400*
%
%ADD28ROUNDEDRECTD28*%
G04:AMPARAMS|DCode=29|XSize=17.72mil|YSize=35.43mil|CornerRadius=4.43mil|HoleSize=0mil|Usage=FLASHONLY|Rotation=180.000|XOffset=0mil|YOffset=0mil|HoleType=Round|Shape=RoundedRectangle|*
%AMROUNDEDRECTD29*
21,1,0.01772,0.02657,0,0,180.0*
21,1,0.00886,0.03543,0,0,180.0*
1,1,0.00886,-0.00443,0.01329*
1,1,0.00886,0.00443,0.01329*
1,1,0.00886,0.00443,-0.01329*
1,1,0.00886,-0.00443,-0.01329*
%
%ADD29ROUNDEDRECTD29*%
G04:AMPARAMS|DCode=30|XSize=23.62mil|YSize=43.31mil|CornerRadius=5.91mil|HoleSize=0mil|Usage=FLASHONLY|Rotation=180.000|XOffset=0mil|YOffset=0mil|HoleType=Round|Shape=RoundedRectangle|*
%AMROUNDEDRECTD30*
21,1,0.02362,0.03150,0,0,180.0*
21,1,0.01181,0.04331,0,0,180.0*
1,1,0.01181,-0.00591,0.01575*
1,1,0.01181,0.00591,0.01575*
1,1,0.01181,0.00591,-0.01575*
1,1,0.01181,-0.00591,-0.01575*
%
%ADD30ROUNDEDRECTD30*%
%ADD49C,0.01700*%
%ADD50C,0.02000*%
%ADD51C,0.01200*%
%ADD52C,0.01000*%
%ADD53C,0.00900*%
%ADD54O,0.05118X0.06535*%
%ADD55O,0.08465X0.03543*%
%ADD56O,0.02992X0.03937*%
%ADD57C,0.01968*%
%ADD58C,0.02362*%
G36*
X72842Y84765D02*
X72745Y84752D01*
X72001Y84444D01*
X71362Y83953D01*
X70871Y83314D01*
X70563Y82570D01*
X70458Y81772D01*
Y81265D01*
X66500D01*
X66500Y81265D01*
X66207Y81207D01*
X65959Y81041D01*
X65959Y81041D01*
X64691Y79772D01*
X64525Y79524D01*
X64467Y79232D01*
Y77548D01*
X63512Y76593D01*
X61017D01*
X60750Y77093D01*
X60935Y77371D01*
X61090Y78150D01*
Y79094D01*
X60935Y79873D01*
X60494Y80534D01*
X59834Y80975D01*
X59055Y81130D01*
X58276Y80975D01*
X57616Y80534D01*
X57435Y80263D01*
X56935D01*
X56754Y80534D01*
X56094Y80975D01*
X55315Y81130D01*
X55002Y81067D01*
X54041Y82029D01*
X53793Y82195D01*
X53500Y82253D01*
X47000D01*
X46707Y82195D01*
X46459Y82029D01*
X46459Y82029D01*
X43959Y79529D01*
X43793Y79281D01*
X43735Y78988D01*
Y77805D01*
X43343Y77413D01*
X42882Y77659D01*
X42980Y78150D01*
Y79094D01*
X42825Y79873D01*
X42384Y80534D01*
X41724Y80975D01*
X40945Y81130D01*
X40166Y80975D01*
X39506Y80534D01*
X39065Y79873D01*
X38910Y79094D01*
Y78150D01*
X39065Y77371D01*
X39200Y77168D01*
X38933Y76668D01*
X36349D01*
X36349Y76668D01*
X36057Y76610D01*
X35809Y76444D01*
X35808Y76444D01*
X34418Y75054D01*
X34252Y74806D01*
X34194Y74513D01*
Y73589D01*
X33694Y73321D01*
X33579Y73398D01*
X33000Y73513D01*
X32421Y73398D01*
X31930Y73070D01*
X31626Y72615D01*
X31529Y72539D01*
X31119Y72414D01*
X30307Y73228D01*
X30058Y73393D01*
X29766Y73452D01*
X29542D01*
Y73898D01*
X29437Y74696D01*
X29129Y75440D01*
X28638Y76079D01*
X27999Y76570D01*
X27255Y76878D01*
Y77374D01*
X27999Y77682D01*
X28638Y78173D01*
X29129Y78812D01*
X29437Y79556D01*
X29542Y80354D01*
Y81772D01*
X29437Y82570D01*
X29129Y83314D01*
X28638Y83953D01*
X27999Y84444D01*
X27255Y84752D01*
X27158Y84765D01*
X27191Y85265D01*
X72809D01*
X72842Y84765D01*
D02*
G37*
G36*
X70871Y78812D02*
X71362Y78173D01*
X72001Y77682D01*
X72745Y77374D01*
Y76878D01*
X72001Y76570D01*
X71362Y76079D01*
X70871Y75440D01*
X70563Y74696D01*
X70458Y73898D01*
Y72480D01*
X70563Y71682D01*
X70871Y70938D01*
X71362Y70299D01*
X72001Y69808D01*
X72745Y69500D01*
X73494Y69401D01*
Y68117D01*
X73444Y68043D01*
X73371Y67675D01*
Y65018D01*
X73444Y64650D01*
X73653Y64338D01*
X73965Y64130D01*
X74333Y64056D01*
X75218D01*
X75586Y64130D01*
X75898Y64338D01*
X76089Y64624D01*
X76281Y64650D01*
X76420D01*
X76611Y64624D01*
X76802Y64338D01*
X77114Y64130D01*
X77482Y64056D01*
X78368D01*
X78736Y64130D01*
X79048Y64338D01*
X79239Y64624D01*
X79430Y64650D01*
X79570D01*
X79761Y64624D01*
X79952Y64338D01*
X80264Y64130D01*
X80632Y64056D01*
X81518D01*
X81886Y64130D01*
X82197Y64338D01*
X82389Y64624D01*
X82580Y64650D01*
X82719D01*
X82911Y64624D01*
X83102Y64338D01*
X83414Y64130D01*
X83781Y64056D01*
X84667D01*
X85035Y64130D01*
X85138Y64198D01*
X85638Y63942D01*
X85638Y62058D01*
X85138Y61802D01*
X85035Y61870D01*
X84667Y61944D01*
X83781D01*
X83414Y61870D01*
X83102Y61662D01*
X82911Y61376D01*
X82719Y61350D01*
X82580D01*
X82389Y61376D01*
X82197Y61662D01*
X81886Y61870D01*
X81518Y61944D01*
X80632D01*
X80264Y61870D01*
X79952Y61662D01*
X79761Y61376D01*
X79570Y61350D01*
X79430D01*
X79239Y61376D01*
X79048Y61662D01*
X78736Y61870D01*
X78368Y61944D01*
X77482D01*
X77114Y61870D01*
X76802Y61662D01*
X76611Y61376D01*
X76420Y61350D01*
X76281D01*
X76089Y61376D01*
X75898Y61662D01*
X75586Y61870D01*
X75218Y61944D01*
X74333D01*
X73965Y61870D01*
X73653Y61662D01*
X73444Y61350D01*
X73371Y60982D01*
Y58442D01*
X72930Y58147D01*
X72753Y57882D01*
X72390Y57551D01*
X68634D01*
Y55449D01*
X70744D01*
X70812Y55435D01*
X72107D01*
X73235Y54307D01*
Y52553D01*
X72735Y52346D01*
X72390Y52692D01*
Y53614D01*
X68634D01*
Y51512D01*
X71407D01*
X72707Y50212D01*
X72515Y49750D01*
X70288D01*
X70074Y50070D01*
X69583Y50398D01*
X69004Y50513D01*
X68520Y50417D01*
X68020Y50683D01*
Y52866D01*
X61980D01*
Y52026D01*
X58116D01*
X57147Y52996D01*
X56899Y53162D01*
X56768Y53188D01*
Y53997D01*
X57230Y54188D01*
X57459Y53959D01*
X57610Y53858D01*
Y53480D01*
X61366D01*
Y58239D01*
X61828Y58430D01*
X62479Y57779D01*
X62810Y57558D01*
X63200Y57480D01*
X65500D01*
X65890Y57558D01*
X66221Y57779D01*
X67690Y59247D01*
X67910Y59578D01*
X67988Y59969D01*
Y60134D01*
X68020D01*
Y63890D01*
X68474Y64000D01*
X69360D01*
X69692Y64066D01*
X69973Y64254D01*
X70161Y64535D01*
X70227Y64867D01*
Y67667D01*
X70161Y67998D01*
X69973Y68280D01*
X69692Y68467D01*
X69360Y68533D01*
X68421D01*
X68358Y68846D01*
X68030Y69337D01*
X67539Y69665D01*
X66960Y69780D01*
X66381Y69665D01*
X65890Y69337D01*
X65562Y68846D01*
X65447Y68267D01*
X65562Y67688D01*
X65694Y67491D01*
Y64867D01*
X65760Y64535D01*
X65857Y64390D01*
X65682Y63945D01*
X65635Y63890D01*
X63145D01*
X62878Y64390D01*
X62898Y64421D01*
X63013Y65000D01*
X62898Y65579D01*
X62570Y66070D01*
X62079Y66398D01*
X61500Y66513D01*
X60921Y66398D01*
X60430Y66070D01*
X60102Y65579D01*
X59987Y65000D01*
X59999Y64940D01*
X58578Y63520D01*
X57500D01*
X57110Y63442D01*
X56779Y63221D01*
X55326Y61768D01*
X53674D01*
X52721Y62721D01*
X52390Y62942D01*
X52000Y63020D01*
X50768D01*
Y63313D01*
X50696Y63678D01*
X50657Y63735D01*
X50925Y64235D01*
X51656D01*
X51948Y64293D01*
X52196Y64459D01*
X53041Y65304D01*
X53206Y65552D01*
X53265Y65845D01*
Y69183D01*
X55541Y71459D01*
X55541Y71459D01*
X55707Y71707D01*
X55765Y72000D01*
Y73671D01*
X56813Y74719D01*
X57201Y74401D01*
X57175Y74361D01*
X57020Y73583D01*
Y72638D01*
X57175Y71859D01*
X57616Y71199D01*
X58276Y70758D01*
X59055Y70603D01*
X59834Y70758D01*
X60494Y71199D01*
X60935Y71859D01*
X61090Y72638D01*
Y73583D01*
X60935Y74361D01*
X60800Y74564D01*
X61067Y75064D01*
X63829D01*
X64121Y75122D01*
X64369Y75288D01*
X65282Y76201D01*
X65759Y75971D01*
X65799Y75768D01*
X65987Y75487D01*
X66268Y75299D01*
X66600Y75233D01*
X69400D01*
X69732Y75299D01*
X70013Y75487D01*
X70201Y75768D01*
X70267Y76100D01*
Y78900D01*
X70242Y79024D01*
X70723Y79170D01*
X70871Y78812D01*
D02*
G37*
G36*
X25755Y84765D02*
X25658Y84752D01*
X24914Y84444D01*
X24275Y83953D01*
X23785Y83314D01*
X23476Y82570D01*
X23371Y81772D01*
Y80354D01*
X23476Y79556D01*
X23785Y78812D01*
X24275Y78173D01*
X24914Y77682D01*
X25658Y77374D01*
Y76878D01*
X24914Y76570D01*
X24275Y76079D01*
X23785Y75440D01*
X23541Y74853D01*
X23041Y74952D01*
Y75500D01*
X23041Y75500D01*
X22883Y75883D01*
X21383Y77383D01*
X21000Y77541D01*
X21000Y77541D01*
X14381D01*
Y85265D01*
X25722D01*
X25755Y84765D01*
D02*
G37*
G36*
X39250Y74639D02*
X39065Y74361D01*
X38910Y73583D01*
Y72638D01*
X39065Y71859D01*
X39506Y71199D01*
X40166Y70758D01*
X40945Y70603D01*
X41724Y70758D01*
X42384Y71199D01*
X42565Y71470D01*
X43065D01*
X43246Y71199D01*
X43906Y70758D01*
X44685Y70603D01*
X45464Y70758D01*
X46124Y71199D01*
X46207Y71322D01*
X46707D01*
X46789Y71199D01*
X47449Y70758D01*
X48228Y70603D01*
X49007Y70758D01*
X49667Y71199D01*
X49750Y71322D01*
X50250D01*
X50333Y71199D01*
X50993Y70758D01*
X51772Y70603D01*
X51825Y70613D01*
X52071Y70152D01*
X51959Y70041D01*
X51793Y69793D01*
X51735Y69500D01*
Y66161D01*
X51339Y65765D01*
X47196D01*
X47196Y65765D01*
X46903Y65706D01*
X46655Y65541D01*
X46655Y65541D01*
X45472Y64357D01*
X45406Y64307D01*
X45162Y64135D01*
X44828Y64232D01*
X44579Y64398D01*
X44000Y64513D01*
X43880Y64490D01*
X43489Y64921D01*
X43398Y65379D01*
X43070Y65870D01*
X42579Y66198D01*
X42000Y66313D01*
X41421Y66198D01*
X40930Y65870D01*
X40726Y65565D01*
X39884D01*
X37908Y67540D01*
Y68270D01*
X37850Y68563D01*
X37684Y68811D01*
X35723Y70772D01*
Y74196D01*
X36666Y75139D01*
X38983D01*
X39250Y74639D01*
D02*
G37*
G36*
X165619Y10719D02*
X114251D01*
X113754Y10777D01*
X113714Y11179D01*
X113671Y11323D01*
X113642Y11470D01*
X113334Y12213D01*
X113113Y12544D01*
X112544Y13113D01*
X112213Y13334D01*
X111470Y13642D01*
X111080Y13719D01*
X110275D01*
X109885Y13642D01*
X109141Y13334D01*
X108810Y13113D01*
X108242Y12544D01*
X108021Y12213D01*
X107713Y11470D01*
X107683Y11323D01*
X107640Y11179D01*
X107600Y10777D01*
X107104Y10719D01*
X94381D01*
Y22280D01*
X107139D01*
X107140Y22273D01*
X107183Y22130D01*
X107213Y21983D01*
X107521Y21240D01*
X107742Y20909D01*
X108162Y20488D01*
X107955Y19988D01*
X107459D01*
X106874Y19872D01*
X106377Y19540D01*
X105419Y18581D01*
X105087Y18085D01*
X104971Y17500D01*
X105087Y16915D01*
X105419Y16419D01*
X105609Y16291D01*
Y15690D01*
X105430Y15570D01*
X105102Y15079D01*
X104987Y14500D01*
X105102Y13921D01*
X105430Y13430D01*
X105921Y13102D01*
X106500Y12987D01*
X107079Y13102D01*
X107570Y13430D01*
X107898Y13921D01*
X108013Y14500D01*
X107983Y14652D01*
X109276Y15944D01*
X113184D01*
X113476Y16002D01*
X113724Y16168D01*
X116250Y18694D01*
X116984Y17959D01*
X116984Y17959D01*
X117233Y17794D01*
X117525Y17735D01*
X117525Y17735D01*
X126000D01*
X126293Y17794D01*
X126541Y17959D01*
X158541Y49959D01*
X158541Y49959D01*
X158706Y50207D01*
X158765Y50500D01*
Y54726D01*
X159070Y54930D01*
X159398Y55421D01*
X159513Y56000D01*
X159398Y56579D01*
X159070Y57070D01*
X158579Y57398D01*
X158000Y57513D01*
X157421Y57398D01*
X156930Y57070D01*
X156602Y56579D01*
X156487Y56000D01*
X156602Y55421D01*
X156930Y54930D01*
X157235Y54726D01*
Y50817D01*
X125683Y19265D01*
X117842D01*
X117053Y20054D01*
Y36712D01*
X117053Y36712D01*
X116994Y37005D01*
X116829Y37253D01*
X116829Y37253D01*
X100816Y53265D01*
X100849Y53782D01*
X101070Y53930D01*
X101398Y54421D01*
X101513Y55000D01*
X101398Y55579D01*
X101070Y56070D01*
X100579Y56398D01*
X100000Y56513D01*
X99421Y56398D01*
X98930Y56070D01*
X98602Y55579D01*
X98487Y55000D01*
X98602Y54421D01*
X98930Y53930D01*
X99235Y53726D01*
Y53000D01*
X99294Y52707D01*
X99459Y52459D01*
X115523Y36395D01*
Y28935D01*
X115061Y28744D01*
X113000Y30805D01*
X112504Y31137D01*
X111918Y31253D01*
X97821D01*
X96890Y32184D01*
Y67781D01*
X98512Y69403D01*
X98581Y69393D01*
X99380Y69499D01*
X100124Y69807D01*
X100763Y70297D01*
X101253Y70936D01*
X101562Y71680D01*
X101667Y72479D01*
Y73896D01*
X101562Y74695D01*
X101253Y75439D01*
X100763Y76078D01*
X100124Y76568D01*
X99380Y76877D01*
X98581Y76982D01*
X97783Y76877D01*
X97039Y76568D01*
X96400Y76078D01*
X95909Y75439D01*
X95601Y74695D01*
X95496Y73896D01*
Y72479D01*
X95601Y71680D01*
X95854Y71070D01*
X94824Y70040D01*
X94362Y70232D01*
X94361Y84911D01*
X94715Y85265D01*
X105731D01*
X105764Y84765D01*
X105657Y84751D01*
X104913Y84442D01*
X104274Y83952D01*
X103783Y83313D01*
X103475Y82569D01*
X103370Y81770D01*
Y80353D01*
X103475Y79554D01*
X103783Y78810D01*
X104274Y78171D01*
X104913Y77681D01*
X105657Y77373D01*
Y76877D01*
X104913Y76568D01*
X104274Y76078D01*
X103783Y75439D01*
X103475Y74695D01*
X103370Y73896D01*
Y72479D01*
X103475Y71680D01*
X103783Y70936D01*
X104274Y70297D01*
X104913Y69807D01*
X105657Y69499D01*
X105691Y69494D01*
Y60045D01*
X105749Y59752D01*
X105915Y59504D01*
X119558Y45860D01*
X119487Y45500D01*
X119602Y44921D01*
X119930Y44430D01*
X120421Y44102D01*
X121000Y43987D01*
X121579Y44102D01*
X122070Y44430D01*
X122398Y44921D01*
X122513Y45500D01*
X122398Y46079D01*
X122070Y46570D01*
X121579Y46898D01*
X121000Y47013D01*
X120640Y46942D01*
X107220Y60361D01*
Y69494D01*
X107254Y69499D01*
X107998Y69807D01*
X108637Y70297D01*
X108894Y70632D01*
X109311Y70673D01*
X109520Y70626D01*
X113891Y66254D01*
X114222Y66033D01*
X114612Y65955D01*
X146033D01*
X146066Y65905D01*
X146557Y65577D01*
X147136Y65462D01*
X147716Y65577D01*
X148206Y65905D01*
X148535Y66396D01*
X148650Y66975D01*
X148535Y67554D01*
X148206Y68045D01*
X147716Y68373D01*
X147136Y68488D01*
X146682Y68398D01*
X146487Y68869D01*
X146752Y69046D01*
X146824Y69117D01*
X146907Y69173D01*
X147717Y69983D01*
X147772Y70066D01*
X147843Y70137D01*
X148480Y71090D01*
X148518Y71182D01*
X148574Y71266D01*
X149012Y72324D01*
X149032Y72422D01*
X149070Y72515D01*
X149294Y73638D01*
X149294Y73713D01*
X149312Y73787D01*
X149340Y74359D01*
X149337Y74384D01*
X149342Y74410D01*
X149342Y85265D01*
X152818D01*
X152850Y84765D01*
X152743Y84751D01*
X151999Y84442D01*
X151360Y83952D01*
X150870Y83313D01*
X150562Y82569D01*
X150457Y81770D01*
Y80353D01*
X150562Y79554D01*
X150870Y78810D01*
X151360Y78171D01*
X151999Y77681D01*
X152743Y77373D01*
Y76877D01*
X151999Y76568D01*
X151360Y76078D01*
X150870Y75439D01*
X150562Y74695D01*
X150457Y73896D01*
Y72479D01*
X150562Y71680D01*
X150870Y70936D01*
X151360Y70297D01*
X151999Y69807D01*
X152743Y69499D01*
X153542Y69393D01*
X154341Y69499D01*
X155085Y69807D01*
X155724Y70297D01*
X156214Y70936D01*
X156522Y71680D01*
X156627Y72479D01*
Y73896D01*
X156522Y74695D01*
X156214Y75439D01*
X155724Y76078D01*
X155085Y76568D01*
X154341Y76877D01*
Y77373D01*
X155085Y77681D01*
X155724Y78171D01*
X156214Y78810D01*
X156522Y79554D01*
X156627Y80353D01*
Y81770D01*
X156522Y82569D01*
X156214Y83313D01*
X155724Y83952D01*
X155085Y84442D01*
X154341Y84751D01*
X154233Y84765D01*
X154266Y85265D01*
X160692D01*
X160724Y84765D01*
X160617Y84751D01*
X159873Y84442D01*
X159234Y83952D01*
X158744Y83313D01*
X158436Y82569D01*
X158331Y81770D01*
Y80353D01*
X158436Y79554D01*
X158744Y78810D01*
X159234Y78171D01*
X159873Y77681D01*
X160617Y77373D01*
Y76877D01*
X159873Y76568D01*
X159234Y76078D01*
X158744Y75439D01*
X158436Y74695D01*
X158331Y73896D01*
Y72479D01*
X158436Y71680D01*
X158744Y70936D01*
X159234Y70297D01*
X159873Y69807D01*
X160617Y69499D01*
X160651Y69494D01*
Y64489D01*
X158360Y62198D01*
X158000Y62270D01*
X157421Y62155D01*
X156930Y61827D01*
X156602Y61336D01*
X156487Y60757D01*
X156558Y60396D01*
X153959Y57797D01*
X153794Y57549D01*
X153735Y57257D01*
Y51317D01*
X125183Y22765D01*
X120774D01*
X120570Y23070D01*
X120265Y23274D01*
Y38500D01*
X120206Y38793D01*
X120041Y39041D01*
X105942Y53140D01*
X106013Y53500D01*
X105898Y54079D01*
X105570Y54570D01*
X105079Y54898D01*
X104500Y55013D01*
X103921Y54898D01*
X103430Y54570D01*
X103102Y54079D01*
X102987Y53500D01*
X103102Y52921D01*
X103430Y52430D01*
X103921Y52102D01*
X104500Y51987D01*
X104860Y52058D01*
X118735Y38183D01*
Y23274D01*
X118430Y23070D01*
X118102Y22579D01*
X117987Y22000D01*
X118102Y21421D01*
X118430Y20930D01*
X118921Y20602D01*
X119500Y20487D01*
X120079Y20602D01*
X120570Y20930D01*
X120774Y21235D01*
X125500D01*
X125793Y21294D01*
X126041Y21459D01*
X155041Y50459D01*
X155207Y50707D01*
X155265Y51000D01*
Y56940D01*
X157640Y59315D01*
X158000Y59243D01*
X158579Y59359D01*
X159070Y59687D01*
X159398Y60177D01*
X159513Y60757D01*
X159442Y61117D01*
X161957Y63632D01*
X162122Y63880D01*
X162181Y64173D01*
Y69494D01*
X162215Y69499D01*
X162959Y69807D01*
X163598Y70297D01*
X164088Y70936D01*
X164396Y71680D01*
X164501Y72479D01*
Y73896D01*
X164396Y74695D01*
X164088Y75439D01*
X163598Y76078D01*
X162959Y76568D01*
X162215Y76877D01*
Y77373D01*
X162959Y77681D01*
X163598Y78171D01*
X164088Y78810D01*
X164396Y79554D01*
X164501Y80353D01*
Y81770D01*
X164396Y82569D01*
X164088Y83313D01*
X163598Y83952D01*
X162959Y84442D01*
X162215Y84751D01*
X162107Y84765D01*
X162140Y85265D01*
X165619D01*
Y10719D01*
D02*
G37*
G36*
X23785Y70938D02*
X24275Y70299D01*
X24914Y69808D01*
X25658Y69500D01*
X26457Y69395D01*
X27017Y69469D01*
X27070Y69440D01*
X27393Y69067D01*
X27402Y69038D01*
X27327Y68660D01*
X27405Y68268D01*
X27140Y67840D01*
X27049Y67768D01*
X26188D01*
X25822Y67696D01*
X25512Y67488D01*
X25304Y67178D01*
X25232Y66812D01*
Y64188D01*
X25304Y63822D01*
X25512Y63512D01*
X25822Y63304D01*
X26188Y63232D01*
X28643D01*
X29003Y62902D01*
X29071Y62773D01*
Y62152D01*
X28687Y61768D01*
X26188D01*
X25822Y61696D01*
X25512Y61488D01*
X25304Y61178D01*
X25232Y60812D01*
Y60041D01*
X24521D01*
X24470Y60020D01*
X24416Y60031D01*
X24303Y59955D01*
X24212Y59937D01*
X24021Y59809D01*
X23847Y59775D01*
X21820D01*
X21437Y59616D01*
X21437Y59616D01*
X20239Y58418D01*
X20080Y58035D01*
X20080Y58035D01*
Y55379D01*
X20080Y55378D01*
X20239Y54996D01*
X20239Y54996D01*
X20277Y54957D01*
X20304Y54822D01*
X20512Y54512D01*
X20822Y54304D01*
X20957Y54277D01*
X21851Y53384D01*
X22233Y53225D01*
X22233Y53225D01*
X22847D01*
X23020Y53191D01*
X23123Y53123D01*
X23191Y53021D01*
X23225Y52847D01*
Y50153D01*
X23216Y50106D01*
X23256Y49905D01*
X23295Y49702D01*
X23625Y49202D01*
X23673Y49170D01*
X23694Y49117D01*
X23839Y49057D01*
X23968Y48970D01*
X24024Y48981D01*
X24077Y48959D01*
X26840D01*
X26985Y49019D01*
X27140Y49050D01*
X27171Y49096D01*
X27222Y49117D01*
X27283Y49263D01*
X27370Y49394D01*
X27474Y49913D01*
X27725Y50290D01*
X27801Y50341D01*
X27832Y50387D01*
X27883Y50408D01*
X27943Y50554D01*
X28031Y50685D01*
X28020Y50739D01*
X28041Y50791D01*
Y57000D01*
X28196Y57232D01*
X28813D01*
X29178Y57304D01*
X29488Y57512D01*
X29696Y57822D01*
X29768Y58188D01*
Y60687D01*
X30376Y61295D01*
X30542Y61543D01*
X30601Y61836D01*
Y62519D01*
X31313Y63232D01*
X33812D01*
X34178Y63304D01*
X34488Y63512D01*
X34696Y63822D01*
X34768Y64188D01*
Y64997D01*
X35230Y65188D01*
X37439Y62980D01*
Y59782D01*
X37497Y59489D01*
X37663Y59241D01*
X38678Y58225D01*
X38678Y58225D01*
X38927Y58059D01*
X39219Y58001D01*
X41389D01*
X41438Y57501D01*
X40921Y57398D01*
X40430Y57070D01*
X40345Y56942D01*
X40084Y56590D01*
X39704Y56815D01*
X39579Y56898D01*
X39000Y57013D01*
X38421Y56898D01*
X37930Y56570D01*
X37602Y56079D01*
X37487Y55500D01*
X37602Y54921D01*
X37705Y54767D01*
X37438Y54267D01*
X37100D01*
X36768Y54201D01*
X36487Y54013D01*
X36299Y53732D01*
X36233Y53400D01*
Y50600D01*
X36299Y50268D01*
X36487Y49987D01*
X36768Y49799D01*
X37100Y49733D01*
X39685D01*
X40235Y49183D01*
Y48710D01*
X39900Y48267D01*
X37100D01*
X36768Y48201D01*
X36487Y48013D01*
X36299Y47732D01*
X36233Y47400D01*
Y45320D01*
X35162Y44248D01*
X34996Y44000D01*
X29500D01*
X28500Y43000D01*
X28000Y42747D01*
X27900Y42767D01*
X25100D01*
X24768Y42701D01*
X24487Y42513D01*
X24299Y42232D01*
X24233Y41900D01*
X23745Y41929D01*
X23696Y42178D01*
X23488Y42488D01*
X23178Y42696D01*
X22929Y42745D01*
X22900Y43233D01*
X23232Y43299D01*
X23513Y43487D01*
X23701Y43768D01*
X23767Y44100D01*
Y46900D01*
X23701Y47232D01*
X23513Y47513D01*
X23232Y47701D01*
X22900Y47767D01*
X20315D01*
X20087Y47995D01*
Y48678D01*
X20087Y48678D01*
X20029Y48970D01*
X19863Y49218D01*
X19863Y49218D01*
X18768Y50313D01*
Y52812D01*
X18696Y53178D01*
X18488Y53488D01*
X18178Y53696D01*
X18170Y53697D01*
X18142Y53787D01*
X18178Y54304D01*
X18488Y54512D01*
X18696Y54822D01*
X18723Y54957D01*
X18761Y54996D01*
X18920Y55378D01*
X18920Y55379D01*
Y58447D01*
X18995Y58824D01*
X18988Y58856D01*
X19041Y58983D01*
Y67276D01*
X22883Y71117D01*
X23026Y71463D01*
X23159Y71506D01*
X23541Y71525D01*
X23785Y70938D01*
D02*
G37*
G36*
X22500Y75500D02*
Y71500D01*
X18500Y67500D01*
Y58983D01*
X18464Y58929D01*
X18378Y58500D01*
X18379Y58500D01*
Y55378D01*
X17000Y54000D01*
X14381D01*
Y77000D01*
X21000D01*
X22500Y75500D01*
D02*
G37*
G36*
X25232Y58188D02*
X25304Y57822D01*
X25500Y57529D01*
Y57500D01*
X26000Y57000D01*
X27500D01*
Y50791D01*
X27335Y50681D01*
X26964Y50124D01*
X26840Y49500D01*
X24077D01*
X23747Y50000D01*
X23767Y50100D01*
Y52900D01*
X23701Y53232D01*
X23513Y53513D01*
X23232Y53701D01*
X22900Y53767D01*
X22233D01*
X20621Y55378D01*
Y58035D01*
X21820Y59233D01*
X23900D01*
X24232Y59299D01*
X24513Y59487D01*
X24521Y59500D01*
X25232D01*
Y58188D01*
D02*
G37*
G36*
X74732Y46187D02*
X74804Y45822D01*
X74936Y45625D01*
X74776Y45226D01*
X74746Y45190D01*
X74659Y45142D01*
X74652Y45143D01*
X74352Y45041D01*
X74114Y44833D01*
X73974Y44549D01*
X73516Y42838D01*
X73020Y42485D01*
X73000Y42489D01*
X72421Y42374D01*
X71930Y42046D01*
X71602Y41555D01*
X71487Y40976D01*
X71602Y40397D01*
X71807Y40089D01*
X71890Y39738D01*
X71807Y39386D01*
X71602Y39079D01*
X71487Y38500D01*
X71602Y37921D01*
X71930Y37430D01*
X72046Y37352D01*
X71987Y37133D01*
X71967Y36818D01*
X72068Y36518D01*
X72277Y36280D01*
X72561Y36140D01*
X75033Y35478D01*
X75348Y35457D01*
X75648Y35559D01*
X75886Y35767D01*
X76026Y36051D01*
X76097Y36319D01*
X76610Y36302D01*
X76632Y36194D01*
X76895Y35800D01*
X77288Y35537D01*
X77752Y35445D01*
X79130D01*
X79594Y35537D01*
X79987Y35800D01*
X80003Y35824D01*
X80525Y35706D01*
X80563Y35445D01*
X76459Y31341D01*
X76293Y31093D01*
X76235Y30800D01*
Y29465D01*
X75735Y29198D01*
X75732Y29201D01*
X75400Y29267D01*
X73320D01*
X72193Y30393D01*
X71829Y30636D01*
X71400Y30722D01*
X71400Y30722D01*
X68865D01*
X68500Y31086D01*
X68500Y43000D01*
X67513Y43987D01*
X67513Y43987D01*
X67701Y44268D01*
X67767Y44600D01*
Y47400D01*
X67757Y47446D01*
X68208Y47747D01*
X68425Y47602D01*
X69004Y47487D01*
X69583Y47602D01*
X69898Y47813D01*
X74732D01*
Y46187D01*
D02*
G37*
G36*
X46286Y54416D02*
X46304Y54322D01*
X46512Y54012D01*
X46822Y53804D01*
X47188Y53732D01*
X49812D01*
X50132Y53795D01*
X50421Y53602D01*
X50887Y53509D01*
X51145Y53304D01*
X51350Y53046D01*
X51442Y52581D01*
X51770Y52090D01*
X52261Y51762D01*
X52357Y51742D01*
X52512Y51512D01*
X52822Y51304D01*
X53188Y51232D01*
X55813D01*
X56178Y51304D01*
X56386Y50875D01*
X55930Y50570D01*
X55602Y50079D01*
X55487Y49500D01*
X55602Y48921D01*
X55930Y48430D01*
X56235Y48226D01*
Y44512D01*
X55723Y44000D01*
X47963Y44000D01*
X46963Y43000D01*
X46000Y43000D01*
X45574Y43426D01*
X45513Y43987D01*
X45701Y44268D01*
X45767Y44600D01*
Y47400D01*
X45701Y47732D01*
X45513Y48013D01*
X45232Y48201D01*
X45029Y48241D01*
Y48759D01*
X45232Y48799D01*
X45513Y48987D01*
X45701Y49268D01*
X45767Y49600D01*
Y52400D01*
X45701Y52732D01*
X45513Y53013D01*
X45232Y53201D01*
X45029Y53241D01*
Y53866D01*
X45743Y54580D01*
X46286Y54416D01*
D02*
G37*
G36*
X15188Y49232D02*
X17687D01*
X18557Y48361D01*
Y47678D01*
X18616Y47385D01*
X18781Y47137D01*
X19233Y46685D01*
Y44100D01*
X19299Y43768D01*
X19487Y43487D01*
X19768Y43299D01*
X20100Y43233D01*
X20071Y42745D01*
X19822Y42696D01*
X19512Y42488D01*
X19304Y42178D01*
X19232Y41813D01*
Y39313D01*
X18459Y38541D01*
X18293Y38293D01*
X18235Y38000D01*
Y37194D01*
X17812Y36768D01*
X15188D01*
X14881Y36707D01*
X14753Y36743D01*
X14381Y37003D01*
Y48998D01*
X14753Y49257D01*
X14881Y49292D01*
X15188Y49232D01*
D02*
G37*
G36*
X71733Y25938D02*
Y25600D01*
X71799Y25268D01*
X71987Y24987D01*
X72268Y24799D01*
X72433Y24767D01*
X72438Y24268D01*
X72072Y24196D01*
X71762Y23988D01*
X71554Y23678D01*
X71482Y23313D01*
Y20687D01*
X71554Y20322D01*
X71762Y20012D01*
X72072Y19804D01*
X72438Y19732D01*
X75063D01*
X75428Y19804D01*
X75738Y20012D01*
X75946Y20322D01*
X76018Y20687D01*
Y21239D01*
X76293Y21294D01*
X76541Y21459D01*
X77020Y21938D01*
X77482Y21747D01*
Y20687D01*
X77554Y20322D01*
X77762Y20012D01*
X78043Y19823D01*
X78069Y19747D01*
X78073Y19711D01*
X78081Y19293D01*
X77800Y19105D01*
X77538Y18712D01*
X77445Y18248D01*
Y16870D01*
X77538Y16406D01*
X77800Y16013D01*
X78194Y15750D01*
X78658Y15658D01*
X80823D01*
X81202Y15733D01*
X81524Y15564D01*
X81702Y15426D01*
Y14574D01*
X81524Y14435D01*
X81202Y14267D01*
X80823Y14342D01*
X78658D01*
X78309Y14273D01*
X74761Y17821D01*
X74513Y17986D01*
X74220Y18045D01*
X70518D01*
X70226Y17986D01*
X69977Y17821D01*
X67687Y15530D01*
X66693D01*
X66420Y16030D01*
X66513Y16500D01*
X66442Y16860D01*
X69041Y19459D01*
X69207Y19707D01*
X69265Y20000D01*
X69265Y20000D01*
Y24226D01*
X69570Y24430D01*
X69898Y24921D01*
X70013Y25500D01*
X69998Y25577D01*
X70423Y26002D01*
X70500Y25987D01*
X71079Y26102D01*
X71233Y26205D01*
X71733Y25938D01*
D02*
G37*
G36*
X66988Y29426D02*
X66742Y28965D01*
X66500Y29013D01*
X65921Y28898D01*
X65430Y28570D01*
X65102Y28079D01*
X64987Y27500D01*
X65102Y26921D01*
X65430Y26430D01*
X65735Y26226D01*
Y21317D01*
X65360Y20942D01*
X65000Y21013D01*
X64421Y20898D01*
X63930Y20570D01*
X63602Y20079D01*
X63487Y19500D01*
X63602Y18921D01*
X63930Y18430D01*
X64123Y18301D01*
Y17699D01*
X63930Y17570D01*
X63549Y17533D01*
X53541Y27541D01*
X53293Y27707D01*
X53000Y27765D01*
X51061D01*
X50794Y28265D01*
X50898Y28421D01*
X51013Y29000D01*
X50914Y29500D01*
X51150Y30000D01*
X52785D01*
X56537Y26248D01*
X56602Y25921D01*
X56930Y25430D01*
X57421Y25102D01*
X58000Y24987D01*
X58579Y25102D01*
X59070Y25430D01*
X59398Y25921D01*
X59513Y26500D01*
X59398Y27079D01*
X59070Y27570D01*
X58579Y27898D01*
X58000Y28013D01*
X57421Y27898D01*
X57198Y27749D01*
X55409Y29538D01*
X55601Y30000D01*
X66414D01*
X66988Y29426D01*
D02*
G37*
G36*
X39645Y26356D02*
X39930Y25930D01*
X40421Y25602D01*
X41000Y25487D01*
X41579Y25602D01*
X42070Y25930D01*
X42274Y26235D01*
X52683D01*
X54692Y24227D01*
X54501Y23765D01*
X49774D01*
X49570Y24070D01*
X49079Y24398D01*
X48500Y24513D01*
X47921Y24398D01*
X47430Y24070D01*
X47102Y23579D01*
X46987Y23000D01*
X47102Y22421D01*
X47430Y21930D01*
X47921Y21602D01*
X48500Y21487D01*
X49079Y21602D01*
X49570Y21930D01*
X49774Y22235D01*
X55183D01*
X62426Y14992D01*
X62235Y14530D01*
X45764D01*
X45253Y15041D01*
X45005Y15206D01*
X44713Y15265D01*
X43274D01*
X43070Y15570D01*
X42579Y15898D01*
X42000Y16013D01*
X41421Y15898D01*
X40930Y15570D01*
X40602Y15079D01*
X40487Y14500D01*
X40580Y14029D01*
X40308Y13529D01*
X25267D01*
Y14400D01*
X25201Y14732D01*
X25029Y14988D01*
Y15769D01*
X25117Y15827D01*
X25358Y16188D01*
X25388Y16341D01*
X25919Y16446D01*
X25930Y16430D01*
X26421Y16102D01*
X27000Y15987D01*
X27579Y16102D01*
X28070Y16430D01*
X28398Y16921D01*
X28513Y17500D01*
X28398Y18079D01*
X28070Y18570D01*
X27765Y18774D01*
Y19062D01*
X27765Y19062D01*
X27707Y19355D01*
X27541Y19603D01*
X23370Y23773D01*
X23562Y24235D01*
X36500D01*
X36793Y24294D01*
X37041Y24459D01*
X39135Y26553D01*
X39645Y26356D01*
D02*
G37*
G36*
X17846Y22115D02*
X17977Y21919D01*
X18473Y21587D01*
X19058Y21471D01*
X19954D01*
X22038Y19387D01*
Y18085D01*
X21971Y17748D01*
Y15267D01*
X21600D01*
X21268Y15201D01*
X20987Y15013D01*
X20799Y14732D01*
X20733Y14400D01*
Y11600D01*
X20799Y11268D01*
X20832Y11220D01*
X20565Y10719D01*
X14381D01*
Y15679D01*
X14881Y15830D01*
X14883Y15827D01*
X15244Y15586D01*
X15669Y15502D01*
X16850D01*
X17276Y15586D01*
X17637Y15827D01*
X17878Y16188D01*
X17962Y16613D01*
Y19763D01*
X17878Y20188D01*
X17637Y20549D01*
X17276Y20790D01*
X17025Y20840D01*
Y22081D01*
X17232Y22242D01*
X17846Y22115D01*
D02*
G37*
G36*
X25911Y19070D02*
X25930Y18570D01*
X25602Y18079D01*
X25487Y17500D01*
X25536Y17251D01*
X25310Y16912D01*
X25134Y16800D01*
X25088Y16791D01*
X25028Y16701D01*
X24938Y16641D01*
X24917Y16536D01*
X24858Y16446D01*
X24848Y16399D01*
X24696Y16172D01*
X24647Y16151D01*
X24586Y16005D01*
X24499Y15874D01*
X24509Y15820D01*
X24488Y15769D01*
Y14988D01*
X24549Y14842D01*
X24579Y14687D01*
X24691Y14521D01*
X24725Y14347D01*
Y13529D01*
X24884Y13147D01*
X25267Y12988D01*
X27500D01*
Y11500D01*
X26719Y10719D01*
X23280D01*
X22500Y11500D01*
Y15238D01*
X22512Y15267D01*
Y17695D01*
X22569Y17980D01*
X22558Y18034D01*
X22579Y18085D01*
Y19387D01*
X22579Y19387D01*
X22500Y19577D01*
Y20500D01*
X24481D01*
X25911Y19070D01*
D02*
G37*
%LPC*%
G36*
X72390Y61488D02*
X68634D01*
Y59386D01*
X72390D01*
Y61488D01*
D02*
G37*
G36*
X49000Y18513D02*
X48421Y18398D01*
X47930Y18070D01*
X47602Y17579D01*
X47487Y17000D01*
X47602Y16421D01*
X47930Y15930D01*
X48421Y15602D01*
X49000Y15487D01*
X49579Y15602D01*
X50070Y15930D01*
X50398Y16421D01*
X50513Y17000D01*
X50398Y17579D01*
X50070Y18070D01*
X49579Y18398D01*
X49000Y18513D01*
D02*
G37*
%LPD*%
D11*
X79500Y42500D02*
Y49500D01*
X38500Y36500D02*
Y41342D01*
X58000Y54500D02*
X59500D01*
X81246Y65518D02*
Y73018D01*
X77715Y65557D02*
Y77045D01*
X74259Y65863D02*
Y72473D01*
Y65863D02*
X74776Y65346D01*
X16260Y29212D02*
Y34260D01*
Y29012D02*
Y29212D01*
X113184Y16709D02*
X116250Y19775D01*
X108959Y16709D02*
X113184D01*
X106750Y14500D02*
X108959Y16709D01*
X106500Y14500D02*
X106750D01*
X116288Y19813D02*
Y36712D01*
X116250Y19775D02*
X116288Y19813D01*
X100000Y53000D02*
X116288Y36712D01*
X158000Y60757D02*
X161416Y64173D01*
X154500Y57257D02*
X158000Y60757D01*
X33000Y72000D02*
X34000Y71000D01*
Y70000D02*
Y71000D01*
Y70000D02*
X36144Y67856D01*
X40500Y29000D02*
X49500D01*
X36500Y25000D02*
X40500Y29000D01*
X19000Y28477D02*
X22477Y25000D01*
X36500D01*
X45447Y13766D02*
X68418D01*
X44713Y14500D02*
X45447Y13766D01*
X42000Y14500D02*
X44713D01*
X104500Y53500D02*
X119500Y38500D01*
Y22000D02*
Y38500D01*
X31500Y27000D02*
X33500D01*
X30796Y26296D02*
X31500Y27000D01*
X22594Y26296D02*
X30796D01*
X29766Y72687D02*
X35144Y67309D01*
Y66356D02*
Y67309D01*
X79059Y12441D02*
X79740D01*
Y21990D02*
X79750Y22000D01*
X79740Y17559D02*
Y21990D01*
X75000Y51000D02*
X83370D01*
X74000Y52000D02*
X75000Y51000D01*
X74000Y52000D02*
Y54624D01*
X72424Y56200D02*
X74000Y54624D01*
X70812Y56200D02*
X72424D01*
X70512Y56500D02*
X70812Y56200D01*
X68500Y20000D02*
Y25500D01*
X65000Y16500D02*
X68500Y20000D01*
X66500Y21000D02*
Y27500D01*
X65000Y19500D02*
X66500Y21000D01*
X77000Y30800D02*
X81431Y35231D01*
X77000Y23000D02*
Y30800D01*
X76000Y22000D02*
X77000Y23000D01*
X54160Y53160D02*
X54500Y53500D01*
X52840Y53160D02*
X54160D01*
X65232Y77232D02*
Y79232D01*
X63829Y75829D02*
X65232Y77232D01*
X56840Y75829D02*
X63829D01*
X66500Y80500D02*
X71833D01*
X65232Y79232D02*
X66500Y80500D01*
X71833D02*
X72395Y81063D01*
X18275Y24750D02*
X21312D01*
X16260Y22735D02*
X18275Y24750D01*
X21312D02*
X27000Y19062D01*
X21809Y27082D02*
Y34000D01*
Y27082D02*
X22594Y26296D01*
X16260Y18188D02*
Y22735D01*
Y17988D02*
Y18188D01*
X27000Y17500D02*
Y19062D01*
X19000Y28477D02*
Y38000D01*
X21500Y34000D02*
X21809D01*
X81431Y35231D02*
Y41728D01*
X82000Y42297D01*
X55500Y23000D02*
X63734Y14766D01*
X48500Y23000D02*
X55500D01*
X35144Y66356D02*
X38203Y63297D01*
Y59782D02*
Y63297D01*
X26959Y72687D02*
X29766D01*
X26457Y73189D02*
X26959Y72687D01*
X46000Y61911D02*
Y63804D01*
X44589Y60500D02*
X46000Y61911D01*
X39937Y60500D02*
X44589D01*
X38203Y59782D02*
X39219Y58766D01*
X50766D01*
X39953Y63000D02*
X44000D01*
X39567Y64800D02*
X42000D01*
X37144Y67223D02*
X39567Y64800D01*
X37144Y67223D02*
Y68270D01*
X36144Y66809D02*
X39953Y63000D01*
X46000Y63804D02*
X47196Y65000D01*
X36144Y66809D02*
Y67856D01*
X34959Y70456D02*
X37144Y68270D01*
X36349Y75903D02*
X42915D01*
X34959Y70456D02*
Y74513D01*
X47196Y65000D02*
X51656D01*
X52500Y65845D01*
Y69500D01*
X55000Y72000D02*
Y73988D01*
X29836Y61836D02*
Y62836D01*
X27500Y59500D02*
X29836Y61836D01*
Y62836D02*
X32500Y65500D01*
X79000Y50000D02*
X79500Y49500D01*
X84600Y42500D02*
Y49770D01*
X83370Y51000D02*
X84600Y49770D01*
X82000Y42297D02*
Y42500D01*
X53000Y27000D02*
X63500Y16500D01*
X41000Y27000D02*
X53000D01*
X48720Y41327D02*
X50522Y43128D01*
X48720Y36957D02*
Y41327D01*
X126000Y18500D02*
X158000Y50500D01*
X117525Y18500D02*
X126000D01*
X116250Y19775D02*
X117525Y18500D01*
X119500Y22000D02*
X125500D01*
X154500Y51000D01*
Y57257D01*
X158000Y50500D02*
Y56000D01*
X161416Y64173D02*
Y73188D01*
X100000Y53000D02*
Y55000D01*
X106455Y60045D02*
X121000Y45500D01*
X106455Y60045D02*
Y73188D01*
X34959Y74513D02*
X36349Y75903D01*
X50766Y58766D02*
X51000Y59000D01*
X57000Y44196D02*
Y49500D01*
X57800Y51262D02*
X62758D01*
X56606Y52455D02*
X57800Y51262D01*
X55545Y52455D02*
X56606D01*
X54500Y53500D02*
X55545Y52455D01*
X55933Y43128D02*
X57000Y44196D01*
X50522Y43128D02*
X55933D01*
X55000Y73988D02*
X56840Y75829D01*
X63500Y16500D02*
X65000D01*
X72395Y81063D02*
X73543D01*
X57719Y26781D02*
X58000Y26500D01*
X68004Y14766D02*
X70518Y17280D01*
X63734Y14766D02*
X68004D01*
X68418Y13766D02*
X69652Y15000D01*
X72260D01*
X74220Y17280D02*
X79059Y12441D01*
X70518Y17280D02*
X74220D01*
X73750Y22000D02*
X76000D01*
X77715Y65557D02*
X77925Y65346D01*
X77715Y77045D02*
X81417Y80748D01*
X74000Y50000D02*
X79000D01*
X41000Y43843D02*
Y49500D01*
X38500Y41342D02*
X41000Y43843D01*
X38750Y51750D02*
X41000Y49500D01*
X71437Y52563D02*
X74000Y50000D01*
X70512Y52563D02*
X71437D01*
X21500Y40500D02*
Y45500D01*
X19322Y47678D02*
Y48678D01*
X16500Y51500D02*
X19322Y48678D01*
Y47678D02*
X21500Y45500D01*
X52500Y69500D02*
X55000Y72000D01*
X19000Y38000D02*
X21500Y40500D01*
X16260Y34260D02*
X16500Y34500D01*
X57085Y26781D02*
X57719D01*
X51279Y32587D02*
X57085Y26781D01*
X51279Y32587D02*
Y36957D01*
X44500Y77488D02*
Y78988D01*
X42915Y75903D02*
X44500Y77488D01*
X53500Y81488D02*
X55315Y79673D01*
Y78622D02*
Y79673D01*
X47000Y81488D02*
X53500D01*
X44500Y78988D02*
X47000Y81488D01*
X62758Y51262D02*
X63032Y50988D01*
X81075Y65346D02*
X81246Y65518D01*
Y73018D02*
X81417Y73189D01*
X73543D02*
X74259Y72473D01*
X81417Y80748D02*
Y81063D01*
X56000Y56500D02*
X58000Y54500D01*
X52500Y56500D02*
X56000D01*
X51000Y55000D02*
X52500Y56500D01*
D16*
X68097Y72403D02*
X72500Y68000D01*
Y63000D02*
Y68000D01*
Y63000D02*
X72890Y62610D01*
Y59613D02*
Y62610D01*
X72263Y58986D02*
X72890Y59613D01*
X71856Y58986D02*
X72263D01*
X71339Y58468D02*
X71856Y58986D01*
X70512Y58468D02*
X71339D01*
D18*
X58957Y36957D02*
D03*
X66634D02*
D03*
X33366D02*
D03*
X41043D02*
D03*
X69193D02*
D03*
X61516D02*
D03*
X64075D02*
D03*
X51279D02*
D03*
X53839D02*
D03*
X56398D02*
D03*
X43602D02*
D03*
X46161D02*
D03*
X48720D02*
D03*
X35925D02*
D03*
X38484D02*
D03*
X30807D02*
D03*
D19*
X68000Y77500D02*
D03*
Y83500D02*
D03*
X21500Y45500D02*
D03*
Y51500D02*
D03*
X26500Y40500D02*
D03*
Y34500D02*
D03*
X38500Y46000D02*
D03*
Y52000D02*
D03*
X67960Y66267D02*
D03*
Y72267D02*
D03*
X74000Y27000D02*
D03*
Y33000D02*
D03*
D20*
X74236Y37448D02*
D03*
X75764Y43152D02*
D03*
D21*
X82000Y42500D02*
D03*
X84600D02*
D03*
X79400D02*
D03*
D22*
X16500Y51500D02*
D03*
Y45500D02*
D03*
X21500Y34500D02*
D03*
Y40500D02*
D03*
X27500Y65500D02*
D03*
Y59500D02*
D03*
X32500Y65500D02*
D03*
Y59500D02*
D03*
X77000Y47500D02*
D03*
Y53500D02*
D03*
X82000Y47500D02*
D03*
Y53500D02*
D03*
X48500Y62000D02*
D03*
Y56000D02*
D03*
X54500Y53500D02*
D03*
Y59500D02*
D03*
X16500Y34500D02*
D03*
Y40500D02*
D03*
D23*
X79750Y22000D02*
D03*
X73750D02*
D03*
X16500Y56500D02*
D03*
X22500D02*
D03*
X54500Y46000D02*
D03*
X60500D02*
D03*
D24*
X79740Y12441D02*
D03*
Y17559D02*
D03*
X72260Y15000D02*
D03*
D25*
X83559Y37740D02*
D03*
X78441D02*
D03*
X81000Y30260D02*
D03*
D26*
X59488Y60437D02*
D03*
Y58468D02*
D03*
Y56500D02*
D03*
Y54531D02*
D03*
Y52563D02*
D03*
X70512D02*
D03*
Y54531D02*
D03*
Y56500D02*
D03*
Y58468D02*
D03*
Y60437D02*
D03*
D27*
X63032Y50988D02*
D03*
X65000D02*
D03*
X66969D02*
D03*
Y62012D02*
D03*
X65000D02*
D03*
X63032D02*
D03*
D28*
X49500Y46000D02*
D03*
X43500D02*
D03*
X65500D02*
D03*
X71500D02*
D03*
X43500Y51000D02*
D03*
X49500D02*
D03*
X16500Y66500D02*
D03*
X22500D02*
D03*
X16500Y61500D02*
D03*
X22500D02*
D03*
X23000Y13000D02*
D03*
X17000D02*
D03*
D29*
X81075Y59654D02*
D03*
X84224D02*
D03*
X74776D02*
D03*
X77925D02*
D03*
Y66347D02*
D03*
X74776D02*
D03*
X84224D02*
D03*
X81075D02*
D03*
D30*
X16260Y29212D02*
D03*
X23740D02*
D03*
Y18188D02*
D03*
X20000D02*
D03*
X16260D02*
D03*
D49*
X77276Y53224D02*
Y56232D01*
X74000Y57077D02*
X74776Y57852D01*
Y59153D01*
X77925Y56882D02*
Y59153D01*
X77276Y56232D02*
X77925Y56882D01*
X81000Y54865D02*
X82000Y53865D01*
X81000Y54865D02*
Y56000D01*
X81056Y56056D01*
X82000Y53500D02*
Y53865D01*
X77000Y53500D02*
X77276Y53224D01*
X81056Y56056D02*
Y59135D01*
X81075Y59153D01*
D50*
X112005Y18500D02*
X112500D01*
X111964Y18459D02*
X112005Y18500D01*
X107459Y18459D02*
X111964D01*
X106500Y17500D02*
X107459Y18459D01*
X112500Y18500D02*
X114538Y20538D01*
Y27104D01*
X111918Y29724D02*
X114538Y27104D01*
X97188Y29724D02*
X111918D01*
X95361Y31550D02*
X97188Y29724D01*
X23500Y12500D02*
Y17748D01*
X23500Y12500D02*
X23500D01*
X23000Y13000D02*
X23500Y12500D01*
X23500Y17748D02*
X23740Y17988D01*
X43500Y54500D02*
X45000Y56000D01*
X19058Y23000D02*
X20587D01*
X23740Y19847D01*
Y18188D02*
Y19847D01*
X43500Y46000D02*
Y54500D01*
X84500Y31300D02*
Y35870D01*
X83559Y36811D02*
X84500Y35870D01*
X83559Y36811D02*
Y37740D01*
X23740Y17988D02*
Y18188D01*
X24000Y12000D02*
X70500D01*
X23000Y13000D02*
X24000Y12000D01*
X95361Y31550D02*
Y68414D01*
X98581Y71635D01*
Y73188D01*
D51*
X48700Y46000D02*
X49500D01*
X46191Y43491D02*
X48700Y46000D01*
X46191Y36987D02*
Y43491D01*
X71400Y29600D02*
X74000Y27000D01*
X68400Y29600D02*
X71400D01*
X66634Y31366D02*
X68400Y29600D01*
X60500Y46000D02*
X61500Y45000D01*
Y36972D02*
Y45000D01*
X38500Y46000D02*
Y46000D01*
X35955Y43455D02*
X38500Y46000D01*
X35955Y36987D02*
Y43455D01*
X33336Y30336D02*
Y36927D01*
X32500Y29500D02*
X33336Y30336D01*
X28500Y29500D02*
X32500D01*
X26500Y31500D02*
X28500Y29500D01*
X26500Y31500D02*
Y34500D01*
X46161Y36957D02*
X46191Y36987D01*
X33336Y36927D02*
X33366Y36957D01*
X66634Y31366D02*
Y36957D01*
X19500Y58500D02*
X22500Y61500D01*
X35925Y36957D02*
X35955Y36987D01*
X61500Y36972D02*
X61516Y36957D01*
X64105Y44605D02*
X65500Y46000D01*
X64105Y36987D02*
Y44605D01*
X19500Y53500D02*
Y58500D01*
Y53500D02*
X21500Y51500D01*
X26500Y40500D02*
X30777D01*
X30807Y40470D01*
Y36957D02*
Y40470D01*
X16500Y40500D02*
Y45500D01*
X64075Y36957D02*
X64105Y36987D01*
D52*
X73250Y40726D02*
X75951D01*
X78441Y38236D01*
X73000Y40976D02*
X73250Y40726D01*
X59000Y62500D02*
X61500Y65000D01*
X57500Y62500D02*
X59000D01*
X54500Y59500D02*
X57500Y62500D01*
X67146Y65452D02*
Y68081D01*
X66969Y65275D02*
X67146Y65452D01*
X66969Y62012D02*
Y65275D01*
Y59969D02*
Y62012D01*
X65500Y58500D02*
X66969Y59969D01*
X28655Y68474D02*
X28840Y68660D01*
X28655Y66655D02*
Y68474D01*
X27500Y65500D02*
X28655Y66655D01*
X78441Y37740D02*
Y38236D01*
X110179Y71408D02*
X114612Y66975D01*
X147136D01*
X110179Y71408D02*
Y76630D01*
X106455Y80353D02*
X110179Y76630D01*
X106455Y80353D02*
Y81062D01*
X24252Y28500D02*
X26500D01*
X63200Y58500D02*
X65500D01*
X61314Y60386D02*
X63200Y58500D01*
X59539Y60386D02*
X61314D01*
X59488Y60437D02*
X59539Y60386D01*
X66960Y68267D02*
X67146Y68081D01*
Y67081D02*
X67960Y66267D01*
X23740Y29012D02*
X24252Y28500D01*
X43500Y42500D02*
Y46000D01*
Y37059D02*
Y42500D01*
X41500D02*
X43500D01*
X41043Y42043D02*
X41500Y42500D01*
X41043Y36957D02*
Y42043D01*
X43500Y37059D02*
X43602Y36957D01*
X60915Y52614D02*
X62832Y54531D01*
X59539Y52614D02*
X60915D01*
X59488Y52563D02*
X59539Y52614D01*
X62832Y54531D02*
X66872D01*
X52000Y62000D02*
X54500Y59500D01*
X48500Y62000D02*
X52000D01*
X67924Y58468D02*
X70512D01*
X66872Y57416D02*
X67924Y58468D01*
X66872Y54531D02*
Y57416D01*
Y54531D02*
X70512D01*
D53*
X69223Y48781D02*
X75719D01*
X69004Y49000D02*
X69223Y48781D01*
X75764Y43352D02*
X76127Y43715D01*
Y46627D01*
X77000Y47500D01*
X75719Y48781D02*
X77000Y47500D01*
D54*
X98581Y81062D02*
D03*
X106455D02*
D03*
Y73188D02*
D03*
X98581D02*
D03*
X18583Y81063D02*
D03*
X26457D02*
D03*
Y73189D02*
D03*
X18583D02*
D03*
X153542Y73188D02*
D03*
X161416D02*
D03*
Y81062D02*
D03*
X153542D02*
D03*
X81417Y81063D02*
D03*
X73543D02*
D03*
Y73189D02*
D03*
X81417D02*
D03*
D55*
X57874Y68268D02*
D03*
X42126Y83465D02*
D03*
Y68268D02*
D03*
X57874Y83465D02*
D03*
D56*
X48228Y78622D02*
D03*
X40945D02*
D03*
X37205D02*
D03*
Y73110D02*
D03*
X40945D02*
D03*
X44685D02*
D03*
X48228D02*
D03*
X62795D02*
D03*
X59055D02*
D03*
X51772D02*
D03*
X62795Y78622D02*
D03*
X59055D02*
D03*
X55315D02*
D03*
X51772D02*
D03*
D57*
X25500Y54000D02*
D03*
X25000Y51500D02*
D03*
X139000Y40000D02*
D03*
X158000Y66000D02*
D03*
X104500Y53500D02*
D03*
X109500Y52500D02*
D03*
X73000Y38500D02*
D03*
Y40976D02*
D03*
X33500Y27000D02*
D03*
X33000Y72000D02*
D03*
X49000Y17000D02*
D03*
X68500Y25500D02*
D03*
X66500Y27500D02*
D03*
X70500D02*
D03*
X69004Y49000D02*
D03*
X45000Y56000D02*
D03*
X19058Y23000D02*
D03*
X79697Y38000D02*
D03*
X39937Y60500D02*
D03*
X44000Y63000D02*
D03*
X50000Y67500D02*
D03*
X42000Y64800D02*
D03*
X39000Y55500D02*
D03*
X41500Y56000D02*
D03*
X28840Y68660D02*
D03*
X33000Y66500D02*
D03*
X84500Y31300D02*
D03*
X35500Y20000D02*
D03*
X70500Y12000D02*
D03*
X64000Y22000D02*
D03*
X49000Y50000D02*
D03*
X41000Y27000D02*
D03*
X19000Y19000D02*
D03*
X74000Y57077D02*
D03*
X119500Y22000D02*
D03*
X158000Y60757D02*
D03*
X100000Y55000D02*
D03*
X158000Y56000D02*
D03*
X121000Y45500D02*
D03*
X150000Y59000D02*
D03*
X66960Y68267D02*
D03*
X51000Y59000D02*
D03*
X57000Y49500D02*
D03*
X52840Y53160D02*
D03*
X60000Y49500D02*
D03*
X67500Y77000D02*
D03*
X61500Y65000D02*
D03*
X26500Y28500D02*
D03*
X27000Y17500D02*
D03*
X100500Y62000D02*
D03*
X106500Y14500D02*
D03*
Y17500D02*
D03*
X22500Y66000D02*
D03*
X42000Y14500D02*
D03*
X58000Y26500D02*
D03*
X65000Y19500D02*
D03*
X49500Y29000D02*
D03*
X71500Y32500D02*
D03*
X77276Y56232D02*
D03*
X81000Y54865D02*
D03*
X81500Y47500D02*
D03*
X16000Y46000D02*
D03*
X112000Y59000D02*
D03*
X100000Y16500D02*
D03*
X70500Y19500D02*
D03*
X149000Y15000D02*
D03*
X139000D02*
D03*
X149000Y25000D02*
D03*
X139000D02*
D03*
X149000Y35000D02*
D03*
X139000Y51000D02*
D03*
X147136Y66975D02*
D03*
X59000Y37000D02*
D03*
X56500Y41000D02*
D03*
X41000Y32500D02*
D03*
X22000Y34000D02*
D03*
X48500Y23000D02*
D03*
X65000Y16500D02*
D03*
X51000Y55000D02*
D03*
X53839Y36957D02*
D03*
D58*
X31500Y47500D02*
D03*
X34453Y45531D02*
D03*
Y49468D02*
D03*
X28547D02*
D03*
Y45531D02*
D03*
M02*
