G04*
G04 #@! TF.GenerationSoftware,Altium Limited,Altium Designer,19.1.5 (86)*
G04*
G04 Layer_Color=65535*
%FSLAX25Y25*%
%MOIN*%
G70*
G01*
G75*
%ADD10C,0.00591*%
%ADD11C,0.00800*%
G36*
X126829Y16531D02*
X126787D01*
X126737Y16523D01*
X126671Y16514D01*
X126587Y16506D01*
X126487Y16489D01*
X126387Y16473D01*
X126271Y16448D01*
X126021Y16381D01*
X125771Y16290D01*
X125646Y16231D01*
X125521Y16165D01*
X125404Y16081D01*
X125296Y15998D01*
X125288Y15990D01*
X125271Y15973D01*
X125246Y15948D01*
X125213Y15906D01*
X125171Y15856D01*
X125121Y15798D01*
X125079Y15732D01*
X125029Y15648D01*
X124971Y15556D01*
X124929Y15457D01*
X124880Y15348D01*
X124838Y15232D01*
X124804Y15107D01*
X124779Y14973D01*
X124763Y14823D01*
X124755Y14673D01*
Y14665D01*
Y14640D01*
Y14590D01*
X124763Y14532D01*
X124771Y14465D01*
X124779Y14382D01*
X124796Y14290D01*
X124821Y14190D01*
X124888Y13982D01*
X124929Y13866D01*
X124979Y13757D01*
X125046Y13649D01*
X125121Y13541D01*
X125204Y13441D01*
X125296Y13341D01*
X125304Y13332D01*
X125321Y13316D01*
X125354Y13299D01*
X125396Y13266D01*
X125454Y13224D01*
X125521Y13183D01*
X125604Y13141D01*
X125696Y13091D01*
X125796Y13041D01*
X125912Y12991D01*
X126037Y12949D01*
X126179Y12908D01*
X126321Y12874D01*
X126479Y12841D01*
X126654Y12824D01*
X126829Y12808D01*
Y11167D01*
X126787D01*
X126729Y11175D01*
X126662Y11183D01*
X126570Y11192D01*
X126470Y11200D01*
X126354Y11217D01*
X126229Y11242D01*
X126096Y11258D01*
X125954Y11292D01*
X125663Y11358D01*
X125363Y11450D01*
X125079Y11558D01*
X125071Y11567D01*
X125046Y11575D01*
X125013Y11591D01*
X124954Y11625D01*
X124896Y11658D01*
X124821Y11700D01*
X124738Y11750D01*
X124655Y11808D01*
X124463Y11950D01*
X124255Y12116D01*
X124055Y12308D01*
X123863Y12533D01*
X123855Y12524D01*
X123838Y12508D01*
X123813Y12474D01*
X123772Y12433D01*
X123730Y12375D01*
X123672Y12316D01*
X123605Y12250D01*
X123530Y12174D01*
X123438Y12100D01*
X123347Y12016D01*
X123138Y11858D01*
X122905Y11700D01*
X122639Y11558D01*
X122630D01*
X122605Y11541D01*
X122564Y11525D01*
X122505Y11508D01*
X122439Y11483D01*
X122355Y11450D01*
X122256Y11417D01*
X122147Y11383D01*
X122022Y11350D01*
X121889Y11316D01*
X121747Y11283D01*
X121598Y11250D01*
X121431Y11225D01*
X121264Y11200D01*
X120898Y11167D01*
Y12808D01*
X120939D01*
X120989Y12816D01*
X121056Y12824D01*
X121139Y12833D01*
X121239Y12849D01*
X121339Y12866D01*
X121456Y12891D01*
X121697Y12958D01*
X121956Y13049D01*
X122081Y13107D01*
X122197Y13174D01*
X122314Y13257D01*
X122422Y13341D01*
X122431Y13349D01*
X122447Y13366D01*
X122472Y13391D01*
X122505Y13432D01*
X122547Y13482D01*
X122597Y13541D01*
X122647Y13607D01*
X122697Y13691D01*
X122747Y13782D01*
X122797Y13882D01*
X122847Y13991D01*
X122889Y14107D01*
X122922Y14240D01*
X122947Y14374D01*
X122964Y14524D01*
X122972Y14673D01*
Y14682D01*
Y14707D01*
Y14757D01*
X122964Y14815D01*
X122955Y14882D01*
X122947Y14965D01*
X122930Y15057D01*
X122905Y15148D01*
X122839Y15365D01*
X122797Y15473D01*
X122739Y15582D01*
X122680Y15690D01*
X122605Y15798D01*
X122522Y15906D01*
X122422Y15998D01*
X122414Y16006D01*
X122397Y16023D01*
X122364Y16048D01*
X122322Y16073D01*
X122264Y16115D01*
X122197Y16156D01*
X122114Y16198D01*
X122022Y16248D01*
X121922Y16298D01*
X121806Y16348D01*
X121681Y16389D01*
X121547Y16431D01*
X121398Y16465D01*
X121239Y16498D01*
X121073Y16514D01*
X120898Y16531D01*
Y18172D01*
X120939D01*
X120998Y18164D01*
X121064Y18156D01*
X121148Y18147D01*
X121248Y18139D01*
X121364Y18122D01*
X121481Y18105D01*
X121614Y18080D01*
X121756Y18056D01*
X122039Y17989D01*
X122330Y17897D01*
X122614Y17781D01*
X122622D01*
X122647Y17764D01*
X122689Y17747D01*
X122739Y17722D01*
X122797Y17681D01*
X122872Y17639D01*
X122955Y17589D01*
X123047Y17531D01*
X123239Y17398D01*
X123447Y17222D01*
X123663Y17023D01*
X123863Y16798D01*
X123872Y16806D01*
X123888Y16823D01*
X123913Y16856D01*
X123955Y16906D01*
X124005Y16956D01*
X124063Y17023D01*
X124130Y17089D01*
X124205Y17164D01*
X124296Y17239D01*
X124388Y17323D01*
X124596Y17489D01*
X124838Y17639D01*
X125096Y17781D01*
X125104D01*
X125129Y17797D01*
X125171Y17814D01*
X125229Y17839D01*
X125296Y17864D01*
X125379Y17889D01*
X125479Y17922D01*
X125588Y17956D01*
X125713Y17989D01*
X125838Y18031D01*
X125987Y18056D01*
X126137Y18089D01*
X126296Y18114D01*
X126470Y18139D01*
X126829Y18172D01*
Y16531D01*
D02*
G37*
G36*
X120273Y16581D02*
X120256D01*
X120223Y16589D01*
X120106D01*
X120065Y16598D01*
X119757D01*
X119673Y16589D01*
X119582Y16581D01*
X119482Y16573D01*
X119373Y16564D01*
X119140Y16531D01*
X118899Y16481D01*
X118657Y16414D01*
X118549Y16373D01*
X118440Y16323D01*
X118432D01*
X118415Y16306D01*
X118390Y16298D01*
X118349Y16273D01*
X118257Y16206D01*
X118140Y16115D01*
X118016Y15998D01*
X117882Y15856D01*
X117766Y15690D01*
X117666Y15490D01*
X120273D01*
Y13924D01*
X117632D01*
Y13916D01*
X117641Y13899D01*
X117649Y13866D01*
X117666Y13832D01*
X117691Y13782D01*
X117716Y13724D01*
X117791Y13599D01*
X117891Y13457D01*
X118024Y13307D01*
X118099Y13241D01*
X118182Y13174D01*
X118282Y13107D01*
X118382Y13049D01*
X118390D01*
X118407Y13041D01*
X118440Y13024D01*
X118490Y13007D01*
X118549Y12982D01*
X118615Y12958D01*
X118699Y12933D01*
X118790Y12908D01*
X118899Y12883D01*
X119015Y12858D01*
X119140Y12833D01*
X119282Y12808D01*
X119432Y12791D01*
X119590Y12774D01*
X119757Y12766D01*
X120273D01*
Y11167D01*
X119940D01*
X119857Y11175D01*
X119657D01*
X119548Y11183D01*
X119298Y11200D01*
X119024Y11225D01*
X118749Y11258D01*
X118482Y11308D01*
X118474D01*
X118449Y11316D01*
X118415Y11325D01*
X118366Y11333D01*
X118307Y11350D01*
X118240Y11375D01*
X118082Y11425D01*
X117899Y11483D01*
X117707Y11558D01*
X117508Y11650D01*
X117324Y11758D01*
X117316Y11766D01*
X117291Y11783D01*
X117249Y11808D01*
X117199Y11850D01*
X117133Y11891D01*
X117058Y11950D01*
X116974Y12025D01*
X116891Y12100D01*
X116799Y12183D01*
X116700Y12283D01*
X116499Y12491D01*
X116308Y12733D01*
X116141Y13007D01*
X116133Y13016D01*
X116125Y13041D01*
X116100Y13082D01*
X116075Y13141D01*
X116041Y13207D01*
X116008Y13299D01*
X115975Y13391D01*
X115933Y13499D01*
X115891Y13616D01*
X115858Y13749D01*
X115825Y13882D01*
X115791Y14032D01*
X115742Y14340D01*
X115733Y14507D01*
X115725Y14673D01*
Y14682D01*
Y14715D01*
Y14765D01*
X115733Y14823D01*
X115742Y14907D01*
X115750Y14998D01*
X115758Y15107D01*
X115775Y15223D01*
X115800Y15348D01*
X115825Y15482D01*
X115900Y15756D01*
X115950Y15898D01*
X116008Y16048D01*
X116066Y16190D01*
X116141Y16331D01*
X116150Y16340D01*
X116158Y16364D01*
X116183Y16406D01*
X116216Y16456D01*
X116258Y16523D01*
X116316Y16598D01*
X116375Y16681D01*
X116449Y16773D01*
X116525Y16873D01*
X116616Y16973D01*
X116708Y17073D01*
X116816Y17181D01*
X116933Y17281D01*
X117058Y17389D01*
X117183Y17489D01*
X117324Y17581D01*
X117332D01*
X117349Y17597D01*
X117374Y17606D01*
X117408Y17631D01*
X117457Y17656D01*
X117508Y17681D01*
X117574Y17714D01*
X117649Y17747D01*
X117816Y17822D01*
X118016Y17897D01*
X118240Y17972D01*
X118482Y18031D01*
X118490D01*
X118515Y18039D01*
X118549Y18047D01*
X118607Y18056D01*
X118674Y18064D01*
X118749Y18080D01*
X118840Y18089D01*
X118940Y18105D01*
X119057Y18122D01*
X119182Y18131D01*
X119315Y18147D01*
X119448Y18156D01*
X119757Y18172D01*
X120090Y18180D01*
X120273D01*
Y16581D01*
D02*
G37*
G36*
X115092Y13024D02*
X112460D01*
Y14315D01*
X115092D01*
Y13024D01*
D02*
G37*
G36*
X111643Y14032D02*
Y14016D01*
Y13974D01*
X111635Y13899D01*
Y13807D01*
X111618Y13691D01*
X111601Y13557D01*
X111585Y13407D01*
X111551Y13249D01*
X111510Y13074D01*
X111468Y12899D01*
X111402Y12716D01*
X111335Y12533D01*
X111252Y12358D01*
X111152Y12174D01*
X111043Y12008D01*
X110910Y11850D01*
X110902Y11841D01*
X110877Y11816D01*
X110835Y11775D01*
X110777Y11725D01*
X110702Y11666D01*
X110619Y11591D01*
X110510Y11525D01*
X110394Y11450D01*
X110260Y11366D01*
X110110Y11300D01*
X109952Y11233D01*
X109785Y11167D01*
X109594Y11117D01*
X109402Y11075D01*
X109194Y11050D01*
X108969Y11042D01*
X108919D01*
X108853Y11050D01*
X108769Y11058D01*
X108669Y11067D01*
X108553Y11083D01*
X108419Y11108D01*
X108278Y11142D01*
X108120Y11183D01*
X107961Y11242D01*
X107803Y11308D01*
X107645Y11383D01*
X107478Y11475D01*
X107320Y11583D01*
X107170Y11708D01*
X107028Y11850D01*
X107020Y11858D01*
X106995Y11891D01*
X106962Y11933D01*
X106912Y12000D01*
X106862Y12083D01*
X106803Y12183D01*
X106737Y12299D01*
X106670Y12433D01*
X106595Y12574D01*
X106537Y12741D01*
X106470Y12924D01*
X106420Y13116D01*
X106370Y13324D01*
X106337Y13549D01*
X106312Y13782D01*
X106304Y14032D01*
Y18180D01*
X108045D01*
Y13924D01*
Y13916D01*
Y13899D01*
Y13874D01*
Y13832D01*
X108053Y13782D01*
X108061Y13732D01*
X108078Y13607D01*
X108103Y13466D01*
X108144Y13316D01*
X108203Y13183D01*
X108278Y13058D01*
X108286Y13041D01*
X108319Y13007D01*
X108378Y12966D01*
X108453Y12908D01*
X108553Y12849D01*
X108669Y12808D01*
X108811Y12774D01*
X108969Y12758D01*
X109011D01*
X109044Y12766D01*
X109127Y12774D01*
X109227Y12799D01*
X109344Y12833D01*
X109461Y12883D01*
X109569Y12958D01*
X109669Y13058D01*
X109677Y13074D01*
X109711Y13116D01*
X109744Y13183D01*
X109794Y13282D01*
X109836Y13399D01*
X109877Y13549D01*
X109902Y13724D01*
X109911Y13924D01*
Y18180D01*
X111643D01*
Y14032D01*
D02*
G37*
G36*
X102813Y18289D02*
X102897D01*
X102997Y18272D01*
X103122Y18255D01*
X103246Y18230D01*
X103396Y18197D01*
X103546Y18156D01*
X103705Y18097D01*
X103863Y18031D01*
X104030Y17955D01*
X104188Y17856D01*
X104346Y17747D01*
X104496Y17622D01*
X104638Y17481D01*
X104646Y17472D01*
X104671Y17447D01*
X104704Y17397D01*
X104754Y17331D01*
X104813Y17256D01*
X104871Y17156D01*
X104938Y17039D01*
X105013Y16906D01*
X105079Y16756D01*
X105146Y16598D01*
X105204Y16423D01*
X105262Y16223D01*
X105312Y16023D01*
X105346Y15798D01*
X105371Y15565D01*
X105379Y15315D01*
Y11167D01*
X103638D01*
Y13766D01*
X102080D01*
Y15415D01*
X103638D01*
Y15490D01*
Y15498D01*
Y15515D01*
Y15540D01*
Y15573D01*
X103621Y15665D01*
X103605Y15781D01*
X103571Y15906D01*
X103530Y16040D01*
X103463Y16173D01*
X103380Y16289D01*
X103372Y16306D01*
X103338Y16340D01*
X103280Y16381D01*
X103205Y16440D01*
X103105Y16498D01*
X102988Y16539D01*
X102847Y16573D01*
X102697Y16589D01*
X102655D01*
X102622Y16581D01*
X102538Y16573D01*
X102438Y16548D01*
X102330Y16514D01*
X102214Y16456D01*
X102105Y16381D01*
X102005Y16281D01*
X101997Y16265D01*
X101972Y16223D01*
X101930Y16156D01*
X101889Y16056D01*
X101847Y15931D01*
X101805Y15781D01*
X101780Y15607D01*
X101772Y15398D01*
Y11167D01*
X100031D01*
Y15315D01*
Y15332D01*
Y15373D01*
X100039Y15448D01*
Y15540D01*
X100056Y15656D01*
X100073Y15790D01*
X100089Y15931D01*
X100123Y16098D01*
X100164Y16265D01*
X100206Y16440D01*
X100264Y16623D01*
X100339Y16798D01*
X100423Y16981D01*
X100514Y17156D01*
X100631Y17323D01*
X100756Y17481D01*
X100764Y17489D01*
X100789Y17514D01*
X100831Y17556D01*
X100889Y17606D01*
X100964Y17672D01*
X101056Y17739D01*
X101156Y17814D01*
X101272Y17889D01*
X101406Y17964D01*
X101556Y18039D01*
X101714Y18105D01*
X101880Y18172D01*
X102072Y18222D01*
X102264Y18264D01*
X102480Y18289D01*
X102697Y18297D01*
X102747D01*
X102813Y18289D01*
D02*
G37*
G36*
X98823Y16573D02*
X96857D01*
X96774Y16564D01*
X96691Y16556D01*
X96599Y16548D01*
X96524Y16531D01*
X96458Y16506D01*
X96449D01*
X96433Y16498D01*
X96391Y16456D01*
X96341Y16398D01*
X96324Y16348D01*
X96316Y16298D01*
Y16289D01*
Y16273D01*
X96324Y16248D01*
X96333Y16206D01*
X96366Y16123D01*
X96391Y16065D01*
X96424Y16015D01*
X96433Y16006D01*
X96449Y15990D01*
X96474Y15965D01*
X96516Y15931D01*
X96557Y15890D01*
X96624Y15840D01*
X96691Y15790D01*
X96774Y15740D01*
X98090Y14948D01*
X98099D01*
X98115Y14932D01*
X98149Y14915D01*
X98182Y14890D01*
X98232Y14857D01*
X98282Y14815D01*
X98407Y14715D01*
X98548Y14599D01*
X98690Y14457D01*
X98832Y14307D01*
X98948Y14132D01*
Y14124D01*
X98965Y14107D01*
X98973Y14082D01*
X98998Y14049D01*
X99015Y14007D01*
X99040Y13957D01*
X99098Y13832D01*
X99156Y13682D01*
X99198Y13507D01*
X99231Y13316D01*
X99248Y13116D01*
Y13107D01*
Y13091D01*
Y13066D01*
Y13033D01*
X99240Y12941D01*
X99223Y12824D01*
X99198Y12691D01*
X99156Y12541D01*
X99107Y12391D01*
X99040Y12233D01*
Y12224D01*
X99032Y12216D01*
X99006Y12166D01*
X98957Y12091D01*
X98898Y12000D01*
X98815Y11891D01*
X98723Y11783D01*
X98607Y11675D01*
X98482Y11575D01*
X98465Y11566D01*
X98432Y11541D01*
X98365Y11500D01*
X98282Y11450D01*
X98173Y11400D01*
X98057Y11350D01*
X97924Y11300D01*
X97782Y11258D01*
X97765D01*
X97740Y11250D01*
X97707Y11242D01*
X97665Y11233D01*
X97615D01*
X97549Y11225D01*
X97482Y11217D01*
X97399Y11208D01*
X97307Y11200D01*
X97199Y11192D01*
X97091Y11183D01*
X96966Y11175D01*
X96832D01*
X96691Y11167D01*
X94500D01*
Y12841D01*
X96949D01*
X96991Y12849D01*
X97041D01*
X97149Y12874D01*
X97199Y12899D01*
X97249Y12924D01*
X97257Y12933D01*
X97266Y12941D01*
X97307Y12991D01*
X97349Y13074D01*
X97357Y13124D01*
X97365Y13183D01*
Y13191D01*
Y13207D01*
X97357Y13232D01*
X97349Y13274D01*
X97332Y13316D01*
X97316Y13366D01*
X97282Y13416D01*
X97241Y13466D01*
X97232Y13474D01*
X97216Y13491D01*
X97191Y13524D01*
X97149Y13557D01*
X97099Y13607D01*
X97041Y13657D01*
X96966Y13707D01*
X96882Y13766D01*
X95533Y14582D01*
X95525D01*
X95516Y14599D01*
X95491Y14615D01*
X95458Y14632D01*
X95375Y14698D01*
X95266Y14782D01*
X95150Y14882D01*
X95025Y15015D01*
X94900Y15157D01*
X94792Y15315D01*
Y15323D01*
X94783Y15332D01*
X94767Y15357D01*
X94750Y15390D01*
X94708Y15482D01*
X94658Y15598D01*
X94608Y15740D01*
X94567Y15898D01*
X94533Y16065D01*
X94525Y16240D01*
Y16248D01*
Y16256D01*
Y16281D01*
Y16315D01*
X94533Y16406D01*
X94542Y16514D01*
X94558Y16648D01*
X94592Y16781D01*
X94625Y16931D01*
X94675Y17073D01*
Y17081D01*
X94683Y17089D01*
X94708Y17139D01*
X94742Y17206D01*
X94792Y17298D01*
X94858Y17397D01*
X94942Y17506D01*
X95033Y17614D01*
X95141Y17714D01*
X95158Y17722D01*
X95191Y17756D01*
X95258Y17797D01*
X95341Y17856D01*
X95441Y17914D01*
X95566Y17972D01*
X95700Y18022D01*
X95850Y18072D01*
X95858D01*
X95866Y18080D01*
X95891D01*
X95933Y18089D01*
X95974Y18097D01*
X96033Y18105D01*
X96099Y18114D01*
X96183Y18131D01*
X96274Y18139D01*
X96374Y18147D01*
X96482Y18156D01*
X96608Y18164D01*
X96741Y18172D01*
X96891D01*
X97049Y18180D01*
X98823D01*
Y16573D01*
D02*
G37*
G36*
X153338Y18243D02*
X153430Y18235D01*
X153555Y18201D01*
X153696Y18160D01*
X153838Y18093D01*
X153988Y17993D01*
X154055Y17935D01*
X154121Y17868D01*
X154138Y17851D01*
X154155Y17826D01*
X154180Y17801D01*
X154204Y17760D01*
X154238Y17710D01*
X154305Y17593D01*
X154379Y17443D01*
X154446Y17260D01*
X154513Y17043D01*
X154554Y16802D01*
X155321Y11129D01*
X153638D01*
X153247Y15511D01*
Y15527D01*
Y15569D01*
X153238Y15636D01*
X153230Y15719D01*
X153222Y15827D01*
X153213Y15935D01*
X153197Y16177D01*
Y16194D01*
Y16235D01*
X153188Y16294D01*
X153180Y16377D01*
X153172Y16469D01*
Y16577D01*
X153155Y16802D01*
Y16793D01*
Y16785D01*
X153147Y16760D01*
X153138Y16727D01*
X153122Y16644D01*
X153105Y16544D01*
X153080Y16427D01*
X153063Y16310D01*
X153038Y16185D01*
X153013Y16069D01*
Y16060D01*
X153005Y16019D01*
X152997Y15969D01*
X152980Y15902D01*
X152963Y15819D01*
X152947Y15736D01*
X152905Y15561D01*
X152180Y12145D01*
Y12137D01*
X152172Y12120D01*
X152164Y12087D01*
X152155Y12054D01*
X152130Y11946D01*
X152089Y11821D01*
X152039Y11687D01*
X151980Y11546D01*
X151905Y11421D01*
X151830Y11312D01*
X151822Y11304D01*
X151789Y11279D01*
X151739Y11237D01*
X151672Y11196D01*
X151589Y11146D01*
X151489Y11112D01*
X151372Y11079D01*
X151239Y11071D01*
X151181D01*
X151114Y11088D01*
X151031Y11104D01*
X150939Y11129D01*
X150839Y11171D01*
X150748Y11229D01*
X150656Y11312D01*
X150648Y11321D01*
X150623Y11362D01*
X150581Y11421D01*
X150531Y11512D01*
X150473Y11629D01*
X150414Y11771D01*
X150356Y11946D01*
X150306Y12145D01*
X149573Y15561D01*
Y15577D01*
X149565Y15594D01*
Y15619D01*
X149556Y15661D01*
X149548Y15702D01*
X149531Y15761D01*
X149523Y15819D01*
X149506Y15894D01*
X149490Y15977D01*
X149473Y16077D01*
X149448Y16185D01*
X149423Y16302D01*
X149398Y16427D01*
X149373Y16569D01*
X149340Y16727D01*
X149323Y16802D01*
Y16793D01*
Y16777D01*
Y16752D01*
Y16718D01*
Y16669D01*
Y16610D01*
X149315Y16544D01*
Y16469D01*
X149306Y16294D01*
X149298Y16094D01*
X149282Y15869D01*
X149257Y15619D01*
Y15611D01*
Y15577D01*
X149248Y15544D01*
Y15511D01*
X148857Y11129D01*
X147174D01*
X147932Y16802D01*
Y16810D01*
X147940Y16835D01*
Y16869D01*
X147949Y16918D01*
X147965Y16977D01*
X147974Y17043D01*
X148015Y17193D01*
X148074Y17368D01*
X148149Y17543D01*
X148240Y17718D01*
X148357Y17868D01*
X148365Y17876D01*
X148373Y17885D01*
X148424Y17926D01*
X148498Y17993D01*
X148598Y18060D01*
X148723Y18126D01*
X148873Y18193D01*
X149048Y18235D01*
X149140Y18251D01*
X149290D01*
X149323Y18243D01*
X149415Y18235D01*
X149531Y18210D01*
X149665Y18168D01*
X149806Y18110D01*
X149948Y18026D01*
X150081Y17918D01*
X150098Y17901D01*
X150139Y17860D01*
X150198Y17776D01*
X150273Y17668D01*
X150356Y17535D01*
X150439Y17368D01*
X150514Y17168D01*
X150581Y16943D01*
X151039Y15003D01*
Y14986D01*
X151048Y14953D01*
X151064Y14894D01*
X151081Y14819D01*
X151097Y14728D01*
X151114Y14619D01*
X151139Y14503D01*
X151156Y14378D01*
Y14361D01*
X151164Y14320D01*
X151172Y14244D01*
X151189Y14153D01*
X151197Y14036D01*
X151214Y13911D01*
X151222Y13761D01*
X151239Y13603D01*
Y13611D01*
Y13620D01*
Y13645D01*
X151247Y13678D01*
X151256Y13761D01*
X151264Y13861D01*
X151272Y13986D01*
X151289Y14111D01*
X151306Y14244D01*
X151322Y14378D01*
Y14394D01*
X151331Y14436D01*
X151339Y14503D01*
X151356Y14586D01*
X151372Y14678D01*
X151389Y14786D01*
X151439Y15003D01*
X151905Y16943D01*
Y16952D01*
X151914Y16969D01*
X151922Y17002D01*
X151930Y17052D01*
X151947Y17102D01*
X151972Y17168D01*
X152022Y17310D01*
X152089Y17460D01*
X152180Y17627D01*
X152280Y17785D01*
X152397Y17918D01*
X152414Y17935D01*
X152455Y17968D01*
X152530Y18026D01*
X152630Y18085D01*
X152755Y18143D01*
X152897Y18201D01*
X153063Y18235D01*
X153247Y18251D01*
X153297D01*
X153338Y18243D01*
D02*
G37*
G36*
X158569Y18260D02*
X158644D01*
X158736Y18243D01*
X158844Y18235D01*
X158961Y18210D01*
X159086Y18176D01*
X159228Y18143D01*
X159369Y18093D01*
X159519Y18035D01*
X159661Y17968D01*
X159811Y17885D01*
X159960Y17793D01*
X160102Y17685D01*
X160244Y17560D01*
X160252Y17552D01*
X160277Y17527D01*
X160310Y17485D01*
X160360Y17435D01*
X160410Y17368D01*
X160477Y17285D01*
X160535Y17185D01*
X160610Y17077D01*
X160677Y16960D01*
X160744Y16827D01*
X160802Y16677D01*
X160852Y16527D01*
X160902Y16360D01*
X160935Y16194D01*
X160960Y16011D01*
X160968Y15819D01*
Y15811D01*
Y15769D01*
X160960Y15711D01*
Y15636D01*
X160943Y15544D01*
X160927Y15436D01*
X160902Y15319D01*
X160869Y15186D01*
X160827Y15044D01*
X160777Y14903D01*
X160719Y14753D01*
X160644Y14603D01*
X160552Y14461D01*
X160452Y14311D01*
X160327Y14178D01*
X160194Y14045D01*
X160186Y14036D01*
X160161Y14020D01*
X160110Y13986D01*
X160052Y13945D01*
X159977Y13886D01*
X159877Y13836D01*
X159769Y13770D01*
X159644Y13711D01*
X159502Y13653D01*
X159353Y13587D01*
X159186Y13536D01*
X159003Y13487D01*
X158803Y13437D01*
X158594Y13403D01*
X158370Y13386D01*
X158136Y13378D01*
X157961D01*
Y15053D01*
X158303D01*
X158378Y15061D01*
X158478Y15078D01*
X158594Y15102D01*
X158711Y15144D01*
X158828Y15194D01*
X158928Y15261D01*
X158936Y15269D01*
X158969Y15302D01*
X159011Y15352D01*
X159061Y15419D01*
X159103Y15502D01*
X159144Y15602D01*
X159177Y15711D01*
X159186Y15844D01*
Y15861D01*
Y15894D01*
X159177Y15952D01*
X159161Y16027D01*
X159136Y16111D01*
X159094Y16202D01*
X159044Y16294D01*
X158969Y16377D01*
X158961Y16385D01*
X158928Y16410D01*
X158886Y16444D01*
X158819Y16485D01*
X158744Y16527D01*
X158653Y16560D01*
X158545Y16585D01*
X158428Y16594D01*
X158370D01*
X158303Y16577D01*
X158220Y16560D01*
X158128Y16535D01*
X158028Y16485D01*
X157936Y16427D01*
X157853Y16344D01*
X157845Y16335D01*
X157820Y16302D01*
X157786Y16244D01*
X157753Y16160D01*
X157720Y16069D01*
X157686Y15944D01*
X157661Y15811D01*
X157653Y15652D01*
Y11129D01*
X155904D01*
Y15644D01*
Y15661D01*
Y15694D01*
X155912Y15761D01*
Y15836D01*
X155929Y15935D01*
X155937Y16052D01*
X155962Y16185D01*
X155996Y16319D01*
X156029Y16469D01*
X156079Y16627D01*
X156129Y16785D01*
X156195Y16943D01*
X156279Y17102D01*
X156370Y17252D01*
X156479Y17402D01*
X156604Y17543D01*
X156612Y17552D01*
X156637Y17576D01*
X156678Y17610D01*
X156728Y17660D01*
X156804Y17710D01*
X156887Y17776D01*
X156987Y17835D01*
X157103Y17910D01*
X157228Y17976D01*
X157370Y18043D01*
X157520Y18101D01*
X157686Y18151D01*
X157870Y18201D01*
X158053Y18235D01*
X158261Y18260D01*
X158469Y18268D01*
X158519D01*
X158569Y18260D01*
D02*
G37*
G36*
X163417Y13478D02*
Y13462D01*
Y13420D01*
X163426Y13353D01*
X163443Y13278D01*
X163459Y13187D01*
X163493Y13095D01*
X163542Y13012D01*
X163601Y12937D01*
X163609Y12928D01*
X163634Y12912D01*
X163676Y12878D01*
X163734Y12853D01*
X163817Y12820D01*
X163909Y12787D01*
X164017Y12770D01*
X164142Y12762D01*
X165500D01*
Y11129D01*
X163992D01*
X163909Y11137D01*
X163801Y11146D01*
X163684Y11162D01*
X163551Y11179D01*
X163417Y11204D01*
X163268Y11229D01*
X163118Y11271D01*
X162959Y11312D01*
X162809Y11371D01*
X162660Y11437D01*
X162518Y11512D01*
X162385Y11604D01*
X162268Y11704D01*
X162260Y11712D01*
X162243Y11729D01*
X162210Y11762D01*
X162176Y11812D01*
X162126Y11870D01*
X162076Y11946D01*
X162026Y12037D01*
X161968Y12137D01*
X161910Y12254D01*
X161860Y12387D01*
X161810Y12529D01*
X161760Y12695D01*
X161726Y12862D01*
X161693Y13053D01*
X161677Y13253D01*
X161668Y13470D01*
Y18143D01*
X163417D01*
Y13478D01*
D02*
G37*
G36*
X146907Y16510D02*
X145408D01*
Y11129D01*
X143667D01*
Y16510D01*
X142168D01*
Y18143D01*
X146907D01*
Y16510D01*
D02*
G37*
D10*
X94644Y84999D02*
X110392D01*
Y69251D02*
Y84999D01*
X94644Y69251D02*
X110392D01*
X94644D02*
Y84999D01*
X149605Y69251D02*
Y84999D01*
Y69251D02*
X165353D01*
Y84999D01*
X149605D02*
X165353D01*
D11*
X165200Y44996D02*
Y42664D01*
X162867Y44996D01*
X162284D01*
X161701Y44413D01*
Y43247D01*
X162284Y42664D01*
Y46163D02*
X161701Y46746D01*
Y47912D01*
X162284Y48495D01*
X164617D01*
X165200Y47912D01*
Y46746D01*
X164617Y46163D01*
X162284D01*
X161701Y49661D02*
X165200Y51994D01*
X161701D02*
X165200Y49661D01*
X161701Y53160D02*
X165200Y55493D01*
X161701D02*
X165200Y53160D01*
Y56659D02*
X162867Y58992D01*
X161701Y60158D02*
X165200Y62491D01*
X161701D02*
X165200Y60158D01*
X161701Y63657D02*
X165200Y65990D01*
X161701D02*
X165200Y63657D01*
X152800Y22133D02*
X153966Y19800D01*
X155133Y22133D01*
X156299Y23299D02*
X158631Y19800D01*
Y23299D02*
X156299Y19800D01*
X159798D02*
Y20383D01*
X160381D01*
Y19800D01*
X159798D01*
X162714Y23299D02*
X165046Y19800D01*
Y23299D02*
X162714Y19800D01*
M02*
