G04*
G04 #@! TF.GenerationSoftware,Altium Limited,Altium Designer,19.1.5 (86)*
G04*
G04 Layer_Physical_Order=4*
G04 Layer_Color=16711680*
%FSLAX25Y25*%
%MOIN*%
G70*
G01*
G75*
%ADD11C,0.00500*%
%ADD12C,0.00400*%
%ADD16C,0.00800*%
G04:AMPARAMS|DCode=20|XSize=23.62mil|YSize=23.62mil|CornerRadius=2.36mil|HoleSize=0mil|Usage=FLASHONLY|Rotation=270.000|XOffset=0mil|YOffset=0mil|HoleType=Round|Shape=RoundedRectangle|*
%AMROUNDEDRECTD20*
21,1,0.02362,0.01890,0,0,270.0*
21,1,0.01890,0.02362,0,0,270.0*
1,1,0.00472,-0.00945,-0.00945*
1,1,0.00472,-0.00945,0.00945*
1,1,0.00472,0.00945,0.00945*
1,1,0.00472,0.00945,-0.00945*
%
%ADD20ROUNDEDRECTD20*%
G04:AMPARAMS|DCode=22|XSize=23.62mil|YSize=23.62mil|CornerRadius=2.36mil|HoleSize=0mil|Usage=FLASHONLY|Rotation=180.000|XOffset=0mil|YOffset=0mil|HoleType=Round|Shape=RoundedRectangle|*
%AMROUNDEDRECTD22*
21,1,0.02362,0.01890,0,0,180.0*
21,1,0.01890,0.02362,0,0,180.0*
1,1,0.00472,-0.00945,0.00945*
1,1,0.00472,0.00945,0.00945*
1,1,0.00472,0.00945,-0.00945*
1,1,0.00472,-0.00945,-0.00945*
%
%ADD22ROUNDEDRECTD22*%
G04:AMPARAMS|DCode=28|XSize=10mil|YSize=16mil|CornerRadius=2.5mil|HoleSize=0mil|Usage=FLASHONLY|Rotation=270.000|XOffset=0mil|YOffset=0mil|HoleType=Round|Shape=RoundedRectangle|*
%AMROUNDEDRECTD28*
21,1,0.01000,0.01100,0,0,270.0*
21,1,0.00500,0.01600,0,0,270.0*
1,1,0.00500,-0.00550,-0.00250*
1,1,0.00500,-0.00550,0.00250*
1,1,0.00500,0.00550,0.00250*
1,1,0.00500,0.00550,-0.00250*
%
%ADD28ROUNDEDRECTD28*%
%ADD53C,0.01772*%
%ADD55C,0.01000*%
%ADD59C,0.01200*%
%ADD60C,0.02000*%
%ADD61O,0.05118X0.06535*%
%ADD64O,0.02992X0.03937*%
%ADD65C,0.01772*%
%ADD66C,0.02362*%
G04:AMPARAMS|DCode=72|XSize=23.62mil|YSize=27.56mil|CornerRadius=2.95mil|HoleSize=0mil|Usage=FLASHONLY|Rotation=270.000|XOffset=0mil|YOffset=0mil|HoleType=Round|Shape=RoundedRectangle|*
%AMROUNDEDRECTD72*
21,1,0.02362,0.02165,0,0,270.0*
21,1,0.01772,0.02756,0,0,270.0*
1,1,0.00591,-0.01083,-0.00886*
1,1,0.00591,-0.01083,0.00886*
1,1,0.00591,0.01083,0.00886*
1,1,0.00591,0.01083,-0.00886*
%
%ADD72ROUNDEDRECTD72*%
G04:AMPARAMS|DCode=73|XSize=27.56mil|YSize=59.06mil|CornerRadius=6.89mil|HoleSize=0mil|Usage=FLASHONLY|Rotation=270.000|XOffset=0mil|YOffset=0mil|HoleType=Round|Shape=RoundedRectangle|*
%AMROUNDEDRECTD73*
21,1,0.02756,0.04528,0,0,270.0*
21,1,0.01378,0.05906,0,0,270.0*
1,1,0.01378,-0.02264,-0.00689*
1,1,0.01378,-0.02264,0.00689*
1,1,0.01378,0.02264,0.00689*
1,1,0.01378,0.02264,-0.00689*
%
%ADD73ROUNDEDRECTD73*%
%ADD74R,0.06693X0.06693*%
%ADD75O,0.02953X0.00984*%
%ADD76O,0.00984X0.02953*%
G04:AMPARAMS|DCode=77|XSize=11.81mil|YSize=25.98mil|CornerRadius=2.95mil|HoleSize=0mil|Usage=FLASHONLY|Rotation=180.000|XOffset=0mil|YOffset=0mil|HoleType=Round|Shape=RoundedRectangle|*
%AMROUNDEDRECTD77*
21,1,0.01181,0.02008,0,0,180.0*
21,1,0.00591,0.02598,0,0,180.0*
1,1,0.00591,-0.00295,0.01004*
1,1,0.00591,0.00295,0.01004*
1,1,0.00591,0.00295,-0.01004*
1,1,0.00591,-0.00295,-0.01004*
%
%ADD77ROUNDEDRECTD77*%
G04:AMPARAMS|DCode=78|XSize=78.74mil|YSize=31.5mil|CornerRadius=7.87mil|HoleSize=0mil|Usage=FLASHONLY|Rotation=90.000|XOffset=0mil|YOffset=0mil|HoleType=Round|Shape=RoundedRectangle|*
%AMROUNDEDRECTD78*
21,1,0.07874,0.01575,0,0,90.0*
21,1,0.06299,0.03150,0,0,90.0*
1,1,0.01575,0.00787,0.03150*
1,1,0.01575,0.00787,-0.03150*
1,1,0.01575,-0.00787,-0.03150*
1,1,0.01575,-0.00787,0.03150*
%
%ADD78ROUNDEDRECTD78*%
%ADD79R,0.09449X0.06496*%
%ADD80O,0.00906X0.03150*%
G04:AMPARAMS|DCode=81|XSize=27.56mil|YSize=35.43mil|CornerRadius=6.89mil|HoleSize=0mil|Usage=FLASHONLY|Rotation=180.000|XOffset=0mil|YOffset=0mil|HoleType=Round|Shape=RoundedRectangle|*
%AMROUNDEDRECTD81*
21,1,0.02756,0.02165,0,0,180.0*
21,1,0.01378,0.03543,0,0,180.0*
1,1,0.01378,-0.00689,0.01083*
1,1,0.01378,0.00689,0.01083*
1,1,0.01378,0.00689,-0.01083*
1,1,0.01378,-0.00689,-0.01083*
%
%ADD81ROUNDEDRECTD81*%
G04:AMPARAMS|DCode=82|XSize=27.56mil|YSize=35.43mil|CornerRadius=6.89mil|HoleSize=0mil|Usage=FLASHONLY|Rotation=90.000|XOffset=0mil|YOffset=0mil|HoleType=Round|Shape=RoundedRectangle|*
%AMROUNDEDRECTD82*
21,1,0.02756,0.02165,0,0,90.0*
21,1,0.01378,0.03543,0,0,90.0*
1,1,0.01378,0.01083,0.00689*
1,1,0.01378,0.01083,-0.00689*
1,1,0.01378,-0.01083,-0.00689*
1,1,0.01378,-0.01083,0.00689*
%
%ADD82ROUNDEDRECTD82*%
G04:AMPARAMS|DCode=83|XSize=90mil|YSize=47.24mil|CornerRadius=0mil|HoleSize=0mil|Usage=FLASHONLY|Rotation=180.000|XOffset=0mil|YOffset=0mil|HoleType=Round|Shape=Octagon|*
%AMOCTAGOND83*
4,1,8,-0.04500,0.01181,-0.04500,-0.01181,-0.03319,-0.02362,0.03319,-0.02362,0.04500,-0.01181,0.04500,0.01181,0.03319,0.02362,-0.03319,0.02362,-0.04500,0.01181,0.0*
%
%ADD83OCTAGOND83*%

G04:AMPARAMS|DCode=84|XSize=25mil|YSize=90mil|CornerRadius=12.5mil|HoleSize=0mil|Usage=FLASHONLY|Rotation=90.000|XOffset=0mil|YOffset=0mil|HoleType=Round|Shape=RoundedRectangle|*
%AMROUNDEDRECTD84*
21,1,0.02500,0.06500,0,0,90.0*
21,1,0.00000,0.09000,0,0,90.0*
1,1,0.02500,0.03250,0.00000*
1,1,0.02500,0.03250,0.00000*
1,1,0.02500,-0.03250,0.00000*
1,1,0.02500,-0.03250,0.00000*
%
%ADD84ROUNDEDRECTD84*%
G04:AMPARAMS|DCode=85|XSize=31.5mil|YSize=31.5mil|CornerRadius=3.15mil|HoleSize=0mil|Usage=FLASHONLY|Rotation=90.000|XOffset=0mil|YOffset=0mil|HoleType=Round|Shape=RoundedRectangle|*
%AMROUNDEDRECTD85*
21,1,0.03150,0.02520,0,0,90.0*
21,1,0.02520,0.03150,0,0,90.0*
1,1,0.00630,0.01260,0.01260*
1,1,0.00630,0.01260,-0.01260*
1,1,0.00630,-0.01260,-0.01260*
1,1,0.00630,-0.01260,0.01260*
%
%ADD85ROUNDEDRECTD85*%
G04:AMPARAMS|DCode=86|XSize=12mil|YSize=22mil|CornerRadius=3mil|HoleSize=0mil|Usage=FLASHONLY|Rotation=270.000|XOffset=0mil|YOffset=0mil|HoleType=Round|Shape=RoundedRectangle|*
%AMROUNDEDRECTD86*
21,1,0.01200,0.01600,0,0,270.0*
21,1,0.00600,0.02200,0,0,270.0*
1,1,0.00600,-0.00800,-0.00300*
1,1,0.00600,-0.00800,0.00300*
1,1,0.00600,0.00800,0.00300*
1,1,0.00600,0.00800,-0.00300*
%
%ADD86ROUNDEDRECTD86*%
G04:AMPARAMS|DCode=87|XSize=12mil|YSize=32mil|CornerRadius=3mil|HoleSize=0mil|Usage=FLASHONLY|Rotation=270.000|XOffset=0mil|YOffset=0mil|HoleType=Round|Shape=RoundedRectangle|*
%AMROUNDEDRECTD87*
21,1,0.01200,0.02600,0,0,270.0*
21,1,0.00600,0.03200,0,0,270.0*
1,1,0.00600,-0.01300,-0.00300*
1,1,0.00600,-0.01300,0.00300*
1,1,0.00600,0.01300,0.00300*
1,1,0.00600,0.01300,-0.00300*
%
%ADD87ROUNDEDRECTD87*%
G04:AMPARAMS|DCode=88|XSize=12mil|YSize=22mil|CornerRadius=3mil|HoleSize=0mil|Usage=FLASHONLY|Rotation=0.000|XOffset=0mil|YOffset=0mil|HoleType=Round|Shape=RoundedRectangle|*
%AMROUNDEDRECTD88*
21,1,0.01200,0.01600,0,0,0.0*
21,1,0.00600,0.02200,0,0,0.0*
1,1,0.00600,0.00300,-0.00800*
1,1,0.00600,-0.00300,-0.00800*
1,1,0.00600,-0.00300,0.00800*
1,1,0.00600,0.00300,0.00800*
%
%ADD88ROUNDEDRECTD88*%
G04:AMPARAMS|DCode=89|XSize=12mil|YSize=32mil|CornerRadius=3mil|HoleSize=0mil|Usage=FLASHONLY|Rotation=0.000|XOffset=0mil|YOffset=0mil|HoleType=Round|Shape=RoundedRectangle|*
%AMROUNDEDRECTD89*
21,1,0.01200,0.02600,0,0,0.0*
21,1,0.00600,0.03200,0,0,0.0*
1,1,0.00600,0.00300,-0.01300*
1,1,0.00600,-0.00300,-0.01300*
1,1,0.00600,-0.00300,0.01300*
1,1,0.00600,0.00300,0.01300*
%
%ADD89ROUNDEDRECTD89*%
G04:AMPARAMS|DCode=90|XSize=7.87mil|YSize=20.67mil|CornerRadius=1.97mil|HoleSize=0mil|Usage=FLASHONLY|Rotation=0.000|XOffset=0mil|YOffset=0mil|HoleType=Round|Shape=RoundedRectangle|*
%AMROUNDEDRECTD90*
21,1,0.00787,0.01673,0,0,0.0*
21,1,0.00394,0.02067,0,0,0.0*
1,1,0.00394,0.00197,-0.00837*
1,1,0.00394,-0.00197,-0.00837*
1,1,0.00394,-0.00197,0.00837*
1,1,0.00394,0.00197,0.00837*
%
%ADD90ROUNDEDRECTD90*%
G04:AMPARAMS|DCode=91|XSize=15.75mil|YSize=20.67mil|CornerRadius=3.94mil|HoleSize=0mil|Usage=FLASHONLY|Rotation=180.000|XOffset=0mil|YOffset=0mil|HoleType=Round|Shape=RoundedRectangle|*
%AMROUNDEDRECTD91*
21,1,0.01575,0.01280,0,0,180.0*
21,1,0.00787,0.02067,0,0,180.0*
1,1,0.00787,-0.00394,0.00640*
1,1,0.00787,0.00394,0.00640*
1,1,0.00787,0.00394,-0.00640*
1,1,0.00787,-0.00394,-0.00640*
%
%ADD91ROUNDEDRECTD91*%
G04:AMPARAMS|DCode=92|XSize=31.58mil|YSize=38.27mil|CornerRadius=7.89mil|HoleSize=0mil|Usage=FLASHONLY|Rotation=0.000|XOffset=0mil|YOffset=0mil|HoleType=Round|Shape=RoundedRectangle|*
%AMROUNDEDRECTD92*
21,1,0.03158,0.02248,0,0,0.0*
21,1,0.01579,0.03827,0,0,0.0*
1,1,0.01579,0.00789,-0.01124*
1,1,0.01579,-0.00789,-0.01124*
1,1,0.01579,-0.00789,0.01124*
1,1,0.01579,0.00789,0.01124*
%
%ADD92ROUNDEDRECTD92*%
%ADD93C,0.00900*%
%ADD94R,0.03150X0.01102*%
%ADD95O,0.07865X0.02943*%
G36*
X49336Y71675D02*
X49317Y71645D01*
X49309Y71612D01*
X49310Y71574D01*
X49321Y71532D01*
X49341Y71486D01*
X49372Y71436D01*
X49412Y71382D01*
X49463Y71323D01*
X49523Y71260D01*
X49188Y71029D01*
X49125Y71090D01*
X49008Y71184D01*
X48955Y71218D01*
X48904Y71244D01*
X48857Y71261D01*
X48813Y71269D01*
X48772Y71268D01*
X48735Y71258D01*
X48701Y71240D01*
X49364Y71700D01*
X49336Y71675D01*
D02*
G37*
G36*
X52003Y71182D02*
X51996Y71173D01*
X51990Y71159D01*
X51985Y71139D01*
X51981Y71114D01*
X51978Y71082D01*
X51972Y70955D01*
X51972Y70901D01*
X51572D01*
X51571Y70955D01*
X51558Y71139D01*
X51553Y71159D01*
X51547Y71173D01*
X51541Y71182D01*
X51533Y71184D01*
X52010D01*
X52003Y71182D01*
D02*
G37*
G36*
X85719Y85365D02*
Y65667D01*
X85256Y65448D01*
X84908Y65674D01*
X84906Y65681D01*
X84732Y65867D01*
X84683Y65928D01*
X84664Y65955D01*
Y65968D01*
X84685Y66019D01*
X84667Y66062D01*
X84678Y66108D01*
X84664Y66130D01*
Y67445D01*
X84607Y67732D01*
X84444Y67976D01*
X84201Y68138D01*
X83913Y68195D01*
X82024D01*
X81736Y68138D01*
X81493Y67976D01*
X81330Y67732D01*
X81273Y67445D01*
Y65555D01*
X81330Y65268D01*
X81493Y65024D01*
X81736Y64862D01*
X82024Y64805D01*
X83185D01*
X83272Y64755D01*
X83321Y64696D01*
X83147Y64283D01*
X83043Y64196D01*
X82024D01*
X81736Y64138D01*
X81493Y63976D01*
X81330Y63732D01*
X81273Y63445D01*
Y61555D01*
X81313Y61353D01*
X81297Y61328D01*
X80703D01*
X80687Y61353D01*
X80727Y61555D01*
Y63445D01*
X80670Y63732D01*
X80507Y63976D01*
X80264Y64138D01*
X79976Y64196D01*
X78966D01*
X78711Y64696D01*
X78790Y64805D01*
X79976D01*
X80264Y64862D01*
X80507Y65024D01*
X80670Y65268D01*
X80727Y65555D01*
Y67445D01*
X80670Y67732D01*
X80507Y67976D01*
X80264Y68138D01*
X79976Y68195D01*
X78087D01*
X77799Y68138D01*
X77556Y67976D01*
X77393Y67732D01*
X77336Y67445D01*
Y66122D01*
X74957D01*
X74933Y66139D01*
X74916Y66143D01*
X74910Y66147D01*
X74898Y66148D01*
X74881Y66154D01*
X74842Y66171D01*
X74799Y66192D01*
X74438Y66425D01*
X74333Y66502D01*
X74221Y66529D01*
X74021Y66663D01*
X73480Y66770D01*
X73449Y66764D01*
X72887Y67080D01*
X72668Y67408D01*
X72340Y67628D01*
X71953Y67704D01*
X71566Y67628D01*
X71237Y67408D01*
X71202D01*
X71101Y67534D01*
X71199Y68201D01*
X71505Y68659D01*
X71613Y69200D01*
X71548Y69525D01*
X72001Y69808D01*
X72745Y69500D01*
X73543Y69395D01*
X74342Y69500D01*
X75086Y69808D01*
X75725Y70299D01*
X76215Y70938D01*
X76524Y71682D01*
X76629Y72480D01*
Y73898D01*
X76524Y74696D01*
X76215Y75440D01*
X75725Y76079D01*
X75086Y76570D01*
X74342Y76878D01*
Y77374D01*
X75086Y77682D01*
X75725Y78173D01*
X76215Y78812D01*
X76524Y79556D01*
X76629Y80354D01*
Y81772D01*
X76524Y82570D01*
X76215Y83314D01*
X75725Y83953D01*
X75086Y84444D01*
X74342Y84752D01*
X73543Y84857D01*
X72745Y84752D01*
X72001Y84444D01*
X71362Y83953D01*
X70871Y83314D01*
X70563Y82570D01*
X70458Y81772D01*
Y80354D01*
X70563Y79556D01*
X70871Y78812D01*
X71362Y78173D01*
X72001Y77682D01*
X72745Y77374D01*
Y76878D01*
X72001Y76570D01*
X71362Y76079D01*
X70871Y75440D01*
X70563Y74696D01*
X70458Y73898D01*
Y72480D01*
X70563Y71682D01*
X70850Y70988D01*
X70764Y70810D01*
X70542Y70545D01*
X70200Y70613D01*
X69659Y70505D01*
X69201Y70199D01*
X68895Y69741D01*
X68787Y69200D01*
X68895Y68659D01*
X69201Y68201D01*
X69410Y68061D01*
X69378Y67481D01*
X69269Y67408D01*
X68731D01*
X68403Y67628D01*
X68016Y67704D01*
X67629Y67628D01*
X67567Y67586D01*
X67067Y67853D01*
Y69290D01*
X66989Y69681D01*
X66882Y69842D01*
X66913Y70000D01*
X66805Y70541D01*
X66499Y70999D01*
X66041Y71305D01*
X65500Y71413D01*
X64959Y71305D01*
X64501Y70999D01*
X64195Y70541D01*
X64087Y70000D01*
X64195Y69459D01*
X64501Y69001D01*
X64959Y68695D01*
X65028Y68681D01*
Y65709D01*
X65036Y65668D01*
Y64724D01*
X65113Y64337D01*
X65332Y64009D01*
X65660Y63790D01*
X66047Y63713D01*
X66434Y63790D01*
X66763Y64009D01*
X67300D01*
X67629Y63790D01*
X68016Y63713D01*
X68403Y63790D01*
X68731Y64009D01*
X69269D01*
X69597Y63790D01*
X69984Y63713D01*
X70371Y63790D01*
X70700Y64009D01*
X71237D01*
X71566Y63790D01*
X71953Y63713D01*
X72340Y63790D01*
X72393Y63825D01*
X72494Y63798D01*
X72790Y63340D01*
X72713Y62953D01*
X72790Y62566D01*
X73009Y62238D01*
Y61699D01*
X72790Y61371D01*
X72713Y60984D01*
X72790Y60597D01*
X73009Y60269D01*
Y59731D01*
X72790Y59403D01*
X72713Y59016D01*
X72790Y58629D01*
X73009Y58301D01*
Y57762D01*
X72790Y57434D01*
X72713Y57047D01*
X72790Y56660D01*
X73009Y56332D01*
X73337Y56113D01*
X73724Y56036D01*
X75693D01*
X76080Y56113D01*
X76235Y56216D01*
X76735Y55990D01*
Y52141D01*
X76413Y51696D01*
X75805D01*
X75781Y51710D01*
X75737Y51699D01*
X75695Y51717D01*
X75644Y51696D01*
X75360D01*
X75311Y51724D01*
X75187Y51811D01*
X74851Y52097D01*
X74657Y52284D01*
X74607Y52304D01*
X73559Y53351D01*
X73540Y53401D01*
X73374Y53573D01*
X73241Y53725D01*
X73133Y53862D01*
X73050Y53984D01*
X72991Y54086D01*
X72972Y54129D01*
Y54291D01*
X72964Y54332D01*
Y55276D01*
X72887Y55663D01*
X72668Y55991D01*
X72340Y56210D01*
X71953Y56287D01*
X71566Y56210D01*
X71237Y55991D01*
X71018Y55663D01*
X70941Y55276D01*
Y54332D01*
X70933Y54291D01*
Y53516D01*
X70941Y53475D01*
Y53307D01*
X71018Y52920D01*
X71237Y52592D01*
X71488Y52424D01*
X71556Y52356D01*
X71566Y52356D01*
X71581Y52348D01*
X71589Y52342D01*
X72143Y51852D01*
X72268Y51728D01*
X72320Y51707D01*
X73160Y50867D01*
X73177Y50819D01*
X73534Y50435D01*
X73654Y50287D01*
X73744Y50158D01*
X73773Y50108D01*
Y49825D01*
X73752Y49773D01*
X73769Y49731D01*
X73759Y49687D01*
X73773Y49664D01*
Y49055D01*
X73591Y48834D01*
X69346D01*
X69164Y49055D01*
Y49748D01*
X69305Y49959D01*
X69413Y50500D01*
X69305Y51041D01*
X69180Y51228D01*
X69158Y51333D01*
X69131Y51372D01*
X69118Y51397D01*
X69104Y51424D01*
X69092Y51456D01*
X69080Y51493D01*
X69079Y51497D01*
X69050Y51976D01*
X69049Y52151D01*
X69028Y52202D01*
Y54252D01*
X69035Y54291D01*
X69027Y54332D01*
Y55276D01*
X68950Y55663D01*
X68731Y55991D01*
X68403Y56210D01*
X68016Y56287D01*
X67629Y56210D01*
X67300Y55991D01*
X66763D01*
X66434Y56210D01*
X66047Y56287D01*
X65660Y56210D01*
X65332Y55991D01*
X65113Y55663D01*
X65036Y55276D01*
Y54898D01*
X64985Y54875D01*
X61857D01*
X61706Y55375D01*
X61738Y55396D01*
X62150Y55808D01*
X62208Y55830D01*
X62385Y55994D01*
X62437Y56036D01*
X62509D01*
X62527Y56028D01*
X62544Y56036D01*
X62610D01*
X62611Y56036D01*
X62612Y56036D01*
X64276D01*
X64663Y56113D01*
X64991Y56332D01*
X65210Y56660D01*
X65287Y57047D01*
X65210Y57434D01*
X64991Y57762D01*
Y58301D01*
X65210Y58629D01*
X65287Y59016D01*
X65210Y59403D01*
X64991Y59731D01*
Y60269D01*
X65210Y60597D01*
X65287Y60984D01*
X65210Y61371D01*
X64991Y61699D01*
Y62238D01*
X65210Y62566D01*
X65287Y62953D01*
X65210Y63340D01*
X64991Y63668D01*
X64663Y63887D01*
X64276Y63964D01*
X62455D01*
X62450Y63967D01*
X62439Y63964D01*
X62384D01*
X62366Y63971D01*
X62354Y63966D01*
X62292Y64018D01*
X62228Y64080D01*
X62164Y64105D01*
X60764Y65505D01*
X60533Y65659D01*
X60260Y65714D01*
X57782D01*
X57719Y65741D01*
X57643Y65743D01*
X57631Y65744D01*
X57617Y65778D01*
X57592Y65788D01*
X57591Y65791D01*
X57580Y65798D01*
X57565Y65824D01*
X57525Y65834D01*
X57343Y65956D01*
X57050Y66015D01*
X55950D01*
X55657Y65956D01*
X55475Y65834D01*
X55435Y65824D01*
X55420Y65798D01*
X55409Y65791D01*
X55408Y65788D01*
X55383Y65778D01*
X54907Y65927D01*
X54823Y65969D01*
X54790Y66134D01*
X54636Y66365D01*
X54406Y66519D01*
X54134Y66573D01*
X53837D01*
X53788Y66615D01*
X53715Y66685D01*
X53655Y66709D01*
Y69731D01*
X53601Y70004D01*
X53446Y70236D01*
X53053Y70629D01*
X53102Y71126D01*
X53211Y71199D01*
X53652Y71859D01*
X53807Y72638D01*
Y73583D01*
X53652Y74361D01*
X53211Y75022D01*
X52551Y75463D01*
X51772Y75618D01*
X50993Y75463D01*
X50333Y75022D01*
X50250Y74898D01*
X49750D01*
X49667Y75022D01*
X49007Y75463D01*
X48228Y75618D01*
X47449Y75463D01*
X46789Y75022D01*
X46707Y74898D01*
X46207D01*
X46124Y75022D01*
X45464Y75463D01*
X44685Y75618D01*
X43906Y75463D01*
X43246Y75022D01*
X43065Y74751D01*
X42565D01*
X42384Y75022D01*
X41724Y75463D01*
X40945Y75618D01*
X40166Y75463D01*
X39506Y75022D01*
X39065Y74361D01*
X38910Y73583D01*
Y72638D01*
X39065Y71859D01*
X39506Y71199D01*
X40166Y70758D01*
X40945Y70603D01*
X41724Y70758D01*
X42384Y71199D01*
X42565Y71470D01*
X43065D01*
X43246Y71199D01*
X43906Y70758D01*
X44685Y70603D01*
X45464Y70758D01*
X46124Y71199D01*
X46596Y71033D01*
X46729Y70590D01*
X46423Y70132D01*
X46315Y69591D01*
X46423Y69051D01*
X46479Y68967D01*
X46489Y68884D01*
X46627Y68637D01*
X46727Y68442D01*
X46776Y68332D01*
X46554Y68110D01*
X46399Y67879D01*
X46345Y67605D01*
Y66956D01*
X46153Y66764D01*
X46092Y66742D01*
X45948Y66608D01*
X45926Y66590D01*
X45894Y66603D01*
X45853Y66587D01*
X45810Y66597D01*
X45724Y66545D01*
X45594Y66519D01*
X45364Y66365D01*
X45210Y66134D01*
X44715Y66211D01*
X44200Y66313D01*
X43659Y66205D01*
X43201Y65899D01*
X42895Y65441D01*
X42860Y65265D01*
X42850Y65250D01*
X42744Y65164D01*
X42362Y65076D01*
X42268Y65083D01*
X42232Y65107D01*
X41945Y65164D01*
X40055D01*
X39768Y65107D01*
X39524Y64944D01*
X39362Y64701D01*
X39305Y64413D01*
Y62524D01*
X39362Y62236D01*
X39524Y61993D01*
X39768Y61830D01*
X40055Y61773D01*
X41945D01*
X42232Y61830D01*
X42476Y61993D01*
X42638Y62236D01*
X42696Y62524D01*
Y62683D01*
X42801Y62730D01*
X42961Y62762D01*
X43209Y62928D01*
X43626Y63345D01*
X43649Y63348D01*
X43673Y63362D01*
X43677Y63364D01*
X43680Y63365D01*
X43681Y63366D01*
X43688Y63369D01*
X43727Y63382D01*
X43771Y63394D01*
X44202Y63466D01*
X44335Y63479D01*
X44437Y63534D01*
X44741Y63595D01*
X45107Y63332D01*
X45141Y63298D01*
X45203Y63097D01*
X45207Y63068D01*
X45184Y62954D01*
X45184Y62953D01*
X45184Y62952D01*
X45156Y62811D01*
Y61138D01*
X44722Y60765D01*
X42760D01*
X42701Y60791D01*
X42619Y60793D01*
X42476Y61007D01*
X42232Y61170D01*
X41945Y61227D01*
X40055D01*
X39768Y61170D01*
X39524Y61007D01*
X39362Y60764D01*
X39305Y60476D01*
Y58587D01*
X39314Y58541D01*
X39004Y58079D01*
X38942Y58041D01*
X37460D01*
X37268Y58503D01*
X37383Y58617D01*
X37541Y59000D01*
X37541Y59000D01*
Y66500D01*
X37383Y66883D01*
X37383Y66883D01*
X36383Y67883D01*
X36000Y68041D01*
X36000Y68041D01*
X32000Y68041D01*
X32000Y68041D01*
X31617Y67883D01*
X30827Y67092D01*
X30500Y66938D01*
X30173Y67092D01*
X29383Y67883D01*
X29383Y67883D01*
X29000Y68041D01*
X29000Y68041D01*
X25000Y68041D01*
X25000Y68041D01*
X24617Y67883D01*
X24617Y67883D01*
X23617Y66883D01*
X23459Y66500D01*
X23459Y66500D01*
X23459Y59000D01*
X23617Y58617D01*
X23587Y58155D01*
X23540Y58041D01*
X14281D01*
Y85365D01*
X85719Y85365D01*
D02*
G37*
G36*
X48367Y68978D02*
X48252Y68856D01*
X47856Y68384D01*
X47813Y68318D01*
X47783Y68261D01*
X47765Y68213D01*
X47758Y68174D01*
X47358Y68255D01*
X47354Y68301D01*
X47343Y68356D01*
X47323Y68422D01*
X47295Y68497D01*
X47215Y68675D01*
X47104Y68893D01*
X46961Y69148D01*
X48367Y68978D01*
D02*
G37*
G36*
X50090Y67919D02*
X49926Y67901D01*
X49326Y67800D01*
X49250Y67777D01*
X49188Y67753D01*
X49141Y67729D01*
X49108Y67704D01*
X48844Y68005D01*
X48871Y68039D01*
X48899Y68087D01*
X48926Y68148D01*
X48954Y68223D01*
X49011Y68414D01*
X49069Y68659D01*
X49129Y68959D01*
X50090Y67919D01*
D02*
G37*
G36*
X46743Y66062D02*
X46664Y65980D01*
X46539Y65833D01*
X46494Y65768D01*
X46460Y65709D01*
X46437Y65655D01*
X46426Y65607D01*
Y65565D01*
X46437Y65528D01*
X46460Y65497D01*
X45894Y66062D01*
X45925Y66040D01*
X45962Y66028D01*
X46005D01*
X46053Y66040D01*
X46106Y66062D01*
X46166Y66096D01*
X46231Y66141D01*
X46301Y66198D01*
X46460Y66345D01*
X46743Y66062D01*
D02*
G37*
G36*
X52170Y66384D02*
X52181Y66252D01*
X52191Y66196D01*
X52203Y66147D01*
X52218Y66104D01*
X52236Y66069D01*
X52257Y66040D01*
X52280Y66019D01*
X52307Y66004D01*
X51630D01*
X51656Y66019D01*
X51680Y66040D01*
X51701Y66069D01*
X51719Y66104D01*
X51734Y66147D01*
X51746Y66196D01*
X51756Y66252D01*
X51763Y66315D01*
X51768Y66461D01*
X52169D01*
X52170Y66384D01*
D02*
G37*
G36*
X48233D02*
X48244Y66252D01*
X48254Y66196D01*
X48266Y66147D01*
X48281Y66104D01*
X48299Y66069D01*
X48320Y66040D01*
X48344Y66019D01*
X48370Y66004D01*
X47693D01*
X47719Y66019D01*
X47743Y66040D01*
X47764Y66069D01*
X47782Y66104D01*
X47797Y66147D01*
X47809Y66196D01*
X47819Y66252D01*
X47826Y66315D01*
X47831Y66461D01*
X48232D01*
X48233Y66384D01*
D02*
G37*
G36*
X53424Y66214D02*
X53571Y66088D01*
X53634Y66044D01*
X53689Y66013D01*
X53737Y65995D01*
X53778Y65990D01*
X53811Y65997D01*
X53837Y66017D01*
X53856Y66050D01*
X53552Y65247D01*
X53562Y65288D01*
X53564Y65332D01*
X53557Y65380D01*
X53541Y65431D01*
X53515Y65486D01*
X53482Y65545D01*
X53439Y65606D01*
X53387Y65671D01*
X53327Y65740D01*
X53257Y65812D01*
X53339Y66296D01*
X53424Y66214D01*
D02*
G37*
G36*
X84117Y65982D02*
X84104Y65937D01*
X84105Y65884D01*
X84121Y65824D01*
X84150Y65757D01*
X84194Y65683D01*
X84251Y65601D01*
X84323Y65512D01*
X84510Y65312D01*
X84156Y64959D01*
X84052Y65059D01*
X83867Y65217D01*
X83785Y65275D01*
X83711Y65318D01*
X83644Y65348D01*
X83584Y65363D01*
X83532Y65364D01*
X83487Y65351D01*
X83449Y65324D01*
X84144Y66019D01*
X84117Y65982D01*
D02*
G37*
G36*
X72435Y65810D02*
X72451Y65768D01*
X72476Y65730D01*
X72512Y65698D01*
X72558Y65670D01*
X72560Y65669D01*
X72596Y65691D01*
X72635Y65722D01*
X72672Y65756D01*
X72706Y65796D01*
X72737Y65840D01*
Y65621D01*
X72758Y65618D01*
X72845Y65610D01*
X72942Y65608D01*
Y65108D01*
X72845Y65105D01*
X72758Y65098D01*
X72737Y65094D01*
Y64875D01*
X72706Y64919D01*
X72672Y64959D01*
X72635Y64994D01*
X72596Y65024D01*
X72560Y65046D01*
X72558Y65045D01*
X72512Y65018D01*
X72476Y64985D01*
X72451Y64948D01*
X72435Y64905D01*
X72430Y64858D01*
Y65094D01*
X72412Y65098D01*
X72360Y65105D01*
X72305Y65108D01*
Y65608D01*
X72360Y65610D01*
X72412Y65617D01*
X72430Y65621D01*
Y65858D01*
X72435Y65810D01*
D02*
G37*
G36*
X74131Y65979D02*
X74530Y65722D01*
X74611Y65681D01*
X74685Y65649D01*
X74751Y65626D01*
X74810Y65612D01*
X74862Y65608D01*
Y65108D01*
X74810Y65103D01*
X74751Y65089D01*
X74685Y65066D01*
X74611Y65034D01*
X74530Y64993D01*
X74345Y64883D01*
X74131Y64736D01*
X74012Y64649D01*
Y66066D01*
X74131Y65979D01*
D02*
G37*
G36*
X57239Y65358D02*
X57253Y65325D01*
X57277Y65296D01*
X57310Y65270D01*
X57353Y65249D01*
X57405Y65231D01*
X57466Y65218D01*
X57537Y65208D01*
X57618Y65202D01*
X57708Y65200D01*
Y64800D01*
X57618Y64798D01*
X57466Y64782D01*
X57405Y64769D01*
X57353Y64751D01*
X57310Y64730D01*
X57277Y64704D01*
X57253Y64675D01*
X57239Y64642D01*
X57234Y64605D01*
Y65395D01*
X57239Y65358D01*
D02*
G37*
G36*
X55766Y64605D02*
X55761Y64642D01*
X55747Y64675D01*
X55723Y64704D01*
X55690Y64730D01*
X55647Y64751D01*
X55595Y64769D01*
X55534Y64782D01*
X55463Y64792D01*
X55382Y64798D01*
X55292Y64800D01*
Y65200D01*
X55382Y65202D01*
X55534Y65218D01*
X55595Y65231D01*
X55647Y65249D01*
X55690Y65270D01*
X55723Y65296D01*
X55747Y65325D01*
X55761Y65358D01*
X55766Y65395D01*
Y64605D01*
D02*
G37*
G36*
X54326Y65362D02*
X54338Y65328D01*
X54359Y65298D01*
X54388Y65272D01*
X54425Y65250D01*
X54470Y65232D01*
X54524Y65218D01*
X54586Y65208D01*
X54656Y65202D01*
X54734Y65200D01*
Y64800D01*
X54656Y64798D01*
X54586Y64792D01*
X54524Y64782D01*
X54470Y64768D01*
X54425Y64750D01*
X54388Y64728D01*
X54359Y64702D01*
X54338Y64672D01*
X54326Y64638D01*
X54322Y64600D01*
Y65400D01*
X54326Y65362D01*
D02*
G37*
G36*
X44281Y64018D02*
X44131Y64003D01*
X43655Y63924D01*
X43566Y63899D01*
X43491Y63873D01*
X43427Y63845D01*
X43376Y63816D01*
X43338Y63784D01*
X43014Y64167D01*
X43049Y64208D01*
X43083Y64260D01*
X43116Y64322D01*
X43149Y64396D01*
X43181Y64481D01*
X43243Y64683D01*
X43302Y64929D01*
X43330Y65068D01*
X44281Y64018D01*
D02*
G37*
G36*
X54249Y64033D02*
X54225Y64011D01*
X54205Y63982D01*
X54187Y63947D01*
X54172Y63905D01*
X54159Y63855D01*
X54150Y63799D01*
X54142Y63736D01*
X54137Y63590D01*
X53737D01*
X53736Y63667D01*
X53725Y63799D01*
X53715Y63855D01*
X53702Y63905D01*
X53687Y63947D01*
X53669Y63982D01*
X53649Y64011D01*
X53625Y64033D01*
X53599Y64047D01*
X54275D01*
X54249Y64033D01*
D02*
G37*
G36*
X52280D02*
X52257Y64011D01*
X52236Y63982D01*
X52218Y63947D01*
X52203Y63905D01*
X52191Y63855D01*
X52181Y63799D01*
X52174Y63736D01*
X52169Y63590D01*
X51768D01*
X51767Y63667D01*
X51756Y63799D01*
X51746Y63855D01*
X51734Y63905D01*
X51719Y63947D01*
X51701Y63982D01*
X51680Y64011D01*
X51656Y64033D01*
X51630Y64047D01*
X52307D01*
X52280Y64033D01*
D02*
G37*
G36*
X48344D02*
X48320Y64011D01*
X48299Y63982D01*
X48281Y63947D01*
X48266Y63905D01*
X48254Y63855D01*
X48244Y63799D01*
X48237Y63736D01*
X48232Y63590D01*
X47831D01*
X47830Y63667D01*
X47819Y63799D01*
X47809Y63855D01*
X47797Y63905D01*
X47782Y63947D01*
X47764Y63982D01*
X47743Y64011D01*
X47719Y64033D01*
X47693Y64047D01*
X48370D01*
X48344Y64033D01*
D02*
G37*
G36*
X46375D02*
X46352Y64011D01*
X46331Y63982D01*
X46313Y63947D01*
X46298Y63905D01*
X46285Y63855D01*
X46275Y63799D01*
X46268Y63736D01*
X46263Y63590D01*
X45863D01*
X45862Y63667D01*
X45851Y63799D01*
X45841Y63855D01*
X45828Y63905D01*
X45813Y63947D01*
X45795Y63982D01*
X45774Y64011D01*
X45751Y64033D01*
X45725Y64047D01*
X46401D01*
X46375Y64033D01*
D02*
G37*
G36*
X42180Y63906D02*
X42195Y63866D01*
X42220Y63832D01*
X42254Y63802D01*
X42299Y63776D01*
X42353Y63755D01*
X42417Y63739D01*
X42491Y63728D01*
X42575Y63721D01*
X42669Y63718D01*
Y63218D01*
X42575Y63216D01*
X42491Y63209D01*
X42417Y63198D01*
X42353Y63182D01*
X42299Y63161D01*
X42254Y63135D01*
X42220Y63105D01*
X42195Y63071D01*
X42180Y63031D01*
X42176Y62988D01*
Y63949D01*
X42180Y63906D01*
D02*
G37*
G36*
X54138Y63333D02*
X54150Y63201D01*
X54159Y63145D01*
X54172Y63095D01*
X54187Y63053D01*
X54205Y63018D01*
X54225Y62989D01*
X54249Y62967D01*
X54275Y62953D01*
X53599D01*
X53625Y62967D01*
X53649Y62989D01*
X53669Y63018D01*
X53687Y63053D01*
X53702Y63095D01*
X53715Y63145D01*
X53725Y63201D01*
X53732Y63263D01*
X53737Y63410D01*
X54137D01*
X54138Y63333D01*
D02*
G37*
G36*
X52170D02*
X52181Y63201D01*
X52191Y63145D01*
X52203Y63095D01*
X52218Y63053D01*
X52236Y63018D01*
X52257Y62989D01*
X52280Y62967D01*
X52307Y62953D01*
X51630D01*
X51656Y62967D01*
X51680Y62989D01*
X51701Y63018D01*
X51719Y63053D01*
X51734Y63095D01*
X51746Y63145D01*
X51756Y63201D01*
X51763Y63263D01*
X51768Y63410D01*
X52169D01*
X52170Y63333D01*
D02*
G37*
G36*
X48233D02*
X48244Y63201D01*
X48254Y63145D01*
X48266Y63095D01*
X48281Y63053D01*
X48299Y63018D01*
X48320Y62989D01*
X48344Y62967D01*
X48370Y62953D01*
X47693D01*
X47719Y62967D01*
X47743Y62989D01*
X47764Y63018D01*
X47782Y63053D01*
X47797Y63095D01*
X47809Y63145D01*
X47819Y63201D01*
X47826Y63263D01*
X47831Y63410D01*
X48232D01*
X48233Y63333D01*
D02*
G37*
G36*
X46264D02*
X46275Y63201D01*
X46285Y63145D01*
X46298Y63095D01*
X46313Y63053D01*
X46331Y63018D01*
X46352Y62989D01*
X46375Y62967D01*
X46401Y62953D01*
X45725D01*
X45751Y62967D01*
X45774Y62989D01*
X45795Y63018D01*
X45813Y63053D01*
X45828Y63095D01*
X45841Y63145D01*
X45851Y63201D01*
X45858Y63263D01*
X45863Y63410D01*
X46263D01*
X46264Y63333D01*
D02*
G37*
G36*
X61929Y63616D02*
X62068Y63499D01*
X62129Y63457D01*
X62185Y63425D01*
X62235Y63405D01*
X62280Y63395D01*
X62320Y63396D01*
X62354Y63408D01*
X62383Y63430D01*
X61848Y62860D01*
X61869Y62890D01*
X61879Y62926D01*
X61878Y62968D01*
X61866Y63014D01*
X61844Y63066D01*
X61810Y63124D01*
X61766Y63187D01*
X61711Y63255D01*
X61569Y63408D01*
X61852Y63691D01*
X61929Y63616D01*
D02*
G37*
G36*
X75942Y63367D02*
X76006Y63332D01*
X76073Y63302D01*
X76141Y63276D01*
X76212Y63253D01*
X76286Y63235D01*
X76362Y63221D01*
X76440Y63211D01*
X76520Y63205D01*
X76603Y63203D01*
Y62703D01*
X76520Y62701D01*
X76362Y62685D01*
X76286Y62670D01*
X76212Y62652D01*
X76141Y62630D01*
X76073Y62604D01*
X76006Y62573D01*
X75942Y62539D01*
X75880Y62501D01*
Y63405D01*
X75942Y63367D01*
D02*
G37*
G36*
X77856Y62453D02*
X77851Y62500D01*
X77836Y62543D01*
X77810Y62580D01*
X77774Y62613D01*
X77728Y62640D01*
X77672Y62663D01*
X77605Y62680D01*
X77528Y62693D01*
X77441Y62700D01*
X77344Y62703D01*
Y63203D01*
X77442Y63205D01*
X77529Y63213D01*
X77606Y63225D01*
X77673Y63242D01*
X77729Y63264D01*
X77776Y63291D01*
X77812Y63323D01*
X77838Y63360D01*
X77853Y63402D01*
X77858Y63448D01*
X77856Y62453D01*
D02*
G37*
G36*
X60286Y62964D02*
X60295Y62951D01*
X60310Y62939D01*
X60332Y62928D01*
X60360Y62920D01*
X60394Y62913D01*
X60434Y62907D01*
X60533Y62901D01*
X60591Y62900D01*
Y62500D01*
X60533Y62499D01*
X60394Y62487D01*
X60360Y62480D01*
X60332Y62471D01*
X60310Y62461D01*
X60295Y62449D01*
X60286Y62436D01*
X60283Y62421D01*
Y62979D01*
X60286Y62964D01*
D02*
G37*
G36*
X58766Y62305D02*
X58761Y62342D01*
X58747Y62375D01*
X58723Y62404D01*
X58690Y62430D01*
X58647Y62451D01*
X58595Y62469D01*
X58534Y62482D01*
X58463Y62492D01*
X58382Y62498D01*
X58292Y62500D01*
Y62900D01*
X58382Y62902D01*
X58534Y62918D01*
X58595Y62931D01*
X58647Y62949D01*
X58690Y62970D01*
X58723Y62996D01*
X58747Y63025D01*
X58761Y63058D01*
X58766Y63095D01*
Y62305D01*
D02*
G37*
G36*
X61929Y61648D02*
X62068Y61531D01*
X62129Y61488D01*
X62185Y61457D01*
X62235Y61436D01*
X62280Y61427D01*
X62320Y61427D01*
X62354Y61439D01*
X62383Y61462D01*
X61848Y60891D01*
X61869Y60922D01*
X61879Y60958D01*
X61878Y60999D01*
X61866Y61046D01*
X61844Y61098D01*
X61810Y61155D01*
X61766Y61218D01*
X61711Y61287D01*
X61569Y61440D01*
X61852Y61722D01*
X61929Y61648D01*
D02*
G37*
G36*
X52332Y61473D02*
X52322Y61437D01*
X52323Y61396D01*
X52336Y61348D01*
X52359Y61294D01*
X52395Y61235D01*
X52441Y61169D01*
X52499Y61098D01*
X52648Y60938D01*
X52365Y60655D01*
X52282Y60735D01*
X52134Y60862D01*
X52068Y60909D01*
X52009Y60944D01*
X51955Y60968D01*
X51907Y60980D01*
X51866Y60981D01*
X51830Y60971D01*
X51800Y60950D01*
X52353Y61503D01*
X52332Y61473D01*
D02*
G37*
G36*
X46424Y61604D02*
X46413Y61557D01*
X46416Y61502D01*
X46432Y61442D01*
X46462Y61374D01*
X46505Y61300D01*
X46562Y61220D01*
X46633Y61132D01*
X46813Y60938D01*
X46460Y60584D01*
X46390Y60651D01*
X46258Y60764D01*
X46195Y60810D01*
X46135Y60849D01*
X46076Y60881D01*
X46020Y60906D01*
X45967Y60924D01*
X45915Y60934D01*
X45866Y60938D01*
X46448Y61645D01*
X46424Y61604D01*
D02*
G37*
G36*
X58142Y61358D02*
X58447Y61270D01*
X58549Y61249D01*
X58751Y61217D01*
X58852Y61208D01*
X59055Y61200D01*
X59132Y60700D01*
X59089Y60693D01*
X59040Y60673D01*
X58986Y60640D01*
X58925Y60593D01*
X58858Y60533D01*
X58785Y60460D01*
X58621Y60274D01*
X58432Y60034D01*
X58040Y61395D01*
X58142Y61358D01*
D02*
G37*
G36*
X42172Y60449D02*
X42188Y60407D01*
X42215Y60370D01*
X42251Y60338D01*
X42298Y60311D01*
X42355Y60289D01*
X42423Y60272D01*
X42501Y60260D01*
X42589Y60252D01*
X42688Y60250D01*
Y59750D01*
X42590Y59747D01*
X42502Y59740D01*
X42426Y59728D01*
X42359Y59710D01*
X42303Y59688D01*
X42256Y59660D01*
X42221Y59627D01*
X42195Y59590D01*
X42180Y59548D01*
X42176Y59500D01*
X42167Y60495D01*
X42172Y60449D01*
D02*
G37*
G36*
X82512Y59068D02*
X82499Y59056D01*
X82487Y59040D01*
X82477Y59021D01*
X82469Y58997D01*
X82462Y58969D01*
X82457Y58937D01*
X82453Y58902D01*
X82450Y58819D01*
X81950D01*
X81949Y58862D01*
X81943Y58937D01*
X81938Y58969D01*
X81931Y58997D01*
X81923Y59021D01*
X81913Y59040D01*
X81901Y59056D01*
X81888Y59068D01*
X81874Y59076D01*
X82526D01*
X82512Y59068D01*
D02*
G37*
G36*
X80137Y59078D02*
X80118Y59063D01*
X80102Y59044D01*
X80089Y59020D01*
X80077Y58993D01*
X80067Y58963D01*
X80060Y58928D01*
X80054Y58889D01*
X80051Y58846D01*
X80050Y58800D01*
X79550D01*
X79549Y58846D01*
X79540Y58928D01*
X79533Y58963D01*
X79523Y58993D01*
X79511Y59020D01*
X79498Y59044D01*
X79482Y59063D01*
X79463Y59078D01*
X79443Y59089D01*
X80157D01*
X80137Y59078D01*
D02*
G37*
G36*
X78121Y59350D02*
X77865Y58951D01*
X77823Y58869D01*
X77791Y58795D01*
X77768Y58729D01*
X77755Y58670D01*
X77750Y58619D01*
X77250D01*
X77245Y58670D01*
X77232Y58729D01*
X77209Y58795D01*
X77177Y58869D01*
X77135Y58951D01*
X77025Y59135D01*
X76879Y59350D01*
X76792Y59468D01*
X78208D01*
X78121Y59350D01*
D02*
G37*
G36*
X37000Y66500D02*
Y59000D01*
X36041Y58041D01*
X34500Y58041D01*
X34500Y58041D01*
X34117Y57883D01*
X34117Y57883D01*
X33617Y57383D01*
X33459Y57000D01*
X33459Y57000D01*
X33459Y53748D01*
X33098Y53292D01*
X33022Y53248D01*
X31621D01*
X31354Y53748D01*
X31398Y53813D01*
X31471Y54185D01*
Y56429D01*
X31398Y56801D01*
X31187Y57116D01*
X31000Y57241D01*
Y66500D01*
X32000Y67500D01*
X36000Y67500D01*
X37000Y66500D01*
D02*
G37*
G36*
X61156Y58516D02*
X60946Y58511D01*
X60760Y58496D01*
X60599Y58471D01*
X60461Y58436D01*
X60348Y58391D01*
X60259Y58336D01*
X60194Y58271D01*
X60153Y58196D01*
X60136Y58111D01*
X60144Y58016D01*
X59913Y59188D01*
X59783Y59250D01*
X59708Y59306D01*
X59690Y59355D01*
X59727Y59398D01*
X59821Y59434D01*
X59970Y59463D01*
X60175Y59486D01*
X60754Y59513D01*
X61127Y59516D01*
X61156Y58516D01*
D02*
G37*
G36*
X47653Y57873D02*
X47660Y57786D01*
X47673Y57709D01*
X47690Y57642D01*
X47712Y57586D01*
X47740Y57540D01*
X47772Y57504D01*
X47810Y57478D01*
X47853Y57463D01*
X47900Y57458D01*
X46900D01*
X46948Y57463D01*
X46990Y57478D01*
X47028Y57504D01*
X47060Y57540D01*
X47087Y57586D01*
X47110Y57642D01*
X47128Y57709D01*
X47140Y57786D01*
X47148Y57873D01*
X47150Y57970D01*
X47650D01*
X47653Y57873D01*
D02*
G37*
G36*
X44675Y57147D02*
X44530Y57125D01*
X44066Y57024D01*
X43979Y56996D01*
X43904Y56967D01*
X43841Y56936D01*
X43790Y56904D01*
X43750Y56871D01*
X43396Y57224D01*
X43430Y57264D01*
X43462Y57315D01*
X43492Y57378D01*
X43522Y57453D01*
X43550Y57540D01*
X43603Y57748D01*
X43651Y58004D01*
X43673Y58149D01*
X44675Y57147D01*
D02*
G37*
G36*
X62525Y56570D02*
X62487Y56597D01*
X62442Y56610D01*
X62391Y56610D01*
X62333Y56596D01*
X62268Y56569D01*
X62196Y56528D01*
X62117Y56473D01*
X62032Y56405D01*
X61840Y56227D01*
X61487Y56580D01*
X61544Y56640D01*
X61645Y56764D01*
X61688Y56828D01*
X61727Y56893D01*
X61762Y56959D01*
X61792Y57026D01*
X61817Y57094D01*
X61838Y57164D01*
X61855Y57235D01*
X62525Y56570D01*
D02*
G37*
G36*
X51255Y67370D02*
Y66540D01*
X51228Y66481D01*
X51223Y66355D01*
X51220Y66328D01*
X51218Y66314D01*
X51194Y66258D01*
X51109Y66148D01*
X51112Y66119D01*
X51090Y66005D01*
X51089Y66004D01*
X51089Y66003D01*
X51061Y65862D01*
Y64189D01*
X51089Y64048D01*
X51089Y64047D01*
X51090Y64046D01*
X51112Y63933D01*
X51108Y63903D01*
X51194Y63793D01*
X51218Y63737D01*
X51219Y63731D01*
X51226Y63639D01*
X51227Y63580D01*
X51255Y63517D01*
Y63489D01*
X51228Y63430D01*
X51223Y63303D01*
X51220Y63276D01*
X51218Y63263D01*
X51194Y63207D01*
X51109Y63097D01*
X51112Y63068D01*
X51090Y62954D01*
X51089Y62953D01*
X51089Y62952D01*
X51061Y62811D01*
Y61138D01*
X51115Y60866D01*
X51269Y60635D01*
X51500Y60481D01*
X51655Y60451D01*
X51710Y60416D01*
X51756Y60426D01*
X51800Y60409D01*
X51821Y60417D01*
X51918Y60335D01*
X51989Y60266D01*
X52053Y60241D01*
X52798Y59495D01*
X53030Y59341D01*
X53303Y59286D01*
X54915D01*
X55188Y59341D01*
X55419Y59495D01*
X55948Y60024D01*
X56515Y59883D01*
X56725Y59568D01*
X57184Y59262D01*
X57273Y58945D01*
Y57055D01*
X57330Y56768D01*
X56928Y56478D01*
X56928Y56478D01*
X56378Y55928D01*
X56319Y55906D01*
X56133Y55732D01*
X56072Y55683D01*
X56045Y55664D01*
X56032D01*
X55980Y55685D01*
X55937Y55668D01*
X55892Y55678D01*
X55870Y55664D01*
X54555D01*
X54268Y55607D01*
X54024Y55444D01*
X53862Y55201D01*
X53804Y54913D01*
Y53024D01*
X53862Y52736D01*
X54024Y52493D01*
X54268Y52330D01*
X54555Y52273D01*
X56445D01*
X56732Y52330D01*
X56976Y52493D01*
X57138Y52736D01*
X57196Y53024D01*
Y54185D01*
X57245Y54272D01*
X57305Y54321D01*
X57717Y54147D01*
X57805Y54043D01*
Y53024D01*
X57862Y52736D01*
X58024Y52493D01*
X58268Y52330D01*
X58555Y52273D01*
X60445D01*
X60732Y52330D01*
X60976Y52493D01*
X61138Y52736D01*
X61195Y53024D01*
Y53319D01*
X61202Y53319D01*
X61261Y53346D01*
X64985D01*
X65036Y53323D01*
Y53307D01*
X65113Y52920D01*
X65332Y52592D01*
X65660Y52372D01*
X66047Y52296D01*
X66434Y52372D01*
X66465Y52393D01*
X66882Y52166D01*
X66796Y51696D01*
X66524D01*
X66236Y51638D01*
X65993Y51476D01*
X65830Y51232D01*
X65773Y50945D01*
Y49055D01*
X65591Y48834D01*
X62800D01*
X62800Y48834D01*
X62507Y48775D01*
X62259Y48610D01*
X62259Y48610D01*
X61914Y48265D01*
X61371D01*
X61115Y48765D01*
X61138Y48799D01*
X61195Y49087D01*
Y50976D01*
X61138Y51264D01*
X60976Y51507D01*
X60732Y51670D01*
X60445Y51727D01*
X58555D01*
X58268Y51670D01*
X58024Y51507D01*
X57862Y51264D01*
X57805Y50976D01*
Y50017D01*
X57696Y49963D01*
X57196Y50273D01*
Y50976D01*
X57138Y51264D01*
X56976Y51507D01*
X56732Y51670D01*
X56445Y51727D01*
X54555D01*
X54268Y51670D01*
X54024Y51507D01*
X53862Y51264D01*
X53804Y50976D01*
Y49852D01*
X53304Y49472D01*
X53100Y49513D01*
X52559Y49405D01*
X52101Y49099D01*
X51795Y48641D01*
X51687Y48100D01*
X51795Y47559D01*
X52101Y47101D01*
X52559Y46795D01*
X52701Y46766D01*
X52780Y46241D01*
X52494Y46086D01*
X52175Y46204D01*
X51863Y46266D01*
X51263D01*
X50951Y46204D01*
X50939Y46196D01*
X50843Y46163D01*
X50693Y46194D01*
X50506Y46262D01*
X50359Y46369D01*
Y46406D01*
X50301Y46698D01*
X50135Y46946D01*
X49585Y47497D01*
X49580Y47526D01*
X49571Y47540D01*
X49569Y47547D01*
X49561Y47556D01*
X49553Y47572D01*
X49538Y47613D01*
X49523Y47657D01*
X49432Y48078D01*
X49412Y48206D01*
X49352Y48305D01*
X49305Y48541D01*
X48999Y48999D01*
X49202Y49465D01*
X49232Y49509D01*
X49294Y49819D01*
Y51111D01*
X49310Y51135D01*
X49433Y51279D01*
X49514Y51364D01*
X49539Y51426D01*
X50622Y52509D01*
X50681Y52531D01*
X50867Y52705D01*
X50928Y52754D01*
X50955Y52773D01*
X50968D01*
X51020Y52752D01*
X51063Y52770D01*
X51108Y52759D01*
X51130Y52773D01*
X52445D01*
X52732Y52830D01*
X52976Y52993D01*
X53138Y53236D01*
X53196Y53524D01*
Y55413D01*
X53138Y55701D01*
X53190Y55961D01*
X53399Y56101D01*
X53705Y56559D01*
X53813Y57100D01*
X53705Y57641D01*
X53399Y58099D01*
X52941Y58405D01*
X52400Y58513D01*
X51859Y58405D01*
X51328Y58652D01*
X51305Y58687D01*
X51305Y58687D01*
X48925Y61067D01*
X48939Y61138D01*
Y62811D01*
X48911Y62952D01*
X48911Y62953D01*
X48910Y62954D01*
X48888Y63068D01*
X48891Y63097D01*
X48806Y63207D01*
X48782Y63263D01*
X48781Y63269D01*
X48774Y63361D01*
X48773Y63420D01*
X48745Y63482D01*
Y63511D01*
X48772Y63570D01*
X48777Y63697D01*
X48780Y63724D01*
X48782Y63737D01*
X48806Y63793D01*
X48891Y63903D01*
X48888Y63932D01*
X48910Y64046D01*
X48911Y64047D01*
X48911Y64048D01*
X48939Y64189D01*
Y65862D01*
X48911Y66003D01*
X48911Y66004D01*
X48910Y66005D01*
X48888Y66119D01*
X48891Y66148D01*
X48806Y66258D01*
X48782Y66314D01*
X48781Y66321D01*
X48774Y66412D01*
X48773Y66471D01*
X48745Y66534D01*
Y66615D01*
X49377Y67247D01*
X49388Y67248D01*
X49408Y67258D01*
X49423Y67264D01*
X49449Y67271D01*
X50001Y67365D01*
X50149Y67381D01*
X50252Y67437D01*
X50541Y67495D01*
X50755Y67638D01*
X51255Y67370D01*
D02*
G37*
G36*
X51017Y56056D02*
X51024Y55966D01*
X51037Y55888D01*
X51054Y55820D01*
X51077Y55764D01*
X51104Y55718D01*
X51137Y55683D01*
X51174Y55659D01*
X51217Y55646D01*
X51264Y55644D01*
X50384Y55585D01*
X50408Y55600D01*
X50431Y55625D01*
X50450Y55658D01*
X50467Y55700D01*
X50481Y55751D01*
X50493Y55810D01*
X50502Y55879D01*
X50513Y56044D01*
X50514Y56139D01*
X51014Y56156D01*
X51017Y56056D01*
D02*
G37*
G36*
X57041Y55156D02*
X56941Y55053D01*
X56783Y54867D01*
X56725Y54786D01*
X56682Y54711D01*
X56652Y54644D01*
X56637Y54584D01*
X56635Y54532D01*
X56648Y54487D01*
X56676Y54449D01*
X55980Y55144D01*
X56018Y55117D01*
X56063Y55104D01*
X56116Y55105D01*
X56176Y55121D01*
X56243Y55150D01*
X56317Y55194D01*
X56399Y55251D01*
X56488Y55323D01*
X56688Y55510D01*
X57041Y55156D01*
D02*
G37*
G36*
X65570Y53610D02*
X65565Y53658D01*
X65549Y53700D01*
X65524Y53738D01*
X65488Y53770D01*
X65442Y53798D01*
X65385Y53820D01*
X65319Y53838D01*
X65242Y53850D01*
X65155Y53858D01*
X65058Y53860D01*
Y54360D01*
X65155Y54363D01*
X65242Y54370D01*
X65319Y54383D01*
X65385Y54400D01*
X65442Y54423D01*
X65488Y54450D01*
X65524Y54483D01*
X65549Y54520D01*
X65565Y54563D01*
X65570Y54610D01*
Y53610D01*
D02*
G37*
G36*
X60681Y54563D02*
X60696Y54520D01*
X60722Y54483D01*
X60757Y54450D01*
X60804Y54423D01*
X60860Y54400D01*
X60926Y54383D01*
X61003Y54370D01*
X61090Y54363D01*
X61188Y54360D01*
Y53860D01*
X61090Y53858D01*
X61003Y53850D01*
X60926Y53838D01*
X60860Y53820D01*
X60804Y53798D01*
X60757Y53770D01*
X60722Y53738D01*
X60696Y53700D01*
X60681Y53658D01*
X60676Y53610D01*
Y54610D01*
X60681Y54563D01*
D02*
G37*
G36*
X27000Y57000D02*
X27000Y53500D01*
X14281D01*
Y57500D01*
X26500D01*
X27000Y57000D01*
D02*
G37*
G36*
X42482Y57038D02*
X42390Y56946D01*
X42225Y56698D01*
X42166Y56405D01*
Y53500D01*
X34000D01*
X34000Y57000D01*
X34500Y57500D01*
X36000Y57500D01*
X42291D01*
X42482Y57038D01*
D02*
G37*
G36*
X51020Y53293D02*
X50982Y53320D01*
X50937Y53333D01*
X50884Y53332D01*
X50824Y53316D01*
X50757Y53287D01*
X50683Y53243D01*
X50601Y53185D01*
X50512Y53114D01*
X50312Y52927D01*
X49959Y53281D01*
X50059Y53385D01*
X50217Y53570D01*
X50275Y53651D01*
X50318Y53726D01*
X50348Y53793D01*
X50363Y53853D01*
X50365Y53905D01*
X50352Y53950D01*
X50324Y53988D01*
X51020Y53293D01*
D02*
G37*
G36*
X30000Y66500D02*
X30000Y57241D01*
X29813Y57116D01*
X29603Y56801D01*
X29529Y56429D01*
Y54185D01*
X29603Y53813D01*
X29646Y53748D01*
X29379Y53248D01*
X27978D01*
X27902Y53292D01*
X27541Y53748D01*
X27541Y57000D01*
X27541Y57000D01*
X27383Y57383D01*
X27383Y57383D01*
X26883Y57883D01*
X26500Y58041D01*
X26500Y58041D01*
X24959D01*
X24000Y59000D01*
X24000Y66500D01*
X25000Y67500D01*
X29000Y67500D01*
X30000Y66500D01*
D02*
G37*
G36*
X45125Y53323D02*
X44980Y53301D01*
X44516Y53200D01*
X44429Y53172D01*
X44354Y53142D01*
X44291Y53112D01*
X44240Y53080D01*
X44200Y53047D01*
X43846Y53400D01*
X43880Y53440D01*
X43912Y53491D01*
X43942Y53554D01*
X43972Y53629D01*
X44000Y53716D01*
X44053Y53924D01*
X44101Y54180D01*
X44123Y54325D01*
X45125Y53323D01*
D02*
G37*
G36*
X30901Y56524D02*
X30930Y56376D01*
Y54238D01*
X30873Y53950D01*
X30836Y53905D01*
X30849Y53773D01*
X30823Y53642D01*
X30869Y53574D01*
X30877Y53493D01*
X31144Y52993D01*
X31207Y52941D01*
X31238Y52865D01*
X31361Y52815D01*
X31464Y52730D01*
X31545Y52738D01*
X31621Y52707D01*
X33022D01*
X33146Y52758D01*
X33160Y52754D01*
X33178Y52764D01*
X33292Y52779D01*
X33368Y52823D01*
X33399Y52863D01*
X33405Y52865D01*
X33409Y52877D01*
X33431Y52905D01*
X33522Y52956D01*
X33642Y53107D01*
X34000Y52959D01*
X42166D01*
Y49346D01*
X41945Y49164D01*
X41223D01*
X40999Y49499D01*
X40541Y49805D01*
X40000Y49913D01*
X39459Y49805D01*
X39001Y49499D01*
X38695Y49041D01*
X38587Y48500D01*
X38695Y47959D01*
X39001Y47501D01*
X39305Y47298D01*
Y46524D01*
X39362Y46236D01*
X39524Y45993D01*
X39768Y45830D01*
X40055Y45773D01*
X41596D01*
X41739Y45500D01*
X41632Y45296D01*
X41543Y45227D01*
X40055D01*
X39768Y45170D01*
X39524Y45007D01*
X39362Y44764D01*
X39306Y44484D01*
X39298Y44484D01*
X39239Y44458D01*
X35460D01*
X35408Y44480D01*
Y44815D01*
X35335Y45187D01*
X35124Y45502D01*
X34809Y45713D01*
X34437Y45786D01*
X34065Y45713D01*
X33750Y45502D01*
X33540Y45187D01*
X33466Y44815D01*
Y42571D01*
X33494Y42430D01*
X33481Y42399D01*
X33482Y42396D01*
X33374Y42130D01*
X33247Y41971D01*
X33194Y41930D01*
X33127Y41896D01*
X32524D01*
X31717Y42703D01*
X31693Y42764D01*
X31613Y42848D01*
X31553Y42916D01*
X31507Y42973D01*
X31476Y43019D01*
X31471Y43026D01*
Y44815D01*
X31398Y45187D01*
X31187Y45502D01*
X30872Y45713D01*
X30500Y45786D01*
X30128Y45713D01*
X29813Y45502D01*
X29603Y45187D01*
X29529Y44815D01*
Y42571D01*
X29603Y42199D01*
X29813Y41884D01*
X30128Y41673D01*
X30283Y41643D01*
X30284Y41641D01*
X30291Y41641D01*
X30500Y41600D01*
X30578Y41615D01*
X30594Y41612D01*
X30660Y41557D01*
X30744Y41476D01*
X30806Y41451D01*
X31667Y40590D01*
X31915Y40425D01*
X32207Y40366D01*
X33931D01*
X34224Y40425D01*
X34472Y40590D01*
X34978Y41096D01*
X35144Y41344D01*
X35202Y41637D01*
Y41637D01*
X35228Y41698D01*
X35229Y41767D01*
X35240Y41893D01*
X35246Y41935D01*
X35255Y41976D01*
X35264Y42012D01*
X35274Y42041D01*
X35284Y42065D01*
X35294Y42084D01*
X35314Y42117D01*
X35325Y42184D01*
X35335Y42199D01*
X35357Y42310D01*
X35393Y42399D01*
X35380Y42430D01*
X35408Y42571D01*
Y42906D01*
X35460Y42928D01*
X39239D01*
X39298Y42902D01*
X39305Y42902D01*
Y42587D01*
X39362Y42299D01*
X39524Y42056D01*
X39768Y41893D01*
X40055Y41836D01*
X40177D01*
X40178Y41830D01*
X40204Y41771D01*
Y41261D01*
X40178Y41201D01*
X40177Y41195D01*
X40024D01*
X39736Y41138D01*
X39493Y40976D01*
X39330Y40732D01*
X39273Y40445D01*
Y38555D01*
X39301Y38412D01*
X39072Y38015D01*
X38966Y37912D01*
X31169D01*
X30727Y38255D01*
Y40145D01*
X30670Y40432D01*
X30507Y40676D01*
X30264Y40838D01*
X29976Y40896D01*
X28494D01*
X28457Y40901D01*
X28449Y40896D01*
X28265D01*
X28239Y40914D01*
X27919Y41188D01*
X27729Y41372D01*
X27677Y41393D01*
X27532Y41538D01*
Y42557D01*
X27534Y42571D01*
Y44815D01*
X27461Y45187D01*
X27250Y45502D01*
X26935Y45713D01*
X26563Y45786D01*
X26191Y45713D01*
X25876Y45502D01*
X25666Y45187D01*
X25592Y44815D01*
Y42571D01*
X25594Y42557D01*
Y42249D01*
X25572Y42200D01*
X25567Y42043D01*
X25552Y41912D01*
X25528Y41787D01*
X25495Y41668D01*
X25473Y41606D01*
X25200Y41217D01*
X25149Y41195D01*
X25072D01*
X25057Y41197D01*
X25054Y41195D01*
X24024D01*
X23736Y41138D01*
X23493Y40976D01*
X23330Y40732D01*
X23273Y40445D01*
Y38555D01*
X23330Y38268D01*
X23493Y38024D01*
X23736Y37862D01*
X24024Y37804D01*
X25913D01*
X26201Y37862D01*
X26444Y38024D01*
X26607Y38268D01*
X26664Y38555D01*
X26878Y38760D01*
X27164Y38834D01*
X27336Y38645D01*
Y38255D01*
X27393Y37968D01*
X27556Y37724D01*
X27557Y37139D01*
X27122Y36704D01*
X26917Y36715D01*
X26579Y36800D01*
X26526Y36852D01*
X26444Y36976D01*
X26201Y37138D01*
X25913Y37196D01*
X24024D01*
X23736Y37138D01*
X23493Y36976D01*
X23330Y36732D01*
X23273Y36445D01*
Y35963D01*
X23201Y35880D01*
X22773Y35761D01*
X22741Y35813D01*
X22727Y35836D01*
Y36445D01*
X22670Y36732D01*
X22507Y36976D01*
X22264Y37138D01*
X21976Y37196D01*
X20087D01*
X19799Y37138D01*
X19556Y36976D01*
X19393Y36732D01*
X19336Y36445D01*
Y34555D01*
X19393Y34268D01*
X19472Y34150D01*
X19458Y34113D01*
X19259Y34020D01*
X18888Y34019D01*
X18867Y34038D01*
X18828Y34078D01*
X18797Y34114D01*
X18773Y34148D01*
X18755Y34177D01*
X18742Y34204D01*
X18733Y34228D01*
X18728Y34251D01*
X18724Y34274D01*
X18722Y34325D01*
X18701Y34370D01*
Y34850D01*
X18696Y34876D01*
Y36476D01*
X18638Y36764D01*
X18476Y37007D01*
X18232Y37170D01*
X17945Y37227D01*
X16055D01*
X15768Y37170D01*
X15524Y37007D01*
X15362Y36764D01*
X15304Y36476D01*
Y34587D01*
X15362Y34299D01*
X15524Y34056D01*
X15768Y33893D01*
X16055Y33836D01*
X16370D01*
X16642Y33433D01*
X16646Y33424D01*
X16648Y33252D01*
X16654Y33237D01*
X16587Y32900D01*
X16695Y32359D01*
X16907Y32041D01*
X16726Y31587D01*
X16686Y31541D01*
X14281D01*
Y52959D01*
X27000D01*
X27129Y53012D01*
X27595Y52865D01*
X27601Y52863D01*
X27632Y52823D01*
X27708Y52779D01*
X27821Y52764D01*
X27840Y52754D01*
X27854Y52758D01*
X27978Y52707D01*
X29379D01*
X29454Y52738D01*
X29536Y52730D01*
X29639Y52815D01*
X29762Y52865D01*
X29793Y52941D01*
X29856Y52993D01*
X30123Y53493D01*
X30131Y53574D01*
X30177Y53642D01*
X30151Y53773D01*
X30164Y53905D01*
X30127Y53950D01*
X30070Y54238D01*
Y56376D01*
X30099Y56524D01*
X30500Y56722D01*
X30901Y56524D01*
D02*
G37*
G36*
X72400Y54338D02*
X72393Y54227D01*
X72409Y54107D01*
X72447Y53979D01*
X72507Y53842D01*
X72591Y53696D01*
X72696Y53542D01*
X72825Y53379D01*
X72976Y53207D01*
X73149Y53026D01*
X72649Y52113D01*
X72513Y52247D01*
X71919Y52773D01*
X71857Y52814D01*
X71806Y52841D01*
X71765Y52855D01*
X72430Y54440D01*
X72400Y54338D01*
D02*
G37*
G36*
X49125Y51740D02*
X49031Y51643D01*
X48881Y51465D01*
X48826Y51386D01*
X48783Y51312D01*
X48752Y51244D01*
X48735Y51183D01*
X48730Y51127D01*
X48739Y51077D01*
X48759Y51033D01*
X48204Y51867D01*
X48235Y51834D01*
X48275Y51816D01*
X48324Y51813D01*
X48381Y51825D01*
X48446Y51853D01*
X48519Y51896D01*
X48601Y51954D01*
X48692Y52028D01*
X48899Y52220D01*
X49125Y51740D01*
D02*
G37*
G36*
X68508Y52148D02*
X68509Y51958D01*
X68542Y51416D01*
X68559Y51347D01*
X68581Y51276D01*
X68607Y51209D01*
X68638Y51145D01*
X68673Y51085D01*
X68711Y51028D01*
X67295Y51036D01*
X67335Y51094D01*
X67371Y51155D01*
X67375Y51162D01*
X67008Y51176D01*
X67103Y51182D01*
X67188Y51210D01*
X67263Y51259D01*
X67328Y51328D01*
X67383Y51419D01*
X67428Y51531D01*
X67463Y51664D01*
X67488Y51817D01*
X67503Y51992D01*
X67508Y52188D01*
X68508Y52148D01*
D02*
G37*
G36*
X74487Y51696D02*
X74856Y51382D01*
X75019Y51268D01*
X75168Y51182D01*
X75302Y51124D01*
X75422Y51094D01*
X75527Y51093D01*
X75618Y51120D01*
X75695Y51176D01*
X75369Y50849D01*
X75405Y50826D01*
X75474Y50788D01*
X75544Y50756D01*
X75615Y50729D01*
X75688Y50708D01*
X75763Y50692D01*
X75839Y50681D01*
X74879Y49640D01*
X74865Y49700D01*
X74846Y49760D01*
X74821Y49821D01*
X74791Y49883D01*
X74755Y49946D01*
X74714Y50009D01*
X74667Y50073D01*
X74633Y50113D01*
X74293Y49773D01*
X74348Y49850D01*
X74375Y49941D01*
X74374Y50047D01*
X74345Y50166D01*
X74287Y50301D01*
X74201Y50449D01*
X74086Y50612D01*
X73944Y50790D01*
X73574Y51188D01*
X74281Y51895D01*
X74487Y51696D01*
D02*
G37*
G36*
X46864Y49542D02*
X46817Y49546D01*
X46774Y49538D01*
X46737Y49518D01*
X46704Y49485D01*
X46677Y49440D01*
X46654Y49382D01*
X46637Y49313D01*
X46624Y49231D01*
X46617Y49136D01*
X46614Y49030D01*
X46114Y49114D01*
X46113Y49210D01*
X46091Y49567D01*
X46083Y49615D01*
X46073Y49654D01*
X46063Y49685D01*
X46051Y49708D01*
X46864Y49542D01*
D02*
G37*
G36*
X40899Y48464D02*
X40993Y47996D01*
X41020Y47909D01*
X41048Y47834D01*
X41078Y47771D01*
X41109Y47719D01*
X41142Y47680D01*
X40779Y47336D01*
X40739Y47369D01*
X40688Y47402D01*
X40625Y47434D01*
X40550Y47464D01*
X40464Y47494D01*
X40258Y47549D01*
X40005Y47601D01*
X39862Y47625D01*
X40879Y48611D01*
X40899Y48464D01*
D02*
G37*
G36*
X48899Y47980D02*
X49000Y47516D01*
X49028Y47429D01*
X49058Y47354D01*
X49088Y47291D01*
X49120Y47240D01*
X49154Y47200D01*
X48800Y46847D01*
X48760Y46880D01*
X48709Y46912D01*
X48646Y46942D01*
X48571Y46972D01*
X48484Y47000D01*
X48276Y47053D01*
X48020Y47101D01*
X47875Y47123D01*
X48877Y48125D01*
X48899Y47980D01*
D02*
G37*
G36*
X60375Y45851D02*
X60271Y45744D01*
X60109Y45555D01*
X60051Y45472D01*
X60008Y45399D01*
X59980Y45333D01*
X59967Y45276D01*
X59969Y45226D01*
X59986Y45186D01*
X60019Y45153D01*
X59207Y45732D01*
X59250Y45710D01*
X59299Y45701D01*
X59355Y45705D01*
X59416Y45722D01*
X59484Y45752D01*
X59557Y45795D01*
X59637Y45851D01*
X59724Y45920D01*
X59914Y46097D01*
X60375Y45851D01*
D02*
G37*
G36*
X58406Y45851D02*
X58303Y45744D01*
X58141Y45555D01*
X58083Y45472D01*
X58039Y45399D01*
X58011Y45333D01*
X57999Y45276D01*
X58001Y45226D01*
X58018Y45186D01*
X58050Y45153D01*
X57239Y45732D01*
X57282Y45710D01*
X57331Y45701D01*
X57386Y45705D01*
X57447Y45722D01*
X57515Y45752D01*
X57589Y45795D01*
X57669Y45851D01*
X57755Y45920D01*
X57946Y46097D01*
X58406Y45851D01*
D02*
G37*
G36*
X49847Y46131D02*
X49866Y45942D01*
X49883Y45865D01*
X49905Y45801D01*
X49932Y45747D01*
X49964Y45706D01*
X50000Y45676D01*
X50042Y45659D01*
X50088Y45653D01*
X49101D01*
X49147Y45659D01*
X49189Y45676D01*
X49225Y45706D01*
X49257Y45747D01*
X49284Y45801D01*
X49306Y45865D01*
X49323Y45942D01*
X49335Y46031D01*
X49342Y46131D01*
X49345Y46244D01*
X49845D01*
X49847Y46131D01*
D02*
G37*
G36*
X55278Y46177D02*
X55617Y45882D01*
X55687Y45831D01*
X55752Y45790D01*
X55811Y45758D01*
X55865Y45735D01*
X55912Y45721D01*
X54924Y45478D01*
X54972Y45496D01*
X55003Y45523D01*
X55020Y45558D01*
X55020Y45602D01*
X55005Y45655D01*
X54975Y45717D01*
X54929Y45787D01*
X54867Y45866D01*
X54790Y45953D01*
X54697Y46050D01*
X55180Y46274D01*
X55278Y46177D01*
D02*
G37*
G36*
X61944Y45618D02*
X61981Y45583D01*
X62024Y45552D01*
X62073Y45525D01*
X62129Y45502D01*
X62191Y45483D01*
X62259Y45469D01*
X62333Y45458D01*
X62413Y45452D01*
X62499Y45450D01*
Y44950D01*
X62398Y44947D01*
X62309Y44940D01*
X62230Y44927D01*
X62162Y44910D01*
X62106Y44888D01*
X62060Y44860D01*
X62025Y44827D01*
X62001Y44790D01*
X61989Y44747D01*
X61987Y44700D01*
X61913Y45658D01*
X61944Y45618D01*
D02*
G37*
G36*
X83335Y58314D02*
Y46747D01*
X81451Y44863D01*
X81392Y44841D01*
X81198Y44660D01*
X81169Y44637D01*
X81145D01*
X81138Y44640D01*
X81126Y44637D01*
X80705D01*
X80394Y44575D01*
X80131Y44399D01*
X79986Y44182D01*
X79720Y44158D01*
X79455Y44182D01*
X79310Y44399D01*
X79046Y44575D01*
X78736Y44637D01*
X78146D01*
X77835Y44575D01*
X77572Y44399D01*
X77397Y44136D01*
X77335Y43826D01*
Y41818D01*
X77345Y41766D01*
X77195Y41541D01*
X77087Y41000D01*
X77195Y40459D01*
X77501Y40001D01*
X77959Y39695D01*
X78500Y39587D01*
X79041Y39695D01*
X79499Y40001D01*
X79805Y40459D01*
X79876Y40814D01*
X80312Y41057D01*
X80394Y41069D01*
X80705Y41007D01*
X80831D01*
X81313Y40872D01*
X81421Y40331D01*
X81727Y39873D01*
X82186Y39566D01*
X82440Y39516D01*
X82605Y38973D01*
X81274Y37642D01*
X81215Y37620D01*
X81029Y37447D01*
X80968Y37398D01*
X80961Y37393D01*
X80894D01*
X80877Y37400D01*
X80860Y37393D01*
X80705D01*
X80394Y37331D01*
X80131Y37155D01*
X79986Y36938D01*
X79720Y36914D01*
X79455Y36938D01*
X79310Y37155D01*
X79046Y37331D01*
X78736Y37393D01*
X78146D01*
X77835Y37331D01*
X77572Y37155D01*
X77397Y36892D01*
X77335Y36582D01*
Y35942D01*
X76835Y35893D01*
X76805Y36041D01*
X76676Y36234D01*
X76653Y36340D01*
X76626Y36380D01*
X76611Y36405D01*
X76597Y36433D01*
X76585Y36465D01*
X76573Y36502D01*
X76562Y36544D01*
X76555Y36583D01*
X76543Y36707D01*
X76541Y36775D01*
X76520Y36824D01*
Y37468D01*
X76442Y37859D01*
X76221Y38190D01*
X74809Y39601D01*
X74981Y40136D01*
X75275Y40195D01*
X75733Y40501D01*
X76040Y40959D01*
X76147Y41500D01*
X76040Y42041D01*
X75733Y42499D01*
X75275Y42805D01*
X75051Y42850D01*
X74954Y42910D01*
X74819Y42932D01*
X74591Y42977D01*
X74417Y43023D01*
X74363Y43041D01*
X74323Y43057D01*
X74305Y43066D01*
X74295Y43074D01*
X74287Y43077D01*
X74275Y43085D01*
X74248Y43089D01*
X74244Y43090D01*
X73894Y43440D01*
X73646Y43606D01*
X73353Y43664D01*
X66647D01*
X66354Y43606D01*
X66106Y43440D01*
X65836Y43170D01*
X65315D01*
X65255Y43197D01*
X65157Y43199D01*
X65087Y43204D01*
X65078Y43205D01*
X65049Y43249D01*
X65035Y43281D01*
X65016Y43290D01*
X64999Y43301D01*
X64984Y43327D01*
X64943Y43338D01*
X64762Y43459D01*
X64450Y43521D01*
X62948D01*
X62900Y43541D01*
X62541D01*
Y43900D01*
X62521Y43948D01*
Y44413D01*
X62572Y44435D01*
X62900D01*
X63193Y44493D01*
X63441Y44659D01*
X64086Y45304D01*
X77650D01*
X77943Y45362D01*
X78191Y45528D01*
X80041Y47378D01*
X80207Y47626D01*
X80265Y47919D01*
Y55802D01*
X82741Y58278D01*
X82835Y58419D01*
X83335Y58314D01*
D02*
G37*
G36*
X81938Y43915D02*
X81846Y43820D01*
X81700Y43647D01*
X81645Y43568D01*
X81603Y43494D01*
X81572Y43426D01*
X81554Y43364D01*
X81548Y43306D01*
X81554Y43254D01*
X81572Y43208D01*
X81077Y44103D01*
X81106Y44067D01*
X81143Y44046D01*
X81190Y44041D01*
X81245Y44052D01*
X81309Y44078D01*
X81382Y44120D01*
X81463Y44178D01*
X81554Y44252D01*
X81761Y44445D01*
X81938Y43915D01*
D02*
G37*
G36*
X39824Y43193D02*
X39819Y43240D01*
X39804Y43283D01*
X39778Y43320D01*
X39742Y43353D01*
X39696Y43380D01*
X39640Y43403D01*
X39574Y43420D01*
X39497Y43433D01*
X39410Y43440D01*
X39312Y43443D01*
Y43943D01*
X39410Y43945D01*
X39497Y43953D01*
X39574Y43965D01*
X39640Y43983D01*
X39696Y44005D01*
X39742Y44033D01*
X39778Y44065D01*
X39804Y44103D01*
X39819Y44145D01*
X39824Y44193D01*
Y43193D01*
D02*
G37*
G36*
X34879Y44145D02*
X34895Y44103D01*
X34920Y44065D01*
X34956Y44033D01*
X35002Y44005D01*
X35059Y43983D01*
X35125Y43965D01*
X35202Y43953D01*
X35289Y43945D01*
X35386Y43943D01*
Y43443D01*
X35289Y43440D01*
X35202Y43433D01*
X35125Y43420D01*
X35059Y43403D01*
X35002Y43380D01*
X34956Y43353D01*
X34920Y43320D01*
X34895Y43283D01*
X34879Y43240D01*
X34874Y43193D01*
Y44193D01*
X34879Y44145D01*
D02*
G37*
G36*
X47552Y43402D02*
X47560Y43315D01*
X47572Y43238D01*
X47590Y43172D01*
X47613Y43115D01*
X47640Y43069D01*
X47673Y43033D01*
X47710Y43008D01*
X47752Y42992D01*
X47800Y42987D01*
X46800D01*
X46848Y42992D01*
X46890Y43008D01*
X46927Y43033D01*
X46960Y43069D01*
X46988Y43115D01*
X47010Y43172D01*
X47028Y43238D01*
X47040Y43315D01*
X47047Y43402D01*
X47050Y43499D01*
X47550D01*
X47552Y43402D01*
D02*
G37*
G36*
X62000Y43500D02*
X61300Y42800D01*
X60800D01*
Y43900D01*
X62000D01*
Y43500D01*
D02*
G37*
G36*
X50200Y42800D02*
X49700D01*
X49000Y43500D01*
Y43900D01*
X50200D01*
Y42800D01*
D02*
G37*
G36*
X60800Y42259D02*
X61039D01*
X61259Y41800D01*
X61402Y41400D01*
X61273Y41314D01*
X61097Y41049D01*
X61096Y41049D01*
X61090Y41018D01*
X61034Y40737D01*
Y40137D01*
X61096Y39825D01*
X61234Y39453D01*
X61096Y39081D01*
X61034Y38769D01*
Y38168D01*
X61096Y37856D01*
X61273Y37592D01*
X61538Y37415D01*
X61850Y37353D01*
X64450D01*
X64531Y37369D01*
X64562Y37356D01*
X64646Y37391D01*
X64668Y37383D01*
X65359Y37427D01*
X65502Y37427D01*
X65603Y37469D01*
X65890Y37527D01*
X66221Y37747D01*
X67133Y38660D01*
X67181Y38677D01*
X67565Y39034D01*
X67713Y39154D01*
X67842Y39244D01*
X67892Y39273D01*
X68175D01*
X68227Y39252D01*
X68269Y39269D01*
X68313Y39259D01*
X68336Y39273D01*
X68945D01*
X69232Y39330D01*
X69476Y39493D01*
X69638Y39736D01*
X69663Y39862D01*
X69693Y39873D01*
X69771Y39893D01*
X69881Y39911D01*
X70000Y39921D01*
X70119Y39911D01*
X70229Y39893D01*
X70307Y39873D01*
X70337Y39862D01*
X70362Y39736D01*
X70524Y39493D01*
X70768Y39330D01*
X71055Y39273D01*
X71645D01*
X71689Y39246D01*
X71732Y39257D01*
X71773Y39240D01*
X71854Y39273D01*
X72102D01*
X72163Y39238D01*
X72285Y39153D01*
X72619Y38870D01*
X72812Y38684D01*
X72862Y38665D01*
X74480Y37046D01*
Y36891D01*
X74309Y36426D01*
X74210Y36384D01*
X73927Y36327D01*
X73596Y36106D01*
X72767Y35277D01*
X72719Y35260D01*
X72335Y34903D01*
X72187Y34783D01*
X72058Y34693D01*
X72008Y34664D01*
X71725D01*
X71673Y34685D01*
X71631Y34668D01*
X71587Y34678D01*
X71564Y34664D01*
X70955D01*
X70668Y34607D01*
X70424Y34444D01*
X70368Y34360D01*
X69840Y34449D01*
X69832Y34491D01*
X69656Y34754D01*
X69393Y34930D01*
X69083Y34992D01*
X67163D01*
X67083Y35072D01*
X66835Y35238D01*
X66542Y35296D01*
X65315D01*
X65255Y35323D01*
X65157Y35325D01*
X65087Y35330D01*
X65078Y35331D01*
X65049Y35375D01*
X65035Y35408D01*
X65016Y35416D01*
X64999Y35427D01*
X64984Y35453D01*
X64943Y35464D01*
X64762Y35585D01*
X64450Y35647D01*
X61850D01*
X61538Y35585D01*
X61273Y35408D01*
X61096Y35144D01*
X61034Y34832D01*
Y34231D01*
X61096Y33919D01*
X61234Y33547D01*
X61096Y33175D01*
X61034Y32863D01*
Y32263D01*
X61096Y31951D01*
X61273Y31686D01*
X61402Y31600D01*
X61402Y31600D01*
X61402Y31600D01*
X61417Y31583D01*
Y31583D01*
X61259Y31200D01*
Y30741D01*
X60800D01*
X60417Y30583D01*
X60417Y30583D01*
X60400Y30598D01*
X60314Y30727D01*
X60049Y30904D01*
X59737Y30966D01*
X59137D01*
X58825Y30904D01*
X58453Y30766D01*
X58081Y30904D01*
X57768Y30966D01*
X57169D01*
X56856Y30904D01*
X56484Y30766D01*
X56112Y30904D01*
X55800Y30966D01*
X55200D01*
X54888Y30904D01*
X54681Y30827D01*
X54301Y31005D01*
X54208Y31530D01*
X54913Y32235D01*
X57524D01*
X57547Y32218D01*
X57564Y32214D01*
X57571Y32211D01*
X57582Y32210D01*
X57599Y32204D01*
X57639Y32187D01*
X57681Y32165D01*
X58043Y31933D01*
X58147Y31856D01*
X58259Y31828D01*
X58459Y31695D01*
X59000Y31587D01*
X59541Y31695D01*
X59999Y32001D01*
X60305Y32459D01*
X60413Y33000D01*
X60305Y33541D01*
X59999Y33999D01*
X59541Y34305D01*
X59000Y34413D01*
X58459Y34305D01*
X58259Y34172D01*
X58147Y34144D01*
X58036Y34063D01*
X57844Y33931D01*
X57689Y33839D01*
X57639Y33813D01*
X57599Y33796D01*
X57582Y33790D01*
X57571Y33789D01*
X57564Y33786D01*
X57547Y33782D01*
X57524Y33765D01*
X54597D01*
X54304Y33707D01*
X54056Y33541D01*
X54056Y33541D01*
X51731Y31216D01*
X51672Y31194D01*
X51496Y31030D01*
X51438Y30984D01*
X51412Y30966D01*
X51263D01*
X51252Y30964D01*
X51244Y30965D01*
X51235Y30960D01*
X51167Y30946D01*
X51166Y30946D01*
X51166Y30946D01*
X50951Y30904D01*
X50686Y30727D01*
X50600Y30598D01*
X50583Y30583D01*
X50583D01*
X50200Y30741D01*
X49741D01*
Y31200D01*
X49583Y31583D01*
X49583Y31583D01*
X49598Y31600D01*
X49727Y31686D01*
X49904Y31951D01*
X49966Y32263D01*
Y32863D01*
X49904Y33175D01*
X49766Y33547D01*
X49904Y33919D01*
X49966Y34231D01*
Y34832D01*
X49904Y35144D01*
X49727Y35408D01*
Y35623D01*
X49904Y35888D01*
X49966Y36200D01*
Y36800D01*
X49904Y37112D01*
X49727Y37377D01*
Y37592D01*
X49904Y37856D01*
X49966Y38168D01*
Y38769D01*
X49904Y39081D01*
X49766Y39453D01*
X49904Y39825D01*
X49966Y40137D01*
Y40737D01*
X49904Y41049D01*
X49727Y41314D01*
X49598Y41400D01*
X49583Y41417D01*
Y41417D01*
X49741Y41800D01*
Y42259D01*
X50200D01*
X50583Y42417D01*
X50583Y42417D01*
X50600Y42402D01*
X50686Y42273D01*
X50951Y42096D01*
X51263Y42034D01*
X51534D01*
X51641Y41874D01*
X53543Y39972D01*
X53379Y39429D01*
X53259Y39405D01*
X52801Y39099D01*
X52495Y38641D01*
X52387Y38100D01*
X52495Y37559D01*
X52801Y37101D01*
X53259Y36795D01*
X53800Y36687D01*
X54341Y36795D01*
X54541Y36928D01*
X54653Y36956D01*
X54764Y37037D01*
X54956Y37169D01*
X55111Y37261D01*
X55161Y37287D01*
X55201Y37304D01*
X55218Y37310D01*
X55229Y37311D01*
X55236Y37315D01*
X55253Y37318D01*
X55276Y37335D01*
X56913D01*
X57206Y37394D01*
X57454Y37559D01*
X58577Y38682D01*
X58742Y38930D01*
X58801Y39222D01*
Y40578D01*
X58742Y40870D01*
X58577Y41118D01*
X58134Y41561D01*
X58228Y42040D01*
X58681Y42192D01*
X58825Y42096D01*
X59137Y42034D01*
X59737D01*
X60049Y42096D01*
X60314Y42273D01*
X60400Y42402D01*
X60417Y42417D01*
X60417D01*
X60800Y42259D01*
D02*
G37*
G36*
X64659Y42853D02*
X64676Y42811D01*
X64706Y42775D01*
X64747Y42743D01*
X64801Y42716D01*
X64865Y42694D01*
X64942Y42677D01*
X65031Y42665D01*
X65131Y42658D01*
X65244Y42656D01*
Y42156D01*
X65131Y42153D01*
X64942Y42134D01*
X64865Y42117D01*
X64801Y42095D01*
X64747Y42068D01*
X64706Y42036D01*
X64676Y42000D01*
X64659Y41958D01*
X64653Y41912D01*
Y42899D01*
X64659Y42853D01*
D02*
G37*
G36*
X83736Y41649D02*
X83733Y41645D01*
X83965Y41551D01*
X83885Y41533D01*
X83807Y41510D01*
X83731Y41484D01*
X83658Y41452D01*
X83631Y41439D01*
X83619Y41388D01*
X83609Y41313D01*
X83602Y41232D01*
X83600Y41143D01*
X83609Y40943D01*
X83293Y41203D01*
X83264Y41176D01*
X82680Y41299D01*
X82782Y41405D01*
X82892Y41533D01*
X82626Y41752D01*
X82736Y41766D01*
X83021Y41823D01*
X83060Y41835D01*
X83061Y41848D01*
X83052Y41890D01*
X83028Y41923D01*
X82987Y41948D01*
X83171Y41873D01*
X83172Y41873D01*
X83236Y41902D01*
X83293Y41933D01*
X83341Y41967D01*
X83382Y42003D01*
X83736Y41649D01*
D02*
G37*
G36*
X30922Y43047D02*
X30918Y42992D01*
X30926Y42933D01*
X30945Y42870D01*
X30976Y42801D01*
X31018Y42728D01*
X31072Y42651D01*
X31137Y42568D01*
X31214Y42481D01*
X31303Y42389D01*
X31120Y41865D01*
X31022Y41959D01*
X30851Y42102D01*
X30778Y42152D01*
X30713Y42186D01*
X30655Y42206D01*
X30606Y42210D01*
X30564Y42200D01*
X30531Y42175D01*
X30506Y42135D01*
X30937Y43096D01*
X30922Y43047D01*
D02*
G37*
G36*
X41421Y42351D02*
X41379Y42335D01*
X41341Y42310D01*
X41309Y42274D01*
X41281Y42228D01*
X41258Y42172D01*
X41241Y42105D01*
X41229Y42028D01*
X41221Y41941D01*
X41219Y41844D01*
X40718D01*
X40716Y41941D01*
X40709Y42028D01*
X40696Y42105D01*
X40679Y42172D01*
X40656Y42228D01*
X40628Y42274D01*
X40596Y42310D01*
X40558Y42335D01*
X40516Y42351D01*
X40468Y42356D01*
X41469D01*
X41421Y42351D01*
D02*
G37*
G36*
X62900Y41800D02*
X61800D01*
Y42300D01*
X62500Y43000D01*
X62900D01*
Y41800D01*
D02*
G37*
G36*
X49200Y42300D02*
Y41800D01*
X48100D01*
Y43000D01*
X48500D01*
X49200Y42300D01*
D02*
G37*
G36*
X34821Y42347D02*
X34793Y42292D01*
X34768Y42233D01*
X34747Y42170D01*
X34728Y42103D01*
X34713Y42031D01*
X34702Y41956D01*
X34689Y41795D01*
X34687Y41708D01*
X34187D01*
X34185Y41795D01*
X34172Y41956D01*
X34161Y42031D01*
X34146Y42103D01*
X34128Y42170D01*
X34106Y42233D01*
X34081Y42292D01*
X34053Y42347D01*
X34022Y42399D01*
X34852D01*
X34821Y42347D01*
D02*
G37*
G36*
X70846Y39973D02*
X70836Y40067D01*
X70805Y40151D01*
X70753Y40226D01*
X70681Y40290D01*
X70588Y40345D01*
X70474Y40389D01*
X70340Y40424D01*
X70185Y40449D01*
X70009Y40464D01*
X70000Y40464D01*
X69991Y40464D01*
X69815Y40449D01*
X69660Y40424D01*
X69526Y40389D01*
X69412Y40345D01*
X69319Y40290D01*
X69247Y40226D01*
X69195Y40151D01*
X69164Y40067D01*
X69154Y39973D01*
Y41964D01*
X69164Y41870D01*
X69195Y41786D01*
X69247Y41711D01*
X69319Y41647D01*
X69412Y41592D01*
X69526Y41548D01*
X69660Y41513D01*
X69815Y41488D01*
X69991Y41473D01*
X70000Y41473D01*
X70009Y41473D01*
X70185Y41488D01*
X70340Y41513D01*
X70474Y41548D01*
X70588Y41592D01*
X70681Y41647D01*
X70753Y41711D01*
X70805Y41786D01*
X70836Y41870D01*
X70846Y41964D01*
Y39973D01*
D02*
G37*
G36*
X73986Y42627D02*
X74038Y42594D01*
X74101Y42563D01*
X74176Y42533D01*
X74262Y42504D01*
X74469Y42449D01*
X74723Y42399D01*
X74867Y42376D01*
X73856Y41383D01*
X73835Y41530D01*
X73738Y41996D01*
X73711Y42083D01*
X73682Y42158D01*
X73652Y42221D01*
X73620Y42272D01*
X73587Y42312D01*
X73946Y42660D01*
X73986Y42627D01*
D02*
G37*
G36*
X41221Y41090D02*
X41229Y41003D01*
X41241Y40926D01*
X41258Y40860D01*
X41281Y40804D01*
X41309Y40758D01*
X41341Y40722D01*
X41379Y40696D01*
X41421Y40681D01*
X41469Y40676D01*
X40468D01*
X40516Y40681D01*
X40558Y40696D01*
X40596Y40722D01*
X40628Y40758D01*
X40656Y40804D01*
X40679Y40860D01*
X40696Y40926D01*
X40709Y41003D01*
X40716Y41090D01*
X40718Y41188D01*
X41219D01*
X41221Y41090D01*
D02*
G37*
G36*
X26563Y41094D02*
X26438Y41043D01*
X26792Y40688D01*
X26642Y40534D01*
X26304Y40150D01*
X26229Y40047D01*
X26174Y39958D01*
X26138Y39882D01*
X26121Y39819D01*
X26123Y39769D01*
X26144Y39732D01*
X25200Y40676D01*
X25237Y40654D01*
X25288Y40652D01*
X25351Y40669D01*
X25427Y40705D01*
X25516Y40761D01*
X25618Y40835D01*
X25698Y40900D01*
X25706Y40910D01*
X25801Y41050D01*
X25884Y41196D01*
X25954Y41347D01*
X26011Y41503D01*
X26056Y41665D01*
X26087Y41831D01*
X26107Y42004D01*
X26113Y42181D01*
X26563Y41094D01*
D02*
G37*
G36*
X46256Y41271D02*
X46445Y41109D01*
X46528Y41051D01*
X46602Y41008D01*
X46667Y40980D01*
X46725Y40967D01*
X46774Y40969D01*
X46815Y40986D01*
X46847Y41019D01*
X46268Y40207D01*
X46290Y40250D01*
X46299Y40299D01*
X46295Y40354D01*
X46278Y40416D01*
X46248Y40484D01*
X46205Y40557D01*
X46149Y40637D01*
X46080Y40723D01*
X45903Y40914D01*
X46149Y41375D01*
X46256Y41271D01*
D02*
G37*
G36*
X68227Y39793D02*
X68150Y39848D01*
X68059Y39875D01*
X67953Y39874D01*
X67834Y39845D01*
X67699Y39787D01*
X67551Y39701D01*
X67388Y39586D01*
X67210Y39444D01*
X66812Y39074D01*
X66105Y39781D01*
X66304Y39987D01*
X66618Y40356D01*
X66732Y40519D01*
X66818Y40668D01*
X66876Y40802D01*
X66906Y40922D01*
X66907Y41027D01*
X66880Y41118D01*
X66824Y41195D01*
X68227Y39793D01*
D02*
G37*
G36*
X55868Y39192D02*
X55750Y39279D01*
X55351Y39535D01*
X55269Y39577D01*
X55195Y39609D01*
X55129Y39632D01*
X55070Y39645D01*
X55019Y39650D01*
Y40150D01*
X55070Y40155D01*
X55129Y40168D01*
X55195Y40191D01*
X55269Y40223D01*
X55351Y40265D01*
X55535Y40375D01*
X55750Y40521D01*
X55868Y40608D01*
Y39192D01*
D02*
G37*
G36*
X73131Y41117D02*
X73103Y41025D01*
Y40919D01*
X73131Y40799D01*
X73188Y40665D01*
X73272Y40516D01*
X73386Y40354D01*
X73527Y40177D01*
X73895Y39781D01*
X73188Y39074D01*
X72983Y39272D01*
X72615Y39583D01*
X72452Y39696D01*
X72304Y39781D01*
X72169Y39838D01*
X72049Y39866D01*
X71943D01*
X71851Y39838D01*
X71773Y39781D01*
X73188Y41195D01*
X73131Y41117D01*
D02*
G37*
G36*
X27554Y40788D02*
X27905Y40487D01*
X28055Y40381D01*
X28187Y40306D01*
X28301Y40260D01*
X28398Y40244D01*
X28478Y40258D01*
X28540Y40302D01*
X28585Y40376D01*
X27856Y38583D01*
X27882Y38676D01*
X27888Y38776D01*
X27873Y38884D01*
X27839Y39000D01*
X27784Y39123D01*
X27709Y39255D01*
X27614Y39393D01*
X27499Y39540D01*
X27363Y39694D01*
X27207Y39856D01*
X27353Y40984D01*
X27554Y40788D01*
D02*
G37*
G36*
X46256Y39303D02*
X46445Y39141D01*
X46528Y39083D01*
X46602Y39039D01*
X46667Y39011D01*
X46725Y38998D01*
X46774Y39001D01*
X46815Y39018D01*
X46847Y39050D01*
X46268Y38239D01*
X46290Y38282D01*
X46299Y38331D01*
X46295Y38386D01*
X46278Y38447D01*
X46248Y38515D01*
X46205Y38589D01*
X46149Y38669D01*
X46080Y38755D01*
X45903Y38946D01*
X46149Y39406D01*
X46256Y39303D01*
D02*
G37*
G36*
X64591Y39026D02*
X64634Y39014D01*
X64692Y39003D01*
X64764Y38994D01*
X65067Y38975D01*
X65500Y38969D01*
Y37969D01*
X65341Y37968D01*
X64634Y37923D01*
X64591Y37911D01*
X64562Y37897D01*
Y39040D01*
X64591Y39026D01*
D02*
G37*
G36*
X54450Y38721D02*
X54849Y38465D01*
X54931Y38423D01*
X55005Y38391D01*
X55071Y38368D01*
X55130Y38355D01*
X55181Y38350D01*
Y37850D01*
X55130Y37845D01*
X55071Y37832D01*
X55005Y37809D01*
X54931Y37777D01*
X54849Y37735D01*
X54665Y37625D01*
X54450Y37479D01*
X54332Y37392D01*
Y38808D01*
X54450Y38721D01*
D02*
G37*
G36*
X81938Y36871D02*
X81837Y36767D01*
X81679Y36582D01*
X81622Y36500D01*
X81578Y36426D01*
X81549Y36359D01*
X81533Y36299D01*
X81532Y36246D01*
X81545Y36201D01*
X81572Y36164D01*
X80877Y36859D01*
X80915Y36832D01*
X80960Y36819D01*
X81012Y36820D01*
X81072Y36835D01*
X81139Y36865D01*
X81213Y36908D01*
X81295Y36966D01*
X81384Y37038D01*
X81584Y37224D01*
X81938Y36871D01*
D02*
G37*
G36*
X46256Y37334D02*
X46445Y37172D01*
X46528Y37114D01*
X46602Y37071D01*
X46667Y37043D01*
X46725Y37030D01*
X46774Y37032D01*
X46815Y37049D01*
X46847Y37082D01*
X46268Y36270D01*
X46290Y36313D01*
X46299Y36362D01*
X46295Y36417D01*
X46278Y36479D01*
X46248Y36547D01*
X46205Y36620D01*
X46149Y36700D01*
X46080Y36786D01*
X45903Y36977D01*
X46149Y37438D01*
X46256Y37334D01*
D02*
G37*
G36*
X76002Y36674D02*
X76019Y36507D01*
X76033Y36428D01*
X76052Y36353D01*
X76075Y36282D01*
X76102Y36214D01*
X76133Y36150D01*
X76169Y36089D01*
X76208Y36032D01*
X74792D01*
X74831Y36089D01*
X74867Y36150D01*
X74898Y36214D01*
X74925Y36282D01*
X74948Y36353D01*
X74967Y36428D01*
X74981Y36507D01*
X74992Y36588D01*
X74998Y36674D01*
X75000Y36763D01*
X76000D01*
X76002Y36674D01*
D02*
G37*
G36*
X27707Y35854D02*
X27643Y35783D01*
X27594Y35712D01*
X27559Y35641D01*
X27537Y35571D01*
X27530Y35500D01*
X27537Y35429D01*
X27559Y35359D01*
X27594Y35288D01*
X27643Y35217D01*
X27707Y35146D01*
X27250Y34896D01*
X27178Y34964D01*
X27103Y35024D01*
X27025Y35077D01*
X26944Y35123D01*
X26860Y35162D01*
X26773Y35193D01*
X26683Y35218D01*
X26591Y35236D01*
X26518Y35244D01*
X26472Y35240D01*
X26395Y35228D01*
X26328Y35210D01*
X26272Y35188D01*
X26226Y35160D01*
X26190Y35127D01*
X26165Y35090D01*
X26149Y35048D01*
X26144Y35000D01*
Y36000D01*
X26149Y35952D01*
X26165Y35910D01*
X26190Y35873D01*
X26226Y35840D01*
X26272Y35813D01*
X26328Y35790D01*
X26395Y35772D01*
X26472Y35760D01*
X26518Y35756D01*
X26591Y35764D01*
X26683Y35782D01*
X26773Y35807D01*
X26860Y35838D01*
X26944Y35877D01*
X27025Y35923D01*
X27103Y35976D01*
X27178Y36036D01*
X27250Y36104D01*
X27707Y35854D01*
D02*
G37*
G36*
X74847Y34902D02*
X74331Y34885D01*
X74317Y35885D01*
X74390Y35885D01*
X74708Y35905D01*
X74715Y35910D01*
X74847Y34902D01*
D02*
G37*
G36*
X46246Y35364D02*
X46436Y35202D01*
X46518Y35144D01*
X46591Y35100D01*
X46657Y35073D01*
X46714Y35060D01*
X46763Y35063D01*
X46803Y35080D01*
X46835Y35113D01*
X46268Y34290D01*
X46290Y34333D01*
X46298Y34383D01*
X46294Y34438D01*
X46277Y34500D01*
X46247Y34567D01*
X46204Y34641D01*
X46148Y34721D01*
X46079Y34807D01*
X45903Y34997D01*
X46139Y35467D01*
X46246Y35364D01*
D02*
G37*
G36*
X78394Y34273D02*
X78362Y34311D01*
X78322Y34332D01*
X78273Y34339D01*
X78216Y34330D01*
X78152Y34305D01*
X78079Y34265D01*
X77997Y34209D01*
X77908Y34138D01*
X77810Y34051D01*
X77714Y33959D01*
X77625Y33866D01*
X77467Y33681D01*
X77409Y33599D01*
X77365Y33525D01*
X77336Y33458D01*
X77321Y33398D01*
X77320Y33346D01*
X77332Y33301D01*
X77359Y33263D01*
X76664Y33958D01*
X76702Y33931D01*
X76747Y33918D01*
X76800Y33919D01*
X76859Y33934D01*
X76927Y33964D01*
X77001Y34008D01*
X77083Y34065D01*
X77172Y34137D01*
X77372Y34323D01*
X77677Y34018D01*
X77503Y34455D01*
X77593Y34549D01*
X77736Y34721D01*
X77789Y34799D01*
X77829Y34873D01*
X77857Y34941D01*
X77873Y35004D01*
X77876Y35062D01*
X77867Y35115D01*
X77845Y35162D01*
X78394Y34273D01*
D02*
G37*
G36*
X73795Y34156D02*
X73595Y33950D01*
X73282Y33581D01*
X73168Y33418D01*
X73082Y33269D01*
X73024Y33135D01*
X72994Y33015D01*
X72993Y32910D01*
X73020Y32819D01*
X73076Y32742D01*
X71673Y34144D01*
X71750Y34089D01*
X71841Y34062D01*
X71947Y34063D01*
X72066Y34092D01*
X72201Y34150D01*
X72349Y34236D01*
X72512Y34350D01*
X72690Y34493D01*
X73088Y34863D01*
X73795Y34156D01*
D02*
G37*
G36*
X64659Y34979D02*
X64676Y34937D01*
X64706Y34901D01*
X64747Y34869D01*
X64801Y34842D01*
X64865Y34820D01*
X64942Y34803D01*
X65031Y34791D01*
X65131Y34784D01*
X65244Y34782D01*
Y34282D01*
X65131Y34279D01*
X64942Y34260D01*
X64865Y34243D01*
X64801Y34221D01*
X64747Y34194D01*
X64706Y34162D01*
X64676Y34126D01*
X64659Y34084D01*
X64653Y34038D01*
Y35025D01*
X64659Y34979D01*
D02*
G37*
G36*
X22152Y35650D02*
X22125Y35559D01*
X22126Y35453D01*
X22155Y35333D01*
X22213Y35199D01*
X22299Y35051D01*
X22413Y34888D01*
X22556Y34710D01*
X22926Y34312D01*
X22219Y33605D01*
X22013Y33805D01*
X21644Y34118D01*
X21481Y34232D01*
X21332Y34318D01*
X21198Y34376D01*
X21078Y34406D01*
X20973Y34407D01*
X20882Y34380D01*
X20805Y34324D01*
X22207Y35727D01*
X22152Y35650D01*
D02*
G37*
G36*
X84109Y34436D02*
X84099Y34390D01*
X84089Y34326D01*
X84074Y34143D01*
X84059Y33561D01*
X84059Y33370D01*
X83060D01*
X83059Y33561D01*
X83009Y34436D01*
X82997Y34464D01*
X84121D01*
X84109Y34436D01*
D02*
G37*
G36*
X18129Y34411D02*
X18140Y34390D01*
X18149Y34350D01*
X18157Y34298D01*
X18181Y34299D01*
X18185Y34220D01*
X18197Y34143D01*
X18216Y34068D01*
X18243Y33994D01*
X18278Y33921D01*
X18320Y33850D01*
X18371Y33780D01*
X18428Y33712D01*
X18494Y33645D01*
X18568Y33580D01*
X17189Y33256D01*
X17187Y33482D01*
X17181Y33481D01*
X17177Y33650D01*
X17149Y33934D01*
X17123Y34049D01*
X17090Y34146D01*
X17051Y34224D01*
X17003Y34284D01*
X16949Y34326D01*
X16887Y34350D01*
X16818Y34356D01*
X18116Y34415D01*
X18129Y34411D01*
D02*
G37*
G36*
X45484Y34687D02*
X45506Y34628D01*
X45669Y34453D01*
X45714Y34396D01*
X45734Y34368D01*
Y34231D01*
X45739Y34206D01*
X45736Y34191D01*
X45745Y34177D01*
X45756Y34121D01*
X45756Y34115D01*
X45758Y34113D01*
X45796Y33919D01*
X45934Y33547D01*
X45796Y33175D01*
X45754Y32960D01*
X45753Y32960D01*
X45753Y32959D01*
X45740Y32891D01*
X45735Y32882D01*
X45737Y32874D01*
X45734Y32863D01*
Y32714D01*
X45720Y32693D01*
X45596Y32547D01*
X45513Y32462D01*
X45489Y32400D01*
X45085Y31996D01*
X44976Y32007D01*
X44732Y32170D01*
X44445Y32227D01*
X42555D01*
X42268Y32170D01*
X42024Y32007D01*
X41862Y31764D01*
X41805Y31476D01*
Y31291D01*
X41798Y31291D01*
X41739Y31265D01*
X41261D01*
X41201Y31291D01*
X41195Y31291D01*
Y31476D01*
X41138Y31764D01*
X40976Y32007D01*
X40732Y32170D01*
X40445Y32227D01*
X38555D01*
X38268Y32170D01*
X38024Y32007D01*
X37862Y31764D01*
X37804Y31476D01*
Y29587D01*
X37862Y29299D01*
X38024Y29056D01*
X38268Y28893D01*
X38555Y28836D01*
X40445D01*
X40732Y28893D01*
X40976Y29056D01*
X41138Y29299D01*
X41195Y29587D01*
Y29709D01*
X41201Y29709D01*
X41261Y29735D01*
X41739D01*
X41798Y29709D01*
X41805Y29709D01*
Y29587D01*
X41862Y29299D01*
X42024Y29056D01*
X42268Y28893D01*
X42555Y28836D01*
X42689D01*
X42689Y28830D01*
X42715Y28771D01*
Y26761D01*
X42689Y26702D01*
X42689Y26695D01*
X42524D01*
X42236Y26638D01*
X41993Y26476D01*
X41830Y26232D01*
X41773Y25945D01*
Y24055D01*
X41830Y23768D01*
X41993Y23524D01*
X42236Y23362D01*
X42524Y23304D01*
X44413D01*
X44701Y23362D01*
X44944Y23524D01*
X45107Y23768D01*
X45164Y24055D01*
Y24209D01*
X45170Y24209D01*
X45229Y24235D01*
X47447D01*
X47547Y24111D01*
X47680Y23761D01*
X46365Y22446D01*
X46303Y22422D01*
X46279Y22398D01*
X46212Y22443D01*
X45748Y22535D01*
X44370D01*
X43906Y22443D01*
X43513Y22180D01*
X43250Y21787D01*
X43158Y21323D01*
Y19158D01*
X43224Y18824D01*
X42942Y18324D01*
X42058D01*
X41776Y18824D01*
X41842Y19158D01*
Y21323D01*
X41750Y21787D01*
X41487Y22180D01*
X41094Y22443D01*
X40630Y22535D01*
X39365D01*
X39354Y22543D01*
X39220Y22655D01*
X39142Y22730D01*
X39080Y22754D01*
X38265Y23570D01*
Y25256D01*
X38265Y25256D01*
X38206Y25548D01*
X38041Y25797D01*
X38041Y25797D01*
X37573Y26265D01*
X37548Y26326D01*
X37471Y26407D01*
X37414Y26472D01*
X37371Y26526D01*
X37344Y26565D01*
Y28640D01*
X37244Y29143D01*
X36959Y29569D01*
X36913Y29601D01*
X36863Y30098D01*
X36883Y30117D01*
X37041Y30500D01*
X37041Y30500D01*
X37041Y31776D01*
X38024Y32759D01*
X40800D01*
X40800Y32759D01*
X41183Y32917D01*
X41883Y33617D01*
X42041Y34000D01*
X42041Y34000D01*
Y36000D01*
X42424Y36383D01*
X43789D01*
X45484Y34687D01*
D02*
G37*
G36*
X58468Y32292D02*
X58350Y32379D01*
X57951Y32635D01*
X57869Y32677D01*
X57796Y32709D01*
X57729Y32732D01*
X57670Y32745D01*
X57619Y32750D01*
Y33250D01*
X57670Y33255D01*
X57729Y33268D01*
X57796Y33291D01*
X57869Y33323D01*
X57951Y33365D01*
X58135Y33475D01*
X58350Y33621D01*
X58468Y33708D01*
Y32292D01*
D02*
G37*
G36*
X26368Y32192D02*
X26311Y32231D01*
X26250Y32267D01*
X26186Y32298D01*
X26118Y32325D01*
X26047Y32348D01*
X25972Y32367D01*
X25894Y32381D01*
X25812Y32392D01*
X25726Y32398D01*
X25637Y32400D01*
Y33400D01*
X25726Y33402D01*
X25894Y33419D01*
X25972Y33433D01*
X26047Y33452D01*
X26118Y33475D01*
X26186Y33502D01*
X26250Y33533D01*
X26311Y33569D01*
X26368Y33608D01*
Y32192D01*
D02*
G37*
G36*
X64702Y32956D02*
X64716Y32926D01*
X64740Y32900D01*
X64774Y32877D01*
X64817Y32857D01*
X64870Y32841D01*
X64932Y32829D01*
X65004Y32820D01*
X65086Y32815D01*
X65177Y32813D01*
Y32313D01*
X65086Y32311D01*
X64932Y32297D01*
X64870Y32285D01*
X64817Y32269D01*
X64774Y32249D01*
X64740Y32226D01*
X64716Y32200D01*
X64702Y32170D01*
X64697Y32136D01*
Y32990D01*
X64702Y32956D01*
D02*
G37*
G36*
X46847Y31981D02*
X46815Y32014D01*
X46774Y32031D01*
X46725Y32033D01*
X46667Y32020D01*
X46602Y31992D01*
X46528Y31949D01*
X46445Y31891D01*
X46355Y31817D01*
X46149Y31625D01*
X45903Y32086D01*
X45998Y32184D01*
X46149Y32363D01*
X46205Y32443D01*
X46248Y32516D01*
X46278Y32584D01*
X46295Y32645D01*
X46299Y32701D01*
X46290Y32750D01*
X46268Y32793D01*
X46847Y31981D01*
D02*
G37*
G36*
X21796Y32955D02*
X21927Y32516D01*
X21961Y32433D01*
X21995Y32360D01*
X22030Y32297D01*
X22066Y32245D01*
X22102Y32204D01*
X21793Y31805D01*
X21755Y31836D01*
X21704Y31865D01*
X21641Y31891D01*
X21565Y31915D01*
X21476Y31938D01*
X21261Y31975D01*
X20994Y32005D01*
X20843Y32016D01*
X21765Y33091D01*
X21796Y32955D01*
D02*
G37*
G36*
X69332Y32790D02*
X69319Y32745D01*
X69321Y32692D01*
X69336Y32633D01*
X69366Y32566D01*
X69409Y32491D01*
X69467Y32410D01*
X69539Y32320D01*
X69725Y32121D01*
X69371Y31767D01*
X69268Y31867D01*
X69083Y32025D01*
X69001Y32083D01*
X68927Y32127D01*
X68859Y32156D01*
X68800Y32171D01*
X68747Y32173D01*
X68702Y32160D01*
X68664Y32133D01*
X69359Y32828D01*
X69332Y32790D01*
D02*
G37*
G36*
X75360Y31633D02*
X75321Y31659D01*
X75275Y31671D01*
X75222Y31669D01*
X75162Y31653D01*
X75095Y31624D01*
X75021Y31580D01*
X74939Y31523D01*
X74851Y31451D01*
X74653Y31267D01*
X74275Y31596D01*
X74376Y31701D01*
X74536Y31888D01*
X74594Y31970D01*
X74638Y32044D01*
X74667Y32111D01*
X74682Y32170D01*
X74682Y32222D01*
X74669Y32267D01*
X74641Y32303D01*
X75360Y31633D01*
D02*
G37*
G36*
X52501Y30551D02*
X52397Y30444D01*
X52235Y30255D01*
X52177Y30172D01*
X52134Y30099D01*
X52106Y30033D01*
X52093Y29976D01*
X52095Y29926D01*
X52112Y29886D01*
X52145Y29853D01*
X51333Y30432D01*
X51376Y30410D01*
X51425Y30401D01*
X51481Y30405D01*
X51542Y30422D01*
X51610Y30452D01*
X51683Y30495D01*
X51763Y30551D01*
X51850Y30620D01*
X52040Y30797D01*
X52501Y30551D01*
D02*
G37*
G36*
X78883Y30352D02*
X78872Y30361D01*
X78844Y30369D01*
X78801Y30376D01*
X78743Y30383D01*
X78473Y30396D01*
X78064Y30400D01*
X78012Y31200D01*
X78170Y31204D01*
X78311Y31216D01*
X78434Y31236D01*
X78541Y31264D01*
X78631Y31300D01*
X78704Y31344D01*
X78759Y31396D01*
X78798Y31456D01*
X78820Y31524D01*
X78824Y31600D01*
X78883Y30352D01*
D02*
G37*
G36*
X71221Y30480D02*
X71226Y30439D01*
X71234Y30402D01*
X71246Y30369D01*
X71262Y30338D01*
X71281Y30311D01*
X71303Y30288D01*
X71329Y30267D01*
X71359Y30250D01*
X71391Y30237D01*
X70577Y30115D01*
X70604Y30138D01*
X70628Y30164D01*
X70649Y30195D01*
X70668Y30230D01*
X70683Y30269D01*
X70696Y30312D01*
X70706Y30359D01*
X70713Y30410D01*
X70718Y30464D01*
X70719Y30523D01*
X71219D01*
X71221Y30480D01*
D02*
G37*
G36*
X62900Y30000D02*
X62500D01*
X61800Y30700D01*
Y31200D01*
X62900D01*
Y30000D01*
D02*
G37*
G36*
X49200Y30700D02*
X48500Y30000D01*
X48100D01*
Y31200D01*
X49200D01*
Y30700D01*
D02*
G37*
G36*
X42324Y30000D02*
X42319Y30048D01*
X42304Y30090D01*
X42278Y30128D01*
X42243Y30160D01*
X42196Y30187D01*
X42140Y30210D01*
X42074Y30228D01*
X41997Y30240D01*
X41910Y30248D01*
X41812Y30250D01*
Y30750D01*
X41910Y30753D01*
X41997Y30760D01*
X42074Y30773D01*
X42140Y30790D01*
X42196Y30812D01*
X42243Y30840D01*
X42278Y30872D01*
X42304Y30910D01*
X42319Y30953D01*
X42324Y31000D01*
Y30000D01*
D02*
G37*
G36*
X40681Y30953D02*
X40696Y30910D01*
X40722Y30872D01*
X40758Y30840D01*
X40804Y30812D01*
X40860Y30790D01*
X40926Y30773D01*
X41003Y30760D01*
X41090Y30753D01*
X41188Y30750D01*
Y30250D01*
X41090Y30248D01*
X41003Y30240D01*
X40926Y30228D01*
X40860Y30210D01*
X40804Y30187D01*
X40758Y30160D01*
X40722Y30128D01*
X40696Y30090D01*
X40681Y30048D01*
X40676Y30000D01*
Y31000D01*
X40681Y30953D01*
D02*
G37*
G36*
X67841Y29843D02*
X67815Y29882D01*
X67785Y29918D01*
X67753Y29949D01*
X67717Y29976D01*
X67679Y29998D01*
X67637Y30017D01*
X67592Y30031D01*
X67545Y30042D01*
X67494Y30048D01*
X67440Y30050D01*
Y30550D01*
X67494Y30552D01*
X67545Y30558D01*
X67592Y30569D01*
X67637Y30583D01*
X67679Y30602D01*
X67717Y30624D01*
X67753Y30651D01*
X67785Y30682D01*
X67815Y30718D01*
X67841Y30757D01*
Y29843D01*
D02*
G37*
G36*
X64703Y30644D02*
X64689Y30600D01*
X64690Y30548D01*
X64705Y30489D01*
X64734Y30422D01*
X64778Y30348D01*
X64836Y30266D01*
X64909Y30176D01*
X65097Y29974D01*
X64717Y29647D01*
X64614Y29746D01*
X64430Y29903D01*
X64349Y29960D01*
X64275Y30003D01*
X64208Y30033D01*
X64148Y30049D01*
X64095Y30051D01*
X64048Y30039D01*
X64009Y30013D01*
X64732Y30681D01*
X64703Y30644D01*
D02*
G37*
G36*
X48052Y30008D02*
X48010Y29992D01*
X47973Y29967D01*
X47940Y29931D01*
X47912Y29885D01*
X47890Y29829D01*
X47872Y29762D01*
X47860Y29685D01*
X47853Y29598D01*
X47850Y29501D01*
X47350D01*
X47348Y29598D01*
X47340Y29685D01*
X47328Y29762D01*
X47310Y29829D01*
X47287Y29885D01*
X47260Y29931D01*
X47227Y29967D01*
X47190Y29992D01*
X47148Y30008D01*
X47100Y30013D01*
X48100D01*
X48052Y30008D01*
D02*
G37*
G36*
X41500Y36000D02*
Y34000D01*
X40800Y33300D01*
X37800D01*
X36500Y32000D01*
X36500Y30500D01*
X35954Y29954D01*
X34451D01*
X33948Y29854D01*
X33521Y29569D01*
X33475Y29500D01*
X30500D01*
X29000Y31000D01*
Y31605D01*
X29076Y31682D01*
X29242Y31930D01*
X29300Y32222D01*
Y33964D01*
X29242Y34257D01*
X29076Y34505D01*
X29000Y34581D01*
Y35500D01*
X29883Y36383D01*
X41117D01*
X41500Y36000D01*
D02*
G37*
G36*
X62000Y29500D02*
Y29100D01*
X60800D01*
Y30200D01*
X61300D01*
X62000Y29500D01*
D02*
G37*
G36*
X50200Y29100D02*
X49000D01*
Y29500D01*
X49700Y30200D01*
X50200D01*
Y29100D01*
D02*
G37*
G36*
X43932Y29351D02*
X43890Y29335D01*
X43852Y29310D01*
X43820Y29274D01*
X43792Y29228D01*
X43770Y29172D01*
X43752Y29105D01*
X43740Y29028D01*
X43732Y28941D01*
X43730Y28844D01*
X43230D01*
X43227Y28941D01*
X43220Y29028D01*
X43207Y29105D01*
X43190Y29172D01*
X43167Y29228D01*
X43140Y29274D01*
X43107Y29310D01*
X43070Y29335D01*
X43027Y29351D01*
X42980Y29356D01*
X43980D01*
X43932Y29351D01*
D02*
G37*
G36*
X81895Y28719D02*
X81695Y28513D01*
X81382Y28144D01*
X81268Y27981D01*
X81182Y27832D01*
X81124Y27698D01*
X81094Y27578D01*
X81093Y27473D01*
X81120Y27382D01*
X81176Y27305D01*
X79773Y28707D01*
X79850Y28652D01*
X79941Y28625D01*
X80047Y28626D01*
X80167Y28655D01*
X80301Y28713D01*
X80449Y28799D01*
X80612Y28914D01*
X80790Y29056D01*
X81188Y29426D01*
X81895Y28719D01*
D02*
G37*
G36*
X47855Y29330D02*
X47868Y29271D01*
X47891Y29204D01*
X47923Y29131D01*
X47965Y29049D01*
X48075Y28865D01*
X48221Y28650D01*
X48308Y28532D01*
X46892D01*
X46979Y28650D01*
X47235Y29049D01*
X47277Y29131D01*
X47309Y29204D01*
X47332Y29271D01*
X47345Y29330D01*
X47350Y29381D01*
X47850D01*
X47855Y29330D01*
D02*
G37*
G36*
X76890Y29013D02*
X76902Y28864D01*
X76921Y28732D01*
X76949Y28617D01*
X76984Y28519D01*
X77027Y28438D01*
X77078Y28374D01*
X77138Y28328D01*
X77204Y28298D01*
X77279Y28286D01*
X75686Y28367D01*
X75762Y28372D01*
X75830Y28393D01*
X75890Y28432D01*
X75942Y28487D01*
X75986Y28560D01*
X76022Y28650D01*
X76050Y28757D01*
X76070Y28881D01*
X76082Y29021D01*
X76086Y29179D01*
X76886D01*
X76890Y29013D01*
D02*
G37*
G36*
X45750Y29245D02*
X45752Y29144D01*
X45767Y28941D01*
X45781Y28840D01*
X45820Y28637D01*
X45845Y28535D01*
X45907Y28332D01*
X45943Y28231D01*
X44583Y28624D01*
X44710Y28721D01*
X45083Y29049D01*
X45143Y29116D01*
X45190Y29177D01*
X45223Y29231D01*
X45243Y29280D01*
X45250Y29323D01*
X45750Y29245D01*
D02*
G37*
G36*
X61992Y28953D02*
X62008Y28910D01*
X62033Y28872D01*
X62069Y28840D01*
X62115Y28813D01*
X62172Y28790D01*
X62238Y28773D01*
X62315Y28760D01*
X62402Y28752D01*
X62499Y28750D01*
Y28250D01*
X62402Y28247D01*
X62315Y28240D01*
X62238Y28227D01*
X62172Y28210D01*
X62115Y28188D01*
X62069Y28160D01*
X62033Y28128D01*
X62008Y28090D01*
X61992Y28047D01*
X61987Y28000D01*
Y29000D01*
X61992Y28953D01*
D02*
G37*
G36*
X79539Y28947D02*
X79557Y28877D01*
X79580Y28809D01*
X79608Y28740D01*
X79642Y28673D01*
X79681Y28606D01*
X79726Y28540D01*
X79776Y28475D01*
X79832Y28410D01*
X79893Y28346D01*
X79173Y27651D01*
X79109Y27713D01*
X78979Y27820D01*
X78913Y27865D01*
X78848Y27906D01*
X78782Y27940D01*
X78716Y27969D01*
X78650Y27993D01*
X78583Y28011D01*
X78517Y28024D01*
X79527Y29017D01*
X79539Y28947D01*
D02*
G37*
G36*
X49760Y27268D02*
X49716Y27273D01*
X49676Y27266D01*
X49640Y27247D01*
X49610Y27215D01*
X49584Y27172D01*
X49563Y27117D01*
X49547Y27049D01*
X49535Y26970D01*
X49528Y26879D01*
X49525Y26775D01*
X49025Y26934D01*
X49023Y27438D01*
X49760Y27268D01*
D02*
G37*
G36*
X59986Y27814D02*
X59969Y27774D01*
X59967Y27724D01*
X59980Y27667D01*
X60008Y27602D01*
X60051Y27528D01*
X60109Y27445D01*
X60183Y27355D01*
X60375Y27149D01*
X59914Y26903D01*
X59816Y26998D01*
X59637Y27149D01*
X59557Y27205D01*
X59484Y27248D01*
X59416Y27278D01*
X59355Y27295D01*
X59299Y27299D01*
X59250Y27290D01*
X59207Y27268D01*
X60019Y27847D01*
X59986Y27814D01*
D02*
G37*
G36*
X58018Y27814D02*
X58001Y27774D01*
X57999Y27724D01*
X58011Y27667D01*
X58039Y27602D01*
X58083Y27528D01*
X58141Y27445D01*
X58214Y27355D01*
X58406Y27149D01*
X57946Y26903D01*
X57847Y26998D01*
X57669Y27149D01*
X57589Y27205D01*
X57515Y27248D01*
X57447Y27278D01*
X57386Y27295D01*
X57331Y27299D01*
X57282Y27290D01*
X57239Y27268D01*
X58050Y27847D01*
X58018Y27814D01*
D02*
G37*
G36*
X53979Y27341D02*
X53937Y27324D01*
X53901Y27294D01*
X53869Y27253D01*
X53842Y27200D01*
X53820Y27134D01*
X53803Y27058D01*
X53791Y26969D01*
X53784Y26869D01*
X53781Y26756D01*
X53281D01*
X53279Y26869D01*
X53260Y27058D01*
X53243Y27134D01*
X53221Y27200D01*
X53194Y27253D01*
X53162Y27294D01*
X53126Y27324D01*
X53084Y27341D01*
X53038Y27347D01*
X54025D01*
X53979Y27341D01*
D02*
G37*
G36*
X55755Y27430D02*
X55768Y27371D01*
X55777Y27347D01*
X55993D01*
X55947Y27341D01*
X55906Y27324D01*
X55869Y27294D01*
X55838Y27253D01*
X55825Y27228D01*
X55865Y27149D01*
X55975Y26965D01*
X56121Y26750D01*
X56208Y26632D01*
X54792D01*
X54879Y26750D01*
X55135Y27149D01*
X55175Y27228D01*
X55162Y27253D01*
X55131Y27294D01*
X55094Y27324D01*
X55053Y27341D01*
X55007Y27347D01*
X55224D01*
X55232Y27371D01*
X55245Y27430D01*
X55250Y27481D01*
X55750D01*
X55755Y27430D01*
D02*
G37*
G36*
X69330Y26671D02*
X69319Y26630D01*
X69317Y26586D01*
X69323Y26540D01*
X69339Y26491D01*
X69364Y26439D01*
X69397Y26384D01*
X69440Y26326D01*
X69491Y26265D01*
X69552Y26202D01*
X68870Y26177D01*
X68789Y26254D01*
X68635Y26381D01*
X68561Y26431D01*
X68489Y26472D01*
X68420Y26504D01*
X68352Y26527D01*
X68287Y26541D01*
X68224Y26546D01*
X68163Y26542D01*
X69349Y26708D01*
X69330Y26671D01*
D02*
G37*
G36*
X43732Y26590D02*
X43740Y26503D01*
X43752Y26426D01*
X43770Y26360D01*
X43792Y26304D01*
X43820Y26258D01*
X43852Y26222D01*
X43890Y26196D01*
X43932Y26181D01*
X43980Y26176D01*
X42980D01*
X43027Y26181D01*
X43070Y26196D01*
X43107Y26222D01*
X43140Y26258D01*
X43167Y26304D01*
X43190Y26360D01*
X43207Y26426D01*
X43220Y26503D01*
X43227Y26590D01*
X43230Y26688D01*
X43730D01*
X43732Y26590D01*
D02*
G37*
G36*
X34120Y25692D02*
X34094Y25733D01*
X34061Y25759D01*
X34021Y25772D01*
X33975Y25771D01*
X33921Y25755D01*
X33860Y25726D01*
X33793Y25683D01*
X33718Y25626D01*
X33637Y25555D01*
X33548Y25470D01*
X33322Y25951D01*
X33408Y26041D01*
X33546Y26206D01*
X33598Y26281D01*
X33638Y26353D01*
X33667Y26419D01*
X33685Y26482D01*
X33691Y26539D01*
X33687Y26592D01*
X33670Y26641D01*
X34120Y25692D01*
D02*
G37*
G36*
X36794Y26592D02*
X36789Y26539D01*
X36795Y26482D01*
X36813Y26419D01*
X36842Y26353D01*
X36883Y26281D01*
X36935Y26206D01*
X36998Y26125D01*
X37072Y26041D01*
X37158Y25951D01*
X36932Y25470D01*
X36844Y25555D01*
X36688Y25683D01*
X36620Y25726D01*
X36559Y25755D01*
X36506Y25771D01*
X36459Y25772D01*
X36419Y25759D01*
X36386Y25733D01*
X36360Y25692D01*
X36810Y26641D01*
X36794Y26592D01*
D02*
G37*
G36*
X57338Y26720D02*
X57484Y26596D01*
X57570Y26513D01*
X57631Y26489D01*
X59295Y24825D01*
X59295Y24825D01*
X59543Y24660D01*
X59836Y24601D01*
X59836Y24601D01*
X62140D01*
X64371Y22371D01*
Y21453D01*
X63630Y20711D01*
X63019Y20774D01*
X62890Y20966D01*
X62312Y21353D01*
X61629Y21489D01*
X55129D01*
X54446Y21353D01*
X54364Y21298D01*
X53808Y21528D01*
X53805Y21541D01*
X53499Y21999D01*
X53041Y22305D01*
X52500Y22413D01*
X51959Y22305D01*
X51501Y21999D01*
X51195Y21541D01*
X51149Y21313D01*
X51091Y21222D01*
X51082Y21174D01*
X51074Y21146D01*
X51064Y21116D01*
X51051Y21084D01*
X51033Y21050D01*
X51011Y21013D01*
X50988Y20980D01*
X50970Y20958D01*
X50817Y20815D01*
X50668Y20696D01*
X50539Y20605D01*
X50514Y20591D01*
X50172D01*
X50155Y20598D01*
X49953Y20695D01*
X49847Y20996D01*
X49850Y21294D01*
X53802Y25247D01*
X54439Y25194D01*
X54501Y25101D01*
X54959Y24795D01*
X55500Y24687D01*
X56041Y24795D01*
X56499Y25101D01*
X56805Y25559D01*
X56913Y26100D01*
X56877Y26283D01*
X56936Y26426D01*
X56936Y26426D01*
X57297Y26734D01*
X57318D01*
X57338Y26720D01*
D02*
G37*
G36*
X44649Y25453D02*
X44665Y25410D01*
X44690Y25372D01*
X44726Y25340D01*
X44772Y25313D01*
X44828Y25290D01*
X44895Y25273D01*
X44972Y25260D01*
X45059Y25253D01*
X45156Y25250D01*
Y24750D01*
X45059Y24747D01*
X44972Y24740D01*
X44895Y24727D01*
X44828Y24710D01*
X44772Y24688D01*
X44726Y24660D01*
X44690Y24627D01*
X44665Y24590D01*
X44649Y24547D01*
X44644Y24500D01*
Y25500D01*
X44649Y25453D01*
D02*
G37*
G36*
X50625Y24623D02*
X50480Y24601D01*
X50016Y24500D01*
X49929Y24472D01*
X49854Y24442D01*
X49791Y24412D01*
X49740Y24380D01*
X49700Y24347D01*
X49347Y24700D01*
X49380Y24740D01*
X49412Y24791D01*
X49442Y24854D01*
X49472Y24929D01*
X49500Y25016D01*
X49553Y25224D01*
X49601Y25480D01*
X49623Y25625D01*
X50625Y24623D01*
D02*
G37*
G36*
X46792Y21438D02*
X46710Y21353D01*
X46577Y21193D01*
X46525Y21117D01*
X46484Y21045D01*
X46452Y20976D01*
X46431Y20910D01*
X46419Y20847D01*
X46418Y20788D01*
X46426Y20731D01*
X46150Y21854D01*
X46168Y21805D01*
X46193Y21771D01*
X46227Y21752D01*
X46268Y21747D01*
X46317Y21758D01*
X46373Y21783D01*
X46438Y21823D01*
X46510Y21878D01*
X46590Y21947D01*
X46678Y22032D01*
X46792Y21438D01*
D02*
G37*
G36*
X38858Y22252D02*
X39026Y22111D01*
X39102Y22059D01*
X39173Y22019D01*
X39238Y21991D01*
X39298Y21975D01*
X39353Y21972D01*
X39403Y21980D01*
X39447Y22001D01*
X38600Y21455D01*
X38635Y21485D01*
X38657Y21522D01*
X38665Y21566D01*
X38659Y21617D01*
X38640Y21674D01*
X38607Y21737D01*
X38561Y21808D01*
X38501Y21885D01*
X38427Y21969D01*
X38340Y22059D01*
X38766Y22340D01*
X38858Y22252D01*
D02*
G37*
G36*
X21960Y30994D02*
X22252Y30935D01*
X22565D01*
X23000Y30500D01*
X23178Y30079D01*
X23187Y30000D01*
X23087Y29500D01*
X23195Y28959D01*
X23435Y28600D01*
X23195Y28241D01*
X23087Y27700D01*
X23195Y27159D01*
X23501Y26701D01*
X23959Y26395D01*
X24500Y26287D01*
X25041Y26395D01*
X25499Y26701D01*
X25805Y27159D01*
X25913Y27700D01*
X25805Y28241D01*
X25565Y28600D01*
X25805Y28959D01*
X25913Y29500D01*
X25814Y30000D01*
X25820Y30064D01*
X26100Y30500D01*
X27578D01*
X27580Y30500D01*
X28735D01*
X29835Y29400D01*
X29901Y29301D01*
X30000Y29235D01*
X30000Y29235D01*
X30000Y24834D01*
X29022Y23857D01*
X28857Y23609D01*
X28798Y23316D01*
Y21411D01*
X28387Y21000D01*
X14281Y21000D01*
Y31000D01*
X21950D01*
X21960Y30994D01*
D02*
G37*
G36*
X35988Y20819D02*
X35945Y20804D01*
X35908Y20778D01*
X35875Y20742D01*
X35848Y20696D01*
X35825Y20640D01*
X35808Y20574D01*
X35795Y20497D01*
X35788Y20410D01*
X35785Y20312D01*
X35285D01*
X35283Y20410D01*
X35275Y20497D01*
X35263Y20574D01*
X35245Y20640D01*
X35223Y20696D01*
X35195Y20742D01*
X35163Y20778D01*
X35125Y20804D01*
X35083Y20819D01*
X35035Y20824D01*
X36035D01*
X35988Y20819D01*
D02*
G37*
G36*
X29041Y20219D02*
X28941Y20116D01*
X28783Y19930D01*
X28725Y19849D01*
X28682Y19774D01*
X28652Y19707D01*
X28637Y19647D01*
X28635Y19595D01*
X28648Y19550D01*
X28676Y19512D01*
X27981Y20207D01*
X28018Y20180D01*
X28063Y20167D01*
X28116Y20168D01*
X28176Y20184D01*
X28243Y20213D01*
X28317Y20257D01*
X28399Y20314D01*
X28488Y20386D01*
X28688Y20573D01*
X29041Y20219D01*
D02*
G37*
G36*
X52625Y20123D02*
X52556Y20110D01*
X52488Y20093D01*
X52421Y20069D01*
X52354Y20040D01*
X52287Y20006D01*
X52221Y19967D01*
X52155Y19921D01*
X52090Y19871D01*
X52067Y19851D01*
X51763Y19493D01*
X51649Y19331D01*
X51563Y19182D01*
X51505Y19048D01*
X51476Y18928D01*
X51474Y18822D01*
X51501Y18731D01*
X51557Y18654D01*
X50155Y20057D01*
X50231Y20001D01*
X50322Y19974D01*
X50428Y19975D01*
X50548Y20005D01*
X50682Y20063D01*
X50831Y20149D01*
X50994Y20263D01*
X51171Y20406D01*
X51366Y20587D01*
X51421Y20655D01*
X51467Y20721D01*
X51506Y20787D01*
X51540Y20854D01*
X51569Y20921D01*
X51593Y20988D01*
X51610Y21056D01*
X51623Y21125D01*
X52625Y20123D01*
D02*
G37*
G36*
X62757Y20154D02*
X62774Y20112D01*
X62804Y20075D01*
X62846Y20043D01*
X62899Y20016D01*
X62964Y19994D01*
X63042Y19977D01*
X63131Y19965D01*
X63232Y19957D01*
X63345Y19955D01*
Y19455D01*
X63232Y19452D01*
X63042Y19433D01*
X62964Y19415D01*
X62899Y19393D01*
X62846Y19366D01*
X62804Y19334D01*
X62774Y19298D01*
X62757Y19256D01*
X62751Y19209D01*
Y20200D01*
X62757Y20154D01*
D02*
G37*
G36*
X35788Y19341D02*
X35795Y19254D01*
X35808Y19177D01*
X35825Y19111D01*
X35848Y19054D01*
X35875Y19008D01*
X35908Y18972D01*
X35945Y18947D01*
X35988Y18931D01*
X36035Y18926D01*
X35035D01*
X35083Y18931D01*
X35125Y18947D01*
X35163Y18972D01*
X35195Y19008D01*
X35223Y19054D01*
X35245Y19111D01*
X35263Y19177D01*
X35275Y19254D01*
X35283Y19341D01*
X35285Y19438D01*
X35785D01*
X35788Y19341D01*
D02*
G37*
G36*
X28264Y17851D02*
X28221Y17835D01*
X28183Y17810D01*
X28151Y17774D01*
X28124Y17728D01*
X28101Y17672D01*
X28084Y17605D01*
X28071Y17528D01*
X28063Y17441D01*
X28061Y17344D01*
X27561D01*
X27558Y17441D01*
X27551Y17528D01*
X27538Y17605D01*
X27521Y17672D01*
X27498Y17728D01*
X27471Y17774D01*
X27439Y17810D01*
X27401Y17835D01*
X27358Y17851D01*
X27311Y17856D01*
X28311D01*
X28264Y17851D01*
D02*
G37*
G36*
X37506Y18012D02*
X37522Y17969D01*
X37547Y17932D01*
X37583Y17899D01*
X37629Y17872D01*
X37685Y17849D01*
X37752Y17832D01*
X37829Y17819D01*
X37916Y17812D01*
X38013Y17809D01*
Y17309D01*
X37916Y17307D01*
X37829Y17299D01*
X37752Y17287D01*
X37685Y17269D01*
X37629Y17247D01*
X37583Y17219D01*
X37547Y17187D01*
X37522Y17149D01*
X37506Y17107D01*
X37501Y17059D01*
Y18059D01*
X37506Y18012D01*
D02*
G37*
G36*
X28063Y16782D02*
X28071Y16695D01*
X28084Y16618D01*
X28101Y16552D01*
X28124Y16495D01*
X28151Y16449D01*
X28183Y16413D01*
X28221Y16388D01*
X28264Y16372D01*
X28311Y16367D01*
X27311D01*
X27358Y16372D01*
X27401Y16388D01*
X27439Y16413D01*
X27471Y16449D01*
X27498Y16495D01*
X27521Y16552D01*
X27538Y16618D01*
X27551Y16695D01*
X27558Y16782D01*
X27561Y16879D01*
X28061D01*
X28063Y16782D01*
D02*
G37*
G36*
X54007Y15548D02*
X54001Y15595D01*
X53983Y15636D01*
X53953Y15673D01*
X53912Y15705D01*
X53858Y15732D01*
X53793Y15754D01*
X53716Y15771D01*
X53627Y15784D01*
X53526Y15791D01*
X53413Y15793D01*
Y16293D01*
X53526Y16296D01*
X53716Y16315D01*
X53793Y16333D01*
X53858Y16355D01*
X53912Y16382D01*
X53953Y16414D01*
X53983Y16450D01*
X54001Y16492D01*
X54007Y16539D01*
Y15548D01*
D02*
G37*
G36*
X44216Y14279D02*
X44128Y14187D01*
X43987Y14019D01*
X43934Y13942D01*
X43894Y13871D01*
X43865Y13804D01*
X43848Y13743D01*
X43842Y13686D01*
X43849Y13634D01*
X43867Y13588D01*
X43371Y14484D01*
X43399Y14447D01*
X43434Y14423D01*
X43475Y14413D01*
X43524Y14417D01*
X43580Y14435D01*
X43642Y14467D01*
X43712Y14512D01*
X43788Y14571D01*
X43871Y14644D01*
X43961Y14731D01*
X44216Y14279D01*
D02*
G37*
G36*
X63108Y13254D02*
X63029Y13172D01*
X62907Y13022D01*
X62862Y12954D01*
X62829Y12890D01*
X62807Y12830D01*
X62797Y12775D01*
X62797Y12724D01*
X62809Y12677D01*
X62832Y12635D01*
X62248Y13452D01*
X62279Y13418D01*
X62317Y13395D01*
X62359Y13385D01*
X62408Y13388D01*
X62461Y13402D01*
X62520Y13430D01*
X62584Y13469D01*
X62653Y13521D01*
X62728Y13585D01*
X62808Y13662D01*
X63108Y13254D01*
D02*
G37*
G36*
X46731Y14511D02*
X46792Y14476D01*
X46856Y14445D01*
X46924Y14417D01*
X46995Y14395D01*
X47070Y14376D01*
X47148Y14361D01*
X47230Y14351D01*
X47315Y14345D01*
X47405Y14343D01*
Y13342D01*
X47315Y13340D01*
X47148Y13324D01*
X47070Y13309D01*
X46995Y13290D01*
X46924Y13268D01*
X46856Y13240D01*
X46792Y13209D01*
X46731Y13174D01*
X46674Y13134D01*
Y14551D01*
X46731Y14511D01*
D02*
G37*
G36*
X34451Y25077D02*
X36029D01*
X36316Y25134D01*
X36735Y24788D01*
Y24141D01*
X36413Y23696D01*
X34524D01*
X34236Y23638D01*
X33993Y23476D01*
X33830Y23232D01*
X33773Y22945D01*
Y21055D01*
X33830Y20768D01*
X33993Y20524D01*
X34236Y20362D01*
X34524Y20304D01*
X34744D01*
X34744Y20299D01*
X34771Y20239D01*
Y19511D01*
X34748Y19460D01*
X34657D01*
X34194Y19368D01*
X33800Y19105D01*
X33538Y18712D01*
X33445Y18248D01*
Y16870D01*
X33538Y16406D01*
X33800Y16013D01*
X34194Y15750D01*
X34657Y15658D01*
X36823D01*
X37287Y15750D01*
X37680Y16013D01*
X37943Y16406D01*
X38015Y16768D01*
X38027Y16768D01*
X38086Y16794D01*
X44590D01*
X44797Y16294D01*
X43706Y15203D01*
X43695Y15202D01*
X43661Y15158D01*
X43647Y15145D01*
X43586Y15121D01*
X43505Y15043D01*
X43466Y15009D01*
X43448Y15020D01*
X43411Y15011D01*
X43189Y15055D01*
X41811D01*
X41347Y14963D01*
X40954Y14700D01*
X40691Y14306D01*
X40599Y13842D01*
Y11677D01*
X40691Y11213D01*
X40754Y11120D01*
X40486Y10620D01*
X14281Y10620D01*
Y20459D01*
X25436Y20459D01*
X25804Y19976D01*
Y18087D01*
X25862Y17799D01*
X26024Y17556D01*
X26268Y17393D01*
X26555Y17336D01*
X26790Y16840D01*
X26790Y16824D01*
X26713Y16809D01*
X26320Y16546D01*
X26057Y16153D01*
X25965Y15689D01*
Y14311D01*
X26057Y13847D01*
X26320Y13454D01*
X26713Y13191D01*
X27177Y13099D01*
X29342D01*
X29806Y13191D01*
X30200Y13454D01*
X30463Y13847D01*
X30555Y14311D01*
Y15689D01*
X30463Y16153D01*
X30200Y16546D01*
X29806Y16809D01*
X29342Y16901D01*
X28857D01*
X28807Y16986D01*
X28732Y17393D01*
X28976Y17556D01*
X29138Y17799D01*
X29195Y18087D01*
Y19401D01*
X29210Y19424D01*
X29199Y19469D01*
X29217Y19512D01*
X29195Y19563D01*
Y19576D01*
X29211Y19598D01*
X29342Y19751D01*
X29430Y19843D01*
X29454Y19905D01*
X30104Y20554D01*
X30270Y20802D01*
X30328Y21094D01*
Y22999D01*
X31964Y24635D01*
X33124D01*
X33417Y24693D01*
X33665Y24859D01*
X33862Y25056D01*
X33923Y25080D01*
X34002Y25155D01*
X34012Y25164D01*
X34451Y25077D01*
D02*
G37*
G36*
X47941Y14340D02*
X49194Y14244D01*
X49202Y14208D01*
X49129Y14167D01*
X48975Y14121D01*
X48740Y14069D01*
X48443Y12843D01*
X48455Y12937D01*
X48441Y13023D01*
X48403Y13097D01*
X48339Y13162D01*
X48251Y13217D01*
X48137Y13262D01*
X47998Y13297D01*
X47834Y13322D01*
X47645Y13338D01*
X47431Y13342D01*
X47448Y14343D01*
X47941Y14340D01*
D02*
G37*
%LPC*%
G36*
X33500Y82413D02*
X32959Y82305D01*
X32915Y82276D01*
X32500Y82000D01*
X32085Y82276D01*
X32041Y82305D01*
X31500Y82413D01*
X30959Y82305D01*
X30501Y81999D01*
X30195Y81541D01*
X30087Y81000D01*
X30195Y80459D01*
X30501Y80001D01*
X30959Y79695D01*
X31500Y79587D01*
X32041Y79695D01*
X32085Y79724D01*
X32500Y80000D01*
X32915Y79724D01*
X32959Y79695D01*
X33500Y79587D01*
X34041Y79695D01*
X34499Y80001D01*
X34805Y80459D01*
X34913Y81000D01*
X34805Y81541D01*
X34499Y81999D01*
X34041Y82305D01*
X33500Y82413D01*
D02*
G37*
G36*
X59055Y81130D02*
X58276Y80975D01*
X57616Y80534D01*
X57435Y80263D01*
X56935D01*
X56754Y80534D01*
X56094Y80975D01*
X55315Y81130D01*
X54536Y80975D01*
X53876Y80534D01*
X53793Y80410D01*
X53293D01*
X53211Y80534D01*
X52551Y80975D01*
X51772Y81130D01*
X50993Y80975D01*
X50333Y80534D01*
X50250Y80410D01*
X49750D01*
X49667Y80534D01*
X49007Y80975D01*
X48228Y81130D01*
X47449Y80975D01*
X46789Y80534D01*
X46348Y79873D01*
X46193Y79094D01*
Y78150D01*
X46348Y77371D01*
X46789Y76710D01*
X47449Y76269D01*
X48228Y76114D01*
X49007Y76269D01*
X49667Y76710D01*
X49750Y76834D01*
X50250D01*
X50333Y76710D01*
X50993Y76269D01*
X51772Y76114D01*
X52551Y76269D01*
X53211Y76710D01*
X53293Y76834D01*
X53793D01*
X53876Y76710D01*
X54536Y76269D01*
X55315Y76114D01*
X56094Y76269D01*
X56754Y76710D01*
X56935Y76981D01*
X57435D01*
X57616Y76710D01*
X58276Y76269D01*
X59055Y76114D01*
X59834Y76269D01*
X60494Y76710D01*
X60935Y77371D01*
X61090Y78150D01*
Y79094D01*
X60935Y79873D01*
X60494Y80534D01*
X59834Y80975D01*
X59055Y81130D01*
D02*
G37*
G36*
X40945D02*
X40166Y80975D01*
X39506Y80534D01*
X39065Y79873D01*
X38910Y79094D01*
Y78150D01*
X39065Y77371D01*
X39506Y76710D01*
X40166Y76269D01*
X40945Y76114D01*
X41724Y76269D01*
X42384Y76710D01*
X42825Y77371D01*
X42980Y78150D01*
Y79094D01*
X42825Y79873D01*
X42384Y80534D01*
X41724Y80975D01*
X40945Y81130D01*
D02*
G37*
G36*
X26457Y84857D02*
X25658Y84752D01*
X24914Y84444D01*
X24275Y83953D01*
X23785Y83314D01*
X23476Y82570D01*
X23371Y81772D01*
Y80354D01*
X23476Y79556D01*
X23785Y78812D01*
X24275Y78173D01*
X24914Y77682D01*
X25658Y77374D01*
Y76878D01*
X24914Y76570D01*
X24275Y76079D01*
X23785Y75440D01*
X23476Y74696D01*
X23371Y73898D01*
Y72480D01*
X23476Y71682D01*
X23785Y70938D01*
X24275Y70299D01*
X24914Y69808D01*
X25658Y69500D01*
X26457Y69395D01*
X27255Y69500D01*
X27999Y69808D01*
X28638Y70299D01*
X29129Y70938D01*
X29437Y71682D01*
X29542Y72480D01*
Y73898D01*
X29519Y74071D01*
X30000Y74252D01*
X30101Y74101D01*
X30559Y73795D01*
X31100Y73687D01*
X31641Y73795D01*
X32000Y74035D01*
X32359Y73795D01*
X32900Y73687D01*
X33441Y73795D01*
X33899Y74101D01*
X34205Y74559D01*
X34313Y75100D01*
X34205Y75641D01*
X33899Y76099D01*
X33441Y76405D01*
X32900Y76513D01*
X32359Y76405D01*
X32000Y76165D01*
X31641Y76405D01*
X31100Y76513D01*
X30559Y76405D01*
X30101Y76099D01*
X29795Y75641D01*
X29727Y75302D01*
X29207Y75251D01*
X29129Y75440D01*
X28638Y76079D01*
X27999Y76570D01*
X27255Y76878D01*
Y77374D01*
X27999Y77682D01*
X28638Y78173D01*
X29129Y78812D01*
X29437Y79556D01*
X29542Y80354D01*
Y81772D01*
X29437Y82570D01*
X29129Y83314D01*
X28638Y83953D01*
X27999Y84444D01*
X27255Y84752D01*
X26457Y84857D01*
D02*
G37*
G36*
X59055Y75618D02*
X58276Y75463D01*
X57616Y75022D01*
X57175Y74361D01*
X57020Y73583D01*
Y72638D01*
X57175Y71859D01*
X57616Y71199D01*
X58276Y70758D01*
X59055Y70603D01*
X59834Y70758D01*
X60494Y71199D01*
X60935Y71859D01*
X61090Y72638D01*
Y73583D01*
X60935Y74361D01*
X60494Y75022D01*
X59834Y75463D01*
X59055Y75618D01*
D02*
G37*
G36*
X81417Y84857D02*
X80619Y84752D01*
X79875Y84444D01*
X79236Y83953D01*
X78745Y83314D01*
X78437Y82570D01*
X78332Y81772D01*
Y80354D01*
X78437Y79556D01*
X78745Y78812D01*
X79236Y78173D01*
X79875Y77682D01*
X80619Y77374D01*
Y76878D01*
X79875Y76570D01*
X79236Y76079D01*
X78745Y75440D01*
X78437Y74696D01*
X78332Y73898D01*
Y72480D01*
X78437Y71682D01*
X78745Y70938D01*
X79236Y70299D01*
X79875Y69808D01*
X80619Y69500D01*
X81417Y69395D01*
X82216Y69500D01*
X82960Y69808D01*
X83599Y70299D01*
X84089Y70938D01*
X84398Y71682D01*
X84503Y72480D01*
Y73898D01*
X84398Y74696D01*
X84089Y75440D01*
X83599Y76079D01*
X82960Y76570D01*
X82216Y76878D01*
Y77374D01*
X82960Y77682D01*
X83599Y78173D01*
X84089Y78812D01*
X84398Y79556D01*
X84503Y80354D01*
Y81772D01*
X84398Y82570D01*
X84089Y83314D01*
X83599Y83953D01*
X82960Y84444D01*
X82216Y84752D01*
X81417Y84857D01*
D02*
G37*
G36*
X18583Y76983D02*
X17784Y76878D01*
X17040Y76570D01*
X16401Y76079D01*
X15911Y75440D01*
X15602Y74696D01*
X15497Y73898D01*
Y72480D01*
X15602Y71682D01*
X15911Y70938D01*
X16401Y70299D01*
X17040Y69808D01*
X17784Y69500D01*
X18583Y69395D01*
X19381Y69500D01*
X20125Y69808D01*
X20764Y70299D01*
X21255Y70938D01*
X21563Y71682D01*
X21668Y72480D01*
Y73898D01*
X21563Y74696D01*
X21255Y75440D01*
X20764Y76079D01*
X20125Y76570D01*
X19381Y76878D01*
X18583Y76983D01*
D02*
G37*
G36*
X19500Y45663D02*
X18959Y45555D01*
X18501Y45249D01*
X18195Y44791D01*
X18087Y44250D01*
X18195Y43709D01*
X18501Y43251D01*
X18959Y42945D01*
X19187Y42899D01*
X19278Y42840D01*
X19326Y42832D01*
X19354Y42824D01*
X19384Y42814D01*
X19416Y42801D01*
X19450Y42783D01*
X19487Y42761D01*
X19520Y42738D01*
X19616Y42659D01*
X19666Y42612D01*
X19715Y42593D01*
X20012Y42296D01*
Y41750D01*
X19990Y41701D01*
X19986Y41521D01*
X19974Y41381D01*
X19956Y41271D01*
X19936Y41193D01*
X19925Y41163D01*
X19799Y41138D01*
X19556Y40976D01*
X19393Y40732D01*
X19336Y40445D01*
Y38555D01*
X19393Y38268D01*
X19556Y38024D01*
X19799Y37862D01*
X20087Y37804D01*
X21976D01*
X22264Y37862D01*
X22507Y38024D01*
X22670Y38268D01*
X22727Y38555D01*
Y40445D01*
X22670Y40732D01*
X22507Y40976D01*
X22264Y41138D01*
X22138Y41163D01*
X22127Y41193D01*
X22106Y41271D01*
X22089Y41381D01*
X22077Y41521D01*
X22072Y41701D01*
X22051Y41750D01*
Y42718D01*
X21973Y43109D01*
X21753Y43439D01*
X21157Y44035D01*
X21138Y44084D01*
X21086Y44139D01*
X21048Y44183D01*
X21016Y44224D01*
X20989Y44263D01*
X20967Y44300D01*
X20949Y44334D01*
X20936Y44366D01*
X20926Y44396D01*
X20918Y44424D01*
X20909Y44472D01*
X20851Y44563D01*
X20805Y44791D01*
X20499Y45249D01*
X20041Y45555D01*
X19500Y45663D01*
D02*
G37*
%LPD*%
G36*
X20390Y44306D02*
X20407Y44238D01*
X20431Y44171D01*
X20460Y44104D01*
X20494Y44037D01*
X20533Y43971D01*
X20579Y43905D01*
X20629Y43840D01*
X20685Y43775D01*
X20746Y43711D01*
X20039Y43003D01*
X19975Y43065D01*
X19845Y43171D01*
X19779Y43216D01*
X19713Y43256D01*
X19646Y43290D01*
X19579Y43319D01*
X19512Y43343D01*
X19444Y43360D01*
X19375Y43373D01*
X20377Y44375D01*
X20390Y44306D01*
D02*
G37*
G36*
X21536Y41491D02*
X21551Y41315D01*
X21576Y41160D01*
X21611Y41026D01*
X21655Y40912D01*
X21710Y40819D01*
X21774Y40747D01*
X21849Y40695D01*
X21933Y40664D01*
X22027Y40654D01*
X20036D01*
X20130Y40664D01*
X20214Y40695D01*
X20289Y40747D01*
X20353Y40819D01*
X20408Y40912D01*
X20452Y41026D01*
X20487Y41160D01*
X20512Y41315D01*
X20527Y41491D01*
X20531Y41688D01*
X21531D01*
X21536Y41491D01*
D02*
G37*
D11*
X20900Y32900D02*
Y32948D01*
X21005D01*
X22252Y31700D01*
X22900D01*
X23336Y31264D01*
X27578D01*
X27000Y35500D02*
X28536Y33964D01*
Y32222D02*
Y33964D01*
X27578Y31264D02*
X28536Y32222D01*
X61578Y28522D02*
X61578Y28522D01*
X61600Y28500D01*
X47500Y25000D02*
X49275Y26775D01*
Y28031D01*
X49595Y28350D01*
X43500Y25000D02*
X47500D01*
X47300Y42456D02*
X47350Y42406D01*
X47300Y42456D02*
Y45412D01*
X46364Y46348D02*
X47300Y45412D01*
X59700Y47500D02*
X62231D01*
X59700Y47498D02*
Y47500D01*
X57468Y45266D02*
X59700Y47498D01*
X62231Y47500D02*
X62800Y48069D01*
X76822D01*
X60671Y46500D02*
X62700D01*
X59437Y45266D02*
X60671Y46500D01*
X46734Y32563D02*
X47850D01*
X45500Y31329D02*
X46734Y32563D01*
X68000Y27400D02*
X70700Y24700D01*
X68000Y27400D02*
Y27705D01*
X67440Y30300D02*
X68600D01*
X65177Y32563D02*
X67440Y30300D01*
X63150Y32563D02*
X65177D01*
X59437Y44150D02*
Y45266D01*
X57468Y44150D02*
Y45266D01*
X55500Y44150D02*
Y45600D01*
X45272Y41899D02*
X46734Y40437D01*
X70969Y29963D02*
X71431Y29500D01*
X71332Y29400D02*
X71431Y29500D01*
X63957Y26343D02*
X64200Y26100D01*
X57468Y27734D02*
X59836Y25366D01*
X62457D01*
X65136Y22688D01*
X65872Y26386D02*
Y27500D01*
Y26386D02*
X66500Y25758D01*
X53100Y48000D02*
X55500Y45600D01*
X63769Y46069D02*
X77650D01*
X62900Y45200D02*
X63769Y46069D01*
X61752Y45200D02*
X62900D01*
X63269Y47069D02*
X77236D01*
X62700Y46500D02*
X63269Y47069D01*
X73480Y65358D02*
X77632D01*
X72305D02*
X73480D01*
X77500Y48747D02*
Y60000D01*
X78500Y48333D02*
Y57500D01*
X79500Y56119D02*
X82200Y58819D01*
X79500Y47919D02*
Y56119D01*
X79800Y58800D02*
Y59900D01*
X82200Y58819D02*
Y59900D01*
X78500Y57500D02*
X79800Y58800D01*
X57724Y60567D02*
X58069D01*
X58452Y60950D01*
X59250D01*
X59500Y61200D01*
X50764Y55204D02*
Y58146D01*
X48031Y60879D02*
X50764Y58146D01*
Y55204D02*
X51500Y54469D01*
X58036Y39222D02*
Y40578D01*
X57078Y41536D02*
X58036Y40578D01*
X55029Y41536D02*
X57078D01*
X54150Y42415D02*
X55029Y41536D01*
X54150Y42415D02*
Y42504D01*
X53531Y43123D02*
X54150Y42504D01*
X53531Y43123D02*
Y44150D01*
X46364Y46348D02*
Y49777D01*
X48052Y53500D02*
X49528Y54976D01*
X46749Y53500D02*
X48052D01*
X45272Y52024D02*
X46749Y53500D01*
X45116Y27916D02*
Y28260D01*
X45500Y28644D01*
Y31329D01*
X52182Y42415D02*
X54697Y39900D01*
X52182Y42415D02*
Y42504D01*
X51563Y43123D02*
X52182Y42504D01*
X51563Y43123D02*
Y44150D01*
X60804Y26366D02*
X62871D01*
X62894Y26343D01*
X63957D01*
X46364Y49777D02*
X47292Y50705D01*
X47400D01*
X46734Y40437D02*
X47850D01*
X46063Y61335D02*
X49528Y57870D01*
Y54976D02*
Y57870D01*
X46063Y61335D02*
Y61974D01*
X57468Y55937D02*
X61197D01*
X55500Y53969D02*
X57468Y55937D01*
X42931Y56405D02*
X44550Y58024D01*
X44100Y64900D02*
X44200D01*
X43480Y25011D02*
Y30480D01*
X43468Y25000D02*
X43480Y25011D01*
Y30480D02*
X43500Y30500D01*
X47579Y50547D02*
X51500Y54469D01*
X43931Y53131D02*
X45000Y54200D01*
X42931Y40303D02*
Y56405D01*
X43931Y41271D02*
Y53131D01*
X45272Y41899D02*
Y52024D01*
X40000Y48469D02*
Y48500D01*
X62307Y57047D02*
X63291D01*
X61197Y55937D02*
X62307Y57047D01*
X66647Y42900D02*
X73353D01*
X66153Y42406D02*
X66647Y42900D01*
X63650Y42406D02*
X66153D01*
X70700Y24700D02*
X72113D01*
X73872Y26459D01*
Y30840D01*
X63705Y19705D02*
X65136Y21136D01*
X58379Y19705D02*
X63705D01*
X65136Y21136D02*
Y22688D01*
X48031Y60879D02*
Y61974D01*
X34437Y43693D02*
X40776D01*
X40968Y43500D01*
Y39500D02*
Y43500D01*
X28648Y37148D02*
X44105D01*
X43931Y41271D02*
X46734Y38469D01*
X42931Y40303D02*
X46734Y36500D01*
X47400Y56453D02*
Y57970D01*
X45371Y60000D02*
X47400Y57970D01*
X47600Y28000D02*
Y30345D01*
X72176Y65229D02*
X72305Y65358D01*
X77632D02*
X77761Y65229D01*
X61405Y44854D02*
X61752Y45200D01*
X77650Y46069D02*
X79500Y47919D01*
X54697Y39900D02*
X56400D01*
X56913Y38100D02*
X58036Y39222D01*
X53800Y38100D02*
X56913D01*
X42669Y63468D02*
X44100Y64900D01*
X48000Y48000D02*
X49595Y46406D01*
X82968Y66500D02*
X85100Y64368D01*
Y40387D02*
Y64368D01*
X81000Y36287D02*
X85100Y40387D01*
X82968Y62500D02*
X84100Y61369D01*
Y46431D02*
Y61369D01*
X81000Y43331D02*
X84100Y46431D01*
X82726Y40872D02*
Y40993D01*
X83559Y41826D01*
Y42822D01*
X74734Y41500D02*
Y41519D01*
X61600Y28500D02*
X63400D01*
X61405Y28350D02*
X61578Y28522D01*
X65058Y28314D02*
Y29660D01*
Y28314D02*
X65872Y27500D01*
X64123Y30595D02*
X65058Y29660D01*
X71100Y29400D02*
X71332D01*
X59437Y27734D02*
X60804Y26366D01*
X55500Y26100D02*
Y28850D01*
X54597Y33000D02*
X59000D01*
X71953Y65453D02*
X72176Y65229D01*
X71953Y65453D02*
Y65709D01*
X33124Y25400D02*
X35240Y27516D01*
X31647Y25400D02*
X33124D01*
X29563Y23316D02*
X31647Y25400D01*
X29563Y21094D02*
Y23316D01*
X27500Y19031D02*
X29563Y21094D01*
X45000Y20537D02*
X45537D01*
X50500Y25500D01*
X47500Y20026D02*
X53531Y26057D01*
X47500Y18874D02*
Y20026D01*
X46185Y17559D02*
X47500Y18874D01*
X30500Y42838D02*
Y43693D01*
Y42838D02*
X32207Y41131D01*
X33931D01*
X66500Y20500D02*
Y25758D01*
X64000Y18000D02*
X66500Y20500D01*
X64000Y14500D02*
Y18000D01*
X61882Y12382D02*
X64000Y14500D01*
X58379Y12382D02*
X61882D01*
X76197Y32795D02*
X78441Y35039D01*
X76000Y32795D02*
X76197D01*
X59437Y27734D02*
Y28850D01*
X57468Y27734D02*
Y28850D01*
X73872Y30840D02*
X75828Y32795D01*
X33931Y41131D02*
X34437Y41637D01*
Y43693D01*
X27000Y35500D02*
X28648Y37148D01*
X77761Y65229D02*
X79031Y66500D01*
X39531Y30500D02*
X43000D01*
X39500Y30531D02*
X39531Y30500D01*
X71431Y29500D02*
X71900Y29032D01*
X68000Y33295D02*
X68197D01*
X67779D02*
X68000D01*
X70969Y29963D02*
Y30523D01*
X68197Y33295D02*
X70969Y30523D01*
X78441Y35039D02*
Y35578D01*
X75828Y32795D02*
X76000D01*
X66542Y34532D02*
X67779Y33295D01*
X63150Y34532D02*
X66542D01*
X63650Y30595D02*
X64123D01*
X53531Y26057D02*
Y28850D01*
X81000Y35578D02*
Y36287D01*
X61405Y44650D02*
Y44854D01*
X73353Y42900D02*
X74734Y41519D01*
X45627Y16043D02*
X58379D01*
X43000Y13416D02*
X45627Y16043D01*
X27500Y19031D02*
X27811Y18721D01*
Y15449D02*
Y18721D01*
Y15449D02*
X28260Y15000D01*
X51563Y29966D02*
X54597Y33000D01*
X51563Y28850D02*
Y29966D01*
X46734Y38469D02*
X47850D01*
X46734Y36500D02*
X47850D01*
X46722Y34532D02*
X47850D01*
X40000Y48469D02*
X41000Y47469D01*
X24969Y35500D02*
X27000D01*
X43000Y13000D02*
Y13416D01*
X41000Y63468D02*
X42669D01*
X41469Y60000D02*
X45371D01*
X41000Y59531D02*
X41469Y60000D01*
X76822Y48069D02*
X77500Y48747D01*
X77236Y47069D02*
X78500Y48333D01*
X59500Y53969D02*
X59642Y54110D01*
X65866D01*
X66047Y54291D01*
X44105Y37148D02*
X46722Y34532D01*
X81000Y42822D02*
Y43331D01*
X35740Y17559D02*
X46185D01*
X35535Y17764D02*
X35740Y17559D01*
X35535Y17764D02*
Y21933D01*
X35469Y22000D02*
X35535Y21933D01*
X37500Y23253D02*
Y25256D01*
Y23253D02*
X39941Y20812D01*
Y20240D02*
Y20812D01*
X49595Y44650D02*
Y46406D01*
X78579Y62953D02*
X79031Y62500D01*
X74709Y62953D02*
X78579D01*
X47350Y30595D02*
X47600Y30345D01*
X35240Y27516D02*
X37500Y25256D01*
D12*
X60591Y62700D02*
X62307Y60984D01*
X59500Y62700D02*
X60591D01*
X48031Y66910D02*
X50000Y68879D01*
X49914Y70586D02*
X50714D01*
X48228Y72272D02*
X49914Y70586D01*
X48228Y72272D02*
Y73110D01*
X51772Y70901D02*
X52942Y69731D01*
Y66411D02*
Y69731D01*
X50714Y70586D02*
X51968Y69332D01*
X51772Y70901D02*
Y73110D01*
X51968Y65026D02*
Y69332D01*
X56500Y65000D02*
X60260D01*
X54131D02*
X56500D01*
X47558Y68106D02*
Y69421D01*
X47058Y67605D02*
X47558Y68106D01*
X47058Y66661D02*
Y67605D01*
X47558Y69421D02*
X47728Y69591D01*
X50000Y68800D02*
Y68879D01*
X48031Y65026D02*
Y66910D01*
X53303Y60000D02*
X54915D01*
X57068Y62153D01*
X57296D01*
X57844Y62700D01*
X59500D01*
X55717Y63114D02*
X56114D01*
X56500Y63500D01*
X53937Y61974D02*
Y64806D01*
X60260Y65000D02*
X62307Y62953D01*
X54131Y64800D02*
Y65000D01*
X62307Y62953D02*
X63291D01*
X62307Y60984D02*
X63291D01*
X52942Y66411D02*
X53937Y65415D01*
X46063Y65665D02*
X47058Y66661D01*
X51968Y61335D02*
X53303Y60000D01*
X46063Y65026D02*
Y65665D01*
Y61974D02*
Y65026D01*
X53937D02*
Y65415D01*
X51968Y61335D02*
Y61974D01*
Y65026D01*
X48031Y61974D02*
Y65026D01*
D16*
X59500Y49700D02*
Y50032D01*
X57900Y48100D02*
X59500Y49700D01*
X76486Y29586D02*
X77700Y30800D01*
X76486Y27691D02*
Y29586D01*
X76000Y27205D02*
X76486Y27691D01*
X77700Y30800D02*
X79331D01*
X80000Y31468D01*
D20*
X71900Y29032D02*
D03*
Y32969D02*
D03*
X17000Y39469D02*
D03*
Y35531D02*
D03*
X39500Y30531D02*
D03*
Y34468D02*
D03*
X43500Y30531D02*
D03*
Y34468D02*
D03*
X80000Y27531D02*
D03*
Y31468D02*
D03*
X41000Y59531D02*
D03*
Y63468D02*
D03*
X59500Y53969D02*
D03*
Y50032D02*
D03*
X55500Y53969D02*
D03*
Y50032D02*
D03*
X16000Y55468D02*
D03*
Y51531D02*
D03*
X20000Y55468D02*
D03*
Y51531D02*
D03*
X41000Y55468D02*
D03*
Y51531D02*
D03*
Y43532D02*
D03*
Y47469D02*
D03*
X51500Y50532D02*
D03*
Y54469D02*
D03*
X27500Y19031D02*
D03*
Y22968D02*
D03*
X68000Y40968D02*
D03*
Y37031D02*
D03*
X72000Y40968D02*
D03*
Y37031D02*
D03*
D22*
X31532Y22000D02*
D03*
X35469D02*
D03*
X39531Y25000D02*
D03*
X43468D02*
D03*
X24969Y35500D02*
D03*
X21032D02*
D03*
X82968Y66500D02*
D03*
X79031D02*
D03*
Y62500D02*
D03*
X82968D02*
D03*
X71531Y50000D02*
D03*
X75468D02*
D03*
X63532D02*
D03*
X67469D02*
D03*
X58969Y58000D02*
D03*
X55032D02*
D03*
X24969Y39500D02*
D03*
X21032D02*
D03*
X29032Y39200D02*
D03*
X32969D02*
D03*
X40968Y39500D02*
D03*
X37031D02*
D03*
D28*
X56500Y63500D02*
D03*
Y65000D02*
D03*
X59500Y61200D02*
D03*
Y62700D02*
D03*
D53*
X55500Y48100D02*
Y50032D01*
D55*
X67968Y50500D02*
X68008Y50539D01*
X21032Y35500D02*
X23631Y32900D01*
X26900D01*
X17681Y33481D02*
Y34850D01*
Y33481D02*
X18000Y33162D01*
Y32900D02*
Y33162D01*
X17000Y35531D02*
X17681Y34850D01*
X78592Y28939D02*
X80000Y27531D01*
X59984Y59016D02*
X63291D01*
X58969Y58000D02*
X59984Y59016D01*
X69992Y51539D02*
X71531Y50000D01*
X69992Y51539D02*
Y54283D01*
X65500Y69838D02*
Y70000D01*
Y69838D02*
X66047Y69290D01*
Y65709D02*
Y69290D01*
X21032Y39500D02*
Y42718D01*
X19500Y44250D02*
X21032Y42718D01*
X78490Y28939D02*
X78592D01*
X50000Y18500D02*
X52500Y21000D01*
X67968Y50500D02*
X68000D01*
X80000Y27531D02*
X83559Y31091D01*
Y35578D01*
X74317Y35385D02*
X75385D01*
X71900Y32969D02*
X74317Y35385D01*
X75385D02*
X75500Y35500D01*
Y37468D01*
X46142Y13842D02*
X48658D01*
X50000Y12500D01*
X68000Y37031D02*
X69193D01*
X72000D01*
X71953Y53516D02*
X75468Y50000D01*
X71953Y53516D02*
Y54291D01*
X69984D02*
X69992Y54283D01*
X68008Y50539D02*
Y54283D01*
X68016Y54291D01*
X72000Y40968D02*
X75500Y37468D01*
X65500Y38469D02*
X68000Y40968D01*
X63150Y38469D02*
X65500D01*
X67469Y36500D02*
X68000Y37031D01*
X63150Y36500D02*
X67469D01*
X68000Y40968D02*
X72000D01*
D59*
X50000Y65026D02*
Y66100D01*
D60*
X31516Y34468D02*
X39500D01*
X31500Y34484D02*
X31516Y34468D01*
D61*
X18583Y81063D02*
D03*
X26457D02*
D03*
Y73189D02*
D03*
X18583D02*
D03*
X81417Y81063D02*
D03*
X73543D02*
D03*
Y73189D02*
D03*
X81417D02*
D03*
D64*
X48228Y78622D02*
D03*
X40945D02*
D03*
X37205D02*
D03*
Y73110D02*
D03*
X40945D02*
D03*
X44685D02*
D03*
X48228D02*
D03*
X62795D02*
D03*
X59055D02*
D03*
X51772D02*
D03*
X62795Y78622D02*
D03*
X59055D02*
D03*
X55315D02*
D03*
X51772D02*
D03*
D65*
X20900Y32900D02*
D03*
X19500Y19000D02*
D03*
Y17000D02*
D03*
X18000Y32900D02*
D03*
X21000Y24500D02*
D03*
X23000D02*
D03*
X24500Y29500D02*
D03*
Y27700D02*
D03*
X22600Y54500D02*
D03*
X32900Y30300D02*
D03*
X30900D02*
D03*
X26900Y32900D02*
D03*
X50000Y66300D02*
D03*
X63400Y21800D02*
D03*
X64200Y26100D02*
D03*
X53100Y48100D02*
D03*
X57900D02*
D03*
X55500D02*
D03*
X70200Y69200D02*
D03*
X73480Y65358D02*
D03*
X77500Y60000D02*
D03*
X79800Y59900D02*
D03*
X82200D02*
D03*
X55717Y63114D02*
D03*
X52400Y57100D02*
D03*
X50000Y68800D02*
D03*
X47728Y69591D02*
D03*
X44550Y58024D02*
D03*
X78649Y28900D02*
D03*
X71200Y21363D02*
D03*
X44200Y64900D02*
D03*
X45116Y27916D02*
D03*
X45000Y54200D02*
D03*
X51000Y50500D02*
D03*
X40000Y48500D02*
D03*
X62000Y52000D02*
D03*
X75750Y49800D02*
D03*
X71500Y26400D02*
D03*
X47600Y28000D02*
D03*
X65500Y70000D02*
D03*
X56400Y39900D02*
D03*
X53800Y38100D02*
D03*
X32900Y75100D02*
D03*
X31100D02*
D03*
X48000Y48000D02*
D03*
X82726Y40872D02*
D03*
X74734Y41500D02*
D03*
X63400Y28500D02*
D03*
X71100Y29400D02*
D03*
X68600Y30300D02*
D03*
X55500Y26100D02*
D03*
X59000Y33000D02*
D03*
X70500Y18200D02*
D03*
X52500Y21000D02*
D03*
X32000Y27500D02*
D03*
X19500Y44250D02*
D03*
X68000Y50500D02*
D03*
X31500Y81000D02*
D03*
X33500D02*
D03*
X41500Y27500D02*
D03*
X77000Y14000D02*
D03*
Y12000D02*
D03*
X75500Y35500D02*
D03*
X50500Y25500D02*
D03*
X78500Y41000D02*
D03*
X68000Y58000D02*
D03*
X32000Y14500D02*
D03*
X31999Y18937D02*
D03*
X46142Y13842D02*
D03*
X77197Y20500D02*
D03*
X81500Y46350D02*
D03*
X69193Y37031D02*
D03*
X38000Y56500D02*
D03*
Y54500D02*
D03*
X68000Y60000D02*
D03*
X22600Y56500D02*
D03*
X24600D02*
D03*
Y54500D02*
D03*
X36000D02*
D03*
Y56500D02*
D03*
X57724Y60567D02*
D03*
X65980Y44410D02*
D03*
D66*
X27547Y47532D02*
D03*
Y51468D02*
D03*
X33453D02*
D03*
Y47532D02*
D03*
X30500Y49500D02*
D03*
D72*
X47400Y56295D02*
D03*
Y50705D02*
D03*
X68000Y33295D02*
D03*
Y27705D02*
D03*
X76000Y32795D02*
D03*
Y27205D02*
D03*
D73*
X19500Y12535D02*
D03*
Y29465D02*
D03*
D74*
X69000Y60000D02*
D03*
D75*
X63291Y57047D02*
D03*
Y59016D02*
D03*
Y60984D02*
D03*
Y62953D02*
D03*
X74709Y57047D02*
D03*
Y59016D02*
D03*
Y60984D02*
D03*
Y62953D02*
D03*
D76*
X71953Y54291D02*
D03*
X69984D02*
D03*
X68016D02*
D03*
X66047D02*
D03*
X71953Y65709D02*
D03*
X69984D02*
D03*
X68016D02*
D03*
X66047D02*
D03*
D77*
X78441Y42822D02*
D03*
X81000Y42822D02*
D03*
X83559Y42822D02*
D03*
Y35578D02*
D03*
X81000Y35578D02*
D03*
X78441Y35578D02*
D03*
D78*
X26563Y63000D02*
D03*
X34437D02*
D03*
D79*
X30500Y49500D02*
D03*
D80*
X26563Y43693D02*
D03*
X28532D02*
D03*
X30500D02*
D03*
X32469D02*
D03*
X34437D02*
D03*
Y55307D02*
D03*
X32469D02*
D03*
X30500D02*
D03*
X28532D02*
D03*
X26563D02*
D03*
D81*
X39941Y20240D02*
D03*
X45059D02*
D03*
X42500Y12760D02*
D03*
D82*
X35740Y17559D02*
D03*
Y12441D02*
D03*
X28260Y15000D02*
D03*
D83*
X19500Y17535D02*
D03*
Y24465D02*
D03*
D84*
X58379Y12382D02*
D03*
Y16043D02*
D03*
Y19705D02*
D03*
Y23366D02*
D03*
D85*
X50000Y12500D02*
D03*
Y18500D02*
D03*
D86*
X63650Y42406D02*
D03*
Y30595D02*
D03*
X47350D02*
D03*
Y42406D02*
D03*
D87*
X63150Y40437D02*
D03*
Y38469D02*
D03*
Y36500D02*
D03*
Y34532D02*
D03*
Y32563D02*
D03*
X47850D02*
D03*
Y34532D02*
D03*
Y36500D02*
D03*
Y38469D02*
D03*
Y40437D02*
D03*
D88*
X61405Y28350D02*
D03*
X49595D02*
D03*
Y44650D02*
D03*
X61405D02*
D03*
D89*
X59437Y28850D02*
D03*
X57468D02*
D03*
X55500D02*
D03*
X53531D02*
D03*
X51563D02*
D03*
Y44150D02*
D03*
X53531D02*
D03*
X55500D02*
D03*
X57468D02*
D03*
X59437D02*
D03*
D90*
X48031Y65026D02*
D03*
X46063D02*
D03*
X51968Y61974D02*
D03*
X53937D02*
D03*
X51968Y65026D02*
D03*
X53937D02*
D03*
X46063Y61974D02*
D03*
X48031D02*
D03*
D91*
X50000Y65026D02*
D03*
Y61974D02*
D03*
D92*
X35240Y27516D02*
D03*
X27760D02*
D03*
X31500Y34484D02*
D03*
D93*
X28500Y39200D02*
X29032D01*
X26605Y41094D02*
X28500Y39200D01*
X26563Y41094D02*
X26605D01*
X26563D02*
Y43693D01*
X24969Y39500D02*
X26563Y41094D01*
D94*
X24594Y48516D02*
D03*
Y50484D02*
D03*
X36405D02*
D03*
Y48516D02*
D03*
D95*
X57874Y68268D02*
D03*
X42126Y83465D02*
D03*
Y68268D02*
D03*
X57874Y83465D02*
D03*
M02*
