G04*
G04 #@! TF.GenerationSoftware,Altium Limited,Altium Designer,19.1.5 (86)*
G04*
G04 Layer_Color=128*
%FSLAX25Y25*%
%MOIN*%
G70*
G01*
G75*
%ADD10C,0.00600*%
%ADD11C,0.00200*%
D10*
X85571Y29271D02*
G03*
X82721Y26422I-4J-2845D01*
G01*
X82721Y9600D02*
Y26422D01*
X13261Y9600D02*
X82721D01*
X85571Y29271D02*
X86739D01*
X13261Y9600D02*
Y86384D01*
X86739Y29271D02*
Y86384D01*
X13261Y86384D02*
X86739D01*
D11*
X17008Y81063D02*
X20157D01*
X18583Y79488D02*
Y82638D01*
X24882Y81063D02*
X28032D01*
X26457Y79488D02*
Y82638D01*
X24882Y73189D02*
X28032D01*
X26457Y71614D02*
Y74764D01*
X17008Y73189D02*
X20157D01*
X18583Y71614D02*
Y74764D01*
X79843Y81063D02*
X82992D01*
X81417Y79488D02*
Y82638D01*
X71969Y81063D02*
X75118D01*
X73543Y79488D02*
Y82638D01*
X71969Y73189D02*
X75118D01*
X73543Y71614D02*
Y74764D01*
X79843Y73189D02*
X82992D01*
X81417Y71614D02*
Y74764D01*
X56890Y68268D02*
X58858D01*
X57874Y67283D02*
Y69252D01*
X47441Y78622D02*
X49016D01*
X48228Y77835D02*
Y79409D01*
X40157Y78622D02*
X41732D01*
X40945Y77835D02*
Y79409D01*
X36417Y78622D02*
X37992D01*
X37205Y77835D02*
Y79409D01*
X36417Y73110D02*
X37992D01*
X37205Y72323D02*
Y73898D01*
X40157Y73110D02*
X41732D01*
X40945Y72323D02*
Y73898D01*
X43898Y73110D02*
X45472D01*
X44685Y72323D02*
Y73898D01*
X47441Y73110D02*
X49016D01*
X48228Y72323D02*
Y73898D01*
X62008Y73110D02*
X63583D01*
X62795Y72323D02*
Y73898D01*
X58268Y73110D02*
X59842D01*
X59055Y72323D02*
Y73898D01*
X50984Y73110D02*
X52559D01*
X51772Y72323D02*
Y73898D01*
X62008Y78622D02*
X63583D01*
X62795Y77835D02*
Y79409D01*
X58268Y78622D02*
X59842D01*
X59055Y77835D02*
Y79409D01*
X54528Y78622D02*
X56102D01*
X55315Y77835D02*
Y79409D01*
X50984Y78622D02*
X52559D01*
X51772Y77835D02*
Y79409D01*
X41142Y83465D02*
X43110D01*
X42126Y82480D02*
Y84449D01*
X41142Y68268D02*
X43110D01*
X42126Y67283D02*
Y69252D01*
X56890Y83465D02*
X58858D01*
X57874Y82480D02*
Y84449D01*
X20506Y32900D02*
X21294D01*
X20900Y32506D02*
Y33294D01*
X19106Y19000D02*
X19894D01*
X19500Y18606D02*
Y19394D01*
X19106Y17000D02*
X19894D01*
X19500Y16606D02*
Y17394D01*
X17606Y32900D02*
X18394D01*
X18000Y32506D02*
Y33294D01*
X20606Y24500D02*
X21394D01*
X21000Y24106D02*
Y24894D01*
X22606Y24500D02*
X23394D01*
X23000Y24106D02*
Y24894D01*
X24106Y29500D02*
X24894D01*
X24500Y29106D02*
Y29894D01*
X24106Y27700D02*
X24894D01*
X24500Y27306D02*
Y28094D01*
X22206Y54500D02*
X22994D01*
X22600Y54106D02*
Y54894D01*
X32506Y30300D02*
X33294D01*
X32900Y29906D02*
Y30694D01*
X30506Y30300D02*
X31294D01*
X30900Y29906D02*
Y30694D01*
X26506Y32900D02*
X27294D01*
X26900Y32506D02*
Y33294D01*
X49606Y66300D02*
X50394D01*
X50000Y65906D02*
Y66694D01*
X63006Y21800D02*
X63794D01*
X63400Y21406D02*
Y22194D01*
X63806Y26100D02*
X64594D01*
X64200Y25706D02*
Y26494D01*
X52706Y48100D02*
X53494D01*
X53100Y47706D02*
Y48494D01*
X57506Y48100D02*
X58294D01*
X57900Y47706D02*
Y48494D01*
X55106Y48100D02*
X55894D01*
X55500Y47706D02*
Y48494D01*
X69806Y69200D02*
X70594D01*
X70200Y68806D02*
Y69594D01*
X73087Y65358D02*
X73874D01*
X73480Y64964D02*
Y65751D01*
X77106Y60000D02*
X77894D01*
X77500Y59606D02*
Y60394D01*
X79406Y59900D02*
X80194D01*
X79800Y59506D02*
Y60294D01*
X81806Y59900D02*
X82594D01*
X82200Y59506D02*
Y60294D01*
X55323Y63114D02*
X56110D01*
X55717Y62721D02*
Y63508D01*
X52006Y57100D02*
X52794D01*
X52400Y56706D02*
Y57494D01*
X49606Y68800D02*
X50394D01*
X50000Y68406D02*
Y69194D01*
X47335Y69591D02*
X48122D01*
X47728Y69198D02*
Y69985D01*
X44156Y58024D02*
X44944D01*
X44550Y57630D02*
Y58418D01*
X78255Y28900D02*
X79043D01*
X78649Y28506D02*
Y29294D01*
X70806Y21363D02*
X71594D01*
X71200Y20970D02*
Y21757D01*
X43806Y64900D02*
X44594D01*
X44200Y64506D02*
Y65294D01*
X44722Y27916D02*
X45509D01*
X45116Y27522D02*
Y28309D01*
X44606Y54200D02*
X45394D01*
X45000Y53806D02*
Y54594D01*
X50606Y50500D02*
X51394D01*
X51000Y50106D02*
Y50894D01*
X39606Y48500D02*
X40394D01*
X40000Y48106D02*
Y48894D01*
X61606Y52000D02*
X62394D01*
X62000Y51606D02*
Y52394D01*
X75356Y49800D02*
X76144D01*
X75750Y49406D02*
Y50194D01*
X71106Y26400D02*
X71894D01*
X71500Y26006D02*
Y26794D01*
X47206Y28000D02*
X47994D01*
X47600Y27606D02*
Y28394D01*
X65106Y70000D02*
X65894D01*
X65500Y69606D02*
Y70394D01*
X56006Y39900D02*
X56794D01*
X56400Y39506D02*
Y40294D01*
X53406Y38100D02*
X54194D01*
X53800Y37706D02*
Y38494D01*
X32506Y75100D02*
X33294D01*
X32900Y74706D02*
Y75494D01*
X30706Y75100D02*
X31494D01*
X31100Y74706D02*
Y75494D01*
X47606Y48000D02*
X48394D01*
X48000Y47606D02*
Y48394D01*
X82333Y40872D02*
X83120D01*
X82726Y40478D02*
Y41265D01*
X74340Y41500D02*
X75128D01*
X74734Y41106D02*
Y41894D01*
X63006Y28500D02*
X63794D01*
X63400Y28106D02*
Y28894D01*
X70706Y29400D02*
X71494D01*
X71100Y29006D02*
Y29794D01*
X68206Y30300D02*
X68994D01*
X68600Y29906D02*
Y30694D01*
X55106Y26100D02*
X55894D01*
X55500Y25706D02*
Y26494D01*
X58606Y33000D02*
X59394D01*
X59000Y32606D02*
Y33394D01*
X70106Y18200D02*
X70894D01*
X70500Y17806D02*
Y18594D01*
X52106Y21000D02*
X52894D01*
X52500Y20606D02*
Y21394D01*
X31606Y27500D02*
X32394D01*
X32000Y27106D02*
Y27894D01*
X19106Y44250D02*
X19894D01*
X19500Y43856D02*
Y44644D01*
X67606Y50500D02*
X68394D01*
X68000Y50106D02*
Y50894D01*
X31106Y81000D02*
X31894D01*
X31500Y80606D02*
Y81394D01*
X33106Y81000D02*
X33894D01*
X33500Y80606D02*
Y81394D01*
X41106Y27500D02*
X41894D01*
X41500Y27106D02*
Y27894D01*
X76606Y14000D02*
X77394D01*
X77000Y13606D02*
Y14394D01*
X76606Y12000D02*
X77394D01*
X77000Y11606D02*
Y12394D01*
X75106Y35500D02*
X75894D01*
X75500Y35106D02*
Y35894D01*
X50106Y25500D02*
X50894D01*
X50500Y25106D02*
Y25894D01*
X78106Y41000D02*
X78894D01*
X78500Y40606D02*
Y41394D01*
X67606Y58000D02*
X68394D01*
X68000Y57606D02*
Y58394D01*
X31606Y14500D02*
X32394D01*
X32000Y14106D02*
Y14894D01*
X31606Y18937D02*
X32393D01*
X31999Y18544D02*
Y19331D01*
X45748Y13842D02*
X46535D01*
X46142Y13449D02*
Y14236D01*
X76803Y20500D02*
X77591D01*
X77197Y20106D02*
Y20894D01*
X81106Y46350D02*
X81894D01*
X81500Y45956D02*
Y46744D01*
X68799Y37031D02*
X69587D01*
X69193Y36638D02*
Y37425D01*
X37606Y56500D02*
X38394D01*
X38000Y56106D02*
Y56894D01*
X37606Y54500D02*
X38394D01*
X38000Y54106D02*
Y54894D01*
X67606Y60000D02*
X68394D01*
X68000Y59606D02*
Y60394D01*
X22206Y56500D02*
X22994D01*
X22600Y56106D02*
Y56894D01*
X24206Y56500D02*
X24994D01*
X24600Y56106D02*
Y56894D01*
X24206Y54500D02*
X24994D01*
X24600Y54106D02*
Y54894D01*
X35606Y54500D02*
X36394D01*
X36000Y54106D02*
Y54894D01*
X35606Y56500D02*
X36394D01*
X36000Y56106D02*
Y56894D01*
X57331Y60567D02*
X58118D01*
X57724Y60173D02*
Y60961D01*
X65586Y44410D02*
X66374D01*
X65980Y44016D02*
Y44804D01*
X26957Y47532D02*
X28138D01*
X27547Y46941D02*
Y48122D01*
X26957Y51468D02*
X28138D01*
X27547Y50878D02*
Y52059D01*
X32862Y51468D02*
X34043D01*
X33453Y50878D02*
Y52059D01*
X32862Y47532D02*
X34043D01*
X33453Y46941D02*
Y48122D01*
X29909Y49500D02*
X31091D01*
X30500Y48909D02*
Y50091D01*
M02*
