M48
;Layer_Color=9474304
;FILE_FORMAT=2:5
INCH,LZ
;TYPE=PLATED
T1F00S00C0.00787
T2F00S00C0.01181
T3F00S00C0.01575
T5F00S00C0.03150
%
T01
X00195Y0017
Y0019
X0021Y00245
X0023
X00245Y00277
Y00295
X00269Y00329
X00209
X0018
X00195Y004425
X00226Y00545
Y00565
X00246
Y00545
X0036
X0038
Y00565
X0036
X004455Y0058024
X0045Y00542
X0048Y0048
X00531Y00481
X00555
X00579
X0062Y0052
X0068Y00505
Y0058
Y006
X00775
X00798Y00599
X00822
X007348Y0065358
X00702Y00692
X00655Y007
X0055717Y0063114
X0057724Y0060567
X00524Y00571
X0051Y00505
X004Y00485
X00442Y00649
X005Y00663
Y00688
X0047728Y0069591
X00329Y00751
X00311
X00315Y0081
X00335
X00329Y00303
X00309
X0032Y00275
X0031999Y0018937
X0032Y00145
X0046142Y0013842
X00525Y0021
X00505Y00255
X00476Y0028
X0045116Y0027916
X00415Y00275
X00555Y00261
X00642
X00634Y00285
Y00218
X00712Y0021363
X00705Y00182
X0077197Y00205
X0077Y0014
Y0012
X0078649Y00289
X00711Y00294
X00715Y00264
X00686Y00303
X0069193Y0037031
X00755Y00355
X0074734Y00415
X00785Y0041
X0082726Y0040872
X00815Y004635
X007575Y00498
X006598Y004441
X00564Y00399
X00538Y00381
X0059Y0033
T02
X0027547Y0047532
Y0051468
X00305Y00495
X0033453Y0051468
Y0047532
T03
X0037205Y007311
X0040945
X0044685
X0048228
X0051772
Y0078622
X0048228
X0055315
X0059055
X0062795
Y007311
X0059055
X0040945Y0078622
X0037205
T05
X0018583Y0073189
Y0081063
X0026457
Y0073189
X0073543
Y0081063
X0081417
Y0073189
M30
