G04*
G04 #@! TF.GenerationSoftware,Altium Limited,Altium Designer,19.1.5 (86)*
G04*
G04 Layer_Color=65535*
%FSLAX25Y25*%
%MOIN*%
G70*
G01*
G75*
%ADD10C,0.00394*%
%ADD11C,0.00500*%
%ADD12C,0.00400*%
%ADD13C,0.00031*%
%ADD14C,0.00787*%
%ADD15C,0.00984*%
%ADD16C,0.00800*%
%ADD17R,0.03937X0.00787*%
%ADD18R,0.00787X0.03150*%
G36*
X13595Y22031D02*
Y24000D01*
X14185D01*
X15366Y22819D01*
Y22031D01*
X13595D01*
D02*
G37*
G36*
X31004Y24331D02*
Y24057D01*
X31214Y23550D01*
X31601Y23163D01*
X32108Y22953D01*
X32382D01*
X32656D01*
X33162Y23163D01*
X33550Y23550D01*
X33760Y24057D01*
Y24331D01*
Y24605D01*
X33550Y25111D01*
X33162Y25499D01*
X32656Y25709D01*
X32382D01*
X32108D01*
X31601Y25499D01*
X31214Y25111D01*
X31004Y24605D01*
Y24331D01*
D01*
D02*
G37*
G36*
X66240D02*
Y24057D01*
X66450Y23550D01*
X66838Y23163D01*
X67344Y22953D01*
X67618D01*
X67892D01*
X68399Y23163D01*
X68786Y23550D01*
X68996Y24057D01*
Y24331D01*
Y24605D01*
X68786Y25111D01*
X68399Y25499D01*
X67892Y25709D01*
X67618D01*
X67344D01*
X66838Y25499D01*
X66450Y25111D01*
X66240Y24605D01*
Y24331D01*
D01*
D02*
G37*
G36*
X59000Y65500D02*
X58801D01*
X58434Y65652D01*
X58152Y65934D01*
X58000Y66301D01*
Y66500D01*
Y66699D01*
X58152Y67066D01*
X58434Y67348D01*
X58801Y67500D01*
X59000D01*
X59199D01*
X59566Y67348D01*
X59848Y67066D01*
X60000Y66699D01*
Y66500D01*
Y66301D01*
X59848Y65934D01*
X59566Y65652D01*
X59199Y65500D01*
X59000D01*
D01*
D02*
G37*
G36*
X63833Y25005D02*
X63879Y25001D01*
X63932Y24997D01*
X63993Y24993D01*
X64119Y24978D01*
X64253Y24955D01*
X64387Y24925D01*
X64513Y24882D01*
Y24206D01*
X64509Y24210D01*
X64498Y24214D01*
X64478Y24226D01*
X64456Y24237D01*
X64425Y24252D01*
X64387Y24268D01*
X64345Y24287D01*
X64295Y24306D01*
X64242Y24321D01*
X64184Y24340D01*
X64123Y24355D01*
X64058Y24371D01*
X63913Y24394D01*
X63841Y24397D01*
X63760Y24401D01*
X63714D01*
X63680Y24397D01*
X63642Y24394D01*
X63592Y24386D01*
X63543Y24374D01*
X63485Y24363D01*
X63424Y24348D01*
X63363Y24329D01*
X63298Y24302D01*
X63237Y24271D01*
X63172Y24237D01*
X63107Y24195D01*
X63050Y24149D01*
X62993Y24096D01*
X62989Y24092D01*
X62981Y24080D01*
X62966Y24065D01*
X62947Y24042D01*
X62928Y24012D01*
X62901Y23973D01*
X62878Y23931D01*
X62851Y23882D01*
X62824Y23824D01*
X62798Y23767D01*
X62771Y23698D01*
X62752Y23629D01*
X62733Y23553D01*
X62717Y23469D01*
X62710Y23385D01*
X62706Y23293D01*
Y23290D01*
Y23270D01*
Y23247D01*
X62710Y23213D01*
X62714Y23171D01*
X62721Y23125D01*
X62729Y23072D01*
X62740Y23015D01*
X62756Y22957D01*
X62771Y22892D01*
X62794Y22827D01*
X62821Y22762D01*
X62851Y22697D01*
X62889Y22636D01*
X62931Y22575D01*
X62977Y22518D01*
X62981Y22514D01*
X62989Y22506D01*
X63004Y22491D01*
X63027Y22472D01*
X63054Y22449D01*
X63088Y22426D01*
X63130Y22400D01*
X63172Y22373D01*
X63222Y22342D01*
X63279Y22316D01*
X63340Y22293D01*
X63405Y22270D01*
X63478Y22251D01*
X63554Y22235D01*
X63634Y22228D01*
X63718Y22224D01*
X63760D01*
X63791Y22228D01*
X63829Y22231D01*
X63875Y22235D01*
X63925Y22243D01*
X63982Y22251D01*
X64039Y22262D01*
X64104Y22273D01*
X64238Y22312D01*
X64307Y22338D01*
X64375Y22365D01*
X64444Y22396D01*
X64513Y22434D01*
Y21796D01*
X64509D01*
X64498Y21788D01*
X64475Y21781D01*
X64448Y21769D01*
X64414Y21758D01*
X64372Y21743D01*
X64322Y21727D01*
X64265Y21712D01*
X64200Y21693D01*
X64131Y21678D01*
X64055Y21662D01*
X63971Y21651D01*
X63883Y21639D01*
X63787Y21632D01*
X63688Y21628D01*
X63581Y21624D01*
X63546D01*
X63508Y21628D01*
X63459Y21632D01*
X63398Y21639D01*
X63325Y21647D01*
X63245Y21662D01*
X63157Y21678D01*
X63065Y21700D01*
X62970Y21731D01*
X62870Y21765D01*
X62771Y21811D01*
X62675Y21861D01*
X62580Y21918D01*
X62488Y21987D01*
X62404Y22063D01*
X62400Y22067D01*
X62385Y22082D01*
X62366Y22109D01*
X62335Y22144D01*
X62305Y22189D01*
X62267Y22243D01*
X62229Y22304D01*
X62190Y22377D01*
X62148Y22457D01*
X62110Y22545D01*
X62072Y22644D01*
X62041Y22747D01*
X62011Y22862D01*
X61992Y22980D01*
X61976Y23110D01*
X61973Y23244D01*
Y23247D01*
Y23251D01*
Y23263D01*
Y23278D01*
X61976Y23320D01*
X61980Y23374D01*
X61988Y23438D01*
X61999Y23515D01*
X62015Y23599D01*
X62034Y23695D01*
X62060Y23790D01*
X62091Y23893D01*
X62129Y24000D01*
X62179Y24107D01*
X62232Y24210D01*
X62297Y24317D01*
X62374Y24417D01*
X62458Y24512D01*
X62465Y24516D01*
X62481Y24535D01*
X62507Y24558D01*
X62546Y24588D01*
X62595Y24627D01*
X62653Y24669D01*
X62721Y24714D01*
X62798Y24760D01*
X62882Y24806D01*
X62977Y24852D01*
X63080Y24894D01*
X63191Y24932D01*
X63310Y24963D01*
X63436Y24986D01*
X63569Y25005D01*
X63711Y25009D01*
X63791D01*
X63833Y25005D01*
D02*
G37*
G36*
X56510D02*
X56556Y25001D01*
X56609Y24997D01*
X56670Y24993D01*
X56796Y24978D01*
X56930Y24955D01*
X57064Y24925D01*
X57190Y24882D01*
Y24206D01*
X57186Y24210D01*
X57175Y24214D01*
X57156Y24226D01*
X57133Y24237D01*
X57102Y24252D01*
X57064Y24268D01*
X57022Y24287D01*
X56972Y24306D01*
X56919Y24321D01*
X56861Y24340D01*
X56800Y24355D01*
X56735Y24371D01*
X56590Y24394D01*
X56518Y24397D01*
X56437Y24401D01*
X56392D01*
X56357Y24397D01*
X56319Y24394D01*
X56269Y24386D01*
X56220Y24374D01*
X56162Y24363D01*
X56101Y24348D01*
X56040Y24329D01*
X55975Y24302D01*
X55914Y24271D01*
X55849Y24237D01*
X55784Y24195D01*
X55727Y24149D01*
X55670Y24096D01*
X55666Y24092D01*
X55658Y24080D01*
X55643Y24065D01*
X55624Y24042D01*
X55605Y24012D01*
X55578Y23973D01*
X55555Y23931D01*
X55528Y23882D01*
X55502Y23824D01*
X55475Y23767D01*
X55448Y23698D01*
X55429Y23629D01*
X55410Y23553D01*
X55395Y23469D01*
X55387Y23385D01*
X55383Y23293D01*
Y23290D01*
Y23270D01*
Y23247D01*
X55387Y23213D01*
X55391Y23171D01*
X55398Y23125D01*
X55406Y23072D01*
X55418Y23015D01*
X55433Y22957D01*
X55448Y22892D01*
X55471Y22827D01*
X55498Y22762D01*
X55528Y22697D01*
X55567Y22636D01*
X55608Y22575D01*
X55654Y22518D01*
X55658Y22514D01*
X55666Y22506D01*
X55681Y22491D01*
X55704Y22472D01*
X55731Y22449D01*
X55765Y22426D01*
X55807Y22400D01*
X55849Y22373D01*
X55899Y22342D01*
X55956Y22316D01*
X56017Y22293D01*
X56082Y22270D01*
X56155Y22251D01*
X56231Y22235D01*
X56311Y22228D01*
X56395Y22224D01*
X56437D01*
X56468Y22228D01*
X56506Y22231D01*
X56552Y22235D01*
X56602Y22243D01*
X56659Y22251D01*
X56716Y22262D01*
X56781Y22273D01*
X56915Y22312D01*
X56984Y22338D01*
X57052Y22365D01*
X57121Y22396D01*
X57190Y22434D01*
Y21796D01*
X57186D01*
X57175Y21788D01*
X57152Y21781D01*
X57125Y21769D01*
X57091Y21758D01*
X57049Y21743D01*
X56999Y21727D01*
X56942Y21712D01*
X56877Y21693D01*
X56808Y21678D01*
X56732Y21662D01*
X56647Y21651D01*
X56560Y21639D01*
X56464Y21632D01*
X56365Y21628D01*
X56258Y21624D01*
X56223D01*
X56185Y21628D01*
X56136Y21632D01*
X56075Y21639D01*
X56002Y21647D01*
X55922Y21662D01*
X55834Y21678D01*
X55742Y21700D01*
X55647Y21731D01*
X55547Y21765D01*
X55448Y21811D01*
X55352Y21861D01*
X55257Y21918D01*
X55165Y21987D01*
X55081Y22063D01*
X55077Y22067D01*
X55062Y22082D01*
X55043Y22109D01*
X55013Y22144D01*
X54982Y22189D01*
X54944Y22243D01*
X54906Y22304D01*
X54867Y22377D01*
X54825Y22457D01*
X54787Y22545D01*
X54749Y22644D01*
X54718Y22747D01*
X54688Y22862D01*
X54669Y22980D01*
X54654Y23110D01*
X54650Y23244D01*
Y23247D01*
Y23251D01*
Y23263D01*
Y23278D01*
X54654Y23320D01*
X54657Y23374D01*
X54665Y23438D01*
X54676Y23515D01*
X54692Y23599D01*
X54711Y23695D01*
X54738Y23790D01*
X54768Y23893D01*
X54806Y24000D01*
X54856Y24107D01*
X54909Y24210D01*
X54974Y24317D01*
X55051Y24417D01*
X55135Y24512D01*
X55142Y24516D01*
X55158Y24535D01*
X55185Y24558D01*
X55223Y24588D01*
X55272Y24627D01*
X55330Y24669D01*
X55398Y24714D01*
X55475Y24760D01*
X55559Y24806D01*
X55654Y24852D01*
X55757Y24894D01*
X55868Y24932D01*
X55987Y24963D01*
X56113Y24986D01*
X56246Y25005D01*
X56388Y25009D01*
X56468D01*
X56510Y25005D01*
D02*
G37*
G36*
X49187D02*
X49233Y25001D01*
X49286Y24997D01*
X49347Y24993D01*
X49474Y24978D01*
X49607Y24955D01*
X49741Y24925D01*
X49867Y24882D01*
Y24206D01*
X49863Y24210D01*
X49852Y24214D01*
X49833Y24226D01*
X49810Y24237D01*
X49779Y24252D01*
X49741Y24268D01*
X49699Y24287D01*
X49649Y24306D01*
X49596Y24321D01*
X49538Y24340D01*
X49477Y24355D01*
X49412Y24371D01*
X49267Y24394D01*
X49195Y24397D01*
X49115Y24401D01*
X49069D01*
X49034Y24397D01*
X48996Y24394D01*
X48946Y24386D01*
X48897Y24374D01*
X48839Y24363D01*
X48778Y24348D01*
X48717Y24329D01*
X48652Y24302D01*
X48591Y24271D01*
X48526Y24237D01*
X48461Y24195D01*
X48404Y24149D01*
X48347Y24096D01*
X48343Y24092D01*
X48335Y24080D01*
X48320Y24065D01*
X48301Y24042D01*
X48282Y24012D01*
X48255Y23973D01*
X48232Y23931D01*
X48205Y23882D01*
X48179Y23824D01*
X48152Y23767D01*
X48125Y23698D01*
X48106Y23629D01*
X48087Y23553D01*
X48072Y23469D01*
X48064Y23385D01*
X48060Y23293D01*
Y23290D01*
Y23270D01*
Y23247D01*
X48064Y23213D01*
X48068Y23171D01*
X48075Y23125D01*
X48083Y23072D01*
X48094Y23015D01*
X48110Y22957D01*
X48125Y22892D01*
X48148Y22827D01*
X48175Y22762D01*
X48205Y22697D01*
X48243Y22636D01*
X48285Y22575D01*
X48331Y22518D01*
X48335Y22514D01*
X48343Y22506D01*
X48358Y22491D01*
X48381Y22472D01*
X48408Y22449D01*
X48442Y22426D01*
X48484Y22400D01*
X48526Y22373D01*
X48576Y22342D01*
X48633Y22316D01*
X48694Y22293D01*
X48759Y22270D01*
X48832Y22251D01*
X48908Y22235D01*
X48988Y22228D01*
X49073Y22224D01*
X49115D01*
X49145Y22228D01*
X49183Y22231D01*
X49229Y22235D01*
X49279Y22243D01*
X49336Y22251D01*
X49393Y22262D01*
X49458Y22273D01*
X49592Y22312D01*
X49661Y22338D01*
X49729Y22365D01*
X49798Y22396D01*
X49867Y22434D01*
Y21796D01*
X49863D01*
X49852Y21788D01*
X49829Y21781D01*
X49802Y21769D01*
X49768Y21758D01*
X49726Y21743D01*
X49676Y21727D01*
X49619Y21712D01*
X49554Y21693D01*
X49485Y21678D01*
X49409Y21662D01*
X49325Y21651D01*
X49237Y21639D01*
X49141Y21632D01*
X49042Y21628D01*
X48935Y21624D01*
X48901D01*
X48862Y21628D01*
X48813Y21632D01*
X48752Y21639D01*
X48679Y21647D01*
X48599Y21662D01*
X48511Y21678D01*
X48419Y21700D01*
X48324Y21731D01*
X48224Y21765D01*
X48125Y21811D01*
X48030Y21861D01*
X47934Y21918D01*
X47842Y21987D01*
X47758Y22063D01*
X47755Y22067D01*
X47739Y22082D01*
X47720Y22109D01*
X47690Y22144D01*
X47659Y22189D01*
X47621Y22243D01*
X47583Y22304D01*
X47545Y22377D01*
X47502Y22457D01*
X47464Y22545D01*
X47426Y22644D01*
X47396Y22747D01*
X47365Y22862D01*
X47346Y22980D01*
X47330Y23110D01*
X47327Y23244D01*
Y23247D01*
Y23251D01*
Y23263D01*
Y23278D01*
X47330Y23320D01*
X47334Y23374D01*
X47342Y23438D01*
X47354Y23515D01*
X47369Y23599D01*
X47388Y23695D01*
X47415Y23790D01*
X47445Y23893D01*
X47483Y24000D01*
X47533Y24107D01*
X47587Y24210D01*
X47651Y24317D01*
X47728Y24417D01*
X47812Y24512D01*
X47820Y24516D01*
X47835Y24535D01*
X47861Y24558D01*
X47900Y24588D01*
X47949Y24627D01*
X48007Y24669D01*
X48075Y24714D01*
X48152Y24760D01*
X48236Y24806D01*
X48331Y24852D01*
X48434Y24894D01*
X48545Y24932D01*
X48664Y24963D01*
X48790Y24986D01*
X48924Y25005D01*
X49065Y25009D01*
X49145D01*
X49187Y25005D01*
D02*
G37*
G36*
X41864D02*
X41910Y25001D01*
X41963Y24997D01*
X42025Y24993D01*
X42151Y24978D01*
X42284Y24955D01*
X42418Y24925D01*
X42544Y24882D01*
Y24206D01*
X42540Y24210D01*
X42529Y24214D01*
X42510Y24226D01*
X42487Y24237D01*
X42456Y24252D01*
X42418Y24268D01*
X42376Y24287D01*
X42326Y24306D01*
X42273Y24321D01*
X42216Y24340D01*
X42154Y24355D01*
X42090Y24371D01*
X41944Y24394D01*
X41872Y24397D01*
X41791Y24401D01*
X41746D01*
X41711Y24397D01*
X41673Y24394D01*
X41623Y24386D01*
X41574Y24374D01*
X41517Y24363D01*
X41455Y24348D01*
X41394Y24329D01*
X41329Y24302D01*
X41268Y24271D01*
X41203Y24237D01*
X41138Y24195D01*
X41081Y24149D01*
X41024Y24096D01*
X41020Y24092D01*
X41012Y24080D01*
X40997Y24065D01*
X40978Y24042D01*
X40959Y24012D01*
X40932Y23973D01*
X40909Y23931D01*
X40882Y23882D01*
X40856Y23824D01*
X40829Y23767D01*
X40802Y23698D01*
X40783Y23629D01*
X40764Y23553D01*
X40749Y23469D01*
X40741Y23385D01*
X40737Y23293D01*
Y23290D01*
Y23270D01*
Y23247D01*
X40741Y23213D01*
X40745Y23171D01*
X40753Y23125D01*
X40760Y23072D01*
X40772Y23015D01*
X40787Y22957D01*
X40802Y22892D01*
X40825Y22827D01*
X40852Y22762D01*
X40882Y22697D01*
X40921Y22636D01*
X40963Y22575D01*
X41008Y22518D01*
X41012Y22514D01*
X41020Y22506D01*
X41035Y22491D01*
X41058Y22472D01*
X41085Y22449D01*
X41119Y22426D01*
X41161Y22400D01*
X41203Y22373D01*
X41253Y22342D01*
X41310Y22316D01*
X41371Y22293D01*
X41436Y22270D01*
X41509Y22251D01*
X41585Y22235D01*
X41666Y22228D01*
X41750Y22224D01*
X41791D01*
X41822Y22228D01*
X41860Y22231D01*
X41906Y22235D01*
X41956Y22243D01*
X42013Y22251D01*
X42070Y22262D01*
X42135Y22273D01*
X42269Y22312D01*
X42338Y22338D01*
X42407Y22365D01*
X42475Y22396D01*
X42544Y22434D01*
Y21796D01*
X42540D01*
X42529Y21788D01*
X42506Y21781D01*
X42479Y21769D01*
X42445Y21758D01*
X42403Y21743D01*
X42353Y21727D01*
X42296Y21712D01*
X42231Y21693D01*
X42162Y21678D01*
X42086Y21662D01*
X42002Y21651D01*
X41914Y21639D01*
X41818Y21632D01*
X41719Y21628D01*
X41612Y21624D01*
X41578D01*
X41539Y21628D01*
X41490Y21632D01*
X41429Y21639D01*
X41356Y21647D01*
X41276Y21662D01*
X41188Y21678D01*
X41096Y21700D01*
X41001Y21731D01*
X40901Y21765D01*
X40802Y21811D01*
X40707Y21861D01*
X40611Y21918D01*
X40519Y21987D01*
X40435Y22063D01*
X40432Y22067D01*
X40416Y22082D01*
X40397Y22109D01*
X40367Y22144D01*
X40336Y22189D01*
X40298Y22243D01*
X40260Y22304D01*
X40222Y22377D01*
X40179Y22457D01*
X40141Y22545D01*
X40103Y22644D01*
X40073Y22747D01*
X40042Y22862D01*
X40023Y22980D01*
X40008Y23110D01*
X40004Y23244D01*
Y23247D01*
Y23251D01*
Y23263D01*
Y23278D01*
X40008Y23320D01*
X40011Y23374D01*
X40019Y23438D01*
X40031Y23515D01*
X40046Y23599D01*
X40065Y23695D01*
X40092Y23790D01*
X40122Y23893D01*
X40160Y24000D01*
X40210Y24107D01*
X40264Y24210D01*
X40328Y24317D01*
X40405Y24417D01*
X40489Y24512D01*
X40497Y24516D01*
X40512Y24535D01*
X40539Y24558D01*
X40577Y24588D01*
X40626Y24627D01*
X40684Y24669D01*
X40753Y24714D01*
X40829Y24760D01*
X40913Y24806D01*
X41008Y24852D01*
X41112Y24894D01*
X41222Y24932D01*
X41341Y24963D01*
X41467Y24986D01*
X41600Y25005D01*
X41742Y25009D01*
X41822D01*
X41864Y25005D01*
D02*
G37*
G36*
X59085Y22961D02*
Y22953D01*
Y22934D01*
Y22900D01*
X59081Y22854D01*
X59077Y22801D01*
X59069Y22736D01*
X59058Y22667D01*
X59047Y22594D01*
X59031Y22514D01*
X59012Y22434D01*
X58985Y22350D01*
X58959Y22270D01*
X58924Y22186D01*
X58882Y22109D01*
X58836Y22037D01*
X58783Y21968D01*
X58779Y21964D01*
X58768Y21953D01*
X58752Y21937D01*
X58729Y21914D01*
X58695Y21888D01*
X58661Y21861D01*
X58615Y21826D01*
X58565Y21796D01*
X58508Y21765D01*
X58443Y21735D01*
X58374Y21704D01*
X58298Y21678D01*
X58214Y21655D01*
X58126Y21639D01*
X58030Y21628D01*
X57927Y21624D01*
X57885D01*
X57862Y21628D01*
X57839D01*
X57778Y21635D01*
X57706Y21643D01*
X57629Y21658D01*
X57549Y21678D01*
X57469Y21704D01*
Y22361D01*
X57473D01*
X57477Y22354D01*
X57488Y22350D01*
X57499Y22338D01*
X57538Y22319D01*
X57591Y22293D01*
X57648Y22266D01*
X57721Y22247D01*
X57797Y22231D01*
X57881Y22224D01*
X57904D01*
X57927Y22228D01*
X57962Y22235D01*
X58000Y22247D01*
X58042Y22266D01*
X58088Y22289D01*
X58134Y22319D01*
X58179Y22361D01*
X58225Y22411D01*
X58267Y22472D01*
X58305Y22545D01*
X58340Y22633D01*
X58351Y22682D01*
X58363Y22736D01*
X58374Y22793D01*
X58382Y22854D01*
X58386Y22919D01*
Y22988D01*
Y24951D01*
X59085D01*
Y22961D01*
D02*
G37*
G36*
X51762D02*
Y22953D01*
Y22934D01*
Y22900D01*
X51758Y22854D01*
X51754Y22801D01*
X51746Y22736D01*
X51735Y22667D01*
X51723Y22594D01*
X51708Y22514D01*
X51689Y22434D01*
X51662Y22350D01*
X51636Y22270D01*
X51601Y22186D01*
X51559Y22109D01*
X51513Y22037D01*
X51460Y21968D01*
X51456Y21964D01*
X51445Y21953D01*
X51429Y21937D01*
X51407Y21914D01*
X51372Y21888D01*
X51338Y21861D01*
X51292Y21826D01*
X51242Y21796D01*
X51185Y21765D01*
X51120Y21735D01*
X51051Y21704D01*
X50975Y21678D01*
X50891Y21655D01*
X50803Y21639D01*
X50707Y21628D01*
X50604Y21624D01*
X50562D01*
X50539Y21628D01*
X50516D01*
X50455Y21635D01*
X50383Y21643D01*
X50306Y21658D01*
X50226Y21678D01*
X50146Y21704D01*
Y22361D01*
X50150D01*
X50153Y22354D01*
X50165Y22350D01*
X50176Y22338D01*
X50215Y22319D01*
X50268Y22293D01*
X50325Y22266D01*
X50398Y22247D01*
X50474Y22231D01*
X50558Y22224D01*
X50581D01*
X50604Y22228D01*
X50639Y22235D01*
X50677Y22247D01*
X50719Y22266D01*
X50765Y22289D01*
X50811Y22319D01*
X50856Y22361D01*
X50902Y22411D01*
X50944Y22472D01*
X50982Y22545D01*
X51017Y22633D01*
X51028Y22682D01*
X51040Y22736D01*
X51051Y22793D01*
X51059Y22854D01*
X51063Y22919D01*
Y22988D01*
Y24951D01*
X51762D01*
Y22961D01*
D02*
G37*
G36*
X44439D02*
Y22953D01*
Y22934D01*
Y22900D01*
X44435Y22854D01*
X44431Y22801D01*
X44423Y22736D01*
X44412Y22667D01*
X44401Y22594D01*
X44385Y22514D01*
X44366Y22434D01*
X44339Y22350D01*
X44313Y22270D01*
X44278Y22186D01*
X44236Y22109D01*
X44190Y22037D01*
X44137Y21968D01*
X44133Y21964D01*
X44122Y21953D01*
X44107Y21937D01*
X44083Y21914D01*
X44049Y21888D01*
X44015Y21861D01*
X43969Y21826D01*
X43919Y21796D01*
X43862Y21765D01*
X43797Y21735D01*
X43728Y21704D01*
X43652Y21678D01*
X43568Y21655D01*
X43480Y21639D01*
X43385Y21628D01*
X43281Y21624D01*
X43239D01*
X43216Y21628D01*
X43194D01*
X43132Y21635D01*
X43060Y21643D01*
X42983Y21658D01*
X42903Y21678D01*
X42823Y21704D01*
Y22361D01*
X42827D01*
X42831Y22354D01*
X42842Y22350D01*
X42854Y22338D01*
X42892Y22319D01*
X42945Y22293D01*
X43003Y22266D01*
X43075Y22247D01*
X43152Y22231D01*
X43235Y22224D01*
X43258D01*
X43281Y22228D01*
X43316Y22235D01*
X43354Y22247D01*
X43396Y22266D01*
X43442Y22289D01*
X43488Y22319D01*
X43534Y22361D01*
X43579Y22411D01*
X43621Y22472D01*
X43659Y22545D01*
X43694Y22633D01*
X43705Y22682D01*
X43717Y22736D01*
X43728Y22793D01*
X43736Y22854D01*
X43740Y22919D01*
Y22988D01*
Y24951D01*
X44439D01*
Y22961D01*
D02*
G37*
G36*
X37116D02*
Y22953D01*
Y22934D01*
Y22900D01*
X37112Y22854D01*
X37108Y22801D01*
X37101Y22736D01*
X37089Y22667D01*
X37078Y22594D01*
X37062Y22514D01*
X37043Y22434D01*
X37016Y22350D01*
X36990Y22270D01*
X36955Y22186D01*
X36913Y22109D01*
X36868Y22037D01*
X36814Y21968D01*
X36810Y21964D01*
X36799Y21953D01*
X36783Y21937D01*
X36761Y21914D01*
X36726Y21888D01*
X36692Y21861D01*
X36646Y21826D01*
X36596Y21796D01*
X36539Y21765D01*
X36474Y21735D01*
X36405Y21704D01*
X36329Y21678D01*
X36245Y21655D01*
X36157Y21639D01*
X36061Y21628D01*
X35958Y21624D01*
X35916D01*
X35893Y21628D01*
X35871D01*
X35809Y21635D01*
X35737Y21643D01*
X35660Y21658D01*
X35580Y21678D01*
X35500Y21704D01*
Y22361D01*
X35504D01*
X35508Y22354D01*
X35519Y22350D01*
X35531Y22338D01*
X35569Y22319D01*
X35622Y22293D01*
X35680Y22266D01*
X35752Y22247D01*
X35829Y22231D01*
X35913Y22224D01*
X35936D01*
X35958Y22228D01*
X35993Y22235D01*
X36031Y22247D01*
X36073Y22266D01*
X36119Y22289D01*
X36165Y22319D01*
X36211Y22361D01*
X36256Y22411D01*
X36298Y22472D01*
X36337Y22545D01*
X36371Y22633D01*
X36382Y22682D01*
X36394Y22736D01*
X36405Y22793D01*
X36413Y22854D01*
X36417Y22919D01*
Y22988D01*
Y24951D01*
X37116D01*
Y22961D01*
D02*
G37*
G36*
X60506Y22247D02*
X61732D01*
Y21678D01*
X59811D01*
Y24951D01*
X60506D01*
Y22247D01*
D02*
G37*
G36*
X53183D02*
X54409D01*
Y21678D01*
X52487D01*
Y24951D01*
X53183D01*
Y22247D01*
D02*
G37*
G36*
X45860D02*
X47086D01*
Y21678D01*
X45165D01*
Y24951D01*
X45860D01*
Y22247D01*
D02*
G37*
G36*
X38537D02*
X39763D01*
Y21678D01*
X37842D01*
Y24951D01*
X38537D01*
Y22247D01*
D02*
G37*
D10*
X33760Y24331D02*
G03*
X33760Y24331I-1378J0D01*
G01*
X68996D02*
G03*
X68996Y24331I-1378J0D01*
G01*
X87102Y34110D02*
G03*
X87102Y34110I-197J0D01*
G01*
D11*
X68532Y11547D02*
G03*
X69516Y10563I984J0D01*
G01*
Y18437D02*
G03*
X68532Y17453I0J-984D01*
G01*
X72469D02*
G03*
X71484Y18437I-984J0D01*
G01*
Y10563D02*
G03*
X72469Y11547I0J984D01*
G01*
X61047Y49968D02*
G03*
X60063Y48984I0J-984D01*
G01*
X67937D02*
G03*
X66953Y49968I-984J0D01*
G01*
Y46031D02*
G03*
X67937Y47016I0J984D01*
G01*
X60063D02*
G03*
X61047Y46031I984J0D01*
G01*
X53047Y52668D02*
G03*
X52063Y51684I0J-984D01*
G01*
X59937D02*
G03*
X58953Y52668I-984J0D01*
G01*
Y48731D02*
G03*
X59937Y49716I0J984D01*
G01*
X52063D02*
G03*
X53047Y48731I984J0D01*
G01*
X14000Y11500D02*
G03*
X15000Y10500I1000J0D01*
G01*
Y15500D02*
G03*
X14000Y14500I0J-1000D01*
G01*
X25000D02*
G03*
X24000Y15500I-1000J0D01*
G01*
Y10500D02*
G03*
X25000Y11500I0J1000D01*
G01*
X14000Y35500D02*
G03*
X15000Y34500I1000J0D01*
G01*
Y39500D02*
G03*
X14000Y38500I0J-1000D01*
G01*
X25000D02*
G03*
X24000Y39500I-1000J0D01*
G01*
Y34500D02*
G03*
X25000Y35500I0J1000D01*
G01*
X73500Y34500D02*
G03*
X72500Y33500I0J-1000D01*
G01*
X77500D02*
G03*
X76500Y34500I-1000J0D01*
G01*
Y23500D02*
G03*
X77500Y24500I0J1000D01*
G01*
X72500D02*
G03*
X73500Y23500I1000J0D01*
G01*
X78031Y23547D02*
G03*
X79016Y22563I984J0D01*
G01*
Y30437D02*
G03*
X78031Y29453I0J-984D01*
G01*
X81968D02*
G03*
X80984Y30437I-984J0D01*
G01*
Y22563D02*
G03*
X81968Y23547I0J984D01*
G01*
X25000Y43500D02*
G03*
X24000Y44500I-1000J0D01*
G01*
Y39500D02*
G03*
X25000Y40500I0J1000D01*
G01*
X14000D02*
G03*
X15000Y39500I1000J0D01*
G01*
Y44500D02*
G03*
X14000Y43500I0J-1000D01*
G01*
X25000Y48500D02*
G03*
X24000Y49500I-1000J0D01*
G01*
Y44500D02*
G03*
X25000Y45500I0J1000D01*
G01*
X14000D02*
G03*
X15000Y44500I1000J0D01*
G01*
Y49500D02*
G03*
X14000Y48500I0J-1000D01*
G01*
X22031Y50547D02*
G03*
X23016Y49563I984J0D01*
G01*
Y57437D02*
G03*
X22031Y56453I0J-984D01*
G01*
X25969D02*
G03*
X24984Y57437I-984J0D01*
G01*
Y49563D02*
G03*
X25969Y50547I0J984D01*
G01*
X18032D02*
G03*
X19016Y49563I984J0D01*
G01*
Y57437D02*
G03*
X18032Y56453I0J-984D01*
G01*
X21969D02*
G03*
X20984Y57437I-984J0D01*
G01*
Y49563D02*
G03*
X21969Y50547I0J984D01*
G01*
X48047Y65469D02*
G03*
X47063Y64484I0J-984D01*
G01*
X54937D02*
G03*
X53953Y65469I-984J0D01*
G01*
Y61532D02*
G03*
X54937Y62516I0J984D01*
G01*
X47063D02*
G03*
X48047Y61532I984J0D01*
G01*
X28969Y43453D02*
G03*
X27984Y44437I-984J0D01*
G01*
Y36563D02*
G03*
X28969Y37547I0J984D01*
G01*
X25032D02*
G03*
X26016Y36563I984J0D01*
G01*
Y44437D02*
G03*
X25032Y43453I0J-984D01*
G01*
X42953Y43532D02*
G03*
X43937Y44516I0J984D01*
G01*
X36063D02*
G03*
X37047Y43532I984J0D01*
G01*
Y47469D02*
G03*
X36063Y46484I0J-984D01*
G01*
X43937D02*
G03*
X42953Y47469I-984J0D01*
G01*
X50953Y48731D02*
G03*
X51937Y49716I0J984D01*
G01*
X44063D02*
G03*
X45047Y48731I984J0D01*
G01*
Y52668D02*
G03*
X44063Y51684I0J-984D01*
G01*
X51937D02*
G03*
X50953Y52668I-984J0D01*
G01*
X45047Y47469D02*
G03*
X44063Y46484I0J-984D01*
G01*
X51937D02*
G03*
X50953Y47469I-984J0D01*
G01*
Y43532D02*
G03*
X51937Y44516I0J984D01*
G01*
X44063D02*
G03*
X45047Y43532I984J0D01*
G01*
X74000Y51150D02*
G03*
X73000Y52150I-1000J0D01*
G01*
X70000D02*
G03*
X69000Y51150I0J-1000D01*
G01*
Y44850D02*
G03*
X70000Y43850I1000J0D01*
G01*
X73000D02*
G03*
X74000Y44850I0J1000D01*
G01*
X67716Y9984D02*
Y16457D01*
X32283Y9984D02*
Y16457D01*
X28839Y22047D02*
X32283Y16457D01*
X29507Y44407D02*
X30807Y43107D01*
X32107Y44407D01*
X29507D02*
X32107D01*
X67716Y16457D02*
X71161Y22047D01*
X28839D02*
Y40472D01*
X71161Y22047D02*
Y40472D01*
X69516Y18437D02*
X71484D01*
X68532Y11547D02*
Y17453D01*
X69516Y10563D02*
X71484D01*
X72469Y11547D02*
Y17453D01*
X67937Y47016D02*
Y48984D01*
X61047Y49968D02*
X66953D01*
X60063Y47016D02*
Y48984D01*
X61047Y46031D02*
X66953D01*
X59937Y49716D02*
Y51684D01*
X53047Y52668D02*
X58953D01*
X52063Y49716D02*
Y51684D01*
X53047Y48731D02*
X58953D01*
X15000Y10500D02*
X24000D01*
X14000Y11500D02*
Y14500D01*
X15000Y15500D02*
X24000D01*
X25000Y11500D02*
Y14500D01*
X74638Y18825D02*
X79362D01*
X74638Y22175D02*
X79362D01*
X76213Y19516D02*
X77197Y20500D01*
X76213Y19516D02*
Y21484D01*
X77197Y20500D01*
X76803Y12500D02*
X77787Y11516D01*
Y13484D01*
X76803Y12500D02*
X77787Y13484D01*
X74638Y10825D02*
X79362D01*
X74638Y14175D02*
X79362D01*
X74638Y14825D02*
X79362D01*
X74638Y18175D02*
X79362D01*
X76213Y15516D02*
X77197Y16500D01*
X76213Y15516D02*
Y17484D01*
X77197Y16500D01*
X15000Y34500D02*
X24000D01*
X14000Y35500D02*
Y38500D01*
X15000Y39500D02*
X24000D01*
X25000Y35500D02*
Y38500D01*
X72500Y24500D02*
Y33500D01*
X73500Y34500D02*
X76500D01*
X77500Y24500D02*
Y33500D01*
X73500Y23500D02*
X76500D01*
X71531Y43937D02*
X75468D01*
X71531Y36063D02*
Y43937D01*
Y36063D02*
X75468D01*
Y43937D01*
X14000Y62500D02*
X25000D01*
X14000D02*
Y67500D01*
X25000D01*
Y62500D02*
Y67500D01*
X85937Y30531D02*
Y34468D01*
X78063D02*
X85937D01*
X78063Y30531D02*
Y34468D01*
Y30531D02*
X85937D01*
X79016Y30437D02*
X80984D01*
X78031Y23547D02*
Y29453D01*
X79016Y22563D02*
X80984D01*
X81968Y23547D02*
Y29453D01*
X15000Y44500D02*
X24000D01*
X25000Y40500D02*
Y43500D01*
X15000Y39500D02*
X24000D01*
X14000Y40500D02*
Y43500D01*
X15000Y49500D02*
X24000D01*
X25000Y45500D02*
Y48500D01*
X15000Y44500D02*
X24000D01*
X14000Y45500D02*
Y48500D01*
X18500Y62500D02*
X20500D01*
X18500Y57500D02*
X20500D01*
X23016Y57437D02*
X24984D01*
X22031Y50547D02*
Y56453D01*
X23016Y49563D02*
X24984D01*
X25969Y50547D02*
Y56453D01*
X19016Y57437D02*
X20984D01*
X18032Y50547D02*
Y56453D01*
X19016Y49563D02*
X20984D01*
X21969Y50547D02*
Y56453D01*
X14031Y49563D02*
X17968D01*
Y57437D01*
X14031D02*
X17968D01*
X14031Y49563D02*
Y57437D01*
X74032Y47563D02*
X77969D01*
Y55437D01*
X74032D02*
X77969D01*
X74032Y47563D02*
Y55437D01*
X74079Y68906D02*
X78016D01*
X74079Y61032D02*
Y68906D01*
Y61032D02*
X78016D01*
Y68906D01*
X78079D02*
X82016D01*
X78079Y61032D02*
Y68906D01*
Y61032D02*
X82016D01*
Y68906D01*
X82079D02*
X86016D01*
X82079Y61032D02*
Y68906D01*
Y61032D02*
X86016D01*
Y68906D01*
X34800Y70500D02*
Y81500D01*
X29800Y70500D02*
X34800D01*
X29800D02*
Y81500D01*
X34800D01*
X54937Y62516D02*
Y64484D01*
X48047Y65469D02*
X53953D01*
X47063Y62516D02*
Y64484D01*
X48047Y61532D02*
X53953D01*
X26016Y36563D02*
X27984D01*
X28969Y37547D02*
Y43453D01*
X26016Y44437D02*
X27984D01*
X25032Y37547D02*
Y43453D01*
X52063Y43532D02*
Y47469D01*
Y43532D02*
X59937D01*
Y47469D01*
X52063D02*
X59937D01*
X65531Y72063D02*
X69468D01*
Y79937D01*
X65531D02*
X69468D01*
X65531Y72063D02*
Y79937D01*
X35531Y65937D02*
X39469D01*
X35531Y58063D02*
Y65937D01*
Y58063D02*
X39469D01*
Y65937D01*
X49063Y52732D02*
Y56669D01*
Y52732D02*
X56937D01*
Y56669D01*
X49063D02*
X56937D01*
X48563Y57531D02*
Y61468D01*
Y57531D02*
X56437D01*
Y61468D01*
X48563D02*
X56437D01*
X78031Y47563D02*
X81968D01*
Y55437D01*
X78031D02*
X81968D01*
X78031Y47563D02*
Y55437D01*
X82032Y47563D02*
X85969D01*
Y55437D01*
X82032D02*
X85969D01*
X82032Y47563D02*
Y55437D01*
X36063Y44516D02*
Y46484D01*
X37047Y43532D02*
X42953D01*
X43937Y44516D02*
Y46484D01*
X37047Y47469D02*
X42953D01*
X44063Y49716D02*
Y51684D01*
X45047Y48731D02*
X50953D01*
X51937Y49716D02*
Y51684D01*
X45047Y52668D02*
X50953D01*
X51937Y44516D02*
Y46484D01*
X45047Y47469D02*
X50953D01*
X44063Y44516D02*
Y46484D01*
X45047Y43532D02*
X50953D01*
X74000Y44850D02*
Y51150D01*
X70000Y52150D02*
X73000D01*
X69000Y44850D02*
Y51150D01*
X70000Y43850D02*
X73000D01*
D12*
X81500Y58700D02*
G03*
X80500Y59700I-1000J0D01*
G01*
X79500D02*
G03*
X78500Y58700I0J-1000D01*
G01*
X80500Y55800D02*
G03*
X81500Y56800I0J1000D01*
G01*
X78500D02*
G03*
X79500Y55800I1000J0D01*
G01*
X85500Y58700D02*
G03*
X84500Y59700I-1000J0D01*
G01*
X83500D02*
G03*
X82500Y58700I0J-1000D01*
G01*
X84500Y55800D02*
G03*
X85500Y56800I0J1000D01*
G01*
X82500D02*
G03*
X83500Y55800I1000J0D01*
G01*
X77500Y58700D02*
G03*
X76500Y59700I-1000J0D01*
G01*
X75500D02*
G03*
X74500Y58700I0J-1000D01*
G01*
X76500Y55800D02*
G03*
X77500Y56800I0J1000D01*
G01*
X74500D02*
G03*
X75500Y55800I1000J0D01*
G01*
X81500Y56800D02*
Y58700D01*
X79500Y59700D02*
X80500D01*
X79500Y55800D02*
X80500D01*
X78500Y56800D02*
Y58700D01*
X85500Y56800D02*
Y58700D01*
X83500Y59700D02*
X84500D01*
X83500Y55800D02*
X84500D01*
X82500Y56800D02*
Y58700D01*
X77500Y56800D02*
Y58700D01*
X75500Y59700D02*
X76500D01*
X75500Y55800D02*
X76500D01*
X74500Y56800D02*
Y58700D01*
D13*
X60000Y66500D02*
G03*
X60000Y66500I-1000J0D01*
G01*
D14*
X15366Y22228D02*
G03*
X13595Y24000I-1772J0D01*
G01*
X85724Y34701D02*
X86315Y35291D01*
X75685Y34701D02*
X85724D01*
X86315Y35291D02*
Y47299D01*
X75685D02*
X86315D01*
X75685Y34701D02*
Y47299D01*
X15366Y22031D02*
Y22228D01*
X13595Y25969D02*
X25405D01*
X13595Y22031D02*
X25405D01*
Y25969D01*
X13595Y22031D02*
Y25969D01*
D15*
X13201Y19669D02*
G03*
X13201Y19669I-492J0D01*
G01*
D16*
X30725Y61622D02*
X32300Y63984D01*
X30725Y61622D02*
X33875D01*
X32300Y63984D02*
X33875Y61622D01*
X29544Y59063D02*
Y66937D01*
X35056Y59063D02*
Y66937D01*
X70394Y65994D02*
X72395D01*
Y64891D02*
Y65994D01*
Y52994D02*
Y54097D01*
X70394Y52994D02*
X72395D01*
X59595D02*
X61594D01*
X59595D02*
Y54097D01*
D17*
X32300Y64378D02*
D03*
D18*
X77687Y20500D02*
D03*
X76313Y12500D02*
D03*
X77687Y16500D02*
D03*
M02*
