G04*
G04 #@! TF.GenerationSoftware,Altium Limited,Altium Designer,19.1.5 (86)*
G04*
G04 Layer_Physical_Order=1*
G04 Layer_Color=255*
%FSLAX25Y25*%
%MOIN*%
G70*
G01*
G75*
%ADD11C,0.00500*%
%ADD12C,0.00400*%
%ADD19R,0.01260X0.10000*%
G04:AMPARAMS|DCode=20|XSize=23.62mil|YSize=23.62mil|CornerRadius=2.36mil|HoleSize=0mil|Usage=FLASHONLY|Rotation=270.000|XOffset=0mil|YOffset=0mil|HoleType=Round|Shape=RoundedRectangle|*
%AMROUNDEDRECTD20*
21,1,0.02362,0.01890,0,0,270.0*
21,1,0.01890,0.02362,0,0,270.0*
1,1,0.00472,-0.00945,-0.00945*
1,1,0.00472,-0.00945,0.00945*
1,1,0.00472,0.00945,0.00945*
1,1,0.00472,0.00945,-0.00945*
%
%ADD20ROUNDEDRECTD20*%
G04:AMPARAMS|DCode=21|XSize=35.43mil|YSize=31.5mil|CornerRadius=3.94mil|HoleSize=0mil|Usage=FLASHONLY|Rotation=270.000|XOffset=0mil|YOffset=0mil|HoleType=Round|Shape=RoundedRectangle|*
%AMROUNDEDRECTD21*
21,1,0.03543,0.02362,0,0,270.0*
21,1,0.02756,0.03150,0,0,270.0*
1,1,0.00787,-0.01181,-0.01378*
1,1,0.00787,-0.01181,0.01378*
1,1,0.00787,0.01181,0.01378*
1,1,0.00787,0.01181,-0.01378*
%
%ADD21ROUNDEDRECTD21*%
G04:AMPARAMS|DCode=22|XSize=23.62mil|YSize=23.62mil|CornerRadius=2.36mil|HoleSize=0mil|Usage=FLASHONLY|Rotation=180.000|XOffset=0mil|YOffset=0mil|HoleType=Round|Shape=RoundedRectangle|*
%AMROUNDEDRECTD22*
21,1,0.02362,0.01890,0,0,180.0*
21,1,0.01890,0.02362,0,0,180.0*
1,1,0.00472,-0.00945,0.00945*
1,1,0.00472,0.00945,0.00945*
1,1,0.00472,0.00945,-0.00945*
1,1,0.00472,-0.00945,-0.00945*
%
%ADD22ROUNDEDRECTD22*%
G04:AMPARAMS|DCode=23|XSize=35mil|YSize=35mil|CornerRadius=3.5mil|HoleSize=0mil|Usage=FLASHONLY|Rotation=180.000|XOffset=0mil|YOffset=0mil|HoleType=Round|Shape=RoundedRectangle|*
%AMROUNDEDRECTD23*
21,1,0.03500,0.02800,0,0,180.0*
21,1,0.02800,0.03500,0,0,180.0*
1,1,0.00700,-0.01400,0.01400*
1,1,0.00700,0.01400,0.01400*
1,1,0.00700,0.01400,-0.01400*
1,1,0.00700,-0.01400,-0.01400*
%
%ADD23ROUNDEDRECTD23*%
G04:AMPARAMS|DCode=24|XSize=23.62mil|YSize=27.56mil|CornerRadius=2.95mil|HoleSize=0mil|Usage=FLASHONLY|Rotation=0.000|XOffset=0mil|YOffset=0mil|HoleType=Round|Shape=RoundedRectangle|*
%AMROUNDEDRECTD24*
21,1,0.02362,0.02165,0,0,0.0*
21,1,0.01772,0.02756,0,0,0.0*
1,1,0.00591,0.00886,-0.01083*
1,1,0.00591,-0.00886,-0.01083*
1,1,0.00591,-0.00886,0.01083*
1,1,0.00591,0.00886,0.01083*
%
%ADD24ROUNDEDRECTD24*%
G04:AMPARAMS|DCode=25|XSize=35mil|YSize=35mil|CornerRadius=3.5mil|HoleSize=0mil|Usage=FLASHONLY|Rotation=90.000|XOffset=0mil|YOffset=0mil|HoleType=Round|Shape=RoundedRectangle|*
%AMROUNDEDRECTD25*
21,1,0.03500,0.02800,0,0,90.0*
21,1,0.02800,0.03500,0,0,90.0*
1,1,0.00700,0.01400,0.01400*
1,1,0.00700,0.01400,-0.01400*
1,1,0.00700,-0.01400,-0.01400*
1,1,0.00700,-0.01400,0.01400*
%
%ADD25ROUNDEDRECTD25*%
G04:AMPARAMS|DCode=26|XSize=35mil|YSize=35mil|CornerRadius=4.38mil|HoleSize=0mil|Usage=FLASHONLY|Rotation=180.000|XOffset=0mil|YOffset=0mil|HoleType=Round|Shape=RoundedRectangle|*
%AMROUNDEDRECTD26*
21,1,0.03500,0.02625,0,0,180.0*
21,1,0.02625,0.03500,0,0,180.0*
1,1,0.00875,-0.01313,0.01313*
1,1,0.00875,0.01313,0.01313*
1,1,0.00875,0.01313,-0.01313*
1,1,0.00875,-0.01313,-0.01313*
%
%ADD26ROUNDEDRECTD26*%
%ADD27R,0.03150X0.03543*%
G04:AMPARAMS|DCode=28|XSize=10mil|YSize=16mil|CornerRadius=2.5mil|HoleSize=0mil|Usage=FLASHONLY|Rotation=270.000|XOffset=0mil|YOffset=0mil|HoleType=Round|Shape=RoundedRectangle|*
%AMROUNDEDRECTD28*
21,1,0.01000,0.01100,0,0,270.0*
21,1,0.00500,0.01600,0,0,270.0*
1,1,0.00500,-0.00550,-0.00250*
1,1,0.00500,-0.00550,0.00250*
1,1,0.00500,0.00550,0.00250*
1,1,0.00500,0.00550,-0.00250*
%
%ADD28ROUNDEDRECTD28*%
G04:AMPARAMS|DCode=29|XSize=35mil|YSize=35mil|CornerRadius=4.38mil|HoleSize=0mil|Usage=FLASHONLY|Rotation=270.000|XOffset=0mil|YOffset=0mil|HoleType=Round|Shape=RoundedRectangle|*
%AMROUNDEDRECTD29*
21,1,0.03500,0.02625,0,0,270.0*
21,1,0.02625,0.03500,0,0,270.0*
1,1,0.00875,-0.01313,-0.01313*
1,1,0.00875,-0.01313,0.01313*
1,1,0.00875,0.01313,0.01313*
1,1,0.00875,0.01313,-0.01313*
%
%ADD29ROUNDEDRECTD29*%
%ADD30R,0.02756X0.01102*%
%ADD31R,0.01102X0.02756*%
G04:AMPARAMS|DCode=32|XSize=16mil|YSize=35mil|CornerRadius=2.4mil|HoleSize=0mil|Usage=FLASHONLY|Rotation=90.000|XOffset=0mil|YOffset=0mil|HoleType=Round|Shape=RoundedRectangle|*
%AMROUNDEDRECTD32*
21,1,0.01600,0.03020,0,0,90.0*
21,1,0.01120,0.03500,0,0,90.0*
1,1,0.00480,0.01510,0.00560*
1,1,0.00480,0.01510,-0.00560*
1,1,0.00480,-0.01510,-0.00560*
1,1,0.00480,-0.01510,0.00560*
%
%ADD32ROUNDEDRECTD32*%
G04:AMPARAMS|DCode=33|XSize=23.62mil|YSize=43.31mil|CornerRadius=5.91mil|HoleSize=0mil|Usage=FLASHONLY|Rotation=180.000|XOffset=0mil|YOffset=0mil|HoleType=Round|Shape=RoundedRectangle|*
%AMROUNDEDRECTD33*
21,1,0.02362,0.03150,0,0,180.0*
21,1,0.01181,0.04331,0,0,180.0*
1,1,0.01181,-0.00591,0.01575*
1,1,0.01181,0.00591,0.01575*
1,1,0.01181,0.00591,-0.01575*
1,1,0.01181,-0.00591,-0.01575*
%
%ADD33ROUNDEDRECTD33*%
%ADD53C,0.01772*%
%ADD54C,0.01600*%
%ADD55C,0.01000*%
%ADD56C,0.01500*%
%ADD57C,0.01400*%
%ADD58C,0.03000*%
%ADD59C,0.01200*%
%ADD60C,0.02000*%
%ADD61O,0.05118X0.06535*%
%ADD62O,0.05118X0.06535*%
%ADD63O,0.08465X0.03543*%
%ADD64O,0.02992X0.03937*%
%ADD65C,0.01772*%
%ADD66C,0.02362*%
G36*
X79372Y78850D02*
X79347Y78893D01*
X79317Y78922D01*
X79280Y78939D01*
X79238Y78944D01*
X79191Y78935D01*
X79138Y78914D01*
X79079Y78880D01*
X79015Y78834D01*
X78945Y78775D01*
X78870Y78703D01*
X78649Y79189D01*
X78722Y79265D01*
X78785Y79339D01*
X78838Y79409D01*
X78881Y79477D01*
X78915Y79541D01*
X78938Y79603D01*
X78951Y79661D01*
X78954Y79716D01*
X78948Y79768D01*
X78931Y79817D01*
X79372Y78850D01*
D02*
G37*
G36*
X81892Y69980D02*
X81862Y69965D01*
X81836Y69940D01*
X81813Y69906D01*
X81794Y69862D01*
X81778Y69809D01*
X81766Y69746D01*
X81757Y69674D01*
X81752Y69591D01*
X81750Y69500D01*
X81250D01*
X81248Y69589D01*
X81234Y69740D01*
X81221Y69801D01*
X81205Y69852D01*
X81186Y69894D01*
X81163Y69927D01*
X81136Y69950D01*
X81106Y69963D01*
X81072Y69967D01*
X81926Y69985D01*
X81892Y69980D01*
D02*
G37*
G36*
X73966Y69973D02*
X73930Y69958D01*
X73898Y69932D01*
X73870Y69895D01*
X73847Y69848D01*
X73827Y69791D01*
X73813Y69723D01*
X73802Y69645D01*
X73795Y69556D01*
X73793Y69457D01*
X73293D01*
X73291Y69556D01*
X73274Y69723D01*
X73259Y69791D01*
X73240Y69848D01*
X73217Y69895D01*
X73189Y69932D01*
X73157Y69958D01*
X73121Y69973D01*
X73080Y69979D01*
X74006D01*
X73966Y69973D01*
D02*
G37*
G36*
X85719Y85365D02*
Y68883D01*
X85352Y68626D01*
X85219Y68587D01*
X84992Y68633D01*
X83700D01*
X83682Y68645D01*
X83637Y68635D01*
X83595Y68654D01*
X83540Y68633D01*
X83519D01*
X83495Y68650D01*
X83342Y68779D01*
X83252Y68867D01*
X83190Y68892D01*
X82835Y69247D01*
X82893Y69747D01*
X82972Y69817D01*
X83599Y70299D01*
X84089Y70938D01*
X84398Y71682D01*
X84503Y72480D01*
Y73898D01*
X84398Y74696D01*
X84089Y75440D01*
X83599Y76079D01*
X82960Y76570D01*
X82216Y76878D01*
Y77374D01*
X82960Y77682D01*
X83599Y78173D01*
X84089Y78812D01*
X84398Y79556D01*
X84503Y80354D01*
Y81772D01*
X84398Y82570D01*
X84089Y83314D01*
X83599Y83953D01*
X82960Y84444D01*
X82216Y84752D01*
X81417Y84857D01*
X80619Y84752D01*
X79875Y84444D01*
X79236Y83953D01*
X78745Y83314D01*
X78437Y82570D01*
X78332Y81772D01*
Y80354D01*
X78412Y79747D01*
X78394Y79719D01*
X78363Y79679D01*
X78320Y79629D01*
X78257Y79562D01*
X78233Y79502D01*
X76959Y78227D01*
X76793Y77979D01*
X76735Y77687D01*
Y75492D01*
X76235Y75392D01*
X76215Y75440D01*
X75725Y76079D01*
X75086Y76570D01*
X74342Y76878D01*
Y77374D01*
X75086Y77682D01*
X75725Y78173D01*
X76215Y78812D01*
X76524Y79556D01*
X76629Y80354D01*
Y81772D01*
X76524Y82570D01*
X76215Y83314D01*
X75725Y83953D01*
X75086Y84444D01*
X74342Y84752D01*
X73543Y84857D01*
X72745Y84752D01*
X72001Y84444D01*
X71362Y83953D01*
X70871Y83314D01*
X70563Y82570D01*
X70458Y81772D01*
Y80354D01*
X70563Y79556D01*
X70871Y78812D01*
X71362Y78173D01*
X72001Y77682D01*
X72745Y77374D01*
Y76878D01*
X72001Y76570D01*
X71362Y76079D01*
X70871Y75440D01*
X70563Y74696D01*
X70458Y73898D01*
Y72480D01*
X70563Y71682D01*
X70850Y70988D01*
X70764Y70810D01*
X70542Y70545D01*
X70200Y70613D01*
X69659Y70505D01*
X69201Y70199D01*
X68895Y69741D01*
X68849Y69513D01*
X68791Y69422D01*
X68782Y69374D01*
X68774Y69346D01*
X68764Y69316D01*
X68751Y69284D01*
X68733Y69250D01*
X68711Y69213D01*
X68688Y69180D01*
X68609Y69084D01*
X68562Y69034D01*
X68543Y68985D01*
X67247Y67690D01*
X67027Y67359D01*
X66970Y67077D01*
X66927Y66978D01*
X66926Y66890D01*
X62980D01*
Y64628D01*
X62839Y64553D01*
X62366Y64488D01*
Y64488D01*
X60697D01*
X60687Y64496D01*
X60646Y64492D01*
X60611Y64512D01*
X60518Y64488D01*
X60220D01*
X60124Y64543D01*
X60005Y64625D01*
X59683Y64896D01*
X59499Y65073D01*
X59449Y65093D01*
X58821Y65721D01*
X58490Y65942D01*
X58100Y66020D01*
X54469D01*
X54078Y65942D01*
X53836Y65780D01*
X53736Y65740D01*
X53289Y65300D01*
X53175Y65196D01*
X52024D01*
X51736Y65138D01*
X51493Y64976D01*
X51330Y64732D01*
X51273Y64445D01*
Y62555D01*
X50835Y62196D01*
X47957D01*
X47664Y62138D01*
X47416Y61972D01*
X45053Y59609D01*
X45024Y59604D01*
X45010Y59595D01*
X45003Y59593D01*
X44994Y59586D01*
X44978Y59578D01*
X44938Y59562D01*
X44892Y59547D01*
X44472Y59456D01*
X44344Y59436D01*
X44245Y59377D01*
X44009Y59330D01*
X43551Y59023D01*
X43245Y58565D01*
X43137Y58024D01*
X43245Y57484D01*
X43551Y57025D01*
X44009Y56719D01*
X44550Y56611D01*
X45091Y56719D01*
X45549Y57025D01*
X45855Y57484D01*
X45902Y57719D01*
X45962Y57818D01*
X45983Y57954D01*
X46026Y58184D01*
X46070Y58358D01*
X46088Y58412D01*
X46104Y58452D01*
X46111Y58468D01*
X46119Y58477D01*
X46121Y58484D01*
X46130Y58499D01*
X46135Y58527D01*
X48195Y60588D01*
X48734Y60570D01*
X48836Y60445D01*
Y58555D01*
X48893Y58268D01*
X49056Y58024D01*
X49299Y57862D01*
X49587Y57805D01*
X49896D01*
X49915Y57802D01*
X49924Y57805D01*
X49955D01*
X49969Y57801D01*
X50054Y57767D01*
X50175Y57700D01*
X50315Y57608D01*
X50875Y57137D01*
X50884Y57126D01*
X50911Y57087D01*
X50933Y57050D01*
X50950Y57016D01*
X50964Y56984D01*
X50974Y56954D01*
X50982Y56926D01*
X50987Y56896D01*
X50989Y56875D01*
X50898Y56639D01*
X50648Y56396D01*
X50087D01*
X49799Y56338D01*
X49556Y56176D01*
X49393Y55932D01*
X49336Y55645D01*
Y53755D01*
X49123Y53496D01*
X46786D01*
X46585Y53697D01*
X46580Y53725D01*
X46571Y53740D01*
X46569Y53747D01*
X46561Y53756D01*
X46554Y53772D01*
X46538Y53812D01*
X46523Y53857D01*
X46432Y54278D01*
X46412Y54406D01*
X46352Y54505D01*
X46305Y54741D01*
X45999Y55199D01*
X45541Y55505D01*
X45000Y55613D01*
X44459Y55505D01*
X44001Y55199D01*
X43695Y54741D01*
X43587Y54200D01*
X43695Y53659D01*
X44001Y53201D01*
X44459Y52895D01*
X44695Y52848D01*
X44720Y52832D01*
X44764Y52558D01*
X44730Y52292D01*
X44556Y52176D01*
X44393Y51932D01*
X44336Y51645D01*
Y49755D01*
X44393Y49468D01*
X44556Y49224D01*
X44799Y49062D01*
X44925Y49037D01*
X44936Y49007D01*
X44956Y48929D01*
X44974Y48819D01*
X44986Y48679D01*
X44991Y48499D01*
X45012Y48450D01*
Y47750D01*
X44991Y47701D01*
X44986Y47521D01*
X44974Y47381D01*
X44956Y47271D01*
X44936Y47193D01*
X44925Y47163D01*
X44799Y47138D01*
X44556Y46976D01*
X44393Y46732D01*
X44336Y46445D01*
Y45855D01*
X44309Y45811D01*
X44320Y45768D01*
X44303Y45727D01*
X44336Y45646D01*
Y45623D01*
X44164Y45478D01*
X43664Y45709D01*
Y46445D01*
X43607Y46732D01*
X43444Y46976D01*
X43201Y47138D01*
X42913Y47196D01*
X41374D01*
X41129Y47695D01*
X41305Y47959D01*
X41413Y48500D01*
X41305Y49041D01*
X40999Y49499D01*
X40541Y49805D01*
X40305Y49852D01*
X40206Y49912D01*
X40070Y49933D01*
X39841Y49976D01*
X39666Y50020D01*
X39612Y50038D01*
X39572Y50054D01*
X39556Y50061D01*
X39547Y50069D01*
X39540Y50071D01*
X39525Y50080D01*
X39497Y50085D01*
X38765Y50817D01*
Y53024D01*
X38782Y53047D01*
X38785Y53064D01*
X38789Y53071D01*
X38790Y53079D01*
X38883Y53117D01*
X38883Y53117D01*
X39383Y53617D01*
X39541Y54000D01*
X39541Y54000D01*
X39541Y57000D01*
X39541Y57000D01*
X39383Y57383D01*
X39383D01*
X38883Y57883D01*
X38883Y57883D01*
X38500Y58041D01*
X38500Y58041D01*
X35500Y58041D01*
X35500Y58041D01*
X35117Y57883D01*
Y57883D01*
X34617Y57383D01*
X34459Y57000D01*
X34459Y57000D01*
X34459Y54000D01*
X34617Y53617D01*
X34617Y53617D01*
X35117Y53117D01*
X35117Y53117D01*
X35500Y52959D01*
X35500Y52959D01*
X37235D01*
Y50500D01*
X37293Y50207D01*
X37459Y49959D01*
X38415Y49003D01*
X38420Y48974D01*
X38429Y48960D01*
X38431Y48953D01*
X38439Y48944D01*
X38447Y48928D01*
X38462Y48888D01*
X38477Y48842D01*
X38568Y48422D01*
X38588Y48294D01*
X38648Y48195D01*
X38695Y47959D01*
X38871Y47695D01*
X38626Y47196D01*
X37087D01*
X36799Y47138D01*
X36556Y46976D01*
X36393Y46732D01*
X36336Y46445D01*
Y45836D01*
X36322Y45813D01*
X36332Y45769D01*
X36315Y45727D01*
X36336Y45675D01*
Y45392D01*
X36307Y45342D01*
X36221Y45219D01*
X35935Y44882D01*
X35748Y44688D01*
X35728Y44638D01*
X35204Y44115D01*
X34983Y43784D01*
X34927Y43499D01*
X33942D01*
X32721Y44721D01*
X32390Y44942D01*
X32000Y45020D01*
X28532D01*
X28141Y44942D01*
X27903Y44783D01*
X27802Y44743D01*
X27314Y44273D01*
X27189Y44164D01*
X26055D01*
X25768Y44107D01*
X25524Y43944D01*
X25362Y43701D01*
X25304Y43413D01*
Y41524D01*
X25362Y41236D01*
X25524Y40993D01*
X25768Y40830D01*
X26055Y40773D01*
X27537D01*
X28037Y40311D01*
Y40302D01*
X27945Y40227D01*
X26055D01*
X25768Y40170D01*
X25524Y40007D01*
X25362Y39764D01*
X25304Y39476D01*
Y37587D01*
X25362Y37299D01*
X25524Y37056D01*
X25768Y36893D01*
X26055Y36836D01*
X27945D01*
X28037Y36854D01*
X28469Y36583D01*
X28537Y36495D01*
Y33845D01*
X28037Y33693D01*
X27899Y33899D01*
X27441Y34205D01*
X26900Y34313D01*
X26359Y34205D01*
X25901Y33899D01*
X25595Y33441D01*
X25487Y32900D01*
X25595Y32359D01*
X25724Y32166D01*
X25747Y32060D01*
X25774Y32020D01*
X25789Y31995D01*
X25803Y31967D01*
X25815Y31935D01*
X25827Y31898D01*
X25838Y31857D01*
X25845Y31817D01*
X25857Y31693D01*
X25859Y31625D01*
X25880Y31576D01*
Y30856D01*
X25449Y30634D01*
X25021Y30876D01*
X24915Y31264D01*
X24903Y31301D01*
X24916Y31336D01*
X24841Y33049D01*
X24825Y33082D01*
Y33617D01*
X24841Y33655D01*
X24841Y33657D01*
X24841Y33658D01*
X24838Y34350D01*
X24835Y34356D01*
X24838Y34363D01*
X24825Y34779D01*
Y36000D01*
X24767Y36296D01*
Y38400D01*
X24701Y38732D01*
X24513Y39013D01*
X24232Y39201D01*
X23900Y39267D01*
X21100D01*
X20768Y39201D01*
X20487Y39013D01*
X20299Y38732D01*
X20233Y38400D01*
Y35600D01*
X20299Y35268D01*
X20487Y34987D01*
X20768Y34799D01*
X20775Y34798D01*
Y34288D01*
X20359Y34205D01*
X19901Y33899D01*
X19735Y33650D01*
X19165D01*
X18999Y33899D01*
X18541Y34205D01*
X18000Y34313D01*
X17459Y34205D01*
X17001Y33899D01*
X16695Y33441D01*
X16587Y32900D01*
X16623Y32718D01*
X16601Y32617D01*
X16602Y32615D01*
X16539Y32511D01*
X16383Y32321D01*
X16331Y32274D01*
X16221Y32199D01*
X15169D01*
X14781Y32121D01*
X14726Y32125D01*
X14281Y32406D01*
Y39524D01*
X14768Y39799D01*
X14781Y39797D01*
X15100Y39733D01*
X17900D01*
X18232Y39799D01*
X18513Y39987D01*
X18701Y40268D01*
X18767Y40600D01*
Y42518D01*
X19267Y42883D01*
X19500Y42837D01*
X20041Y42945D01*
X20499Y43251D01*
X20805Y43709D01*
X20913Y44250D01*
X20805Y44791D01*
X20672Y44991D01*
X20644Y45103D01*
X20563Y45213D01*
X20431Y45406D01*
X20339Y45561D01*
X20313Y45611D01*
X20296Y45651D01*
X20290Y45668D01*
X20289Y45679D01*
X20286Y45686D01*
X20282Y45703D01*
X20265Y45726D01*
Y48356D01*
X20207Y48648D01*
X20041Y48896D01*
X18696Y50241D01*
Y52430D01*
X18991Y52725D01*
X21590D01*
X21882Y52783D01*
X21931Y52816D01*
X22160Y52607D01*
X22297Y52557D01*
X22419Y52476D01*
X22486Y52490D01*
X22550Y52466D01*
X22682Y52529D01*
X22825Y52557D01*
X22979Y52660D01*
X23108Y52686D01*
X24727D01*
X25110Y52844D01*
X25110Y52844D01*
X25883Y53617D01*
X26041Y54000D01*
X26041Y54000D01*
X26041Y61500D01*
X25883Y61883D01*
X25883Y61883D01*
X24883Y62883D01*
X24500Y63041D01*
X24500Y63041D01*
X21000Y63041D01*
X21000Y63041D01*
X20617Y62883D01*
X20503Y62769D01*
X20041Y62960D01*
Y66776D01*
X21883Y68617D01*
X22041Y69000D01*
X22041Y69000D01*
Y75500D01*
X22041Y75500D01*
X21883Y75883D01*
X21883Y75883D01*
X20383Y77383D01*
X20383Y77383D01*
X20000Y77541D01*
X20000Y77541D01*
X14281Y77541D01*
Y85365D01*
X85719Y85365D01*
D02*
G37*
G36*
X70325Y68323D02*
X70256Y68310D01*
X70188Y68293D01*
X70121Y68269D01*
X70054Y68240D01*
X69987Y68206D01*
X69921Y68167D01*
X69855Y68121D01*
X69790Y68071D01*
X69725Y68015D01*
X69661Y67954D01*
X68954Y68661D01*
X69015Y68725D01*
X69121Y68855D01*
X69166Y68921D01*
X69206Y68987D01*
X69240Y69054D01*
X69269Y69121D01*
X69293Y69188D01*
X69310Y69256D01*
X69323Y69325D01*
X70325Y68323D01*
D02*
G37*
G36*
X82978Y68379D02*
X83163Y68222D01*
X83244Y68164D01*
X83318Y68120D01*
X83386Y68091D01*
X83446Y68075D01*
X83498Y68074D01*
X83544Y68086D01*
X83583Y68113D01*
X82872Y67433D01*
X82899Y67470D01*
X82913Y67515D01*
X82912Y67567D01*
X82897Y67627D01*
X82868Y67693D01*
X82824Y67768D01*
X82766Y67850D01*
X82694Y67939D01*
X82506Y68140D01*
X82875Y68478D01*
X82978Y68379D01*
D02*
G37*
G36*
X74978D02*
X75163Y68222D01*
X75244Y68164D01*
X75318Y68120D01*
X75386Y68091D01*
X75445Y68075D01*
X75498Y68074D01*
X75544Y68086D01*
X75582Y68113D01*
X74872Y67433D01*
X74900Y67470D01*
X74913Y67515D01*
X74912Y67567D01*
X74897Y67627D01*
X74868Y67693D01*
X74824Y67768D01*
X74766Y67850D01*
X74694Y67939D01*
X74506Y68140D01*
X74875Y68478D01*
X74978Y68379D01*
D02*
G37*
G36*
X78963Y68378D02*
X79149Y68220D01*
X79230Y68162D01*
X79305Y68119D01*
X79372Y68089D01*
X79431Y68074D01*
X79484Y68072D01*
X79529Y68085D01*
X79567Y68113D01*
X78872Y67418D01*
X78899Y67455D01*
X78912Y67500D01*
X78910Y67553D01*
X78895Y67613D01*
X78866Y67680D01*
X78822Y67754D01*
X78764Y67836D01*
X78692Y67925D01*
X78506Y68125D01*
X78860Y68478D01*
X78963Y68378D01*
D02*
G37*
G36*
X72745Y69500D02*
X72751Y69499D01*
X72752Y69445D01*
X72805Y69326D01*
X72837Y69164D01*
X73003Y68916D01*
X74086Y67833D01*
X74107Y67775D01*
X74109Y67774D01*
X74110Y67771D01*
X74285Y67584D01*
X74334Y67523D01*
X74352Y67498D01*
Y67493D01*
X74331Y67445D01*
X74348Y67402D01*
X74336Y67356D01*
X74352Y67330D01*
Y66998D01*
X73852Y66697D01*
X73480Y66770D01*
X72940Y66663D01*
X72481Y66357D01*
X72175Y65898D01*
X72067Y65358D01*
X72141Y64988D01*
X71839Y64488D01*
X69634D01*
Y62386D01*
X73390D01*
Y63870D01*
X73480Y63945D01*
X73865Y64021D01*
X73899Y64016D01*
X74259Y63779D01*
X74352Y63672D01*
Y62055D01*
X74409Y61768D01*
X74572Y61524D01*
X74815Y61362D01*
X75102Y61304D01*
X75312D01*
X75341Y61160D01*
X75507Y60912D01*
X75915Y60503D01*
X75920Y60474D01*
X75929Y60460D01*
X75931Y60453D01*
X75939Y60444D01*
X75946Y60428D01*
X75962Y60387D01*
X75977Y60343D01*
X76053Y59994D01*
X76024Y59841D01*
X75980Y59666D01*
X75962Y59613D01*
X75953Y59590D01*
X75928Y59569D01*
X75883Y59538D01*
X75852Y59521D01*
X75844Y59517D01*
X75830Y59515D01*
X75830Y59515D01*
X75450D01*
X75157Y59456D01*
X74909Y59291D01*
X74784Y59104D01*
X74580Y59018D01*
X74218Y58964D01*
X73676Y59505D01*
X73667Y59544D01*
X73635Y59563D01*
X73621Y59597D01*
X73541Y59681D01*
X73481Y59749D01*
X73435Y59807D01*
X73404Y59852D01*
X73390Y59876D01*
Y60551D01*
X69634D01*
Y58449D01*
X72497D01*
X72513Y58446D01*
X72658Y58320D01*
X72762Y58219D01*
X72824Y58194D01*
X73235Y57783D01*
Y56614D01*
X69634D01*
Y54512D01*
X70709D01*
X70709Y54510D01*
X70735Y54451D01*
Y51980D01*
X70709Y51921D01*
X70709Y51915D01*
X69990D01*
X69701Y51857D01*
X69466Y51700D01*
X69452Y51692D01*
X69370Y51657D01*
X69295Y51724D01*
X69020Y52110D01*
Y55866D01*
X62980D01*
Y55053D01*
X62978Y55053D01*
X62919Y55027D01*
X56729D01*
X56670Y55053D01*
X56664Y55053D01*
Y55645D01*
X56607Y55932D01*
X56444Y56176D01*
X56201Y56338D01*
X56372Y56779D01*
X56437Y56766D01*
X56437Y56766D01*
X58549D01*
X58608Y56740D01*
X58610Y56740D01*
Y56480D01*
X62366D01*
Y61053D01*
X62751Y61318D01*
X62866Y61347D01*
X63200Y61280D01*
X67100D01*
X67490Y61358D01*
X67821Y61579D01*
X68690Y62448D01*
X68910Y62778D01*
X68981Y63134D01*
X69020D01*
Y66307D01*
X69049Y66378D01*
X69036Y66408D01*
X69037Y66409D01*
X69040Y66420D01*
X69040Y66421D01*
X69045Y66440D01*
X69038Y66453D01*
X69029Y66587D01*
X69985Y67543D01*
X70034Y67562D01*
X70089Y67614D01*
X70133Y67652D01*
X70174Y67684D01*
X70213Y67711D01*
X70250Y67733D01*
X70284Y67751D01*
X70316Y67764D01*
X70346Y67774D01*
X70374Y67782D01*
X70422Y67791D01*
X70513Y67849D01*
X70741Y67895D01*
X71199Y68201D01*
X71505Y68659D01*
X71613Y69200D01*
X71548Y69525D01*
X72001Y69808D01*
X72745Y69500D01*
D02*
G37*
G36*
X68469Y66856D02*
X68500Y66384D01*
X68508Y66378D01*
X67429D01*
X67437Y66384D01*
X67443Y66402D01*
X67449Y66431D01*
X67454Y66472D01*
X67462Y66590D01*
X67469Y66969D01*
X68468D01*
X68469Y66856D01*
D02*
G37*
G36*
X54822Y64647D02*
X54144Y63920D01*
X53389Y64676D01*
X53401Y64678D01*
X53426Y64695D01*
X53464Y64727D01*
X53662Y64908D01*
X54115Y65354D01*
X54822Y64647D01*
D02*
G37*
G36*
X59320Y64494D02*
X59676Y64194D01*
X59836Y64084D01*
X59984Y64000D01*
X60119Y63943D01*
X60242Y63911D01*
X60353Y63907D01*
X60452Y63928D01*
X60538Y63976D01*
X59122Y62898D01*
X59115Y62976D01*
X59094Y63060D01*
X59059Y63152D01*
X59009Y63250D01*
X58946Y63354D01*
X58868Y63465D01*
X58670Y63708D01*
X58549Y63840D01*
X58415Y63978D01*
X59124Y64683D01*
X59320Y64494D01*
D02*
G37*
G36*
X83567Y61824D02*
X83529Y61852D01*
X83484Y61865D01*
X83431Y61863D01*
X83372Y61848D01*
X83305Y61818D01*
X83230Y61775D01*
X83149Y61717D01*
X83060Y61645D01*
X82860Y61459D01*
X82506Y61812D01*
X82606Y61916D01*
X82764Y62101D01*
X82822Y62183D01*
X82866Y62257D01*
X82895Y62324D01*
X82911Y62384D01*
X82912Y62437D01*
X82899Y62482D01*
X82872Y62520D01*
X83567Y61824D01*
D02*
G37*
G36*
X76386Y61821D02*
X76367Y61810D01*
X76351Y61791D01*
X76337Y61765D01*
X76325Y61731D01*
X76315Y61691D01*
X76307Y61642D01*
X76302Y61587D01*
X76297Y61453D01*
X75797D01*
X75796Y61523D01*
X75787Y61642D01*
X75780Y61691D01*
X75770Y61731D01*
X75758Y61765D01*
X75744Y61791D01*
X75727Y61810D01*
X75708Y61821D01*
X75688Y61824D01*
X76407D01*
X76386Y61821D01*
D02*
G37*
G36*
X80051Y61824D02*
X80300D01*
X80252Y61819D01*
X80210Y61804D01*
X80172Y61778D01*
X80140Y61743D01*
X80112Y61696D01*
X80090Y61640D01*
X80072Y61574D01*
X80065Y61529D01*
X80098Y61089D01*
X80123Y61031D01*
X80165Y60949D01*
X80275Y60765D01*
X80421Y60550D01*
X80508Y60432D01*
X80266D01*
X80295Y60395D01*
X79305D01*
X79334Y60432D01*
X79092D01*
X79179Y60550D01*
X79435Y60949D01*
X79477Y61031D01*
X79509Y61105D01*
X79511Y61112D01*
X79528Y61262D01*
X79539Y61505D01*
X79527Y61574D01*
X79510Y61640D01*
X79488Y61696D01*
X79460Y61743D01*
X79427Y61778D01*
X79390Y61804D01*
X79347Y61819D01*
X79300Y61824D01*
X79549D01*
X79550Y61954D01*
X80050D01*
X80051Y61824D01*
D02*
G37*
G36*
X82693Y61167D02*
X82696Y61108D01*
X82705Y61042D01*
X82720Y60970D01*
X82741Y60893D01*
X82800Y60720D01*
X82838Y60624D01*
X82990Y60301D01*
X81595Y60547D01*
X81709Y60655D01*
X82044Y61019D01*
X82098Y61093D01*
X82139Y61160D01*
X82169Y61219D01*
X82187Y61272D01*
X82193Y61317D01*
X82693Y61167D01*
D02*
G37*
G36*
X53385Y60941D02*
X53570Y60783D01*
X53651Y60725D01*
X53726Y60682D01*
X53793Y60652D01*
X53853Y60637D01*
X53905Y60636D01*
X53950Y60649D01*
X53988Y60676D01*
X53293Y59980D01*
X53320Y60018D01*
X53333Y60063D01*
X53332Y60116D01*
X53316Y60176D01*
X53287Y60243D01*
X53243Y60317D01*
X53185Y60399D01*
X53114Y60488D01*
X52927Y60688D01*
X53281Y61041D01*
X53385Y60941D01*
D02*
G37*
G36*
X76740Y61120D02*
X76791Y61088D01*
X76854Y61058D01*
X76929Y61028D01*
X77016Y61000D01*
X77224Y60947D01*
X77479Y60899D01*
X77625Y60877D01*
X76748Y60000D01*
X77625Y59123D01*
X77479Y59101D01*
X77016Y59000D01*
X76929Y58972D01*
X76854Y58942D01*
X76820Y58926D01*
X76788Y58880D01*
X76750Y58811D01*
X76727Y58751D01*
X76720Y58700D01*
X76730Y58657D01*
X76755Y58625D01*
X76796Y58600D01*
X75801Y58996D01*
X75852Y58982D01*
X75907Y58979D01*
X75967Y58988D01*
X76031Y59008D01*
X76099Y59039D01*
X76172Y59081D01*
X76250Y59134D01*
X76331Y59198D01*
X76382Y59243D01*
X76412Y59291D01*
X76442Y59354D01*
X76472Y59429D01*
X76500Y59516D01*
X76553Y59724D01*
X76601Y59979D01*
X76604Y60000D01*
X76601Y60021D01*
X76500Y60484D01*
X76472Y60571D01*
X76442Y60646D01*
X76412Y60709D01*
X76380Y60760D01*
X76346Y60800D01*
X76700Y61154D01*
X76740Y61120D01*
D02*
G37*
G36*
X80502Y59717D02*
X80530Y59284D01*
X80547Y59178D01*
X80568Y59091D01*
X80592Y59024D01*
X80620Y58976D01*
X80652Y58947D01*
X80688Y58938D01*
X79268Y58932D01*
X79236Y58929D01*
X79207Y58949D01*
X79182Y58990D01*
X79160Y59054D01*
X79142Y59139D01*
X79127Y59247D01*
X79107Y59529D01*
X79100Y59900D01*
X80500D01*
X80502Y59717D01*
D02*
G37*
G36*
X72850Y59880D02*
X72846Y59826D01*
X72854Y59767D01*
X72873Y59703D01*
X72904Y59635D01*
X72946Y59562D01*
X73000Y59484D01*
X73066Y59402D01*
X73143Y59314D01*
X73231Y59222D01*
X73139Y58607D01*
X73024Y58719D01*
X72823Y58892D01*
X72738Y58954D01*
X72662Y58999D01*
X72596Y59027D01*
X72540Y59039D01*
X72495Y59033D01*
X72458Y59012D01*
X72432Y58973D01*
X72866Y59929D01*
X72850Y59880D01*
D02*
G37*
G36*
X83098Y59929D02*
X83219Y59481D01*
X83251Y59396D01*
X83284Y59322D01*
X83317Y59260D01*
X83343Y59221D01*
X83481Y59103D01*
X83563Y59045D01*
X83637Y59002D01*
X83704Y58972D01*
X83764Y58957D01*
X83817Y58956D01*
X83862Y58969D01*
X83899Y58996D01*
X83204Y58301D01*
X83232Y58338D01*
X83244Y58383D01*
X83243Y58436D01*
X83228Y58496D01*
X83198Y58563D01*
X83155Y58637D01*
X83097Y58719D01*
X83025Y58808D01*
X83011Y58823D01*
X82973Y58845D01*
X82909Y58873D01*
X82834Y58899D01*
X82745Y58924D01*
X82532Y58967D01*
X82269Y59003D01*
X82119Y59018D01*
X83070Y60068D01*
X83098Y59929D01*
D02*
G37*
G36*
X55617Y58982D02*
X55604Y58937D01*
X55605Y58884D01*
X55621Y58824D01*
X55650Y58757D01*
X55694Y58683D01*
X55752Y58601D01*
X55823Y58512D01*
X56010Y58312D01*
X55656Y57959D01*
X55553Y58059D01*
X55367Y58217D01*
X55286Y58275D01*
X55211Y58318D01*
X55144Y58348D01*
X55084Y58363D01*
X55032Y58364D01*
X54987Y58351D01*
X54949Y58324D01*
X55644Y59020D01*
X55617Y58982D01*
D02*
G37*
G36*
X45704Y58824D02*
X45670Y58785D01*
X45638Y58733D01*
X45608Y58670D01*
X45578Y58595D01*
X45550Y58508D01*
X45497Y58300D01*
X45449Y58045D01*
X45427Y57899D01*
X44425Y58901D01*
X44570Y58923D01*
X45034Y59024D01*
X45121Y59052D01*
X45196Y59082D01*
X45259Y59113D01*
X45310Y59145D01*
X45350Y59178D01*
X45704Y58824D01*
D02*
G37*
G36*
X59134Y57031D02*
X59129Y57078D01*
X59114Y57121D01*
X59088Y57158D01*
X59052Y57191D01*
X59006Y57218D01*
X58950Y57241D01*
X58883Y57258D01*
X58807Y57271D01*
X58719Y57279D01*
X58622Y57281D01*
Y57781D01*
X58719Y57784D01*
X58807Y57791D01*
X58883Y57803D01*
X58950Y57821D01*
X59006Y57844D01*
X59052Y57871D01*
X59088Y57903D01*
X59114Y57941D01*
X59129Y57983D01*
X59134Y58031D01*
Y57031D01*
D02*
G37*
G36*
X51628Y59142D02*
X51582Y59070D01*
X51569Y58979D01*
X51589Y58868D01*
X51642Y58739D01*
X51729Y58590D01*
X51849Y58421D01*
X52001Y58234D01*
X52046Y58186D01*
X52055Y58179D01*
X52121Y58134D01*
X52187Y58094D01*
X52254Y58060D01*
X52321Y58031D01*
X52388Y58007D01*
X52456Y57990D01*
X52525Y57977D01*
X52378Y57831D01*
X52407Y57801D01*
X52247Y57700D01*
X51523Y56975D01*
X51511Y57044D01*
X51493Y57112D01*
X51469Y57179D01*
X51440Y57246D01*
X51406Y57313D01*
X51367Y57379D01*
X51322Y57445D01*
X51271Y57510D01*
X51266Y57516D01*
X50640Y58042D01*
X50455Y58164D01*
X50286Y58256D01*
X50134Y58319D01*
X49997Y58351D01*
X49877Y58353D01*
X49773Y58324D01*
X51707Y59195D01*
X51628Y59142D01*
D02*
G37*
G36*
X84452Y56499D02*
X84410Y56484D01*
X84373Y56458D01*
X84340Y56423D01*
X84312Y56376D01*
X84290Y56320D01*
X84272Y56253D01*
X84260Y56177D01*
X84253Y56090D01*
X84250Y55992D01*
X83750D01*
X83748Y56090D01*
X83740Y56177D01*
X83728Y56253D01*
X83710Y56320D01*
X83688Y56376D01*
X83660Y56423D01*
X83627Y56458D01*
X83590Y56484D01*
X83548Y56499D01*
X83500Y56504D01*
X84500D01*
X84452Y56499D01*
D02*
G37*
G36*
X80453D02*
X80410Y56484D01*
X80373Y56458D01*
X80340Y56423D01*
X80313Y56376D01*
X80290Y56320D01*
X80273Y56253D01*
X80260Y56177D01*
X80252Y56090D01*
X80250Y55992D01*
X79750D01*
X79747Y56090D01*
X79740Y56177D01*
X79728Y56253D01*
X79710Y56320D01*
X79688Y56376D01*
X79660Y56423D01*
X79628Y56458D01*
X79590Y56484D01*
X79548Y56499D01*
X79500Y56504D01*
X80500D01*
X80453Y56499D01*
D02*
G37*
G36*
X76452D02*
X76410Y56484D01*
X76372Y56458D01*
X76340Y56423D01*
X76313Y56376D01*
X76290Y56320D01*
X76272Y56253D01*
X76260Y56177D01*
X76253Y56090D01*
X76250Y55992D01*
X75750D01*
X75748Y56090D01*
X75740Y56177D01*
X75727Y56253D01*
X75710Y56320D01*
X75687Y56376D01*
X75660Y56423D01*
X75627Y56458D01*
X75590Y56484D01*
X75547Y56499D01*
X75500Y56504D01*
X76500D01*
X76452Y56499D01*
D02*
G37*
G36*
X52962Y56410D02*
X52949Y56384D01*
X52937Y56349D01*
X52927Y56306D01*
X52919Y56255D01*
X52907Y56126D01*
X52901Y55963D01*
X52900Y55869D01*
X51900D01*
X51899Y55963D01*
X51881Y56255D01*
X51873Y56306D01*
X51863Y56349D01*
X51851Y56384D01*
X51838Y56410D01*
X51824Y56427D01*
X52976D01*
X52962Y56410D01*
D02*
G37*
G36*
X84253Y55059D02*
X84260Y54972D01*
X84272Y54895D01*
X84290Y54828D01*
X84312Y54772D01*
X84340Y54726D01*
X84373Y54690D01*
X84410Y54664D01*
X84452Y54649D01*
X84500Y54644D01*
X83500D01*
X83548Y54649D01*
X83590Y54664D01*
X83627Y54690D01*
X83660Y54726D01*
X83688Y54772D01*
X83710Y54828D01*
X83728Y54895D01*
X83740Y54972D01*
X83748Y55059D01*
X83750Y55156D01*
X84250D01*
X84253Y55059D01*
D02*
G37*
G36*
X80252D02*
X80260Y54972D01*
X80273Y54895D01*
X80290Y54828D01*
X80313Y54772D01*
X80340Y54726D01*
X80373Y54690D01*
X80410Y54664D01*
X80453Y54649D01*
X80500Y54644D01*
X79500D01*
X79548Y54649D01*
X79590Y54664D01*
X79628Y54690D01*
X79660Y54726D01*
X79688Y54772D01*
X79710Y54828D01*
X79728Y54895D01*
X79740Y54972D01*
X79747Y55059D01*
X79750Y55156D01*
X80250D01*
X80252Y55059D01*
D02*
G37*
G36*
X76253D02*
X76260Y54972D01*
X76272Y54895D01*
X76290Y54828D01*
X76313Y54772D01*
X76340Y54726D01*
X76372Y54690D01*
X76410Y54664D01*
X76452Y54649D01*
X76500Y54644D01*
X75500D01*
X75547Y54649D01*
X75590Y54664D01*
X75627Y54690D01*
X75660Y54726D01*
X75687Y54772D01*
X75710Y54828D01*
X75727Y54895D01*
X75740Y54972D01*
X75748Y55059D01*
X75750Y55156D01*
X76250D01*
X76253Y55059D01*
D02*
G37*
G36*
X71952Y55031D02*
X71910Y55015D01*
X71873Y54990D01*
X71840Y54954D01*
X71812Y54908D01*
X71790Y54852D01*
X71772Y54785D01*
X71760Y54708D01*
X71753Y54621D01*
X71750Y54524D01*
X71250D01*
X71248Y54621D01*
X71240Y54708D01*
X71228Y54785D01*
X71210Y54852D01*
X71188Y54908D01*
X71160Y54954D01*
X71127Y54990D01*
X71090Y55015D01*
X71048Y55031D01*
X71000Y55036D01*
X72000D01*
X71952Y55031D01*
D02*
G37*
G36*
X63504Y53762D02*
X63499Y53809D01*
X63484Y53852D01*
X63458Y53889D01*
X63422Y53922D01*
X63376Y53949D01*
X63320Y53972D01*
X63253Y53989D01*
X63177Y54002D01*
X63090Y54009D01*
X62992Y54012D01*
Y54512D01*
X63090Y54514D01*
X63177Y54522D01*
X63253Y54534D01*
X63320Y54552D01*
X63376Y54574D01*
X63422Y54602D01*
X63458Y54634D01*
X63484Y54672D01*
X63499Y54714D01*
X63504Y54762D01*
Y53762D01*
D02*
G37*
G36*
X56149Y54714D02*
X56164Y54672D01*
X56190Y54634D01*
X56226Y54602D01*
X56272Y54574D01*
X56328Y54552D01*
X56395Y54534D01*
X56472Y54522D01*
X56559Y54514D01*
X56656Y54512D01*
Y54012D01*
X56559Y54009D01*
X56472Y54002D01*
X56395Y53989D01*
X56328Y53972D01*
X56272Y53949D01*
X56226Y53922D01*
X56190Y53889D01*
X56164Y53852D01*
X56149Y53809D01*
X56144Y53762D01*
Y54762D01*
X56149Y54714D01*
D02*
G37*
G36*
X54688Y53524D02*
X54641Y53543D01*
X54589Y53549D01*
X54532Y53543D01*
X54469Y53524D01*
X54401Y53494D01*
X54328Y53451D01*
X54249Y53396D01*
X54165Y53329D01*
X53981Y53159D01*
X53453Y53338D01*
X53558Y53446D01*
X53719Y53635D01*
X53776Y53716D01*
X53818Y53789D01*
X53844Y53852D01*
X53855Y53907D01*
X53850Y53953D01*
X53829Y53991D01*
X53793Y54019D01*
X54688Y53524D01*
D02*
G37*
G36*
X20000Y77000D02*
X21500Y75500D01*
Y69000D01*
X19500Y67000D01*
Y61599D01*
X19459Y61500D01*
X19459Y61500D01*
X19459Y58500D01*
X19617Y58117D01*
X21031Y56704D01*
X21050Y56607D01*
X21129Y56489D01*
X21154Y56360D01*
Y54577D01*
X21129Y54448D01*
X21050Y54330D01*
X21035Y54255D01*
X18674D01*
X18381Y54196D01*
X18133Y54031D01*
X17603Y53500D01*
X14281D01*
Y77000D01*
X20000Y77000D01*
D02*
G37*
G36*
X38500Y57500D02*
X39000Y57000D01*
X39000Y54000D01*
X38500Y53500D01*
X38396D01*
X38365Y53451D01*
X38323Y53369D01*
X38291Y53295D01*
X38268Y53229D01*
X38255Y53170D01*
X38250Y53119D01*
X37750D01*
X37745Y53170D01*
X37732Y53229D01*
X37709Y53295D01*
X37677Y53369D01*
X37635Y53451D01*
X37606Y53500D01*
X35500D01*
X35000Y54000D01*
X35000Y57000D01*
X35500Y57500D01*
X38500Y57500D01*
D02*
G37*
G36*
X45899Y54180D02*
X46000Y53716D01*
X46028Y53629D01*
X46058Y53554D01*
X46088Y53491D01*
X46120Y53440D01*
X46154Y53400D01*
X45800Y53047D01*
X45760Y53080D01*
X45709Y53112D01*
X45646Y53142D01*
X45571Y53172D01*
X45484Y53200D01*
X45276Y53253D01*
X45020Y53301D01*
X44875Y53323D01*
X45877Y54325D01*
X45899Y54180D01*
D02*
G37*
G36*
X25500Y61500D02*
X25500Y54000D01*
X24727Y53227D01*
X23055D01*
X22768Y53170D01*
X22524Y53007D01*
X22172Y53328D01*
X22028Y53472D01*
X21954Y53442D01*
X21891Y53412D01*
X21840Y53380D01*
X21800Y53347D01*
X21447Y53700D01*
X21480Y53740D01*
X21512Y53791D01*
X21542Y53854D01*
X21572Y53928D01*
X21500Y54000D01*
Y54029D01*
X21638Y54236D01*
X21696Y54524D01*
Y56413D01*
X21638Y56701D01*
X21500Y56908D01*
Y57000D01*
X20000Y58500D01*
X20000Y61500D01*
X21000Y62500D01*
X24500Y62500D01*
X25500Y61500D01*
D02*
G37*
G36*
X62978Y53471D02*
X62980Y53471D01*
Y52110D01*
X67015D01*
X67167Y51610D01*
X67001Y51499D01*
X66695Y51041D01*
X66587Y50500D01*
X66648Y50195D01*
X66315Y49696D01*
X65024D01*
X64736Y49638D01*
X64493Y49476D01*
X64330Y49232D01*
X64273Y48945D01*
Y48355D01*
X64246Y48311D01*
X64227Y48281D01*
X63763Y48415D01*
X63727Y48467D01*
Y48945D01*
X63670Y49232D01*
X63507Y49476D01*
X63264Y49638D01*
X62976Y49696D01*
X62368D01*
X62344Y49710D01*
X62300Y49699D01*
X62258Y49717D01*
X62207Y49696D01*
X61923D01*
X61874Y49724D01*
X61751Y49811D01*
X61414Y50097D01*
X61220Y50284D01*
X61170Y50304D01*
X60634Y50840D01*
X60303Y51061D01*
X60030Y51115D01*
X59932Y51160D01*
X59672Y51169D01*
X59664Y51170D01*
Y51645D01*
X59607Y51932D01*
X59444Y52176D01*
X59201Y52338D01*
X58913Y52395D01*
X57024D01*
X56736Y52338D01*
X56493Y52176D01*
X56330Y51932D01*
X56273Y51645D01*
Y49830D01*
X56243Y49775D01*
X56123Y49652D01*
X55824Y49448D01*
X55500Y49513D01*
X54959Y49405D01*
X54639Y49191D01*
X54300Y49133D01*
X53961Y49191D01*
X53641Y49405D01*
X53100Y49513D01*
X52559Y49405D01*
X52101Y49099D01*
X51795Y48641D01*
X51687Y48100D01*
X51795Y47559D01*
X52101Y47101D01*
X52559Y46795D01*
X53100Y46687D01*
X53641Y46795D01*
X53961Y47009D01*
X54300Y47067D01*
X54639Y47009D01*
X54959Y46795D01*
X55500Y46687D01*
X55824Y46751D01*
X56123Y46547D01*
X56243Y46425D01*
X56273Y46370D01*
Y44555D01*
X56330Y44268D01*
X56493Y44024D01*
X56530Y43999D01*
X56378Y43499D01*
X49478Y43499D01*
X49427Y43756D01*
X49261Y44004D01*
X48765Y44501D01*
Y46524D01*
X48782Y46547D01*
X48785Y46564D01*
X48789Y46571D01*
X48790Y46582D01*
X48796Y46599D01*
X48813Y46639D01*
X48835Y46681D01*
X49067Y47043D01*
X49144Y47147D01*
X49172Y47259D01*
X49305Y47459D01*
X49413Y48000D01*
X49305Y48541D01*
X48999Y48999D01*
X48541Y49305D01*
X48000Y49413D01*
X47727Y49869D01*
Y51645D01*
X48173Y51966D01*
X53200D01*
X53492Y52025D01*
X53740Y52190D01*
X54290Y52740D01*
X54349Y52762D01*
X54518Y52919D01*
X54573Y52962D01*
X54619Y52995D01*
X54636Y53004D01*
X54836D01*
X54838Y53004D01*
X54838Y53004D01*
X55913D01*
X56201Y53062D01*
X56444Y53224D01*
X56607Y53468D01*
X56607Y53469D01*
X56670Y53471D01*
X56729Y53497D01*
X62919D01*
X62978Y53471D01*
D02*
G37*
G36*
X71753Y51810D02*
X71760Y51723D01*
X71772Y51646D01*
X71790Y51579D01*
X71812Y51523D01*
X71840Y51477D01*
X71873Y51441D01*
X71910Y51415D01*
X71952Y51400D01*
X72000Y51395D01*
X71000D01*
X71048Y51400D01*
X71090Y51415D01*
X71127Y51441D01*
X71160Y51477D01*
X71188Y51523D01*
X71210Y51579D01*
X71228Y51646D01*
X71240Y51723D01*
X71248Y51810D01*
X71250Y51907D01*
X71750D01*
X71753Y51810D01*
D02*
G37*
G36*
X82846Y48536D02*
X82836Y48630D01*
X82805Y48714D01*
X82753Y48789D01*
X82681Y48853D01*
X82588Y48908D01*
X82474Y48952D01*
X82340Y48987D01*
X82185Y49012D01*
X82009Y49027D01*
X82000Y49027D01*
X81991Y49027D01*
X81815Y49012D01*
X81660Y48987D01*
X81526Y48952D01*
X81412Y48908D01*
X81319Y48853D01*
X81247Y48789D01*
X81195Y48714D01*
X81164Y48630D01*
X81154Y48536D01*
Y50527D01*
X81164Y50433D01*
X81195Y50349D01*
X81247Y50274D01*
X81319Y50210D01*
X81412Y50155D01*
X81526Y50111D01*
X81660Y50076D01*
X81815Y50051D01*
X81991Y50037D01*
X82000Y50036D01*
X82009Y50037D01*
X82185Y50051D01*
X82340Y50076D01*
X82474Y50111D01*
X82588Y50155D01*
X82681Y50210D01*
X82753Y50274D01*
X82805Y50349D01*
X82836Y50433D01*
X82846Y50527D01*
Y48536D01*
D02*
G37*
G36*
X78846D02*
X78836Y48630D01*
X78805Y48714D01*
X78753Y48789D01*
X78681Y48853D01*
X78588Y48908D01*
X78474Y48952D01*
X78340Y48987D01*
X78185Y49012D01*
X78009Y49027D01*
X78000Y49027D01*
X77991Y49027D01*
X77815Y49012D01*
X77660Y48987D01*
X77526Y48952D01*
X77412Y48908D01*
X77319Y48853D01*
X77247Y48789D01*
X77195Y48714D01*
X77164Y48630D01*
X77154Y48536D01*
Y50527D01*
X77164Y50433D01*
X77195Y50349D01*
X77247Y50274D01*
X77319Y50210D01*
X77412Y50155D01*
X77526Y50111D01*
X77660Y50076D01*
X77815Y50051D01*
X77991Y50037D01*
X78000Y50036D01*
X78009Y50037D01*
X78185Y50051D01*
X78340Y50076D01*
X78474Y50111D01*
X78588Y50155D01*
X78681Y50210D01*
X78753Y50274D01*
X78805Y50349D01*
X78836Y50433D01*
X78846Y50527D01*
Y48536D01*
D02*
G37*
G36*
X59150Y50827D02*
X59171Y50783D01*
X59208Y50745D01*
X59261Y50711D01*
X59330Y50683D01*
X59415Y50660D01*
X59516Y50642D01*
X59632Y50629D01*
X59913Y50619D01*
Y49619D01*
X59085Y49584D01*
X59144Y50875D01*
X59150Y50827D01*
D02*
G37*
G36*
X76474Y50324D02*
X76541Y50263D01*
X76610Y50209D01*
X76681Y50162D01*
X76753Y50122D01*
X76827Y50089D01*
X76902Y50064D01*
X76978Y50046D01*
X77057Y50035D01*
X77136Y50032D01*
X76722Y49031D01*
X76137Y49003D01*
X76408Y50393D01*
X76474Y50324D01*
D02*
G37*
G36*
X46933Y49536D02*
X46849Y49505D01*
X46774Y49453D01*
X46710Y49381D01*
X46655Y49288D01*
X46611Y49174D01*
X46576Y49040D01*
X46551Y48885D01*
X46536Y48709D01*
X46532Y48512D01*
X45531D01*
X45526Y48709D01*
X45512Y48885D01*
X45487Y49040D01*
X45452Y49174D01*
X45408Y49288D01*
X45353Y49381D01*
X45289Y49453D01*
X45214Y49505D01*
X45130Y49536D01*
X45036Y49546D01*
X47027D01*
X46933Y49536D01*
D02*
G37*
G36*
X39240Y49620D02*
X39291Y49588D01*
X39354Y49558D01*
X39429Y49528D01*
X39516Y49500D01*
X39724Y49447D01*
X39979Y49399D01*
X40125Y49377D01*
X39123Y48375D01*
X39101Y48520D01*
X39000Y48984D01*
X38972Y49071D01*
X38942Y49146D01*
X38912Y49209D01*
X38880Y49260D01*
X38846Y49300D01*
X39200Y49654D01*
X39240Y49620D01*
D02*
G37*
G36*
X17008Y50415D02*
X17117D01*
X17094Y50386D01*
X17075Y50318D01*
X17057Y50210D01*
X17042Y50064D01*
X17039Y50004D01*
X17040Y49995D01*
X17090Y49685D01*
X17160Y49417D01*
X17249Y49193D01*
X17359Y49011D01*
X17489Y48872D01*
X17639Y48776D01*
X17808Y48723D01*
X17998Y48713D01*
X17003Y48657D01*
X17000Y48367D01*
X15000D01*
X14999Y48544D01*
X14782Y48532D01*
X14823Y48613D01*
X14860Y48724D01*
X14893Y48867D01*
X14921Y49040D01*
X14960Y49428D01*
X14906Y50386D01*
X14884Y50415D01*
X14996D01*
X15000Y50725D01*
X17000Y50745D01*
X17008Y50415D01*
D02*
G37*
G36*
X82119Y48474D02*
X82229Y48456D01*
X82307Y48436D01*
X82337Y48425D01*
X82362Y48299D01*
X82524Y48056D01*
X82768Y47893D01*
X83055Y47836D01*
X84945D01*
X85219Y47890D01*
X85233Y47893D01*
X85719Y47617D01*
Y40390D01*
X85634Y39925D01*
X85219Y39925D01*
X84316D01*
X84050Y40425D01*
X84139Y40872D01*
X84032Y41412D01*
X83725Y41871D01*
X83267Y42177D01*
X82726Y42285D01*
X82186Y42177D01*
X81727Y41871D01*
X81421Y41412D01*
X81313Y40872D01*
X81408Y40394D01*
X81484Y39925D01*
X81484Y39925D01*
X81484Y39925D01*
Y35382D01*
X83177D01*
X83178Y35380D01*
X83204Y35321D01*
Y34261D01*
X83178Y34201D01*
X83177Y34196D01*
X83024D01*
X82736Y34138D01*
X82493Y33976D01*
X82330Y33732D01*
X82273Y33445D01*
Y31555D01*
X82330Y31268D01*
X82493Y31024D01*
X82736Y30862D01*
X83024Y30804D01*
X84880D01*
X84921Y30795D01*
X85295Y30371D01*
X85274Y30277D01*
X85243Y30276D01*
X85169Y30258D01*
X85094Y30258D01*
X84545Y30149D01*
X84452Y30111D01*
X84354Y30091D01*
X83837Y29878D01*
X83754Y29822D01*
X83661Y29784D01*
X83196Y29474D01*
X83125Y29402D01*
X83041Y29346D01*
X82646Y28951D01*
X82590Y28868D01*
X82519Y28797D01*
X82209Y28332D01*
X82170Y28239D01*
X81695Y28418D01*
Y29413D01*
X81638Y29701D01*
X81476Y29944D01*
X81232Y30107D01*
X81122Y30129D01*
X81111Y30158D01*
X81091Y30237D01*
X81073Y30348D01*
X81062Y30483D01*
X81073Y30617D01*
X81091Y30727D01*
X81111Y30804D01*
X81121Y30831D01*
X81128Y30835D01*
X81264Y30862D01*
X81507Y31024D01*
X81670Y31268D01*
X81727Y31555D01*
Y33445D01*
X81670Y33732D01*
X81507Y33976D01*
X81264Y34138D01*
X80976Y34196D01*
X79881D01*
X79461Y34558D01*
Y34832D01*
X79482Y34880D01*
X79487Y35056D01*
X79498Y35190D01*
X79516Y35296D01*
X79535Y35370D01*
X79540Y35382D01*
X80516D01*
Y39925D01*
X80050D01*
X79783Y40425D01*
X79805Y40459D01*
X79913Y41000D01*
X79805Y41541D01*
X79783Y41575D01*
X80050Y42075D01*
X80516D01*
Y46618D01*
X76366D01*
Y43432D01*
X76361Y43422D01*
X76333Y43382D01*
X76214Y43241D01*
X76135Y43159D01*
X76111Y43098D01*
X76091Y43078D01*
X76052Y43047D01*
X75614Y42884D01*
X75142Y43183D01*
X75138Y43201D01*
X74976Y43444D01*
X74732Y43607D01*
X74445Y43664D01*
X73600D01*
X73325Y44127D01*
X73330Y44164D01*
X73544Y44306D01*
X73707Y44551D01*
X73764Y44840D01*
Y45388D01*
X73779Y45411D01*
X73768Y45457D01*
X73786Y45500D01*
X73764Y45552D01*
Y45564D01*
X73780Y45585D01*
X73911Y45739D01*
X73999Y45831D01*
X74024Y45892D01*
X74541Y46409D01*
X74707Y46657D01*
X74765Y46950D01*
Y47384D01*
X75055Y47836D01*
X76945D01*
X77232Y47893D01*
X77476Y48056D01*
X77638Y48299D01*
X77663Y48425D01*
X77693Y48436D01*
X77771Y48456D01*
X77881Y48474D01*
X78000Y48484D01*
X78119Y48474D01*
X78229Y48456D01*
X78307Y48436D01*
X78337Y48425D01*
X78362Y48299D01*
X78524Y48056D01*
X78768Y47893D01*
X79055Y47836D01*
X80945D01*
X81232Y47893D01*
X81476Y48056D01*
X81638Y48299D01*
X81663Y48425D01*
X81693Y48436D01*
X81771Y48456D01*
X81881Y48474D01*
X82000Y48484D01*
X82119Y48474D01*
D02*
G37*
G36*
X61050Y49696D02*
X61419Y49382D01*
X61582Y49268D01*
X61731Y49182D01*
X61865Y49124D01*
X61985Y49094D01*
X62090Y49093D01*
X62181Y49120D01*
X62258Y49176D01*
X60856Y47773D01*
X60911Y47850D01*
X60938Y47941D01*
X60937Y48047D01*
X60908Y48166D01*
X60850Y48301D01*
X60764Y48449D01*
X60650Y48612D01*
X60507Y48790D01*
X60137Y49188D01*
X60844Y49895D01*
X61050Y49696D01*
D02*
G37*
G36*
X70200Y47205D02*
X70174Y47244D01*
X70139Y47267D01*
X70095Y47274D01*
X70041Y47265D01*
X69979Y47240D01*
X69908Y47200D01*
X69828Y47144D01*
X69740Y47072D01*
X69535Y46882D01*
X69390Y47443D01*
X69479Y47536D01*
X69622Y47706D01*
X69676Y47784D01*
X69718Y47857D01*
X69749Y47926D01*
X69768Y47989D01*
X69776Y48048D01*
X69771Y48101D01*
X69755Y48150D01*
X70200Y47205D01*
D02*
G37*
G36*
X66195Y46812D02*
X66117Y46869D01*
X66025Y46897D01*
X65919D01*
X65799Y46869D01*
X65665Y46812D01*
X65516Y46728D01*
X65354Y46614D01*
X65177Y46473D01*
X64781Y46105D01*
X64074Y46812D01*
X64272Y47017D01*
X64583Y47385D01*
X64696Y47548D01*
X64781Y47696D01*
X64837Y47831D01*
X64866Y47951D01*
Y48057D01*
X64837Y48149D01*
X64781Y48227D01*
X66195Y46812D01*
D02*
G37*
G36*
X46536Y47491D02*
X46551Y47315D01*
X46576Y47160D01*
X46611Y47026D01*
X46655Y46912D01*
X46710Y46819D01*
X46774Y46747D01*
X46849Y46695D01*
X46933Y46664D01*
X47027Y46654D01*
X45036D01*
X45130Y46664D01*
X45214Y46695D01*
X45289Y46747D01*
X45353Y46819D01*
X45408Y46912D01*
X45452Y47026D01*
X45487Y47160D01*
X45512Y47315D01*
X45526Y47491D01*
X45531Y47688D01*
X46532D01*
X46536Y47491D01*
D02*
G37*
G36*
X48621Y47350D02*
X48365Y46951D01*
X48323Y46869D01*
X48291Y46795D01*
X48268Y46729D01*
X48255Y46670D01*
X48250Y46619D01*
X47750D01*
X47745Y46670D01*
X47732Y46729D01*
X47709Y46795D01*
X47677Y46869D01*
X47635Y46951D01*
X47525Y47135D01*
X47379Y47350D01*
X47292Y47468D01*
X48708D01*
X48621Y47350D01*
D02*
G37*
G36*
X69304Y49150D02*
X69365Y48957D01*
X69293Y48849D01*
X69235Y48560D01*
Y48103D01*
X69219Y48075D01*
X69191Y48035D01*
X69076Y47898D01*
X69000Y47819D01*
X68976Y47757D01*
X68923Y47718D01*
X68921Y47703D01*
X68359Y47141D01*
X68194Y46893D01*
X68135Y46600D01*
Y44400D01*
X68194Y44107D01*
X68359Y43859D01*
X68959Y43259D01*
X69207Y43093D01*
X69500Y43035D01*
X70383D01*
X70735Y42683D01*
Y32430D01*
X69687Y31381D01*
X69337Y31528D01*
X69236Y31578D01*
X69177Y31581D01*
X69141Y31605D01*
X68600Y31713D01*
X68537Y31765D01*
X68537Y42500D01*
X67537Y43500D01*
X65094D01*
Y45684D01*
X65101Y45691D01*
X65149Y45709D01*
X65531Y46063D01*
X65678Y46181D01*
X65806Y46270D01*
X65867Y46305D01*
X66115D01*
X66195Y46271D01*
X66236Y46288D01*
X66280Y46278D01*
X66323Y46305D01*
X66913D01*
X67201Y46362D01*
X67444Y46524D01*
X67607Y46768D01*
X67664Y47055D01*
Y48644D01*
X68000Y49087D01*
X68541Y49195D01*
X68750Y49334D01*
X69304Y49150D01*
D02*
G37*
G36*
X73610Y46207D02*
X73510Y46103D01*
X73352Y45918D01*
X73294Y45836D01*
X73251Y45762D01*
X73221Y45695D01*
X73206Y45635D01*
X73205Y45583D01*
X73218Y45537D01*
X73245Y45500D01*
X72550Y46195D01*
X72588Y46168D01*
X72633Y46155D01*
X72685Y46156D01*
X72745Y46171D01*
X72812Y46201D01*
X72886Y46244D01*
X72968Y46302D01*
X73057Y46374D01*
X73257Y46560D01*
X73610Y46207D01*
D02*
G37*
G36*
X19755Y45580D02*
X19768Y45521D01*
X19791Y45454D01*
X19823Y45381D01*
X19865Y45299D01*
X19975Y45115D01*
X20121Y44900D01*
X20208Y44782D01*
X18792D01*
X18879Y44900D01*
X19135Y45299D01*
X19177Y45381D01*
X19209Y45454D01*
X19232Y45521D01*
X19245Y45580D01*
X19250Y45631D01*
X19750D01*
X19755Y45580D01*
D02*
G37*
G36*
X59153Y46298D02*
X59178Y46256D01*
X59221Y46220D01*
X59281Y46188D01*
X59358Y46161D01*
X59452Y46139D01*
X59563Y46122D01*
X59692Y46110D01*
X60000Y46100D01*
Y44900D01*
X59837Y44898D01*
X59563Y44878D01*
X59452Y44861D01*
X59358Y44839D01*
X59281Y44812D01*
X59221Y44780D01*
X59178Y44744D01*
X59153Y44702D01*
X59144Y44656D01*
Y46344D01*
X59153Y46298D01*
D02*
G37*
G36*
X42478Y44324D02*
X42386Y44391D01*
X42276Y44424D01*
X42150Y44423D01*
X42006Y44388D01*
X41845Y44318D01*
X41666Y44215D01*
X41471Y44078D01*
X41258Y43907D01*
X40781Y43464D01*
X39932Y44312D01*
X40171Y44560D01*
X40547Y45002D01*
X40684Y45198D01*
X40787Y45376D01*
X40856Y45537D01*
X40891Y45681D01*
X40892Y45808D01*
X40860Y45917D01*
X40793Y46009D01*
X42478Y44324D01*
D02*
G37*
G36*
X38258D02*
X38181Y44380D01*
X38090Y44407D01*
X37985Y44406D01*
X37865Y44376D01*
X37731Y44318D01*
X37582Y44232D01*
X37419Y44118D01*
X37242Y43975D01*
X36844Y43605D01*
X36137Y44312D01*
X36336Y44519D01*
X36650Y44888D01*
X36764Y45051D01*
X36850Y45199D01*
X36908Y45333D01*
X36937Y45453D01*
X36938Y45559D01*
X36911Y45650D01*
X36856Y45727D01*
X38258Y44324D01*
D02*
G37*
G36*
X46258Y44312D02*
X46180Y44369D01*
X46088Y44397D01*
X45982D01*
X45862Y44369D01*
X45728Y44312D01*
X45579Y44228D01*
X45417Y44114D01*
X45240Y43973D01*
X44844Y43605D01*
X44137Y44312D01*
X44335Y44517D01*
X44646Y44885D01*
X44759Y45048D01*
X44844Y45196D01*
X44901Y45331D01*
X44929Y45451D01*
Y45557D01*
X44901Y45649D01*
X44844Y45727D01*
X46258Y44312D01*
D02*
G37*
G36*
X28885Y43646D02*
X28740Y43501D01*
X28186Y42877D01*
X28173Y42844D01*
X28176Y42826D01*
X27358Y43644D01*
X27376Y43641D01*
X27408Y43655D01*
X27455Y43685D01*
X27515Y43731D01*
X27679Y43873D01*
X28178Y44354D01*
X28885Y43646D01*
D02*
G37*
G36*
X17506Y45423D02*
X17513Y45356D01*
X18144D01*
X18021Y45258D01*
X17912Y45135D01*
X17816Y44987D01*
X17732Y44814D01*
X17661Y44616D01*
X17631Y44500D01*
X17661Y44384D01*
X17732Y44186D01*
X17816Y44013D01*
X17912Y43865D01*
X18021Y43742D01*
X18144Y43644D01*
X17511D01*
X17506Y43577D01*
X17500Y43255D01*
X15500D01*
X15494Y43577D01*
X15488Y43644D01*
X14856D01*
X14979Y43742D01*
X15088Y43865D01*
X15185Y44013D01*
X15268Y44186D01*
X15339Y44384D01*
X15369Y44500D01*
X15339Y44616D01*
X15268Y44814D01*
X15185Y44987D01*
X15088Y45135D01*
X14979Y45258D01*
X14856Y45356D01*
X15489D01*
X15494Y45423D01*
X15500Y45745D01*
X17500D01*
X17506Y45423D01*
D02*
G37*
G36*
X77388Y42599D02*
X77359Y42635D01*
X77321Y42654D01*
X77273Y42658D01*
X77217Y42645D01*
X77150Y42617D01*
X77075Y42572D01*
X76990Y42512D01*
X76897Y42435D01*
X76681Y42233D01*
X76525Y42784D01*
X76616Y42879D01*
X76762Y43052D01*
X76817Y43131D01*
X76860Y43204D01*
X76890Y43272D01*
X76909Y43335D01*
X76915Y43392D01*
X76908Y43444D01*
X76890Y43491D01*
X77388Y42599D01*
D02*
G37*
G36*
X73984Y41030D02*
X73946Y41086D01*
X73852Y41213D01*
X73733Y41356D01*
X73418Y41696D01*
X73323Y41792D01*
X73677Y42145D01*
X73689Y42143D01*
X73717Y42145D01*
X73760Y42153D01*
X73980Y42207D01*
X74485Y42350D01*
X73984Y41030D01*
D02*
G37*
G36*
X64576Y42755D02*
X64617Y42105D01*
X64633Y42035D01*
X64650Y41985D01*
X64670Y41955D01*
X64693Y41945D01*
X63457D01*
X63479Y41955D01*
X63499Y41985D01*
X63517Y42035D01*
X63532Y42105D01*
X63545Y42195D01*
X63564Y42435D01*
X63575Y42945D01*
X64575D01*
X64576Y42755D01*
D02*
G37*
G36*
X62134Y41945D02*
X60898D01*
X60901Y41957D01*
X60904Y41993D01*
X60911Y42245D01*
X60916Y43145D01*
X62116D01*
X62134Y41945D01*
D02*
G37*
G36*
X36426Y42755D02*
X36468Y42105D01*
X36483Y42035D01*
X36501Y41985D01*
X36521Y41955D01*
X36543Y41945D01*
X35307D01*
X35330Y41955D01*
X35350Y41985D01*
X35367Y42035D01*
X35383Y42105D01*
X35396Y42195D01*
X35415Y42435D01*
X35425Y42945D01*
X36425D01*
X36426Y42755D01*
D02*
G37*
G36*
X33867Y42503D02*
X33896Y42117D01*
X33909Y42055D01*
X33924Y42007D01*
X33942Y41972D01*
X33962Y41952D01*
X33984Y41945D01*
X32748D01*
X32771Y41952D01*
X32791Y41972D01*
X32808Y42007D01*
X32824Y42055D01*
X32837Y42117D01*
X32847Y42193D01*
X32861Y42386D01*
X32866Y42634D01*
X33866D01*
X33867Y42503D01*
D02*
G37*
G36*
X48973Y42347D02*
X48981Y42260D01*
X48993Y42184D01*
X49011Y42117D01*
X49033Y42061D01*
X49060Y42015D01*
X49093Y41979D01*
X49130Y41953D01*
X49173Y41938D01*
X49220Y41933D01*
X48221D01*
X48268Y41938D01*
X48311Y41953D01*
X48348Y41979D01*
X48381Y42015D01*
X48408Y42061D01*
X48430Y42117D01*
X48448Y42184D01*
X48461Y42260D01*
X48468Y42347D01*
X48471Y42445D01*
X48970D01*
X48973Y42347D01*
D02*
G37*
G36*
X43602Y43319D02*
X43478Y42945D01*
X44102D01*
X44104Y42755D01*
X44145Y42105D01*
X44160Y42035D01*
X44178Y41985D01*
X44198Y41955D01*
X44220Y41945D01*
X43144D01*
X43102Y41819D01*
X43098Y41945D01*
X42984D01*
X43007Y41955D01*
X43027Y41985D01*
X43045Y42035D01*
X43060Y42105D01*
X43073Y42195D01*
X43073Y42203D01*
X43048Y42329D01*
X43006Y42459D01*
X42952Y42569D01*
X42886Y42659D01*
X42807Y42729D01*
X42717Y42779D01*
X42614Y42809D01*
X42500Y42819D01*
X43602Y43819D01*
Y43319D01*
D02*
G37*
G36*
X42368Y42554D02*
X42156Y42335D01*
X41825Y41949D01*
X41707Y41781D01*
X41619Y41631D01*
X41563Y41499D01*
X41538Y41383D01*
X41544Y41285D01*
X41581Y41204D01*
X41649Y41140D01*
X40425Y41945D01*
X40421Y41955D01*
X40439Y41987D01*
X40480Y42040D01*
X40630Y42210D01*
X41405Y43005D01*
X42368Y42554D01*
D02*
G37*
G36*
X75041Y38688D02*
X74963Y38606D01*
X74835Y38451D01*
X74785Y38377D01*
X74744Y38305D01*
X74712Y38236D01*
X74689Y38168D01*
X74676Y38103D01*
X74671Y38041D01*
X74676Y37980D01*
X74488Y39188D01*
X74502Y39136D01*
X74524Y39100D01*
X74555Y39079D01*
X74596Y39074D01*
X74645Y39085D01*
X74703Y39112D01*
X74769Y39154D01*
X74845Y39212D01*
X74929Y39286D01*
X75022Y39376D01*
X75041Y38688D01*
D02*
G37*
G36*
X57021Y39250D02*
X56765Y38851D01*
X56723Y38769D01*
X56691Y38695D01*
X56668Y38629D01*
X56655Y38570D01*
X56650Y38519D01*
X56150D01*
X56145Y38570D01*
X56132Y38629D01*
X56109Y38695D01*
X56077Y38769D01*
X56035Y38851D01*
X55925Y39035D01*
X55779Y39250D01*
X55692Y39368D01*
X57108D01*
X57021Y39250D01*
D02*
G37*
G36*
X28164Y39433D02*
X28195Y39349D01*
X28247Y39274D01*
X28319Y39210D01*
X28412Y39155D01*
X28526Y39111D01*
X28660Y39076D01*
X28815Y39051D01*
X28991Y39037D01*
X29188Y39031D01*
Y38032D01*
X28991Y38026D01*
X28815Y38012D01*
X28660Y37987D01*
X28526Y37952D01*
X28412Y37908D01*
X28319Y37853D01*
X28247Y37789D01*
X28195Y37714D01*
X28164Y37630D01*
X28154Y37536D01*
Y39527D01*
X28164Y39433D01*
D02*
G37*
G36*
X30189Y37532D02*
X30179Y37626D01*
X30149Y37712D01*
X30099Y37786D01*
X30029Y37852D01*
X29939Y37907D01*
X29829Y37951D01*
X29699Y37986D01*
X29549Y38012D01*
X29379Y38026D01*
X29189Y38032D01*
Y39031D01*
X29379Y39037D01*
X29549Y39051D01*
X29699Y39077D01*
X29829Y39112D01*
X29939Y39156D01*
X30029Y39211D01*
X30099Y39276D01*
X30149Y39351D01*
X30179Y39437D01*
X30189Y39531D01*
Y37532D01*
D02*
G37*
G36*
X84421Y35901D02*
X84378Y35885D01*
X84341Y35860D01*
X84308Y35824D01*
X84281Y35778D01*
X84259Y35722D01*
X84241Y35655D01*
X84228Y35578D01*
X84221Y35491D01*
X84219Y35394D01*
X83719D01*
X83716Y35491D01*
X83709Y35578D01*
X83696Y35655D01*
X83679Y35722D01*
X83656Y35778D01*
X83628Y35824D01*
X83596Y35860D01*
X83558Y35885D01*
X83516Y35901D01*
X83469Y35906D01*
X84469D01*
X84421Y35901D01*
D02*
G37*
G36*
X79346Y35896D02*
X79261Y35865D01*
X79186Y35815D01*
X79121Y35744D01*
X79066Y35653D01*
X79021Y35542D01*
X78986Y35410D01*
X78961Y35258D01*
X78946Y35086D01*
X78941Y34894D01*
X77941D01*
X77936Y35086D01*
X77921Y35258D01*
X77896Y35410D01*
X77861Y35542D01*
X77816Y35653D01*
X77761Y35744D01*
X77696Y35815D01*
X77621Y35865D01*
X77536Y35896D01*
X77441Y35906D01*
X79441D01*
X79346Y35896D01*
D02*
G37*
G36*
X84221Y34090D02*
X84228Y34003D01*
X84241Y33926D01*
X84259Y33860D01*
X84281Y33804D01*
X84308Y33757D01*
X84341Y33722D01*
X84378Y33696D01*
X84421Y33681D01*
X84469Y33676D01*
X83469D01*
X83516Y33681D01*
X83558Y33696D01*
X83596Y33722D01*
X83628Y33757D01*
X83656Y33804D01*
X83679Y33860D01*
X83696Y33926D01*
X83709Y34003D01*
X83716Y34090D01*
X83719Y34188D01*
X84219D01*
X84221Y34090D01*
D02*
G37*
G36*
X24248Y35435D02*
X24260Y35356D01*
X24271Y35237D01*
X24297Y34347D01*
X24300Y33655D01*
X22700D01*
X22692Y33974D01*
X22668Y34258D01*
X22628Y34507D01*
X22572Y34720D01*
X22500Y34899D01*
X22412Y35043D01*
X22308Y35151D01*
X22188Y35225D01*
X22052Y35264D01*
X21900Y35267D01*
X24218Y35468D01*
X24234Y35472D01*
X24248Y35435D01*
D02*
G37*
G36*
X79004Y34237D02*
X79585Y33736D01*
X79659Y33692D01*
X79717Y33668D01*
X79762Y33662D01*
X79792Y33676D01*
X78856Y32739D01*
X78869Y32770D01*
X78864Y32814D01*
X78839Y32873D01*
X78796Y32946D01*
X78733Y33034D01*
X78652Y33136D01*
X78432Y33383D01*
X78137Y33688D01*
X78844Y34395D01*
X79004Y34237D01*
D02*
G37*
G36*
X21025Y32023D02*
X20879Y32001D01*
X20416Y31900D01*
X20329Y31872D01*
X20254Y31842D01*
X20191Y31812D01*
X20140Y31780D01*
X20100Y31747D01*
X19747Y32100D01*
X19780Y32140D01*
X19812Y32191D01*
X19842Y32254D01*
X19872Y32329D01*
X19900Y32416D01*
X19953Y32624D01*
X20001Y32879D01*
X20023Y33025D01*
X21025Y32023D01*
D02*
G37*
G36*
X27569Y32311D02*
X27533Y32250D01*
X27502Y32186D01*
X27475Y32118D01*
X27452Y32047D01*
X27433Y31972D01*
X27419Y31894D01*
X27408Y31812D01*
X27402Y31726D01*
X27400Y31637D01*
X26400D01*
X26398Y31726D01*
X26381Y31894D01*
X26367Y31972D01*
X26348Y32047D01*
X26325Y32118D01*
X26298Y32186D01*
X26267Y32250D01*
X26231Y32311D01*
X26192Y32368D01*
X27608D01*
X27569Y32311D01*
D02*
G37*
G36*
X18417Y32119D02*
X17778Y31308D01*
X17570Y31466D01*
X17647Y31176D01*
X17470Y30993D01*
X17187Y30653D01*
X17080Y30498D01*
X16996Y30352D01*
X16936Y30215D01*
X16899Y30088D01*
X16885Y29970D01*
X16895Y29861D01*
X16928Y29762D01*
X16026Y31664D01*
X16080Y31586D01*
X16151Y31539D01*
X16239Y31523D01*
X16345Y31539D01*
X16469Y31586D01*
X16610Y31665D01*
X16769Y31775D01*
X16945Y31916D01*
X17057Y32021D01*
X17069Y32038D01*
X17104Y32105D01*
X17131Y32177D01*
X17151Y32253D01*
X17163Y32335D01*
X17167Y32423D01*
X17164Y32515D01*
X17153Y32612D01*
X17134Y32714D01*
X18417Y32119D01*
D02*
G37*
G36*
X51732Y31976D02*
X51689Y31960D01*
X51652Y31935D01*
X51619Y31899D01*
X51592Y31853D01*
X51569Y31796D01*
X51552Y31730D01*
X51539Y31653D01*
X51532Y31566D01*
X51530Y31469D01*
X51029D01*
X51027Y31566D01*
X51020Y31653D01*
X51007Y31730D01*
X50990Y31796D01*
X50967Y31853D01*
X50940Y31899D01*
X50907Y31935D01*
X50870Y31960D01*
X50827Y31976D01*
X50779Y31981D01*
X51780D01*
X51732Y31976D01*
D02*
G37*
G36*
X24300Y33026D02*
X24376Y31312D01*
X22232Y31504D01*
X22321Y31578D01*
X22401Y31675D01*
X22471Y31795D01*
X22532Y31937D01*
X22583Y32103D01*
X22625Y32292D01*
X22658Y32504D01*
X22681Y32738D01*
X22700Y33277D01*
X24300Y33026D01*
D02*
G37*
G36*
X67229Y31959D02*
X67209Y31929D01*
X67192Y31879D01*
X67176Y31809D01*
X67163Y31719D01*
X67145Y31479D01*
X67134Y30969D01*
X66134D01*
X66133Y31159D01*
X66091Y31809D01*
X66076Y31879D01*
X66058Y31929D01*
X66038Y31959D01*
X66016Y31969D01*
X67252D01*
X67229Y31959D01*
D02*
G37*
G36*
X69113Y31035D02*
X69512Y30868D01*
X69596Y30841D01*
X69744Y30805D01*
X69809Y30796D01*
X69867Y30793D01*
X69930Y30293D01*
X69899Y30287D01*
X69860Y30270D01*
X69813Y30240D01*
X69758Y30198D01*
X69694Y30145D01*
X69542Y30003D01*
X69252Y29700D01*
X68998Y31092D01*
X69113Y31035D01*
D02*
G37*
G36*
X81011Y31340D02*
X80917Y31330D01*
X80833Y31300D01*
X80759Y31249D01*
X80694Y31177D01*
X80640Y31085D01*
X80595Y30972D01*
X80560Y30838D01*
X80536Y30683D01*
X80521Y30508D01*
X80520Y30484D01*
X80521Y30459D01*
X80536Y30283D01*
X80560Y30127D01*
X80595Y29992D01*
X80640Y29877D01*
X80694Y29784D01*
X80759Y29711D01*
X80833Y29658D01*
X80917Y29627D01*
X81011Y29616D01*
X79020Y29629D01*
X79115Y29638D01*
X79199Y29669D01*
X79273Y29720D01*
X79337Y29792D01*
X79392Y29884D01*
X79436Y29997D01*
X79471Y30131D01*
X79496Y30285D01*
X79511Y30460D01*
X79511Y30485D01*
X79511Y30509D01*
X79496Y30686D01*
X79471Y30842D01*
X79436Y30977D01*
X79392Y31091D01*
X79337Y31185D01*
X79273Y31258D01*
X79199Y31310D01*
X79115Y31342D01*
X79020Y31353D01*
X81011Y31340D01*
D02*
G37*
G36*
X74154Y35836D02*
X74087Y35500D01*
X74195Y34959D01*
X74501Y34501D01*
X74959Y34195D01*
X75500Y34087D01*
X76041Y34195D01*
X76499Y34501D01*
X76723Y34835D01*
X77170Y34960D01*
X77315Y34960D01*
X77400Y34880D01*
X77415Y34847D01*
X77421Y34811D01*
Y34091D01*
X77499Y33700D01*
X77720Y33370D01*
X77728Y33361D01*
X77748Y33311D01*
X78036Y33015D01*
X78238Y32787D01*
X78301Y32708D01*
X78336Y32659D01*
Y31555D01*
X78393Y31268D01*
X78556Y31024D01*
X78625Y30978D01*
X78709Y30446D01*
X78693Y30377D01*
X78649Y30313D01*
X78108Y30205D01*
X77650Y29899D01*
X77344Y29441D01*
X77236Y28900D01*
X77344Y28359D01*
X77358Y28338D01*
X77013Y28013D01*
X76732Y28201D01*
X76400Y28267D01*
X73600D01*
X73268Y28201D01*
X72987Y28013D01*
X72799Y27732D01*
X72733Y27400D01*
Y25594D01*
X72720Y25590D01*
X72600Y25572D01*
X72444Y25560D01*
X72243Y25555D01*
X72194Y25534D01*
X71141D01*
X68223Y28452D01*
X68469Y28913D01*
X68600Y28887D01*
X69141Y28995D01*
X69244Y29064D01*
X69795Y28859D01*
X70101Y28401D01*
X70559Y28095D01*
X71100Y27987D01*
X71641Y28095D01*
X72099Y28401D01*
X72405Y28859D01*
X72513Y29400D01*
X72405Y29941D01*
X72099Y30399D01*
X71785Y30609D01*
X71644Y31176D01*
X72041Y31573D01*
X72206Y31821D01*
X72265Y32113D01*
Y35884D01*
X72555Y36336D01*
X73836D01*
X74154Y35836D01*
D02*
G37*
G36*
X25089Y28369D02*
X25150Y28333D01*
X25214Y28302D01*
X25282Y28275D01*
X25353Y28252D01*
X25428Y28233D01*
X25500Y28220D01*
X25694Y28211D01*
X26724Y28200D01*
Y27200D01*
X25344Y27145D01*
X25282Y27125D01*
X25214Y27098D01*
X25150Y27067D01*
X25089Y27031D01*
X25032Y26992D01*
Y28408D01*
X25089Y28369D01*
D02*
G37*
G36*
X48494Y28079D02*
X48633Y27650D01*
X48669Y27567D01*
X48705Y27495D01*
X48741Y27433D01*
X48778Y27381D01*
X48814Y27339D01*
X48521Y26926D01*
X48483Y26956D01*
X48432Y26983D01*
X48369Y27009D01*
X48292Y27031D01*
X48203Y27051D01*
X47986Y27084D01*
X47717Y27107D01*
X47564Y27115D01*
X48460Y28212D01*
X48494Y28079D01*
D02*
G37*
G36*
X32589Y28169D02*
X32650Y28133D01*
X32714Y28102D01*
X32782Y28075D01*
X32853Y28052D01*
X32928Y28033D01*
X33007Y28019D01*
X33088Y28008D01*
X33174Y28002D01*
X33263Y28000D01*
Y27000D01*
X33174Y26998D01*
X33007Y26981D01*
X32928Y26967D01*
X32853Y26948D01*
X32782Y26925D01*
X32714Y26898D01*
X32650Y26867D01*
X32589Y26831D01*
X32532Y26792D01*
Y28208D01*
X32589Y28169D01*
D02*
G37*
G36*
X54676Y27184D02*
X54727Y27155D01*
X54791Y27127D01*
X54866Y27101D01*
X54954Y27076D01*
X55168Y27033D01*
X55431Y26997D01*
X55581Y26982D01*
X54630Y25932D01*
X54602Y26071D01*
X54481Y26519D01*
X54449Y26604D01*
X54416Y26678D01*
X54383Y26740D01*
X54348Y26792D01*
X54313Y26833D01*
X54637Y27216D01*
X54676Y27184D01*
D02*
G37*
G36*
X49617Y26544D02*
X49668Y26517D01*
X49731Y26492D01*
X49808Y26469D01*
X49897Y26449D01*
X50114Y26416D01*
X50383Y26393D01*
X50536Y26385D01*
X49640Y25288D01*
X49606Y25421D01*
X49467Y25850D01*
X49431Y25932D01*
X49395Y26005D01*
X49359Y26067D01*
X49322Y26119D01*
X49286Y26161D01*
X49579Y26574D01*
X49617Y26544D01*
D02*
G37*
G36*
X73600Y24255D02*
X73805Y24210D01*
X73935Y24169D01*
X73990Y24132D01*
X73970Y24101D01*
X73875Y24074D01*
X73704Y24053D01*
X73459Y24036D01*
X72272Y24014D01*
X72255Y25014D01*
X72471Y25019D01*
X72662Y25034D01*
X72827Y25059D01*
X72966Y25094D01*
X73080Y25139D01*
X73169Y25194D01*
X73232Y25259D01*
X73269Y25334D01*
X73281Y25419D01*
X73267Y25514D01*
X73600Y24255D01*
D02*
G37*
G36*
X21329Y31385D02*
X21542Y31106D01*
X21538Y31087D01*
Y27937D01*
X21622Y27512D01*
X21863Y27151D01*
X22224Y26910D01*
X22650Y26825D01*
X23418D01*
X23501Y26701D01*
X23959Y26395D01*
X24500Y26287D01*
X25041Y26395D01*
X25234Y26524D01*
X25340Y26546D01*
X25380Y26574D01*
X25405Y26589D01*
X25433Y26603D01*
X25445Y26607D01*
X26616Y26654D01*
X34491Y18779D01*
X34822Y18558D01*
X35212Y18480D01*
X40062D01*
X44485Y14058D01*
X44504Y14008D01*
X44556Y13953D01*
X44594Y13910D01*
X44626Y13868D01*
X44653Y13829D01*
X44675Y13792D01*
X44692Y13758D01*
X44706Y13726D01*
X44716Y13697D01*
X44724Y13669D01*
X44732Y13621D01*
X44791Y13530D01*
X44836Y13302D01*
X45143Y12843D01*
X45601Y12537D01*
X46142Y12430D01*
X46683Y12537D01*
X47141Y12843D01*
X47447Y13302D01*
X47555Y13842D01*
X47447Y14383D01*
X47141Y14842D01*
X46683Y15148D01*
X46455Y15193D01*
X46363Y15252D01*
X46316Y15261D01*
X46288Y15268D01*
X46258Y15278D01*
X46226Y15292D01*
X46192Y15310D01*
X46155Y15332D01*
X46122Y15354D01*
X46025Y15433D01*
X45976Y15481D01*
X45926Y15500D01*
X41908Y19519D01*
X42099Y19980D01*
X51176D01*
X51225Y19959D01*
X51300Y19957D01*
X51358Y19953D01*
X51410Y19946D01*
X51456Y19938D01*
X51498Y19927D01*
X51535Y19916D01*
X51567Y19903D01*
X51595Y19889D01*
X51620Y19874D01*
X51660Y19847D01*
X51766Y19824D01*
X51959Y19695D01*
X52500Y19587D01*
X53041Y19695D01*
X53499Y20001D01*
X53805Y20459D01*
X53913Y21000D01*
X53805Y21541D01*
X53499Y21999D01*
X53041Y22305D01*
X52500Y22413D01*
X51959Y22305D01*
X51766Y22176D01*
X51660Y22153D01*
X51620Y22126D01*
X51595Y22111D01*
X51567Y22097D01*
X51535Y22085D01*
X51498Y22073D01*
X51456Y22062D01*
X51417Y22055D01*
X51293Y22043D01*
X51225Y22041D01*
X51176Y22020D01*
X36255D01*
X32550Y25725D01*
X32689Y26293D01*
X32734Y26324D01*
X32840Y26346D01*
X32880Y26374D01*
X32905Y26389D01*
X32933Y26403D01*
X32965Y26415D01*
X33002Y26427D01*
X33044Y26438D01*
X33083Y26445D01*
X33207Y26457D01*
X33275Y26459D01*
X33324Y26480D01*
X33500D01*
X33890Y26558D01*
X34221Y26779D01*
X35422Y27980D01*
X38500D01*
X38890Y28058D01*
X39221Y28279D01*
X40442Y29500D01*
X44092D01*
X44243Y29000D01*
X44116Y28915D01*
X43810Y28456D01*
X43703Y27916D01*
X43810Y27375D01*
X44116Y26916D01*
X44575Y26610D01*
X45116Y26503D01*
X45656Y26610D01*
X46115Y26916D01*
X46720Y26922D01*
X47059Y26695D01*
X47445Y26618D01*
X47536Y26574D01*
X47681Y26567D01*
X47922Y26546D01*
X48103Y26519D01*
X48156Y26507D01*
X48192Y26496D01*
X48202Y26492D01*
X48207Y26485D01*
X48223Y26481D01*
X48224Y26481D01*
X48226Y26480D01*
X48242Y26477D01*
X48860Y25858D01*
X48879Y25804D01*
X48896Y25784D01*
X48903Y25775D01*
X48919Y25748D01*
X48940Y25705D01*
X48960Y25659D01*
X49086Y25270D01*
X49116Y25154D01*
X49170Y25081D01*
X49195Y24959D01*
X49501Y24501D01*
X49959Y24195D01*
X50500Y24087D01*
X51041Y24195D01*
X51499Y24501D01*
X51805Y24959D01*
X51913Y25500D01*
X51805Y26041D01*
X51499Y26499D01*
X51041Y26805D01*
X50655Y26882D01*
X50564Y26926D01*
X50419Y26933D01*
X50178Y26954D01*
X49997Y26981D01*
X49944Y26993D01*
X49908Y27004D01*
X49898Y27008D01*
X49893Y27015D01*
X49877Y27019D01*
X49876Y27020D01*
X49874Y27020D01*
X49858Y27023D01*
X49240Y27642D01*
X49222Y27696D01*
X49204Y27716D01*
X49197Y27725D01*
X49182Y27752D01*
X49160Y27796D01*
X49140Y27841D01*
X49014Y28230D01*
X48984Y28346D01*
X48930Y28419D01*
X48905Y28541D01*
X48599Y28999D01*
X48599Y29000D01*
X48750Y29500D01*
X50919D01*
X53885Y26533D01*
X53895Y26504D01*
X53897Y26494D01*
X53900Y26490D01*
X53903Y26481D01*
X53916Y26466D01*
X53917Y26463D01*
X53930Y26440D01*
X53948Y26398D01*
X53965Y26353D01*
X54075Y25946D01*
X54100Y25824D01*
X54160Y25735D01*
X54195Y25559D01*
X54501Y25101D01*
X54959Y24795D01*
X55500Y24687D01*
X56041Y24795D01*
X56499Y25101D01*
X56805Y25559D01*
X56913Y26100D01*
X56805Y26641D01*
X56499Y27099D01*
X56041Y27405D01*
X55737Y27466D01*
X55635Y27521D01*
X55495Y27535D01*
X55258Y27567D01*
X55080Y27603D01*
X55027Y27618D01*
X54988Y27631D01*
X54981Y27634D01*
X54980Y27635D01*
X54977Y27636D01*
X54973Y27638D01*
X54949Y27652D01*
X54926Y27655D01*
X53544Y29038D01*
X53735Y29500D01*
X61800D01*
X62080Y29064D01*
X62086Y29000D01*
X61987Y28500D01*
X62095Y27959D01*
X62401Y27501D01*
X62755Y27264D01*
X62859Y27195D01*
X62916Y26673D01*
X62895Y26641D01*
X62787Y26100D01*
X62895Y25559D01*
X63201Y25101D01*
X63659Y24795D01*
X64200Y24687D01*
X64741Y24795D01*
X65199Y25101D01*
X65505Y25559D01*
X65613Y26100D01*
X65505Y26641D01*
X65199Y27099D01*
X64845Y27336D01*
X64741Y27405D01*
X64684Y27927D01*
X64705Y27959D01*
X64813Y28500D01*
X64714Y29000D01*
X64720Y29064D01*
X65000Y29500D01*
X65614D01*
Y28599D01*
X65692Y28209D01*
X65913Y27878D01*
X69998Y23793D01*
X70329Y23572D01*
X70719Y23495D01*
X72227D01*
X72282Y23473D01*
X72282Y23473D01*
X72282Y23473D01*
X73458Y23495D01*
X73514D01*
X73534Y23499D01*
X73742Y23513D01*
X73757Y23520D01*
X73773Y23516D01*
X73943Y23538D01*
X73979Y23558D01*
X74020Y23553D01*
X74115Y23580D01*
X74267Y23699D01*
X74317Y23733D01*
X76400D01*
X76732Y23799D01*
X77013Y23987D01*
X77201Y24268D01*
X77267Y24600D01*
Y27400D01*
X77201Y27732D01*
X77633Y27926D01*
X77650Y27901D01*
X78108Y27595D01*
X78304Y27556D01*
Y27524D01*
X78362Y27236D01*
X78524Y26993D01*
X78768Y26830D01*
X79055Y26773D01*
X80945D01*
X81232Y26830D01*
X81235Y26832D01*
X81246Y26831D01*
X81270Y26827D01*
X81706Y26546D01*
X81703Y26470D01*
X81707Y26446D01*
X81702Y26422D01*
Y23041D01*
X77000D01*
X76617Y22883D01*
X76617Y22883D01*
X75870Y22136D01*
X75664Y22156D01*
X75401Y22332D01*
X75090Y22393D01*
X73319D01*
X73009Y22332D01*
X72868Y22238D01*
X72379Y22261D01*
X72241Y22300D01*
X72199Y22363D01*
X71741Y22669D01*
X71200Y22776D01*
X70659Y22669D01*
X70201Y22363D01*
X69895Y21904D01*
X69787Y21363D01*
X69895Y20823D01*
X70201Y20364D01*
X70659Y20058D01*
X70500Y19613D01*
X69959Y19505D01*
X69501Y19199D01*
X69195Y18741D01*
X69087Y18200D01*
Y17986D01*
X69024Y17944D01*
X68862Y17701D01*
X68805Y17413D01*
Y15524D01*
X68862Y15236D01*
X69024Y14993D01*
X69268Y14830D01*
X69555Y14773D01*
X71445D01*
X71459Y14776D01*
X71959Y14426D01*
Y10620D01*
X24823Y10620D01*
X24770Y10682D01*
X24601Y11119D01*
X24701Y11268D01*
X24767Y11600D01*
Y14400D01*
X24701Y14732D01*
X24572Y14924D01*
X24538Y15014D01*
X24505Y15029D01*
X24487Y15062D01*
X24435Y15104D01*
X24414Y15130D01*
X24382Y15182D01*
X24346Y15262D01*
X24310Y15373D01*
X24280Y15500D01*
X24290Y15548D01*
X24329Y15691D01*
X24374Y15808D01*
X24420Y15898D01*
X24465Y15965D01*
X24508Y16012D01*
X24585Y16073D01*
X24588Y16079D01*
X24595Y16081D01*
X24626Y16141D01*
X24858Y16488D01*
X24943Y16913D01*
Y20063D01*
X24914Y20209D01*
Y20238D01*
X24915Y20241D01*
X24914Y20244D01*
Y20277D01*
X24917Y20284D01*
X24929Y21822D01*
X24914Y21861D01*
Y23865D01*
X24813Y24373D01*
X24525Y24803D01*
X24310Y25018D01*
X24305Y25041D01*
X23999Y25499D01*
X23541Y25805D01*
X23000Y25913D01*
X22560Y25826D01*
X21440D01*
X21000Y25913D01*
X20459Y25805D01*
X20001Y25499D01*
X19695Y25041D01*
X19587Y24500D01*
X19695Y23959D01*
X20001Y23501D01*
X20459Y23195D01*
X21000Y23087D01*
X21440Y23175D01*
X22263D01*
Y22300D01*
X22247Y22264D01*
X22242Y22006D01*
X22227Y21784D01*
X22203Y21587D01*
X22171Y21416D01*
X22133Y21272D01*
X22090Y21155D01*
X22046Y21066D01*
X22003Y21002D01*
X21965Y20959D01*
X21894Y20902D01*
X21891Y20897D01*
X21885Y20895D01*
X21854Y20835D01*
X21622Y20489D01*
X21538Y20063D01*
Y16913D01*
X21545Y16879D01*
Y16394D01*
X21529Y16359D01*
X21521Y16064D01*
X21501Y15823D01*
X21468Y15626D01*
X21428Y15473D01*
X21385Y15367D01*
X21349Y15307D01*
X21328Y15285D01*
X21322Y15281D01*
X21315Y15279D01*
X21229Y15272D01*
X21218Y15267D01*
X21100D01*
X20768Y15201D01*
X20487Y15013D01*
X20299Y14732D01*
X20233Y14400D01*
Y11600D01*
X20299Y11268D01*
X20399Y11119D01*
X20230Y10682D01*
X20177Y10620D01*
X14281D01*
Y15594D01*
X14726Y15875D01*
X14781Y15879D01*
X15169Y15801D01*
X16350D01*
X16776Y15886D01*
X17137Y16127D01*
X17378Y16488D01*
X17462Y16913D01*
Y20063D01*
X17378Y20489D01*
X17137Y20849D01*
X16776Y21090D01*
X16552Y21135D01*
X16551Y21167D01*
X16524Y21226D01*
Y23943D01*
X18541Y25959D01*
X18541Y25959D01*
X18707Y26207D01*
X18765Y26500D01*
Y29683D01*
X20397Y31315D01*
X20425Y31320D01*
X20440Y31329D01*
X20447Y31331D01*
X20456Y31339D01*
X20472Y31347D01*
X20512Y31362D01*
X20558Y31377D01*
X20978Y31468D01*
X21106Y31488D01*
X21108Y31489D01*
X21329Y31385D01*
D02*
G37*
G36*
X16012Y21056D02*
X16020Y20968D01*
X16032Y20892D01*
X16050Y20825D01*
X16072Y20769D01*
X16100Y20723D01*
X16132Y20687D01*
X16170Y20661D01*
X16212Y20646D01*
X16260Y20641D01*
X15260D01*
X15307Y20646D01*
X15350Y20661D01*
X15387Y20687D01*
X15420Y20723D01*
X15447Y20769D01*
X15470Y20825D01*
X15487Y20892D01*
X15500Y20968D01*
X15507Y21056D01*
X15510Y21153D01*
X16010D01*
X16012Y21056D01*
D02*
G37*
G36*
X51968Y20292D02*
X51911Y20331D01*
X51850Y20367D01*
X51786Y20398D01*
X51718Y20425D01*
X51647Y20448D01*
X51572Y20467D01*
X51494Y20481D01*
X51412Y20492D01*
X51326Y20498D01*
X51237Y20500D01*
Y21500D01*
X51326Y21502D01*
X51494Y21519D01*
X51572Y21533D01*
X51647Y21552D01*
X51718Y21575D01*
X51786Y21602D01*
X51850Y21633D01*
X51911Y21669D01*
X51968Y21708D01*
Y20292D01*
D02*
G37*
G36*
X24388Y21826D02*
X24376Y20289D01*
X22232Y20480D01*
X22338Y20565D01*
X22433Y20670D01*
X22516Y20796D01*
X22588Y20942D01*
X22649Y21109D01*
X22699Y21296D01*
X22738Y21505D01*
X22766Y21734D01*
X22783Y21983D01*
X22788Y22253D01*
X24388Y21826D01*
D02*
G37*
G36*
X73042Y19607D02*
X73033Y19634D01*
X73006Y19658D01*
X72961Y19680D01*
X72897Y19699D01*
X72816Y19714D01*
X72716Y19727D01*
X72463Y19744D01*
X72137Y19750D01*
Y21250D01*
X72309Y21251D01*
X72816Y21286D01*
X72897Y21302D01*
X72961Y21320D01*
X73006Y21341D01*
X73033Y21366D01*
X73042Y21393D01*
Y19607D01*
D02*
G37*
G36*
X81702Y15000D02*
X77998D01*
X77541Y15305D01*
X77000Y15413D01*
X76656Y15345D01*
X76000Y16000D01*
Y21500D01*
X77000Y22500D01*
X81702D01*
Y15000D01*
D02*
G37*
G36*
X24248Y16496D02*
X24138Y16409D01*
X24040Y16302D01*
X23953Y16175D01*
X23878Y16027D01*
X23814Y15860D01*
X23763Y15673D01*
X23730Y15505D01*
X23746Y15408D01*
X23788Y15227D01*
X23841Y15068D01*
X23902Y14930D01*
X23973Y14813D01*
X24054Y14718D01*
X24144Y14644D01*
X21270Y14733D01*
X21422Y14744D01*
X21558Y14789D01*
X21678Y14867D01*
X21782Y14979D01*
X21870Y15123D01*
X21942Y15301D01*
X21998Y15512D01*
X22038Y15756D01*
X22062Y16034D01*
X22070Y16345D01*
X22096D01*
X22105Y16688D01*
X24248Y16496D01*
D02*
G37*
G36*
X45667Y15028D02*
X45797Y14921D01*
X45862Y14876D01*
X45929Y14836D01*
X45995Y14802D01*
X46062Y14773D01*
X46130Y14750D01*
X46198Y14732D01*
X46266Y14719D01*
X45265Y13718D01*
X45252Y13786D01*
X45234Y13854D01*
X45211Y13922D01*
X45182Y13989D01*
X45148Y14055D01*
X45108Y14122D01*
X45063Y14187D01*
X45013Y14253D01*
X44957Y14318D01*
X44895Y14382D01*
X45602Y15089D01*
X45667Y15028D01*
D02*
G37*
G36*
X76510Y14864D02*
X76656Y14803D01*
X76707Y14825D01*
X76761Y14814D01*
X77000Y14861D01*
X77330Y14796D01*
X77697Y14550D01*
X77852Y14519D01*
X77998Y14459D01*
X81702D01*
Y10620D01*
X76000D01*
Y14500D01*
X76388Y14888D01*
X76510Y14864D01*
D02*
G37*
G36*
X75459Y17541D02*
Y16000D01*
X75459Y16000D01*
X75500Y15901D01*
X75500Y14600D01*
X75459Y14500D01*
X75459Y14500D01*
Y10620D01*
X75459Y10620D01*
X72500D01*
Y17500D01*
X73000Y18000D01*
X75000D01*
X75459Y17541D01*
D02*
G37*
%LPC*%
G36*
X26457Y84857D02*
X25658Y84752D01*
X24914Y84444D01*
X24275Y83953D01*
X23785Y83314D01*
X23476Y82570D01*
X23371Y81772D01*
Y80354D01*
X23476Y79556D01*
X23785Y78812D01*
X24275Y78173D01*
X24914Y77682D01*
X25658Y77374D01*
Y76878D01*
X24914Y76570D01*
X24275Y76079D01*
X23785Y75440D01*
X23476Y74696D01*
X23371Y73898D01*
Y72480D01*
X23476Y71682D01*
X23785Y70938D01*
X24275Y70299D01*
X24914Y69808D01*
X25658Y69500D01*
X26457Y69395D01*
X27255Y69500D01*
X27999Y69808D01*
X28638Y70299D01*
X29129Y70938D01*
X29437Y71682D01*
X29532Y72400D01*
X30032Y72368D01*
Y71688D01*
X30058Y71553D01*
X30046Y71522D01*
X30082Y71433D01*
X30089Y71401D01*
X30087Y71396D01*
X30093Y71302D01*
X30094Y71299D01*
X30094Y71298D01*
X30232Y69207D01*
X30229Y69164D01*
X30227Y69153D01*
X30228Y69149D01*
X30227Y69133D01*
X30238Y69102D01*
X30218Y69054D01*
X30231Y69023D01*
X30208Y68906D01*
Y66150D01*
X30277Y65801D01*
X30475Y65505D01*
X30770Y65308D01*
X31119Y65238D01*
X33481D01*
X33830Y65308D01*
X34125Y65505D01*
X34145Y65535D01*
X34757Y65627D01*
X34761Y65626D01*
X35541Y64846D01*
X35563Y64787D01*
X35736Y64601D01*
X35785Y64540D01*
X35805Y64513D01*
Y64500D01*
X35783Y64449D01*
X35801Y64406D01*
X35791Y64361D01*
X35805Y64338D01*
Y63024D01*
X35862Y62736D01*
X36024Y62493D01*
X36268Y62330D01*
X36555Y62273D01*
X38445D01*
X38732Y62330D01*
X38976Y62493D01*
X39138Y62736D01*
X39195Y63024D01*
Y64913D01*
X39138Y65201D01*
X38976Y65444D01*
X38732Y65607D01*
X38445Y65664D01*
X37130D01*
X37108Y65678D01*
X37062Y65667D01*
X37020Y65685D01*
X36968Y65664D01*
X36955D01*
X36934Y65679D01*
X36780Y65810D01*
X36689Y65899D01*
X36627Y65923D01*
X35723Y66827D01*
Y74196D01*
X36591Y75064D01*
X38933D01*
X39200Y74564D01*
X39065Y74361D01*
X38910Y73583D01*
Y72638D01*
X39065Y71859D01*
X39506Y71199D01*
X40166Y70758D01*
X40945Y70603D01*
X41724Y70758D01*
X42384Y71199D01*
X42565Y71470D01*
X43065D01*
X43246Y71199D01*
X43906Y70758D01*
X44685Y70603D01*
X45464Y70758D01*
X46124Y71199D01*
X46596Y71033D01*
X46729Y70590D01*
X46423Y70132D01*
X46315Y69591D01*
X46423Y69051D01*
X46729Y68592D01*
X47188Y68286D01*
X47728Y68178D01*
X48183Y68269D01*
X48695Y68259D01*
X49001Y67801D01*
X49459Y67495D01*
X50000Y67387D01*
X50541Y67495D01*
X50740Y67627D01*
X50851Y67654D01*
X51094Y67831D01*
X51283Y67959D01*
X51425Y68043D01*
X51463Y68061D01*
X51480Y68068D01*
X51505Y68076D01*
X51518Y68086D01*
X52312D01*
X52586Y68141D01*
X52817Y68295D01*
X55372Y70851D01*
X55527Y71082D01*
X55581Y71355D01*
Y75054D01*
X55527Y75327D01*
X55372Y75558D01*
X55280Y75650D01*
X55489Y76149D01*
X56076Y76266D01*
X56084Y76259D01*
X56153Y76193D01*
X56214Y76169D01*
X57020Y75363D01*
X57174Y75260D01*
X57309Y75002D01*
X57378Y74665D01*
X57175Y74361D01*
X57020Y73583D01*
Y72638D01*
X57175Y71859D01*
X57616Y71199D01*
X58276Y70758D01*
X59055Y70603D01*
X59834Y70758D01*
X60494Y71199D01*
X60935Y71859D01*
X61090Y72638D01*
Y73583D01*
X60935Y74361D01*
X60750Y74639D01*
X61017Y75139D01*
X65435D01*
X65728Y75197D01*
X65976Y75363D01*
X66622Y76009D01*
X66681Y76031D01*
X66867Y76205D01*
X66928Y76254D01*
X66955Y76273D01*
X66968D01*
X67019Y76252D01*
X67062Y76270D01*
X67108Y76259D01*
X67130Y76273D01*
X68445D01*
X68732Y76330D01*
X68976Y76493D01*
X69138Y76736D01*
X69195Y77024D01*
Y78913D01*
X69138Y79201D01*
X68976Y79444D01*
X68732Y79607D01*
X68445Y79664D01*
X66555D01*
X66268Y79607D01*
X66024Y79444D01*
X65862Y79201D01*
X65804Y78913D01*
Y77599D01*
X65790Y77576D01*
X65801Y77531D01*
X65783Y77488D01*
X65804Y77437D01*
Y77424D01*
X65789Y77402D01*
X65658Y77249D01*
X65570Y77157D01*
X65545Y77095D01*
X65118Y76668D01*
X61067D01*
X60800Y77168D01*
X60935Y77371D01*
X61090Y78150D01*
Y79094D01*
X60935Y79873D01*
X60494Y80534D01*
X59834Y80975D01*
X59055Y81130D01*
X58276Y80975D01*
X57616Y80534D01*
X57435Y80263D01*
X56935D01*
X56754Y80534D01*
X56094Y80975D01*
X55315Y81130D01*
X54536Y80975D01*
X53876Y80534D01*
X53793Y80410D01*
X53293D01*
X53211Y80534D01*
X52551Y80975D01*
X51772Y81130D01*
X50993Y80975D01*
X50333Y80534D01*
X50250Y80410D01*
X49750D01*
X49667Y80534D01*
X49007Y80975D01*
X48228Y81130D01*
X47449Y80975D01*
X46789Y80534D01*
X46348Y79873D01*
X46193Y79094D01*
Y78150D01*
X46348Y77371D01*
X46789Y76710D01*
X47449Y76269D01*
X48228Y76114D01*
X49007Y76269D01*
X49041Y76292D01*
X49099Y76270D01*
X49920Y75449D01*
X49635Y75043D01*
X49007Y75463D01*
X48228Y75618D01*
X47449Y75463D01*
X46789Y75022D01*
X46707Y74898D01*
X46207D01*
X46124Y75022D01*
X45464Y75463D01*
X44685Y75618D01*
X43924Y75467D01*
X43916Y75474D01*
X43847Y75539D01*
X43786Y75563D01*
X42980Y76369D01*
X42826Y76472D01*
X42691Y76731D01*
X42622Y77067D01*
X42825Y77371D01*
X42980Y78150D01*
Y79094D01*
X42825Y79873D01*
X42384Y80534D01*
X41724Y80975D01*
X40945Y81130D01*
X40166Y80975D01*
X39506Y80534D01*
X39065Y79873D01*
X38910Y79094D01*
Y78150D01*
X39065Y77371D01*
X39250Y77093D01*
X38983Y76593D01*
X36274D01*
X35982Y76535D01*
X35734Y76369D01*
X34763Y75399D01*
X34221Y75564D01*
X34205Y75641D01*
X33899Y76099D01*
X33676Y76248D01*
X33797Y76768D01*
X33978Y76804D01*
X34288Y77012D01*
X34496Y77322D01*
X34568Y77688D01*
Y80105D01*
X34805Y80459D01*
X34913Y81000D01*
X34805Y81541D01*
X34499Y81999D01*
X34041Y82305D01*
X33500Y82413D01*
X31500D01*
X30959Y82305D01*
X30501Y81999D01*
X30195Y81541D01*
X30087Y81000D01*
X30117Y80849D01*
X30042Y80735D01*
X29542Y80884D01*
Y81772D01*
X29437Y82570D01*
X29129Y83314D01*
X28638Y83953D01*
X27999Y84444D01*
X27255Y84752D01*
X26457Y84857D01*
D02*
G37*
G36*
X65500Y71413D02*
X64959Y71305D01*
X64501Y70999D01*
X64195Y70541D01*
X64087Y70000D01*
X64195Y69459D01*
X64501Y69001D01*
X64959Y68695D01*
X65500Y68587D01*
X66041Y68695D01*
X66499Y69001D01*
X66805Y69459D01*
X66913Y70000D01*
X66805Y70541D01*
X66499Y70999D01*
X66041Y71305D01*
X65500Y71413D01*
D02*
G37*
G36*
X44200Y66313D02*
X43659Y66205D01*
X43201Y65899D01*
X42895Y65441D01*
X42787Y64900D01*
X42895Y64359D01*
X43201Y63901D01*
X43659Y63595D01*
X44200Y63487D01*
X44741Y63595D01*
X45199Y63901D01*
X45505Y64359D01*
X45613Y64900D01*
X45505Y65441D01*
X45199Y65899D01*
X44741Y66205D01*
X44200Y66313D01*
D02*
G37*
%LPD*%
G36*
X67019Y76793D02*
X66982Y76820D01*
X66937Y76833D01*
X66884Y76832D01*
X66824Y76816D01*
X66757Y76787D01*
X66683Y76743D01*
X66601Y76686D01*
X66512Y76614D01*
X66312Y76427D01*
X65959Y76781D01*
X66059Y76885D01*
X66217Y77070D01*
X66275Y77152D01*
X66318Y77226D01*
X66348Y77293D01*
X66363Y77353D01*
X66365Y77405D01*
X66351Y77450D01*
X66324Y77488D01*
X67019Y76793D01*
D02*
G37*
G36*
X53039Y77389D02*
X53025Y77356D01*
X53020Y77320D01*
X53024Y77280D01*
X53036Y77237D01*
X53058Y77190D01*
X53089Y77140D01*
X53129Y77086D01*
X53178Y77029D01*
X53236Y76968D01*
X52953Y76686D01*
X52892Y76743D01*
X52835Y76792D01*
X52781Y76832D01*
X52731Y76863D01*
X52684Y76885D01*
X52641Y76898D01*
X52601Y76902D01*
X52565Y76896D01*
X52532Y76882D01*
X52503Y76859D01*
X53062Y77418D01*
X53039Y77389D01*
D02*
G37*
G36*
X49496D02*
X49481Y77356D01*
X49476Y77320D01*
X49480Y77280D01*
X49493Y77237D01*
X49515Y77190D01*
X49546Y77140D01*
X49586Y77086D01*
X49635Y77029D01*
X49692Y76968D01*
X49410Y76686D01*
X49349Y76743D01*
X49292Y76792D01*
X49238Y76832D01*
X49188Y76863D01*
X49141Y76885D01*
X49098Y76898D01*
X49058Y76902D01*
X49022Y76896D01*
X48989Y76882D01*
X48960Y76859D01*
X49519Y77418D01*
X49496Y77389D01*
D02*
G37*
G36*
X56618Y77481D02*
X56601Y77440D01*
X56595Y77393D01*
X56601Y77342D01*
X56618Y77286D01*
X56648Y77226D01*
X56688Y77161D01*
X56741Y77091D01*
X56805Y77017D01*
X56880Y76938D01*
X56527Y76584D01*
X56448Y76660D01*
X56373Y76724D01*
X56304Y76776D01*
X56239Y76817D01*
X56178Y76846D01*
X56122Y76864D01*
X56071Y76870D01*
X56025Y76864D01*
X55983Y76847D01*
X55946Y76818D01*
X56647Y77518D01*
X56618Y77481D01*
D02*
G37*
G36*
X43552Y75073D02*
X43627Y75008D01*
X43696Y74956D01*
X43761Y74915D01*
X43822Y74886D01*
X43878Y74869D01*
X43929Y74863D01*
X43975Y74868D01*
X44017Y74886D01*
X44054Y74914D01*
X43353Y74214D01*
X43382Y74251D01*
X43399Y74293D01*
X43405Y74339D01*
X43399Y74390D01*
X43382Y74446D01*
X43352Y74506D01*
X43312Y74571D01*
X43259Y74641D01*
X43195Y74716D01*
X43119Y74795D01*
X43473Y75148D01*
X43552Y75073D01*
D02*
G37*
G36*
X48970Y70152D02*
X48938Y70115D01*
X48904Y70068D01*
X48868Y70009D01*
X48790Y69859D01*
X48705Y69665D01*
X48562Y69293D01*
X47783Y70475D01*
X47953Y70466D01*
X48571Y70470D01*
X48648Y70481D01*
X48709Y70495D01*
X48755Y70512D01*
X48786Y70533D01*
X48970Y70152D01*
D02*
G37*
G36*
X33808Y71522D02*
X34013D01*
X33973Y71432D01*
X33937Y71290D01*
X33904Y71098D01*
X33853Y70557D01*
X33829Y69913D01*
X33841Y69054D01*
X33806D01*
X33800Y68301D01*
X30800D01*
X30798Y68856D01*
X30785Y69054D01*
X30759D01*
X30767Y69096D01*
X30774Y69196D01*
X30774Y69212D01*
X30627Y71432D01*
X30587Y71522D01*
X30799D01*
X30800Y72115D01*
X33800D01*
X33808Y71522D01*
D02*
G37*
G36*
X50662Y69412D02*
X51167Y69081D01*
X51239Y69046D01*
X51301Y69020D01*
X51352Y69005D01*
X51394Y69000D01*
Y68600D01*
X51352Y68595D01*
X51301Y68580D01*
X51239Y68554D01*
X51167Y68519D01*
X50995Y68417D01*
X50783Y68275D01*
X50532Y68092D01*
Y69508D01*
X50662Y69412D01*
D02*
G37*
G36*
X36416Y65409D02*
X36601Y65251D01*
X36683Y65194D01*
X36757Y65150D01*
X36824Y65121D01*
X36884Y65105D01*
X36937Y65104D01*
X36982Y65117D01*
X37020Y65144D01*
X36324Y64449D01*
X36351Y64487D01*
X36364Y64532D01*
X36363Y64584D01*
X36348Y64644D01*
X36318Y64711D01*
X36275Y64785D01*
X36217Y64867D01*
X36145Y64956D01*
X35959Y65156D01*
X36312Y65510D01*
X36416Y65409D01*
D02*
G37*
D11*
X18000Y30000D02*
X20900Y32900D01*
X18000Y26500D02*
Y30000D01*
X15760Y24260D02*
X18000Y26500D01*
X15760Y18488D02*
Y24260D01*
X18674Y53490D02*
X21590D01*
X22600Y54500D01*
X55400Y26100D02*
X55500D01*
X51279Y30220D02*
X55400Y26100D01*
X51279Y30220D02*
Y36957D01*
X81417Y73189D02*
X81500Y73106D01*
Y69500D02*
Y73106D01*
Y69500D02*
X84047Y66953D01*
Y66937D02*
Y66953D01*
X76000Y66984D02*
Y67000D01*
X73543Y69457D02*
X76000Y67000D01*
X73543Y69457D02*
Y73189D01*
X71500Y32113D02*
Y43000D01*
X70700Y43800D02*
X71500Y43000D01*
X69500Y43800D02*
X70700D01*
X70300Y48000D02*
X71500D01*
X68900Y46600D02*
X70300Y48000D01*
X68900Y44400D02*
Y46600D01*
X74000Y46950D02*
Y58100D01*
X72450Y45400D02*
X74000Y46950D01*
X72600Y59500D02*
X74000Y58100D01*
X68900Y44400D02*
X69500Y43800D01*
X68843Y30543D02*
X69930D01*
X71500Y32113D01*
X68600Y30300D02*
X68843Y30543D01*
X77500Y69484D02*
Y77687D01*
Y69484D02*
X80047Y66937D01*
X76000Y58500D02*
X77500Y60000D01*
X76047Y61453D02*
X77500Y60000D01*
X79800Y59900D02*
Y62753D01*
X82200Y59900D02*
X82300D01*
X82200D02*
X82443Y60143D01*
X45000Y54200D02*
X46469Y52731D01*
X82443Y60143D02*
Y61396D01*
X84047Y63000D01*
X46469Y52731D02*
X53200D01*
X54969Y54500D01*
X56437Y57531D02*
X60488D01*
X54469Y59500D02*
X56437Y57531D01*
X44550Y58024D02*
X47957Y61431D01*
X38000Y50500D02*
X40000Y48500D01*
X55207Y54262D02*
X63758D01*
X79900Y58600D02*
X80000Y58500D01*
X79800Y62753D02*
X80047Y63000D01*
X47600Y28000D02*
X47800D01*
X74032Y38032D02*
X76500Y40500D01*
X73500Y38032D02*
X74032D01*
X76500Y40500D02*
Y42406D01*
X56400Y37159D02*
Y39900D01*
Y37159D02*
X56500Y37059D01*
X53800Y37395D02*
Y38100D01*
X48000Y44184D02*
Y48000D01*
X82300Y59900D02*
X83700Y58500D01*
X73968Y41500D02*
X74734D01*
X53800Y36995D02*
X54000Y37195D01*
X53800Y37395D02*
X54000Y37195D01*
X71512Y59500D02*
X72600D01*
X38000Y50500D02*
Y54500D01*
X76000Y66984D02*
X76047Y66937D01*
X65435Y75903D02*
X67500Y77969D01*
X57561Y75903D02*
X65435D01*
X76000Y53469D02*
Y57000D01*
X19500Y44250D02*
Y48356D01*
X17931Y49925D02*
X19500Y48356D01*
X55315Y78150D02*
Y78622D01*
Y78150D02*
X57561Y75903D01*
X34959Y66510D02*
Y74513D01*
Y66510D02*
X37500Y63968D01*
X34959Y74513D02*
X36274Y75829D01*
X42439D01*
X44685Y73583D01*
Y73110D02*
Y73583D01*
X17931Y49925D02*
Y52747D01*
X18674Y53490D01*
X53800Y36995D02*
X53839Y36957D01*
X56398D02*
X56500Y37059D01*
X50300Y25500D02*
X50500D01*
X71500Y55551D02*
X71512Y55563D01*
X71500Y50600D02*
Y55551D01*
Y45400D02*
X72450D01*
X52537Y61431D02*
X54469Y59500D01*
X47957Y61431D02*
X52537D01*
X76500Y42406D02*
X78441Y44346D01*
X63758Y54262D02*
X64031Y53988D01*
X73500Y41969D02*
X73968Y41500D01*
X83969Y32500D02*
Y37244D01*
X83559Y37653D02*
X83969Y37244D01*
X48000Y44184D02*
X48720Y43464D01*
Y36957D02*
Y43464D01*
X80000Y53469D02*
Y57000D01*
X84000Y53469D02*
Y57000D01*
X76047Y61453D02*
Y63000D01*
X83700Y58500D02*
X84000D01*
X77500Y77687D02*
X80876Y81063D01*
X81417D01*
X47800Y28000D02*
X50300Y25500D01*
D12*
X47728Y69193D02*
X48977Y70442D01*
X50000Y68800D02*
X52312D01*
X48977Y70442D02*
X50680D01*
X51121Y70000D01*
X52240D01*
X53968Y71728D01*
X47728Y69193D02*
Y69591D01*
X52312Y68800D02*
X54868Y71355D01*
X50424Y75954D02*
X52507D01*
X48228Y78150D02*
X50424Y75954D01*
X52507D02*
X53968Y74492D01*
X54868Y71355D02*
Y75054D01*
X51772Y78150D02*
X54868Y75054D01*
X51772Y78150D02*
Y78622D01*
X48228Y78150D02*
Y78622D01*
X53968Y71728D02*
Y74492D01*
D19*
X58957Y36957D02*
D03*
X66634D02*
D03*
X33366D02*
D03*
X41043D02*
D03*
X69193D02*
D03*
X61516D02*
D03*
X64075D02*
D03*
X51279D02*
D03*
X53839D02*
D03*
X56398D02*
D03*
X43602D02*
D03*
X46161D02*
D03*
X48720D02*
D03*
X35925D02*
D03*
X38484D02*
D03*
X30807D02*
D03*
D20*
X70500Y16468D02*
D03*
Y12531D02*
D03*
X73500Y41969D02*
D03*
Y38032D02*
D03*
X80000Y28468D02*
D03*
Y24532D02*
D03*
X24000Y55468D02*
D03*
Y51531D02*
D03*
X20000Y55468D02*
D03*
Y51531D02*
D03*
X16000D02*
D03*
Y55468D02*
D03*
X76000Y49531D02*
D03*
Y53469D02*
D03*
X76047Y66937D02*
D03*
Y63000D02*
D03*
X80047Y66937D02*
D03*
Y63000D02*
D03*
X84047Y66937D02*
D03*
Y63000D02*
D03*
X27000Y38532D02*
D03*
Y42469D02*
D03*
X67500Y74032D02*
D03*
Y77969D02*
D03*
X37500Y63968D02*
D03*
Y60031D02*
D03*
X80000Y49531D02*
D03*
Y53469D02*
D03*
X84000Y49531D02*
D03*
Y53469D02*
D03*
D21*
X32300Y67528D02*
D03*
Y58472D02*
D03*
D22*
X65969Y48000D02*
D03*
X62032D02*
D03*
X57968Y50700D02*
D03*
X54031D02*
D03*
X83969Y32500D02*
D03*
X80032D02*
D03*
X52969Y63500D02*
D03*
X49031D02*
D03*
X54031Y45500D02*
D03*
X57968D02*
D03*
X51032Y54700D02*
D03*
X54969D02*
D03*
X50532Y59500D02*
D03*
X54469D02*
D03*
X38032Y45500D02*
D03*
X41969D02*
D03*
X46031Y50700D02*
D03*
X49968D02*
D03*
Y45500D02*
D03*
X46031D02*
D03*
D23*
X22500Y13000D02*
D03*
X16500D02*
D03*
X22500Y37000D02*
D03*
X16500D02*
D03*
X16500Y42000D02*
D03*
X22500D02*
D03*
X16500Y47000D02*
D03*
X22500D02*
D03*
D24*
X79795Y20500D02*
D03*
X74205D02*
D03*
X79795Y12500D02*
D03*
X74205D02*
D03*
X79795Y16500D02*
D03*
X74205D02*
D03*
D25*
X75000Y26000D02*
D03*
Y32000D02*
D03*
D26*
X22500Y65000D02*
D03*
X16500D02*
D03*
Y60000D02*
D03*
X22500D02*
D03*
D27*
X78441Y44346D02*
D03*
X83559D02*
D03*
X78441Y37653D02*
D03*
X83559D02*
D03*
D28*
X80000Y57000D02*
D03*
Y58500D02*
D03*
X84000Y57000D02*
D03*
Y58500D02*
D03*
X76000Y57000D02*
D03*
Y58500D02*
D03*
D29*
X32300Y79000D02*
D03*
Y73000D02*
D03*
D30*
X60488Y63437D02*
D03*
Y61468D02*
D03*
Y59500D02*
D03*
Y57531D02*
D03*
Y55563D02*
D03*
X71512D02*
D03*
Y57531D02*
D03*
Y59500D02*
D03*
Y61468D02*
D03*
Y63437D02*
D03*
D31*
X64031Y53988D02*
D03*
X66000D02*
D03*
X67968D02*
D03*
Y65012D02*
D03*
X66000D02*
D03*
X64031D02*
D03*
D32*
X71500Y48000D02*
D03*
Y45400D02*
D03*
Y50600D02*
D03*
D33*
X15760Y29512D02*
D03*
X23240D02*
D03*
Y18488D02*
D03*
X19500D02*
D03*
X15760D02*
D03*
D53*
X31100Y75100D02*
X32900D01*
X31500Y81000D02*
X33500D01*
X70500Y16468D02*
Y18200D01*
D54*
X22500Y37000D02*
X23500Y36000D01*
Y29772D02*
Y36000D01*
X23240Y29512D02*
X23500Y29772D01*
X22870Y13370D02*
Y18118D01*
X22500Y13000D02*
X22870Y13370D01*
X23240Y18488D02*
X23588Y18836D01*
X22870Y18118D02*
X23588Y18836D01*
Y23865D01*
X23000Y24454D02*
Y24500D01*
Y24454D02*
X23588Y23865D01*
X21000Y24500D02*
X23000D01*
X24500Y27700D02*
Y29467D01*
D55*
X17852Y32752D02*
X18000Y32900D01*
X17852Y32089D02*
Y32752D01*
X15760Y29996D02*
X17852Y32089D01*
X15760Y29512D02*
Y29996D01*
X67968Y63169D02*
Y65012D01*
X67100Y62300D02*
X67968Y63169D01*
X63200Y62300D02*
X67100D01*
X62063Y63437D02*
X63200Y62300D01*
X60488Y63437D02*
X62063D01*
X59663D02*
X60488D01*
X58100Y65000D02*
X59663Y63437D01*
X54469Y65000D02*
X58100D01*
X67968Y66969D02*
X70200Y69200D01*
X67968Y65012D02*
Y66969D01*
X80016Y28516D02*
Y32484D01*
X52400Y56900D02*
X52500Y57000D01*
X51032Y54500D02*
X52400Y55869D01*
X41000Y31500D02*
Y41893D01*
X52400Y57100D02*
X52500Y57000D01*
X50874Y58626D02*
X52400Y57100D01*
X73514Y24514D02*
X75000Y26000D01*
X70719Y24514D02*
X73514D01*
X41500Y27500D02*
X42033D01*
X46161Y31628D02*
Y36957D01*
X42033Y27500D02*
X46161Y31628D01*
X27012Y27700D02*
X35212Y19500D01*
X24500Y27700D02*
X27012D01*
X26900Y29933D02*
X35833Y21000D01*
X26900Y29933D02*
Y32900D01*
X35833Y21000D02*
X52500D01*
X35000Y29000D02*
X38500D01*
X33500Y27500D02*
X35000Y29000D01*
X32000Y27500D02*
X33500D01*
X40484Y19500D02*
X46142Y13842D01*
X35212Y19500D02*
X40484D01*
X64075Y46106D02*
X65969Y48000D01*
X64075Y36957D02*
Y46106D01*
X52969Y63500D02*
X54469Y65000D01*
X66634Y28599D02*
Y36957D01*
Y28599D02*
X70719Y24514D01*
X57968Y50800D02*
X58650Y50119D01*
X59913D01*
X62032Y48000D01*
X52400Y55869D02*
Y56900D01*
X50874Y58626D02*
Y59158D01*
X50532Y59500D02*
X50874Y59158D01*
X49968Y45500D02*
X54031D01*
X38500Y29000D02*
X41000Y31500D01*
X80000Y28468D02*
Y28500D01*
X80016Y28516D01*
Y32484D02*
X80032Y32500D01*
X74205Y12500D02*
Y16500D01*
X43602Y43319D02*
X43850D01*
X42500D02*
X43602D01*
Y36957D02*
Y43319D01*
X43850D02*
X46031Y45500D01*
X41000Y41893D02*
X42426Y43319D01*
X32000Y44000D02*
X33366Y42634D01*
X28532Y44000D02*
X32000D01*
X27000Y42469D02*
X28532Y44000D01*
X33366Y36957D02*
Y42634D01*
X35925Y43394D02*
X38032Y45501D01*
X35925Y36957D02*
Y43394D01*
X27000Y38532D02*
X30677D01*
X30807Y38402D01*
Y36957D02*
Y38402D01*
X77197Y20500D02*
X79795D01*
Y16500D02*
Y20500D01*
X78441Y34091D02*
X80032Y32500D01*
X78441Y34091D02*
Y37653D01*
X46031Y45500D02*
Y50500D01*
X80000Y49531D02*
X84000D01*
X76000D02*
X80000D01*
D56*
X72137Y20500D02*
X74205D01*
X71273Y21363D02*
X72137Y20500D01*
X71200Y21363D02*
X71273D01*
D57*
X79800Y58700D02*
Y59900D01*
D58*
X32300Y67528D02*
Y73000D01*
D59*
X38484Y42016D02*
X41969Y45500D01*
X61516Y36957D02*
Y43984D01*
X60000Y45500D02*
X61516Y43984D01*
X57968Y45500D02*
X60000D01*
X38484Y36957D02*
Y42016D01*
D60*
X16000Y47500D02*
Y51531D01*
Y47500D02*
X16500Y47000D01*
Y42000D02*
Y47000D01*
D61*
X18583Y81063D02*
D03*
X26457D02*
D03*
Y73189D02*
D03*
X18583D02*
D03*
D62*
X81417Y81063D02*
D03*
X73543D02*
D03*
Y73189D02*
D03*
X81417D02*
D03*
D63*
X57874Y68268D02*
D03*
X42126Y83465D02*
D03*
Y68268D02*
D03*
X57874Y83465D02*
D03*
D64*
X48228Y78622D02*
D03*
X40945D02*
D03*
X37205D02*
D03*
Y73110D02*
D03*
X40945D02*
D03*
X44685D02*
D03*
X48228D02*
D03*
X62795D02*
D03*
X59055D02*
D03*
X51772D02*
D03*
X62795Y78622D02*
D03*
X59055D02*
D03*
X55315D02*
D03*
X51772D02*
D03*
D65*
X20900Y32900D02*
D03*
X19500Y19000D02*
D03*
Y17000D02*
D03*
X18000Y32900D02*
D03*
X21000Y24500D02*
D03*
X23000D02*
D03*
X24500Y29500D02*
D03*
Y27700D02*
D03*
X22600Y54500D02*
D03*
X32900Y30300D02*
D03*
X30900D02*
D03*
X26900Y32900D02*
D03*
X50000Y66300D02*
D03*
X63400Y21800D02*
D03*
X64200Y26100D02*
D03*
X53100Y48100D02*
D03*
X57900D02*
D03*
X55500D02*
D03*
X70200Y69200D02*
D03*
X73480Y65358D02*
D03*
X77500Y60000D02*
D03*
X79800Y59900D02*
D03*
X82200D02*
D03*
X55717Y63114D02*
D03*
X52400Y57100D02*
D03*
X50000Y68800D02*
D03*
X47728Y69591D02*
D03*
X44550Y58024D02*
D03*
X78649Y28900D02*
D03*
X71200Y21363D02*
D03*
X44200Y64900D02*
D03*
X45116Y27916D02*
D03*
X45000Y54200D02*
D03*
X51000Y50500D02*
D03*
X40000Y48500D02*
D03*
X62000Y52000D02*
D03*
X75750Y49800D02*
D03*
X71500Y26400D02*
D03*
X47600Y28000D02*
D03*
X65500Y70000D02*
D03*
X56400Y39900D02*
D03*
X53800Y38100D02*
D03*
X32900Y75100D02*
D03*
X31100D02*
D03*
X48000Y48000D02*
D03*
X82726Y40872D02*
D03*
X74734Y41500D02*
D03*
X63400Y28500D02*
D03*
X71100Y29400D02*
D03*
X68600Y30300D02*
D03*
X55500Y26100D02*
D03*
X59000Y33000D02*
D03*
X70500Y18200D02*
D03*
X52500Y21000D02*
D03*
X32000Y27500D02*
D03*
X19500Y44250D02*
D03*
X68000Y50500D02*
D03*
X31500Y81000D02*
D03*
X33500D02*
D03*
X41500Y27500D02*
D03*
X77000Y14000D02*
D03*
Y12000D02*
D03*
X75500Y35500D02*
D03*
X50500Y25500D02*
D03*
X78500Y41000D02*
D03*
X68000Y58000D02*
D03*
X32000Y14500D02*
D03*
X31999Y18937D02*
D03*
X46142Y13842D02*
D03*
X77197Y20500D02*
D03*
X81500Y46350D02*
D03*
X69193Y37031D02*
D03*
X38000Y56500D02*
D03*
Y54500D02*
D03*
X68000Y60000D02*
D03*
X22600Y56500D02*
D03*
X24600D02*
D03*
Y54500D02*
D03*
X36000D02*
D03*
Y56500D02*
D03*
X57724Y60567D02*
D03*
X65980Y44410D02*
D03*
D66*
X27547Y47532D02*
D03*
Y51468D02*
D03*
X33453D02*
D03*
Y47532D02*
D03*
X30500Y49500D02*
D03*
M02*
