G04*
G04 #@! TF.GenerationSoftware,Altium Limited,Altium Designer,19.1.5 (86)*
G04*
G04 Layer_Color=2752767*
%FSLAX25Y25*%
%MOIN*%
G70*
G01*
G75*
%ADD10C,0.00600*%
%ADD11C,0.00200*%
%ADD12C,0.00267*%
D10*
X85571Y29271D02*
G03*
X82721Y26422I-4J-2845D01*
G01*
X82721Y9600D02*
Y26422D01*
X13261Y9600D02*
X82721D01*
X85571Y29271D02*
X86739D01*
X13261Y9600D02*
Y86384D01*
X86739Y29271D02*
Y86384D01*
X13261Y86384D02*
X86739D01*
D11*
X17783Y80263D02*
Y81863D01*
X19383D01*
Y80263D01*
X17783D01*
X25657D02*
Y81863D01*
X27257D01*
Y80263D01*
X25657D01*
Y72389D02*
Y73989D01*
X27257D01*
Y72389D01*
X25657D01*
X17783D02*
Y73989D01*
X19383D01*
Y72389D01*
X17783D01*
X80617Y80263D02*
Y81863D01*
X82217D01*
Y80263D01*
X80617D01*
X72743D02*
Y81863D01*
X74343D01*
Y80263D01*
X72743D01*
Y72389D02*
Y73989D01*
X74343D01*
Y72389D01*
X72743D01*
X80617D02*
Y73989D01*
X82217D01*
Y72389D01*
X80617D01*
X48228Y77822D02*
X47428Y79422D01*
X49028D01*
X48228Y77822D01*
X40945D02*
X40145Y79422D01*
X41745D01*
X40945Y77822D01*
X37205D02*
X36405Y79422D01*
X38005D01*
X37205Y77822D01*
Y72310D02*
X36405Y73910D01*
X38005D01*
X37205Y72310D01*
X40945D02*
X40145Y73910D01*
X41745D01*
X40945Y72310D01*
X44685D02*
X43885Y73910D01*
X45485D01*
X44685Y72310D01*
X48228D02*
X47428Y73910D01*
X49028D01*
X48228Y72310D01*
X62795D02*
X61995Y73910D01*
X63595D01*
X62795Y72310D01*
X59055D02*
X58255Y73910D01*
X59855D01*
X59055Y72310D01*
X51772D02*
X50972Y73910D01*
X52572D01*
X51772Y72310D01*
X62795Y77822D02*
X61995Y79422D01*
X63595D01*
X62795Y77822D01*
X59055D02*
X58255Y79422D01*
X59855D01*
X59055Y77822D01*
X55315D02*
X54515Y79422D01*
X56115D01*
X55315Y77822D01*
X51772D02*
X50972Y79422D01*
X52572D01*
X51772Y77822D01*
X20900Y32100D02*
X21300Y32500D01*
X21700D01*
X21300Y32900D01*
X21700Y33300D01*
X21300D01*
X20900Y33700D01*
X20500Y33300D01*
X20100D01*
X20500Y32900D01*
X20100Y32500D01*
X20500D01*
X20900Y32100D01*
X19500Y18200D02*
X19900Y18600D01*
X20300D01*
X19900Y19000D01*
X20300Y19400D01*
X19900D01*
X19500Y19800D01*
X19100Y19400D01*
X18700D01*
X19100Y19000D01*
X18700Y18600D01*
X19100D01*
X19500Y18200D01*
Y16200D02*
X19900Y16600D01*
X20300D01*
X19900Y17000D01*
X20300Y17400D01*
X19900D01*
X19500Y17800D01*
X19100Y17400D01*
X18700D01*
X19100Y17000D01*
X18700Y16600D01*
X19100D01*
X19500Y16200D01*
X18000Y32100D02*
X18400Y32500D01*
X18800D01*
X18400Y32900D01*
X18800Y33300D01*
X18400D01*
X18000Y33700D01*
X17600Y33300D01*
X17200D01*
X17600Y32900D01*
X17200Y32500D01*
X17600D01*
X18000Y32100D01*
X21000Y23700D02*
X21400Y24100D01*
X21800D01*
X21400Y24500D01*
X21800Y24900D01*
X21400D01*
X21000Y25300D01*
X20600Y24900D01*
X20200D01*
X20600Y24500D01*
X20200Y24100D01*
X20600D01*
X21000Y23700D01*
X23000D02*
X23400Y24100D01*
X23800D01*
X23400Y24500D01*
X23800Y24900D01*
X23400D01*
X23000Y25300D01*
X22600Y24900D01*
X22200D01*
X22600Y24500D01*
X22200Y24100D01*
X22600D01*
X23000Y23700D01*
X24500Y28700D02*
X24900Y29100D01*
X25300D01*
X24900Y29500D01*
X25300Y29900D01*
X24900D01*
X24500Y30300D01*
X24100Y29900D01*
X23700D01*
X24100Y29500D01*
X23700Y29100D01*
X24100D01*
X24500Y28700D01*
Y26900D02*
X24900Y27300D01*
X25300D01*
X24900Y27700D01*
X25300Y28100D01*
X24900D01*
X24500Y28500D01*
X24100Y28100D01*
X23700D01*
X24100Y27700D01*
X23700Y27300D01*
X24100D01*
X24500Y26900D01*
X22600Y53700D02*
X23000Y54100D01*
X23400D01*
X23000Y54500D01*
X23400Y54900D01*
X23000D01*
X22600Y55300D01*
X22200Y54900D01*
X21800D01*
X22200Y54500D01*
X21800Y54100D01*
X22200D01*
X22600Y53700D01*
X32900Y29500D02*
X33300Y29900D01*
X33700D01*
X33300Y30300D01*
X33700Y30700D01*
X33300D01*
X32900Y31100D01*
X32500Y30700D01*
X32100D01*
X32500Y30300D01*
X32100Y29900D01*
X32500D01*
X32900Y29500D01*
X30900D02*
X31300Y29900D01*
X31700D01*
X31300Y30300D01*
X31700Y30700D01*
X31300D01*
X30900Y31100D01*
X30500Y30700D01*
X30100D01*
X30500Y30300D01*
X30100Y29900D01*
X30500D01*
X30900Y29500D01*
X26900Y32100D02*
X27300Y32500D01*
X27700D01*
X27300Y32900D01*
X27700Y33300D01*
X27300D01*
X26900Y33700D01*
X26500Y33300D01*
X26100D01*
X26500Y32900D01*
X26100Y32500D01*
X26500D01*
X26900Y32100D01*
X50000Y65500D02*
X50400Y65900D01*
X50800D01*
X50400Y66300D01*
X50800Y66700D01*
X50400D01*
X50000Y67100D01*
X49600Y66700D01*
X49200D01*
X49600Y66300D01*
X49200Y65900D01*
X49600D01*
X50000Y65500D01*
X63400Y21000D02*
X63800Y21400D01*
X64200D01*
X63800Y21800D01*
X64200Y22200D01*
X63800D01*
X63400Y22600D01*
X63000Y22200D01*
X62600D01*
X63000Y21800D01*
X62600Y21400D01*
X63000D01*
X63400Y21000D01*
X64200Y25300D02*
X64600Y25700D01*
X65000D01*
X64600Y26100D01*
X65000Y26500D01*
X64600D01*
X64200Y26900D01*
X63800Y26500D01*
X63400D01*
X63800Y26100D01*
X63400Y25700D01*
X63800D01*
X64200Y25300D01*
X53100Y47300D02*
X53500Y47700D01*
X53900D01*
X53500Y48100D01*
X53900Y48500D01*
X53500D01*
X53100Y48900D01*
X52700Y48500D01*
X52300D01*
X52700Y48100D01*
X52300Y47700D01*
X52700D01*
X53100Y47300D01*
X57900D02*
X58300Y47700D01*
X58700D01*
X58300Y48100D01*
X58700Y48500D01*
X58300D01*
X57900Y48900D01*
X57500Y48500D01*
X57100D01*
X57500Y48100D01*
X57100Y47700D01*
X57500D01*
X57900Y47300D01*
X55500D02*
X55900Y47700D01*
X56300D01*
X55900Y48100D01*
X56300Y48500D01*
X55900D01*
X55500Y48900D01*
X55100Y48500D01*
X54700D01*
X55100Y48100D01*
X54700Y47700D01*
X55100D01*
X55500Y47300D01*
X70200Y68400D02*
X70600Y68800D01*
X71000D01*
X70600Y69200D01*
X71000Y69600D01*
X70600D01*
X70200Y70000D01*
X69800Y69600D01*
X69400D01*
X69800Y69200D01*
X69400Y68800D01*
X69800D01*
X70200Y68400D01*
X73480Y64558D02*
X73880Y64958D01*
X74280D01*
X73880Y65358D01*
X74280Y65758D01*
X73880D01*
X73480Y66158D01*
X73080Y65758D01*
X72680D01*
X73080Y65358D01*
X72680Y64958D01*
X73080D01*
X73480Y64558D01*
X77500Y59200D02*
X77900Y59600D01*
X78300D01*
X77900Y60000D01*
X78300Y60400D01*
X77900D01*
X77500Y60800D01*
X77100Y60400D01*
X76700D01*
X77100Y60000D01*
X76700Y59600D01*
X77100D01*
X77500Y59200D01*
X79800Y59100D02*
X80200Y59500D01*
X80600D01*
X80200Y59900D01*
X80600Y60300D01*
X80200D01*
X79800Y60700D01*
X79400Y60300D01*
X79000D01*
X79400Y59900D01*
X79000Y59500D01*
X79400D01*
X79800Y59100D01*
X82200D02*
X82600Y59500D01*
X83000D01*
X82600Y59900D01*
X83000Y60300D01*
X82600D01*
X82200Y60700D01*
X81800Y60300D01*
X81400D01*
X81800Y59900D01*
X81400Y59500D01*
X81800D01*
X82200Y59100D01*
X55717Y62314D02*
X56116Y62714D01*
X56516D01*
X56116Y63114D01*
X56516Y63514D01*
X56116D01*
X55717Y63914D01*
X55317Y63514D01*
X54917D01*
X55317Y63114D01*
X54917Y62714D01*
X55317D01*
X55717Y62314D01*
X52400Y56300D02*
X52800Y56700D01*
X53200D01*
X52800Y57100D01*
X53200Y57500D01*
X52800D01*
X52400Y57900D01*
X52000Y57500D01*
X51600D01*
X52000Y57100D01*
X51600Y56700D01*
X52000D01*
X52400Y56300D01*
X50000Y68000D02*
X50400Y68400D01*
X50800D01*
X50400Y68800D01*
X50800Y69200D01*
X50400D01*
X50000Y69600D01*
X49600Y69200D01*
X49200D01*
X49600Y68800D01*
X49200Y68400D01*
X49600D01*
X50000Y68000D01*
X47728Y68791D02*
X48128Y69191D01*
X48528D01*
X48128Y69591D01*
X48528Y69991D01*
X48128D01*
X47728Y70391D01*
X47328Y69991D01*
X46928D01*
X47328Y69591D01*
X46928Y69191D01*
X47328D01*
X47728Y68791D01*
X44550Y57224D02*
X44950Y57624D01*
X45350D01*
X44950Y58024D01*
X45350Y58424D01*
X44950D01*
X44550Y58824D01*
X44150Y58424D01*
X43750D01*
X44150Y58024D01*
X43750Y57624D01*
X44150D01*
X44550Y57224D01*
X78649Y28100D02*
X79049Y28500D01*
X79449D01*
X79049Y28900D01*
X79449Y29300D01*
X79049D01*
X78649Y29700D01*
X78249Y29300D01*
X77849D01*
X78249Y28900D01*
X77849Y28500D01*
X78249D01*
X78649Y28100D01*
X71200Y20563D02*
X71600Y20964D01*
X72000D01*
X71600Y21363D01*
X72000Y21764D01*
X71600D01*
X71200Y22163D01*
X70800Y21764D01*
X70400D01*
X70800Y21363D01*
X70400Y20964D01*
X70800D01*
X71200Y20563D01*
X44200Y64100D02*
X44600Y64500D01*
X45000D01*
X44600Y64900D01*
X45000Y65300D01*
X44600D01*
X44200Y65700D01*
X43800Y65300D01*
X43400D01*
X43800Y64900D01*
X43400Y64500D01*
X43800D01*
X44200Y64100D01*
X45116Y27116D02*
X45516Y27516D01*
X45916D01*
X45516Y27916D01*
X45916Y28316D01*
X45516D01*
X45116Y28716D01*
X44716Y28316D01*
X44316D01*
X44716Y27916D01*
X44316Y27516D01*
X44716D01*
X45116Y27116D01*
X45000Y53400D02*
X45400Y53800D01*
X45800D01*
X45400Y54200D01*
X45800Y54600D01*
X45400D01*
X45000Y55000D01*
X44600Y54600D01*
X44200D01*
X44600Y54200D01*
X44200Y53800D01*
X44600D01*
X45000Y53400D01*
X51000Y49700D02*
X51400Y50100D01*
X51800D01*
X51400Y50500D01*
X51800Y50900D01*
X51400D01*
X51000Y51300D01*
X50600Y50900D01*
X50200D01*
X50600Y50500D01*
X50200Y50100D01*
X50600D01*
X51000Y49700D01*
X40000Y47700D02*
X40400Y48100D01*
X40800D01*
X40400Y48500D01*
X40800Y48900D01*
X40400D01*
X40000Y49300D01*
X39600Y48900D01*
X39200D01*
X39600Y48500D01*
X39200Y48100D01*
X39600D01*
X40000Y47700D01*
X62000Y51200D02*
X62400Y51600D01*
X62800D01*
X62400Y52000D01*
X62800Y52400D01*
X62400D01*
X62000Y52800D01*
X61600Y52400D01*
X61200D01*
X61600Y52000D01*
X61200Y51600D01*
X61600D01*
X62000Y51200D01*
X75750Y49000D02*
X76150Y49400D01*
X76550D01*
X76150Y49800D01*
X76550Y50200D01*
X76150D01*
X75750Y50600D01*
X75350Y50200D01*
X74950D01*
X75350Y49800D01*
X74950Y49400D01*
X75350D01*
X75750Y49000D01*
X71500Y25600D02*
X71900Y26000D01*
X72300D01*
X71900Y26400D01*
X72300Y26800D01*
X71900D01*
X71500Y27200D01*
X71100Y26800D01*
X70700D01*
X71100Y26400D01*
X70700Y26000D01*
X71100D01*
X71500Y25600D01*
X47600Y27200D02*
X48000Y27600D01*
X48400D01*
X48000Y28000D01*
X48400Y28400D01*
X48000D01*
X47600Y28800D01*
X47200Y28400D01*
X46800D01*
X47200Y28000D01*
X46800Y27600D01*
X47200D01*
X47600Y27200D01*
X65500Y69200D02*
X65900Y69600D01*
X66300D01*
X65900Y70000D01*
X66300Y70400D01*
X65900D01*
X65500Y70800D01*
X65100Y70400D01*
X64700D01*
X65100Y70000D01*
X64700Y69600D01*
X65100D01*
X65500Y69200D01*
X56400Y39100D02*
X56800Y39500D01*
X57200D01*
X56800Y39900D01*
X57200Y40300D01*
X56800D01*
X56400Y40700D01*
X56000Y40300D01*
X55600D01*
X56000Y39900D01*
X55600Y39500D01*
X56000D01*
X56400Y39100D01*
X53800Y37300D02*
X54200Y37700D01*
X54600D01*
X54200Y38100D01*
X54600Y38500D01*
X54200D01*
X53800Y38900D01*
X53400Y38500D01*
X53000D01*
X53400Y38100D01*
X53000Y37700D01*
X53400D01*
X53800Y37300D01*
X32900Y74300D02*
X33300Y74700D01*
X33700D01*
X33300Y75100D01*
X33700Y75500D01*
X33300D01*
X32900Y75900D01*
X32500Y75500D01*
X32100D01*
X32500Y75100D01*
X32100Y74700D01*
X32500D01*
X32900Y74300D01*
X31100D02*
X31500Y74700D01*
X31900D01*
X31500Y75100D01*
X31900Y75500D01*
X31500D01*
X31100Y75900D01*
X30700Y75500D01*
X30300D01*
X30700Y75100D01*
X30300Y74700D01*
X30700D01*
X31100Y74300D01*
X48000Y47200D02*
X48400Y47600D01*
X48800D01*
X48400Y48000D01*
X48800Y48400D01*
X48400D01*
X48000Y48800D01*
X47600Y48400D01*
X47200D01*
X47600Y48000D01*
X47200Y47600D01*
X47600D01*
X48000Y47200D01*
X82726Y40072D02*
X83126Y40472D01*
X83526D01*
X83126Y40872D01*
X83526Y41272D01*
X83126D01*
X82726Y41672D01*
X82326Y41272D01*
X81926D01*
X82326Y40872D01*
X81926Y40472D01*
X82326D01*
X82726Y40072D01*
X74734Y40700D02*
X75134Y41100D01*
X75534D01*
X75134Y41500D01*
X75534Y41900D01*
X75134D01*
X74734Y42300D01*
X74334Y41900D01*
X73934D01*
X74334Y41500D01*
X73934Y41100D01*
X74334D01*
X74734Y40700D01*
X63400Y27700D02*
X63800Y28100D01*
X64200D01*
X63800Y28500D01*
X64200Y28900D01*
X63800D01*
X63400Y29300D01*
X63000Y28900D01*
X62600D01*
X63000Y28500D01*
X62600Y28100D01*
X63000D01*
X63400Y27700D01*
X71100Y28600D02*
X71500Y29000D01*
X71900D01*
X71500Y29400D01*
X71900Y29800D01*
X71500D01*
X71100Y30200D01*
X70700Y29800D01*
X70300D01*
X70700Y29400D01*
X70300Y29000D01*
X70700D01*
X71100Y28600D01*
X68600Y29500D02*
X69000Y29900D01*
X69400D01*
X69000Y30300D01*
X69400Y30700D01*
X69000D01*
X68600Y31100D01*
X68200Y30700D01*
X67800D01*
X68200Y30300D01*
X67800Y29900D01*
X68200D01*
X68600Y29500D01*
X55500Y25300D02*
X55900Y25700D01*
X56300D01*
X55900Y26100D01*
X56300Y26500D01*
X55900D01*
X55500Y26900D01*
X55100Y26500D01*
X54700D01*
X55100Y26100D01*
X54700Y25700D01*
X55100D01*
X55500Y25300D01*
X59000Y32200D02*
X59400Y32600D01*
X59800D01*
X59400Y33000D01*
X59800Y33400D01*
X59400D01*
X59000Y33800D01*
X58600Y33400D01*
X58200D01*
X58600Y33000D01*
X58200Y32600D01*
X58600D01*
X59000Y32200D01*
X70500Y17400D02*
X70900Y17800D01*
X71300D01*
X70900Y18200D01*
X71300Y18600D01*
X70900D01*
X70500Y19000D01*
X70100Y18600D01*
X69700D01*
X70100Y18200D01*
X69700Y17800D01*
X70100D01*
X70500Y17400D01*
X52500Y20200D02*
X52900Y20600D01*
X53300D01*
X52900Y21000D01*
X53300Y21400D01*
X52900D01*
X52500Y21800D01*
X52100Y21400D01*
X51700D01*
X52100Y21000D01*
X51700Y20600D01*
X52100D01*
X52500Y20200D01*
X32000Y26700D02*
X32400Y27100D01*
X32800D01*
X32400Y27500D01*
X32800Y27900D01*
X32400D01*
X32000Y28300D01*
X31600Y27900D01*
X31200D01*
X31600Y27500D01*
X31200Y27100D01*
X31600D01*
X32000Y26700D01*
X19500Y43450D02*
X19900Y43850D01*
X20300D01*
X19900Y44250D01*
X20300Y44650D01*
X19900D01*
X19500Y45050D01*
X19100Y44650D01*
X18700D01*
X19100Y44250D01*
X18700Y43850D01*
X19100D01*
X19500Y43450D01*
X68000Y49700D02*
X68400Y50100D01*
X68800D01*
X68400Y50500D01*
X68800Y50900D01*
X68400D01*
X68000Y51300D01*
X67600Y50900D01*
X67200D01*
X67600Y50500D01*
X67200Y50100D01*
X67600D01*
X68000Y49700D01*
X31500Y80200D02*
X31900Y80600D01*
X32300D01*
X31900Y81000D01*
X32300Y81400D01*
X31900D01*
X31500Y81800D01*
X31100Y81400D01*
X30700D01*
X31100Y81000D01*
X30700Y80600D01*
X31100D01*
X31500Y80200D01*
X33500D02*
X33900Y80600D01*
X34300D01*
X33900Y81000D01*
X34300Y81400D01*
X33900D01*
X33500Y81800D01*
X33100Y81400D01*
X32700D01*
X33100Y81000D01*
X32700Y80600D01*
X33100D01*
X33500Y80200D01*
X41500Y26700D02*
X41900Y27100D01*
X42300D01*
X41900Y27500D01*
X42300Y27900D01*
X41900D01*
X41500Y28300D01*
X41100Y27900D01*
X40700D01*
X41100Y27500D01*
X40700Y27100D01*
X41100D01*
X41500Y26700D01*
X77000Y13200D02*
X77400Y13600D01*
X77800D01*
X77400Y14000D01*
X77800Y14400D01*
X77400D01*
X77000Y14800D01*
X76600Y14400D01*
X76200D01*
X76600Y14000D01*
X76200Y13600D01*
X76600D01*
X77000Y13200D01*
Y11200D02*
X77400Y11600D01*
X77800D01*
X77400Y12000D01*
X77800Y12400D01*
X77400D01*
X77000Y12800D01*
X76600Y12400D01*
X76200D01*
X76600Y12000D01*
X76200Y11600D01*
X76600D01*
X77000Y11200D01*
X75500Y34700D02*
X75900Y35100D01*
X76300D01*
X75900Y35500D01*
X76300Y35900D01*
X75900D01*
X75500Y36300D01*
X75100Y35900D01*
X74700D01*
X75100Y35500D01*
X74700Y35100D01*
X75100D01*
X75500Y34700D01*
X50500Y24700D02*
X50900Y25100D01*
X51300D01*
X50900Y25500D01*
X51300Y25900D01*
X50900D01*
X50500Y26300D01*
X50100Y25900D01*
X49700D01*
X50100Y25500D01*
X49700Y25100D01*
X50100D01*
X50500Y24700D01*
X78500Y40200D02*
X78900Y40600D01*
X79300D01*
X78900Y41000D01*
X79300Y41400D01*
X78900D01*
X78500Y41800D01*
X78100Y41400D01*
X77700D01*
X78100Y41000D01*
X77700Y40600D01*
X78100D01*
X78500Y40200D01*
X68000Y57200D02*
X68400Y57600D01*
X68800D01*
X68400Y58000D01*
X68800Y58400D01*
X68400D01*
X68000Y58800D01*
X67600Y58400D01*
X67200D01*
X67600Y58000D01*
X67200Y57600D01*
X67600D01*
X68000Y57200D01*
X32000Y13700D02*
X32400Y14100D01*
X32800D01*
X32400Y14500D01*
X32800Y14900D01*
X32400D01*
X32000Y15300D01*
X31600Y14900D01*
X31200D01*
X31600Y14500D01*
X31200Y14100D01*
X31600D01*
X32000Y13700D01*
X31999Y18137D02*
X32399Y18538D01*
X32800D01*
X32399Y18937D01*
X32800Y19338D01*
X32399D01*
X31999Y19737D01*
X31600Y19338D01*
X31199D01*
X31600Y18937D01*
X31199Y18538D01*
X31600D01*
X31999Y18137D01*
X46142Y13043D02*
X46542Y13442D01*
X46942D01*
X46542Y13842D01*
X46942Y14243D01*
X46542D01*
X46142Y14642D01*
X45742Y14243D01*
X45342D01*
X45742Y13842D01*
X45342Y13442D01*
X45742D01*
X46142Y13043D01*
X77197Y19700D02*
X77597Y20100D01*
X77997D01*
X77597Y20500D01*
X77997Y20900D01*
X77597D01*
X77197Y21300D01*
X76797Y20900D01*
X76397D01*
X76797Y20500D01*
X76397Y20100D01*
X76797D01*
X77197Y19700D01*
X81500Y45550D02*
X81900Y45950D01*
X82300D01*
X81900Y46350D01*
X82300Y46750D01*
X81900D01*
X81500Y47150D01*
X81100Y46750D01*
X80700D01*
X81100Y46350D01*
X80700Y45950D01*
X81100D01*
X81500Y45550D01*
X69193Y36231D02*
X69593Y36632D01*
X69993D01*
X69593Y37031D01*
X69993Y37431D01*
X69593D01*
X69193Y37832D01*
X68793Y37431D01*
X68393D01*
X68793Y37031D01*
X68393Y36632D01*
X68793D01*
X69193Y36231D01*
X38000Y55700D02*
X38400Y56100D01*
X38800D01*
X38400Y56500D01*
X38800Y56900D01*
X38400D01*
X38000Y57300D01*
X37600Y56900D01*
X37200D01*
X37600Y56500D01*
X37200Y56100D01*
X37600D01*
X38000Y55700D01*
Y53700D02*
X38400Y54100D01*
X38800D01*
X38400Y54500D01*
X38800Y54900D01*
X38400D01*
X38000Y55300D01*
X37600Y54900D01*
X37200D01*
X37600Y54500D01*
X37200Y54100D01*
X37600D01*
X38000Y53700D01*
X68000Y59200D02*
X68400Y59600D01*
X68800D01*
X68400Y60000D01*
X68800Y60400D01*
X68400D01*
X68000Y60800D01*
X67600Y60400D01*
X67200D01*
X67600Y60000D01*
X67200Y59600D01*
X67600D01*
X68000Y59200D01*
X22600Y55700D02*
X23000Y56100D01*
X23400D01*
X23000Y56500D01*
X23400Y56900D01*
X23000D01*
X22600Y57300D01*
X22200Y56900D01*
X21800D01*
X22200Y56500D01*
X21800Y56100D01*
X22200D01*
X22600Y55700D01*
X24600D02*
X25000Y56100D01*
X25400D01*
X25000Y56500D01*
X25400Y56900D01*
X25000D01*
X24600Y57300D01*
X24200Y56900D01*
X23800D01*
X24200Y56500D01*
X23800Y56100D01*
X24200D01*
X24600Y55700D01*
Y53700D02*
X25000Y54100D01*
X25400D01*
X25000Y54500D01*
X25400Y54900D01*
X25000D01*
X24600Y55300D01*
X24200Y54900D01*
X23800D01*
X24200Y54500D01*
X23800Y54100D01*
X24200D01*
X24600Y53700D01*
X36000D02*
X36400Y54100D01*
X36800D01*
X36400Y54500D01*
X36800Y54900D01*
X36400D01*
X36000Y55300D01*
X35600Y54900D01*
X35200D01*
X35600Y54500D01*
X35200Y54100D01*
X35600D01*
X36000Y53700D01*
Y55700D02*
X36400Y56100D01*
X36800D01*
X36400Y56500D01*
X36800Y56900D01*
X36400D01*
X36000Y57300D01*
X35600Y56900D01*
X35200D01*
X35600Y56500D01*
X35200Y56100D01*
X35600D01*
X36000Y55700D01*
X57724Y59767D02*
X58124Y60167D01*
X58524D01*
X58124Y60567D01*
X58524Y60967D01*
X58124D01*
X57724Y61367D01*
X57324Y60967D01*
X56924D01*
X57324Y60567D01*
X56924Y60167D01*
X57324D01*
X57724Y59767D01*
X65980Y43610D02*
X66380Y44010D01*
X66780D01*
X66380Y44410D01*
X66780Y44810D01*
X66380D01*
X65980Y45210D01*
X65580Y44810D01*
X65180D01*
X65580Y44410D01*
X65180Y44010D01*
X65580D01*
X65980Y43610D01*
X26747Y46731D02*
X27147Y47532D01*
X26747Y48331D01*
X27547Y47932D01*
X28347Y48331D01*
X27947Y47532D01*
X28347Y46731D01*
X27547Y47131D01*
X26747Y46731D01*
Y50669D02*
X27147Y51468D01*
X26747Y52268D01*
X27547Y51868D01*
X28347Y52268D01*
X27947Y51468D01*
X28347Y50669D01*
X27547Y51069D01*
X26747Y50669D01*
X32653D02*
X33053Y51468D01*
X32653Y52268D01*
X33453Y51868D01*
X34253Y52268D01*
X33853Y51468D01*
X34253Y50669D01*
X33453Y51069D01*
X32653Y50669D01*
Y46731D02*
X33053Y47532D01*
X32653Y48331D01*
X33453Y47932D01*
X34253Y48331D01*
X33853Y47532D01*
X34253Y46731D01*
X33453Y47131D01*
X32653Y46731D01*
X29700Y48700D02*
X30100Y49500D01*
X29700Y50300D01*
X30500Y49900D01*
X31300Y50300D01*
X30900Y49500D01*
X31300Y48700D01*
X30500Y49100D01*
X29700Y48700D01*
D12*
X58674Y68268D02*
G03*
X58674Y68268I-800J0D01*
G01*
X42926Y83465D02*
G03*
X42926Y83465I-800J0D01*
G01*
Y68268D02*
G03*
X42926Y68268I-800J0D01*
G01*
X58674Y83465D02*
G03*
X58674Y83465I-800J0D01*
G01*
M02*
