G04*
G04 #@! TF.GenerationSoftware,Altium Limited,Altium Designer,19.1.5 (86)*
G04*
G04 Layer_Color=255*
%FSLAX25Y25*%
%MOIN*%
G70*
G01*
G75*
%ADD19R,0.01260X0.10000*%
G04:AMPARAMS|DCode=20|XSize=23.62mil|YSize=23.62mil|CornerRadius=2.36mil|HoleSize=0mil|Usage=FLASHONLY|Rotation=270.000|XOffset=0mil|YOffset=0mil|HoleType=Round|Shape=RoundedRectangle|*
%AMROUNDEDRECTD20*
21,1,0.02362,0.01890,0,0,270.0*
21,1,0.01890,0.02362,0,0,270.0*
1,1,0.00472,-0.00945,-0.00945*
1,1,0.00472,-0.00945,0.00945*
1,1,0.00472,0.00945,0.00945*
1,1,0.00472,0.00945,-0.00945*
%
%ADD20ROUNDEDRECTD20*%
G04:AMPARAMS|DCode=21|XSize=35.43mil|YSize=31.5mil|CornerRadius=3.94mil|HoleSize=0mil|Usage=FLASHONLY|Rotation=270.000|XOffset=0mil|YOffset=0mil|HoleType=Round|Shape=RoundedRectangle|*
%AMROUNDEDRECTD21*
21,1,0.03543,0.02362,0,0,270.0*
21,1,0.02756,0.03150,0,0,270.0*
1,1,0.00787,-0.01181,-0.01378*
1,1,0.00787,-0.01181,0.01378*
1,1,0.00787,0.01181,0.01378*
1,1,0.00787,0.01181,-0.01378*
%
%ADD21ROUNDEDRECTD21*%
G04:AMPARAMS|DCode=22|XSize=23.62mil|YSize=23.62mil|CornerRadius=2.36mil|HoleSize=0mil|Usage=FLASHONLY|Rotation=180.000|XOffset=0mil|YOffset=0mil|HoleType=Round|Shape=RoundedRectangle|*
%AMROUNDEDRECTD22*
21,1,0.02362,0.01890,0,0,180.0*
21,1,0.01890,0.02362,0,0,180.0*
1,1,0.00472,-0.00945,0.00945*
1,1,0.00472,0.00945,0.00945*
1,1,0.00472,0.00945,-0.00945*
1,1,0.00472,-0.00945,-0.00945*
%
%ADD22ROUNDEDRECTD22*%
G04:AMPARAMS|DCode=23|XSize=35mil|YSize=35mil|CornerRadius=3.5mil|HoleSize=0mil|Usage=FLASHONLY|Rotation=180.000|XOffset=0mil|YOffset=0mil|HoleType=Round|Shape=RoundedRectangle|*
%AMROUNDEDRECTD23*
21,1,0.03500,0.02800,0,0,180.0*
21,1,0.02800,0.03500,0,0,180.0*
1,1,0.00700,-0.01400,0.01400*
1,1,0.00700,0.01400,0.01400*
1,1,0.00700,0.01400,-0.01400*
1,1,0.00700,-0.01400,-0.01400*
%
%ADD23ROUNDEDRECTD23*%
G04:AMPARAMS|DCode=24|XSize=23.62mil|YSize=27.56mil|CornerRadius=2.95mil|HoleSize=0mil|Usage=FLASHONLY|Rotation=0.000|XOffset=0mil|YOffset=0mil|HoleType=Round|Shape=RoundedRectangle|*
%AMROUNDEDRECTD24*
21,1,0.02362,0.02165,0,0,0.0*
21,1,0.01772,0.02756,0,0,0.0*
1,1,0.00591,0.00886,-0.01083*
1,1,0.00591,-0.00886,-0.01083*
1,1,0.00591,-0.00886,0.01083*
1,1,0.00591,0.00886,0.01083*
%
%ADD24ROUNDEDRECTD24*%
G04:AMPARAMS|DCode=25|XSize=35mil|YSize=35mil|CornerRadius=3.5mil|HoleSize=0mil|Usage=FLASHONLY|Rotation=90.000|XOffset=0mil|YOffset=0mil|HoleType=Round|Shape=RoundedRectangle|*
%AMROUNDEDRECTD25*
21,1,0.03500,0.02800,0,0,90.0*
21,1,0.02800,0.03500,0,0,90.0*
1,1,0.00700,0.01400,0.01400*
1,1,0.00700,0.01400,-0.01400*
1,1,0.00700,-0.01400,-0.01400*
1,1,0.00700,-0.01400,0.01400*
%
%ADD25ROUNDEDRECTD25*%
G04:AMPARAMS|DCode=26|XSize=35mil|YSize=35mil|CornerRadius=4.38mil|HoleSize=0mil|Usage=FLASHONLY|Rotation=180.000|XOffset=0mil|YOffset=0mil|HoleType=Round|Shape=RoundedRectangle|*
%AMROUNDEDRECTD26*
21,1,0.03500,0.02625,0,0,180.0*
21,1,0.02625,0.03500,0,0,180.0*
1,1,0.00875,-0.01313,0.01313*
1,1,0.00875,0.01313,0.01313*
1,1,0.00875,0.01313,-0.01313*
1,1,0.00875,-0.01313,-0.01313*
%
%ADD26ROUNDEDRECTD26*%
%ADD27R,0.03150X0.03543*%
G04:AMPARAMS|DCode=28|XSize=10mil|YSize=16mil|CornerRadius=2.5mil|HoleSize=0mil|Usage=FLASHONLY|Rotation=270.000|XOffset=0mil|YOffset=0mil|HoleType=Round|Shape=RoundedRectangle|*
%AMROUNDEDRECTD28*
21,1,0.01000,0.01100,0,0,270.0*
21,1,0.00500,0.01600,0,0,270.0*
1,1,0.00500,-0.00550,-0.00250*
1,1,0.00500,-0.00550,0.00250*
1,1,0.00500,0.00550,0.00250*
1,1,0.00500,0.00550,-0.00250*
%
%ADD28ROUNDEDRECTD28*%
G04:AMPARAMS|DCode=29|XSize=35mil|YSize=35mil|CornerRadius=4.38mil|HoleSize=0mil|Usage=FLASHONLY|Rotation=270.000|XOffset=0mil|YOffset=0mil|HoleType=Round|Shape=RoundedRectangle|*
%AMROUNDEDRECTD29*
21,1,0.03500,0.02625,0,0,270.0*
21,1,0.02625,0.03500,0,0,270.0*
1,1,0.00875,-0.01313,-0.01313*
1,1,0.00875,-0.01313,0.01313*
1,1,0.00875,0.01313,0.01313*
1,1,0.00875,0.01313,-0.01313*
%
%ADD29ROUNDEDRECTD29*%
%ADD30R,0.02756X0.01102*%
%ADD31R,0.01102X0.02756*%
G04:AMPARAMS|DCode=32|XSize=16mil|YSize=35mil|CornerRadius=2.4mil|HoleSize=0mil|Usage=FLASHONLY|Rotation=90.000|XOffset=0mil|YOffset=0mil|HoleType=Round|Shape=RoundedRectangle|*
%AMROUNDEDRECTD32*
21,1,0.01600,0.03020,0,0,90.0*
21,1,0.01120,0.03500,0,0,90.0*
1,1,0.00480,0.01510,0.00560*
1,1,0.00480,0.01510,-0.00560*
1,1,0.00480,-0.01510,-0.00560*
1,1,0.00480,-0.01510,0.00560*
%
%ADD32ROUNDEDRECTD32*%
G04:AMPARAMS|DCode=33|XSize=23.62mil|YSize=43.31mil|CornerRadius=5.91mil|HoleSize=0mil|Usage=FLASHONLY|Rotation=180.000|XOffset=0mil|YOffset=0mil|HoleType=Round|Shape=RoundedRectangle|*
%AMROUNDEDRECTD33*
21,1,0.02362,0.03150,0,0,180.0*
21,1,0.01181,0.04331,0,0,180.0*
1,1,0.01181,-0.00591,0.01575*
1,1,0.01181,0.00591,0.01575*
1,1,0.01181,0.00591,-0.01575*
1,1,0.01181,-0.00591,-0.01575*
%
%ADD33ROUNDEDRECTD33*%
%ADD61O,0.05118X0.06535*%
%ADD62O,0.05118X0.06535*%
%ADD63O,0.08465X0.03543*%
%ADD64O,0.02992X0.03937*%
D19*
X58957Y36957D02*
D03*
X66634D02*
D03*
X33366D02*
D03*
X41043D02*
D03*
X69193D02*
D03*
X61516D02*
D03*
X64075D02*
D03*
X51279D02*
D03*
X53839D02*
D03*
X56398D02*
D03*
X43602D02*
D03*
X46161D02*
D03*
X48720D02*
D03*
X35925D02*
D03*
X38484D02*
D03*
X30807D02*
D03*
D20*
X70500Y16468D02*
D03*
Y12531D02*
D03*
X73500Y41969D02*
D03*
Y38032D02*
D03*
X80000Y28468D02*
D03*
Y24532D02*
D03*
X24000Y55468D02*
D03*
Y51531D02*
D03*
X20000Y55468D02*
D03*
Y51531D02*
D03*
X16000D02*
D03*
Y55468D02*
D03*
X76000Y49531D02*
D03*
Y53469D02*
D03*
X76047Y66937D02*
D03*
Y63000D02*
D03*
X80047Y66937D02*
D03*
Y63000D02*
D03*
X84047Y66937D02*
D03*
Y63000D02*
D03*
X27000Y38532D02*
D03*
Y42469D02*
D03*
X67500Y74032D02*
D03*
Y77969D02*
D03*
X37500Y63968D02*
D03*
Y60031D02*
D03*
X80000Y49531D02*
D03*
Y53469D02*
D03*
X84000Y49531D02*
D03*
Y53469D02*
D03*
D21*
X32300Y67528D02*
D03*
Y58472D02*
D03*
D22*
X65969Y48000D02*
D03*
X62032D02*
D03*
X57968Y50700D02*
D03*
X54031D02*
D03*
X83969Y32500D02*
D03*
X80032D02*
D03*
X52969Y63500D02*
D03*
X49031D02*
D03*
X54031Y45500D02*
D03*
X57968D02*
D03*
X51032Y54700D02*
D03*
X54969D02*
D03*
X50532Y59500D02*
D03*
X54469D02*
D03*
X38032Y45500D02*
D03*
X41969D02*
D03*
X46031Y50700D02*
D03*
X49968D02*
D03*
Y45500D02*
D03*
X46031D02*
D03*
D23*
X22500Y13000D02*
D03*
X16500D02*
D03*
X22500Y37000D02*
D03*
X16500D02*
D03*
X16500Y42000D02*
D03*
X22500D02*
D03*
X16500Y47000D02*
D03*
X22500D02*
D03*
D24*
X79795Y20500D02*
D03*
X74205D02*
D03*
X79795Y12500D02*
D03*
X74205D02*
D03*
X79795Y16500D02*
D03*
X74205D02*
D03*
D25*
X75000Y26000D02*
D03*
Y32000D02*
D03*
D26*
X22500Y65000D02*
D03*
X16500D02*
D03*
Y60000D02*
D03*
X22500D02*
D03*
D27*
X78441Y44346D02*
D03*
X83559D02*
D03*
X78441Y37653D02*
D03*
X83559D02*
D03*
D28*
X80000Y57000D02*
D03*
Y58500D02*
D03*
X84000Y57000D02*
D03*
Y58500D02*
D03*
X76000Y57000D02*
D03*
Y58500D02*
D03*
D29*
X32300Y79000D02*
D03*
Y73000D02*
D03*
D30*
X60488Y63437D02*
D03*
Y61468D02*
D03*
Y59500D02*
D03*
Y57531D02*
D03*
Y55563D02*
D03*
X71512D02*
D03*
Y57531D02*
D03*
Y59500D02*
D03*
Y61468D02*
D03*
Y63437D02*
D03*
D31*
X64031Y53988D02*
D03*
X66000D02*
D03*
X67968D02*
D03*
Y65012D02*
D03*
X66000D02*
D03*
X64031D02*
D03*
D32*
X71500Y48000D02*
D03*
Y45400D02*
D03*
Y50600D02*
D03*
D33*
X15760Y29512D02*
D03*
X23240D02*
D03*
Y18488D02*
D03*
X19500D02*
D03*
X15760D02*
D03*
D61*
X18583Y81063D02*
D03*
X26457D02*
D03*
Y73189D02*
D03*
X18583D02*
D03*
D62*
X81417Y81063D02*
D03*
X73543D02*
D03*
Y73189D02*
D03*
X81417D02*
D03*
D63*
X57874Y68268D02*
D03*
X42126Y83465D02*
D03*
Y68268D02*
D03*
X57874Y83465D02*
D03*
D64*
X48228Y78622D02*
D03*
X40945D02*
D03*
X37205D02*
D03*
Y73110D02*
D03*
X40945D02*
D03*
X44685D02*
D03*
X48228D02*
D03*
X62795D02*
D03*
X59055D02*
D03*
X51772D02*
D03*
X62795Y78622D02*
D03*
X59055D02*
D03*
X55315D02*
D03*
X51772D02*
D03*
M02*
