G04*
G04 #@! TF.GenerationSoftware,Altium Limited,Altium Designer,19.1.5 (86)*
G04*
G04 Layer_Physical_Order=3*
G04 Layer_Color=16440176*
%FSLAX25Y25*%
%MOIN*%
G70*
G01*
G75*
%ADD11C,0.00500*%
%ADD55C,0.01000*%
%ADD65C,0.01772*%
%ADD66C,0.02362*%
%ADD67C,0.03150*%
%ADD68O,0.05118X0.05118*%
%ADD69C,0.01575*%
%ADD70C,0.00787*%
%ADD71C,0.05118*%
G36*
X85719Y85365D02*
Y30721D01*
X85522Y30289D01*
X85243Y30276D01*
X85169Y30258D01*
X85094Y30258D01*
X84545Y30149D01*
X84452Y30111D01*
X84354Y30091D01*
X83837Y29878D01*
X83754Y29822D01*
X83661Y29784D01*
X83196Y29474D01*
X83125Y29402D01*
X83041Y29346D01*
X82646Y28951D01*
X82590Y28868D01*
X82519Y28797D01*
X82209Y28332D01*
X82170Y28239D01*
X82114Y28155D01*
X81901Y27639D01*
X81881Y27540D01*
X81843Y27447D01*
X81734Y26899D01*
X81735Y26823D01*
X81716Y26750D01*
X81703Y26470D01*
X81707Y26446D01*
X81702Y26422D01*
Y10620D01*
X78596D01*
X78328Y11120D01*
X78501Y11378D01*
X78625Y12000D01*
X78501Y12622D01*
X78249Y13000D01*
X78501Y13378D01*
X78625Y14000D01*
X78501Y14622D01*
X78149Y15149D01*
X77622Y15501D01*
X77000Y15625D01*
X76378Y15501D01*
X75851Y15149D01*
X75499Y14622D01*
X75375Y14000D01*
X75499Y13378D01*
X75752Y13000D01*
X75499Y12622D01*
X75375Y12000D01*
X75499Y11378D01*
X75672Y11120D01*
X75404Y10620D01*
X14281Y10620D01*
Y85365D01*
X85719Y85365D01*
D02*
G37*
%LPC*%
G36*
X33500Y82625D02*
X32878Y82501D01*
X32500Y82249D01*
X32122Y82501D01*
X31500Y82625D01*
X30878Y82501D01*
X30351Y82149D01*
X29999Y81622D01*
X29875Y81000D01*
X29999Y80378D01*
X30351Y79851D01*
X30878Y79499D01*
X31500Y79375D01*
X32122Y79499D01*
X32500Y79751D01*
X32878Y79499D01*
X33500Y79375D01*
X34122Y79499D01*
X34649Y79851D01*
X35001Y80378D01*
X35125Y81000D01*
X35001Y81622D01*
X34649Y82149D01*
X34122Y82501D01*
X33500Y82625D01*
D02*
G37*
G36*
X81417Y83660D02*
X80745Y83571D01*
X80119Y83312D01*
X79581Y82899D01*
X79168Y82362D01*
X78909Y81735D01*
X78820Y81063D01*
X78909Y80391D01*
X79168Y79764D01*
X79581Y79227D01*
X80119Y78814D01*
X80745Y78554D01*
X81417Y78466D01*
X82090Y78554D01*
X82716Y78814D01*
X83254Y79227D01*
X83666Y79764D01*
X83926Y80391D01*
X84014Y81063D01*
X83926Y81735D01*
X83666Y82362D01*
X83254Y82899D01*
X82716Y83312D01*
X82090Y83571D01*
X81417Y83660D01*
D02*
G37*
G36*
X26457D02*
X25785Y83571D01*
X25158Y83312D01*
X24620Y82899D01*
X24208Y82362D01*
X23948Y81735D01*
X23860Y81063D01*
X23948Y80391D01*
X24208Y79764D01*
X24620Y79227D01*
X25158Y78814D01*
X25785Y78554D01*
X26457Y78466D01*
X27129Y78554D01*
X27755Y78814D01*
X28293Y79227D01*
X28706Y79764D01*
X28965Y80391D01*
X29054Y81063D01*
X28965Y81735D01*
X28706Y82362D01*
X28293Y82899D01*
X27755Y83312D01*
X27129Y83571D01*
X26457Y83660D01*
D02*
G37*
G36*
X73543Y84653D02*
X72614Y84530D01*
X71748Y84172D01*
X71005Y83601D01*
X70434Y82858D01*
X70076Y81992D01*
X69954Y81063D01*
X70076Y80134D01*
X70217Y79793D01*
X70042Y78781D01*
X70012Y78646D01*
X69998Y78600D01*
X69998Y78599D01*
X67295Y75896D01*
X67129Y75648D01*
X67071Y75355D01*
Y72585D01*
X66571Y72301D01*
X66520Y72332D01*
Y74600D01*
X66442Y74990D01*
X66221Y75321D01*
X64821Y76721D01*
X64490Y76942D01*
X64100Y77020D01*
X60706D01*
X60468Y77520D01*
X60739Y77925D01*
X60878Y78622D01*
X60739Y79320D01*
X60344Y79911D01*
X59753Y80306D01*
X59055Y80445D01*
X58358Y80306D01*
X57766Y79911D01*
X57463Y79456D01*
X57383Y79433D01*
X56987D01*
X56907Y79456D01*
X56604Y79911D01*
X56012Y80306D01*
X55315Y80445D01*
X54618Y80306D01*
X54026Y79911D01*
X53844Y79638D01*
X53243D01*
X53060Y79911D01*
X52469Y80306D01*
X51772Y80445D01*
X51074Y80306D01*
X50483Y79911D01*
X50301Y79638D01*
X49699D01*
X49517Y79911D01*
X48926Y80306D01*
X48228Y80445D01*
X47531Y80306D01*
X46940Y79911D01*
X46545Y79320D01*
X46406Y78622D01*
X46545Y77925D01*
X46815Y77520D01*
X46578Y77020D01*
X42595D01*
X42358Y77520D01*
X42629Y77925D01*
X42767Y78622D01*
X42629Y79320D01*
X42233Y79911D01*
X41642Y80306D01*
X40945Y80445D01*
X40247Y80306D01*
X39656Y79911D01*
X39261Y79320D01*
X39123Y78622D01*
X39261Y77925D01*
X39532Y77520D01*
X39294Y77020D01*
X35246D01*
X34383Y77883D01*
X34000Y78041D01*
X34000Y78041D01*
X30000D01*
X29617Y77883D01*
X29617Y77883D01*
X28617Y76883D01*
X28459Y76500D01*
X28459Y76500D01*
Y75528D01*
X27959Y75282D01*
X27755Y75438D01*
X27129Y75697D01*
X26457Y75786D01*
X25785Y75697D01*
X25158Y75438D01*
X24620Y75025D01*
X24208Y74488D01*
X23948Y73861D01*
X23860Y73189D01*
X23948Y72517D01*
X24208Y71890D01*
X24620Y71353D01*
X25158Y70940D01*
X25785Y70680D01*
X26159Y70631D01*
X26338Y70103D01*
X17617Y61383D01*
X17459Y61000D01*
X17459Y61000D01*
X17459Y48000D01*
X17617Y47617D01*
X17617Y47617D01*
X19019Y46216D01*
X18988Y46112D01*
X18817Y45710D01*
X18351Y45399D01*
X17999Y44872D01*
X17875Y44250D01*
X17999Y43628D01*
X18351Y43101D01*
X18878Y42749D01*
X19500Y42625D01*
X20122Y42749D01*
X20649Y43101D01*
X20959Y43565D01*
X21205Y43563D01*
X21459Y43481D01*
X21459Y34808D01*
X21072Y34491D01*
X20900Y34525D01*
X20278Y34401D01*
X19751Y34049D01*
X19700Y33973D01*
X19200D01*
X19149Y34049D01*
X18622Y34401D01*
X18000Y34525D01*
X17378Y34401D01*
X16851Y34049D01*
X16499Y33522D01*
X16375Y32900D01*
X16499Y32278D01*
X16851Y31751D01*
X17378Y31399D01*
X18000Y31275D01*
X18622Y31399D01*
X19149Y31751D01*
X19200Y31827D01*
X19700D01*
X19751Y31751D01*
X20278Y31399D01*
X20900Y31275D01*
X21072Y31309D01*
X21459Y30992D01*
Y27045D01*
X21435Y26975D01*
X21079Y26611D01*
X21000Y26627D01*
X20186Y26465D01*
X19496Y26004D01*
X19035Y25314D01*
X18873Y24500D01*
X19035Y23686D01*
X19496Y22996D01*
X20186Y22535D01*
X21000Y22373D01*
X21814Y22535D01*
X22000Y22660D01*
X22186Y22535D01*
X23000Y22373D01*
X23814Y22535D01*
X24504Y22996D01*
X24965Y23686D01*
X25127Y24500D01*
X25112Y24572D01*
X25369Y24885D01*
X25500Y24959D01*
X25883Y25117D01*
X27383Y26617D01*
X27541Y27000D01*
X27541Y27000D01*
Y30000D01*
X27541Y30000D01*
X27383Y30383D01*
X27383Y30383D01*
X26976Y30789D01*
X27148Y31324D01*
X27522Y31399D01*
X28049Y31751D01*
X28401Y32278D01*
X28525Y32900D01*
X28401Y33522D01*
X28049Y34049D01*
X27522Y34401D01*
X26900Y34525D01*
X26278Y34401D01*
X26041Y34243D01*
X25541Y34510D01*
X25541Y45500D01*
X25383Y45883D01*
X25383Y45883D01*
X21541Y49724D01*
X21541Y52765D01*
X21829Y52919D01*
X22041Y52986D01*
X22600Y52875D01*
X23222Y52999D01*
X23600Y53251D01*
X23978Y52999D01*
X24600Y52875D01*
X25222Y52999D01*
X25749Y53351D01*
X26101Y53878D01*
X26225Y54500D01*
X26101Y55122D01*
X25848Y55500D01*
X26101Y55878D01*
X26225Y56500D01*
X26101Y57122D01*
X25749Y57649D01*
X25222Y58001D01*
X24600Y58125D01*
X23978Y58001D01*
X23600Y57749D01*
X23222Y58001D01*
X22600Y58125D01*
X22041Y58014D01*
X21829Y58081D01*
X21541Y58235D01*
X21541Y59776D01*
X35383Y73617D01*
X35541Y74000D01*
X35541Y74000D01*
Y74980D01*
X39627D01*
X39778Y74480D01*
X39656Y74399D01*
X39261Y73808D01*
X39123Y73110D01*
X39261Y72413D01*
X39656Y71822D01*
X40247Y71426D01*
X40945Y71288D01*
X41642Y71426D01*
X42233Y71822D01*
X42537Y72276D01*
X42617Y72299D01*
X43013D01*
X43093Y72276D01*
X43396Y71822D01*
X43988Y71426D01*
X44685Y71288D01*
X45382Y71426D01*
X45974Y71822D01*
X46156Y72095D01*
X46757D01*
X46940Y71822D01*
X47231Y71627D01*
X47125Y71096D01*
X47107Y71092D01*
X46579Y70740D01*
X46227Y70213D01*
X46103Y69591D01*
X46227Y68970D01*
X46579Y68442D01*
X47107Y68090D01*
X47728Y67966D01*
X48350Y68090D01*
X48488Y68182D01*
X48499Y68178D01*
X48851Y67651D01*
X49378Y67299D01*
X50000Y67175D01*
X50622Y67299D01*
X51149Y67651D01*
X51501Y68178D01*
X51625Y68800D01*
X51501Y69422D01*
X51149Y69949D01*
X50622Y70301D01*
X50000Y70425D01*
X49378Y70301D01*
X49240Y70209D01*
X49230Y70213D01*
X48877Y70740D01*
X48685Y70869D01*
X48791Y71400D01*
X48926Y71426D01*
X49517Y71822D01*
X49699Y72094D01*
X50301D01*
X50483Y71822D01*
X51074Y71426D01*
X51772Y71288D01*
X52469Y71426D01*
X53060Y71822D01*
X53455Y72413D01*
X53594Y73110D01*
X53455Y73808D01*
X53060Y74399D01*
X52938Y74480D01*
X53090Y74980D01*
X57737D01*
X57889Y74480D01*
X57766Y74399D01*
X57371Y73808D01*
X57233Y73110D01*
X57371Y72413D01*
X57766Y71822D01*
X58358Y71426D01*
X59055Y71288D01*
X59753Y71426D01*
X60344Y71822D01*
X60739Y72413D01*
X60878Y73110D01*
X60739Y73808D01*
X60344Y74399D01*
X60222Y74480D01*
X60373Y74980D01*
X63678D01*
X64480Y74178D01*
Y71827D01*
X63996Y71504D01*
X63535Y70814D01*
X63373Y70000D01*
X63535Y69186D01*
X63996Y68496D01*
X64686Y68035D01*
X64990Y67975D01*
X65154Y67432D01*
X63937Y66215D01*
X54749D01*
X54456Y66157D01*
X54208Y65991D01*
X48059Y59842D01*
X47894Y59594D01*
X47835Y59301D01*
Y53617D01*
X44575Y50356D01*
X44409Y50108D01*
X44351Y49816D01*
Y29890D01*
X44302Y29880D01*
X43612Y29419D01*
X43151Y28729D01*
X42989Y27916D01*
X43151Y27102D01*
X43612Y26412D01*
X44302Y25951D01*
X45116Y25789D01*
X45929Y25951D01*
X46619Y26412D01*
X46770Y26638D01*
X46978Y26499D01*
X47600Y26375D01*
X48222Y26499D01*
X48749Y26851D01*
X49101Y27378D01*
X49225Y28000D01*
X49101Y28622D01*
X48749Y29149D01*
X48222Y29501D01*
X47600Y29625D01*
X46978Y29501D01*
X46692Y29310D01*
X46619Y29419D01*
X45929Y29880D01*
X45880Y29890D01*
Y49499D01*
X49141Y52759D01*
X49141Y52759D01*
X49306Y53007D01*
X49365Y53300D01*
X49365Y53300D01*
Y58984D01*
X53604Y63223D01*
X53837Y63171D01*
X54110Y63022D01*
X54215Y62492D01*
X54567Y61965D01*
X55095Y61613D01*
X55717Y61489D01*
X55839Y61514D01*
X55983Y61392D01*
X56201Y61076D01*
X56099Y60567D01*
X56223Y59945D01*
X56575Y59418D01*
X57103Y59066D01*
X57724Y58942D01*
X58346Y59066D01*
X58873Y59418D01*
X59226Y59945D01*
X59349Y60567D01*
X59226Y61189D01*
X58873Y61716D01*
X58346Y62068D01*
X57724Y62192D01*
X57602Y62168D01*
X57458Y62289D01*
X57240Y62605D01*
X57341Y63114D01*
X57218Y63736D01*
X56918Y64185D01*
X57006Y64484D01*
X57134Y64685D01*
X64253D01*
X64546Y64744D01*
X64794Y64909D01*
X68267Y68382D01*
X68704Y68381D01*
X68867Y68326D01*
X69051Y68051D01*
X69578Y67699D01*
X70200Y67575D01*
X70822Y67699D01*
X71349Y68051D01*
X71701Y68578D01*
X71825Y69200D01*
X71701Y69822D01*
X71349Y70349D01*
X70822Y70701D01*
X70200Y70825D01*
X69578Y70701D01*
X69100Y70382D01*
X68871Y70439D01*
X68600Y70575D01*
Y75039D01*
X71049Y77488D01*
X72338Y77710D01*
X72614Y77596D01*
X73543Y77473D01*
X74472Y77596D01*
X75338Y77954D01*
X76082Y78525D01*
X76652Y79268D01*
X77011Y80134D01*
X77133Y81063D01*
X77011Y81992D01*
X76652Y82858D01*
X76082Y83601D01*
X75338Y84172D01*
X74472Y84530D01*
X73543Y84653D01*
D02*
G37*
G36*
X81417Y75786D02*
X80745Y75697D01*
X80119Y75438D01*
X79581Y75025D01*
X79168Y74488D01*
X78909Y73861D01*
X78820Y73189D01*
X78909Y72517D01*
X79168Y71890D01*
X79581Y71353D01*
X80119Y70940D01*
X80745Y70680D01*
X81417Y70592D01*
X82090Y70680D01*
X82716Y70940D01*
X83254Y71353D01*
X83666Y71890D01*
X83926Y72517D01*
X84014Y73189D01*
X83926Y73861D01*
X83666Y74488D01*
X83254Y75025D01*
X82716Y75438D01*
X82090Y75697D01*
X81417Y75786D01*
D02*
G37*
G36*
X73543D02*
X72871Y75697D01*
X72245Y75438D01*
X71707Y75025D01*
X71294Y74488D01*
X71035Y73861D01*
X70946Y73189D01*
X71035Y72517D01*
X71294Y71890D01*
X71707Y71353D01*
X72245Y70940D01*
X72871Y70680D01*
X73543Y70592D01*
X74216Y70680D01*
X74842Y70940D01*
X75380Y71353D01*
X75792Y71890D01*
X76052Y72517D01*
X76140Y73189D01*
X76052Y73861D01*
X75792Y74488D01*
X75380Y75025D01*
X74842Y75438D01*
X74216Y75697D01*
X73543Y75786D01*
D02*
G37*
G36*
X18583D02*
X17910Y75697D01*
X17284Y75438D01*
X16746Y75025D01*
X16334Y74488D01*
X16074Y73861D01*
X15986Y73189D01*
X16074Y72517D01*
X16334Y71890D01*
X16746Y71353D01*
X17284Y70940D01*
X17910Y70680D01*
X18583Y70592D01*
X19255Y70680D01*
X19881Y70940D01*
X20419Y71353D01*
X20832Y71890D01*
X21091Y72517D01*
X21180Y73189D01*
X21091Y73861D01*
X20832Y74488D01*
X20419Y75025D01*
X19881Y75438D01*
X19255Y75697D01*
X18583Y75786D01*
D02*
G37*
G36*
X73480Y66983D02*
X72859Y66859D01*
X72331Y66507D01*
X71979Y65979D01*
X71855Y65358D01*
X71979Y64736D01*
X72331Y64209D01*
X72859Y63856D01*
X73480Y63733D01*
X74102Y63856D01*
X74629Y64209D01*
X74982Y64736D01*
X75105Y65358D01*
X74982Y65979D01*
X74629Y66507D01*
X74102Y66859D01*
X73480Y66983D01*
D02*
G37*
G36*
X44200Y66525D02*
X43578Y66401D01*
X43051Y66049D01*
X42699Y65522D01*
X42575Y64900D01*
X42699Y64278D01*
X43051Y63751D01*
X43578Y63399D01*
X44200Y63275D01*
X44822Y63399D01*
X45349Y63751D01*
X45701Y64278D01*
X45825Y64900D01*
X45701Y65522D01*
X45349Y66049D01*
X44822Y66401D01*
X44200Y66525D01*
D02*
G37*
G36*
X77500Y61625D02*
X76878Y61501D01*
X76351Y61149D01*
X75999Y60622D01*
X75875Y60000D01*
X75999Y59378D01*
X76351Y58851D01*
X76878Y58499D01*
X77500Y58375D01*
X78122Y58499D01*
X78604Y58821D01*
X78651Y58751D01*
X79178Y58399D01*
X79800Y58275D01*
X80422Y58399D01*
X80604Y58520D01*
X81000Y58725D01*
X81396Y58520D01*
X81578Y58399D01*
X82200Y58275D01*
X82822Y58399D01*
X83349Y58751D01*
X83701Y59278D01*
X83825Y59900D01*
X83701Y60522D01*
X83349Y61049D01*
X82822Y61401D01*
X82200Y61525D01*
X81578Y61401D01*
X81396Y61280D01*
X81000Y61075D01*
X80604Y61280D01*
X80422Y61401D01*
X79800Y61525D01*
X79178Y61401D01*
X78696Y61079D01*
X78649Y61149D01*
X78122Y61501D01*
X77500Y61625D01*
D02*
G37*
G36*
X38000Y58125D02*
X37378Y58001D01*
X37000Y57749D01*
X36622Y58001D01*
X36000Y58125D01*
X35378Y58001D01*
X34851Y57649D01*
X34499Y57122D01*
X34375Y56500D01*
X34499Y55878D01*
X34751Y55500D01*
X34499Y55122D01*
X34375Y54500D01*
X34499Y53878D01*
X34851Y53351D01*
X35378Y52999D01*
X36000Y52875D01*
X36622Y52999D01*
X37000Y53251D01*
X37378Y52999D01*
X38000Y52875D01*
X38622Y52999D01*
X39149Y53351D01*
X39501Y53878D01*
X39625Y54500D01*
X39501Y55122D01*
X39248Y55500D01*
X39501Y55878D01*
X39625Y56500D01*
X39501Y57122D01*
X39149Y57649D01*
X38622Y58001D01*
X38000Y58125D01*
D02*
G37*
G36*
X44550Y59649D02*
X43928Y59525D01*
X43401Y59173D01*
X43049Y58646D01*
X42925Y58024D01*
X43049Y57402D01*
X43401Y56875D01*
X43928Y56523D01*
X44550Y56399D01*
X45172Y56523D01*
X45699Y56875D01*
X46051Y57402D01*
X46175Y58024D01*
X46051Y58646D01*
X45699Y59173D01*
X45172Y59525D01*
X44550Y59649D01*
D02*
G37*
G36*
X52400Y58725D02*
X51778Y58601D01*
X51251Y58249D01*
X50899Y57722D01*
X50775Y57100D01*
X50899Y56478D01*
X51251Y55951D01*
X51778Y55599D01*
X52400Y55475D01*
X53022Y55599D01*
X53549Y55951D01*
X53901Y56478D01*
X54025Y57100D01*
X53901Y57722D01*
X53549Y58249D01*
X53022Y58601D01*
X52400Y58725D01*
D02*
G37*
G36*
X45000Y55825D02*
X44378Y55701D01*
X43851Y55349D01*
X43499Y54822D01*
X43375Y54200D01*
X43499Y53578D01*
X43851Y53051D01*
X44378Y52699D01*
X45000Y52575D01*
X45622Y52699D01*
X46149Y53051D01*
X46501Y53578D01*
X46625Y54200D01*
X46501Y54822D01*
X46149Y55349D01*
X45622Y55701D01*
X45000Y55825D01*
D02*
G37*
G36*
X57900Y49725D02*
X57278Y49601D01*
X57096Y49480D01*
X56700Y49275D01*
X56304Y49480D01*
X56122Y49601D01*
X55500Y49725D01*
X54878Y49601D01*
X54696Y49480D01*
X54300Y49275D01*
X53904Y49480D01*
X53722Y49601D01*
X53100Y49725D01*
X52478Y49601D01*
X51951Y49249D01*
X51599Y48722D01*
X51475Y48100D01*
X51599Y47478D01*
X51951Y46951D01*
X52478Y46599D01*
X53100Y46475D01*
X53722Y46599D01*
X53904Y46720D01*
X54300Y46925D01*
X54696Y46720D01*
X54878Y46599D01*
X55500Y46475D01*
X56122Y46599D01*
X56304Y46720D01*
X56700Y46925D01*
X57096Y46720D01*
X57278Y46599D01*
X57900Y46475D01*
X58522Y46599D01*
X59049Y46951D01*
X59401Y47478D01*
X59525Y48100D01*
X59401Y48722D01*
X59049Y49249D01*
X58522Y49601D01*
X57900Y49725D01*
D02*
G37*
G36*
X68000Y52125D02*
X67378Y52001D01*
X66851Y51649D01*
X66499Y51122D01*
X66375Y50500D01*
X66499Y49878D01*
X66851Y49351D01*
X67378Y48999D01*
X68000Y48875D01*
X68622Y48999D01*
X69149Y49351D01*
X69501Y49878D01*
X69625Y50500D01*
X69501Y51122D01*
X69149Y51649D01*
X68622Y52001D01*
X68000Y52125D01*
D02*
G37*
G36*
X75750Y51425D02*
X75128Y51301D01*
X74601Y50949D01*
X74249Y50422D01*
X74125Y49800D01*
X74249Y49178D01*
X74601Y48651D01*
X75128Y48299D01*
X75750Y48175D01*
X76372Y48299D01*
X76899Y48651D01*
X77251Y49178D01*
X77375Y49800D01*
X77251Y50422D01*
X76899Y50949D01*
X76372Y51301D01*
X75750Y51425D01*
D02*
G37*
G36*
X40000Y50125D02*
X39378Y50001D01*
X38851Y49649D01*
X38499Y49122D01*
X38375Y48500D01*
X38499Y47878D01*
X38851Y47351D01*
X39378Y46999D01*
X40000Y46875D01*
X40622Y46999D01*
X41149Y47351D01*
X41501Y47878D01*
X41625Y48500D01*
X41501Y49122D01*
X41149Y49649D01*
X40622Y50001D01*
X40000Y50125D01*
D02*
G37*
G36*
X48000Y49625D02*
X47378Y49501D01*
X46851Y49149D01*
X46499Y48622D01*
X46375Y48000D01*
X46499Y47378D01*
X46851Y46851D01*
X47378Y46499D01*
X48000Y46375D01*
X48622Y46499D01*
X49149Y46851D01*
X49501Y47378D01*
X49625Y48000D01*
X49501Y48622D01*
X49149Y49149D01*
X48622Y49501D01*
X48000Y49625D01*
D02*
G37*
G36*
X74734Y43125D02*
X74112Y43001D01*
X73585Y42649D01*
X73233Y42122D01*
X73109Y41500D01*
X73233Y40878D01*
X73585Y40351D01*
X74112Y39999D01*
X74734Y39875D01*
X75356Y39999D01*
X75883Y40351D01*
X76236Y40878D01*
X76359Y41500D01*
X76236Y42122D01*
X75883Y42649D01*
X75356Y43001D01*
X74734Y43125D01*
D02*
G37*
G36*
X56400Y41525D02*
X55778Y41401D01*
X55251Y41049D01*
X54899Y40522D01*
X54787Y39959D01*
X54646Y39821D01*
X54321Y39621D01*
X53800Y39725D01*
X53178Y39601D01*
X52651Y39249D01*
X52299Y38722D01*
X52175Y38100D01*
X52299Y37478D01*
X52651Y36951D01*
X53178Y36599D01*
X53800Y36475D01*
X54422Y36599D01*
X54949Y36951D01*
X55301Y37478D01*
X55413Y38041D01*
X55554Y38179D01*
X55879Y38379D01*
X56400Y38275D01*
X57022Y38399D01*
X57549Y38751D01*
X57901Y39278D01*
X58025Y39900D01*
X57901Y40522D01*
X57549Y41049D01*
X57022Y41401D01*
X56400Y41525D01*
D02*
G37*
G36*
X78500Y42625D02*
X77878Y42501D01*
X77351Y42149D01*
X76999Y41622D01*
X76875Y41000D01*
X76999Y40378D01*
X77351Y39851D01*
X77878Y39499D01*
X78500Y39375D01*
X79122Y39499D01*
X79649Y39851D01*
X80001Y40378D01*
X80125Y41000D01*
X80001Y41622D01*
X79649Y42149D01*
X79122Y42501D01*
X78500Y42625D01*
D02*
G37*
G36*
X82726Y42497D02*
X82104Y42373D01*
X81577Y42021D01*
X81225Y41493D01*
X81101Y40872D01*
X81225Y40250D01*
X81577Y39723D01*
X82104Y39371D01*
X82726Y39247D01*
X83348Y39371D01*
X83875Y39723D01*
X84228Y40250D01*
X84351Y40872D01*
X84228Y41493D01*
X83875Y42021D01*
X83348Y42373D01*
X82726Y42497D01*
D02*
G37*
G36*
X75500Y37125D02*
X74878Y37001D01*
X74351Y36649D01*
X73999Y36122D01*
X73875Y35500D01*
X73999Y34878D01*
X74351Y34351D01*
X74878Y33999D01*
X75500Y33875D01*
X76122Y33999D01*
X76649Y34351D01*
X77001Y34878D01*
X77125Y35500D01*
X77001Y36122D01*
X76649Y36649D01*
X76122Y37001D01*
X75500Y37125D01*
D02*
G37*
G36*
X32900Y31925D02*
X32278Y31801D01*
X31900Y31549D01*
X31522Y31801D01*
X30900Y31925D01*
X30278Y31801D01*
X29751Y31449D01*
X29399Y30922D01*
X29275Y30300D01*
X29399Y29678D01*
X29751Y29151D01*
X30278Y28799D01*
X30341Y28786D01*
X30571Y28231D01*
X30499Y28122D01*
X30375Y27500D01*
X30499Y26878D01*
X30851Y26351D01*
X31378Y25999D01*
X32000Y25875D01*
X32622Y25999D01*
X33149Y26351D01*
X33501Y26878D01*
X33625Y27500D01*
X33501Y28122D01*
X33405Y28266D01*
X33522Y28799D01*
X34049Y29151D01*
X34401Y29678D01*
X34525Y30300D01*
X34401Y30922D01*
X34049Y31449D01*
X33522Y31801D01*
X32900Y31925D01*
D02*
G37*
G36*
X59000Y34625D02*
X58378Y34501D01*
X57851Y34149D01*
X57499Y33622D01*
X57375Y33000D01*
X57499Y32378D01*
X57851Y31851D01*
X58378Y31499D01*
X59000Y31375D01*
X59622Y31499D01*
X60149Y31851D01*
X60501Y32378D01*
X60625Y33000D01*
X60501Y33622D01*
X60149Y34149D01*
X59622Y34501D01*
X59000Y34625D01*
D02*
G37*
G36*
X78649Y30525D02*
X78027Y30401D01*
X77500Y30049D01*
X77148Y29522D01*
X77024Y28900D01*
X77148Y28278D01*
X77500Y27751D01*
X78027Y27399D01*
X78649Y27275D01*
X79271Y27399D01*
X79798Y27751D01*
X80150Y28278D01*
X80274Y28900D01*
X80150Y29522D01*
X79798Y30049D01*
X79271Y30401D01*
X78649Y30525D01*
D02*
G37*
G36*
X63400Y30125D02*
X62778Y30001D01*
X62251Y29649D01*
X61899Y29122D01*
X61775Y28500D01*
X61899Y27878D01*
X62251Y27351D01*
X62436Y27228D01*
X62699Y26722D01*
X62575Y26100D01*
X62699Y25478D01*
X63051Y24951D01*
X63578Y24599D01*
X64200Y24475D01*
X64822Y24599D01*
X65349Y24951D01*
X65701Y25478D01*
X65825Y26100D01*
X65701Y26722D01*
X65349Y27249D01*
X65165Y27372D01*
X64901Y27878D01*
X65025Y28500D01*
X64901Y29122D01*
X64549Y29649D01*
X64022Y30001D01*
X63400Y30125D01*
D02*
G37*
G36*
X55500Y27725D02*
X54878Y27601D01*
X54351Y27249D01*
X53999Y26722D01*
X53875Y26100D01*
X53999Y25478D01*
X54351Y24951D01*
X54878Y24599D01*
X55500Y24475D01*
X56122Y24599D01*
X56649Y24951D01*
X57001Y25478D01*
X57125Y26100D01*
X57001Y26722D01*
X56649Y27249D01*
X56122Y27601D01*
X55500Y27725D01*
D02*
G37*
G36*
X50500Y27125D02*
X49878Y27001D01*
X49351Y26649D01*
X48999Y26122D01*
X48875Y25500D01*
X48999Y24878D01*
X49351Y24351D01*
X49878Y23999D01*
X50500Y23875D01*
X51122Y23999D01*
X51649Y24351D01*
X52001Y24878D01*
X52125Y25500D01*
X52001Y26122D01*
X51649Y26649D01*
X51122Y27001D01*
X50500Y27125D01*
D02*
G37*
G36*
X68600Y31925D02*
X67978Y31801D01*
X67451Y31449D01*
X67099Y30922D01*
X66975Y30300D01*
X67099Y29678D01*
X67451Y29151D01*
X67978Y28799D01*
X68600Y28675D01*
X68910Y28737D01*
X69135Y28586D01*
X69596Y27896D01*
X70286Y27435D01*
X71100Y27273D01*
X71914Y27435D01*
X72604Y27896D01*
X72656Y27901D01*
X73071Y27538D01*
Y22332D01*
X72571Y22180D01*
X72349Y22512D01*
X71822Y22865D01*
X71200Y22988D01*
X70578Y22865D01*
X70051Y22512D01*
X69699Y21985D01*
X69575Y21363D01*
X69699Y20742D01*
X69839Y20533D01*
X69686Y20165D01*
X68996Y19704D01*
X68535Y19014D01*
X68373Y18200D01*
X68535Y17386D01*
X68996Y16696D01*
X69686Y16235D01*
X70500Y16073D01*
X71314Y16235D01*
X72004Y16696D01*
X72465Y17386D01*
X72627Y18200D01*
X72510Y18785D01*
X74376Y20651D01*
X74542Y20899D01*
X74600Y21192D01*
Y28064D01*
X74542Y28357D01*
X74376Y28605D01*
X73139Y29843D01*
X73065Y30214D01*
X72604Y30904D01*
X71914Y31365D01*
X71100Y31527D01*
X70286Y31365D01*
X69954Y31143D01*
X69749Y31449D01*
X69222Y31801D01*
X68600Y31925D01*
D02*
G37*
G36*
X52500Y22625D02*
X51878Y22501D01*
X51351Y22149D01*
X50999Y21622D01*
X50875Y21000D01*
X50999Y20378D01*
X51351Y19851D01*
X51878Y19499D01*
X52500Y19375D01*
X53122Y19499D01*
X53649Y19851D01*
X54001Y20378D01*
X54125Y21000D01*
X54001Y21622D01*
X53649Y22149D01*
X53122Y22501D01*
X52500Y22625D01*
D02*
G37*
G36*
X77197Y22125D02*
X76575Y22001D01*
X76048Y21649D01*
X75696Y21122D01*
X75572Y20500D01*
X75696Y19878D01*
X76048Y19351D01*
X76575Y18999D01*
X77197Y18875D01*
X77819Y18999D01*
X78346Y19351D01*
X78698Y19878D01*
X78822Y20500D01*
X78698Y21122D01*
X78346Y21649D01*
X77819Y22001D01*
X77197Y22125D01*
D02*
G37*
G36*
X46142Y15467D02*
X45520Y15344D01*
X44993Y14991D01*
X44640Y14464D01*
X44517Y13842D01*
X44640Y13221D01*
X44993Y12694D01*
X45520Y12341D01*
X46142Y12218D01*
X46764Y12341D01*
X47291Y12694D01*
X47643Y13221D01*
X47767Y13842D01*
X47643Y14464D01*
X47291Y14991D01*
X46764Y15344D01*
X46142Y15467D01*
D02*
G37*
%LPD*%
G36*
X73904Y78529D02*
X70833Y78000D01*
X70480Y78353D01*
X70505Y78403D01*
X70536Y78511D01*
X70573Y78675D01*
X70785Y79903D01*
X71010Y81423D01*
X73904Y78529D01*
D02*
G37*
G36*
X66002Y71174D02*
X66019Y71007D01*
X66033Y70928D01*
X66052Y70853D01*
X66075Y70782D01*
X66102Y70714D01*
X66133Y70650D01*
X66169Y70589D01*
X66208Y70532D01*
X64792D01*
X64831Y70589D01*
X64867Y70650D01*
X64898Y70714D01*
X64925Y70782D01*
X64948Y70853D01*
X64967Y70928D01*
X64981Y71007D01*
X64992Y71088D01*
X64998Y71174D01*
X65000Y71263D01*
X66000D01*
X66002Y71174D01*
D02*
G37*
G36*
X45370Y29245D02*
X45384Y29186D01*
X45407Y29120D01*
X45439Y29046D01*
X45480Y28965D01*
X45590Y28780D01*
X45737Y28566D01*
X45824Y28447D01*
X44407D01*
X44494Y28566D01*
X44751Y28965D01*
X44792Y29046D01*
X44824Y29120D01*
X44847Y29186D01*
X44861Y29245D01*
X44866Y29297D01*
X45366D01*
X45370Y29245D01*
D02*
G37*
G36*
X35000Y76500D02*
Y74000D01*
X21000Y60000D01*
X21000Y56625D01*
X20975Y56500D01*
X21000Y56375D01*
X21000Y54625D01*
X20975Y54500D01*
X21000Y54375D01*
X21000Y49500D01*
X25000Y45500D01*
X25000Y32000D01*
X27000Y30000D01*
Y27000D01*
X25500Y25500D01*
X24840D01*
X24504Y26004D01*
X23814Y26465D01*
X23000Y26627D01*
X22477Y26523D01*
X22000Y27000D01*
Y31718D01*
X22049Y31751D01*
X22401Y32278D01*
X22525Y32900D01*
X22401Y33522D01*
X22049Y34049D01*
X22000Y34082D01*
X22000Y44000D01*
X20746Y45254D01*
X20649Y45399D01*
X20504Y45496D01*
X18000Y48000D01*
X18000Y61000D01*
X29000Y72000D01*
Y72781D01*
X29054Y73189D01*
X29000Y73597D01*
Y76500D01*
X30000Y77500D01*
X34000D01*
X35000Y76500D01*
D02*
G37*
G36*
X71698Y30070D02*
X72169Y29813D01*
X72239Y29785D01*
X72301Y29766D01*
X72354Y29754D01*
X72400Y29750D01*
Y29250D01*
X72360Y29245D01*
X72313Y29231D01*
X72261Y29206D01*
X72202Y29173D01*
X72137Y29129D01*
X71988Y29013D01*
X71815Y28858D01*
X71719Y28766D01*
X71580Y30145D01*
X71698Y30070D01*
D02*
G37*
G36*
X71745Y18747D02*
X71705Y18703D01*
X71665Y18650D01*
X71625Y18589D01*
X71584Y18520D01*
X71504Y18355D01*
X71464Y18261D01*
X71342Y17925D01*
X70529Y19085D01*
X70687Y19082D01*
X71181Y19102D01*
X71271Y19116D01*
X71348Y19133D01*
X71411Y19154D01*
X71461Y19179D01*
X71497Y19207D01*
X71745Y18747D01*
D02*
G37*
D11*
X67836Y69033D02*
Y75355D01*
X73543Y81063D01*
X64253Y65450D02*
X67836Y69033D01*
X73836Y21192D02*
Y28064D01*
X72400Y29500D02*
X73836Y28064D01*
X71200Y29500D02*
X72400D01*
X71100Y29400D02*
X71200Y29500D01*
X48600Y53300D02*
Y59301D01*
X45116Y49816D02*
X48600Y53300D01*
X45116Y27916D02*
Y49816D01*
X48600Y59301D02*
X54749Y65450D01*
X70844Y18200D02*
X73836Y21192D01*
X54749Y65450D02*
X64253D01*
X70500Y18200D02*
X70844D01*
D55*
X65500Y70000D02*
Y74600D01*
X64100Y76000D02*
X65500Y74600D01*
X34000Y76000D02*
X64100D01*
X32900Y75100D02*
X33100D01*
X34000Y76000D01*
D65*
X19500Y19000D02*
D03*
Y17000D02*
D03*
X21000Y24500D02*
D03*
X23000D02*
D03*
X24500Y29500D02*
D03*
Y27700D02*
D03*
X50000Y66300D02*
D03*
X63400Y21800D02*
D03*
X45116Y27916D02*
D03*
X51000Y50500D02*
D03*
X62000Y52000D02*
D03*
X71500Y26400D02*
D03*
X65500Y70000D02*
D03*
X32900Y75100D02*
D03*
X31100D02*
D03*
X71100Y29400D02*
D03*
X70500Y18200D02*
D03*
X41500Y27500D02*
D03*
X68000Y58000D02*
D03*
X32000Y14500D02*
D03*
X31999Y18937D02*
D03*
X81500Y46350D02*
D03*
X69193Y37031D02*
D03*
X68000Y60000D02*
D03*
X65980Y44410D02*
D03*
D66*
X27547Y47532D02*
D03*
Y51468D02*
D03*
X33453D02*
D03*
Y47532D02*
D03*
X30500Y49500D02*
D03*
D67*
X26457Y81063D02*
D03*
Y73189D02*
D03*
X18583D02*
D03*
X81417Y81063D02*
D03*
X73543Y73189D02*
D03*
X81417D02*
D03*
D68*
X18583Y81063D02*
D03*
D69*
X48228Y78622D02*
D03*
X40945D02*
D03*
X37205D02*
D03*
Y73110D02*
D03*
X40945D02*
D03*
X44685D02*
D03*
X48228D02*
D03*
X62795D02*
D03*
X59055D02*
D03*
X51772D02*
D03*
X62795Y78622D02*
D03*
X59055D02*
D03*
X55315D02*
D03*
X51772D02*
D03*
D70*
X20900Y32900D02*
D03*
X18000D02*
D03*
X22600Y54500D02*
D03*
X32900Y30300D02*
D03*
X30900D02*
D03*
X26900Y32900D02*
D03*
X64200Y26100D02*
D03*
X53100Y48100D02*
D03*
X57900D02*
D03*
X55500D02*
D03*
X70200Y69200D02*
D03*
X73480Y65358D02*
D03*
X77500Y60000D02*
D03*
X79800Y59900D02*
D03*
X82200D02*
D03*
X55717Y63114D02*
D03*
X52400Y57100D02*
D03*
X50000Y68800D02*
D03*
X47728Y69591D02*
D03*
X44550Y58024D02*
D03*
X78649Y28900D02*
D03*
X71200Y21363D02*
D03*
X44200Y64900D02*
D03*
X45000Y54200D02*
D03*
X40000Y48500D02*
D03*
X75750Y49800D02*
D03*
X47600Y28000D02*
D03*
X56400Y39900D02*
D03*
X53800Y38100D02*
D03*
X48000Y48000D02*
D03*
X82726Y40872D02*
D03*
X74734Y41500D02*
D03*
X63400Y28500D02*
D03*
X68600Y30300D02*
D03*
X55500Y26100D02*
D03*
X59000Y33000D02*
D03*
X52500Y21000D02*
D03*
X32000Y27500D02*
D03*
X19500Y44250D02*
D03*
X68000Y50500D02*
D03*
X31500Y81000D02*
D03*
X33500D02*
D03*
X77000Y14000D02*
D03*
Y12000D02*
D03*
X75500Y35500D02*
D03*
X50500Y25500D02*
D03*
X78500Y41000D02*
D03*
X46142Y13842D02*
D03*
X77197Y20500D02*
D03*
X38000Y56500D02*
D03*
Y54500D02*
D03*
X22600Y56500D02*
D03*
X24600D02*
D03*
Y54500D02*
D03*
X36000D02*
D03*
Y56500D02*
D03*
X57724Y60567D02*
D03*
D71*
X73543Y81063D02*
D03*
M02*
