G04*
G04 #@! TF.GenerationSoftware,Altium Limited,Altium Designer,19.1.5 (86)*
G04*
G04 Layer_Physical_Order=2*
G04 Layer_Color=36540*
%FSLAX25Y25*%
%MOIN*%
G70*
G01*
G75*
%ADD11C,0.00500*%
%ADD55C,0.01000*%
%ADD65C,0.01772*%
%ADD66C,0.02362*%
%ADD67C,0.03150*%
%ADD68O,0.05118X0.05118*%
%ADD69C,0.01575*%
%ADD70C,0.00787*%
G36*
X38038Y85365D02*
X38179Y85027D01*
X38214Y84865D01*
X37796Y84239D01*
X37642Y83465D01*
X37796Y82690D01*
X38235Y82034D01*
X38891Y81595D01*
X39665Y81441D01*
X44587D01*
X45361Y81595D01*
X46017Y82034D01*
X46456Y82690D01*
X46610Y83465D01*
X46456Y84239D01*
X46038Y84865D01*
X46073Y85028D01*
X46214Y85365D01*
X53786Y85365D01*
X53927Y85028D01*
X53962Y84865D01*
X53544Y84239D01*
X53390Y83465D01*
X53544Y82690D01*
X53983Y82034D01*
X54639Y81595D01*
X55413Y81441D01*
X60335D01*
X61109Y81595D01*
X61765Y82034D01*
X62204Y82690D01*
X62358Y83465D01*
X62204Y84239D01*
X61786Y84865D01*
X61821Y85028D01*
X61962Y85365D01*
X85719Y85365D01*
Y30721D01*
X85522Y30289D01*
X85243Y30276D01*
X85169Y30258D01*
X85094Y30258D01*
X84545Y30149D01*
X84452Y30111D01*
X84354Y30091D01*
X83837Y29878D01*
X83754Y29822D01*
X83661Y29784D01*
X83196Y29474D01*
X83125Y29402D01*
X83041Y29346D01*
X82646Y28951D01*
X82590Y28868D01*
X82519Y28797D01*
X82209Y28332D01*
X82170Y28239D01*
X82114Y28155D01*
X81901Y27639D01*
X81881Y27540D01*
X81843Y27447D01*
X81734Y26899D01*
X81735Y26823D01*
X81716Y26750D01*
X81703Y26470D01*
X81707Y26446D01*
X81702Y26422D01*
Y18000D01*
X76108D01*
X76000Y18000D01*
X76000Y18000D01*
X76000D01*
X75000Y19000D01*
X75000Y22000D01*
X79959Y26959D01*
Y27266D01*
X80153Y27396D01*
X80614Y28086D01*
X80776Y28900D01*
X80614Y29714D01*
X80153Y30404D01*
X79463Y30865D01*
X78649Y31027D01*
X78551Y31007D01*
X75998Y33560D01*
X74776D01*
X73616Y34720D01*
Y36280D01*
X74875Y37539D01*
X82156D01*
X83520Y38903D01*
X83540Y38907D01*
X84230Y39368D01*
X84691Y40058D01*
X84853Y40872D01*
X84691Y41686D01*
X84230Y42375D01*
X83540Y42836D01*
X82726Y42998D01*
X81912Y42836D01*
X81871Y42809D01*
X80466Y44213D01*
X80500Y44500D01*
X80608Y44599D01*
X81010Y44822D01*
X81500Y44725D01*
X82122Y44849D01*
X82649Y45201D01*
X83001Y45728D01*
X83125Y46350D01*
X83001Y46972D01*
X82649Y47499D01*
X82122Y47851D01*
X81500Y47975D01*
X80878Y47851D01*
X80765Y47775D01*
X80265Y48043D01*
Y50649D01*
X79851Y51064D01*
Y51420D01*
X79792Y51713D01*
X79627Y51961D01*
X75265Y56323D01*
Y62757D01*
X76357Y63849D01*
X76523Y64097D01*
X76581Y64390D01*
X76581Y64390D01*
Y66325D01*
X76523Y66618D01*
X76357Y66866D01*
X74989Y68234D01*
X74740Y68400D01*
X74448Y68458D01*
X71997D01*
X71704Y68400D01*
X71456Y68234D01*
X71456Y68234D01*
X70851Y67629D01*
X69705D01*
X68600Y68733D01*
Y70968D01*
X68542Y71260D01*
X68376Y71508D01*
X67008Y72877D01*
X66760Y73042D01*
X66467Y73101D01*
X64626D01*
X64618Y73110D01*
X64479Y73808D01*
X64084Y74399D01*
X63493Y74794D01*
X62795Y74933D01*
X62466Y74867D01*
X62041Y75292D01*
Y76440D01*
X62541Y76850D01*
X62795Y76800D01*
X63493Y76938D01*
X64084Y77333D01*
X64479Y77925D01*
X64618Y78622D01*
X64479Y79320D01*
X64084Y79911D01*
X63493Y80306D01*
X62795Y80445D01*
X62098Y80306D01*
X61507Y79911D01*
X61464Y79848D01*
X60967Y79799D01*
X60383Y80383D01*
X60000Y80541D01*
X60000Y80541D01*
X57145D01*
X57070Y80510D01*
X56988Y80518D01*
X56885Y80434D01*
X56763Y80383D01*
X56506Y80253D01*
X56098Y80249D01*
X56012Y80306D01*
X55315Y80445D01*
X54618Y80306D01*
X54160Y80000D01*
X52927D01*
X52469Y80306D01*
X51772Y80445D01*
X51074Y80306D01*
X50617Y80000D01*
X49383D01*
X48926Y80306D01*
X48228Y80445D01*
X47531Y80306D01*
X47446Y80249D01*
X47037Y80253D01*
X46781Y80383D01*
X46658Y80434D01*
X46555Y80518D01*
X46474Y80510D01*
X46398Y80541D01*
X39035D01*
X38959Y80510D01*
X38878Y80518D01*
X38775Y80434D01*
X38652Y80383D01*
X38396Y80253D01*
X37987Y80249D01*
X37902Y80306D01*
X37205Y80445D01*
X37196Y80443D01*
X36812Y80730D01*
X36744Y80894D01*
X36695Y81065D01*
X36666Y81081D01*
X36653Y81112D01*
X34383Y83383D01*
X34383Y83383D01*
X34000Y83541D01*
X34000Y83541D01*
X31000Y83541D01*
X30617Y83383D01*
X30617Y83383D01*
X29617Y82383D01*
X29459Y82000D01*
X29459Y82000D01*
Y81430D01*
X29373Y81000D01*
X29459Y80570D01*
Y77000D01*
X24000D01*
X22500Y78500D01*
Y85365D01*
X38038Y85365D01*
D02*
G37*
G36*
X28961Y73638D02*
X28977Y73596D01*
X29004Y73559D01*
X29041Y73527D01*
X29089Y73500D01*
X29148Y73478D01*
X29218Y73461D01*
X29298Y73449D01*
X29390Y73441D01*
X29491Y73439D01*
Y72939D01*
X29390Y72936D01*
X29298Y72929D01*
X29218Y72917D01*
X29148Y72899D01*
X29089Y72877D01*
X29041Y72850D01*
X29003Y72817D01*
X28976Y72780D01*
X28960Y72738D01*
X28955Y72691D01*
X28955Y73685D01*
X28961Y73638D01*
D02*
G37*
G36*
X34000Y83000D02*
X36270Y80730D01*
X36195Y80097D01*
X35916Y79911D01*
X35521Y79320D01*
X35382Y78622D01*
X35521Y77925D01*
X35916Y77333D01*
X36507Y76938D01*
X37205Y76800D01*
X37902Y76938D01*
X38493Y77333D01*
X38888Y77925D01*
X39027Y78622D01*
X38888Y79320D01*
X38768Y79500D01*
X39035Y80000D01*
X46398D01*
X46665Y79500D01*
X46545Y79320D01*
X46406Y78622D01*
X46545Y77925D01*
X46940Y77333D01*
X47531Y76938D01*
X48228Y76800D01*
X48926Y76938D01*
X49517Y77333D01*
X49699Y77606D01*
X50301D01*
X50483Y77333D01*
X51074Y76938D01*
X51772Y76800D01*
X52469Y76938D01*
X53060Y77333D01*
X53243Y77606D01*
X53844D01*
X54026Y77333D01*
X54618Y76938D01*
X55315Y76800D01*
X56012Y76938D01*
X56604Y77333D01*
X56999Y77925D01*
X57137Y78622D01*
X56999Y79320D01*
X56878Y79500D01*
X57145Y80000D01*
X60000D01*
X61040Y78960D01*
X60973Y78622D01*
X61112Y77925D01*
X61500Y77343D01*
Y74389D01*
X61112Y73808D01*
X60973Y73110D01*
X61112Y72413D01*
X61500Y71832D01*
Y71000D01*
X60715Y70215D01*
X60335Y70291D01*
X55413D01*
X54639Y70137D01*
X54434Y70000D01*
X51073D01*
X50622Y70301D01*
X50000Y70425D01*
X49378Y70301D01*
X49240Y70209D01*
X49230Y70213D01*
X48877Y70740D01*
X48685Y70869D01*
X48791Y71400D01*
X48926Y71426D01*
X49517Y71822D01*
X49699Y72094D01*
X50301D01*
X50483Y71822D01*
X51074Y71426D01*
X51772Y71288D01*
X52469Y71426D01*
X53060Y71822D01*
X53455Y72413D01*
X53594Y73110D01*
X53455Y73808D01*
X53060Y74399D01*
X52469Y74794D01*
X51772Y74933D01*
X51074Y74794D01*
X50483Y74399D01*
X50301Y74126D01*
X49699D01*
X49517Y74399D01*
X48926Y74794D01*
X48228Y74933D01*
X47531Y74794D01*
X46940Y74399D01*
X46757Y74126D01*
X46156D01*
X45974Y74399D01*
X45382Y74794D01*
X44685Y74933D01*
X43988Y74794D01*
X43396Y74399D01*
X43001Y73808D01*
X42863Y73110D01*
X43001Y72413D01*
X43396Y71822D01*
X43988Y71426D01*
X44685Y71288D01*
X45382Y71426D01*
X45974Y71822D01*
X46156Y72095D01*
X46757D01*
X46940Y71822D01*
X47231Y71627D01*
X47125Y71096D01*
X47107Y71092D01*
X46579Y70740D01*
X46227Y70213D01*
X46185Y70000D01*
X45566D01*
X45361Y70137D01*
X44587Y70291D01*
X39665D01*
X38891Y70137D01*
X38686Y70000D01*
X35681D01*
X32671Y73011D01*
X32900Y73475D01*
X33522Y73599D01*
X34049Y73951D01*
X34401Y74478D01*
X34525Y75100D01*
X34401Y75722D01*
X34049Y76249D01*
X33522Y76601D01*
X32900Y76725D01*
X32278Y76601D01*
X32000Y76415D01*
X31722Y76601D01*
X31100Y76725D01*
X30500Y76606D01*
X30411Y76598D01*
X30000Y76858D01*
Y80710D01*
X30046Y81063D01*
X30000Y81416D01*
Y82000D01*
X31000Y83000D01*
X34000Y83000D01*
D02*
G37*
G36*
X66169Y69411D02*
X66133Y69350D01*
X66102Y69286D01*
X66075Y69218D01*
X66052Y69147D01*
X66033Y69072D01*
X66019Y68994D01*
X66008Y68912D01*
X66002Y68826D01*
X66000Y68737D01*
X65000D01*
X64998Y68826D01*
X64981Y68994D01*
X64967Y69072D01*
X64948Y69147D01*
X64925Y69218D01*
X64898Y69286D01*
X64867Y69350D01*
X64831Y69411D01*
X64792Y69468D01*
X66208D01*
X66169Y69411D01*
D02*
G37*
G36*
X44850Y65521D02*
X45249Y65265D01*
X45331Y65223D01*
X45404Y65191D01*
X45471Y65168D01*
X45530Y65155D01*
X45581Y65150D01*
Y64650D01*
X45530Y64645D01*
X45471Y64632D01*
X45404Y64609D01*
X45331Y64577D01*
X45249Y64535D01*
X45065Y64425D01*
X44850Y64279D01*
X44732Y64192D01*
Y65608D01*
X44850Y65521D01*
D02*
G37*
G36*
X74102Y64707D02*
X73845Y64308D01*
X73804Y64227D01*
X73772Y64153D01*
X73749Y64087D01*
X73735Y64028D01*
X73730Y63976D01*
X73230D01*
X73226Y64028D01*
X73212Y64087D01*
X73189Y64153D01*
X73157Y64227D01*
X73116Y64308D01*
X73006Y64493D01*
X72859Y64707D01*
X72772Y64826D01*
X74189D01*
X74102Y64707D01*
D02*
G37*
G36*
X56279Y62430D02*
X56158Y62328D01*
X55799Y61984D01*
X55741Y61914D01*
X55696Y61851D01*
X55664Y61794D01*
X55645Y61744D01*
X55639Y61700D01*
X55139Y61911D01*
X55136Y61975D01*
X55129Y62043D01*
X55117Y62117D01*
X55080Y62277D01*
X55054Y62365D01*
X54948Y62657D01*
X54903Y62763D01*
X56279Y62430D01*
D02*
G37*
G36*
X58388Y59961D02*
X58163Y59559D01*
X58126Y59476D01*
X58098Y59400D01*
X58078Y59332D01*
X58066Y59271D01*
X58062Y59216D01*
X57562Y59165D01*
X57557Y59214D01*
X57542Y59271D01*
X57516Y59335D01*
X57480Y59406D01*
X57434Y59485D01*
X57311Y59666D01*
X57148Y59876D01*
X57051Y59992D01*
X58464Y60080D01*
X58388Y59961D01*
D02*
G37*
G36*
X69246Y51039D02*
X69185Y50975D01*
X69078Y50845D01*
X69033Y50779D01*
X68994Y50713D01*
X68960Y50646D01*
X68931Y50579D01*
X68907Y50512D01*
X68889Y50444D01*
X68877Y50375D01*
X67875Y51377D01*
X67944Y51389D01*
X68012Y51407D01*
X68079Y51431D01*
X68146Y51460D01*
X68213Y51494D01*
X68279Y51534D01*
X68345Y51578D01*
X68410Y51629D01*
X68475Y51685D01*
X68539Y51746D01*
X69246Y51039D01*
D02*
G37*
G36*
X21959Y85365D02*
Y78500D01*
X21959Y78500D01*
X22117Y78117D01*
X23617Y76617D01*
X24000Y76459D01*
X24203Y76009D01*
X24220Y75959D01*
X23918Y75727D01*
X23348Y74984D01*
X22989Y74118D01*
X22867Y73189D01*
X22989Y72260D01*
X23348Y71394D01*
X23918Y70651D01*
X24662Y70080D01*
X25528Y69722D01*
X26457Y69599D01*
X27386Y69722D01*
X28252Y70080D01*
X28995Y70651D01*
X29566Y71394D01*
X29924Y72260D01*
X29946Y72424D01*
X31094D01*
X41559Y61959D01*
X41559Y61959D01*
X41807Y61794D01*
X42100Y61735D01*
X42100Y61735D01*
X49987D01*
X53971Y57751D01*
Y51553D01*
X53099Y50680D01*
X52556Y50845D01*
X52501Y51122D01*
X52149Y51649D01*
X51622Y52001D01*
X51000Y52125D01*
X50378Y52001D01*
X49851Y51649D01*
X49499Y51122D01*
X49375Y50500D01*
X49499Y49878D01*
X49851Y49351D01*
X50378Y48999D01*
X51000Y48875D01*
X51106Y48769D01*
X50973Y48100D01*
X51135Y47286D01*
X51596Y46596D01*
X52286Y46135D01*
X53100Y45973D01*
X53914Y46135D01*
X54300Y46393D01*
X54686Y46135D01*
X55182Y46037D01*
X55995Y45224D01*
X55995Y45224D01*
X56243Y45058D01*
X56536Y45000D01*
X58372D01*
X63935Y39436D01*
Y30914D01*
X63549Y30597D01*
X63400Y30627D01*
X62586Y30465D01*
X61896Y30004D01*
X61435Y29314D01*
X61273Y28500D01*
X61435Y27686D01*
X61896Y26996D01*
X62210Y26787D01*
X62073Y26100D01*
X62235Y25286D01*
X62696Y24596D01*
X63386Y24135D01*
X64200Y23973D01*
X65014Y24135D01*
X65704Y24596D01*
X66165Y25286D01*
X66327Y26100D01*
X66170Y26886D01*
X66277Y26992D01*
X66442Y27240D01*
X66501Y27533D01*
Y30123D01*
X67001Y30172D01*
X67043Y29958D01*
X67099Y29678D01*
X67451Y29151D01*
X67978Y28799D01*
X68600Y28675D01*
X69090Y28773D01*
X69273Y28775D01*
X69751Y28551D01*
X69951Y28251D01*
X70226Y28067D01*
X70344Y27580D01*
X70295Y27465D01*
X69999Y27022D01*
X69875Y26400D01*
X69999Y25778D01*
X70351Y25251D01*
X70878Y24899D01*
X71500Y24775D01*
X72122Y24899D01*
X72649Y25251D01*
X73001Y25778D01*
X73125Y26400D01*
X73001Y27022D01*
X72649Y27549D01*
X72374Y27733D01*
X72256Y28220D01*
X72305Y28335D01*
X72601Y28778D01*
X72725Y29400D01*
X72601Y30022D01*
X72249Y30549D01*
X71722Y30901D01*
X71100Y31025D01*
X70478Y30901D01*
X69984Y31097D01*
X69749Y31449D01*
X69222Y31801D01*
X68600Y31925D01*
X67978Y31801D01*
X67451Y31449D01*
X67099Y30922D01*
X67001Y30428D01*
X66501Y30477D01*
Y40164D01*
X66501Y40164D01*
X66442Y40457D01*
X66277Y40705D01*
X59797Y47185D01*
X59865Y47286D01*
X60027Y48100D01*
X59865Y48914D01*
X59404Y49604D01*
X58714Y50065D01*
X58577Y50092D01*
Y58628D01*
X59228Y59063D01*
X59689Y59753D01*
X59851Y60567D01*
X59689Y61381D01*
X59228Y62071D01*
X58538Y62532D01*
X57758Y62687D01*
X57843Y63114D01*
X57681Y63928D01*
X57220Y64618D01*
X56875Y64849D01*
X57026Y65349D01*
X60633D01*
X60926Y65407D01*
X61174Y65573D01*
X63124Y67523D01*
X63289Y67771D01*
X63348Y68063D01*
X63348Y68063D01*
Y68567D01*
X63848Y68719D01*
X63996Y68496D01*
X64480Y68173D01*
Y66157D01*
X64558Y65767D01*
X64779Y65436D01*
X68100Y62115D01*
X68054Y61889D01*
X67902Y61606D01*
X67378Y61501D01*
X66851Y61149D01*
X66499Y60622D01*
X66375Y60000D01*
X66499Y59378D01*
X66751Y59000D01*
X66499Y58622D01*
X66375Y58000D01*
X66499Y57378D01*
X66851Y56851D01*
X67378Y56499D01*
X68000Y56375D01*
X68622Y56499D01*
X69066Y56796D01*
X69374Y56702D01*
X69566Y56576D01*
Y53508D01*
X68571Y52513D01*
X68000Y52627D01*
X67186Y52465D01*
X66496Y52004D01*
X66035Y51314D01*
X65873Y50500D01*
X66035Y49686D01*
X66496Y48996D01*
X67186Y48535D01*
X68000Y48373D01*
X68814Y48535D01*
X69504Y48996D01*
X69965Y49686D01*
X70127Y50500D01*
X70013Y51071D01*
X71307Y52365D01*
X71528Y52696D01*
X71605Y53086D01*
Y61071D01*
X71528Y61461D01*
X71307Y61792D01*
X66520Y66579D01*
Y67705D01*
X66681Y67809D01*
X67129Y67968D01*
X67295Y67720D01*
X68692Y66324D01*
X68940Y66158D01*
X69232Y66100D01*
X69232Y66100D01*
X70991D01*
X71329Y65791D01*
X71409Y65638D01*
X71354Y65358D01*
X71516Y64544D01*
X71977Y63854D01*
X72667Y63393D01*
X72716Y63383D01*
Y55612D01*
X72774Y55319D01*
X72940Y55071D01*
X77321Y50690D01*
Y44098D01*
X77379Y43805D01*
X77545Y43557D01*
X77637Y43465D01*
X77654Y43290D01*
X77615Y42917D01*
X76996Y42504D01*
X76744Y42127D01*
X76514Y42125D01*
X76188Y42193D01*
X75883Y42649D01*
X75356Y43001D01*
X74734Y43125D01*
X74112Y43001D01*
X73585Y42649D01*
X73233Y42122D01*
X73109Y41500D01*
X73233Y40878D01*
X73585Y40351D01*
X74112Y39999D01*
X74734Y39875D01*
X75356Y39999D01*
X75883Y40351D01*
X75968Y40477D01*
X76498Y40372D01*
X76535Y40186D01*
X76996Y39496D01*
X77686Y39035D01*
X78500Y38873D01*
X79314Y39035D01*
X80004Y39496D01*
X80292Y39928D01*
X80369Y39949D01*
X80871Y39894D01*
X81222Y39368D01*
X81912Y38907D01*
X82034Y38883D01*
X82185Y38416D01*
X81901Y38080D01*
X74875D01*
X74875Y38080D01*
X74492Y37922D01*
X73233Y36663D01*
X73075Y36280D01*
X73075Y36280D01*
Y34720D01*
X73075Y34720D01*
X73233Y34337D01*
X73233Y34337D01*
X74393Y33177D01*
X74776Y33019D01*
X74776Y33019D01*
X75774D01*
X78168Y30624D01*
X78219Y30603D01*
X78250Y30557D01*
X78405Y30526D01*
X78551Y30466D01*
X78597Y30485D01*
X79252Y30355D01*
X79763Y30014D01*
X80104Y29503D01*
X80224Y28900D01*
X80104Y28297D01*
X79763Y27786D01*
X79658Y27716D01*
X79627Y27670D01*
X79576Y27649D01*
X79516Y27503D01*
X79428Y27372D01*
X79439Y27318D01*
X79418Y27266D01*
Y27183D01*
X74617Y22383D01*
X74459Y22000D01*
X74459Y22000D01*
X74459Y19000D01*
X74459Y19000D01*
X74617Y18617D01*
X74583Y18144D01*
X74540Y18041D01*
X72255D01*
X72125Y18200D01*
X72001Y18822D01*
X71649Y19349D01*
X71122Y19701D01*
X70500Y19825D01*
X69878Y19701D01*
X69351Y19349D01*
X68999Y18822D01*
X68875Y18200D01*
X68745Y18041D01*
X33873Y18041D01*
X33546Y18541D01*
X33625Y18937D01*
X33501Y19559D01*
X33149Y20087D01*
X32621Y20439D01*
X31999Y20562D01*
X31378Y20439D01*
X30850Y20087D01*
X30694Y20071D01*
X25052Y25714D01*
X25213Y26260D01*
X25649Y26551D01*
X26001Y27078D01*
X26125Y27700D01*
X26001Y28322D01*
X25815Y28600D01*
X26001Y28878D01*
X26125Y29500D01*
X26001Y30122D01*
X25649Y30649D01*
X25122Y31001D01*
X24500Y31125D01*
X23878Y31001D01*
X23351Y30649D01*
X22999Y30122D01*
X22875Y29500D01*
X22999Y28878D01*
X23185Y28600D01*
X22999Y28322D01*
X22875Y27700D01*
X22995Y27099D01*
X22991Y27064D01*
X22734Y26574D01*
X22570Y26541D01*
X21430D01*
X21000Y26627D01*
X20570Y26541D01*
X14281Y26541D01*
Y85365D01*
X21959Y85365D01*
D02*
G37*
G36*
X78755Y42330D02*
X78768Y42271D01*
X78791Y42204D01*
X78823Y42131D01*
X78865Y42049D01*
X78975Y41865D01*
X79121Y41650D01*
X79208Y41532D01*
X77792D01*
X77879Y41650D01*
X78135Y42049D01*
X78177Y42131D01*
X78209Y42204D01*
X78232Y42271D01*
X78245Y42330D01*
X78250Y42381D01*
X78750D01*
X78755Y42330D01*
D02*
G37*
G36*
X81966Y41992D02*
X82017Y41960D01*
X82081Y41929D01*
X82155Y41900D01*
X82242Y41872D01*
X82450Y41819D01*
X82706Y41771D01*
X82851Y41749D01*
X81849Y40747D01*
X81827Y40892D01*
X81726Y41356D01*
X81698Y41443D01*
X81669Y41517D01*
X81638Y41581D01*
X81606Y41632D01*
X81573Y41672D01*
X81926Y42025D01*
X81966Y41992D01*
D02*
G37*
G36*
X24000Y26000D02*
X30489Y19511D01*
X30375Y18937D01*
X30498Y18316D01*
X30850Y17788D01*
X31378Y17436D01*
X31999Y17312D01*
X32621Y17436D01*
X32717Y17500D01*
X69051Y17500D01*
X69351Y17051D01*
X69878Y16699D01*
X70500Y16575D01*
X71122Y16699D01*
X71649Y17051D01*
X71949Y17500D01*
X75813D01*
X75829Y17487D01*
X75918Y17493D01*
X76000Y17459D01*
X76000Y17459D01*
X76000D01*
X76000Y17459D01*
X76108Y17459D01*
X76108Y17459D01*
X76108Y17459D01*
X81702D01*
Y10620D01*
X14281Y10620D01*
Y26000D01*
X24000Y26000D01*
D02*
G37*
%LPC*%
G36*
X81417Y83660D02*
X80745Y83571D01*
X80119Y83312D01*
X79581Y82899D01*
X79168Y82362D01*
X78909Y81735D01*
X78820Y81063D01*
X78909Y80391D01*
X79168Y79764D01*
X79581Y79227D01*
X80119Y78814D01*
X80745Y78554D01*
X81417Y78466D01*
X82090Y78554D01*
X82716Y78814D01*
X83254Y79227D01*
X83666Y79764D01*
X83926Y80391D01*
X84014Y81063D01*
X83926Y81735D01*
X83666Y82362D01*
X83254Y82899D01*
X82716Y83312D01*
X82090Y83571D01*
X81417Y83660D01*
D02*
G37*
G36*
X73543D02*
X72871Y83571D01*
X72245Y83312D01*
X71707Y82899D01*
X71294Y82362D01*
X71035Y81735D01*
X70946Y81063D01*
X71035Y80391D01*
X71294Y79764D01*
X71707Y79227D01*
X72245Y78814D01*
X72871Y78554D01*
X73543Y78466D01*
X74216Y78554D01*
X74842Y78814D01*
X75380Y79227D01*
X75792Y79764D01*
X76052Y80391D01*
X76140Y81063D01*
X76052Y81735D01*
X75792Y82362D01*
X75380Y82899D01*
X74842Y83312D01*
X74216Y83571D01*
X73543Y83660D01*
D02*
G37*
G36*
X81417Y75786D02*
X80745Y75697D01*
X80119Y75438D01*
X79581Y75025D01*
X79168Y74488D01*
X78909Y73861D01*
X78820Y73189D01*
X78909Y72517D01*
X79168Y71890D01*
X79581Y71353D01*
X80119Y70940D01*
X80745Y70680D01*
X81417Y70592D01*
X82090Y70680D01*
X82716Y70940D01*
X83254Y71353D01*
X83666Y71890D01*
X83926Y72517D01*
X84014Y73189D01*
X83926Y73861D01*
X83666Y74488D01*
X83254Y75025D01*
X82716Y75438D01*
X82090Y75697D01*
X81417Y75786D01*
D02*
G37*
G36*
X73543D02*
X72871Y75697D01*
X72245Y75438D01*
X71707Y75025D01*
X71294Y74488D01*
X71035Y73861D01*
X70946Y73189D01*
X71035Y72517D01*
X71294Y71890D01*
X71707Y71353D01*
X72245Y70940D01*
X72871Y70680D01*
X73543Y70592D01*
X74216Y70680D01*
X74842Y70940D01*
X75380Y71353D01*
X75792Y71890D01*
X76052Y72517D01*
X76140Y73189D01*
X76052Y73861D01*
X75792Y74488D01*
X75380Y75025D01*
X74842Y75438D01*
X74216Y75697D01*
X73543Y75786D01*
D02*
G37*
G36*
X77500Y61625D02*
X76878Y61501D01*
X76351Y61149D01*
X75999Y60622D01*
X75875Y60000D01*
X75999Y59378D01*
X76351Y58851D01*
X76878Y58499D01*
X77500Y58375D01*
X78122Y58499D01*
X78604Y58821D01*
X78651Y58751D01*
X79178Y58399D01*
X79800Y58275D01*
X80422Y58399D01*
X80949Y58751D01*
X81051D01*
X81578Y58399D01*
X82200Y58275D01*
X82822Y58399D01*
X83349Y58751D01*
X83701Y59278D01*
X83825Y59900D01*
X83701Y60522D01*
X83349Y61049D01*
X82822Y61401D01*
X82200Y61525D01*
X81578Y61401D01*
X81396Y61280D01*
X81000Y61075D01*
X80604Y61280D01*
X80422Y61401D01*
X79800Y61525D01*
X79178Y61401D01*
X78696Y61079D01*
X78649Y61149D01*
X78122Y61501D01*
X77500Y61625D01*
D02*
G37*
G36*
X37205Y74933D02*
X36507Y74794D01*
X35916Y74399D01*
X35521Y73808D01*
X35382Y73110D01*
X35521Y72413D01*
X35916Y71822D01*
X36507Y71426D01*
X37205Y71288D01*
X37902Y71426D01*
X38493Y71822D01*
X38888Y72413D01*
X39027Y73110D01*
X38888Y73808D01*
X38493Y74399D01*
X37902Y74794D01*
X37205Y74933D01*
D02*
G37*
G36*
X18583Y83660D02*
X17910Y83571D01*
X17284Y83312D01*
X16746Y82899D01*
X16334Y82362D01*
X16074Y81735D01*
X15986Y81063D01*
X16074Y80391D01*
X16334Y79764D01*
X16746Y79227D01*
X17284Y78814D01*
X17910Y78554D01*
X18583Y78466D01*
X19255Y78554D01*
X19881Y78814D01*
X20419Y79227D01*
X20832Y79764D01*
X21091Y80391D01*
X21180Y81063D01*
X21091Y81735D01*
X20832Y82362D01*
X20419Y82899D01*
X19881Y83312D01*
X19255Y83571D01*
X18583Y83660D01*
D02*
G37*
G36*
X44550Y59649D02*
X43928Y59525D01*
X43401Y59173D01*
X43049Y58646D01*
X42925Y58024D01*
X43049Y57402D01*
X43401Y56875D01*
X43928Y56523D01*
X44550Y56399D01*
X45172Y56523D01*
X45699Y56875D01*
X46051Y57402D01*
X46175Y58024D01*
X46051Y58646D01*
X45699Y59173D01*
X45172Y59525D01*
X44550Y59649D01*
D02*
G37*
G36*
X45000Y55825D02*
X44378Y55701D01*
X43851Y55349D01*
X43499Y54822D01*
X43375Y54200D01*
X43499Y53578D01*
X43851Y53051D01*
X44378Y52699D01*
X45000Y52575D01*
X45622Y52699D01*
X46149Y53051D01*
X46501Y53578D01*
X46625Y54200D01*
X46501Y54822D01*
X46149Y55349D01*
X45622Y55701D01*
X45000Y55825D01*
D02*
G37*
G36*
X39000Y59041D02*
X39000Y59041D01*
X35000D01*
X34617Y58883D01*
X34617Y58883D01*
X33617Y57883D01*
X33459Y57500D01*
X33459Y57500D01*
Y53901D01*
X33453Y53896D01*
X32524Y53711D01*
X31736Y53185D01*
X31210Y52398D01*
X31093Y51810D01*
X30500Y51928D01*
X29907Y51810D01*
X29790Y52398D01*
X29264Y53185D01*
X28476Y53711D01*
X27547Y53896D01*
X26618Y53711D01*
X26527Y53650D01*
X26378Y53730D01*
X26122Y53981D01*
X26225Y54500D01*
X26101Y55122D01*
X25848Y55500D01*
X26101Y55878D01*
X26225Y56500D01*
X26101Y57122D01*
X25749Y57649D01*
X25222Y58001D01*
X24600Y58125D01*
X23978Y58001D01*
X23600Y57749D01*
X23222Y58001D01*
X22600Y58125D01*
X21978Y58001D01*
X21451Y57649D01*
X21099Y57122D01*
X20975Y56500D01*
X21099Y55878D01*
X21351Y55500D01*
X21099Y55122D01*
X20975Y54500D01*
X21099Y53878D01*
X21451Y53351D01*
X21978Y52999D01*
X22600Y52875D01*
X23222Y52999D01*
X23600Y53251D01*
X23978Y52999D01*
X24600Y52875D01*
X25087Y52972D01*
X25396Y52615D01*
X25417Y52567D01*
X25304Y52398D01*
X25120Y51468D01*
X25304Y50539D01*
X25785Y49819D01*
X25833Y49600D01*
Y49400D01*
X25785Y49181D01*
X25304Y48461D01*
X25120Y47532D01*
X25304Y46602D01*
X25831Y45815D01*
X26618Y45289D01*
X27547Y45104D01*
X28476Y45289D01*
X29264Y45815D01*
X29790Y46602D01*
X29907Y47190D01*
X30500Y47072D01*
X31093Y47190D01*
X31210Y46602D01*
X31736Y45815D01*
X32524Y45289D01*
X33453Y45104D01*
X33959Y45204D01*
X34459Y44794D01*
X34459Y36724D01*
X29825Y32090D01*
X29396Y31804D01*
X28935Y31114D01*
X28773Y30300D01*
X28935Y29486D01*
X28959Y29451D01*
Y29155D01*
X28962Y29147D01*
X28959Y29138D01*
X29041Y28957D01*
X29117Y28773D01*
X29126Y28769D01*
X29130Y28761D01*
X29523Y28392D01*
X29542Y28385D01*
X29552Y28367D01*
X29733Y28313D01*
X29910Y28246D01*
X29929Y28254D01*
X29949Y28248D01*
X30327Y28287D01*
X30900Y28173D01*
X31714Y28335D01*
X31900Y28460D01*
X32086Y28335D01*
X32900Y28173D01*
X33714Y28335D01*
X33850Y28426D01*
X33906Y28420D01*
X33933Y28429D01*
X33959Y28418D01*
X34128Y28488D01*
X34302Y28541D01*
X34316Y28565D01*
X34342Y28576D01*
X40383Y34617D01*
X40541Y35000D01*
X40541Y35000D01*
X40541Y46646D01*
X40622Y46999D01*
X41149Y47351D01*
X41501Y47878D01*
X41625Y48500D01*
X41501Y49122D01*
X41149Y49649D01*
X40622Y50001D01*
X40541Y50017D01*
Y57500D01*
X40383Y57883D01*
X40383Y57883D01*
X39383Y58883D01*
X39000Y59041D01*
D02*
G37*
G36*
X62000Y53625D02*
X61378Y53501D01*
X60851Y53149D01*
X60499Y52622D01*
X60375Y52000D01*
X60499Y51378D01*
X60851Y50851D01*
X61378Y50499D01*
X62000Y50375D01*
X62622Y50499D01*
X63149Y50851D01*
X63501Y51378D01*
X63625Y52000D01*
X63501Y52622D01*
X63149Y53149D01*
X62622Y53501D01*
X62000Y53625D01*
D02*
G37*
G36*
X48000Y49625D02*
X47378Y49501D01*
X46851Y49149D01*
X46499Y48622D01*
X46375Y48000D01*
X46499Y47378D01*
X46851Y46851D01*
X47378Y46499D01*
X48000Y46375D01*
X48622Y46499D01*
X49149Y46851D01*
X49501Y47378D01*
X49625Y48000D01*
X49501Y48622D01*
X49149Y49149D01*
X48622Y49501D01*
X48000Y49625D01*
D02*
G37*
G36*
X65980Y46035D02*
X65358Y45911D01*
X64831Y45559D01*
X64479Y45032D01*
X64355Y44410D01*
X64479Y43788D01*
X64831Y43261D01*
X65358Y42909D01*
X65980Y42785D01*
X66602Y42909D01*
X67129Y43261D01*
X67481Y43788D01*
X67605Y44410D01*
X67481Y45032D01*
X67129Y45559D01*
X66602Y45911D01*
X65980Y46035D01*
D02*
G37*
G36*
X19500Y45875D02*
X18878Y45751D01*
X18351Y45399D01*
X17999Y44872D01*
X17875Y44250D01*
X17999Y43628D01*
X18351Y43101D01*
X18878Y42749D01*
X19500Y42625D01*
X20122Y42749D01*
X20649Y43101D01*
X21001Y43628D01*
X21125Y44250D01*
X21001Y44872D01*
X20649Y45399D01*
X20122Y45751D01*
X19500Y45875D01*
D02*
G37*
G36*
X56400Y41525D02*
X55778Y41401D01*
X55251Y41049D01*
X54899Y40522D01*
X54787Y39959D01*
X54646Y39821D01*
X54321Y39621D01*
X53800Y39725D01*
X53178Y39601D01*
X52651Y39249D01*
X52299Y38722D01*
X52175Y38100D01*
X52299Y37478D01*
X52651Y36951D01*
X53178Y36599D01*
X53800Y36475D01*
X54422Y36599D01*
X54949Y36951D01*
X55301Y37478D01*
X55413Y38041D01*
X55554Y38179D01*
X55879Y38379D01*
X56400Y38275D01*
X57022Y38399D01*
X57549Y38751D01*
X57901Y39278D01*
X58025Y39900D01*
X57901Y40522D01*
X57549Y41049D01*
X57022Y41401D01*
X56400Y41525D01*
D02*
G37*
G36*
X69193Y38656D02*
X68571Y38533D01*
X68044Y38181D01*
X67692Y37653D01*
X67568Y37031D01*
X67692Y36410D01*
X68044Y35882D01*
X68571Y35530D01*
X69193Y35407D01*
X69815Y35530D01*
X70342Y35882D01*
X70694Y36410D01*
X70818Y37031D01*
X70694Y37653D01*
X70342Y38181D01*
X69815Y38533D01*
X69193Y38656D01*
D02*
G37*
G36*
X20900Y34525D02*
X20278Y34401D01*
X19751Y34049D01*
X19700Y33973D01*
X19200D01*
X19149Y34049D01*
X18622Y34401D01*
X18000Y34525D01*
X17378Y34401D01*
X16851Y34049D01*
X16499Y33522D01*
X16375Y32900D01*
X16499Y32278D01*
X16851Y31751D01*
X17378Y31399D01*
X18000Y31275D01*
X18622Y31399D01*
X19149Y31751D01*
X19200Y31827D01*
X19700D01*
X19751Y31751D01*
X20278Y31399D01*
X20900Y31275D01*
X21522Y31399D01*
X22049Y31751D01*
X22401Y32278D01*
X22525Y32900D01*
X22401Y33522D01*
X22049Y34049D01*
X21522Y34401D01*
X20900Y34525D01*
D02*
G37*
G36*
X59000Y34625D02*
X58378Y34501D01*
X57851Y34149D01*
X57499Y33622D01*
X57375Y33000D01*
X57499Y32378D01*
X57851Y31851D01*
X58378Y31499D01*
X59000Y31375D01*
X59622Y31499D01*
X60149Y31851D01*
X60501Y32378D01*
X60625Y33000D01*
X60501Y33622D01*
X60149Y34149D01*
X59622Y34501D01*
X59000Y34625D01*
D02*
G37*
G36*
X26900Y34525D02*
X26278Y34401D01*
X25751Y34049D01*
X25399Y33522D01*
X25275Y32900D01*
X25399Y32278D01*
X25751Y31751D01*
X26278Y31399D01*
X26900Y31275D01*
X27522Y31399D01*
X28049Y31751D01*
X28401Y32278D01*
X28525Y32900D01*
X28401Y33522D01*
X28049Y34049D01*
X27522Y34401D01*
X26900Y34525D01*
D02*
G37*
G36*
X47600Y29625D02*
X46978Y29501D01*
X46451Y29149D01*
X45939Y29282D01*
X45737Y29417D01*
X45116Y29541D01*
X44494Y29417D01*
X43967Y29065D01*
X43614Y28537D01*
X43521Y28070D01*
X43012D01*
X43001Y28122D01*
X42649Y28649D01*
X42122Y29001D01*
X41500Y29125D01*
X40878Y29001D01*
X40351Y28649D01*
X39999Y28122D01*
X39875Y27500D01*
X39999Y26878D01*
X40351Y26351D01*
X40878Y25999D01*
X41500Y25875D01*
X42122Y25999D01*
X42649Y26351D01*
X43001Y26878D01*
X43094Y27346D01*
X43604D01*
X43614Y27294D01*
X43967Y26767D01*
X44494Y26414D01*
X45116Y26291D01*
X45737Y26414D01*
X46017Y26601D01*
X46451Y26851D01*
X46978Y26499D01*
X47600Y26375D01*
X48222Y26499D01*
X48749Y26851D01*
X49101Y27378D01*
X49225Y28000D01*
X49101Y28622D01*
X48749Y29149D01*
X48222Y29501D01*
X47600Y29625D01*
D02*
G37*
G36*
X55500Y27725D02*
X54878Y27601D01*
X54351Y27249D01*
X53999Y26722D01*
X53875Y26100D01*
X53999Y25478D01*
X54351Y24951D01*
X54878Y24599D01*
X55500Y24475D01*
X56122Y24599D01*
X56649Y24951D01*
X57001Y25478D01*
X57125Y26100D01*
X57001Y26722D01*
X56649Y27249D01*
X56122Y27601D01*
X55500Y27725D01*
D02*
G37*
G36*
X50500Y27125D02*
X49878Y27001D01*
X49351Y26649D01*
X48999Y26122D01*
X48875Y25500D01*
X48999Y24878D01*
X49351Y24351D01*
X49878Y23999D01*
X50500Y23875D01*
X51122Y23999D01*
X51649Y24351D01*
X52001Y24878D01*
X52125Y25500D01*
X52001Y26122D01*
X51649Y26649D01*
X51122Y27001D01*
X50500Y27125D01*
D02*
G37*
G36*
X63400Y23425D02*
X62778Y23301D01*
X62251Y22949D01*
X61899Y22422D01*
X61775Y21800D01*
X61899Y21178D01*
X62251Y20651D01*
X62778Y20299D01*
X63400Y20175D01*
X64022Y20299D01*
X64549Y20651D01*
X64901Y21178D01*
X65025Y21800D01*
X64901Y22422D01*
X64549Y22949D01*
X64022Y23301D01*
X63400Y23425D01*
D02*
G37*
G36*
X52500Y22625D02*
X51878Y22501D01*
X51351Y22149D01*
X50999Y21622D01*
X50875Y21000D01*
X50999Y20378D01*
X51351Y19851D01*
X51878Y19499D01*
X52500Y19375D01*
X53122Y19499D01*
X53649Y19851D01*
X54001Y20378D01*
X54125Y21000D01*
X54001Y21622D01*
X53649Y22149D01*
X53122Y22501D01*
X52500Y22625D01*
D02*
G37*
%LPD*%
G36*
X40000Y57500D02*
Y50000D01*
X39300Y50000D01*
X38500Y49200D01*
Y47800D01*
X39300Y47000D01*
X39646D01*
X40000Y46646D01*
X40000Y35000D01*
X33959Y28959D01*
X33504Y29004D01*
X32814Y29465D01*
X32000Y29627D01*
X31186Y29465D01*
X30496Y29004D01*
X30385Y28837D01*
X29893Y28787D01*
X29500Y29155D01*
Y31000D01*
X35000Y36500D01*
X35000Y45702D01*
X35169Y45815D01*
X35696Y46602D01*
X35881Y47532D01*
X35696Y48461D01*
X35169Y49248D01*
Y49652D01*
X35197Y49793D01*
X35696Y50539D01*
X35881Y51468D01*
X35696Y52398D01*
X35169Y53185D01*
X34382Y53711D01*
X34000Y53787D01*
Y57500D01*
X35000Y58500D01*
X39000D01*
X40000Y57500D01*
D02*
G37*
%LPC*%
G36*
X19500Y20625D02*
X18878Y20501D01*
X18351Y20149D01*
X17999Y19622D01*
X17875Y19000D01*
X17999Y18378D01*
X18251Y18000D01*
X17999Y17622D01*
X17875Y17000D01*
X17999Y16378D01*
X18351Y15851D01*
X18878Y15499D01*
X19500Y15375D01*
X20122Y15499D01*
X20649Y15851D01*
X21001Y16378D01*
X21125Y17000D01*
X21001Y17622D01*
X20749Y18000D01*
X21001Y18378D01*
X21125Y19000D01*
X21001Y19622D01*
X20649Y20149D01*
X20122Y20501D01*
X19500Y20625D01*
D02*
G37*
G36*
X32000Y16125D02*
X31378Y16001D01*
X30851Y15649D01*
X30499Y15122D01*
X30375Y14500D01*
X30499Y13878D01*
X30851Y13351D01*
X31378Y12999D01*
X32000Y12875D01*
X32622Y12999D01*
X33149Y13351D01*
X33501Y13878D01*
X33625Y14500D01*
X33501Y15122D01*
X33149Y15649D01*
X32622Y16001D01*
X32000Y16125D01*
D02*
G37*
G36*
X46142Y15467D02*
X45520Y15344D01*
X44993Y14991D01*
X44640Y14464D01*
X44517Y13842D01*
X44640Y13221D01*
X44993Y12694D01*
X45520Y12341D01*
X46142Y12218D01*
X46764Y12341D01*
X47291Y12694D01*
X47643Y13221D01*
X47767Y13842D01*
X47643Y14464D01*
X47291Y14991D01*
X46764Y15344D01*
X46142Y15467D01*
D02*
G37*
%LPD*%
D11*
X58688Y45764D02*
X64700Y39753D01*
Y29800D02*
Y39753D01*
X63400Y28500D02*
X64700Y29800D01*
X57850Y48050D02*
X65736Y40164D01*
X53064Y48100D02*
Y49564D01*
X74500Y63074D02*
X75816Y64390D01*
X74500Y56006D02*
Y63074D01*
Y56006D02*
X79086Y51420D01*
X73480Y55612D02*
Y65358D01*
Y55612D02*
X78086Y51006D01*
Y44098D02*
Y51006D01*
Y44098D02*
X78500Y43684D01*
X75816Y64390D02*
Y66325D01*
X56536Y45764D02*
X58688D01*
X55564Y46736D02*
X56536Y45764D01*
X55564Y46736D02*
Y48036D01*
X56300Y50300D02*
Y58688D01*
X55464Y49464D02*
X56300Y50300D01*
X55464Y48128D02*
Y49464D01*
X54736Y51236D02*
Y58068D01*
X53064Y49564D02*
X54736Y51236D01*
X42100Y62500D02*
X50303D01*
X31411Y73189D02*
X42100Y62500D01*
X26457Y73189D02*
X31411D01*
X48500Y63500D02*
X52799D01*
X47100Y64900D02*
X48500Y63500D01*
X44200Y64900D02*
X47100D01*
X50303Y62500D02*
X54736Y58068D01*
X52799Y63500D02*
X55413Y66114D01*
X55389Y59599D02*
Y62786D01*
Y59599D02*
X56300Y58688D01*
X65736Y27533D02*
Y40164D01*
X64303Y26100D02*
X65736Y27533D01*
X64200Y26100D02*
X64303D01*
X55500Y48100D02*
X55564Y48036D01*
X57812Y48687D02*
Y60479D01*
X57724Y60567D02*
X57812Y60479D01*
X55389Y62786D02*
X55717Y63114D01*
X55436Y48100D02*
X55464Y48128D01*
X67836Y68261D02*
X69232Y66864D01*
X67836Y68261D02*
Y70968D01*
X64533Y72336D02*
X66467D01*
X67836Y70968D01*
X69232Y66864D02*
X71167D01*
X71997Y67693D01*
X74448D01*
X75816Y66325D01*
X55413Y66114D02*
X60633D01*
X62583Y70386D02*
X64533Y72336D01*
X62583Y68063D02*
Y70386D01*
X60633Y66114D02*
X62583Y68063D01*
X79086Y44512D02*
Y51420D01*
Y44512D02*
X82726Y40872D01*
X78500Y41000D02*
Y43684D01*
D55*
X65500Y66157D02*
X70586Y61071D01*
X65500Y66157D02*
Y70000D01*
X70586Y53086D02*
Y61071D01*
X68000Y50500D02*
X70586Y53086D01*
D65*
X21000Y24500D02*
D03*
X23000D02*
D03*
X32900Y30300D02*
D03*
X30900D02*
D03*
X64200Y26100D02*
D03*
X53100Y48100D02*
D03*
X57900D02*
D03*
X55500D02*
D03*
X70200Y69200D02*
D03*
X73480Y65358D02*
D03*
X55717Y63114D02*
D03*
X52400Y57100D02*
D03*
X78649Y28900D02*
D03*
X71200Y21363D02*
D03*
X44200Y64900D02*
D03*
X75750Y49800D02*
D03*
X65500Y70000D02*
D03*
X82726Y40872D02*
D03*
X63400Y28500D02*
D03*
X32000Y27500D02*
D03*
X68000Y50500D02*
D03*
X31500Y81000D02*
D03*
X33500D02*
D03*
X77000Y14000D02*
D03*
Y12000D02*
D03*
X75500Y35500D02*
D03*
X78500Y41000D02*
D03*
X77197Y20500D02*
D03*
X38000Y56500D02*
D03*
Y54500D02*
D03*
X36000D02*
D03*
Y56500D02*
D03*
X57724Y60567D02*
D03*
D66*
X27547Y47532D02*
D03*
Y51468D02*
D03*
X33453D02*
D03*
Y47532D02*
D03*
X30500Y49500D02*
D03*
D67*
X18583Y81063D02*
D03*
X81417D02*
D03*
X73543D02*
D03*
Y73189D02*
D03*
X81417D02*
D03*
D68*
X26457Y81063D02*
D03*
Y73189D02*
D03*
X18583D02*
D03*
D69*
X48228Y78622D02*
D03*
X40945D02*
D03*
X37205D02*
D03*
Y73110D02*
D03*
X40945D02*
D03*
X44685D02*
D03*
X48228D02*
D03*
X62795D02*
D03*
X59055D02*
D03*
X51772D02*
D03*
X62795Y78622D02*
D03*
X59055D02*
D03*
X55315D02*
D03*
X51772D02*
D03*
D70*
X20900Y32900D02*
D03*
X19500Y19000D02*
D03*
Y17000D02*
D03*
X18000Y32900D02*
D03*
X24500Y29500D02*
D03*
Y27700D02*
D03*
X22600Y54500D02*
D03*
X26900Y32900D02*
D03*
X50000Y66300D02*
D03*
X63400Y21800D02*
D03*
X77500Y60000D02*
D03*
X79800Y59900D02*
D03*
X82200D02*
D03*
X50000Y68800D02*
D03*
X47728Y69591D02*
D03*
X44550Y58024D02*
D03*
X45116Y27916D02*
D03*
X45000Y54200D02*
D03*
X51000Y50500D02*
D03*
X40000Y48500D02*
D03*
X62000Y52000D02*
D03*
X71500Y26400D02*
D03*
X47600Y28000D02*
D03*
X56400Y39900D02*
D03*
X53800Y38100D02*
D03*
X32900Y75100D02*
D03*
X31100D02*
D03*
X48000Y48000D02*
D03*
X74734Y41500D02*
D03*
X71100Y29400D02*
D03*
X68600Y30300D02*
D03*
X55500Y26100D02*
D03*
X59000Y33000D02*
D03*
X70500Y18200D02*
D03*
X52500Y21000D02*
D03*
X19500Y44250D02*
D03*
X41500Y27500D02*
D03*
X50500Y25500D02*
D03*
X68000Y58000D02*
D03*
X32000Y14500D02*
D03*
X31999Y18937D02*
D03*
X46142Y13842D02*
D03*
X81500Y46350D02*
D03*
X69193Y37031D02*
D03*
X68000Y60000D02*
D03*
X22600Y56500D02*
D03*
X24600D02*
D03*
Y54500D02*
D03*
X65980Y44410D02*
D03*
M02*
