M48
;Layer_Color=9474304
;FILE_FORMAT=2:5
INCH,LZ
;TYPE=PLATED
T1F00S00C0.01181
T2F00S00C0.02362
T4F00S00C0.02559
T5F00S00C0.04000
T6F00S00C0.12205
%
T01
X-015Y-0175
X-0125
Y-015
X-015
X-01
Y-0125
X-0075
X-0067Y-01155
X-0085Y-01
X-0095
X-0086918Y-0084035
X-0083081Y-0080919
X-0079385Y-00775
X-0071Y-0077
X-00985Y-0069
Y-0063
X-0114Y-0065
X-0118Y-0061
X-0129567Y-0060331
X-01505Y-00655
X-0162Y-00715
Y-0076
X-016Y-0083
X-01545Y-00995
X-0151
X-0135Y-00865
X-01325Y-00835
X-011Y-0069
X-01Y-0175
X-0065Y-017
X-0075Y-015
X-005
X-0029789Y-0145561
X-004Y-017
X-0014Y-0182
X-0001
X00125Y-01825
X0026Y-0183
X005Y-0175
X0075
X0063Y-016
X0055Y-015
Y-0135
X0045
X007Y-0132
X0075
X0093
X00955Y-0153
X009Y-0162
X0075Y-0095
X0076Y-00605
X00395Y-0091
X0015Y-01
X0014Y-0126
X001Y-0156
X-004Y-0109607
Y-0105607
X-005Y-0105
X-0053Y-0122
X-0055Y-009
X0105Y-0095
X0115Y-0085
X0105Y-007
Y-0125
X0115
X0125
Y-0145
X0115
X0105
Y-0163
X0115
X0123
X01Y-0175
X0098Y-0132
X01Y-0033
X01125Y-00285
X0123Y0
X0125Y0018
Y0075
X0115Y0076
X0107Y0069
Y0058
X01085Y00935
X0085Y0085
X00775Y009
X0088Y0072
Y0067
X0065Y006
Y0045
Y003
X0075Y0038
X0035Y003
X0024Y00065
Y0002
X002Y001
X00025Y-00075
Y-00125
X-00025
Y-00075
X-002Y001
Y-003
X-0019Y-004
X-0016Y-0038
X-0023Y-0041
X-004Y-0035
X-0045Y-0025
Y-0015
X-004Y00335
X-00385Y00615
X-00065Y009
Y0095
X003Y0085
X0024Y-00225
Y-0027
X0015Y-003
X00695Y-00485
X0073
X00805Y-0056
X00915Y-00175
X-00815Y-00315
X-0084Y-0036
X-00985Y-0041
X-0103Y-00445
X-0111
X-0119
X-0127
X-0132Y-005
Y-0056
X-01555Y-00565
X-0153Y-0035
X-0154Y-00205
X-0144Y-0019
X-0137Y-0026
X-01185Y-00305
X-0114Y-0026
Y-0022
X-01205Y-0016
X-01235Y0003
X-01225Y00135
X-01255
Y00165
X-01225
X-0133Y0013
X-0109Y0011
X-0085Y0007
X-0107Y-0028
X-0106358Y-0034142
X-00985Y-005
Y-0056
X-0075Y-0047
X-0074Y007
X-009
X-0137Y0070549
X-0155Y009
X-0159Y0095
X-0166Y0057
X-0186Y00625
X-01915Y0052
X-01865Y00405
X-01825Y00215
X-01875Y0015
X-01825Y0008
X-01795Y-00085
X-01725Y-00155
X-0185Y-002
X-0162Y00055
X-016Y0013
X-0162Y0021
X-011Y004
X-0105Y0125
X-012
Y014
X-0102Y01445
X-0107Y01495
X-0107953Y0163031
Y0166969
X-0105Y0165
X-0102047Y0163031
Y0166969
X-0079Y0172
Y01495
X-007Y015
Y013
X-015Y014
X-014Y015
X-013Y016
X-01255Y0172
X-0185Y0165
X-019Y0155
X-016Y0115
X-0055Y011
X-00405Y0115
X00095Y0108
X0025219Y0100719
X0061Y0127
X008Y0128
X0087
X0094Y0123
X0093Y0099
X0077Y0138
X0075Y0175
X005
X0025
X0
X005Y015
X0096Y0126
Y0116
X0101
X0107Y0117
X012Y0116
X0115Y0105
X0112Y0126
X0127Y013
X0125Y015
T02
X-0189174Y-0189173
X-0191733Y-0183071
X-0189174Y-0176969
X-0183071Y-0174409
X-0176969Y-0176969
X-017441Y-0183071
X-0176969Y-0189173
X-0183071Y-0191732
X0117913Y-0189173
X0115354Y-0183071
X0117913Y-0176969
X0124016Y-0174409
X0130118Y-0176969
X0132677Y-0183071
X0130118Y-0189173
X0124016Y-0191732
X-0176969Y0176969
X-0183071Y0174409
X-0189174Y0176969
X-0191733Y0183071
X-0189174Y0189173
X-0183071Y0191732
X-0176969Y0189173
X-017441Y0183071
X0115354
X0117913Y0176969
X0124016Y0174409
X0130118Y0176969
X0132677Y0183071
X0130118Y0189173
X0124016Y0191732
X0117913Y0189173
T04
X-0173063Y-0093362
Y-0070606
Y0003638
Y0026394
T05
X-018Y-016
X-017
X-016
X-015
Y-014
X-016
X-017
X-018
Y-012
X-017
X-016
X-015
X-0125Y-0125
X-0142Y-0089
Y-0063
X-003Y-0065
Y-0075
Y-0085
X-002
Y-0075
Y-0065
X-001
Y-0075
Y-0085
X0
Y-0075
Y-0065
X001
X002
Y-0075
Y-0085
X003
Y-0075
Y-0065
X0055
Y-0075
Y-0085
X0055Y-012
X0065
X0075
X0085
X0085Y-01
X0095
Y-0065
X0085
X001Y-0075
Y-0085
Y-012
X002
Y-013
Y-014
X003
Y-015
X0045
Y-016
Y-017
X0035
X002
Y-016
X0Y-017
X-001
X-002
Y-016
Y-015
Y-013
Y-012
X0
X0045
X0055Y-016
X-001
X-003Y-0095
X-004
X012Y-01
X013
Y-013
Y-014
Y-015
Y-016
Y-0065
X012
X0115Y-005
X0105
Y-004
X013Y-0035
Y-0025
Y-001
Y0
X0115
Y-001
X0105
Y0
Y0015
X0115
X011Y0035
Y0045
X012
X013
X01Y003
Y006
X013Y0094968
X0065Y0095
Y0085
Y0075
X009Y006
Y003
X0095Y0015
Y0
Y-001
X0075
Y-002
Y-003
Y-004
X0065
X0055
Y-003
X0065
Y-002
X0055
Y-001
X0065
Y0
X0055
Y001
Y002
X0065
X0075
Y001
Y0
X0065Y001
X003Y0045
Y0055
Y0065
X002
Y0055
Y0045
X001
X0
X-001
X-002
Y0055
Y0065
X-003
Y0055
Y0045
X-001Y0055
Y0065
X0
Y0055
X001
Y0065
Y009
X0
X-0055Y0085
Y0075
Y005
Y004
Y002
Y001
Y0
Y-001
Y-002
Y-003
Y-004
X0055Y-0055
X0095Y-005
Y-004
X-0065
Y-003
Y-002
Y-001
Y0
X-0075
Y-001
Y-002
Y-003
Y-004
Y001
X-0065
Y002
X-0075
X-0095Y0035
Y0045
Y0075
Y0085
Y0095
X-0115Y0085
X-0125
X-015
X-016
X-017
X-018
X-019
X-018Y0095
X-0142Y0028
Y0002
X-0145Y-003
Y-004
X-01Y-001
Y0
X-0065Y0075
Y0085
X-0075Y011
X-0085
X-0095
X-012
X-013
X-014
X-016Y013
Y014
Y016
Y017
Y018
X-018Y0105
X-019
X-0055Y013
Y014
Y016
Y017
Y018
X-0035
Y019
X-002Y017
Y016
X0Y015
Y014
X0015Y014
Y015
Y016
Y013
Y012
X0065Y011
X0075
X0085
X0095
Y0159
Y0169
Y0179
X0085
Y0159
X0105
Y0169
Y0135
Y0125
Y011
X013Y0104969
T06
X-0183071Y-0183071
X0124016
X-0183071Y0183071
X0124016
M30
