G04*
G04 #@! TF.GenerationSoftware,Altium Limited,Altium Designer,19.1.5 (86)*
G04*
G04 Layer_Color=16711935*
%FSLAX25Y25*%
%MOIN*%
G70*
G01*
G75*
%ADD17C,0.00800*%
%ADD71C,0.02000*%
%ADD122C,0.07800*%
%ADD123C,0.23235*%
%ADD124C,0.04762*%
%ADD125C,0.02959*%
%ADD126O,0.06699X0.04337*%
%ADD127O,0.08668X0.04337*%
D17*
X107600Y-179600D02*
X110100Y-192600D01*
X105500Y-188200D02*
X109000Y-191800D01*
X105000Y-191500D02*
X109000Y-191800D01*
X105300Y-187600D02*
X108600Y-187900D01*
X105000Y-191500D02*
X108600Y-187900D01*
X105300Y-187600D02*
X107600Y-179600D01*
X103600Y-192600D02*
X105500Y-188200D01*
D71*
X-196850Y-183071D02*
G03*
X-183071Y-196850I13780J0D01*
G01*
X137795Y183071D02*
G03*
X124016Y196850I-13780J0D01*
G01*
X124016Y-196850D02*
G03*
X137795Y-183071I0J13780D01*
G01*
X-183071Y196850D02*
G03*
X-196850Y183071I0J-13780D01*
G01*
X-183071Y196850D02*
X124016D01*
X-183071Y-196850D02*
X124016Y-196850D01*
X137795Y-183071D02*
Y183071D01*
X-196850Y-183071D02*
X-196850Y183071D01*
D122*
X55000Y-85000D02*
D03*
Y-75000D02*
D03*
Y-65000D02*
D03*
Y-55000D02*
D03*
X-55000Y130000D02*
D03*
Y140000D02*
D03*
X-160000Y130000D02*
D03*
Y140000D02*
D03*
X-20000Y160000D02*
D03*
Y170000D02*
D03*
X-55000Y180000D02*
D03*
Y170000D02*
D03*
Y160000D02*
D03*
X-20000Y45000D02*
D03*
Y55000D02*
D03*
Y65000D02*
D03*
X55000Y20000D02*
D03*
X65000D02*
D03*
X75000D02*
D03*
X0Y-170000D02*
D03*
X-10000D02*
D03*
X-20000D02*
D03*
X15000Y140000D02*
D03*
Y150000D02*
D03*
Y160000D02*
D03*
X-55000Y85000D02*
D03*
X-65000D02*
D03*
X130000Y-160000D02*
D03*
Y-150000D02*
D03*
Y-140000D02*
D03*
Y-130000D02*
D03*
X20000Y-140000D02*
D03*
Y-130000D02*
D03*
Y-120000D02*
D03*
X-95000Y75000D02*
D03*
Y85000D02*
D03*
Y95000D02*
D03*
X45000Y-150000D02*
D03*
Y-160000D02*
D03*
X85000Y-120000D02*
D03*
X75000D02*
D03*
X65000D02*
D03*
X55000D02*
D03*
X115000Y15000D02*
D03*
X105000D02*
D03*
X95000D02*
D03*
X-145000Y-30000D02*
D03*
Y-40000D02*
D03*
X-170000Y85000D02*
D03*
X-180000D02*
D03*
X-190000D02*
D03*
X-150000D02*
D03*
X-160000D02*
D03*
X35000Y-170000D02*
D03*
X45000D02*
D03*
X-125000Y-125000D02*
D03*
X20000Y-160000D02*
D03*
Y-170000D02*
D03*
X-180000Y-160000D02*
D03*
X-170000D02*
D03*
X-160000D02*
D03*
X-150000D02*
D03*
X-20000Y-150000D02*
D03*
Y-160000D02*
D03*
X130000Y-10000D02*
D03*
Y0D02*
D03*
X-95000Y110000D02*
D03*
X-85000D02*
D03*
X-75000D02*
D03*
X-160000Y160000D02*
D03*
Y170000D02*
D03*
Y180000D02*
D03*
X-140000Y110000D02*
D03*
X-130000D02*
D03*
X-120000D02*
D03*
X20000Y-85000D02*
D03*
Y-75000D02*
D03*
Y-65000D02*
D03*
X30000Y-85000D02*
D03*
Y-75000D02*
D03*
Y-65000D02*
D03*
X-30000Y45000D02*
D03*
Y55000D02*
D03*
Y65000D02*
D03*
X-10000D02*
D03*
Y55000D02*
D03*
Y45000D02*
D03*
X-55000Y0D02*
D03*
X-65000D02*
D03*
X-75000D02*
D03*
X-55000Y-10000D02*
D03*
X-65000D02*
D03*
X-75000D02*
D03*
X-55000Y-20000D02*
D03*
X-65000D02*
D03*
X-75000D02*
D03*
X-55000Y-30000D02*
D03*
X-65000D02*
D03*
X-75000D02*
D03*
Y10000D02*
D03*
X-65000D02*
D03*
X-55000D02*
D03*
Y-40000D02*
D03*
X-65000D02*
D03*
X-75000D02*
D03*
Y20000D02*
D03*
X-65000D02*
D03*
X-55000D02*
D03*
X-30000Y-65000D02*
D03*
Y-75000D02*
D03*
Y-85000D02*
D03*
X-20000Y-65000D02*
D03*
Y-75000D02*
D03*
Y-85000D02*
D03*
X-10000Y-65000D02*
D03*
Y-75000D02*
D03*
Y-85000D02*
D03*
X0Y-65000D02*
D03*
Y-75000D02*
D03*
Y-85000D02*
D03*
X30000Y65000D02*
D03*
Y55000D02*
D03*
Y45000D02*
D03*
X10000Y-65000D02*
D03*
Y-75000D02*
D03*
Y-85000D02*
D03*
X20000Y65000D02*
D03*
Y55000D02*
D03*
Y45000D02*
D03*
X55000Y-40000D02*
D03*
X65000D02*
D03*
X75000D02*
D03*
X55000Y-30000D02*
D03*
X65000D02*
D03*
X75000D02*
D03*
X55000Y-20000D02*
D03*
X65000D02*
D03*
X75000D02*
D03*
X55000Y-10000D02*
D03*
X65000D02*
D03*
X75000D02*
D03*
X55000Y0D02*
D03*
X65000D02*
D03*
X75000D02*
D03*
X55000Y10000D02*
D03*
X65000D02*
D03*
X75000D02*
D03*
X0Y65000D02*
D03*
Y55000D02*
D03*
Y45000D02*
D03*
X105000Y110000D02*
D03*
X95000D02*
D03*
X85000D02*
D03*
X0Y140000D02*
D03*
Y150000D02*
D03*
Y90000D02*
D03*
X10000D02*
D03*
Y45000D02*
D03*
Y55000D02*
D03*
Y65000D02*
D03*
X-125000Y85000D02*
D03*
X-115000D02*
D03*
X65000Y75000D02*
D03*
Y85000D02*
D03*
X-95000Y45000D02*
D03*
Y35000D02*
D03*
X-55000Y40000D02*
D03*
Y50000D02*
D03*
X130000Y104969D02*
D03*
Y94968D02*
D03*
X-20000Y-120000D02*
D03*
Y-130000D02*
D03*
X10000Y-120000D02*
D03*
X0D02*
D03*
X-30000Y-95000D02*
D03*
X-40000D02*
D03*
X100000Y30000D02*
D03*
X90000D02*
D03*
X110000Y45000D02*
D03*
Y35000D02*
D03*
X105000Y135000D02*
D03*
Y125000D02*
D03*
X65000Y110000D02*
D03*
X75000D02*
D03*
X115000Y-50000D02*
D03*
X105000D02*
D03*
X95000D02*
D03*
Y-40000D02*
D03*
X105000D02*
D03*
X15000Y120000D02*
D03*
Y130000D02*
D03*
X130000Y-35000D02*
D03*
Y-25000D02*
D03*
X115000Y0D02*
D03*
Y-10000D02*
D03*
X85000Y179000D02*
D03*
X95000D02*
D03*
Y169000D02*
D03*
Y159000D02*
D03*
X105000Y169000D02*
D03*
Y159000D02*
D03*
X-65000Y75000D02*
D03*
X-55000D02*
D03*
X85000Y159000D02*
D03*
X45000Y-120000D02*
D03*
X55000Y-160000D02*
D03*
X120000Y45000D02*
D03*
X130000D02*
D03*
X100000Y60000D02*
D03*
X90000D02*
D03*
X-142000Y-63000D02*
D03*
Y-89000D02*
D03*
Y28000D02*
D03*
Y2000D02*
D03*
X95000Y-100000D02*
D03*
X85000D02*
D03*
X120000D02*
D03*
X130000D02*
D03*
Y-65000D02*
D03*
X120000D02*
D03*
X85000D02*
D03*
X95000D02*
D03*
X105000Y0D02*
D03*
Y-10000D02*
D03*
X95000Y0D02*
D03*
Y-10000D02*
D03*
X-100000D02*
D03*
Y0D02*
D03*
X-10000Y-160000D02*
D03*
X65000Y95000D02*
D03*
X-180000Y105000D02*
D03*
Y95000D02*
D03*
X-190000Y105000D02*
D03*
X-180000Y-140000D02*
D03*
X-170000D02*
D03*
X-160000D02*
D03*
X-150000D02*
D03*
X-180000Y-120000D02*
D03*
X-170000D02*
D03*
X-160000D02*
D03*
X-150000D02*
D03*
X-35000Y180000D02*
D03*
Y190000D02*
D03*
X30000Y-150000D02*
D03*
Y-140000D02*
D03*
D123*
X124016Y183071D02*
D03*
X-183071Y-183071D02*
D03*
X124016D02*
D03*
X-183071Y183071D02*
D03*
D124*
X115354D02*
D03*
X132677D02*
D03*
X124016Y174409D02*
D03*
Y191732D02*
D03*
X117913Y189173D02*
D03*
X130118D02*
D03*
X117913Y176969D02*
D03*
X130118D02*
D03*
X-191733Y-183071D02*
D03*
X-174410D02*
D03*
X-183071Y-191732D02*
D03*
Y-174409D02*
D03*
X-189174Y-176969D02*
D03*
X-176969D02*
D03*
X-189174Y-189173D02*
D03*
X-176969D02*
D03*
X115354Y-183071D02*
D03*
X132677D02*
D03*
X124016Y-191732D02*
D03*
Y-174409D02*
D03*
X117913Y-176969D02*
D03*
X130118D02*
D03*
X117913Y-189173D02*
D03*
X130118D02*
D03*
X-191733Y183071D02*
D03*
X-174410D02*
D03*
X-183071Y174409D02*
D03*
Y191732D02*
D03*
X-189174Y189173D02*
D03*
X-176969D02*
D03*
X-189174Y176969D02*
D03*
X-176969D02*
D03*
D125*
X-173063Y-70606D02*
D03*
Y-93362D02*
D03*
Y26394D02*
D03*
Y3638D02*
D03*
D126*
X-186843Y-64957D02*
D03*
Y-99012D02*
D03*
Y32043D02*
D03*
Y-2012D02*
D03*
D127*
X-171095Y-99012D02*
D03*
Y-64957D02*
D03*
Y-2012D02*
D03*
Y32043D02*
D03*
M02*
