G04*
G04 #@! TF.GenerationSoftware,Altium Limited,Altium Designer,19.1.5 (86)*
G04*
G04 Layer_Physical_Order=2*
G04 Layer_Color=16711680*
%FSLAX25Y25*%
%MOIN*%
G70*
G01*
G75*
%ADD15C,0.01000*%
%ADD16C,0.00600*%
%ADD17C,0.00800*%
%ADD71C,0.02000*%
%ADD130C,0.04000*%
%ADD132C,0.01200*%
%ADD134C,0.07400*%
%ADD135C,0.22835*%
%ADD136C,0.04362*%
%ADD137C,0.02559*%
%ADD138O,0.06299X0.03937*%
%ADD139O,0.08268X0.03937*%
%ADD140C,0.02362*%
%ADD141C,0.01968*%
G36*
X119750Y194311D02*
X118543Y193812D01*
X116930Y192823D01*
X115492Y191595D01*
X114263Y190156D01*
X113275Y188543D01*
X112551Y186796D01*
X112110Y184957D01*
X111961Y183071D01*
X112110Y181185D01*
X112551Y179346D01*
X113275Y177598D01*
X114263Y175985D01*
X115492Y174547D01*
X116930Y173319D01*
X118543Y172330D01*
X120291Y171606D01*
X122130Y171165D01*
X124016Y171016D01*
X125901Y171165D01*
X127741Y171606D01*
X129488Y172330D01*
X131101Y173319D01*
X132540Y174547D01*
X133768Y175985D01*
X134756Y177598D01*
X135256Y178805D01*
X135756Y178705D01*
Y-178705D01*
X135256Y-178805D01*
X134756Y-177598D01*
X133768Y-175985D01*
X132540Y-174547D01*
X131101Y-173319D01*
X129488Y-172330D01*
X127741Y-171606D01*
X125901Y-171165D01*
X124016Y-171016D01*
X122130Y-171165D01*
X120291Y-171606D01*
X118543Y-172330D01*
X116930Y-173319D01*
X115492Y-174547D01*
X114263Y-175985D01*
X113275Y-177598D01*
X112551Y-179346D01*
X112110Y-181185D01*
X111961Y-183071D01*
X112110Y-184957D01*
X112551Y-186796D01*
X113275Y-188543D01*
X114263Y-190156D01*
X115492Y-191595D01*
X116930Y-192823D01*
X118543Y-193812D01*
X119750Y-194311D01*
X119650Y-194811D01*
X-178705D01*
X-178805Y-194311D01*
X-177598Y-193812D01*
X-175985Y-192823D01*
X-174547Y-191595D01*
X-173319Y-190156D01*
X-172330Y-188543D01*
X-171606Y-186796D01*
X-171165Y-184957D01*
X-171016Y-183071D01*
X-171165Y-181185D01*
X-171606Y-179346D01*
X-172330Y-177598D01*
X-173319Y-175985D01*
X-174547Y-174547D01*
X-175985Y-173319D01*
X-177598Y-172330D01*
X-179346Y-171606D01*
X-181185Y-171165D01*
X-183071Y-171016D01*
X-184957Y-171165D01*
X-186796Y-171606D01*
X-188543Y-172330D01*
X-190156Y-173319D01*
X-191595Y-174547D01*
X-192823Y-175985D01*
X-193812Y-177598D01*
X-194311Y-178805D01*
X-194811Y-178705D01*
X-194811Y104771D01*
X-194311Y104804D01*
X-194299Y104712D01*
X-194189Y103877D01*
X-193756Y102831D01*
X-193067Y101933D01*
X-192169Y101244D01*
X-191122Y100811D01*
X-190000Y100663D01*
X-188877Y100811D01*
X-187831Y101244D01*
X-186933Y101933D01*
X-186244Y102831D01*
X-185811Y103877D01*
X-185663Y105000D01*
X-185811Y106123D01*
X-186244Y107169D01*
X-186933Y108067D01*
X-187831Y108756D01*
X-188877Y109189D01*
X-190000Y109337D01*
X-191122Y109189D01*
X-192169Y108756D01*
X-193067Y108067D01*
X-193756Y107169D01*
X-194189Y106123D01*
X-194299Y105288D01*
X-194311Y105196D01*
X-194811Y105229D01*
Y178705D01*
X-194311Y178805D01*
X-193812Y177598D01*
X-192823Y175985D01*
X-191595Y174547D01*
X-190156Y173319D01*
X-188543Y172330D01*
X-186796Y171606D01*
X-184957Y171165D01*
X-183071Y171016D01*
X-181185Y171165D01*
X-179346Y171606D01*
X-177598Y172330D01*
X-175985Y173319D01*
X-174547Y174547D01*
X-173582Y175677D01*
X-173509Y175665D01*
X-173113Y175093D01*
X-173131Y175000D01*
Y102500D01*
X-173007Y101876D01*
X-172653Y101347D01*
X-169653Y98347D01*
X-169124Y97993D01*
X-168500Y97869D01*
X-153676D01*
X-138631Y82824D01*
Y70549D01*
X-138507Y69925D01*
X-138154Y69396D01*
X-137624Y69042D01*
X-137000Y68918D01*
X-136376Y69042D01*
X-135846Y69396D01*
X-135493Y69925D01*
X-135369Y70549D01*
Y83500D01*
X-135493Y84124D01*
X-135846Y84654D01*
X-151847Y100654D01*
X-152376Y101007D01*
X-153000Y101131D01*
X-167824D01*
X-169869Y103176D01*
Y174324D01*
X-165824Y178369D01*
X-163979D01*
X-163756Y177831D01*
X-163067Y176933D01*
X-162169Y176244D01*
X-161123Y175811D01*
X-160000Y175663D01*
X-158878Y175811D01*
X-157831Y176244D01*
X-156933Y176933D01*
X-156244Y177831D01*
X-155811Y178877D01*
X-155663Y180000D01*
X-155811Y181123D01*
X-156244Y182169D01*
X-156933Y183067D01*
X-157831Y183756D01*
X-158878Y184189D01*
X-160000Y184337D01*
X-161123Y184189D01*
X-162169Y183756D01*
X-163067Y183067D01*
X-163756Y182169D01*
X-163979Y181631D01*
X-166500D01*
X-167124Y181507D01*
X-167654Y181154D01*
X-172591Y176216D01*
X-172986Y176528D01*
X-172330Y177598D01*
X-171606Y179346D01*
X-171165Y181185D01*
X-171016Y183071D01*
X-171165Y184957D01*
X-171606Y186796D01*
X-172330Y188543D01*
X-173319Y190156D01*
X-174547Y191595D01*
X-175985Y192823D01*
X-177598Y193812D01*
X-178805Y194311D01*
X-178705Y194811D01*
X-35229D01*
X-35196Y194311D01*
X-35287Y194299D01*
X-36123Y194189D01*
X-37168Y193756D01*
X-38067Y193067D01*
X-38756Y192169D01*
X-39189Y191122D01*
X-39337Y190000D01*
X-39189Y188877D01*
X-38756Y187831D01*
X-38067Y186933D01*
X-37168Y186244D01*
X-36123Y185811D01*
X-35000Y185663D01*
X-33878Y185811D01*
X-32831Y186244D01*
X-31933Y186933D01*
X-31244Y187831D01*
X-30811Y188877D01*
X-30663Y190000D01*
X-30811Y191122D01*
X-31244Y192169D01*
X-31933Y193067D01*
X-32831Y193756D01*
X-33878Y194189D01*
X-34712Y194299D01*
X-34804Y194311D01*
X-34771Y194811D01*
X119650D01*
X119750Y194311D01*
D02*
G37*
%LPC*%
G36*
X-35000Y184337D02*
X-36123Y184189D01*
X-37168Y183756D01*
X-38067Y183067D01*
X-38756Y182169D01*
X-39189Y181123D01*
X-39337Y180000D01*
X-39189Y178877D01*
X-38756Y177831D01*
X-38067Y176933D01*
X-37168Y176244D01*
X-36123Y175811D01*
X-35000Y175663D01*
X-33878Y175811D01*
X-32831Y176244D01*
X-31933Y176933D01*
X-31244Y177831D01*
X-30811Y178877D01*
X-30663Y180000D01*
X-30811Y181123D01*
X-31244Y182169D01*
X-31933Y183067D01*
X-32831Y183756D01*
X-33878Y184189D01*
X-35000Y184337D01*
D02*
G37*
G36*
X-55000D02*
X-56122Y184189D01*
X-57169Y183756D01*
X-58067Y183067D01*
X-58756Y182169D01*
X-59189Y181123D01*
X-59337Y180000D01*
X-59189Y178877D01*
X-58756Y177831D01*
X-58067Y176933D01*
X-57169Y176244D01*
X-56122Y175811D01*
X-55000Y175663D01*
X-53878Y175811D01*
X-52831Y176244D01*
X-51933Y176933D01*
X-51244Y177831D01*
X-50811Y178877D01*
X-50663Y180000D01*
X-50811Y181123D01*
X-51244Y182169D01*
X-51933Y183067D01*
X-52831Y183756D01*
X-53878Y184189D01*
X-55000Y184337D01*
D02*
G37*
G36*
X85000Y183337D02*
X83877Y183189D01*
X82831Y182756D01*
X81933Y182067D01*
X81244Y181169D01*
X80811Y180122D01*
X80663Y179000D01*
X80811Y177877D01*
X81244Y176831D01*
X81933Y175933D01*
X82831Y175244D01*
X83877Y174811D01*
X85000Y174663D01*
X86123Y174811D01*
X87169Y175244D01*
X88067Y175933D01*
X88756Y176831D01*
X89189Y177877D01*
X89337Y179000D01*
X89189Y180122D01*
X88756Y181169D01*
X88067Y182067D01*
X87169Y182756D01*
X86123Y183189D01*
X85000Y183337D01*
D02*
G37*
G36*
X-20000Y174337D02*
X-21123Y174189D01*
X-22169Y173756D01*
X-23067Y173067D01*
X-23756Y172169D01*
X-24189Y171123D01*
X-24337Y170000D01*
X-24189Y168877D01*
X-23756Y167831D01*
X-23067Y166933D01*
X-22169Y166244D01*
X-21123Y165811D01*
X-20000Y165663D01*
X-18878Y165811D01*
X-17831Y166244D01*
X-16933Y166933D01*
X-16244Y167831D01*
X-15811Y168877D01*
X-15663Y170000D01*
X-15811Y171123D01*
X-16244Y172169D01*
X-16933Y173067D01*
X-17831Y173756D01*
X-18878Y174189D01*
X-20000Y174337D01*
D02*
G37*
G36*
X-55000D02*
X-56122Y174189D01*
X-57169Y173756D01*
X-58067Y173067D01*
X-58756Y172169D01*
X-59189Y171123D01*
X-59337Y170000D01*
X-59189Y168877D01*
X-58756Y167831D01*
X-58067Y166933D01*
X-57169Y166244D01*
X-56122Y165811D01*
X-55000Y165663D01*
X-53878Y165811D01*
X-52831Y166244D01*
X-51933Y166933D01*
X-51244Y167831D01*
X-50811Y168877D01*
X-50663Y170000D01*
X-50811Y171123D01*
X-51244Y172169D01*
X-51933Y173067D01*
X-52831Y173756D01*
X-53878Y174189D01*
X-55000Y174337D01*
D02*
G37*
G36*
X-160000D02*
X-161123Y174189D01*
X-162169Y173756D01*
X-163067Y173067D01*
X-163756Y172169D01*
X-164189Y171123D01*
X-164337Y170000D01*
X-164189Y168877D01*
X-163756Y167831D01*
X-163755Y167831D01*
X-165793Y165793D01*
X-166036Y165429D01*
X-166122Y165000D01*
X-166122Y165000D01*
Y112500D01*
X-166122Y112500D01*
X-166036Y112071D01*
X-165793Y111707D01*
X-158293Y104207D01*
X-158293Y104207D01*
X-157929Y103964D01*
X-157500Y103878D01*
X-145000D01*
X-145000Y103878D01*
X-144571Y103964D01*
X-144207Y104207D01*
X-142169Y106245D01*
X-142169Y106244D01*
X-141122Y105811D01*
X-140000Y105663D01*
X-138877Y105811D01*
X-137831Y106244D01*
X-137831Y106245D01*
X-135793Y104207D01*
X-135793Y104207D01*
X-135429Y103964D01*
X-135000Y103878D01*
X-135000Y103878D01*
X-100000D01*
X-100000Y103878D01*
X-99571Y103964D01*
X-99207Y104207D01*
X-97169Y106245D01*
X-97169Y106244D01*
X-96122Y105811D01*
X-95000Y105663D01*
X-93878Y105811D01*
X-92831Y106244D01*
X-91933Y106933D01*
X-91244Y107831D01*
X-90811Y108878D01*
X-90663Y110000D01*
X-90811Y111123D01*
X-91244Y112169D01*
X-91933Y113067D01*
X-92831Y113756D01*
X-93878Y114189D01*
X-95000Y114337D01*
X-96122Y114189D01*
X-97169Y113756D01*
X-98067Y113067D01*
X-98756Y112169D01*
X-99189Y111123D01*
X-99337Y110000D01*
X-99189Y108878D01*
X-98756Y107831D01*
X-98755Y107831D01*
X-100465Y106122D01*
X-127170D01*
X-127339Y106622D01*
X-126933Y106933D01*
X-126244Y107831D01*
X-125811Y108878D01*
X-125663Y110000D01*
X-125811Y111123D01*
X-126244Y112169D01*
X-126933Y113067D01*
X-127831Y113756D01*
X-128877Y114189D01*
X-130000Y114337D01*
X-131123Y114189D01*
X-132169Y113756D01*
X-133067Y113067D01*
X-133756Y112169D01*
X-134189Y111123D01*
X-134337Y110000D01*
X-134189Y108878D01*
X-133756Y107831D01*
X-133067Y106933D01*
X-132661Y106622D01*
X-132830Y106122D01*
X-134535D01*
X-136245Y107831D01*
X-136244Y107831D01*
X-135811Y108878D01*
X-135663Y110000D01*
X-135811Y111123D01*
X-136244Y112169D01*
X-136933Y113067D01*
X-137831Y113756D01*
X-138877Y114189D01*
X-140000Y114337D01*
X-141122Y114189D01*
X-142169Y113756D01*
X-143067Y113067D01*
X-143756Y112169D01*
X-144189Y111123D01*
X-144337Y110000D01*
X-144189Y108878D01*
X-143756Y107831D01*
X-143755Y107831D01*
X-145465Y106122D01*
X-157035D01*
X-163878Y112965D01*
Y157170D01*
X-163378Y157339D01*
X-163067Y156933D01*
X-162169Y156244D01*
X-161123Y155811D01*
X-160000Y155663D01*
X-158878Y155811D01*
X-157831Y156244D01*
X-156933Y156933D01*
X-156244Y157831D01*
X-155811Y158878D01*
X-155663Y160000D01*
X-155811Y161123D01*
X-156244Y162169D01*
X-156933Y163067D01*
X-157831Y163756D01*
X-158878Y164189D01*
X-160000Y164337D01*
X-161123Y164189D01*
X-162169Y163756D01*
X-163067Y163067D01*
X-163378Y162661D01*
X-163878Y162830D01*
Y164535D01*
X-162169Y166245D01*
X-162169Y166244D01*
X-161123Y165811D01*
X-160000Y165663D01*
X-158878Y165811D01*
X-157831Y166244D01*
X-156933Y166933D01*
X-156244Y167831D01*
X-155811Y168877D01*
X-155663Y170000D01*
X-155811Y171123D01*
X-156244Y172169D01*
X-156933Y173067D01*
X-157831Y173756D01*
X-158878Y174189D01*
X-160000Y174337D01*
D02*
G37*
G36*
X-20000Y164337D02*
X-21123Y164189D01*
X-22169Y163756D01*
X-23067Y163067D01*
X-23756Y162169D01*
X-24189Y161123D01*
X-24337Y160000D01*
X-24189Y158878D01*
X-23756Y157831D01*
X-23067Y156933D01*
X-22169Y156244D01*
X-21123Y155811D01*
X-20000Y155663D01*
X-18878Y155811D01*
X-17831Y156244D01*
X-16933Y156933D01*
X-16244Y157831D01*
X-15811Y158878D01*
X-15663Y160000D01*
X-15811Y161123D01*
X-16244Y162169D01*
X-16933Y163067D01*
X-17831Y163756D01*
X-18878Y164189D01*
X-20000Y164337D01*
D02*
G37*
G36*
X-55000D02*
X-56122Y164189D01*
X-57169Y163756D01*
X-58067Y163067D01*
X-58756Y162169D01*
X-59189Y161123D01*
X-59337Y160000D01*
X-59189Y158878D01*
X-58756Y157831D01*
X-58067Y156933D01*
X-57169Y156244D01*
X-56122Y155811D01*
X-55000Y155663D01*
X-53878Y155811D01*
X-52831Y156244D01*
X-51933Y156933D01*
X-51244Y157831D01*
X-50811Y158878D01*
X-50663Y160000D01*
X-50811Y161123D01*
X-51244Y162169D01*
X-51933Y163067D01*
X-52831Y163756D01*
X-53878Y164189D01*
X-55000Y164337D01*
D02*
G37*
G36*
X15000Y164337D02*
X13878Y164189D01*
X12831Y163756D01*
X11933Y163067D01*
X11244Y162169D01*
X10811Y161123D01*
X10663Y160000D01*
X10811Y158878D01*
X11244Y157831D01*
X11933Y156933D01*
X12831Y156244D01*
X13878Y155811D01*
X15000Y155663D01*
X16123Y155811D01*
X17168Y156244D01*
X18067Y156933D01*
X18756Y157831D01*
X19189Y158878D01*
X19337Y160000D01*
X19189Y161123D01*
X18756Y162169D01*
X18067Y163067D01*
X17168Y163756D01*
X16123Y164189D01*
X15000Y164337D01*
D02*
G37*
G36*
X105000Y163337D02*
X103877Y163189D01*
X102831Y162756D01*
X101933Y162067D01*
X101244Y161169D01*
X100811Y160123D01*
X100663Y159000D01*
X100811Y157878D01*
X101244Y156831D01*
X101933Y155933D01*
X102831Y155244D01*
X103877Y154811D01*
X105000Y154663D01*
X106123Y154811D01*
X107169Y155244D01*
X108067Y155933D01*
X108756Y156831D01*
X109189Y157878D01*
X109337Y159000D01*
X109189Y160123D01*
X108756Y161169D01*
X108067Y162067D01*
X107169Y162756D01*
X106123Y163189D01*
X105000Y163337D01*
D02*
G37*
G36*
X95000D02*
X93878Y163189D01*
X92831Y162756D01*
X91933Y162067D01*
X91244Y161169D01*
X90811Y160123D01*
X90663Y159000D01*
X90811Y157878D01*
X91244Y156831D01*
X91933Y155933D01*
X92831Y155244D01*
X93878Y154811D01*
X95000Y154663D01*
X96122Y154811D01*
X97169Y155244D01*
X98067Y155933D01*
X98756Y156831D01*
X99189Y157878D01*
X99337Y159000D01*
X99189Y160123D01*
X98756Y161169D01*
X98067Y162067D01*
X97169Y162756D01*
X96122Y163189D01*
X95000Y163337D01*
D02*
G37*
G36*
X85000D02*
X83877Y163189D01*
X82831Y162756D01*
X81933Y162067D01*
X81244Y161169D01*
X80811Y160123D01*
X80663Y159000D01*
X80811Y157878D01*
X81244Y156831D01*
X81933Y155933D01*
X82831Y155244D01*
X83877Y154811D01*
X85000Y154663D01*
X86123Y154811D01*
X87169Y155244D01*
X88067Y155933D01*
X88756Y156831D01*
X89189Y157878D01*
X89337Y159000D01*
X89189Y160123D01*
X88756Y161169D01*
X88067Y162067D01*
X87169Y162756D01*
X86123Y163189D01*
X85000Y163337D01*
D02*
G37*
G36*
X-79000Y173615D02*
X-79618Y173492D01*
X-80142Y173142D01*
X-80492Y172618D01*
X-80615Y172000D01*
X-80492Y171382D01*
X-80142Y170858D01*
X-80122Y170844D01*
Y150656D01*
X-80142Y150642D01*
X-80492Y150118D01*
X-80615Y149500D01*
X-80492Y148882D01*
X-80142Y148358D01*
X-79618Y148008D01*
X-79000Y147885D01*
X-78382Y148008D01*
X-77858Y148358D01*
X-77508Y148882D01*
X-77385Y149500D01*
X-77508Y150118D01*
X-77858Y150642D01*
X-77878Y150656D01*
Y170844D01*
X-77858Y170858D01*
X-77508Y171382D01*
X-77385Y172000D01*
X-77508Y172618D01*
X-77858Y173142D01*
X-78382Y173492D01*
X-79000Y173615D01*
D02*
G37*
G36*
X-125500D02*
X-126118Y173492D01*
X-126642Y173142D01*
X-126992Y172618D01*
X-127115Y172000D01*
X-126992Y171382D01*
X-126642Y170858D01*
X-126622Y170844D01*
Y153000D01*
X-126622Y153000D01*
X-126536Y152571D01*
X-126293Y152207D01*
X-122793Y148707D01*
X-122793Y148707D01*
X-122429Y148464D01*
X-122000Y148378D01*
X-122000Y148378D01*
X-108156D01*
X-108142Y148358D01*
X-107618Y148008D01*
X-107000Y147885D01*
X-106382Y148008D01*
X-105858Y148358D01*
X-105508Y148882D01*
X-105385Y149500D01*
X-105508Y150118D01*
X-105858Y150642D01*
X-106382Y150992D01*
X-107000Y151115D01*
X-107618Y150992D01*
X-108142Y150642D01*
X-108156Y150622D01*
X-121535D01*
X-124378Y153465D01*
Y170844D01*
X-124358Y170858D01*
X-124008Y171382D01*
X-123885Y172000D01*
X-124008Y172618D01*
X-124358Y173142D01*
X-124882Y173492D01*
X-125500Y173615D01*
D02*
G37*
G36*
X15000Y154337D02*
X13878Y154189D01*
X12831Y153756D01*
X11933Y153067D01*
X11244Y152169D01*
X10811Y151122D01*
X10663Y150000D01*
X10811Y148878D01*
X11244Y147831D01*
X11933Y146933D01*
X12831Y146244D01*
X13878Y145811D01*
X15000Y145663D01*
X16123Y145811D01*
X17168Y146244D01*
X18067Y146933D01*
X18756Y147831D01*
X19189Y148878D01*
X19337Y150000D01*
X19189Y151122D01*
X18756Y152169D01*
X18067Y153067D01*
X17168Y153756D01*
X16123Y154189D01*
X15000Y154337D01*
D02*
G37*
G36*
X95000Y183337D02*
X93878Y183189D01*
X92831Y182756D01*
X91933Y182067D01*
X91244Y181169D01*
X90811Y180122D01*
X90663Y179000D01*
X90811Y177877D01*
X91244Y176831D01*
X91933Y175933D01*
X92831Y175244D01*
X93878Y174811D01*
X95000Y174663D01*
X96122Y174811D01*
X97169Y175244D01*
X97798Y175727D01*
X105564D01*
X110378Y170914D01*
Y156086D01*
X96226Y141934D01*
X95809Y141391D01*
X95547Y140759D01*
X95458Y140080D01*
X95458Y140080D01*
Y135622D01*
X78000D01*
X78000Y135623D01*
X77321Y135533D01*
X76689Y135271D01*
X76146Y134854D01*
X76146Y134854D01*
X70471Y129180D01*
X70054Y128637D01*
X69792Y128004D01*
X69703Y127325D01*
X69703Y127325D01*
Y118412D01*
X65555Y114264D01*
X65000Y114337D01*
X64445Y114264D01*
X46854Y131854D01*
X46311Y132271D01*
X45679Y132533D01*
X45000Y132622D01*
X45000Y132622D01*
X18408D01*
X18067Y133067D01*
X17168Y133756D01*
X16123Y134189D01*
X15000Y134337D01*
X14445Y134264D01*
X13129Y135579D01*
X13412Y136003D01*
X13878Y135811D01*
X15000Y135663D01*
X16123Y135811D01*
X17168Y136244D01*
X18067Y136933D01*
X18756Y137831D01*
X19189Y138877D01*
X19337Y140000D01*
X19189Y141122D01*
X18756Y142168D01*
X18067Y143067D01*
X17168Y143756D01*
X16123Y144189D01*
X15000Y144337D01*
X13878Y144189D01*
X12831Y143756D01*
X11933Y143067D01*
X11244Y142168D01*
X10811Y141122D01*
X10663Y140000D01*
X10811Y138877D01*
X11003Y138412D01*
X10579Y138129D01*
X10122Y138586D01*
Y142500D01*
X10123Y142500D01*
X10033Y143179D01*
X9771Y143811D01*
X9354Y144354D01*
X9354Y144354D01*
X4264Y149445D01*
X4337Y150000D01*
X4189Y151122D01*
X3756Y152169D01*
X3067Y153067D01*
X2169Y153756D01*
X1123Y154189D01*
X0Y154337D01*
X-1123Y154189D01*
X-2169Y153756D01*
X-3067Y153067D01*
X-3756Y152169D01*
X-4189Y151122D01*
X-4337Y150000D01*
X-4189Y148878D01*
X-3756Y147831D01*
X-3067Y146933D01*
X-2169Y146244D01*
X-1123Y145811D01*
X0Y145663D01*
X555Y145736D01*
X1871Y144421D01*
X1588Y143997D01*
X1123Y144189D01*
X0Y144337D01*
X-1123Y144189D01*
X-2169Y143756D01*
X-3067Y143067D01*
X-3756Y142169D01*
X-4189Y141122D01*
X-4337Y140000D01*
X-4189Y138877D01*
X-3756Y137831D01*
X-3067Y136933D01*
X-2169Y136244D01*
X-1123Y135811D01*
X0Y135663D01*
X1123Y135811D01*
X2169Y136244D01*
X3067Y136933D01*
X3756Y137831D01*
X4189Y138877D01*
X4337Y140000D01*
X4189Y141122D01*
X3997Y141587D01*
X4421Y141871D01*
X4878Y141414D01*
Y137500D01*
X4878Y137500D01*
X4967Y136821D01*
X5229Y136189D01*
X5646Y135646D01*
X10736Y130555D01*
X10663Y130000D01*
X10736Y129445D01*
X5646Y124354D01*
X5229Y123811D01*
X4967Y123179D01*
X4878Y122500D01*
X4878Y122500D01*
Y115000D01*
X4878Y115000D01*
X4967Y114321D01*
X5229Y113689D01*
X5646Y113146D01*
X6878Y111914D01*
Y110622D01*
X-16500D01*
X-16500Y110623D01*
X-17179Y110533D01*
X-17811Y110271D01*
X-18354Y109854D01*
X-18354Y109854D01*
X-46854Y81354D01*
X-47271Y80811D01*
X-47533Y80179D01*
X-47622Y79500D01*
X-47622Y79500D01*
Y69086D01*
X-52586Y64122D01*
X-70500D01*
X-70500Y64122D01*
X-71179Y64033D01*
X-71811Y63771D01*
X-72354Y63354D01*
X-72354Y63354D01*
X-83354Y52354D01*
X-83771Y51811D01*
X-84033Y51179D01*
X-84123Y50500D01*
X-84122Y50500D01*
Y31086D01*
X-109586Y5622D01*
X-123500D01*
X-124179Y5533D01*
X-124811Y5271D01*
X-125354Y4854D01*
X-125771Y4311D01*
X-126033Y3679D01*
X-126122Y3000D01*
X-126033Y2321D01*
X-125771Y1689D01*
X-125354Y1146D01*
X-124811Y729D01*
X-124179Y467D01*
X-123500Y378D01*
X-123122D01*
Y-14914D01*
X-137439Y-29230D01*
X-137855Y-29773D01*
X-138117Y-30406D01*
X-138207Y-31084D01*
X-138207Y-31084D01*
Y-45369D01*
X-146146D01*
X-147251Y-44263D01*
X-146968Y-43839D01*
X-146123Y-44189D01*
X-145000Y-44337D01*
X-143877Y-44189D01*
X-142831Y-43756D01*
X-141933Y-43067D01*
X-141244Y-42169D01*
X-140811Y-41122D01*
X-140663Y-40000D01*
X-140811Y-38877D01*
X-141244Y-37832D01*
X-141933Y-36933D01*
X-142831Y-36244D01*
X-143877Y-35811D01*
X-145000Y-35663D01*
X-146123Y-35811D01*
X-147169Y-36244D01*
X-148067Y-36933D01*
X-148756Y-37832D01*
X-148869Y-38103D01*
X-149369Y-38004D01*
Y-37000D01*
X-149493Y-36376D01*
X-149846Y-35846D01*
X-151847Y-33847D01*
X-152376Y-33493D01*
X-153000Y-33369D01*
X-153624Y-33493D01*
X-154154Y-33847D01*
X-154507Y-34376D01*
X-154631Y-35000D01*
X-154507Y-35624D01*
X-154154Y-36154D01*
X-152631Y-37676D01*
Y-42821D01*
X-152507Y-43446D01*
X-152154Y-43975D01*
X-147975Y-48153D01*
X-147446Y-48507D01*
X-146821Y-48631D01*
X-138207D01*
Y-60059D01*
X-138707Y-60228D01*
X-138933Y-59933D01*
X-139831Y-59244D01*
X-140877Y-58811D01*
X-142000Y-58663D01*
X-143122Y-58811D01*
X-144169Y-59244D01*
X-145067Y-59933D01*
X-145756Y-60831D01*
X-146189Y-61878D01*
X-146337Y-63000D01*
X-146189Y-64122D01*
X-145756Y-65169D01*
X-145067Y-66067D01*
X-144169Y-66756D01*
X-143122Y-67189D01*
X-142000Y-67337D01*
X-140877Y-67189D01*
X-139831Y-66756D01*
X-138933Y-66067D01*
X-138244Y-65169D01*
X-137811Y-64122D01*
X-137663Y-63000D01*
X-137700Y-62715D01*
X-137227Y-62482D01*
X-109622Y-90086D01*
Y-131914D01*
X-115086Y-137378D01*
X-146592D01*
X-146933Y-136933D01*
X-147831Y-136244D01*
X-148878Y-135811D01*
X-150000Y-135663D01*
X-151122Y-135811D01*
X-152169Y-136244D01*
X-153067Y-136933D01*
X-153408Y-137378D01*
X-156592D01*
X-156933Y-136933D01*
X-157831Y-136244D01*
X-158878Y-135811D01*
X-160000Y-135663D01*
X-161123Y-135811D01*
X-162169Y-136244D01*
X-163067Y-136933D01*
X-163408Y-137378D01*
X-166592D01*
X-166933Y-136933D01*
X-167831Y-136244D01*
X-168877Y-135811D01*
X-170000Y-135663D01*
X-171123Y-135811D01*
X-172169Y-136244D01*
X-173067Y-136933D01*
X-173408Y-137378D01*
X-176592D01*
X-176933Y-136933D01*
X-177831Y-136244D01*
X-178877Y-135811D01*
X-180000Y-135663D01*
X-181123Y-135811D01*
X-182169Y-136244D01*
X-183067Y-136933D01*
X-183756Y-137831D01*
X-184189Y-138877D01*
X-184337Y-140000D01*
X-184189Y-141122D01*
X-183756Y-142169D01*
X-183067Y-143067D01*
X-182169Y-143756D01*
X-181123Y-144189D01*
X-180000Y-144337D01*
X-178877Y-144189D01*
X-177831Y-143756D01*
X-176933Y-143067D01*
X-176592Y-142622D01*
X-173408D01*
X-173067Y-143067D01*
X-172169Y-143756D01*
X-171123Y-144189D01*
X-170000Y-144337D01*
X-168877Y-144189D01*
X-167831Y-143756D01*
X-166933Y-143067D01*
X-166592Y-142622D01*
X-163408D01*
X-163067Y-143067D01*
X-162169Y-143756D01*
X-161123Y-144189D01*
X-160000Y-144337D01*
X-158878Y-144189D01*
X-157831Y-143756D01*
X-156933Y-143067D01*
X-156592Y-142622D01*
X-153408D01*
X-153067Y-143067D01*
X-152169Y-143756D01*
X-151122Y-144189D01*
X-150000Y-144337D01*
X-148878Y-144189D01*
X-147831Y-143756D01*
X-146933Y-143067D01*
X-146592Y-142622D01*
X-114000D01*
X-114000Y-142622D01*
X-113321Y-142533D01*
X-112689Y-142271D01*
X-112146Y-141854D01*
X-105914Y-135622D01*
X-53000D01*
X-53000Y-135623D01*
X-52321Y-135533D01*
X-51689Y-135271D01*
X-51146Y-134854D01*
X-38146Y-121854D01*
X-38146Y-121854D01*
X-37729Y-121311D01*
X-37467Y-120679D01*
X-37378Y-120000D01*
X-37378Y-120000D01*
Y-105607D01*
X-37467Y-104928D01*
X-37729Y-104295D01*
X-38146Y-103752D01*
X-38689Y-103335D01*
X-39321Y-103074D01*
X-40000Y-102984D01*
X-40679Y-103074D01*
X-41311Y-103335D01*
X-41854Y-103752D01*
X-42271Y-104295D01*
X-42533Y-104928D01*
X-42622Y-105607D01*
Y-118914D01*
X-54086Y-130378D01*
X-104378D01*
Y-89000D01*
X-104467Y-88321D01*
X-104729Y-87689D01*
X-105146Y-87146D01*
X-105146Y-87146D01*
X-132962Y-59329D01*
Y-47000D01*
Y-32171D01*
X-118646Y-17854D01*
X-118646Y-17854D01*
X-118229Y-17311D01*
X-117967Y-16679D01*
X-117877Y-16000D01*
X-117878Y-16000D01*
Y378D01*
X-108500D01*
X-108500Y378D01*
X-107821Y467D01*
X-107189Y729D01*
X-106646Y1146D01*
X-79646Y28146D01*
X-79646Y28146D01*
X-79229Y28689D01*
X-78967Y29321D01*
X-78878Y30000D01*
X-78878Y30000D01*
Y49414D01*
X-69414Y58878D01*
X-51500D01*
X-51500Y58877D01*
X-50821Y58967D01*
X-50189Y59229D01*
X-49646Y59646D01*
X-43146Y66146D01*
X-43146Y66146D01*
X-42729Y66689D01*
X-42467Y67321D01*
X-42378Y68000D01*
X-42378Y68000D01*
Y78414D01*
X-15414Y105378D01*
X9500D01*
X10179Y105467D01*
X10811Y105729D01*
X11354Y106146D01*
X11771Y106689D01*
X12033Y107321D01*
X12122Y108000D01*
Y113000D01*
X12122Y113000D01*
X12033Y113679D01*
X11771Y114311D01*
X11354Y114854D01*
X11354Y114854D01*
X10122Y116086D01*
Y121414D01*
X10579Y121871D01*
X11003Y121587D01*
X10811Y121123D01*
X10663Y120000D01*
X10811Y118877D01*
X11244Y117831D01*
X11933Y116933D01*
X12831Y116244D01*
X13878Y115811D01*
X15000Y115663D01*
X16123Y115811D01*
X17168Y116244D01*
X18067Y116933D01*
X18756Y117831D01*
X19189Y118877D01*
X19337Y120000D01*
X19189Y121123D01*
X18756Y122169D01*
X18067Y123067D01*
X17168Y123756D01*
X16123Y124189D01*
X15000Y124337D01*
X13878Y124189D01*
X13412Y123997D01*
X13129Y124421D01*
X14445Y125736D01*
X15000Y125663D01*
X16123Y125811D01*
X17168Y126244D01*
X18067Y126933D01*
X18408Y127377D01*
X43914D01*
X60736Y110555D01*
X60663Y110000D01*
X60811Y108878D01*
X61244Y107831D01*
X61933Y106933D01*
X62831Y106244D01*
X63877Y105811D01*
X65000Y105663D01*
X66123Y105811D01*
X67169Y106244D01*
X68067Y106933D01*
X68756Y107831D01*
X69189Y108878D01*
X69337Y110000D01*
X69264Y110555D01*
X70579Y111871D01*
X71003Y111588D01*
X70811Y111123D01*
X70663Y110000D01*
X70811Y108878D01*
X71244Y107831D01*
X71933Y106933D01*
X72831Y106244D01*
X73878Y105811D01*
X75000Y105663D01*
X76122Y105811D01*
X76587Y106003D01*
X76871Y105579D01*
X76414Y105122D01*
X27000D01*
X27000Y105122D01*
X26321Y105033D01*
X25689Y104771D01*
X25146Y104354D01*
X25146Y104354D01*
X23365Y102573D01*
X23365Y102573D01*
X20914Y100122D01*
X-4000D01*
X-4679Y100033D01*
X-5311Y99771D01*
X-5854Y99354D01*
X-5854Y99354D01*
X-8354Y96854D01*
X-8771Y96311D01*
X-9033Y95679D01*
X-9122Y95000D01*
X-9122Y95000D01*
Y90000D01*
Y81500D01*
X-9122Y81500D01*
X-9033Y80821D01*
X-8771Y80189D01*
X-8354Y79646D01*
X5736Y65555D01*
X5663Y65000D01*
X5811Y63877D01*
X6244Y62831D01*
X6933Y61933D01*
X7831Y61244D01*
X8878Y60811D01*
X10000Y60663D01*
X11123Y60811D01*
X12169Y61244D01*
X13067Y61933D01*
X13756Y62831D01*
X14189Y63877D01*
X14337Y65000D01*
X14189Y66123D01*
X13756Y67169D01*
X13067Y68067D01*
X12169Y68756D01*
X11123Y69189D01*
X10000Y69337D01*
X9445Y69264D01*
X-3878Y82586D01*
Y87169D01*
X-3378Y87338D01*
X-3067Y86933D01*
X-2169Y86244D01*
X-1123Y85811D01*
X0Y85663D01*
X1123Y85811D01*
X2169Y86244D01*
X3067Y86933D01*
X3756Y87831D01*
X4189Y88877D01*
X4337Y90000D01*
X4189Y91123D01*
X3756Y92169D01*
X3067Y93067D01*
X2169Y93756D01*
X1123Y94189D01*
X0Y94337D01*
X-1123Y94189D01*
X-2169Y93756D01*
X-3067Y93067D01*
X-3378Y92662D01*
X-3878Y92831D01*
Y93914D01*
X-2914Y94878D01*
X22000D01*
X22000Y94877D01*
X22679Y94967D01*
X23311Y95229D01*
X23854Y95646D01*
X27073Y98865D01*
X27073Y98865D01*
X28086Y99878D01*
X77500D01*
X77500Y99878D01*
X78179Y99967D01*
X78811Y100229D01*
X79354Y100646D01*
X84445Y105736D01*
X85000Y105663D01*
X86123Y105811D01*
X87169Y106244D01*
X88067Y106933D01*
X88378Y107339D01*
X88878Y107170D01*
Y82000D01*
X88878Y82000D01*
X88964Y81571D01*
X89207Y81207D01*
X93678Y76735D01*
Y63047D01*
X93205Y62887D01*
X93067Y63067D01*
X92169Y63756D01*
X91123Y64189D01*
X90000Y64337D01*
X88877Y64189D01*
X87831Y63756D01*
X86933Y63067D01*
X86244Y62169D01*
X85811Y61123D01*
X85663Y60000D01*
X85811Y58877D01*
X86244Y57831D01*
X86933Y56933D01*
X87378Y56592D01*
Y33408D01*
X86933Y33067D01*
X86244Y32168D01*
X85811Y31122D01*
X85663Y30000D01*
X85811Y28877D01*
X86244Y27832D01*
X86933Y26933D01*
X87831Y26244D01*
X88877Y25811D01*
X90000Y25663D01*
X91123Y25811D01*
X92169Y26244D01*
X93067Y26933D01*
X93205Y27113D01*
X93678Y26953D01*
Y24700D01*
X93678Y24700D01*
X93764Y24271D01*
X94007Y23907D01*
X98595Y19319D01*
X98595Y19319D01*
X98958Y19076D01*
X99388Y18991D01*
X99388Y18991D01*
X102316D01*
X102486Y18491D01*
X101933Y18067D01*
X101244Y17168D01*
X100811Y16123D01*
X100663Y15000D01*
X100811Y13878D01*
X101244Y12832D01*
X101933Y11933D01*
X102831Y11244D01*
X103877Y10811D01*
X105000Y10663D01*
X106123Y10811D01*
X107169Y11244D01*
X108067Y11933D01*
X108756Y12832D01*
X109189Y13878D01*
X109337Y15000D01*
X109189Y16123D01*
X108756Y17168D01*
X108067Y18067D01*
X107514Y18491D01*
X107684Y18991D01*
X109423D01*
X111245Y17169D01*
X111244Y17168D01*
X110811Y16123D01*
X110663Y15000D01*
X110811Y13878D01*
X111244Y12832D01*
X111933Y11933D01*
X112831Y11244D01*
X113877Y10811D01*
X115000Y10663D01*
X116122Y10811D01*
X117169Y11244D01*
X118067Y11933D01*
X118756Y12832D01*
X119189Y13878D01*
X119337Y15000D01*
X119189Y16123D01*
X118756Y17168D01*
X118067Y18067D01*
X117169Y18756D01*
X116122Y19189D01*
X115000Y19337D01*
X113877Y19189D01*
X112831Y18756D01*
X112831Y18755D01*
X110681Y20905D01*
X110317Y21148D01*
X109888Y21234D01*
X109888Y21234D01*
X99852D01*
X95922Y25165D01*
Y27430D01*
X96422Y27600D01*
X96933Y26933D01*
X97831Y26244D01*
X98878Y25811D01*
X100000Y25663D01*
X101122Y25811D01*
X102169Y26244D01*
X103067Y26933D01*
X103756Y27832D01*
X104189Y28877D01*
X104337Y30000D01*
X104189Y31122D01*
X103756Y32168D01*
X103067Y33067D01*
X102169Y33756D01*
X101122Y34189D01*
X100000Y34337D01*
X98878Y34189D01*
X97831Y33756D01*
X96933Y33067D01*
X96422Y32400D01*
X95922Y32570D01*
Y57430D01*
X96422Y57600D01*
X96933Y56933D01*
X97831Y56244D01*
X98878Y55811D01*
X100000Y55663D01*
X101122Y55811D01*
X102169Y56244D01*
X103067Y56933D01*
X103756Y57831D01*
X104189Y58877D01*
X104337Y60000D01*
X104189Y61123D01*
X103756Y62169D01*
X103067Y63067D01*
X102169Y63756D01*
X101122Y64189D01*
X100000Y64337D01*
X98878Y64189D01*
X97831Y63756D01*
X96933Y63067D01*
X96422Y62400D01*
X95922Y62570D01*
Y77200D01*
X95922Y77200D01*
X95836Y77629D01*
X95593Y77993D01*
X95593Y77993D01*
X91122Y82465D01*
Y107170D01*
X91622Y107339D01*
X91933Y106933D01*
X92831Y106244D01*
X93878Y105811D01*
X95000Y105663D01*
X96122Y105811D01*
X97169Y106244D01*
X98067Y106933D01*
X98756Y107831D01*
X99189Y108878D01*
X99337Y110000D01*
X99239Y110747D01*
X99712Y110981D01*
X100666Y110027D01*
X100663Y110000D01*
X100811Y108878D01*
X101244Y107831D01*
X101933Y106933D01*
X102831Y106244D01*
X103877Y105811D01*
X105000Y105663D01*
X106123Y105811D01*
X107169Y106244D01*
X108067Y106933D01*
X108756Y107831D01*
X109189Y108878D01*
X109337Y110000D01*
X109189Y111123D01*
X108756Y112169D01*
X108067Y113067D01*
X107169Y113756D01*
X106123Y114189D01*
X105000Y114337D01*
X103877Y114189D01*
X102831Y113756D01*
X102107Y113200D01*
X101360Y113947D01*
X101525Y114489D01*
X101618Y114508D01*
X102142Y114858D01*
X102492Y115382D01*
X102615Y116000D01*
X102492Y116618D01*
X102142Y117142D01*
X102122Y117156D01*
Y119000D01*
X102122Y119000D01*
X102036Y119429D01*
X101793Y119793D01*
X99122Y122465D01*
Y124000D01*
X99122Y124000D01*
X99036Y124429D01*
X98793Y124793D01*
X98793Y124793D01*
X97610Y125976D01*
X97615Y126000D01*
X97492Y126618D01*
X97142Y127142D01*
X96618Y127492D01*
X96000Y127615D01*
X95382Y127492D01*
X94858Y127142D01*
X94508Y126618D01*
X94385Y126000D01*
X94508Y125382D01*
X94858Y124858D01*
X95382Y124508D01*
X96000Y124385D01*
X96024Y124390D01*
X96878Y123535D01*
Y122000D01*
X96878Y122000D01*
X96964Y121571D01*
X97207Y121207D01*
X99878Y118535D01*
Y117156D01*
X99858Y117142D01*
X99508Y116618D01*
X99489Y116525D01*
X98947Y116360D01*
X98154Y117154D01*
X97624Y117507D01*
X97000Y117631D01*
X96000D01*
X95376Y117507D01*
X94846Y117154D01*
X94493Y116624D01*
X94369Y116000D01*
X94493Y115376D01*
X94846Y114847D01*
X94878Y114825D01*
X94757Y114305D01*
X93878Y114189D01*
X92831Y113756D01*
X91933Y113067D01*
X91622Y112661D01*
X91122Y112830D01*
Y115500D01*
X91122Y115500D01*
X91036Y115929D01*
X90793Y116293D01*
X90793Y116293D01*
X81122Y125965D01*
Y126844D01*
X81142Y126858D01*
X81492Y127382D01*
X81615Y128000D01*
X81492Y128618D01*
X81142Y129142D01*
X80618Y129492D01*
X80000Y129615D01*
X79382Y129492D01*
X78858Y129142D01*
X78508Y128618D01*
X78385Y128000D01*
X78508Y127382D01*
X78858Y126858D01*
X78878Y126844D01*
Y125500D01*
X78878Y125500D01*
X78964Y125071D01*
X79207Y124707D01*
X88878Y115035D01*
Y112830D01*
X88378Y112661D01*
X88067Y113067D01*
X87169Y113756D01*
X86123Y114189D01*
X85000Y114337D01*
X83877Y114189D01*
X82831Y113756D01*
X81933Y113067D01*
X81244Y112169D01*
X80811Y111123D01*
X80663Y110000D01*
X80736Y109445D01*
X79421Y108129D01*
X78997Y108413D01*
X79189Y108878D01*
X79337Y110000D01*
X79189Y111123D01*
X78756Y112169D01*
X78067Y113067D01*
X77169Y113756D01*
X76122Y114189D01*
X75000Y114337D01*
X73878Y114189D01*
X73413Y113997D01*
X73129Y114421D01*
X74180Y115471D01*
X74180Y115471D01*
X74596Y116014D01*
X74858Y116647D01*
X74948Y117325D01*
X74948Y117325D01*
Y126239D01*
X79086Y130378D01*
X95539D01*
X95547Y130321D01*
X95809Y129689D01*
X96226Y129146D01*
X100707Y124664D01*
X100811Y123878D01*
X101244Y122831D01*
X101933Y121933D01*
X102831Y121244D01*
X103877Y120811D01*
X105000Y120663D01*
X105555Y120736D01*
X116318Y109973D01*
X116318Y109973D01*
X116861Y109556D01*
X117494Y109294D01*
X118173Y109205D01*
X122055D01*
X125736Y105524D01*
X125663Y104969D01*
X125736Y104413D01*
X120146Y98823D01*
X119729Y98280D01*
X119467Y97647D01*
X119378Y96969D01*
X119378Y96968D01*
Y81586D01*
X118146Y80354D01*
X117729Y79811D01*
X117467Y79179D01*
X117377Y78500D01*
X117378Y78500D01*
Y48408D01*
X116933Y48067D01*
X116244Y47168D01*
X115811Y46123D01*
X115663Y45000D01*
X115736Y44445D01*
X114421Y43129D01*
X113997Y43413D01*
X114189Y43878D01*
X114337Y45000D01*
X114189Y46123D01*
X113756Y47168D01*
X113067Y48067D01*
X112169Y48756D01*
X111123Y49189D01*
X110000Y49337D01*
X108878Y49189D01*
X107831Y48756D01*
X106933Y48067D01*
X106244Y47168D01*
X105811Y46123D01*
X105663Y45000D01*
X105811Y43878D01*
X106244Y42832D01*
X106933Y41933D01*
X107831Y41244D01*
X108878Y40811D01*
X110000Y40663D01*
X111123Y40811D01*
X111588Y41003D01*
X111871Y40579D01*
X110555Y39264D01*
X110000Y39337D01*
X108878Y39189D01*
X107831Y38756D01*
X106933Y38067D01*
X106244Y37168D01*
X105811Y36123D01*
X105663Y35000D01*
X105811Y33878D01*
X106244Y32831D01*
X106933Y31933D01*
X107831Y31244D01*
X108878Y30811D01*
X110000Y30663D01*
X111123Y30811D01*
X112169Y31244D01*
X113067Y31933D01*
X113756Y32831D01*
X114189Y33878D01*
X114337Y35000D01*
X114264Y35555D01*
X119445Y40736D01*
X120000Y40663D01*
X121123Y40811D01*
X122169Y41244D01*
X123067Y41933D01*
X123756Y42832D01*
X124189Y43878D01*
X124337Y45000D01*
X124189Y46123D01*
X123756Y47168D01*
X123067Y48067D01*
X122622Y48408D01*
Y77414D01*
X123854Y78646D01*
X123854Y78646D01*
X124271Y79189D01*
X124533Y79821D01*
X124622Y80500D01*
X124622Y80500D01*
Y95882D01*
X125579Y96839D01*
X126003Y96556D01*
X125811Y96091D01*
X125663Y94968D01*
X125811Y93846D01*
X126244Y92800D01*
X126933Y91902D01*
X127831Y91212D01*
X128877Y90779D01*
X130000Y90631D01*
X131123Y90779D01*
X132169Y91212D01*
X133067Y91902D01*
X133756Y92800D01*
X134189Y93846D01*
X134337Y94968D01*
X134189Y96091D01*
X133756Y97137D01*
X133067Y98035D01*
X132169Y98725D01*
X131123Y99158D01*
X130000Y99306D01*
X128877Y99158D01*
X128412Y98965D01*
X128129Y99389D01*
X129445Y100705D01*
X130000Y100631D01*
X131123Y100779D01*
X132169Y101213D01*
X133067Y101902D01*
X133756Y102800D01*
X134189Y103846D01*
X134337Y104969D01*
X134189Y106091D01*
X133756Y107137D01*
X133067Y108035D01*
X132169Y108724D01*
X131123Y109158D01*
X130000Y109306D01*
X129445Y109232D01*
X124995Y113682D01*
X124452Y114099D01*
X123820Y114360D01*
X123141Y114450D01*
X123141Y114450D01*
X119259D01*
X109264Y124445D01*
X109337Y125000D01*
X109189Y126122D01*
X108756Y127169D01*
X108067Y128067D01*
X107169Y128756D01*
X106123Y129189D01*
X105000Y129337D01*
X103877Y129189D01*
X103681Y129108D01*
X100570Y132218D01*
X100613Y132321D01*
X100686Y132873D01*
X101192Y132956D01*
X101244Y132831D01*
X101933Y131933D01*
X102831Y131244D01*
X103877Y130811D01*
X105000Y130663D01*
X106123Y130811D01*
X107169Y131244D01*
X107169Y131245D01*
X109207Y129207D01*
X109207Y129207D01*
X109571Y128964D01*
X110000Y128878D01*
X110000Y128878D01*
X125844D01*
X125858Y128858D01*
X126382Y128508D01*
X127000Y128385D01*
X127618Y128508D01*
X128142Y128858D01*
X128492Y129382D01*
X128615Y130000D01*
X128492Y130618D01*
X128142Y131142D01*
X127618Y131492D01*
X127000Y131615D01*
X126382Y131492D01*
X125858Y131142D01*
X125844Y131122D01*
X110465D01*
X108755Y132831D01*
X108756Y132831D01*
X109189Y133878D01*
X109337Y135000D01*
X109189Y136123D01*
X108756Y137169D01*
X108067Y138067D01*
X107169Y138756D01*
X106123Y139189D01*
X105000Y139337D01*
X103877Y139189D01*
X102831Y138756D01*
X101933Y138067D01*
X101244Y137169D01*
X101202Y137068D01*
X100702Y137168D01*
Y138994D01*
X114854Y153146D01*
X114854Y153146D01*
X115271Y153689D01*
X115533Y154321D01*
X115622Y155000D01*
Y172000D01*
X115622Y172000D01*
X115533Y172679D01*
X115271Y173311D01*
X114854Y173854D01*
X114854Y173854D01*
X108505Y180204D01*
X107962Y180621D01*
X107329Y180883D01*
X106650Y180972D01*
X106650Y180972D01*
X98838D01*
X98756Y181169D01*
X98067Y182067D01*
X97169Y182756D01*
X96122Y183189D01*
X95000Y183337D01*
D02*
G37*
G36*
X-85000Y114337D02*
X-86123Y114189D01*
X-87169Y113756D01*
X-88067Y113067D01*
X-88756Y112169D01*
X-89189Y111123D01*
X-89337Y110000D01*
X-89189Y108878D01*
X-88756Y107831D01*
X-88067Y106933D01*
X-87169Y106244D01*
X-86123Y105811D01*
X-85000Y105663D01*
X-83877Y105811D01*
X-82831Y106244D01*
X-81933Y106933D01*
X-81244Y107831D01*
X-80811Y108878D01*
X-80663Y110000D01*
X-80811Y111123D01*
X-81244Y112169D01*
X-81933Y113067D01*
X-82831Y113756D01*
X-83877Y114189D01*
X-85000Y114337D01*
D02*
G37*
G36*
X-180000Y109337D02*
X-181123Y109189D01*
X-182169Y108756D01*
X-183067Y108067D01*
X-183756Y107169D01*
X-184189Y106123D01*
X-184337Y105000D01*
X-184189Y103877D01*
X-183756Y102831D01*
X-183067Y101933D01*
X-182169Y101244D01*
X-181123Y100811D01*
X-180000Y100663D01*
X-178877Y100811D01*
X-177831Y101244D01*
X-176933Y101933D01*
X-176244Y102831D01*
X-175811Y103877D01*
X-175663Y105000D01*
X-175811Y106123D01*
X-176244Y107169D01*
X-176933Y108067D01*
X-177831Y108756D01*
X-178877Y109189D01*
X-180000Y109337D01*
D02*
G37*
G36*
Y99337D02*
X-181123Y99189D01*
X-182169Y98756D01*
X-183067Y98067D01*
X-183756Y97169D01*
X-184189Y96122D01*
X-184337Y95000D01*
X-184189Y93878D01*
X-183756Y92831D01*
X-183067Y91933D01*
X-182169Y91244D01*
X-181123Y90811D01*
X-180000Y90663D01*
X-178877Y90811D01*
X-177831Y91244D01*
X-176933Y91933D01*
X-176244Y92831D01*
X-175811Y93878D01*
X-175811Y93878D01*
X-160393D01*
X-160284Y93716D01*
X-160122Y93607D01*
Y91053D01*
X-160122Y91052D01*
X-160036Y90623D01*
X-159793Y90259D01*
X-159280Y89747D01*
X-159514Y89273D01*
X-160000Y89337D01*
X-161123Y89189D01*
X-162169Y88756D01*
X-163067Y88067D01*
X-163756Y87169D01*
X-164189Y86123D01*
X-164337Y85000D01*
X-164189Y83877D01*
X-163756Y82831D01*
X-163067Y81933D01*
X-162169Y81244D01*
X-161123Y80811D01*
X-160000Y80663D01*
X-158878Y80811D01*
X-157831Y81244D01*
X-156933Y81933D01*
X-156622Y82339D01*
X-156122Y82170D01*
Y68465D01*
X-165808Y58778D01*
X-166000Y58816D01*
X-166695Y58678D01*
X-167284Y58284D01*
X-167678Y57695D01*
X-167816Y57000D01*
X-167678Y56305D01*
X-167284Y55716D01*
X-166695Y55322D01*
X-166000Y55184D01*
X-165305Y55322D01*
X-164716Y55716D01*
X-164322Y56305D01*
X-164184Y57000D01*
X-164222Y57192D01*
X-154207Y67207D01*
X-153964Y67571D01*
X-153878Y68000D01*
X-153878Y68000D01*
Y82170D01*
X-153378Y82339D01*
X-153067Y81933D01*
X-152169Y81244D01*
X-151122Y80811D01*
X-150000Y80663D01*
X-148878Y80811D01*
X-147831Y81244D01*
X-146933Y81933D01*
X-146244Y82831D01*
X-145811Y83877D01*
X-145663Y85000D01*
X-145811Y86123D01*
X-146244Y87169D01*
X-146933Y88067D01*
X-147831Y88756D01*
X-148878Y89189D01*
X-150000Y89337D01*
X-151122Y89189D01*
X-152169Y88756D01*
X-153067Y88067D01*
X-153467Y87546D01*
X-153612Y87527D01*
X-154049Y87609D01*
X-154207Y87845D01*
X-154207Y87845D01*
X-157878Y91517D01*
Y93607D01*
X-157716Y93716D01*
X-157322Y94305D01*
X-157184Y95000D01*
X-157322Y95695D01*
X-157716Y96284D01*
X-158305Y96678D01*
X-159000Y96816D01*
X-159695Y96678D01*
X-160284Y96284D01*
X-160393Y96122D01*
X-175811D01*
X-175811Y96122D01*
X-176244Y97169D01*
X-176933Y98067D01*
X-177831Y98756D01*
X-178877Y99189D01*
X-180000Y99337D01*
D02*
G37*
G36*
X10000Y94337D02*
X8878Y94189D01*
X7831Y93756D01*
X6933Y93067D01*
X6244Y92169D01*
X5811Y91123D01*
X5663Y90000D01*
X5811Y88877D01*
X6244Y87831D01*
X6933Y86933D01*
X7831Y86244D01*
X8878Y85811D01*
X10000Y85663D01*
X11123Y85811D01*
X12169Y86244D01*
X13067Y86933D01*
X13756Y87831D01*
X14189Y88877D01*
X14337Y90000D01*
X14189Y91123D01*
X13756Y92169D01*
X13067Y93067D01*
X12169Y93756D01*
X11123Y94189D01*
X10000Y94337D01*
D02*
G37*
G36*
X65000Y89337D02*
X63877Y89189D01*
X62831Y88756D01*
X61933Y88067D01*
X61244Y87169D01*
X60811Y86123D01*
X60663Y85000D01*
X60811Y83877D01*
X61244Y82831D01*
X61933Y81933D01*
X62831Y81244D01*
X63877Y80811D01*
X65000Y80663D01*
X66123Y80811D01*
X67169Y81244D01*
X68067Y81933D01*
X68756Y82831D01*
X69189Y83877D01*
X69337Y85000D01*
X69189Y86123D01*
X68756Y87169D01*
X68067Y88067D01*
X67169Y88756D01*
X66123Y89189D01*
X65000Y89337D01*
D02*
G37*
G36*
X-95000D02*
X-96122Y89189D01*
X-97169Y88756D01*
X-98067Y88067D01*
X-98756Y87169D01*
X-99189Y86123D01*
X-99337Y85000D01*
X-99189Y83877D01*
X-98756Y82831D01*
X-98067Y81933D01*
X-97169Y81244D01*
X-96122Y80811D01*
X-95000Y80663D01*
X-93878Y80811D01*
X-92831Y81244D01*
X-91933Y81933D01*
X-91244Y82831D01*
X-90811Y83877D01*
X-90663Y85000D01*
X-90811Y86123D01*
X-91244Y87169D01*
X-91933Y88067D01*
X-92831Y88756D01*
X-93878Y89189D01*
X-95000Y89337D01*
D02*
G37*
G36*
X-115000D02*
X-116122Y89189D01*
X-117169Y88756D01*
X-118067Y88067D01*
X-118756Y87169D01*
X-119189Y86123D01*
X-119337Y85000D01*
X-119189Y83877D01*
X-118756Y82831D01*
X-118067Y81933D01*
X-117169Y81244D01*
X-116122Y80811D01*
X-115000Y80663D01*
X-113877Y80811D01*
X-112831Y81244D01*
X-111933Y81933D01*
X-111244Y82831D01*
X-110811Y83877D01*
X-110663Y85000D01*
X-110811Y86123D01*
X-111244Y87169D01*
X-111933Y88067D01*
X-112831Y88756D01*
X-113877Y89189D01*
X-115000Y89337D01*
D02*
G37*
G36*
X-125000D02*
X-126122Y89189D01*
X-127169Y88756D01*
X-128067Y88067D01*
X-128756Y87169D01*
X-129189Y86123D01*
X-129337Y85000D01*
X-129189Y83877D01*
X-128756Y82831D01*
X-128067Y81933D01*
X-127169Y81244D01*
X-126122Y80811D01*
X-125000Y80663D01*
X-123878Y80811D01*
X-122831Y81244D01*
X-121933Y81933D01*
X-121244Y82831D01*
X-120811Y83877D01*
X-120663Y85000D01*
X-120811Y86123D01*
X-121244Y87169D01*
X-121933Y88067D01*
X-122831Y88756D01*
X-123878Y89189D01*
X-125000Y89337D01*
D02*
G37*
G36*
X-170000D02*
X-171123Y89189D01*
X-172169Y88756D01*
X-173067Y88067D01*
X-173756Y87169D01*
X-174189Y86123D01*
X-174337Y85000D01*
X-174189Y83877D01*
X-173756Y82831D01*
X-173067Y81933D01*
X-172169Y81244D01*
X-171123Y80811D01*
X-170000Y80663D01*
X-168877Y80811D01*
X-167831Y81244D01*
X-166933Y81933D01*
X-166244Y82831D01*
X-165811Y83877D01*
X-165663Y85000D01*
X-165811Y86123D01*
X-166244Y87169D01*
X-166933Y88067D01*
X-167831Y88756D01*
X-168877Y89189D01*
X-170000Y89337D01*
D02*
G37*
G36*
X-180000D02*
X-181123Y89189D01*
X-182169Y88756D01*
X-183067Y88067D01*
X-183756Y87169D01*
X-184189Y86123D01*
X-184337Y85000D01*
X-184189Y83877D01*
X-183756Y82831D01*
X-183067Y81933D01*
X-182169Y81244D01*
X-181123Y80811D01*
X-180000Y80663D01*
X-178877Y80811D01*
X-177831Y81244D01*
X-176933Y81933D01*
X-176244Y82831D01*
X-175811Y83877D01*
X-175663Y85000D01*
X-175811Y86123D01*
X-176244Y87169D01*
X-176933Y88067D01*
X-177831Y88756D01*
X-178877Y89189D01*
X-180000Y89337D01*
D02*
G37*
G36*
X-74000Y71816D02*
X-74695Y71678D01*
X-75284Y71284D01*
X-75393Y71122D01*
X-88607D01*
X-88716Y71284D01*
X-89305Y71678D01*
X-90000Y71816D01*
X-90695Y71678D01*
X-91284Y71284D01*
X-91678Y70695D01*
X-91816Y70000D01*
X-91678Y69305D01*
X-91284Y68716D01*
X-90695Y68322D01*
X-90000Y68184D01*
X-89305Y68322D01*
X-88716Y68716D01*
X-88607Y68878D01*
X-75393D01*
X-75284Y68716D01*
X-74695Y68322D01*
X-74000Y68184D01*
X-73305Y68322D01*
X-72716Y68716D01*
X-72322Y69305D01*
X-72184Y70000D01*
X-72322Y70695D01*
X-72716Y71284D01*
X-73305Y71678D01*
X-74000Y71816D01*
D02*
G37*
G36*
X65000Y79337D02*
X63877Y79189D01*
X62831Y78756D01*
X61933Y78067D01*
X61244Y77169D01*
X60811Y76122D01*
X60663Y75000D01*
X60811Y73878D01*
X61244Y72831D01*
X61933Y71933D01*
X62831Y71244D01*
X63877Y70811D01*
X65000Y70663D01*
X66123Y70811D01*
X67169Y71244D01*
X68067Y71933D01*
X68756Y72831D01*
X69189Y73878D01*
X69337Y75000D01*
X69189Y76122D01*
X68756Y77169D01*
X68067Y78067D01*
X67169Y78756D01*
X66123Y79189D01*
X65000Y79337D01*
D02*
G37*
G36*
X-95000Y99337D02*
X-96122Y99189D01*
X-97169Y98756D01*
X-98067Y98067D01*
X-98756Y97169D01*
X-99189Y96122D01*
X-99337Y95000D01*
X-99189Y93878D01*
X-98756Y92831D01*
X-98067Y91933D01*
X-97169Y91244D01*
X-96122Y90811D01*
X-95000Y90663D01*
X-93878Y90811D01*
X-92831Y91244D01*
X-91933Y91933D01*
X-91592Y92378D01*
X-66086D01*
X-59264Y85555D01*
X-59337Y85000D01*
X-59189Y83877D01*
X-58756Y82831D01*
X-58067Y81933D01*
X-57622Y81592D01*
Y78408D01*
X-58067Y78067D01*
X-58756Y77169D01*
X-59189Y76122D01*
X-59337Y75000D01*
X-59189Y73878D01*
X-58756Y72831D01*
X-58067Y71933D01*
X-57169Y71244D01*
X-56122Y70811D01*
X-55000Y70663D01*
X-53878Y70811D01*
X-52831Y71244D01*
X-51933Y71933D01*
X-51244Y72831D01*
X-50811Y73878D01*
X-50663Y75000D01*
X-50811Y76122D01*
X-51244Y77169D01*
X-51933Y78067D01*
X-52378Y78408D01*
Y81592D01*
X-51933Y81933D01*
X-51244Y82831D01*
X-50811Y83877D01*
X-50663Y85000D01*
X-50811Y86123D01*
X-51244Y87169D01*
X-51933Y88067D01*
X-52831Y88756D01*
X-53878Y89189D01*
X-55000Y89337D01*
X-55555Y89264D01*
X-63146Y96854D01*
X-63689Y97271D01*
X-64321Y97533D01*
X-65000Y97623D01*
X-65000Y97622D01*
X-91592D01*
X-91933Y98067D01*
X-92831Y98756D01*
X-93878Y99189D01*
X-95000Y99337D01*
D02*
G37*
G36*
X-65000Y79337D02*
X-66123Y79189D01*
X-67169Y78756D01*
X-68067Y78067D01*
X-68756Y77169D01*
X-69189Y76122D01*
X-69337Y75000D01*
X-69189Y73878D01*
X-68756Y72831D01*
X-68067Y71933D01*
X-67169Y71244D01*
X-66123Y70811D01*
X-65000Y70663D01*
X-63877Y70811D01*
X-62831Y71244D01*
X-61933Y71933D01*
X-61244Y72831D01*
X-60811Y73878D01*
X-60663Y75000D01*
X-60811Y76122D01*
X-61244Y77169D01*
X-61933Y78067D01*
X-62831Y78756D01*
X-63877Y79189D01*
X-65000Y79337D01*
D02*
G37*
G36*
X-95000D02*
X-96122Y79189D01*
X-97169Y78756D01*
X-98067Y78067D01*
X-98756Y77169D01*
X-99189Y76122D01*
X-99337Y75000D01*
X-99189Y73878D01*
X-98756Y72831D01*
X-98067Y71933D01*
X-97169Y71244D01*
X-96122Y70811D01*
X-95000Y70663D01*
X-93878Y70811D01*
X-92831Y71244D01*
X-91933Y71933D01*
X-91244Y72831D01*
X-90811Y73878D01*
X-90663Y75000D01*
X-90811Y76122D01*
X-91244Y77169D01*
X-91933Y78067D01*
X-92831Y78756D01*
X-93878Y79189D01*
X-95000Y79337D01*
D02*
G37*
G36*
X88000Y73615D02*
X87382Y73492D01*
X86858Y73142D01*
X86508Y72618D01*
X86385Y72000D01*
X86508Y71382D01*
X86858Y70858D01*
X87382Y70508D01*
X88000Y70385D01*
X88618Y70508D01*
X89142Y70858D01*
X89492Y71382D01*
X89615Y72000D01*
X89492Y72618D01*
X89142Y73142D01*
X88618Y73492D01*
X88000Y73615D01*
D02*
G37*
G36*
Y68615D02*
X87382Y68492D01*
X86858Y68142D01*
X86508Y67618D01*
X86385Y67000D01*
X86508Y66382D01*
X86858Y65858D01*
X87382Y65508D01*
X88000Y65385D01*
X88618Y65508D01*
X89142Y65858D01*
X89492Y66382D01*
X89615Y67000D01*
X89492Y67618D01*
X89142Y68142D01*
X88618Y68492D01*
X88000Y68615D01*
D02*
G37*
G36*
X30000Y69337D02*
X28877Y69189D01*
X27832Y68756D01*
X26933Y68067D01*
X26244Y67169D01*
X25811Y66123D01*
X25663Y65000D01*
X25811Y63877D01*
X26244Y62831D01*
X26933Y61933D01*
X27832Y61244D01*
X28877Y60811D01*
X30000Y60663D01*
X31122Y60811D01*
X32168Y61244D01*
X33067Y61933D01*
X33756Y62831D01*
X34189Y63877D01*
X34337Y65000D01*
X34189Y66123D01*
X33756Y67169D01*
X33067Y68067D01*
X32168Y68756D01*
X31122Y69189D01*
X30000Y69337D01*
D02*
G37*
G36*
X20000D02*
X18878Y69189D01*
X17831Y68756D01*
X16933Y68067D01*
X16244Y67169D01*
X15811Y66123D01*
X15663Y65000D01*
X15811Y63877D01*
X16244Y62831D01*
X16933Y61933D01*
X17831Y61244D01*
X18878Y60811D01*
X20000Y60663D01*
X21123Y60811D01*
X22169Y61244D01*
X23067Y61933D01*
X23756Y62831D01*
X24189Y63877D01*
X24337Y65000D01*
X24189Y66123D01*
X23756Y67169D01*
X23067Y68067D01*
X22169Y68756D01*
X21123Y69189D01*
X20000Y69337D01*
D02*
G37*
G36*
X-10000D02*
X-11123Y69189D01*
X-12169Y68756D01*
X-13067Y68067D01*
X-13756Y67169D01*
X-14189Y66123D01*
X-14337Y65000D01*
X-14189Y63877D01*
X-13756Y62831D01*
X-13067Y61933D01*
X-12169Y61244D01*
X-11123Y60811D01*
X-10000Y60663D01*
X-8878Y60811D01*
X-7831Y61244D01*
X-6933Y61933D01*
X-6244Y62831D01*
X-5811Y63877D01*
X-5663Y65000D01*
X-5811Y66123D01*
X-6244Y67169D01*
X-6933Y68067D01*
X-7831Y68756D01*
X-8878Y69189D01*
X-10000Y69337D01*
D02*
G37*
G36*
X-20000D02*
X-21123Y69189D01*
X-22169Y68756D01*
X-23067Y68067D01*
X-23756Y67169D01*
X-24189Y66123D01*
X-24337Y65000D01*
X-24189Y63877D01*
X-23756Y62831D01*
X-23067Y61933D01*
X-22169Y61244D01*
X-21123Y60811D01*
X-20000Y60663D01*
X-18878Y60811D01*
X-17831Y61244D01*
X-16933Y61933D01*
X-16244Y62831D01*
X-15811Y63877D01*
X-15663Y65000D01*
X-15811Y66123D01*
X-16244Y67169D01*
X-16933Y68067D01*
X-17831Y68756D01*
X-18878Y69189D01*
X-20000Y69337D01*
D02*
G37*
G36*
X-30000D02*
X-31122Y69189D01*
X-32168Y68756D01*
X-33067Y68067D01*
X-33756Y67169D01*
X-34189Y66123D01*
X-34337Y65000D01*
X-34189Y63877D01*
X-33964Y63334D01*
X-37149Y60149D01*
X-37348Y59851D01*
X-37418Y59500D01*
Y24595D01*
X-37348Y24243D01*
X-37149Y23946D01*
X-31823Y18620D01*
Y-51025D01*
X-53649Y-72851D01*
X-53848Y-73149D01*
X-53918Y-73500D01*
Y-120708D01*
X-54142Y-120858D01*
X-54492Y-121382D01*
X-54615Y-122000D01*
X-54492Y-122618D01*
X-54142Y-123142D01*
X-53618Y-123492D01*
X-53000Y-123615D01*
X-52382Y-123492D01*
X-51858Y-123142D01*
X-51508Y-122618D01*
X-51385Y-122000D01*
X-51508Y-121382D01*
X-51858Y-120858D01*
X-52082Y-120708D01*
Y-73880D01*
X-30257Y-52054D01*
X-30058Y-51757D01*
X-29988Y-51406D01*
Y19000D01*
X-30058Y19351D01*
X-30257Y19649D01*
X-35582Y24975D01*
Y59120D01*
X-32898Y61804D01*
X-32168Y61244D01*
X-31122Y60811D01*
X-30000Y60663D01*
X-28877Y60811D01*
X-27832Y61244D01*
X-26933Y61933D01*
X-26244Y62831D01*
X-25811Y63877D01*
X-25663Y65000D01*
X-25811Y66123D01*
X-26244Y67169D01*
X-26933Y68067D01*
X-27832Y68756D01*
X-28877Y69189D01*
X-30000Y69337D01*
D02*
G37*
G36*
X30000Y59337D02*
X28877Y59189D01*
X27832Y58756D01*
X26933Y58067D01*
X26244Y57169D01*
X25811Y56122D01*
X25663Y55000D01*
X25811Y53878D01*
X26244Y52831D01*
X26933Y51933D01*
X27832Y51244D01*
X28877Y50811D01*
X30000Y50663D01*
X31122Y50811D01*
X32168Y51244D01*
X33067Y51933D01*
X33756Y52831D01*
X34189Y53878D01*
X34337Y55000D01*
X34189Y56122D01*
X33756Y57169D01*
X33067Y58067D01*
X32168Y58756D01*
X31122Y59189D01*
X30000Y59337D01*
D02*
G37*
G36*
X20000D02*
X18878Y59189D01*
X17831Y58756D01*
X16933Y58067D01*
X16244Y57169D01*
X15811Y56122D01*
X15663Y55000D01*
X15811Y53878D01*
X16244Y52831D01*
X16933Y51933D01*
X17831Y51244D01*
X18878Y50811D01*
X20000Y50663D01*
X21123Y50811D01*
X22169Y51244D01*
X23067Y51933D01*
X23756Y52831D01*
X24189Y53878D01*
X24337Y55000D01*
X24189Y56122D01*
X23756Y57169D01*
X23067Y58067D01*
X22169Y58756D01*
X21123Y59189D01*
X20000Y59337D01*
D02*
G37*
G36*
X10000D02*
X8878Y59189D01*
X7831Y58756D01*
X6933Y58067D01*
X6244Y57169D01*
X5811Y56122D01*
X5663Y55000D01*
X5811Y53878D01*
X6244Y52831D01*
X6933Y51933D01*
X7831Y51244D01*
X8878Y50811D01*
X10000Y50663D01*
X11123Y50811D01*
X12169Y51244D01*
X13067Y51933D01*
X13756Y52831D01*
X14189Y53878D01*
X14337Y55000D01*
X14189Y56122D01*
X13756Y57169D01*
X13067Y58067D01*
X12169Y58756D01*
X11123Y59189D01*
X10000Y59337D01*
D02*
G37*
G36*
X-10000D02*
X-11123Y59189D01*
X-12169Y58756D01*
X-13067Y58067D01*
X-13756Y57169D01*
X-14189Y56122D01*
X-14337Y55000D01*
X-14189Y53878D01*
X-13756Y52831D01*
X-13067Y51933D01*
X-12169Y51244D01*
X-11123Y50811D01*
X-10000Y50663D01*
X-8878Y50811D01*
X-7831Y51244D01*
X-6933Y51933D01*
X-6244Y52831D01*
X-5811Y53878D01*
X-5663Y55000D01*
X-5811Y56122D01*
X-6244Y57169D01*
X-6933Y58067D01*
X-7831Y58756D01*
X-8878Y59189D01*
X-10000Y59337D01*
D02*
G37*
G36*
X-20000D02*
X-21123Y59189D01*
X-22169Y58756D01*
X-23067Y58067D01*
X-23756Y57169D01*
X-24189Y56122D01*
X-24337Y55000D01*
X-24189Y53878D01*
X-23756Y52831D01*
X-23067Y51933D01*
X-22169Y51244D01*
X-21123Y50811D01*
X-20000Y50663D01*
X-18878Y50811D01*
X-17831Y51244D01*
X-16933Y51933D01*
X-16244Y52831D01*
X-15811Y53878D01*
X-15663Y55000D01*
X-15811Y56122D01*
X-16244Y57169D01*
X-16933Y58067D01*
X-17831Y58756D01*
X-18878Y59189D01*
X-20000Y59337D01*
D02*
G37*
G36*
X-30000D02*
X-31122Y59189D01*
X-32168Y58756D01*
X-33067Y58067D01*
X-33756Y57169D01*
X-34189Y56122D01*
X-34337Y55000D01*
X-34189Y53878D01*
X-33756Y52831D01*
X-33067Y51933D01*
X-32168Y51244D01*
X-31122Y50811D01*
X-30000Y50663D01*
X-28877Y50811D01*
X-27832Y51244D01*
X-26933Y51933D01*
X-26244Y52831D01*
X-25811Y53878D01*
X-25663Y55000D01*
X-25811Y56122D01*
X-26244Y57169D01*
X-26933Y58067D01*
X-27832Y58756D01*
X-28877Y59189D01*
X-30000Y59337D01*
D02*
G37*
G36*
X130000Y49337D02*
X128877Y49189D01*
X127831Y48756D01*
X126933Y48067D01*
X126244Y47168D01*
X125811Y46123D01*
X125663Y45000D01*
X125811Y43878D01*
X126244Y42832D01*
X126933Y41933D01*
X127831Y41244D01*
X128877Y40811D01*
X130000Y40663D01*
X131123Y40811D01*
X132169Y41244D01*
X133067Y41933D01*
X133756Y42832D01*
X134189Y43878D01*
X134337Y45000D01*
X134189Y46123D01*
X133756Y47168D01*
X133067Y48067D01*
X132169Y48756D01*
X131123Y49189D01*
X130000Y49337D01*
D02*
G37*
G36*
X30000D02*
X28877Y49189D01*
X27832Y48756D01*
X26933Y48067D01*
X26244Y47168D01*
X25811Y46123D01*
X25663Y45000D01*
X25811Y43878D01*
X26244Y42832D01*
X26933Y41933D01*
X27832Y41244D01*
X28877Y40811D01*
X30000Y40663D01*
X31122Y40811D01*
X32168Y41244D01*
X33067Y41933D01*
X33756Y42832D01*
X34189Y43878D01*
X34337Y45000D01*
X34189Y46123D01*
X33756Y47168D01*
X33067Y48067D01*
X32168Y48756D01*
X31122Y49189D01*
X30000Y49337D01*
D02*
G37*
G36*
X20000D02*
X18878Y49189D01*
X17831Y48756D01*
X16933Y48067D01*
X16244Y47168D01*
X15811Y46123D01*
X15663Y45000D01*
X15811Y43878D01*
X16244Y42832D01*
X16933Y41933D01*
X17831Y41244D01*
X18878Y40811D01*
X20000Y40663D01*
X21123Y40811D01*
X22169Y41244D01*
X23067Y41933D01*
X23756Y42832D01*
X24189Y43878D01*
X24337Y45000D01*
X24189Y46123D01*
X23756Y47168D01*
X23067Y48067D01*
X22169Y48756D01*
X21123Y49189D01*
X20000Y49337D01*
D02*
G37*
G36*
X10000D02*
X8878Y49189D01*
X7831Y48756D01*
X6933Y48067D01*
X6244Y47168D01*
X5811Y46123D01*
X5663Y45000D01*
X5811Y43878D01*
X6244Y42832D01*
X6933Y41933D01*
X7831Y41244D01*
X8878Y40811D01*
X10000Y40663D01*
X11123Y40811D01*
X12169Y41244D01*
X13067Y41933D01*
X13756Y42832D01*
X14189Y43878D01*
X14337Y45000D01*
X14189Y46123D01*
X13756Y47168D01*
X13067Y48067D01*
X12169Y48756D01*
X11123Y49189D01*
X10000Y49337D01*
D02*
G37*
G36*
X-10000D02*
X-11123Y49189D01*
X-12169Y48756D01*
X-13067Y48067D01*
X-13756Y47168D01*
X-14189Y46123D01*
X-14337Y45000D01*
X-14189Y43878D01*
X-13756Y42832D01*
X-13067Y41933D01*
X-12169Y41244D01*
X-11123Y40811D01*
X-10000Y40663D01*
X-8878Y40811D01*
X-7831Y41244D01*
X-6933Y41933D01*
X-6244Y42832D01*
X-5811Y43878D01*
X-5663Y45000D01*
X-5811Y46123D01*
X-6244Y47168D01*
X-6933Y48067D01*
X-7831Y48756D01*
X-8878Y49189D01*
X-10000Y49337D01*
D02*
G37*
G36*
X-20000D02*
X-21123Y49189D01*
X-22169Y48756D01*
X-23067Y48067D01*
X-23756Y47168D01*
X-24189Y46123D01*
X-24337Y45000D01*
X-24189Y43878D01*
X-23756Y42832D01*
X-23067Y41933D01*
X-22169Y41244D01*
X-21123Y40811D01*
X-20000Y40663D01*
X-18878Y40811D01*
X-17831Y41244D01*
X-16933Y41933D01*
X-16244Y42832D01*
X-15811Y43878D01*
X-15663Y45000D01*
X-15811Y46123D01*
X-16244Y47168D01*
X-16933Y48067D01*
X-17831Y48756D01*
X-18878Y49189D01*
X-20000Y49337D01*
D02*
G37*
G36*
X-30000D02*
X-31122Y49189D01*
X-32168Y48756D01*
X-33067Y48067D01*
X-33756Y47168D01*
X-34189Y46123D01*
X-34337Y45000D01*
X-34189Y43878D01*
X-33756Y42832D01*
X-33067Y41933D01*
X-32168Y41244D01*
X-31122Y40811D01*
X-30000Y40663D01*
X-28877Y40811D01*
X-27832Y41244D01*
X-26933Y41933D01*
X-26244Y42832D01*
X-25811Y43878D01*
X-25663Y45000D01*
X-25811Y46123D01*
X-26244Y47168D01*
X-26933Y48067D01*
X-27832Y48756D01*
X-28877Y49189D01*
X-30000Y49337D01*
D02*
G37*
G36*
X-55000Y44337D02*
X-56122Y44189D01*
X-57169Y43756D01*
X-58067Y43067D01*
X-58756Y42169D01*
X-59189Y41122D01*
X-59337Y40000D01*
X-59189Y38877D01*
X-58756Y37832D01*
X-58067Y36933D01*
X-57169Y36244D01*
X-56122Y35811D01*
X-55000Y35663D01*
X-53878Y35811D01*
X-52831Y36244D01*
X-51933Y36933D01*
X-51244Y37832D01*
X-50811Y38877D01*
X-50663Y40000D01*
X-50811Y41122D01*
X-51244Y42169D01*
X-51933Y43067D01*
X-52831Y43756D01*
X-53878Y44189D01*
X-55000Y44337D01*
D02*
G37*
G36*
X-95000Y39337D02*
X-96122Y39189D01*
X-97169Y38756D01*
X-98067Y38067D01*
X-98756Y37168D01*
X-99189Y36123D01*
X-99337Y35000D01*
X-99189Y33878D01*
X-98756Y32831D01*
X-98067Y31933D01*
X-97169Y31244D01*
X-96122Y30811D01*
X-95000Y30663D01*
X-93878Y30811D01*
X-92831Y31244D01*
X-91933Y31933D01*
X-91244Y32831D01*
X-90811Y33878D01*
X-90663Y35000D01*
X-90811Y36123D01*
X-91244Y37168D01*
X-91933Y38067D01*
X-92831Y38756D01*
X-93878Y39189D01*
X-95000Y39337D01*
D02*
G37*
G36*
X-173063Y28310D02*
X-173796Y28164D01*
X-174418Y27749D01*
X-174834Y27127D01*
X-174979Y26394D01*
X-174834Y25660D01*
X-174418Y25039D01*
X-173796Y24623D01*
X-173063Y24477D01*
X-172330Y24623D01*
X-171708Y25039D01*
X-171292Y25660D01*
X-171147Y26394D01*
X-171292Y27127D01*
X-171708Y27749D01*
X-172330Y28164D01*
X-173063Y28310D01*
D02*
G37*
G36*
X-142000Y32337D02*
X-143122Y32189D01*
X-144169Y31756D01*
X-145067Y31067D01*
X-145756Y30169D01*
X-146189Y29122D01*
X-146337Y28000D01*
X-146189Y26877D01*
X-145756Y25831D01*
X-145067Y24933D01*
X-144169Y24244D01*
X-143122Y23811D01*
X-142000Y23663D01*
X-140877Y23811D01*
X-139831Y24244D01*
X-138933Y24933D01*
X-138244Y25831D01*
X-137811Y26877D01*
X-137663Y28000D01*
X-137811Y29122D01*
X-138244Y30169D01*
X-138933Y31067D01*
X-139831Y31756D01*
X-140877Y32189D01*
X-142000Y32337D01*
D02*
G37*
G36*
X75000Y24337D02*
X73878Y24189D01*
X72831Y23756D01*
X71933Y23067D01*
X71244Y22169D01*
X70811Y21123D01*
X70663Y20000D01*
X70811Y18878D01*
X71244Y17831D01*
X71933Y16933D01*
X72831Y16244D01*
X73878Y15811D01*
X75000Y15663D01*
X76122Y15811D01*
X77169Y16244D01*
X78067Y16933D01*
X78756Y17831D01*
X79189Y18878D01*
X79337Y20000D01*
X79189Y21123D01*
X78756Y22169D01*
X78067Y23067D01*
X77169Y23756D01*
X76122Y24189D01*
X75000Y24337D01*
D02*
G37*
G36*
X65000D02*
X63877Y24189D01*
X62831Y23756D01*
X61933Y23067D01*
X61244Y22169D01*
X60811Y21123D01*
X60663Y20000D01*
X60811Y18878D01*
X61244Y17831D01*
X61933Y16933D01*
X62831Y16244D01*
X63877Y15811D01*
X65000Y15663D01*
X66123Y15811D01*
X67169Y16244D01*
X68067Y16933D01*
X68756Y17831D01*
X69189Y18878D01*
X69337Y20000D01*
X69189Y21123D01*
X68756Y22169D01*
X68067Y23067D01*
X67169Y23756D01*
X66123Y24189D01*
X65000Y24337D01*
D02*
G37*
G36*
X55000D02*
X53878Y24189D01*
X52831Y23756D01*
X51933Y23067D01*
X51244Y22169D01*
X50811Y21123D01*
X50663Y20000D01*
X50811Y18878D01*
X51244Y17831D01*
X51933Y16933D01*
X52831Y16244D01*
X53878Y15811D01*
X55000Y15663D01*
X56122Y15811D01*
X57169Y16244D01*
X58067Y16933D01*
X58756Y17831D01*
X59189Y18878D01*
X59337Y20000D01*
X59189Y21123D01*
X58756Y22169D01*
X58067Y23067D01*
X57169Y23756D01*
X56122Y24189D01*
X55000Y24337D01*
D02*
G37*
G36*
X-55000D02*
X-56122Y24189D01*
X-57169Y23756D01*
X-58067Y23067D01*
X-58756Y22169D01*
X-59189Y21123D01*
X-59337Y20000D01*
X-59189Y18878D01*
X-58756Y17831D01*
X-58067Y16933D01*
X-57169Y16244D01*
X-56122Y15811D01*
X-55000Y15663D01*
X-53878Y15811D01*
X-52831Y16244D01*
X-51933Y16933D01*
X-51244Y17831D01*
X-50811Y18878D01*
X-50663Y20000D01*
X-50811Y21123D01*
X-51244Y22169D01*
X-51933Y23067D01*
X-52831Y23756D01*
X-53878Y24189D01*
X-55000Y24337D01*
D02*
G37*
G36*
X-65000D02*
X-66123Y24189D01*
X-67169Y23756D01*
X-68067Y23067D01*
X-68756Y22169D01*
X-69189Y21123D01*
X-69337Y20000D01*
X-69189Y18878D01*
X-68756Y17831D01*
X-68067Y16933D01*
X-67169Y16244D01*
X-66123Y15811D01*
X-65000Y15663D01*
X-63877Y15811D01*
X-62831Y16244D01*
X-61933Y16933D01*
X-61244Y17831D01*
X-60811Y18878D01*
X-60663Y20000D01*
X-60811Y21123D01*
X-61244Y22169D01*
X-61933Y23067D01*
X-62831Y23756D01*
X-63877Y24189D01*
X-65000Y24337D01*
D02*
G37*
G36*
X-75000D02*
X-76122Y24189D01*
X-77169Y23756D01*
X-78067Y23067D01*
X-78756Y22169D01*
X-79189Y21123D01*
X-79337Y20000D01*
X-79250Y19336D01*
X-82793Y15793D01*
X-83036Y15429D01*
X-83122Y15000D01*
X-83122Y15000D01*
Y10465D01*
X-84976Y8610D01*
X-85000Y8615D01*
X-85618Y8492D01*
X-86142Y8142D01*
X-86492Y7618D01*
X-86615Y7000D01*
X-86492Y6382D01*
X-86142Y5858D01*
X-85618Y5508D01*
X-85000Y5385D01*
X-84382Y5508D01*
X-83858Y5858D01*
X-83508Y6382D01*
X-83385Y7000D01*
X-83390Y7024D01*
X-81207Y9207D01*
X-80964Y9571D01*
X-80878Y10000D01*
X-80878Y10000D01*
Y14535D01*
X-78455Y16959D01*
X-78067Y16933D01*
X-77169Y16244D01*
X-76122Y15811D01*
X-75000Y15663D01*
X-73878Y15811D01*
X-72831Y16244D01*
X-71933Y16933D01*
X-71244Y17831D01*
X-70811Y18878D01*
X-70663Y20000D01*
X-70811Y21123D01*
X-71244Y22169D01*
X-71933Y23067D01*
X-72831Y23756D01*
X-73878Y24189D01*
X-75000Y24337D01*
D02*
G37*
G36*
X-162000Y22615D02*
X-162618Y22492D01*
X-163142Y22142D01*
X-163492Y21618D01*
X-163615Y21000D01*
X-163492Y20382D01*
X-163142Y19858D01*
X-162618Y19508D01*
X-162000Y19385D01*
X-161735Y19437D01*
X-160918Y18620D01*
Y14292D01*
X-161142Y14142D01*
X-161492Y13618D01*
X-161615Y13000D01*
X-161492Y12382D01*
X-161142Y11858D01*
X-160618Y11508D01*
X-160000Y11385D01*
X-159382Y11508D01*
X-158858Y11858D01*
X-158508Y12382D01*
X-158385Y13000D01*
X-158508Y13618D01*
X-158858Y14142D01*
X-159082Y14292D01*
Y19000D01*
X-159152Y19351D01*
X-159351Y19649D01*
X-160437Y20735D01*
X-160385Y21000D01*
X-160508Y21618D01*
X-160858Y22142D01*
X-161382Y22492D01*
X-162000Y22615D01*
D02*
G37*
G36*
X75000Y39615D02*
X74382Y39492D01*
X73858Y39142D01*
X73508Y38618D01*
X73385Y38000D01*
X73508Y37382D01*
X73858Y36858D01*
X73878Y36844D01*
Y35000D01*
X73878Y35000D01*
X73964Y34571D01*
X74207Y34207D01*
X91245Y17169D01*
X91244Y17168D01*
X90811Y16123D01*
X90663Y15000D01*
X90811Y13878D01*
X91244Y12832D01*
X91933Y11933D01*
X92831Y11244D01*
X93878Y10811D01*
X95000Y10663D01*
X96122Y10811D01*
X97169Y11244D01*
X98067Y11933D01*
X98756Y12832D01*
X99189Y13878D01*
X99337Y15000D01*
X99189Y16123D01*
X98756Y17168D01*
X98067Y18067D01*
X97169Y18756D01*
X96122Y19189D01*
X95000Y19337D01*
X93878Y19189D01*
X92831Y18756D01*
X92831Y18755D01*
X76122Y35465D01*
Y36844D01*
X76142Y36858D01*
X76492Y37382D01*
X76615Y38000D01*
X76492Y38618D01*
X76142Y39142D01*
X75618Y39492D01*
X75000Y39615D01*
D02*
G37*
G36*
X-133000Y14631D02*
X-133624Y14507D01*
X-134153Y14153D01*
X-137426Y10881D01*
X-158250D01*
X-158874Y10757D01*
X-159404Y10403D01*
X-163154Y6654D01*
X-163507Y6124D01*
X-163631Y5500D01*
Y-71500D01*
X-163507Y-72124D01*
X-163154Y-72654D01*
X-162624Y-73007D01*
X-162000Y-73131D01*
X-161376Y-73007D01*
X-160846Y-72654D01*
X-160493Y-72124D01*
X-160369Y-71500D01*
Y4824D01*
X-157574Y7619D01*
X-136750D01*
X-136126Y7743D01*
X-135597Y8096D01*
X-133000Y10693D01*
X-130154Y7846D01*
X-129624Y7493D01*
X-129000Y7369D01*
X-111000D01*
X-110376Y7493D01*
X-109846Y7846D01*
X-107846Y9847D01*
X-107493Y10376D01*
X-107369Y11000D01*
X-107493Y11624D01*
X-107846Y12154D01*
X-108376Y12507D01*
X-109000Y12631D01*
X-109624Y12507D01*
X-110153Y12154D01*
X-111676Y10631D01*
X-128324D01*
X-131846Y14153D01*
X-132376Y14507D01*
X-133000Y14631D01*
D02*
G37*
G36*
X75000Y14337D02*
X73878Y14189D01*
X72831Y13756D01*
X71933Y13067D01*
X71244Y12169D01*
X70811Y11123D01*
X70663Y10000D01*
X70811Y8878D01*
X71244Y7831D01*
X71933Y6933D01*
X72831Y6244D01*
X73878Y5811D01*
X75000Y5663D01*
X76122Y5811D01*
X77169Y6244D01*
X78067Y6933D01*
X78756Y7831D01*
X79189Y8878D01*
X79337Y10000D01*
X79189Y11123D01*
X78756Y12169D01*
X78067Y13067D01*
X77169Y13756D01*
X76122Y14189D01*
X75000Y14337D01*
D02*
G37*
G36*
X65000D02*
X63877Y14189D01*
X62831Y13756D01*
X61933Y13067D01*
X61244Y12169D01*
X60811Y11123D01*
X60663Y10000D01*
X60811Y8878D01*
X61244Y7831D01*
X61933Y6933D01*
X62831Y6244D01*
X63877Y5811D01*
X65000Y5663D01*
X66123Y5811D01*
X67169Y6244D01*
X68067Y6933D01*
X68756Y7831D01*
X69189Y8878D01*
X69337Y10000D01*
X69189Y11123D01*
X68756Y12169D01*
X68067Y13067D01*
X67169Y13756D01*
X66123Y14189D01*
X65000Y14337D01*
D02*
G37*
G36*
X55000D02*
X53878Y14189D01*
X52831Y13756D01*
X51933Y13067D01*
X51244Y12169D01*
X50811Y11123D01*
X50663Y10000D01*
X50811Y8878D01*
X51244Y7831D01*
X51933Y6933D01*
X52831Y6244D01*
X53878Y5811D01*
X55000Y5663D01*
X56122Y5811D01*
X57169Y6244D01*
X58067Y6933D01*
X58756Y7831D01*
X59189Y8878D01*
X59337Y10000D01*
X59189Y11123D01*
X58756Y12169D01*
X58067Y13067D01*
X57169Y13756D01*
X56122Y14189D01*
X55000Y14337D01*
D02*
G37*
G36*
X-55000D02*
X-56122Y14189D01*
X-57169Y13756D01*
X-58067Y13067D01*
X-58756Y12169D01*
X-59189Y11123D01*
X-59337Y10000D01*
X-59189Y8878D01*
X-58756Y7831D01*
X-58067Y6933D01*
X-57169Y6244D01*
X-56122Y5811D01*
X-55000Y5663D01*
X-53878Y5811D01*
X-52831Y6244D01*
X-51933Y6933D01*
X-51244Y7831D01*
X-50811Y8878D01*
X-50663Y10000D01*
X-50811Y11123D01*
X-51244Y12169D01*
X-51933Y13067D01*
X-52831Y13756D01*
X-53878Y14189D01*
X-55000Y14337D01*
D02*
G37*
G36*
X-65000D02*
X-66123Y14189D01*
X-67169Y13756D01*
X-68067Y13067D01*
X-68756Y12169D01*
X-69189Y11123D01*
X-69337Y10000D01*
X-69189Y8878D01*
X-68756Y7831D01*
X-68067Y6933D01*
X-67169Y6244D01*
X-66123Y5811D01*
X-65000Y5663D01*
X-63877Y5811D01*
X-62831Y6244D01*
X-61933Y6933D01*
X-61244Y7831D01*
X-60811Y8878D01*
X-60663Y10000D01*
X-60811Y11123D01*
X-61244Y12169D01*
X-61933Y13067D01*
X-62831Y13756D01*
X-63877Y14189D01*
X-65000Y14337D01*
D02*
G37*
G36*
X-75000D02*
X-76122Y14189D01*
X-77169Y13756D01*
X-78067Y13067D01*
X-78756Y12169D01*
X-79189Y11123D01*
X-79337Y10000D01*
X-79189Y8878D01*
X-78756Y7831D01*
X-78067Y6933D01*
X-77169Y6244D01*
X-76122Y5811D01*
X-75000Y5663D01*
X-73878Y5811D01*
X-72831Y6244D01*
X-71933Y6933D01*
X-71244Y7831D01*
X-70811Y8878D01*
X-70663Y10000D01*
X-70811Y11123D01*
X-71244Y12169D01*
X-71933Y13067D01*
X-72831Y13756D01*
X-73878Y14189D01*
X-75000Y14337D01*
D02*
G37*
G36*
X-173063Y5554D02*
X-173796Y5408D01*
X-174418Y4993D01*
X-174834Y4371D01*
X-174979Y3638D01*
X-174834Y2904D01*
X-174418Y2283D01*
X-173796Y1867D01*
X-173063Y1721D01*
X-172330Y1867D01*
X-171708Y2283D01*
X-171292Y2904D01*
X-171147Y3638D01*
X-171292Y4371D01*
X-171708Y4993D01*
X-172330Y5408D01*
X-173063Y5554D01*
D02*
G37*
G36*
X-142000Y6337D02*
X-143122Y6189D01*
X-144169Y5756D01*
X-145067Y5067D01*
X-145756Y4169D01*
X-146189Y3122D01*
X-146337Y2000D01*
X-146189Y878D01*
X-145756Y-169D01*
X-145067Y-1067D01*
X-144169Y-1756D01*
X-143122Y-2189D01*
X-142000Y-2337D01*
X-140877Y-2189D01*
X-139831Y-1756D01*
X-138933Y-1067D01*
X-138244Y-169D01*
X-137811Y878D01*
X-137663Y2000D01*
X-137811Y3122D01*
X-138244Y4169D01*
X-138933Y5067D01*
X-139831Y5756D01*
X-140877Y6189D01*
X-142000Y6337D01*
D02*
G37*
G36*
X130000Y4337D02*
X128877Y4189D01*
X127831Y3756D01*
X126933Y3067D01*
X126244Y2169D01*
X125811Y1123D01*
X125663Y0D01*
X125811Y-1123D01*
X126244Y-2169D01*
X126933Y-3067D01*
X127831Y-3756D01*
X128877Y-4189D01*
X130000Y-4337D01*
X131123Y-4189D01*
X132169Y-3756D01*
X133067Y-3067D01*
X133756Y-2169D01*
X134189Y-1123D01*
X134337Y0D01*
X134189Y1123D01*
X133756Y2169D01*
X133067Y3067D01*
X132169Y3756D01*
X131123Y4189D01*
X130000Y4337D01*
D02*
G37*
G36*
X115000D02*
X113877Y4189D01*
X112831Y3756D01*
X111933Y3067D01*
X111244Y2169D01*
X110811Y1123D01*
X110663Y0D01*
X110811Y-1123D01*
X111244Y-2169D01*
X111933Y-3067D01*
X112831Y-3756D01*
X113877Y-4189D01*
X115000Y-4337D01*
X116122Y-4189D01*
X117169Y-3756D01*
X118067Y-3067D01*
X118756Y-2169D01*
X119189Y-1123D01*
X119337Y0D01*
X119189Y1123D01*
X118756Y2169D01*
X118067Y3067D01*
X117169Y3756D01*
X116122Y4189D01*
X115000Y4337D01*
D02*
G37*
G36*
X105000D02*
X103877Y4189D01*
X102831Y3756D01*
X101933Y3067D01*
X101244Y2169D01*
X100811Y1123D01*
X100663Y0D01*
X100811Y-1123D01*
X101244Y-2169D01*
X101933Y-3067D01*
X102831Y-3756D01*
X103877Y-4189D01*
X105000Y-4337D01*
X106123Y-4189D01*
X107169Y-3756D01*
X108067Y-3067D01*
X108756Y-2169D01*
X109189Y-1123D01*
X109337Y0D01*
X109189Y1123D01*
X108756Y2169D01*
X108067Y3067D01*
X107169Y3756D01*
X106123Y4189D01*
X105000Y4337D01*
D02*
G37*
G36*
X95000D02*
X93878Y4189D01*
X92831Y3756D01*
X91933Y3067D01*
X91244Y2169D01*
X90811Y1123D01*
X90663Y0D01*
X90811Y-1123D01*
X91244Y-2169D01*
X91933Y-3067D01*
X92831Y-3756D01*
X93878Y-4189D01*
X95000Y-4337D01*
X96122Y-4189D01*
X97169Y-3756D01*
X98067Y-3067D01*
X98756Y-2169D01*
X99189Y-1123D01*
X99337Y0D01*
X99189Y1123D01*
X98756Y2169D01*
X98067Y3067D01*
X97169Y3756D01*
X96122Y4189D01*
X95000Y4337D01*
D02*
G37*
G36*
X75000D02*
X73878Y4189D01*
X72831Y3756D01*
X71933Y3067D01*
X71244Y2169D01*
X70811Y1123D01*
X70663Y0D01*
X70811Y-1123D01*
X71244Y-2169D01*
X71933Y-3067D01*
X72831Y-3756D01*
X73878Y-4189D01*
X75000Y-4337D01*
X76122Y-4189D01*
X77169Y-3756D01*
X78067Y-3067D01*
X78756Y-2169D01*
X79189Y-1123D01*
X79337Y0D01*
X79189Y1123D01*
X78756Y2169D01*
X78067Y3067D01*
X77169Y3756D01*
X76122Y4189D01*
X75000Y4337D01*
D02*
G37*
G36*
X65000D02*
X63877Y4189D01*
X62831Y3756D01*
X61933Y3067D01*
X61244Y2169D01*
X60811Y1123D01*
X60663Y0D01*
X60811Y-1123D01*
X61244Y-2169D01*
X61933Y-3067D01*
X62831Y-3756D01*
X63877Y-4189D01*
X65000Y-4337D01*
X66123Y-4189D01*
X67169Y-3756D01*
X68067Y-3067D01*
X68756Y-2169D01*
X69189Y-1123D01*
X69337Y0D01*
X69189Y1123D01*
X68756Y2169D01*
X68067Y3067D01*
X67169Y3756D01*
X66123Y4189D01*
X65000Y4337D01*
D02*
G37*
G36*
X55000D02*
X53878Y4189D01*
X52831Y3756D01*
X51933Y3067D01*
X51244Y2169D01*
X50811Y1123D01*
X50663Y0D01*
X50811Y-1123D01*
X51244Y-2169D01*
X51933Y-3067D01*
X52831Y-3756D01*
X53878Y-4189D01*
X55000Y-4337D01*
X56122Y-4189D01*
X57169Y-3756D01*
X58067Y-3067D01*
X58756Y-2169D01*
X59189Y-1123D01*
X59337Y0D01*
X59189Y1123D01*
X58756Y2169D01*
X58067Y3067D01*
X57169Y3756D01*
X56122Y4189D01*
X55000Y4337D01*
D02*
G37*
G36*
X-55000D02*
X-56122Y4189D01*
X-57169Y3756D01*
X-58067Y3067D01*
X-58756Y2169D01*
X-59189Y1123D01*
X-59337Y0D01*
X-59189Y-1123D01*
X-58756Y-2169D01*
X-58067Y-3067D01*
X-57169Y-3756D01*
X-56122Y-4189D01*
X-55000Y-4337D01*
X-53878Y-4189D01*
X-52831Y-3756D01*
X-51933Y-3067D01*
X-51244Y-2169D01*
X-50811Y-1123D01*
X-50663Y0D01*
X-50811Y1123D01*
X-51244Y2169D01*
X-51933Y3067D01*
X-52831Y3756D01*
X-53878Y4189D01*
X-55000Y4337D01*
D02*
G37*
G36*
X-65000D02*
X-66123Y4189D01*
X-67169Y3756D01*
X-68067Y3067D01*
X-68756Y2169D01*
X-69189Y1123D01*
X-69337Y0D01*
X-69189Y-1123D01*
X-68756Y-2169D01*
X-68067Y-3067D01*
X-67169Y-3756D01*
X-66123Y-4189D01*
X-65000Y-4337D01*
X-63877Y-4189D01*
X-62831Y-3756D01*
X-61933Y-3067D01*
X-61244Y-2169D01*
X-60811Y-1123D01*
X-60663Y0D01*
X-60811Y1123D01*
X-61244Y2169D01*
X-61933Y3067D01*
X-62831Y3756D01*
X-63877Y4189D01*
X-65000Y4337D01*
D02*
G37*
G36*
X-100000D02*
X-101122Y4189D01*
X-102169Y3756D01*
X-103067Y3067D01*
X-103756Y2169D01*
X-104189Y1123D01*
X-104337Y0D01*
X-104189Y-1123D01*
X-103756Y-2169D01*
X-103067Y-3067D01*
X-102169Y-3756D01*
X-101122Y-4189D01*
X-100000Y-4337D01*
X-98878Y-4189D01*
X-97831Y-3756D01*
X-96933Y-3067D01*
X-96244Y-2169D01*
X-95811Y-1123D01*
X-95663Y0D01*
X-95811Y1123D01*
X-96244Y2169D01*
X-96933Y3067D01*
X-97831Y3756D01*
X-98878Y4189D01*
X-100000Y4337D01*
D02*
G37*
G36*
X-75000D02*
X-76122Y4189D01*
X-77169Y3756D01*
X-78067Y3067D01*
X-78756Y2169D01*
X-79189Y1123D01*
X-79337Y0D01*
X-79189Y-1123D01*
X-78756Y-2169D01*
X-78067Y-3067D01*
X-77169Y-3756D01*
X-76122Y-4189D01*
X-75000Y-4337D01*
X-73878Y-4189D01*
X-72831Y-3756D01*
X-72667Y-3630D01*
X-70918Y-5380D01*
Y-7435D01*
X-71418Y-7605D01*
X-71933Y-6933D01*
X-72831Y-6244D01*
X-73878Y-5811D01*
X-75000Y-5663D01*
X-76122Y-5811D01*
X-77169Y-6244D01*
X-78067Y-6933D01*
X-78756Y-7831D01*
X-79189Y-8878D01*
X-79337Y-10000D01*
X-79189Y-11123D01*
X-78756Y-12169D01*
X-78067Y-13067D01*
X-77169Y-13756D01*
X-76122Y-14189D01*
X-75000Y-14337D01*
X-73878Y-14189D01*
X-72831Y-13756D01*
X-71933Y-13067D01*
X-71418Y-12395D01*
X-70918Y-12565D01*
Y-17435D01*
X-71418Y-17605D01*
X-71933Y-16933D01*
X-72831Y-16244D01*
X-73878Y-15811D01*
X-75000Y-15663D01*
X-76122Y-15811D01*
X-77169Y-16244D01*
X-78067Y-16933D01*
X-78756Y-17831D01*
X-79189Y-18878D01*
X-79337Y-20000D01*
X-79189Y-21123D01*
X-78756Y-22169D01*
X-78630Y-22332D01*
X-83380Y-27082D01*
X-105708D01*
X-105858Y-26858D01*
X-106382Y-26508D01*
X-107000Y-26385D01*
X-107618Y-26508D01*
X-108142Y-26858D01*
X-108492Y-27382D01*
X-108615Y-28000D01*
X-108492Y-28618D01*
X-108142Y-29142D01*
X-107618Y-29492D01*
X-107000Y-29615D01*
X-106382Y-29492D01*
X-105858Y-29142D01*
X-105708Y-28918D01*
X-83000D01*
X-82649Y-28848D01*
X-82351Y-28649D01*
X-77333Y-23630D01*
X-77169Y-23756D01*
X-76122Y-24189D01*
X-75000Y-24337D01*
X-73878Y-24189D01*
X-72831Y-23756D01*
X-71933Y-23067D01*
X-71418Y-22395D01*
X-70918Y-22565D01*
Y-27435D01*
X-71418Y-27605D01*
X-71933Y-26933D01*
X-72831Y-26244D01*
X-73878Y-25811D01*
X-75000Y-25663D01*
X-76122Y-25811D01*
X-77169Y-26244D01*
X-78067Y-26933D01*
X-78756Y-27832D01*
X-79189Y-28877D01*
X-79337Y-30000D01*
X-79189Y-31122D01*
X-78756Y-32168D01*
X-78067Y-33067D01*
X-77169Y-33756D01*
X-76122Y-34189D01*
X-75000Y-34337D01*
X-73878Y-34189D01*
X-72831Y-33756D01*
X-71933Y-33067D01*
X-71418Y-32395D01*
X-70918Y-32565D01*
Y-37435D01*
X-71418Y-37605D01*
X-71933Y-36933D01*
X-72831Y-36244D01*
X-73878Y-35811D01*
X-75000Y-35663D01*
X-76122Y-35811D01*
X-77169Y-36244D01*
X-77333Y-36370D01*
X-80235Y-33467D01*
X-80533Y-33268D01*
X-80884Y-33198D01*
X-105083D01*
X-105216Y-33000D01*
X-105740Y-32650D01*
X-106358Y-32527D01*
X-106976Y-32650D01*
X-107500Y-33000D01*
X-107850Y-33524D01*
X-107973Y-34142D01*
X-107850Y-34760D01*
X-107500Y-35284D01*
X-106976Y-35634D01*
X-106358Y-35757D01*
X-105740Y-35634D01*
X-105216Y-35284D01*
X-105048Y-35033D01*
X-81264D01*
X-78630Y-37668D01*
X-78756Y-37832D01*
X-79189Y-38877D01*
X-79337Y-40000D01*
X-79189Y-41122D01*
X-78756Y-42169D01*
X-78067Y-43067D01*
X-77169Y-43756D01*
X-76122Y-44189D01*
X-75000Y-44337D01*
X-73878Y-44189D01*
X-72831Y-43756D01*
X-71933Y-43067D01*
X-71418Y-42395D01*
X-70918Y-42565D01*
Y-47000D01*
X-70848Y-47351D01*
X-70649Y-47649D01*
X-67918Y-50380D01*
Y-114208D01*
X-68142Y-114358D01*
X-68492Y-114882D01*
X-68615Y-115500D01*
X-68492Y-116118D01*
X-68142Y-116642D01*
X-67618Y-116992D01*
X-67000Y-117115D01*
X-66382Y-116992D01*
X-65858Y-116642D01*
X-65508Y-116118D01*
X-65385Y-115500D01*
X-65508Y-114882D01*
X-65858Y-114358D01*
X-66082Y-114208D01*
Y-50000D01*
X-66152Y-49649D01*
X-66351Y-49351D01*
X-69082Y-46620D01*
Y-42565D01*
X-68582Y-42395D01*
X-68067Y-43067D01*
X-67169Y-43756D01*
X-66123Y-44189D01*
X-65000Y-44337D01*
X-63877Y-44189D01*
X-62831Y-43756D01*
X-61933Y-43067D01*
X-61244Y-42169D01*
X-60811Y-41122D01*
X-60663Y-40000D01*
X-60811Y-38877D01*
X-61244Y-37832D01*
X-61933Y-36933D01*
X-62831Y-36244D01*
X-63877Y-35811D01*
X-65000Y-35663D01*
X-66123Y-35811D01*
X-67169Y-36244D01*
X-68067Y-36933D01*
X-68582Y-37605D01*
X-69082Y-37435D01*
Y-32565D01*
X-68582Y-32395D01*
X-68067Y-33067D01*
X-67169Y-33756D01*
X-66123Y-34189D01*
X-65000Y-34337D01*
X-63877Y-34189D01*
X-62831Y-33756D01*
X-61933Y-33067D01*
X-61244Y-32168D01*
X-60811Y-31122D01*
X-60663Y-30000D01*
X-60811Y-28877D01*
X-61244Y-27832D01*
X-61933Y-26933D01*
X-62831Y-26244D01*
X-63877Y-25811D01*
X-65000Y-25663D01*
X-66123Y-25811D01*
X-67169Y-26244D01*
X-68067Y-26933D01*
X-68582Y-27605D01*
X-69082Y-27435D01*
Y-22565D01*
X-68582Y-22395D01*
X-68067Y-23067D01*
X-67169Y-23756D01*
X-66123Y-24189D01*
X-65000Y-24337D01*
X-63877Y-24189D01*
X-62831Y-23756D01*
X-61933Y-23067D01*
X-61244Y-22169D01*
X-60811Y-21123D01*
X-60663Y-20000D01*
X-60811Y-18878D01*
X-61244Y-17831D01*
X-61933Y-16933D01*
X-62831Y-16244D01*
X-63877Y-15811D01*
X-65000Y-15663D01*
X-66123Y-15811D01*
X-67169Y-16244D01*
X-68067Y-16933D01*
X-68582Y-17605D01*
X-69082Y-17435D01*
Y-12565D01*
X-68582Y-12395D01*
X-68067Y-13067D01*
X-67169Y-13756D01*
X-66123Y-14189D01*
X-65000Y-14337D01*
X-63877Y-14189D01*
X-62831Y-13756D01*
X-61933Y-13067D01*
X-61244Y-12169D01*
X-60811Y-11123D01*
X-60663Y-10000D01*
X-60811Y-8878D01*
X-61244Y-7831D01*
X-61933Y-6933D01*
X-62831Y-6244D01*
X-63877Y-5811D01*
X-65000Y-5663D01*
X-66123Y-5811D01*
X-67169Y-6244D01*
X-68067Y-6933D01*
X-68582Y-7605D01*
X-69082Y-7435D01*
Y-5000D01*
X-69152Y-4649D01*
X-69351Y-4351D01*
X-71370Y-2332D01*
X-71244Y-2169D01*
X-70811Y-1123D01*
X-70663Y0D01*
X-70811Y1123D01*
X-71244Y2169D01*
X-71933Y3067D01*
X-72831Y3756D01*
X-73878Y4189D01*
X-75000Y4337D01*
D02*
G37*
G36*
X130000Y-5663D02*
X128877Y-5811D01*
X127831Y-6244D01*
X126933Y-6933D01*
X126244Y-7831D01*
X125811Y-8878D01*
X125663Y-10000D01*
X125811Y-11123D01*
X126033Y-11660D01*
X122846Y-14846D01*
X122493Y-15376D01*
X122369Y-16000D01*
Y-29000D01*
X122493Y-29624D01*
X122846Y-30154D01*
X126033Y-33340D01*
X125811Y-33878D01*
X125663Y-35000D01*
X125811Y-36123D01*
X126244Y-37168D01*
X126933Y-38067D01*
X127831Y-38756D01*
X128877Y-39189D01*
X130000Y-39337D01*
X131123Y-39189D01*
X132169Y-38756D01*
X133067Y-38067D01*
X133756Y-37168D01*
X134189Y-36123D01*
X134337Y-35000D01*
X134189Y-33878D01*
X133756Y-32831D01*
X133067Y-31933D01*
X132169Y-31244D01*
X131123Y-30811D01*
X130000Y-30663D01*
X128877Y-30811D01*
X128340Y-31033D01*
X125631Y-28324D01*
Y-26996D01*
X126131Y-26897D01*
X126244Y-27169D01*
X126933Y-28067D01*
X127831Y-28756D01*
X128877Y-29189D01*
X130000Y-29337D01*
X131123Y-29189D01*
X132169Y-28756D01*
X133067Y-28067D01*
X133756Y-27169D01*
X134189Y-26122D01*
X134337Y-25000D01*
X134189Y-23877D01*
X133756Y-22831D01*
X133067Y-21933D01*
X132169Y-21244D01*
X131123Y-20811D01*
X130000Y-20663D01*
X128877Y-20811D01*
X127831Y-21244D01*
X126933Y-21933D01*
X126244Y-22831D01*
X126131Y-23103D01*
X125631Y-23004D01*
Y-16676D01*
X128340Y-13967D01*
X128877Y-14189D01*
X130000Y-14337D01*
X131123Y-14189D01*
X132169Y-13756D01*
X133067Y-13067D01*
X133756Y-12169D01*
X134189Y-11123D01*
X134337Y-10000D01*
X134189Y-8878D01*
X133756Y-7831D01*
X133067Y-6933D01*
X132169Y-6244D01*
X131123Y-5811D01*
X130000Y-5663D01*
D02*
G37*
G36*
X115000D02*
X113877Y-5811D01*
X112831Y-6244D01*
X111933Y-6933D01*
X111244Y-7831D01*
X110811Y-8878D01*
X110663Y-10000D01*
X110811Y-11123D01*
X111244Y-12169D01*
X111933Y-13067D01*
X112831Y-13756D01*
X113877Y-14189D01*
X115000Y-14337D01*
X116122Y-14189D01*
X117169Y-13756D01*
X118067Y-13067D01*
X118756Y-12169D01*
X119189Y-11123D01*
X119337Y-10000D01*
X119189Y-8878D01*
X118756Y-7831D01*
X118067Y-6933D01*
X117169Y-6244D01*
X116122Y-5811D01*
X115000Y-5663D01*
D02*
G37*
G36*
X105000D02*
X103877Y-5811D01*
X102831Y-6244D01*
X101933Y-6933D01*
X101244Y-7831D01*
X100811Y-8878D01*
X100663Y-10000D01*
X100811Y-11123D01*
X101244Y-12169D01*
X101933Y-13067D01*
X102831Y-13756D01*
X103877Y-14189D01*
X105000Y-14337D01*
X106123Y-14189D01*
X107169Y-13756D01*
X108067Y-13067D01*
X108756Y-12169D01*
X109189Y-11123D01*
X109337Y-10000D01*
X109189Y-8878D01*
X108756Y-7831D01*
X108067Y-6933D01*
X107169Y-6244D01*
X106123Y-5811D01*
X105000Y-5663D01*
D02*
G37*
G36*
X95000D02*
X93878Y-5811D01*
X92831Y-6244D01*
X91933Y-6933D01*
X91244Y-7831D01*
X90811Y-8878D01*
X90663Y-10000D01*
X90811Y-11123D01*
X91244Y-12169D01*
X91933Y-13067D01*
X92831Y-13756D01*
X93878Y-14189D01*
X95000Y-14337D01*
X96122Y-14189D01*
X97169Y-13756D01*
X98067Y-13067D01*
X98756Y-12169D01*
X99189Y-11123D01*
X99337Y-10000D01*
X99189Y-8878D01*
X98756Y-7831D01*
X98067Y-6933D01*
X97169Y-6244D01*
X96122Y-5811D01*
X95000Y-5663D01*
D02*
G37*
G36*
X65000D02*
X63877Y-5811D01*
X62831Y-6244D01*
X61933Y-6933D01*
X61244Y-7831D01*
X60811Y-8878D01*
X60663Y-10000D01*
X60811Y-11123D01*
X61244Y-12169D01*
X61933Y-13067D01*
X62831Y-13756D01*
X63877Y-14189D01*
X65000Y-14337D01*
X66123Y-14189D01*
X67169Y-13756D01*
X68067Y-13067D01*
X68756Y-12169D01*
X69189Y-11123D01*
X69337Y-10000D01*
X69189Y-8878D01*
X68756Y-7831D01*
X68067Y-6933D01*
X67169Y-6244D01*
X66123Y-5811D01*
X65000Y-5663D01*
D02*
G37*
G36*
X55000D02*
X53878Y-5811D01*
X52831Y-6244D01*
X51933Y-6933D01*
X51244Y-7831D01*
X50811Y-8878D01*
X50663Y-10000D01*
X50811Y-11123D01*
X51244Y-12169D01*
X51933Y-13067D01*
X52831Y-13756D01*
X53878Y-14189D01*
X55000Y-14337D01*
X56122Y-14189D01*
X57169Y-13756D01*
X58067Y-13067D01*
X58756Y-12169D01*
X59189Y-11123D01*
X59337Y-10000D01*
X59189Y-8878D01*
X58756Y-7831D01*
X58067Y-6933D01*
X57169Y-6244D01*
X56122Y-5811D01*
X55000Y-5663D01*
D02*
G37*
G36*
X-55000D02*
X-56122Y-5811D01*
X-57169Y-6244D01*
X-58067Y-6933D01*
X-58756Y-7831D01*
X-59189Y-8878D01*
X-59337Y-10000D01*
X-59189Y-11123D01*
X-58756Y-12169D01*
X-58067Y-13067D01*
X-57169Y-13756D01*
X-56122Y-14189D01*
X-55000Y-14337D01*
X-53878Y-14189D01*
X-52831Y-13756D01*
X-51933Y-13067D01*
X-51244Y-12169D01*
X-50811Y-11123D01*
X-50663Y-10000D01*
X-50811Y-8878D01*
X-51244Y-7831D01*
X-51933Y-6933D01*
X-52831Y-6244D01*
X-53878Y-5811D01*
X-55000Y-5663D01*
D02*
G37*
G36*
X-100000D02*
X-101122Y-5811D01*
X-102169Y-6244D01*
X-103067Y-6933D01*
X-103756Y-7831D01*
X-104189Y-8878D01*
X-104337Y-10000D01*
X-104189Y-11123D01*
X-103756Y-12169D01*
X-103067Y-13067D01*
X-102169Y-13756D01*
X-101122Y-14189D01*
X-100000Y-14337D01*
X-98878Y-14189D01*
X-97831Y-13756D01*
X-96933Y-13067D01*
X-96244Y-12169D01*
X-95811Y-11123D01*
X-95663Y-10000D01*
X-95811Y-8878D01*
X-96244Y-7831D01*
X-96933Y-6933D01*
X-97831Y-6244D01*
X-98878Y-5811D01*
X-100000Y-5663D01*
D02*
G37*
G36*
X75000Y-15663D02*
X73878Y-15811D01*
X72831Y-16244D01*
X71933Y-16933D01*
X71244Y-17831D01*
X70811Y-18878D01*
X70663Y-20000D01*
X70811Y-21123D01*
X71244Y-22169D01*
X71370Y-22332D01*
X69620Y-24082D01*
X67565D01*
X67395Y-23582D01*
X68067Y-23067D01*
X68756Y-22169D01*
X69189Y-21123D01*
X69337Y-20000D01*
X69189Y-18878D01*
X68756Y-17831D01*
X68067Y-16933D01*
X67169Y-16244D01*
X66123Y-15811D01*
X65000Y-15663D01*
X63877Y-15811D01*
X62831Y-16244D01*
X61933Y-16933D01*
X61244Y-17831D01*
X60811Y-18878D01*
X60663Y-20000D01*
X60811Y-21123D01*
X61244Y-22169D01*
X61933Y-23067D01*
X62605Y-23582D01*
X62435Y-24082D01*
X57565D01*
X57395Y-23582D01*
X58067Y-23067D01*
X58756Y-22169D01*
X59189Y-21123D01*
X59337Y-20000D01*
X59189Y-18878D01*
X58756Y-17831D01*
X58067Y-16933D01*
X57169Y-16244D01*
X56122Y-15811D01*
X55000Y-15663D01*
X53878Y-15811D01*
X52831Y-16244D01*
X51933Y-16933D01*
X51244Y-17831D01*
X50811Y-18878D01*
X50663Y-20000D01*
X50811Y-21123D01*
X51244Y-22169D01*
X51933Y-23067D01*
X52605Y-23582D01*
X52435Y-24082D01*
X52000D01*
X51649Y-24152D01*
X51351Y-24351D01*
X42620Y-33082D01*
X-16000D01*
X-16351Y-33152D01*
X-16649Y-33351D01*
X-22735Y-39437D01*
X-23000Y-39385D01*
X-23618Y-39508D01*
X-24142Y-39858D01*
X-24492Y-40382D01*
X-24615Y-41000D01*
X-24492Y-41618D01*
X-24142Y-42142D01*
X-23618Y-42492D01*
X-23000Y-42615D01*
X-22382Y-42492D01*
X-21858Y-42142D01*
X-21508Y-41618D01*
X-21385Y-41000D01*
X-21437Y-40735D01*
X-21055Y-40353D01*
X-20512Y-40517D01*
X-20492Y-40618D01*
X-20142Y-41142D01*
X-19618Y-41492D01*
X-19000Y-41615D01*
X-18382Y-41492D01*
X-17858Y-41142D01*
X-17762Y-40999D01*
X-15081D01*
X-14730Y-40929D01*
X-14432Y-40730D01*
X-11020Y-37318D01*
X44020D01*
X52351Y-45649D01*
X52649Y-45848D01*
X53000Y-45918D01*
X67773D01*
X67943Y-46418D01*
X67646Y-46646D01*
X67229Y-47189D01*
X66967Y-47821D01*
X66878Y-48500D01*
X66967Y-49179D01*
X67229Y-49811D01*
X67646Y-50354D01*
X68189Y-50771D01*
X68821Y-51033D01*
X69500Y-51122D01*
X71914D01*
X76791Y-56000D01*
X74146Y-58646D01*
X73729Y-59189D01*
X73467Y-59821D01*
X73378Y-60500D01*
X73467Y-61179D01*
X73729Y-61811D01*
X74146Y-62354D01*
X74689Y-62771D01*
X75321Y-63033D01*
X76000Y-63122D01*
X76679Y-63033D01*
X77311Y-62771D01*
X77854Y-62354D01*
X82354Y-57854D01*
X82771Y-57311D01*
X83033Y-56679D01*
X83122Y-56000D01*
X83033Y-55321D01*
X82771Y-54689D01*
X82354Y-54146D01*
X74854Y-46646D01*
X74311Y-46229D01*
X73679Y-45967D01*
X73000Y-45878D01*
X73000Y-45878D01*
X71127D01*
X70920Y-45378D01*
X72667Y-43630D01*
X72831Y-43756D01*
X73878Y-44189D01*
X75000Y-44337D01*
X76122Y-44189D01*
X77169Y-43756D01*
X78067Y-43067D01*
X78756Y-42169D01*
X79189Y-41122D01*
X79337Y-40000D01*
X79189Y-38877D01*
X78756Y-37832D01*
X78067Y-36933D01*
X77169Y-36244D01*
X76122Y-35811D01*
X75000Y-35663D01*
X73878Y-35811D01*
X72831Y-36244D01*
X71933Y-36933D01*
X71244Y-37832D01*
X70811Y-38877D01*
X70663Y-40000D01*
X70811Y-41122D01*
X71244Y-42169D01*
X71370Y-42333D01*
X69620Y-44082D01*
X67565D01*
X67395Y-43582D01*
X68067Y-43067D01*
X68756Y-42169D01*
X69189Y-41122D01*
X69337Y-40000D01*
X69189Y-38877D01*
X68756Y-37832D01*
X68067Y-36933D01*
X67655Y-36618D01*
X67825Y-36118D01*
X69800D01*
X70151Y-36048D01*
X70449Y-35849D01*
X72667Y-33630D01*
X72831Y-33756D01*
X73878Y-34189D01*
X75000Y-34337D01*
X76122Y-34189D01*
X77169Y-33756D01*
X78067Y-33067D01*
X78756Y-32168D01*
X79189Y-31122D01*
X79337Y-30000D01*
X79189Y-28877D01*
X78756Y-27832D01*
X78067Y-26933D01*
X77169Y-26244D01*
X76122Y-25811D01*
X75000Y-25663D01*
X73878Y-25811D01*
X72831Y-26244D01*
X71933Y-26933D01*
X71244Y-27832D01*
X70811Y-28877D01*
X70663Y-30000D01*
X70811Y-31122D01*
X71244Y-32168D01*
X71370Y-32333D01*
X69420Y-34282D01*
X67204D01*
X67105Y-33782D01*
X67169Y-33756D01*
X68067Y-33067D01*
X68756Y-32168D01*
X69189Y-31122D01*
X69337Y-30000D01*
X69189Y-28877D01*
X68756Y-27832D01*
X68067Y-26933D01*
X67395Y-26418D01*
X67565Y-25918D01*
X70000D01*
X70351Y-25848D01*
X70649Y-25649D01*
X72667Y-23630D01*
X72831Y-23756D01*
X73878Y-24189D01*
X75000Y-24337D01*
X76122Y-24189D01*
X77169Y-23756D01*
X78067Y-23067D01*
X78756Y-22169D01*
X79189Y-21123D01*
X79337Y-20000D01*
X79189Y-18878D01*
X78756Y-17831D01*
X78067Y-16933D01*
X77169Y-16244D01*
X76122Y-15811D01*
X75000Y-15663D01*
D02*
G37*
G36*
X-55000D02*
X-56122Y-15811D01*
X-57169Y-16244D01*
X-58067Y-16933D01*
X-58756Y-17831D01*
X-59189Y-18878D01*
X-59337Y-20000D01*
X-59189Y-21123D01*
X-58756Y-22169D01*
X-58067Y-23067D01*
X-57169Y-23756D01*
X-56122Y-24189D01*
X-55000Y-24337D01*
X-53878Y-24189D01*
X-52831Y-23756D01*
X-51933Y-23067D01*
X-51244Y-22169D01*
X-50811Y-21123D01*
X-50663Y-20000D01*
X-50811Y-18878D01*
X-51244Y-17831D01*
X-51933Y-16933D01*
X-52831Y-16244D01*
X-53878Y-15811D01*
X-55000Y-15663D01*
D02*
G37*
G36*
X24000Y9122D02*
X23321Y9033D01*
X22689Y8771D01*
X22146Y8354D01*
X21729Y7811D01*
X21467Y7179D01*
X21378Y6500D01*
Y2000D01*
Y-22500D01*
Y-27000D01*
X21467Y-27679D01*
X21729Y-28311D01*
X22146Y-28854D01*
X22689Y-29271D01*
X23321Y-29533D01*
X24000Y-29622D01*
X24679Y-29533D01*
X25311Y-29271D01*
X25854Y-28854D01*
X26271Y-28311D01*
X26533Y-27679D01*
X26622Y-27000D01*
Y-22500D01*
Y2000D01*
Y6500D01*
X26533Y7179D01*
X26271Y7811D01*
X25854Y8354D01*
X25311Y8771D01*
X24679Y9033D01*
X24000Y9122D01*
D02*
G37*
G36*
X75000Y-5663D02*
X73878Y-5811D01*
X72831Y-6244D01*
X71933Y-6933D01*
X71244Y-7831D01*
X70811Y-8878D01*
X70663Y-10000D01*
X70811Y-11123D01*
X71244Y-12169D01*
X71933Y-13067D01*
X72831Y-13756D01*
X73878Y-14189D01*
X75000Y-14337D01*
X76122Y-14189D01*
X77169Y-13756D01*
X78067Y-13067D01*
X78756Y-12169D01*
X79189Y-11123D01*
X79189Y-11122D01*
X83535D01*
X89890Y-17476D01*
X89885Y-17500D01*
X90008Y-18118D01*
X90358Y-18642D01*
X90882Y-18992D01*
X91500Y-19115D01*
X91524Y-19110D01*
X101707Y-29293D01*
X102071Y-29536D01*
X102500Y-29622D01*
X102500Y-29622D01*
X111344D01*
X111358Y-29642D01*
X111882Y-29992D01*
X112500Y-30115D01*
X113118Y-29992D01*
X113642Y-29642D01*
X113992Y-29118D01*
X114115Y-28500D01*
X113992Y-27882D01*
X113642Y-27358D01*
X113118Y-27008D01*
X112500Y-26885D01*
X111882Y-27008D01*
X111358Y-27358D01*
X111344Y-27378D01*
X102965D01*
X93111Y-17524D01*
X93115Y-17500D01*
X92992Y-16882D01*
X92642Y-16358D01*
X92118Y-16008D01*
X91500Y-15885D01*
X91476Y-15890D01*
X84793Y-9207D01*
X84429Y-8964D01*
X84000Y-8878D01*
X84000Y-8878D01*
X79189D01*
X79189Y-8878D01*
X78756Y-7831D01*
X78067Y-6933D01*
X77169Y-6244D01*
X76122Y-5811D01*
X75000Y-5663D01*
D02*
G37*
G36*
X-55000Y-25663D02*
X-56122Y-25811D01*
X-57169Y-26244D01*
X-58067Y-26933D01*
X-58756Y-27832D01*
X-59189Y-28877D01*
X-59337Y-30000D01*
X-59189Y-31122D01*
X-58756Y-32168D01*
X-58067Y-33067D01*
X-57169Y-33756D01*
X-56122Y-34189D01*
X-55000Y-34337D01*
X-53878Y-34189D01*
X-52831Y-33756D01*
X-51933Y-33067D01*
X-51244Y-32168D01*
X-50811Y-31122D01*
X-50663Y-30000D01*
X-50811Y-28877D01*
X-51244Y-27832D01*
X-51933Y-26933D01*
X-52831Y-26244D01*
X-53878Y-25811D01*
X-55000Y-25663D01*
D02*
G37*
G36*
X-145000D02*
X-146123Y-25811D01*
X-147169Y-26244D01*
X-148067Y-26933D01*
X-148756Y-27832D01*
X-149189Y-28877D01*
X-149337Y-30000D01*
X-149189Y-31122D01*
X-148756Y-32168D01*
X-148067Y-33067D01*
X-147169Y-33756D01*
X-146123Y-34189D01*
X-145000Y-34337D01*
X-143877Y-34189D01*
X-142831Y-33756D01*
X-141933Y-33067D01*
X-141244Y-32168D01*
X-140811Y-31122D01*
X-140663Y-30000D01*
X-140811Y-28877D01*
X-141244Y-27832D01*
X-141933Y-26933D01*
X-142831Y-26244D01*
X-143877Y-25811D01*
X-145000Y-25663D01*
D02*
G37*
G36*
X100000Y-31385D02*
X99382Y-31508D01*
X98858Y-31858D01*
X98508Y-32382D01*
X98385Y-33000D01*
X98508Y-33618D01*
X98858Y-34142D01*
X98878Y-34156D01*
Y-37170D01*
X98378Y-37339D01*
X98067Y-36933D01*
X97169Y-36244D01*
X96122Y-35811D01*
X95000Y-35663D01*
X93878Y-35811D01*
X92831Y-36244D01*
X91933Y-36933D01*
X91244Y-37832D01*
X90811Y-38877D01*
X90663Y-40000D01*
X90811Y-41122D01*
X91244Y-42169D01*
X91933Y-43067D01*
X92831Y-43756D01*
X93878Y-44189D01*
X95000Y-44337D01*
X96122Y-44189D01*
X97169Y-43756D01*
X98067Y-43067D01*
X98378Y-42661D01*
X98878Y-42830D01*
Y-45000D01*
X98878Y-45000D01*
X98964Y-45429D01*
X99207Y-45793D01*
X101245Y-47831D01*
X101244Y-47831D01*
X100811Y-48878D01*
X100663Y-50000D01*
X100811Y-51122D01*
X101244Y-52169D01*
X101933Y-53067D01*
X102831Y-53756D01*
X103877Y-54189D01*
X105000Y-54337D01*
X106123Y-54189D01*
X107169Y-53756D01*
X108067Y-53067D01*
X108756Y-52169D01*
X109189Y-51122D01*
X109337Y-50000D01*
X109189Y-48878D01*
X108756Y-47831D01*
X108067Y-46933D01*
X107169Y-46244D01*
X106123Y-45811D01*
X105000Y-45663D01*
X103877Y-45811D01*
X102831Y-46244D01*
X102831Y-46245D01*
X101122Y-44535D01*
Y-42830D01*
X101622Y-42661D01*
X101933Y-43067D01*
X102831Y-43756D01*
X103877Y-44189D01*
X105000Y-44337D01*
X106123Y-44189D01*
X107169Y-43756D01*
X108067Y-43067D01*
X108756Y-42169D01*
X109189Y-41122D01*
X109337Y-40000D01*
X109189Y-38877D01*
X108756Y-37832D01*
X108067Y-36933D01*
X107169Y-36244D01*
X106123Y-35811D01*
X105000Y-35663D01*
X103877Y-35811D01*
X102831Y-36244D01*
X101933Y-36933D01*
X101622Y-37339D01*
X101122Y-37170D01*
Y-34156D01*
X101142Y-34142D01*
X101492Y-33618D01*
X101615Y-33000D01*
X101492Y-32382D01*
X101142Y-31858D01*
X100618Y-31508D01*
X100000Y-31385D01*
D02*
G37*
G36*
X-55000Y-35663D02*
X-56122Y-35811D01*
X-57169Y-36244D01*
X-58067Y-36933D01*
X-58756Y-37832D01*
X-59189Y-38877D01*
X-59337Y-40000D01*
X-59189Y-41122D01*
X-58756Y-42169D01*
X-58067Y-43067D01*
X-57169Y-43756D01*
X-56122Y-44189D01*
X-55000Y-44337D01*
X-53878Y-44189D01*
X-52831Y-43756D01*
X-51933Y-43067D01*
X-51244Y-42169D01*
X-50811Y-41122D01*
X-50663Y-40000D01*
X-50811Y-38877D01*
X-51244Y-37832D01*
X-51933Y-36933D01*
X-52831Y-36244D01*
X-53878Y-35811D01*
X-55000Y-35663D01*
D02*
G37*
G36*
X95000Y-45663D02*
X93878Y-45811D01*
X92831Y-46244D01*
X91933Y-46933D01*
X91244Y-47831D01*
X90811Y-48878D01*
X90663Y-50000D01*
X90811Y-51122D01*
X91244Y-52169D01*
X91933Y-53067D01*
X92831Y-53756D01*
X93878Y-54189D01*
X95000Y-54337D01*
X96122Y-54189D01*
X97169Y-53756D01*
X98067Y-53067D01*
X98756Y-52169D01*
X99189Y-51122D01*
X99337Y-50000D01*
X99189Y-48878D01*
X98756Y-47831D01*
X98067Y-46933D01*
X97169Y-46244D01*
X96122Y-45811D01*
X95000Y-45663D01*
D02*
G37*
G36*
X130000Y-60663D02*
X128877Y-60811D01*
X127831Y-61244D01*
X126933Y-61933D01*
X126244Y-62831D01*
X125811Y-63877D01*
X125663Y-65000D01*
X125811Y-66123D01*
X126244Y-67169D01*
X126933Y-68067D01*
X127831Y-68756D01*
X128877Y-69189D01*
X130000Y-69337D01*
X131123Y-69189D01*
X132169Y-68756D01*
X133067Y-68067D01*
X133756Y-67169D01*
X134189Y-66123D01*
X134337Y-65000D01*
X134189Y-63877D01*
X133756Y-62831D01*
X133067Y-61933D01*
X132169Y-61244D01*
X131123Y-60811D01*
X130000Y-60663D01*
D02*
G37*
G36*
X85000D02*
X83877Y-60811D01*
X82831Y-61244D01*
X81933Y-61933D01*
X81244Y-62831D01*
X80811Y-63877D01*
X80663Y-65000D01*
X80811Y-66123D01*
X81244Y-67169D01*
X81933Y-68067D01*
X82831Y-68756D01*
X83877Y-69189D01*
X85000Y-69337D01*
X86123Y-69189D01*
X87169Y-68756D01*
X88067Y-68067D01*
X88756Y-67169D01*
X89189Y-66123D01*
X89337Y-65000D01*
X89189Y-63877D01*
X88756Y-62831D01*
X88067Y-61933D01*
X87169Y-61244D01*
X86123Y-60811D01*
X85000Y-60663D01*
D02*
G37*
G36*
X55000D02*
X53878Y-60811D01*
X52831Y-61244D01*
X51933Y-61933D01*
X51244Y-62831D01*
X50811Y-63877D01*
X50663Y-65000D01*
X50811Y-66123D01*
X51244Y-67169D01*
X51933Y-68067D01*
X52831Y-68756D01*
X53878Y-69189D01*
X55000Y-69337D01*
X56122Y-69189D01*
X57169Y-68756D01*
X58067Y-68067D01*
X58756Y-67169D01*
X59189Y-66123D01*
X59337Y-65000D01*
X59189Y-63877D01*
X58756Y-62831D01*
X58067Y-61933D01*
X57169Y-61244D01*
X56122Y-60811D01*
X55000Y-60663D01*
D02*
G37*
G36*
X30000D02*
X28877Y-60811D01*
X27832Y-61244D01*
X26933Y-61933D01*
X26244Y-62831D01*
X25811Y-63877D01*
X25663Y-65000D01*
X25811Y-66123D01*
X26244Y-67169D01*
X26933Y-68067D01*
X27832Y-68756D01*
X28877Y-69189D01*
X30000Y-69337D01*
X31122Y-69189D01*
X32168Y-68756D01*
X33067Y-68067D01*
X33756Y-67169D01*
X34189Y-66123D01*
X34337Y-65000D01*
X34189Y-63877D01*
X33756Y-62831D01*
X33067Y-61933D01*
X32168Y-61244D01*
X31122Y-60811D01*
X30000Y-60663D01*
D02*
G37*
G36*
X20000D02*
X18878Y-60811D01*
X17831Y-61244D01*
X16933Y-61933D01*
X16244Y-62831D01*
X15811Y-63877D01*
X15663Y-65000D01*
X15811Y-66123D01*
X16244Y-67169D01*
X16933Y-68067D01*
X17831Y-68756D01*
X18878Y-69189D01*
X20000Y-69337D01*
X21123Y-69189D01*
X22169Y-68756D01*
X23067Y-68067D01*
X23756Y-67169D01*
X24189Y-66123D01*
X24337Y-65000D01*
X24189Y-63877D01*
X23756Y-62831D01*
X23067Y-61933D01*
X22169Y-61244D01*
X21123Y-60811D01*
X20000Y-60663D01*
D02*
G37*
G36*
X10000D02*
X8878Y-60811D01*
X7831Y-61244D01*
X6933Y-61933D01*
X6244Y-62831D01*
X5811Y-63877D01*
X5663Y-65000D01*
X5811Y-66123D01*
X6244Y-67169D01*
X6933Y-68067D01*
X7831Y-68756D01*
X8878Y-69189D01*
X10000Y-69337D01*
X11123Y-69189D01*
X12169Y-68756D01*
X13067Y-68067D01*
X13756Y-67169D01*
X14189Y-66123D01*
X14337Y-65000D01*
X14189Y-63877D01*
X13756Y-62831D01*
X13067Y-61933D01*
X12169Y-61244D01*
X11123Y-60811D01*
X10000Y-60663D01*
D02*
G37*
G36*
X0D02*
X-1123Y-60811D01*
X-2169Y-61244D01*
X-3067Y-61933D01*
X-3756Y-62831D01*
X-4189Y-63877D01*
X-4337Y-65000D01*
X-4189Y-66123D01*
X-3756Y-67169D01*
X-3067Y-68067D01*
X-2169Y-68756D01*
X-1123Y-69189D01*
X0Y-69337D01*
X1123Y-69189D01*
X2169Y-68756D01*
X3067Y-68067D01*
X3756Y-67169D01*
X4189Y-66123D01*
X4337Y-65000D01*
X4189Y-63877D01*
X3756Y-62831D01*
X3067Y-61933D01*
X2169Y-61244D01*
X1123Y-60811D01*
X0Y-60663D01*
D02*
G37*
G36*
X-10000D02*
X-11123Y-60811D01*
X-12169Y-61244D01*
X-13067Y-61933D01*
X-13756Y-62831D01*
X-14189Y-63877D01*
X-14337Y-65000D01*
X-14189Y-66123D01*
X-13756Y-67169D01*
X-13067Y-68067D01*
X-12169Y-68756D01*
X-11123Y-69189D01*
X-10000Y-69337D01*
X-8878Y-69189D01*
X-7831Y-68756D01*
X-6933Y-68067D01*
X-6244Y-67169D01*
X-5811Y-66123D01*
X-5663Y-65000D01*
X-5811Y-63877D01*
X-6244Y-62831D01*
X-6933Y-61933D01*
X-7831Y-61244D01*
X-8878Y-60811D01*
X-10000Y-60663D01*
D02*
G37*
G36*
X-20000D02*
X-21123Y-60811D01*
X-22169Y-61244D01*
X-23067Y-61933D01*
X-23756Y-62831D01*
X-24189Y-63877D01*
X-24337Y-65000D01*
X-24189Y-66123D01*
X-23756Y-67169D01*
X-23067Y-68067D01*
X-22169Y-68756D01*
X-21123Y-69189D01*
X-20000Y-69337D01*
X-18878Y-69189D01*
X-17831Y-68756D01*
X-16933Y-68067D01*
X-16244Y-67169D01*
X-15811Y-66123D01*
X-15663Y-65000D01*
X-15811Y-63877D01*
X-16244Y-62831D01*
X-16933Y-61933D01*
X-17831Y-61244D01*
X-18878Y-60811D01*
X-20000Y-60663D01*
D02*
G37*
G36*
X-30000D02*
X-31122Y-60811D01*
X-32168Y-61244D01*
X-33067Y-61933D01*
X-33756Y-62831D01*
X-34189Y-63877D01*
X-34337Y-65000D01*
X-34189Y-66123D01*
X-33756Y-67169D01*
X-33067Y-68067D01*
X-32168Y-68756D01*
X-31122Y-69189D01*
X-30000Y-69337D01*
X-28877Y-69189D01*
X-27832Y-68756D01*
X-26933Y-68067D01*
X-26244Y-67169D01*
X-25811Y-66123D01*
X-25663Y-65000D01*
X-25811Y-63877D01*
X-26244Y-62831D01*
X-26933Y-61933D01*
X-27832Y-61244D01*
X-28877Y-60811D01*
X-30000Y-60663D01*
D02*
G37*
G36*
X-173063Y-68690D02*
X-173796Y-68836D01*
X-174418Y-69251D01*
X-174834Y-69873D01*
X-174979Y-70606D01*
X-174834Y-71340D01*
X-174418Y-71961D01*
X-173796Y-72377D01*
X-173063Y-72523D01*
X-172330Y-72377D01*
X-171708Y-71961D01*
X-171292Y-71340D01*
X-171147Y-70606D01*
X-171292Y-69873D01*
X-171708Y-69251D01*
X-172330Y-68836D01*
X-173063Y-68690D01*
D02*
G37*
G36*
X-75000Y-45385D02*
X-75618Y-45508D01*
X-76142Y-45858D01*
X-76492Y-46382D01*
X-76615Y-47000D01*
X-76492Y-47618D01*
X-76142Y-48142D01*
X-75618Y-48492D01*
X-75000Y-48615D01*
X-74735Y-48563D01*
X-71918Y-51380D01*
Y-75708D01*
X-72142Y-75858D01*
X-72492Y-76382D01*
X-72615Y-77000D01*
X-72492Y-77618D01*
X-72142Y-78142D01*
X-71618Y-78492D01*
X-71000Y-78615D01*
X-70382Y-78492D01*
X-69858Y-78142D01*
X-69508Y-77618D01*
X-69385Y-77000D01*
X-69508Y-76382D01*
X-69858Y-75858D01*
X-70082Y-75708D01*
Y-51000D01*
X-70152Y-50649D01*
X-70351Y-50351D01*
X-73437Y-47265D01*
X-73385Y-47000D01*
X-73508Y-46382D01*
X-73858Y-45858D01*
X-74382Y-45508D01*
X-75000Y-45385D01*
D02*
G37*
G36*
X-114000Y-20385D02*
X-114618Y-20508D01*
X-115142Y-20858D01*
X-115492Y-21382D01*
X-115615Y-22000D01*
X-115492Y-22618D01*
X-115142Y-23142D01*
X-114618Y-23492D01*
X-114000Y-23615D01*
X-113382Y-23492D01*
X-113036Y-23261D01*
X-111418Y-24880D01*
Y-34500D01*
X-111348Y-34851D01*
X-111149Y-35149D01*
X-108149Y-38149D01*
X-107851Y-38348D01*
X-107500Y-38418D01*
X-94880D01*
X-80302Y-52995D01*
Y-76208D01*
X-80527Y-76358D01*
X-80877Y-76882D01*
X-81000Y-77500D01*
X-80877Y-78118D01*
X-80527Y-78642D01*
X-80003Y-78992D01*
X-79385Y-79115D01*
X-78767Y-78992D01*
X-78242Y-78642D01*
X-77892Y-78118D01*
X-77769Y-77500D01*
X-77892Y-76882D01*
X-78242Y-76358D01*
X-78467Y-76208D01*
Y-52615D01*
X-78537Y-52264D01*
X-78736Y-51966D01*
X-93851Y-36851D01*
X-94149Y-36652D01*
X-94500Y-36582D01*
X-107120D01*
X-109582Y-34120D01*
Y-24500D01*
X-109652Y-24149D01*
X-109851Y-23851D01*
X-112351Y-21351D01*
X-112649Y-21152D01*
X-112663Y-21149D01*
X-112858Y-20858D01*
X-113382Y-20508D01*
X-114000Y-20385D01*
D02*
G37*
G36*
X55000Y-70663D02*
X53878Y-70811D01*
X52831Y-71244D01*
X51933Y-71933D01*
X51244Y-72831D01*
X50811Y-73878D01*
X50663Y-75000D01*
X50811Y-76122D01*
X51244Y-77169D01*
X51933Y-78067D01*
X52831Y-78756D01*
X53878Y-79189D01*
X55000Y-79337D01*
X56122Y-79189D01*
X57169Y-78756D01*
X58067Y-78067D01*
X58756Y-77169D01*
X59189Y-76122D01*
X59337Y-75000D01*
X59189Y-73878D01*
X58756Y-72831D01*
X58067Y-71933D01*
X57169Y-71244D01*
X56122Y-70811D01*
X55000Y-70663D01*
D02*
G37*
G36*
X30000D02*
X28877Y-70811D01*
X27832Y-71244D01*
X26933Y-71933D01*
X26244Y-72831D01*
X25811Y-73878D01*
X25663Y-75000D01*
X25811Y-76122D01*
X26244Y-77169D01*
X26933Y-78067D01*
X27832Y-78756D01*
X28877Y-79189D01*
X30000Y-79337D01*
X31122Y-79189D01*
X32168Y-78756D01*
X33067Y-78067D01*
X33756Y-77169D01*
X34189Y-76122D01*
X34337Y-75000D01*
X34189Y-73878D01*
X33756Y-72831D01*
X33067Y-71933D01*
X32168Y-71244D01*
X31122Y-70811D01*
X30000Y-70663D01*
D02*
G37*
G36*
X20000D02*
X18878Y-70811D01*
X17831Y-71244D01*
X16933Y-71933D01*
X16244Y-72831D01*
X15811Y-73878D01*
X15663Y-75000D01*
X15811Y-76122D01*
X16244Y-77169D01*
X16933Y-78067D01*
X17831Y-78756D01*
X18878Y-79189D01*
X20000Y-79337D01*
X21123Y-79189D01*
X22169Y-78756D01*
X23067Y-78067D01*
X23756Y-77169D01*
X24189Y-76122D01*
X24337Y-75000D01*
X24189Y-73878D01*
X23756Y-72831D01*
X23067Y-71933D01*
X22169Y-71244D01*
X21123Y-70811D01*
X20000Y-70663D01*
D02*
G37*
G36*
X10000D02*
X8878Y-70811D01*
X7831Y-71244D01*
X6933Y-71933D01*
X6244Y-72831D01*
X5811Y-73878D01*
X5663Y-75000D01*
X5811Y-76122D01*
X6244Y-77169D01*
X6933Y-78067D01*
X7831Y-78756D01*
X8878Y-79189D01*
X10000Y-79337D01*
X11123Y-79189D01*
X12169Y-78756D01*
X13067Y-78067D01*
X13756Y-77169D01*
X14189Y-76122D01*
X14337Y-75000D01*
X14189Y-73878D01*
X13756Y-72831D01*
X13067Y-71933D01*
X12169Y-71244D01*
X11123Y-70811D01*
X10000Y-70663D01*
D02*
G37*
G36*
X0D02*
X-1123Y-70811D01*
X-2169Y-71244D01*
X-3067Y-71933D01*
X-3756Y-72831D01*
X-4189Y-73878D01*
X-4337Y-75000D01*
X-4189Y-76122D01*
X-3756Y-77169D01*
X-3067Y-78067D01*
X-2169Y-78756D01*
X-1123Y-79189D01*
X0Y-79337D01*
X1123Y-79189D01*
X2169Y-78756D01*
X3067Y-78067D01*
X3756Y-77169D01*
X4189Y-76122D01*
X4337Y-75000D01*
X4189Y-73878D01*
X3756Y-72831D01*
X3067Y-71933D01*
X2169Y-71244D01*
X1123Y-70811D01*
X0Y-70663D01*
D02*
G37*
G36*
X-10000D02*
X-11123Y-70811D01*
X-12169Y-71244D01*
X-13067Y-71933D01*
X-13756Y-72831D01*
X-14189Y-73878D01*
X-14337Y-75000D01*
X-14189Y-76122D01*
X-13756Y-77169D01*
X-13067Y-78067D01*
X-12169Y-78756D01*
X-11123Y-79189D01*
X-10000Y-79337D01*
X-8878Y-79189D01*
X-7831Y-78756D01*
X-6933Y-78067D01*
X-6244Y-77169D01*
X-5811Y-76122D01*
X-5663Y-75000D01*
X-5811Y-73878D01*
X-6244Y-72831D01*
X-6933Y-71933D01*
X-7831Y-71244D01*
X-8878Y-70811D01*
X-10000Y-70663D01*
D02*
G37*
G36*
X-20000D02*
X-21123Y-70811D01*
X-22169Y-71244D01*
X-23067Y-71933D01*
X-23756Y-72831D01*
X-24189Y-73878D01*
X-24337Y-75000D01*
X-24189Y-76122D01*
X-23756Y-77169D01*
X-23067Y-78067D01*
X-22169Y-78756D01*
X-21123Y-79189D01*
X-20000Y-79337D01*
X-18878Y-79189D01*
X-17831Y-78756D01*
X-16933Y-78067D01*
X-16244Y-77169D01*
X-15811Y-76122D01*
X-15663Y-75000D01*
X-15811Y-73878D01*
X-16244Y-72831D01*
X-16933Y-71933D01*
X-17831Y-71244D01*
X-18878Y-70811D01*
X-20000Y-70663D01*
D02*
G37*
G36*
X-30000D02*
X-31122Y-70811D01*
X-32168Y-71244D01*
X-33067Y-71933D01*
X-33756Y-72831D01*
X-34189Y-73878D01*
X-34337Y-75000D01*
X-34189Y-76122D01*
X-33756Y-77169D01*
X-33067Y-78067D01*
X-32168Y-78756D01*
X-31122Y-79189D01*
X-30000Y-79337D01*
X-28877Y-79189D01*
X-27832Y-78756D01*
X-26933Y-78067D01*
X-26244Y-77169D01*
X-25811Y-76122D01*
X-25663Y-75000D01*
X-25811Y-73878D01*
X-26244Y-72831D01*
X-26933Y-71933D01*
X-27832Y-71244D01*
X-28877Y-70811D01*
X-30000Y-70663D01*
D02*
G37*
G36*
X-98500Y-39385D02*
X-99118Y-39508D01*
X-99642Y-39858D01*
X-99992Y-40382D01*
X-100115Y-41000D01*
X-99992Y-41618D01*
X-99642Y-42142D01*
X-99118Y-42492D01*
X-98500Y-42615D01*
X-98235Y-42563D01*
X-83999Y-56799D01*
Y-79627D01*
X-84223Y-79777D01*
X-84573Y-80301D01*
X-84696Y-80919D01*
X-84573Y-81537D01*
X-84223Y-82061D01*
X-83699Y-82411D01*
X-83081Y-82534D01*
X-82463Y-82411D01*
X-81939Y-82061D01*
X-81589Y-81537D01*
X-81466Y-80919D01*
X-81589Y-80301D01*
X-81939Y-79777D01*
X-82164Y-79627D01*
Y-56419D01*
X-82233Y-56068D01*
X-82432Y-55770D01*
X-96937Y-41265D01*
X-96885Y-41000D01*
X-97008Y-40382D01*
X-97358Y-39858D01*
X-97882Y-39508D01*
X-98500Y-39385D01*
D02*
G37*
G36*
X-162000Y-74385D02*
X-162618Y-74508D01*
X-163142Y-74858D01*
X-163492Y-75382D01*
X-163615Y-76000D01*
X-163492Y-76618D01*
X-163142Y-77142D01*
X-162618Y-77492D01*
X-162000Y-77615D01*
X-161855Y-77587D01*
X-161020Y-78422D01*
Y-81776D01*
X-161142Y-81858D01*
X-161492Y-82382D01*
X-161615Y-83000D01*
X-161492Y-83618D01*
X-161142Y-84142D01*
X-160618Y-84492D01*
X-160000Y-84615D01*
X-159382Y-84492D01*
X-158858Y-84142D01*
X-158508Y-83618D01*
X-158385Y-83000D01*
X-158508Y-82382D01*
X-158858Y-81858D01*
X-158980Y-81776D01*
Y-78000D01*
X-159058Y-77610D01*
X-159279Y-77279D01*
X-160414Y-76145D01*
X-160385Y-76000D01*
X-160508Y-75382D01*
X-160858Y-74858D01*
X-161382Y-74508D01*
X-162000Y-74385D01*
D02*
G37*
G36*
X-155500Y-54885D02*
X-156118Y-55008D01*
X-156642Y-55358D01*
X-156992Y-55882D01*
X-157115Y-56500D01*
X-156992Y-57118D01*
X-156642Y-57642D01*
X-156118Y-57992D01*
X-155644Y-58087D01*
X-154724Y-59007D01*
Y-68000D01*
X-154630Y-68468D01*
X-154365Y-68865D01*
X-136587Y-86644D01*
X-136492Y-87118D01*
X-136142Y-87642D01*
X-135618Y-87992D01*
X-135000Y-88115D01*
X-134382Y-87992D01*
X-133858Y-87642D01*
X-133508Y-87118D01*
X-133385Y-86500D01*
X-133508Y-85882D01*
X-133858Y-85358D01*
X-134382Y-85008D01*
X-134856Y-84913D01*
X-152277Y-67493D01*
Y-66593D01*
X-151777Y-66441D01*
X-151642Y-66642D01*
X-151118Y-66992D01*
X-150644Y-67087D01*
X-134087Y-83644D01*
X-133992Y-84118D01*
X-133642Y-84642D01*
X-133118Y-84992D01*
X-132500Y-85115D01*
X-131882Y-84992D01*
X-131358Y-84642D01*
X-131008Y-84118D01*
X-130885Y-83500D01*
X-131008Y-82882D01*
X-131358Y-82358D01*
X-131882Y-82008D01*
X-132356Y-81913D01*
X-148913Y-65356D01*
X-149008Y-64882D01*
X-149358Y-64358D01*
X-149882Y-64008D01*
X-150500Y-63885D01*
X-151118Y-64008D01*
X-151642Y-64358D01*
X-151777Y-64559D01*
X-152277Y-64407D01*
Y-58500D01*
X-152370Y-58032D01*
X-152635Y-57635D01*
X-153913Y-56356D01*
X-154008Y-55882D01*
X-154358Y-55358D01*
X-154882Y-55008D01*
X-155500Y-54885D01*
D02*
G37*
G36*
X-114000Y-24385D02*
X-114618Y-24508D01*
X-115142Y-24858D01*
X-115492Y-25382D01*
X-115615Y-26000D01*
X-115492Y-26618D01*
X-115142Y-27142D01*
X-114918Y-27292D01*
Y-35000D01*
X-114848Y-35351D01*
X-114649Y-35649D01*
X-108649Y-41649D01*
X-108351Y-41848D01*
X-108000Y-41918D01*
X-103380D01*
X-87835Y-57463D01*
Y-82743D01*
X-88060Y-82893D01*
X-88410Y-83417D01*
X-88533Y-84035D01*
X-88410Y-84654D01*
X-88060Y-85178D01*
X-87536Y-85528D01*
X-86918Y-85651D01*
X-86300Y-85528D01*
X-85776Y-85178D01*
X-85425Y-84654D01*
X-85302Y-84035D01*
X-85425Y-83417D01*
X-85776Y-82893D01*
X-86000Y-82743D01*
Y-57082D01*
X-86070Y-56731D01*
X-86269Y-56433D01*
X-102351Y-40351D01*
X-102649Y-40152D01*
X-103000Y-40082D01*
X-107620D01*
X-113082Y-34620D01*
Y-27292D01*
X-112858Y-27142D01*
X-112508Y-26618D01*
X-112385Y-26000D01*
X-112508Y-25382D01*
X-112858Y-24858D01*
X-113382Y-24508D01*
X-114000Y-24385D01*
D02*
G37*
G36*
X-20000Y-80663D02*
X-21123Y-80811D01*
X-22169Y-81244D01*
X-23067Y-81933D01*
X-23756Y-82831D01*
X-24189Y-83877D01*
X-24337Y-85000D01*
X-24189Y-86123D01*
X-23902Y-86816D01*
X-25965Y-88878D01*
X-27170D01*
X-27339Y-88378D01*
X-26933Y-88067D01*
X-26244Y-87169D01*
X-25811Y-86123D01*
X-25663Y-85000D01*
X-25811Y-83877D01*
X-26244Y-82831D01*
X-26933Y-81933D01*
X-27832Y-81244D01*
X-28877Y-80811D01*
X-30000Y-80663D01*
X-31122Y-80811D01*
X-32168Y-81244D01*
X-33067Y-81933D01*
X-33756Y-82831D01*
X-34189Y-83877D01*
X-34337Y-85000D01*
X-34189Y-86123D01*
X-33756Y-87169D01*
X-33067Y-88067D01*
X-32661Y-88378D01*
X-32830Y-88878D01*
X-33000D01*
X-33000Y-88878D01*
X-33429Y-88964D01*
X-33793Y-89207D01*
X-33793Y-89207D01*
X-35793Y-91207D01*
X-36036Y-91571D01*
X-36122Y-92000D01*
X-36122Y-92000D01*
Y-92170D01*
X-36622Y-92339D01*
X-36933Y-91933D01*
X-37832Y-91244D01*
X-38877Y-90811D01*
X-40000Y-90663D01*
X-41122Y-90811D01*
X-42169Y-91244D01*
X-43067Y-91933D01*
X-43756Y-92831D01*
X-44189Y-93878D01*
X-44337Y-95000D01*
X-44189Y-96122D01*
X-43756Y-97169D01*
X-43067Y-98067D01*
X-42169Y-98756D01*
X-41122Y-99189D01*
X-40000Y-99337D01*
X-38877Y-99189D01*
X-37832Y-98756D01*
X-36933Y-98067D01*
X-36604Y-97638D01*
X-36069Y-97762D01*
X-36036Y-97929D01*
X-35793Y-98293D01*
X-31122Y-102965D01*
Y-144703D01*
X-31282Y-144943D01*
X-31405Y-145561D01*
X-31282Y-146179D01*
X-30931Y-146703D01*
X-30407Y-147053D01*
X-29789Y-147176D01*
X-29171Y-147053D01*
X-28647Y-146703D01*
X-28297Y-146179D01*
X-28174Y-145561D01*
X-28297Y-144943D01*
X-28647Y-144419D01*
X-28878Y-144264D01*
Y-102500D01*
X-28878Y-102500D01*
X-28964Y-102071D01*
X-29207Y-101707D01*
X-29207Y-101707D01*
X-31285Y-99629D01*
X-31001Y-99205D01*
X-30000Y-99337D01*
X-29445Y-99264D01*
X-22622Y-106086D01*
Y-116592D01*
X-23067Y-116933D01*
X-23756Y-117831D01*
X-24189Y-118877D01*
X-24337Y-120000D01*
X-24189Y-121123D01*
X-23756Y-122169D01*
X-23067Y-123067D01*
X-22169Y-123756D01*
X-21123Y-124189D01*
X-20000Y-124337D01*
X-19445Y-124264D01*
X-18129Y-125579D01*
X-18413Y-126003D01*
X-18878Y-125811D01*
X-20000Y-125663D01*
X-21123Y-125811D01*
X-22169Y-126244D01*
X-23067Y-126933D01*
X-23756Y-127831D01*
X-24189Y-128877D01*
X-24337Y-130000D01*
X-24189Y-131123D01*
X-23756Y-132169D01*
X-23067Y-133067D01*
X-22169Y-133756D01*
X-21123Y-134189D01*
X-20000Y-134337D01*
X-18878Y-134189D01*
X-17831Y-133756D01*
X-16933Y-133067D01*
X-16244Y-132169D01*
X-15811Y-131123D01*
X-15663Y-130000D01*
X-15811Y-128877D01*
X-16003Y-128412D01*
X-15579Y-128129D01*
X-14854Y-128854D01*
X-14854Y-128854D01*
X-14311Y-129271D01*
X-13679Y-129533D01*
X-13000Y-129622D01*
X7378D01*
Y-156000D01*
Y-178500D01*
X7467Y-179179D01*
X7729Y-179811D01*
X8146Y-180354D01*
X8689Y-180771D01*
X9321Y-181033D01*
X10000Y-181122D01*
X26500D01*
X26500Y-181123D01*
X27179Y-181033D01*
X27811Y-180771D01*
X28354Y-180354D01*
X34445Y-174264D01*
X35000Y-174337D01*
X36123Y-174189D01*
X37168Y-173756D01*
X38067Y-173067D01*
X38756Y-172169D01*
X39189Y-171123D01*
X39337Y-170000D01*
X39189Y-168877D01*
X38756Y-167831D01*
X38067Y-166933D01*
X37622Y-166592D01*
Y-162622D01*
X41592D01*
X41933Y-163067D01*
X42832Y-163756D01*
X43878Y-164189D01*
X45000Y-164337D01*
X46123Y-164189D01*
X47168Y-163756D01*
X48067Y-163067D01*
X48756Y-162169D01*
X49189Y-161123D01*
X49337Y-160000D01*
X49189Y-158878D01*
X48756Y-157831D01*
X48067Y-156933D01*
X47168Y-156244D01*
X46123Y-155811D01*
X45000Y-155663D01*
X43878Y-155811D01*
X42832Y-156244D01*
X41933Y-156933D01*
X41592Y-157378D01*
X35300D01*
X34621Y-157467D01*
X33989Y-157729D01*
X33446Y-158146D01*
X33446Y-158146D01*
X33146Y-158446D01*
X32729Y-158989D01*
X32467Y-159621D01*
X32378Y-160300D01*
X32378Y-160300D01*
Y-166592D01*
X31933Y-166933D01*
X31244Y-167831D01*
X30811Y-168877D01*
X30663Y-170000D01*
X30736Y-170555D01*
X25414Y-175878D01*
X12622D01*
Y-156000D01*
Y-127000D01*
Y-123408D01*
X13067Y-123067D01*
X13756Y-122169D01*
X14189Y-121123D01*
X14337Y-120000D01*
X14189Y-118877D01*
X13756Y-117831D01*
X13067Y-116933D01*
X12169Y-116244D01*
X11123Y-115811D01*
X10000Y-115663D01*
X8878Y-115811D01*
X7831Y-116244D01*
X6933Y-116933D01*
X6244Y-117831D01*
X5811Y-118877D01*
X5663Y-120000D01*
X5811Y-121123D01*
X6244Y-122169D01*
X6933Y-123067D01*
X7378Y-123408D01*
Y-124378D01*
X1975D01*
X1875Y-123878D01*
X2169Y-123756D01*
X3067Y-123067D01*
X3756Y-122169D01*
X4189Y-121123D01*
X4337Y-120000D01*
X4189Y-118877D01*
X3756Y-117831D01*
X3067Y-116933D01*
X2169Y-116244D01*
X1123Y-115811D01*
X0Y-115663D01*
X-1123Y-115811D01*
X-2169Y-116244D01*
X-3067Y-116933D01*
X-3756Y-117831D01*
X-4189Y-118877D01*
X-4337Y-120000D01*
X-4189Y-121123D01*
X-3756Y-122169D01*
X-3067Y-123067D01*
X-2169Y-123756D01*
X-1875Y-123878D01*
X-1975Y-124378D01*
X-11914D01*
X-15736Y-120555D01*
X-15663Y-120000D01*
X-15811Y-118877D01*
X-16244Y-117831D01*
X-16933Y-116933D01*
X-17378Y-116592D01*
Y-105000D01*
X-17378Y-105000D01*
X-17467Y-104321D01*
X-17729Y-103689D01*
X-18146Y-103146D01*
X-18146Y-103146D01*
X-25736Y-95555D01*
X-25663Y-95000D01*
X-25811Y-93878D01*
X-26244Y-92831D01*
X-26933Y-91933D01*
X-27339Y-91622D01*
X-27170Y-91122D01*
X-25500D01*
X-25500Y-91122D01*
X-25071Y-91036D01*
X-24707Y-90793D01*
X-22452Y-88538D01*
X-22169Y-88756D01*
X-21123Y-89189D01*
X-20000Y-89337D01*
X-18878Y-89189D01*
X-17831Y-88756D01*
X-16933Y-88067D01*
X-16244Y-87169D01*
X-15811Y-86123D01*
X-15663Y-85000D01*
X-15811Y-83877D01*
X-16244Y-82831D01*
X-16933Y-81933D01*
X-17831Y-81244D01*
X-18878Y-80811D01*
X-20000Y-80663D01*
D02*
G37*
G36*
X55000D02*
X53878Y-80811D01*
X52831Y-81244D01*
X51933Y-81933D01*
X51244Y-82831D01*
X50811Y-83877D01*
X50663Y-85000D01*
X50811Y-86123D01*
X51244Y-87169D01*
X51933Y-88067D01*
X52831Y-88756D01*
X53878Y-89189D01*
X55000Y-89337D01*
X56122Y-89189D01*
X57169Y-88756D01*
X58067Y-88067D01*
X58756Y-87169D01*
X59189Y-86123D01*
X59337Y-85000D01*
X59189Y-83877D01*
X58756Y-82831D01*
X58067Y-81933D01*
X57169Y-81244D01*
X56122Y-80811D01*
X55000Y-80663D01*
D02*
G37*
G36*
X30000D02*
X28877Y-80811D01*
X27832Y-81244D01*
X26933Y-81933D01*
X26244Y-82831D01*
X25811Y-83877D01*
X25663Y-85000D01*
X25811Y-86123D01*
X26244Y-87169D01*
X26933Y-88067D01*
X27832Y-88756D01*
X28877Y-89189D01*
X30000Y-89337D01*
X31122Y-89189D01*
X32168Y-88756D01*
X33067Y-88067D01*
X33756Y-87169D01*
X34189Y-86123D01*
X34337Y-85000D01*
X34189Y-83877D01*
X33756Y-82831D01*
X33067Y-81933D01*
X32168Y-81244D01*
X31122Y-80811D01*
X30000Y-80663D01*
D02*
G37*
G36*
X20000D02*
X18878Y-80811D01*
X17831Y-81244D01*
X16933Y-81933D01*
X16244Y-82831D01*
X15811Y-83877D01*
X15663Y-85000D01*
X15811Y-86123D01*
X16244Y-87169D01*
X16933Y-88067D01*
X17831Y-88756D01*
X18878Y-89189D01*
X20000Y-89337D01*
X21123Y-89189D01*
X22169Y-88756D01*
X23067Y-88067D01*
X23756Y-87169D01*
X24189Y-86123D01*
X24337Y-85000D01*
X24189Y-83877D01*
X23756Y-82831D01*
X23067Y-81933D01*
X22169Y-81244D01*
X21123Y-80811D01*
X20000Y-80663D01*
D02*
G37*
G36*
X10000D02*
X8878Y-80811D01*
X7831Y-81244D01*
X6933Y-81933D01*
X6244Y-82831D01*
X5811Y-83877D01*
X5663Y-85000D01*
X5811Y-86123D01*
X6244Y-87169D01*
X6933Y-88067D01*
X7831Y-88756D01*
X8878Y-89189D01*
X10000Y-89337D01*
X11123Y-89189D01*
X12169Y-88756D01*
X13067Y-88067D01*
X13756Y-87169D01*
X14189Y-86123D01*
X14337Y-85000D01*
X14189Y-83877D01*
X13756Y-82831D01*
X13067Y-81933D01*
X12169Y-81244D01*
X11123Y-80811D01*
X10000Y-80663D01*
D02*
G37*
G36*
X0D02*
X-1123Y-80811D01*
X-2169Y-81244D01*
X-3067Y-81933D01*
X-3756Y-82831D01*
X-4189Y-83877D01*
X-4337Y-85000D01*
X-4189Y-86123D01*
X-3756Y-87169D01*
X-3067Y-88067D01*
X-2169Y-88756D01*
X-1123Y-89189D01*
X0Y-89337D01*
X1123Y-89189D01*
X2169Y-88756D01*
X3067Y-88067D01*
X3756Y-87169D01*
X4189Y-86123D01*
X4337Y-85000D01*
X4189Y-83877D01*
X3756Y-82831D01*
X3067Y-81933D01*
X2169Y-81244D01*
X1123Y-80811D01*
X0Y-80663D01*
D02*
G37*
G36*
X-10000D02*
X-11123Y-80811D01*
X-12169Y-81244D01*
X-13067Y-81933D01*
X-13756Y-82831D01*
X-14189Y-83877D01*
X-14337Y-85000D01*
X-14189Y-86123D01*
X-13756Y-87169D01*
X-13067Y-88067D01*
X-12169Y-88756D01*
X-11123Y-89189D01*
X-10000Y-89337D01*
X-8878Y-89189D01*
X-7831Y-88756D01*
X-6933Y-88067D01*
X-6244Y-87169D01*
X-5811Y-86123D01*
X-5663Y-85000D01*
X-5811Y-83877D01*
X-6244Y-82831D01*
X-6933Y-81933D01*
X-7831Y-81244D01*
X-8878Y-80811D01*
X-10000Y-80663D01*
D02*
G37*
G36*
X-142000Y-84663D02*
X-143122Y-84811D01*
X-144169Y-85244D01*
X-145067Y-85933D01*
X-145756Y-86831D01*
X-146189Y-87878D01*
X-146337Y-89000D01*
X-146189Y-90122D01*
X-145756Y-91169D01*
X-145067Y-92067D01*
X-144169Y-92756D01*
X-143122Y-93189D01*
X-142000Y-93337D01*
X-140877Y-93189D01*
X-139831Y-92756D01*
X-138933Y-92067D01*
X-138244Y-91169D01*
X-137811Y-90122D01*
X-137663Y-89000D01*
X-137811Y-87878D01*
X-138244Y-86831D01*
X-138933Y-85933D01*
X-139831Y-85244D01*
X-140877Y-84811D01*
X-142000Y-84663D01*
D02*
G37*
G36*
X-173063Y-91446D02*
X-173796Y-91592D01*
X-174418Y-92007D01*
X-174834Y-92629D01*
X-174979Y-93362D01*
X-174834Y-94096D01*
X-174418Y-94717D01*
X-173796Y-95133D01*
X-173063Y-95279D01*
X-172330Y-95133D01*
X-171708Y-94717D01*
X-171292Y-94096D01*
X-171147Y-93362D01*
X-171292Y-92629D01*
X-171708Y-92007D01*
X-172330Y-91592D01*
X-173063Y-91446D01*
D02*
G37*
G36*
X130000Y-95663D02*
X128877Y-95811D01*
X127831Y-96244D01*
X126933Y-96933D01*
X126244Y-97831D01*
X125811Y-98878D01*
X125663Y-100000D01*
X125811Y-101122D01*
X126244Y-102169D01*
X126933Y-103067D01*
X127831Y-103756D01*
X128877Y-104189D01*
X130000Y-104337D01*
X131123Y-104189D01*
X132169Y-103756D01*
X133067Y-103067D01*
X133756Y-102169D01*
X134189Y-101122D01*
X134337Y-100000D01*
X134189Y-98878D01*
X133756Y-97831D01*
X133067Y-96933D01*
X132169Y-96244D01*
X131123Y-95811D01*
X130000Y-95663D01*
D02*
G37*
G36*
X85000D02*
X83877Y-95811D01*
X82831Y-96244D01*
X81933Y-96933D01*
X81244Y-97831D01*
X80811Y-98878D01*
X80663Y-100000D01*
X80811Y-101122D01*
X81244Y-102169D01*
X81933Y-103067D01*
X82831Y-103756D01*
X83877Y-104189D01*
X85000Y-104337D01*
X86123Y-104189D01*
X87169Y-103756D01*
X88067Y-103067D01*
X88756Y-102169D01*
X89189Y-101122D01*
X89337Y-100000D01*
X89189Y-98878D01*
X88756Y-97831D01*
X88067Y-96933D01*
X87169Y-96244D01*
X86123Y-95811D01*
X85000Y-95663D01*
D02*
G37*
G36*
X85000Y-115663D02*
X83877Y-115811D01*
X82831Y-116244D01*
X81933Y-116933D01*
X81244Y-117831D01*
X80811Y-118877D01*
X80663Y-120000D01*
X80811Y-121123D01*
X81244Y-122169D01*
X81933Y-123067D01*
X82831Y-123756D01*
X83877Y-124189D01*
X85000Y-124337D01*
X86123Y-124189D01*
X87169Y-123756D01*
X88067Y-123067D01*
X88756Y-122169D01*
X89189Y-121123D01*
X89337Y-120000D01*
X89189Y-118877D01*
X88756Y-117831D01*
X88067Y-116933D01*
X87169Y-116244D01*
X86123Y-115811D01*
X85000Y-115663D01*
D02*
G37*
G36*
X75000D02*
X73878Y-115811D01*
X72831Y-116244D01*
X71933Y-116933D01*
X71244Y-117831D01*
X70811Y-118877D01*
X70663Y-120000D01*
X70811Y-121123D01*
X71244Y-122169D01*
X71933Y-123067D01*
X72831Y-123756D01*
X73878Y-124189D01*
X75000Y-124337D01*
X76122Y-124189D01*
X77169Y-123756D01*
X78067Y-123067D01*
X78756Y-122169D01*
X79189Y-121123D01*
X79337Y-120000D01*
X79189Y-118877D01*
X78756Y-117831D01*
X78067Y-116933D01*
X77169Y-116244D01*
X76122Y-115811D01*
X75000Y-115663D01*
D02*
G37*
G36*
X65000D02*
X63877Y-115811D01*
X62831Y-116244D01*
X61933Y-116933D01*
X61244Y-117831D01*
X60811Y-118877D01*
X60663Y-120000D01*
X60811Y-121123D01*
X61244Y-122169D01*
X61933Y-123067D01*
X62831Y-123756D01*
X63877Y-124189D01*
X65000Y-124337D01*
X66123Y-124189D01*
X67168Y-123756D01*
X68067Y-123067D01*
X68756Y-122169D01*
X69189Y-121123D01*
X69337Y-120000D01*
X69189Y-118877D01*
X68756Y-117831D01*
X68067Y-116933D01*
X67168Y-116244D01*
X66123Y-115811D01*
X65000Y-115663D01*
D02*
G37*
G36*
X55000D02*
X53878Y-115811D01*
X52831Y-116244D01*
X51933Y-116933D01*
X51244Y-117831D01*
X50811Y-118877D01*
X50663Y-120000D01*
X50811Y-121123D01*
X51244Y-122169D01*
X51933Y-123067D01*
X52831Y-123756D01*
X53878Y-124189D01*
X55000Y-124337D01*
X56122Y-124189D01*
X57169Y-123756D01*
X58067Y-123067D01*
X58756Y-122169D01*
X59189Y-121123D01*
X59337Y-120000D01*
X59189Y-118877D01*
X58756Y-117831D01*
X58067Y-116933D01*
X57169Y-116244D01*
X56122Y-115811D01*
X55000Y-115663D01*
D02*
G37*
G36*
X45000D02*
X43878Y-115811D01*
X42831Y-116244D01*
X41933Y-116933D01*
X41244Y-117831D01*
X40811Y-118877D01*
X40663Y-120000D01*
X40811Y-121123D01*
X41244Y-122169D01*
X41933Y-123067D01*
X42831Y-123756D01*
X43878Y-124189D01*
X45000Y-124337D01*
X46123Y-124189D01*
X47168Y-123756D01*
X48067Y-123067D01*
X48756Y-122169D01*
X49189Y-121123D01*
X49337Y-120000D01*
X49189Y-118877D01*
X48756Y-117831D01*
X48067Y-116933D01*
X47168Y-116244D01*
X46123Y-115811D01*
X45000Y-115663D01*
D02*
G37*
G36*
X20000D02*
X18878Y-115811D01*
X17831Y-116244D01*
X16933Y-116933D01*
X16244Y-117831D01*
X15811Y-118877D01*
X15663Y-120000D01*
X15811Y-121123D01*
X16244Y-122169D01*
X16933Y-123067D01*
X17831Y-123756D01*
X18878Y-124189D01*
X20000Y-124337D01*
X21123Y-124189D01*
X22169Y-123756D01*
X23067Y-123067D01*
X23756Y-122169D01*
X24189Y-121123D01*
X24337Y-120000D01*
X24189Y-118877D01*
X23756Y-117831D01*
X23067Y-116933D01*
X22169Y-116244D01*
X21123Y-115811D01*
X20000Y-115663D01*
D02*
G37*
G36*
X-150000D02*
X-151122Y-115811D01*
X-152169Y-116244D01*
X-153067Y-116933D01*
X-153756Y-117831D01*
X-154189Y-118877D01*
X-154337Y-120000D01*
X-154189Y-121123D01*
X-153756Y-122169D01*
X-153067Y-123067D01*
X-152169Y-123756D01*
X-151122Y-124189D01*
X-150000Y-124337D01*
X-148878Y-124189D01*
X-147831Y-123756D01*
X-146933Y-123067D01*
X-146244Y-122169D01*
X-145811Y-121123D01*
X-145663Y-120000D01*
X-145811Y-118877D01*
X-146244Y-117831D01*
X-146933Y-116933D01*
X-147831Y-116244D01*
X-148878Y-115811D01*
X-150000Y-115663D01*
D02*
G37*
G36*
X-160000D02*
X-161123Y-115811D01*
X-162169Y-116244D01*
X-163067Y-116933D01*
X-163756Y-117831D01*
X-164189Y-118877D01*
X-164337Y-120000D01*
X-164189Y-121123D01*
X-163756Y-122169D01*
X-163067Y-123067D01*
X-162169Y-123756D01*
X-161123Y-124189D01*
X-160000Y-124337D01*
X-158878Y-124189D01*
X-157831Y-123756D01*
X-156933Y-123067D01*
X-156244Y-122169D01*
X-155811Y-121123D01*
X-155663Y-120000D01*
X-155811Y-118877D01*
X-156244Y-117831D01*
X-156933Y-116933D01*
X-157831Y-116244D01*
X-158878Y-115811D01*
X-160000Y-115663D01*
D02*
G37*
G36*
X-170000D02*
X-171123Y-115811D01*
X-172169Y-116244D01*
X-173067Y-116933D01*
X-173756Y-117831D01*
X-174189Y-118877D01*
X-174337Y-120000D01*
X-174189Y-121123D01*
X-173756Y-122169D01*
X-173067Y-123067D01*
X-172169Y-123756D01*
X-171123Y-124189D01*
X-170000Y-124337D01*
X-168877Y-124189D01*
X-167831Y-123756D01*
X-166933Y-123067D01*
X-166244Y-122169D01*
X-165811Y-121123D01*
X-165663Y-120000D01*
X-165811Y-118877D01*
X-166244Y-117831D01*
X-166933Y-116933D01*
X-167831Y-116244D01*
X-168877Y-115811D01*
X-170000Y-115663D01*
D02*
G37*
G36*
X-180000D02*
X-181123Y-115811D01*
X-182169Y-116244D01*
X-183067Y-116933D01*
X-183756Y-117831D01*
X-184189Y-118877D01*
X-184337Y-120000D01*
X-184189Y-121123D01*
X-183756Y-122169D01*
X-183067Y-123067D01*
X-182169Y-123756D01*
X-181123Y-124189D01*
X-180000Y-124337D01*
X-178877Y-124189D01*
X-177831Y-123756D01*
X-176933Y-123067D01*
X-176244Y-122169D01*
X-175811Y-121123D01*
X-175663Y-120000D01*
X-175811Y-118877D01*
X-176244Y-117831D01*
X-176933Y-116933D01*
X-177831Y-116244D01*
X-178877Y-115811D01*
X-180000Y-115663D01*
D02*
G37*
G36*
X-125000Y-120663D02*
X-126122Y-120811D01*
X-127169Y-121244D01*
X-128067Y-121933D01*
X-128756Y-122831D01*
X-129189Y-123878D01*
X-129337Y-125000D01*
X-129189Y-126122D01*
X-128756Y-127169D01*
X-128067Y-128067D01*
X-127169Y-128756D01*
X-126122Y-129189D01*
X-125000Y-129337D01*
X-123878Y-129189D01*
X-122831Y-128756D01*
X-121933Y-128067D01*
X-121244Y-127169D01*
X-120811Y-126122D01*
X-120663Y-125000D01*
X-120811Y-123878D01*
X-121244Y-122831D01*
X-121933Y-121933D01*
X-122831Y-121244D01*
X-123878Y-120811D01*
X-125000Y-120663D01*
D02*
G37*
G36*
X130000Y-125663D02*
X128877Y-125811D01*
X127831Y-126244D01*
X126933Y-126933D01*
X126244Y-127831D01*
X125811Y-128877D01*
X125663Y-130000D01*
X125811Y-131123D01*
X126244Y-132169D01*
X126933Y-133067D01*
X127831Y-133756D01*
X128877Y-134189D01*
X130000Y-134337D01*
X131123Y-134189D01*
X132169Y-133756D01*
X133067Y-133067D01*
X133756Y-132169D01*
X134189Y-131123D01*
X134337Y-130000D01*
X134189Y-128877D01*
X133756Y-127831D01*
X133067Y-126933D01*
X132169Y-126244D01*
X131123Y-125811D01*
X130000Y-125663D01*
D02*
G37*
G36*
X20000D02*
X18878Y-125811D01*
X17831Y-126244D01*
X16933Y-126933D01*
X16244Y-127831D01*
X15811Y-128877D01*
X15663Y-130000D01*
X15811Y-131123D01*
X16244Y-132169D01*
X16933Y-133067D01*
X17831Y-133756D01*
X18878Y-134189D01*
X20000Y-134337D01*
X21123Y-134189D01*
X22169Y-133756D01*
X23067Y-133067D01*
X23756Y-132169D01*
X24189Y-131123D01*
X24337Y-130000D01*
X24189Y-128877D01*
X23756Y-127831D01*
X23067Y-126933D01*
X22169Y-126244D01*
X21123Y-125811D01*
X20000Y-125663D01*
D02*
G37*
G36*
X130000Y-135663D02*
X128877Y-135811D01*
X127831Y-136244D01*
X126933Y-136933D01*
X126244Y-137831D01*
X125811Y-138877D01*
X125663Y-140000D01*
X125811Y-141122D01*
X126244Y-142169D01*
X126933Y-143067D01*
X127831Y-143756D01*
X128877Y-144189D01*
X130000Y-144337D01*
X131123Y-144189D01*
X132169Y-143756D01*
X133067Y-143067D01*
X133756Y-142169D01*
X134189Y-141122D01*
X134337Y-140000D01*
X134189Y-138877D01*
X133756Y-137831D01*
X133067Y-136933D01*
X132169Y-136244D01*
X131123Y-135811D01*
X130000Y-135663D01*
D02*
G37*
G36*
X30000D02*
X28877Y-135811D01*
X27832Y-136244D01*
X26933Y-136933D01*
X26244Y-137831D01*
X25811Y-138877D01*
X25663Y-140000D01*
X25811Y-141122D01*
X26244Y-142169D01*
X26933Y-143067D01*
X27832Y-143756D01*
X28877Y-144189D01*
X30000Y-144337D01*
X31122Y-144189D01*
X32168Y-143756D01*
X33067Y-143067D01*
X33756Y-142169D01*
X34189Y-141122D01*
X34337Y-140000D01*
X34189Y-138877D01*
X33756Y-137831D01*
X33067Y-136933D01*
X32168Y-136244D01*
X31122Y-135811D01*
X30000Y-135663D01*
D02*
G37*
G36*
X20000D02*
X18878Y-135811D01*
X17831Y-136244D01*
X16933Y-136933D01*
X16244Y-137831D01*
X15811Y-138877D01*
X15663Y-140000D01*
X15811Y-141122D01*
X16244Y-142169D01*
X16933Y-143067D01*
X17831Y-143756D01*
X18878Y-144189D01*
X20000Y-144337D01*
X21123Y-144189D01*
X22169Y-143756D01*
X23067Y-143067D01*
X23756Y-142169D01*
X24189Y-141122D01*
X24337Y-140000D01*
X24189Y-138877D01*
X23756Y-137831D01*
X23067Y-136933D01*
X22169Y-136244D01*
X21123Y-135811D01*
X20000Y-135663D01*
D02*
G37*
G36*
X130000Y-145663D02*
X128877Y-145811D01*
X127831Y-146244D01*
X126933Y-146933D01*
X126244Y-147831D01*
X125811Y-148878D01*
X125663Y-150000D01*
X125811Y-151122D01*
X126244Y-152169D01*
X126933Y-153067D01*
X127831Y-153756D01*
X128877Y-154189D01*
X130000Y-154337D01*
X131123Y-154189D01*
X132169Y-153756D01*
X133067Y-153067D01*
X133756Y-152169D01*
X134189Y-151122D01*
X134337Y-150000D01*
X134189Y-148878D01*
X133756Y-147831D01*
X133067Y-146933D01*
X132169Y-146244D01*
X131123Y-145811D01*
X130000Y-145663D01*
D02*
G37*
G36*
X45000D02*
X43878Y-145811D01*
X42832Y-146244D01*
X41933Y-146933D01*
X41244Y-147831D01*
X40811Y-148878D01*
X40663Y-150000D01*
X40811Y-151122D01*
X41244Y-152169D01*
X41933Y-153067D01*
X42832Y-153756D01*
X43878Y-154189D01*
X45000Y-154337D01*
X46123Y-154189D01*
X47168Y-153756D01*
X48067Y-153067D01*
X48756Y-152169D01*
X49189Y-151122D01*
X49337Y-150000D01*
X49189Y-148878D01*
X48756Y-147831D01*
X48067Y-146933D01*
X47168Y-146244D01*
X46123Y-145811D01*
X45000Y-145663D01*
D02*
G37*
G36*
X30000D02*
X28877Y-145811D01*
X27832Y-146244D01*
X26933Y-146933D01*
X26244Y-147831D01*
X25811Y-148878D01*
X25663Y-150000D01*
X25811Y-151122D01*
X26244Y-152169D01*
X26933Y-153067D01*
X27832Y-153756D01*
X28877Y-154189D01*
X30000Y-154337D01*
X31122Y-154189D01*
X32168Y-153756D01*
X33067Y-153067D01*
X33756Y-152169D01*
X34189Y-151122D01*
X34337Y-150000D01*
X34189Y-148878D01*
X33756Y-147831D01*
X33067Y-146933D01*
X32168Y-146244D01*
X31122Y-145811D01*
X30000Y-145663D01*
D02*
G37*
G36*
X-20000D02*
X-21123Y-145811D01*
X-22169Y-146244D01*
X-23067Y-146933D01*
X-23756Y-147831D01*
X-24189Y-148878D01*
X-24337Y-150000D01*
X-24189Y-151122D01*
X-23756Y-152169D01*
X-23067Y-153067D01*
X-22169Y-153756D01*
X-21123Y-154189D01*
X-20000Y-154337D01*
X-18878Y-154189D01*
X-17831Y-153756D01*
X-16933Y-153067D01*
X-16244Y-152169D01*
X-15811Y-151122D01*
X-15663Y-150000D01*
X-15811Y-148878D01*
X-16244Y-147831D01*
X-16933Y-146933D01*
X-17831Y-146244D01*
X-18878Y-145811D01*
X-20000Y-145663D01*
D02*
G37*
G36*
X130000Y-155663D02*
X128877Y-155811D01*
X127831Y-156244D01*
X126933Y-156933D01*
X126244Y-157831D01*
X125811Y-158878D01*
X125663Y-160000D01*
X125811Y-161123D01*
X126244Y-162169D01*
X126933Y-163067D01*
X127831Y-163756D01*
X128877Y-164189D01*
X130000Y-164337D01*
X131123Y-164189D01*
X132169Y-163756D01*
X133067Y-163067D01*
X133756Y-162169D01*
X134189Y-161123D01*
X134337Y-160000D01*
X134189Y-158878D01*
X133756Y-157831D01*
X133067Y-156933D01*
X132169Y-156244D01*
X131123Y-155811D01*
X130000Y-155663D01*
D02*
G37*
G36*
X20000D02*
X18878Y-155811D01*
X17831Y-156244D01*
X16933Y-156933D01*
X16244Y-157831D01*
X15811Y-158878D01*
X15663Y-160000D01*
X15811Y-161123D01*
X16244Y-162169D01*
X16933Y-163067D01*
X17831Y-163756D01*
X18878Y-164189D01*
X20000Y-164337D01*
X21123Y-164189D01*
X22169Y-163756D01*
X23067Y-163067D01*
X23756Y-162169D01*
X24189Y-161123D01*
X24337Y-160000D01*
X24189Y-158878D01*
X23756Y-157831D01*
X23067Y-156933D01*
X22169Y-156244D01*
X21123Y-155811D01*
X20000Y-155663D01*
D02*
G37*
G36*
X-20000D02*
X-21123Y-155811D01*
X-22169Y-156244D01*
X-23067Y-156933D01*
X-23756Y-157831D01*
X-24189Y-158878D01*
X-24337Y-160000D01*
X-24189Y-161123D01*
X-23756Y-162169D01*
X-23067Y-163067D01*
X-22169Y-163756D01*
X-21123Y-164189D01*
X-20000Y-164337D01*
X-18878Y-164189D01*
X-17831Y-163756D01*
X-16933Y-163067D01*
X-16244Y-162169D01*
X-15811Y-161123D01*
X-15663Y-160000D01*
X-15811Y-158878D01*
X-16244Y-157831D01*
X-16933Y-156933D01*
X-17831Y-156244D01*
X-18878Y-155811D01*
X-20000Y-155663D01*
D02*
G37*
G36*
X45000Y-165663D02*
X43878Y-165811D01*
X42832Y-166244D01*
X41933Y-166933D01*
X41244Y-167831D01*
X40811Y-168877D01*
X40663Y-170000D01*
X40811Y-171123D01*
X41244Y-172169D01*
X41933Y-173067D01*
X42832Y-173756D01*
X43878Y-174189D01*
X45000Y-174337D01*
X46123Y-174189D01*
X47168Y-173756D01*
X48067Y-173067D01*
X48756Y-172169D01*
X49189Y-171123D01*
X49337Y-170000D01*
X49189Y-168877D01*
X48756Y-167831D01*
X48067Y-166933D01*
X47168Y-166244D01*
X46123Y-165811D01*
X45000Y-165663D01*
D02*
G37*
G36*
X20000D02*
X18878Y-165811D01*
X17831Y-166244D01*
X16933Y-166933D01*
X16244Y-167831D01*
X15811Y-168877D01*
X15663Y-170000D01*
X15811Y-171123D01*
X16244Y-172169D01*
X16933Y-173067D01*
X17831Y-173756D01*
X18878Y-174189D01*
X20000Y-174337D01*
X21123Y-174189D01*
X22169Y-173756D01*
X23067Y-173067D01*
X23756Y-172169D01*
X24189Y-171123D01*
X24337Y-170000D01*
X24189Y-168877D01*
X23756Y-167831D01*
X23067Y-166933D01*
X22169Y-166244D01*
X21123Y-165811D01*
X20000Y-165663D01*
D02*
G37*
G36*
X0D02*
X-1123Y-165811D01*
X-2169Y-166244D01*
X-3067Y-166933D01*
X-3756Y-167831D01*
X-4189Y-168877D01*
X-4337Y-170000D01*
X-4189Y-171123D01*
X-3756Y-172169D01*
X-3067Y-173067D01*
X-2169Y-173756D01*
X-1123Y-174189D01*
X0Y-174337D01*
X1123Y-174189D01*
X2169Y-173756D01*
X3067Y-173067D01*
X3756Y-172169D01*
X4189Y-171123D01*
X4337Y-170000D01*
X4189Y-168877D01*
X3756Y-167831D01*
X3067Y-166933D01*
X2169Y-166244D01*
X1123Y-165811D01*
X0Y-165663D01*
D02*
G37*
G36*
X-10000D02*
X-11123Y-165811D01*
X-12169Y-166244D01*
X-13067Y-166933D01*
X-13756Y-167831D01*
X-14189Y-168877D01*
X-14337Y-170000D01*
X-14189Y-171123D01*
X-13756Y-172169D01*
X-13067Y-173067D01*
X-12169Y-173756D01*
X-11123Y-174189D01*
X-10000Y-174337D01*
X-8878Y-174189D01*
X-7831Y-173756D01*
X-6933Y-173067D01*
X-6244Y-172169D01*
X-5811Y-171123D01*
X-5663Y-170000D01*
X-5811Y-168877D01*
X-6244Y-167831D01*
X-6933Y-166933D01*
X-7831Y-166244D01*
X-8878Y-165811D01*
X-10000Y-165663D01*
D02*
G37*
G36*
X-20000D02*
X-21123Y-165811D01*
X-22169Y-166244D01*
X-23067Y-166933D01*
X-23756Y-167831D01*
X-24189Y-168877D01*
X-24337Y-170000D01*
X-24189Y-171123D01*
X-23756Y-172169D01*
X-23067Y-173067D01*
X-22169Y-173756D01*
X-21123Y-174189D01*
X-20000Y-174337D01*
X-18878Y-174189D01*
X-17831Y-173756D01*
X-16933Y-173067D01*
X-16244Y-172169D01*
X-15811Y-171123D01*
X-15663Y-170000D01*
X-15811Y-168877D01*
X-16244Y-167831D01*
X-16933Y-166933D01*
X-17831Y-166244D01*
X-18878Y-165811D01*
X-20000Y-165663D01*
D02*
G37*
%LPD*%
D15*
X75000Y35000D02*
Y38000D01*
Y35000D02*
X95000Y15000D01*
X96000Y126000D02*
X98000Y124000D01*
Y122000D02*
Y124000D01*
Y122000D02*
X101000Y119000D01*
Y116000D02*
Y119000D01*
X80000Y125500D02*
Y128000D01*
Y125500D02*
X90000Y115500D01*
X102500Y-28500D02*
X112500D01*
X-90000Y70000D02*
X-74000D01*
X-135000Y105000D02*
X-100000D01*
X-95000Y110000D01*
X-140000D02*
X-135000Y105000D01*
X-150000Y-160961D02*
Y-159237D01*
X-155000Y68000D02*
Y87052D01*
X-159000Y91052D02*
X-155000Y87052D01*
X-159000Y91052D02*
Y95000D01*
X-166000Y57000D02*
X-155000Y68000D01*
X-157500Y105000D02*
X-145000D01*
X-140000Y110000D01*
X-165000Y112500D02*
X-157500Y105000D01*
X-165000Y112500D02*
Y165000D01*
X-160000Y170000D01*
X-179000Y95000D02*
X-159000D01*
X-179500Y94500D02*
X-179000Y95000D01*
X-180000D02*
X-179500Y94500D01*
X-30000Y-145350D02*
Y-102500D01*
Y-145350D02*
X-29789Y-145561D01*
X-35000Y-97500D02*
X-30000Y-102500D01*
X-35000Y-97500D02*
Y-92000D01*
X-33000Y-90000D01*
X-25500D02*
X-20500Y-85000D01*
X-33000Y-90000D02*
X-25500D01*
X-20500Y-85000D02*
X-20000D01*
X91500Y-17500D02*
X102500Y-28500D01*
X75000Y-10000D02*
X84000D01*
X91500Y-17500D01*
X-125500Y153000D02*
X-122000Y149500D01*
X-125500Y153000D02*
Y172000D01*
X-122000Y149500D02*
X-107000D01*
X-79000D02*
Y172000D01*
X94800Y24700D02*
Y77200D01*
X90000Y82000D02*
X94800Y77200D01*
X90000Y82000D02*
Y115500D01*
X99388Y20112D02*
X109888D01*
X115000Y15000D01*
X94800Y24700D02*
X99388Y20112D01*
X100000Y-45000D02*
X105000Y-50000D01*
X100000Y-45000D02*
Y-33000D01*
X105000Y135000D02*
X110000Y130000D01*
X127000D01*
X-77000Y20000D02*
X-75000D01*
X-82000Y15000D02*
X-77000Y20000D01*
X-82000Y10000D02*
Y15000D01*
X-85000Y7000D02*
X-82000Y10000D01*
D16*
X-86918Y-84035D02*
Y-57082D01*
X-103000Y-41000D02*
X-86918Y-57082D01*
X-108000Y-41000D02*
X-103000D01*
X-83081Y-80919D02*
Y-56419D01*
X-98500Y-41000D02*
X-83081Y-56419D01*
X-83000Y-28000D02*
X-75000Y-20000D01*
X-107000Y-28000D02*
X-83000D01*
X-113000Y-22000D02*
X-110500Y-24500D01*
Y-34500D02*
Y-24500D01*
Y-34500D02*
X-107500Y-37500D01*
X-114000Y-22000D02*
X-113000D01*
X-114000Y-35000D02*
X-108000Y-41000D01*
X-114000Y-35000D02*
Y-26000D01*
X-94500Y-37500D02*
X-79385Y-52615D01*
Y-77500D02*
Y-52615D01*
X-71000Y-77000D02*
Y-51000D01*
X-75000Y-47000D02*
X-71000Y-51000D01*
X-67000Y-115500D02*
Y-50000D01*
X-70000Y-47000D02*
X-67000Y-50000D01*
X-70000Y-47000D02*
Y-5000D01*
X-53000Y-73500D02*
X-30906Y-51406D01*
X-53000Y-122000D02*
Y-73500D01*
X-107500Y-37500D02*
X-94500D01*
X-106331Y-34116D02*
X-80884D01*
X-75000Y-40000D01*
X-106358Y-34142D02*
X-106331Y-34116D01*
X-36500Y59500D02*
X-31000Y65000D01*
X-36500Y24595D02*
Y59500D01*
X-31000Y65000D02*
X-30000D01*
X-75000Y0D02*
X-70000Y-5000D01*
X-36500Y24595D02*
X-30906Y19000D01*
Y-51406D02*
Y19000D01*
X-160000Y13000D02*
Y19000D01*
X-162000Y21000D02*
X-160000Y19000D01*
X-11400Y-36400D02*
X44400D01*
X-15081Y-40081D02*
X-11400Y-36400D01*
X-18919Y-40081D02*
X-15081D01*
X-13200Y-35200D02*
X69800D01*
X-16000Y-38000D02*
X-13200Y-35200D01*
X-19000Y-40000D02*
X-18919Y-40081D01*
X-16000Y-34000D02*
X43000D01*
X-23000Y-41000D02*
X-16000Y-34000D01*
X69800Y-35200D02*
X75000Y-30000D01*
X44400Y-36400D02*
X53000Y-45000D01*
X43000Y-34000D02*
X52000Y-25000D01*
X70000Y-45000D02*
X75000Y-40000D01*
X53000Y-45000D02*
X70000D01*
X52000Y-25000D02*
X70000D01*
X75000Y-20000D01*
D17*
X-160000Y-83000D02*
Y-78000D01*
X-162000Y-76000D02*
X-160000Y-78000D01*
D71*
X96000Y116000D02*
X97000D01*
X103000Y110000D01*
X124000Y-16000D02*
X130000Y-10000D01*
X124000Y-29000D02*
Y-16000D01*
Y-29000D02*
X130000Y-35000D01*
X-160500Y180000D02*
X-160000Y179500D01*
X-153000Y99500D02*
X-137000Y83500D01*
X-168500Y99500D02*
X-153000D01*
X-171500Y102500D02*
X-168500Y99500D01*
X-171500Y102500D02*
Y175000D01*
X-137000Y70549D02*
Y83500D01*
X-122000Y3000D02*
X-120500Y1500D01*
X-123500Y3000D02*
X-122000D01*
X-146821Y-47000D02*
X-135584D01*
X-151000Y-42821D02*
X-146821Y-47000D01*
X-151000Y-42821D02*
Y-37000D01*
X-153000Y-35000D02*
X-151000Y-37000D01*
X-162000Y-71500D02*
Y5500D01*
X-171500Y175000D02*
X-166500Y180000D01*
X-160500D01*
X-162000Y5500D02*
X-158250Y9250D01*
X-136750D01*
X-133000Y13000D01*
X-111000Y9000D02*
X-109000Y11000D01*
X-129000Y9000D02*
X-111000D01*
X-133000Y13000D02*
X-129000Y9000D01*
X103000Y110000D02*
X105000D01*
D130*
X98080Y133000D02*
Y140080D01*
X78000Y133000D02*
X98080D01*
X72325Y127325D02*
X78000Y133000D01*
X72325Y117325D02*
Y127325D01*
X-135584Y-60416D02*
X-107000Y-89000D01*
Y-133000D02*
Y-89000D01*
X-150000Y-140000D02*
X-114000D01*
X-160000D02*
X-150000D01*
X-170000D02*
X-160000D01*
X-114000D02*
X-107000Y-133000D01*
X-180000Y-140000D02*
X-170000D01*
X-70500Y61500D02*
X-51500D01*
X-81500Y50500D02*
X-70500Y61500D01*
X-81500Y30000D02*
Y50500D01*
X35300Y-160000D02*
X45000D01*
X35000Y-160300D02*
X35300Y-160000D01*
X26500Y-178500D02*
X35000Y-170000D01*
X10000Y-178500D02*
X26500D01*
X35000Y-170000D02*
Y-160300D01*
X-107000Y-133000D02*
X-53000D01*
X76000Y-60500D02*
X80500Y-56000D01*
X73000Y-48500D02*
X80500Y-56000D01*
X-6500Y90000D02*
Y95000D01*
Y81500D02*
Y90000D01*
X113000Y155000D02*
Y172000D01*
X98080Y140080D02*
X113000Y155000D01*
X106650Y178349D02*
X113000Y172000D01*
X95651Y178349D02*
X106650D01*
X77500Y102500D02*
X85000Y110000D01*
X27000Y102500D02*
X77500D01*
X25219Y100719D02*
X27000Y102500D01*
X-120500Y-16000D02*
Y1500D01*
X-108500Y3000D02*
X-81500Y30000D01*
X-123500Y3000D02*
X-108500D01*
X-51500Y61500D02*
X-45000Y68000D01*
Y79500D01*
X-16500Y108000D01*
X9500D01*
X69500Y-48500D02*
X73000D01*
X24000Y2000D02*
Y6500D01*
Y-22500D02*
Y2000D01*
Y-27000D02*
Y-22500D01*
X-40000Y-120000D02*
Y-105607D01*
X-53000Y-133000D02*
X-40000Y-120000D01*
X-20000D02*
X-13000Y-127000D01*
X-20000Y-120000D02*
Y-105000D01*
X-135584Y-47000D02*
Y-31084D01*
Y-60416D02*
Y-47000D01*
Y-31084D02*
X-120500Y-16000D01*
X-30000Y-95000D02*
X-20000Y-105000D01*
X10000Y-178500D02*
Y-156000D01*
X95000Y179000D02*
X95651Y178349D01*
X7500Y115000D02*
Y122500D01*
X15000Y130000D01*
X7500Y115000D02*
X9500Y113000D01*
Y108000D02*
Y113000D01*
X22000Y97500D02*
X25219Y100719D01*
X-4000Y97500D02*
X22000D01*
X-6500Y95000D02*
X-4000Y97500D01*
X-6500Y81500D02*
X10000Y65000D01*
X7500Y137500D02*
X15000Y130000D01*
X45000D01*
X7500Y137500D02*
Y142500D01*
X0Y150000D02*
X7500Y142500D01*
X-13000Y-127000D02*
X10000D01*
Y-120000D01*
Y-156000D02*
Y-127000D01*
X90000Y30000D02*
Y60000D01*
X110000Y35000D02*
X120000Y45000D01*
Y78500D02*
X122000Y80500D01*
X120000Y45000D02*
Y78500D01*
X122000Y80500D02*
Y96969D01*
X130000Y104969D01*
X118173Y111827D02*
X123141D01*
X105000Y125000D02*
X118173Y111827D01*
X123141D02*
X130000Y104969D01*
X65000Y110000D02*
X72325Y117325D01*
X98080Y131000D02*
X104080Y125000D01*
X105000D01*
X45000Y130000D02*
X65000Y110000D01*
X-95000Y95000D02*
X-65000D01*
X-55000Y85000D01*
Y75000D02*
Y85000D01*
D132*
X-153500Y-68000D02*
Y-58500D01*
X-155500Y-56500D02*
X-153500Y-58500D01*
Y-68000D02*
X-135000Y-86500D01*
X-150500Y-65500D02*
X-132500Y-83500D01*
D134*
X55000Y-85000D02*
D03*
Y-75000D02*
D03*
Y-65000D02*
D03*
Y-55000D02*
D03*
X-55000Y130000D02*
D03*
Y140000D02*
D03*
X-160000Y130000D02*
D03*
Y140000D02*
D03*
X-20000Y160000D02*
D03*
Y170000D02*
D03*
X-55000Y180000D02*
D03*
Y170000D02*
D03*
Y160000D02*
D03*
X-20000Y45000D02*
D03*
Y55000D02*
D03*
Y65000D02*
D03*
X55000Y20000D02*
D03*
X65000D02*
D03*
X75000D02*
D03*
X0Y-170000D02*
D03*
X-10000D02*
D03*
X-20000D02*
D03*
X15000Y140000D02*
D03*
Y150000D02*
D03*
Y160000D02*
D03*
X-55000Y85000D02*
D03*
X-65000D02*
D03*
X130000Y-160000D02*
D03*
Y-150000D02*
D03*
Y-140000D02*
D03*
Y-130000D02*
D03*
X20000Y-140000D02*
D03*
Y-130000D02*
D03*
Y-120000D02*
D03*
X-95000Y75000D02*
D03*
Y85000D02*
D03*
Y95000D02*
D03*
X45000Y-150000D02*
D03*
Y-160000D02*
D03*
X85000Y-120000D02*
D03*
X75000D02*
D03*
X65000D02*
D03*
X55000D02*
D03*
X115000Y15000D02*
D03*
X105000D02*
D03*
X95000D02*
D03*
X-145000Y-30000D02*
D03*
Y-40000D02*
D03*
X-170000Y85000D02*
D03*
X-180000D02*
D03*
X-190000D02*
D03*
X-150000D02*
D03*
X-160000D02*
D03*
X35000Y-170000D02*
D03*
X45000D02*
D03*
X-125000Y-125000D02*
D03*
X20000Y-160000D02*
D03*
Y-170000D02*
D03*
X-180000Y-160000D02*
D03*
X-170000D02*
D03*
X-160000D02*
D03*
X-150000D02*
D03*
X-20000Y-150000D02*
D03*
Y-160000D02*
D03*
X130000Y-10000D02*
D03*
Y0D02*
D03*
X-95000Y110000D02*
D03*
X-85000D02*
D03*
X-75000D02*
D03*
X-160000Y160000D02*
D03*
Y170000D02*
D03*
Y180000D02*
D03*
X-140000Y110000D02*
D03*
X-130000D02*
D03*
X-120000D02*
D03*
X20000Y-85000D02*
D03*
Y-75000D02*
D03*
Y-65000D02*
D03*
X30000Y-85000D02*
D03*
Y-75000D02*
D03*
Y-65000D02*
D03*
X-30000Y45000D02*
D03*
Y55000D02*
D03*
Y65000D02*
D03*
X-10000D02*
D03*
Y55000D02*
D03*
Y45000D02*
D03*
X-55000Y0D02*
D03*
X-65000D02*
D03*
X-75000D02*
D03*
X-55000Y-10000D02*
D03*
X-65000D02*
D03*
X-75000D02*
D03*
X-55000Y-20000D02*
D03*
X-65000D02*
D03*
X-75000D02*
D03*
X-55000Y-30000D02*
D03*
X-65000D02*
D03*
X-75000D02*
D03*
Y10000D02*
D03*
X-65000D02*
D03*
X-55000D02*
D03*
Y-40000D02*
D03*
X-65000D02*
D03*
X-75000D02*
D03*
Y20000D02*
D03*
X-65000D02*
D03*
X-55000D02*
D03*
X-30000Y-65000D02*
D03*
Y-75000D02*
D03*
Y-85000D02*
D03*
X-20000Y-65000D02*
D03*
Y-75000D02*
D03*
Y-85000D02*
D03*
X-10000Y-65000D02*
D03*
Y-75000D02*
D03*
Y-85000D02*
D03*
X0Y-65000D02*
D03*
Y-75000D02*
D03*
Y-85000D02*
D03*
X30000Y65000D02*
D03*
Y55000D02*
D03*
Y45000D02*
D03*
X10000Y-65000D02*
D03*
Y-75000D02*
D03*
Y-85000D02*
D03*
X20000Y65000D02*
D03*
Y55000D02*
D03*
Y45000D02*
D03*
X55000Y-40000D02*
D03*
X65000D02*
D03*
X75000D02*
D03*
X55000Y-30000D02*
D03*
X65000D02*
D03*
X75000D02*
D03*
X55000Y-20000D02*
D03*
X65000D02*
D03*
X75000D02*
D03*
X55000Y-10000D02*
D03*
X65000D02*
D03*
X75000D02*
D03*
X55000Y0D02*
D03*
X65000D02*
D03*
X75000D02*
D03*
X55000Y10000D02*
D03*
X65000D02*
D03*
X75000D02*
D03*
X0Y65000D02*
D03*
Y55000D02*
D03*
Y45000D02*
D03*
X105000Y110000D02*
D03*
X95000D02*
D03*
X85000D02*
D03*
X0Y140000D02*
D03*
Y150000D02*
D03*
Y90000D02*
D03*
X10000D02*
D03*
Y45000D02*
D03*
Y55000D02*
D03*
Y65000D02*
D03*
X-125000Y85000D02*
D03*
X-115000D02*
D03*
X65000Y75000D02*
D03*
Y85000D02*
D03*
X-95000Y45000D02*
D03*
Y35000D02*
D03*
X-55000Y40000D02*
D03*
Y50000D02*
D03*
X130000Y104969D02*
D03*
Y94968D02*
D03*
X-20000Y-120000D02*
D03*
Y-130000D02*
D03*
X10000Y-120000D02*
D03*
X0D02*
D03*
X-30000Y-95000D02*
D03*
X-40000D02*
D03*
X100000Y30000D02*
D03*
X90000D02*
D03*
X110000Y45000D02*
D03*
Y35000D02*
D03*
X105000Y135000D02*
D03*
Y125000D02*
D03*
X65000Y110000D02*
D03*
X75000D02*
D03*
X115000Y-50000D02*
D03*
X105000D02*
D03*
X95000D02*
D03*
Y-40000D02*
D03*
X105000D02*
D03*
X15000Y120000D02*
D03*
Y130000D02*
D03*
X130000Y-35000D02*
D03*
Y-25000D02*
D03*
X115000Y0D02*
D03*
Y-10000D02*
D03*
X85000Y179000D02*
D03*
X95000D02*
D03*
Y169000D02*
D03*
Y159000D02*
D03*
X105000Y169000D02*
D03*
Y159000D02*
D03*
X-65000Y75000D02*
D03*
X-55000D02*
D03*
X85000Y159000D02*
D03*
X45000Y-120000D02*
D03*
X55000Y-160000D02*
D03*
X120000Y45000D02*
D03*
X130000D02*
D03*
X100000Y60000D02*
D03*
X90000D02*
D03*
X-142000Y-63000D02*
D03*
Y-89000D02*
D03*
Y28000D02*
D03*
Y2000D02*
D03*
X95000Y-100000D02*
D03*
X85000D02*
D03*
X120000D02*
D03*
X130000D02*
D03*
Y-65000D02*
D03*
X120000D02*
D03*
X85000D02*
D03*
X95000D02*
D03*
X105000Y0D02*
D03*
Y-10000D02*
D03*
X95000Y0D02*
D03*
Y-10000D02*
D03*
X-100000D02*
D03*
Y0D02*
D03*
X-10000Y-160000D02*
D03*
X65000Y95000D02*
D03*
X-180000Y105000D02*
D03*
Y95000D02*
D03*
X-190000Y105000D02*
D03*
X-180000Y-140000D02*
D03*
X-170000D02*
D03*
X-160000D02*
D03*
X-150000D02*
D03*
X-180000Y-120000D02*
D03*
X-170000D02*
D03*
X-160000D02*
D03*
X-150000D02*
D03*
X-35000Y180000D02*
D03*
Y190000D02*
D03*
X30000Y-150000D02*
D03*
Y-140000D02*
D03*
D135*
X124016Y183071D02*
D03*
X-183071Y-183071D02*
D03*
X124016D02*
D03*
X-183071Y183071D02*
D03*
D136*
X115354D02*
D03*
X132677D02*
D03*
X124016Y174409D02*
D03*
Y191732D02*
D03*
X117913Y189173D02*
D03*
X130118D02*
D03*
X117913Y176969D02*
D03*
X130118D02*
D03*
X-191733Y-183071D02*
D03*
X-174410D02*
D03*
X-183071Y-191732D02*
D03*
Y-174409D02*
D03*
X-189174Y-176969D02*
D03*
X-176969D02*
D03*
X-189174Y-189173D02*
D03*
X-176969D02*
D03*
X115354Y-183071D02*
D03*
X132677D02*
D03*
X124016Y-191732D02*
D03*
Y-174409D02*
D03*
X117913Y-176969D02*
D03*
X130118D02*
D03*
X117913Y-189173D02*
D03*
X130118D02*
D03*
X-191733Y183071D02*
D03*
X-174410D02*
D03*
X-183071Y174409D02*
D03*
Y191732D02*
D03*
X-189174Y189173D02*
D03*
X-176969D02*
D03*
X-189174Y176969D02*
D03*
X-176969D02*
D03*
D137*
X-173063Y-70606D02*
D03*
Y-93362D02*
D03*
Y26394D02*
D03*
Y3638D02*
D03*
D138*
X-186843Y-64957D02*
D03*
Y-99012D02*
D03*
Y32043D02*
D03*
Y-2012D02*
D03*
D139*
X-171095Y-99012D02*
D03*
Y-64957D02*
D03*
Y-2012D02*
D03*
Y32043D02*
D03*
D140*
X-102047Y163031D02*
D03*
Y166969D02*
D03*
X-107953D02*
D03*
Y163031D02*
D03*
X-105000Y165000D02*
D03*
X-74000Y70000D02*
D03*
X-90000D02*
D03*
X-166000Y57000D02*
D03*
X-159000Y95000D02*
D03*
D141*
X-98500Y-41000D02*
D03*
X-107000Y-28000D02*
D03*
X-86918Y-84035D02*
D03*
X-79385Y-77500D02*
D03*
X-83081Y-80919D02*
D03*
X-71000Y-77000D02*
D03*
X77000Y138000D02*
D03*
X61000Y127000D02*
D03*
X87000Y128000D02*
D03*
X120000Y116000D02*
D03*
X107000Y117000D02*
D03*
X93000Y99000D02*
D03*
X115000Y76000D02*
D03*
X75000Y38000D02*
D03*
X88000Y72000D02*
D03*
Y67000D02*
D03*
X107000Y58000D02*
D03*
Y69000D02*
D03*
X101000Y116000D02*
D03*
X80000Y128000D02*
D03*
X94000Y123000D02*
D03*
X96000Y116000D02*
D03*
X112500Y-28500D02*
D03*
X123000Y0D02*
D03*
X-53000Y-122000D02*
D03*
X-2500Y-12500D02*
D03*
X2500D02*
D03*
Y-7500D02*
D03*
X-2500D02*
D03*
X-6500Y90000D02*
D03*
X-186000Y62500D02*
D03*
X-191500Y52000D02*
D03*
X-187500Y15000D02*
D03*
X-154000Y-20500D02*
D03*
X-81500Y-31500D02*
D03*
X-106358Y-34142D02*
D03*
X-182500Y8000D02*
D03*
Y21500D02*
D03*
X-84000Y-36000D02*
D03*
X-118500Y-30500D02*
D03*
X-137000Y-26000D02*
D03*
X-144000Y-19000D02*
D03*
X-172500Y-15500D02*
D03*
X-186500Y40500D02*
D03*
X-179500Y-8500D02*
D03*
X-185000Y165000D02*
D03*
X-190000Y155000D02*
D03*
X-38500Y61500D02*
D03*
X-40000Y-109607D02*
D03*
X76000Y-60500D02*
D03*
X69500Y-48500D02*
D03*
X73000D02*
D03*
X80500Y-56000D02*
D03*
X24000Y-27000D02*
D03*
Y6500D02*
D03*
X125000Y75000D02*
D03*
Y18000D02*
D03*
X105000Y-70000D02*
D03*
Y-95000D02*
D03*
X115000Y-85000D02*
D03*
X15000Y-100000D02*
D03*
X39500Y-91000D02*
D03*
X-45000Y-25000D02*
D03*
Y-15000D02*
D03*
X-40000Y33500D02*
D03*
X35000Y30000D02*
D03*
X65000D02*
D03*
Y60000D02*
D03*
X77500Y90000D02*
D03*
X85000Y85000D02*
D03*
X115000Y105000D02*
D03*
X75000Y175000D02*
D03*
X0D02*
D03*
X25000D02*
D03*
X125000Y150000D02*
D03*
X50000Y175000D02*
D03*
Y150000D02*
D03*
X-110000Y40000D02*
D03*
X75000Y-95000D02*
D03*
X100000Y-175000D02*
D03*
X75000D02*
D03*
X50000D02*
D03*
X-125000D02*
D03*
X-150000D02*
D03*
Y-150000D02*
D03*
X-125000D02*
D03*
X-100000Y-125000D02*
D03*
Y-150000D02*
D03*
X-40000Y-170000D02*
D03*
X-65000D02*
D03*
X-100000Y-175000D02*
D03*
X-75000Y-150000D02*
D03*
X-50000D02*
D03*
X-75000Y-125000D02*
D03*
X-50000Y-105000D02*
D03*
X-55000Y-90000D02*
D03*
X-85000Y-100000D02*
D03*
X-95000D02*
D03*
X-185000Y-20000D02*
D03*
X-155000Y90000D02*
D03*
X-40500Y115000D02*
D03*
X30000Y85000D02*
D03*
X65000Y45000D02*
D03*
X20000Y10000D02*
D03*
X-20000D02*
D03*
X15000Y-30000D02*
D03*
X-20000D02*
D03*
X-40000Y-35000D02*
D03*
X-151000Y-99500D02*
D03*
X-154500D02*
D03*
X-123500Y3000D02*
D03*
X-40000Y-105607D02*
D03*
X-153000Y-35000D02*
D03*
X-120500Y-16000D02*
D03*
X112000Y126000D02*
D03*
X108500Y93500D02*
D03*
X95500Y-153000D02*
D03*
X14000Y-126000D02*
D03*
X9500Y108000D02*
D03*
X24000Y-22500D02*
D03*
Y2000D02*
D03*
X25219Y100719D02*
D03*
X-6500Y95000D02*
D03*
X12500Y-182500D02*
D03*
X91500Y-17500D02*
D03*
X96000Y126000D02*
D03*
X26000Y-183000D02*
D03*
X-1000Y-182000D02*
D03*
X-14000D02*
D03*
X-29789Y-145561D02*
D03*
X-162000Y-76000D02*
D03*
Y-71500D02*
D03*
X-137000Y70549D02*
D03*
X-162000Y5500D02*
D03*
X-125500Y13500D02*
D03*
X-122500D02*
D03*
Y16500D02*
D03*
X-125500D02*
D03*
X-109000Y11000D02*
D03*
X-133000Y13000D02*
D03*
X10000Y-156000D02*
D03*
X-120000Y125000D02*
D03*
X-160000Y115000D02*
D03*
X-55000Y110000D02*
D03*
X-70000Y150000D02*
D03*
Y130000D02*
D03*
X-105000Y125000D02*
D03*
X-120000Y140000D02*
D03*
X-150000D02*
D03*
X-140000Y150000D02*
D03*
X-130000Y160000D02*
D03*
X-102000Y144500D02*
D03*
X-125500Y172000D02*
D03*
X-107000Y149500D02*
D03*
X-79000Y172000D02*
D03*
Y149500D02*
D03*
X-67000Y-115500D02*
D03*
X100000Y-33000D02*
D03*
X123000Y-163000D02*
D03*
X105000D02*
D03*
X115000D02*
D03*
X125000Y-125000D02*
D03*
X115000D02*
D03*
X105000D02*
D03*
X125000Y-145000D02*
D03*
X115000D02*
D03*
X105000D02*
D03*
X90000Y-162000D02*
D03*
X63000Y-160000D02*
D03*
X55000Y-150000D02*
D03*
X45000Y-135000D02*
D03*
X55000D02*
D03*
X98000Y-132000D02*
D03*
X93000D02*
D03*
X70000D02*
D03*
X75000D02*
D03*
X127000Y130000D02*
D03*
X-160000Y13000D02*
D03*
X-162000Y21000D02*
D03*
X-85000Y7000D02*
D03*
X-114000Y-22000D02*
D03*
Y-26000D02*
D03*
X-16000Y-38000D02*
D03*
X-19000Y-40000D02*
D03*
X-23000Y-41000D02*
D03*
X-75000Y-47000D02*
D03*
X-155500Y-56500D02*
D03*
X-135000Y-86500D02*
D03*
X-150500Y-65500D02*
D03*
X-132500Y-83500D02*
D03*
X-118000Y-61000D02*
D03*
X-114000Y-65000D02*
D03*
X-98500Y-56000D02*
D03*
Y-63000D02*
D03*
Y-69000D02*
D03*
Y-50000D02*
D03*
X-111000Y-44500D02*
D03*
X-119000D02*
D03*
X-103000D02*
D03*
X-129567Y-60331D02*
D03*
X-110000Y-69000D02*
D03*
X-127000Y-44500D02*
D03*
X-132000Y-56000D02*
D03*
Y-50000D02*
D03*
X-160000Y-83000D02*
D03*
M02*
