G04*
G04 #@! TF.GenerationSoftware,Altium Limited,Altium Designer,19.1.5 (86)*
G04*
G04 Layer_Color=255*
%FSLAX25Y25*%
%MOIN*%
G70*
G01*
G75*
G04:AMPARAMS|DCode=24|XSize=50mil|YSize=80mil|CornerRadius=5mil|HoleSize=0mil|Usage=FLASHONLY|Rotation=180.000|XOffset=0mil|YOffset=0mil|HoleType=Round|Shape=RoundedRectangle|*
%AMROUNDEDRECTD24*
21,1,0.05000,0.07000,0,0,180.0*
21,1,0.04000,0.08000,0,0,180.0*
1,1,0.01000,-0.02000,0.03500*
1,1,0.01000,0.02000,0.03500*
1,1,0.01000,0.02000,-0.03500*
1,1,0.01000,-0.02000,-0.03500*
%
%ADD24ROUNDEDRECTD24*%
G04:AMPARAMS|DCode=25|XSize=35.43mil|YSize=31.5mil|CornerRadius=3.94mil|HoleSize=0mil|Usage=FLASHONLY|Rotation=0.000|XOffset=0mil|YOffset=0mil|HoleType=Round|Shape=RoundedRectangle|*
%AMROUNDEDRECTD25*
21,1,0.03543,0.02362,0,0,0.0*
21,1,0.02756,0.03150,0,0,0.0*
1,1,0.00787,0.01378,-0.01181*
1,1,0.00787,-0.01378,-0.01181*
1,1,0.00787,-0.01378,0.01181*
1,1,0.00787,0.01378,0.01181*
%
%ADD25ROUNDEDRECTD25*%
G04:AMPARAMS|DCode=26|XSize=42.5mil|YSize=55mil|CornerRadius=4.25mil|HoleSize=0mil|Usage=FLASHONLY|Rotation=0.000|XOffset=0mil|YOffset=0mil|HoleType=Round|Shape=RoundedRectangle|*
%AMROUNDEDRECTD26*
21,1,0.04250,0.04650,0,0,0.0*
21,1,0.03400,0.05500,0,0,0.0*
1,1,0.00850,0.01700,-0.02325*
1,1,0.00850,-0.01700,-0.02325*
1,1,0.00850,-0.01700,0.02325*
1,1,0.00850,0.01700,0.02325*
%
%ADD26ROUNDEDRECTD26*%
G04:AMPARAMS|DCode=27|XSize=31.5mil|YSize=31.5mil|CornerRadius=3.15mil|HoleSize=0mil|Usage=FLASHONLY|Rotation=0.000|XOffset=0mil|YOffset=0mil|HoleType=Round|Shape=RoundedRectangle|*
%AMROUNDEDRECTD27*
21,1,0.03150,0.02520,0,0,0.0*
21,1,0.02520,0.03150,0,0,0.0*
1,1,0.00630,0.01260,-0.01260*
1,1,0.00630,-0.01260,-0.01260*
1,1,0.00630,-0.01260,0.01260*
1,1,0.00630,0.01260,0.01260*
%
%ADD27ROUNDEDRECTD27*%
%ADD28O,0.00906X0.03150*%
G04:AMPARAMS|DCode=29|XSize=12mil|YSize=22mil|CornerRadius=3mil|HoleSize=0mil|Usage=FLASHONLY|Rotation=180.000|XOffset=0mil|YOffset=0mil|HoleType=Round|Shape=RoundedRectangle|*
%AMROUNDEDRECTD29*
21,1,0.01200,0.01600,0,0,180.0*
21,1,0.00600,0.02200,0,0,180.0*
1,1,0.00600,-0.00300,0.00800*
1,1,0.00600,0.00300,0.00800*
1,1,0.00600,0.00300,-0.00800*
1,1,0.00600,-0.00300,-0.00800*
%
%ADD29ROUNDEDRECTD29*%
G04:AMPARAMS|DCode=30|XSize=12mil|YSize=32mil|CornerRadius=3mil|HoleSize=0mil|Usage=FLASHONLY|Rotation=180.000|XOffset=0mil|YOffset=0mil|HoleType=Round|Shape=RoundedRectangle|*
%AMROUNDEDRECTD30*
21,1,0.01200,0.02600,0,0,180.0*
21,1,0.00600,0.03200,0,0,180.0*
1,1,0.00600,-0.00300,0.01300*
1,1,0.00600,0.00300,0.01300*
1,1,0.00600,0.00300,-0.01300*
1,1,0.00600,-0.00300,-0.01300*
%
%ADD30ROUNDEDRECTD30*%
G04:AMPARAMS|DCode=31|XSize=12mil|YSize=22mil|CornerRadius=3mil|HoleSize=0mil|Usage=FLASHONLY|Rotation=90.000|XOffset=0mil|YOffset=0mil|HoleType=Round|Shape=RoundedRectangle|*
%AMROUNDEDRECTD31*
21,1,0.01200,0.01600,0,0,90.0*
21,1,0.00600,0.02200,0,0,90.0*
1,1,0.00600,0.00800,0.00300*
1,1,0.00600,0.00800,-0.00300*
1,1,0.00600,-0.00800,-0.00300*
1,1,0.00600,-0.00800,0.00300*
%
%ADD31ROUNDEDRECTD31*%
G04:AMPARAMS|DCode=32|XSize=12mil|YSize=32mil|CornerRadius=3mil|HoleSize=0mil|Usage=FLASHONLY|Rotation=90.000|XOffset=0mil|YOffset=0mil|HoleType=Round|Shape=RoundedRectangle|*
%AMROUNDEDRECTD32*
21,1,0.01200,0.02600,0,0,90.0*
21,1,0.00600,0.03200,0,0,90.0*
1,1,0.00600,0.01300,0.00300*
1,1,0.00600,0.01300,-0.00300*
1,1,0.00600,-0.01300,-0.00300*
1,1,0.00600,-0.01300,0.00300*
%
%ADD32ROUNDEDRECTD32*%
G04:AMPARAMS|DCode=33|XSize=43.31mil|YSize=94.49mil|CornerRadius=17.32mil|HoleSize=0mil|Usage=FLASHONLY|Rotation=90.000|XOffset=0mil|YOffset=0mil|HoleType=Round|Shape=RoundedRectangle|*
%AMROUNDEDRECTD33*
21,1,0.04331,0.05984,0,0,90.0*
21,1,0.00866,0.09449,0,0,90.0*
1,1,0.03465,0.02992,0.00433*
1,1,0.03465,0.02992,-0.00433*
1,1,0.03465,-0.02992,-0.00433*
1,1,0.03465,-0.02992,0.00433*
%
%ADD33ROUNDEDRECTD33*%
%ADD34R,0.01260X0.10000*%
%ADD35O,0.05906X0.02362*%
%ADD36R,0.01968X0.03150*%
%ADD37R,0.02756X0.01102*%
%ADD38R,0.01102X0.02756*%
G04:AMPARAMS|DCode=39|XSize=23.62mil|YSize=43.31mil|CornerRadius=5.91mil|HoleSize=0mil|Usage=FLASHONLY|Rotation=90.000|XOffset=0mil|YOffset=0mil|HoleType=Round|Shape=RoundedRectangle|*
%AMROUNDEDRECTD39*
21,1,0.02362,0.03150,0,0,90.0*
21,1,0.01181,0.04331,0,0,90.0*
1,1,0.01181,0.01575,0.00591*
1,1,0.01181,0.01575,-0.00591*
1,1,0.01181,-0.01575,-0.00591*
1,1,0.01181,-0.01575,0.00591*
%
%ADD39ROUNDEDRECTD39*%
G04:AMPARAMS|DCode=40|XSize=31.5mil|YSize=106.3mil|CornerRadius=3.94mil|HoleSize=0mil|Usage=FLASHONLY|Rotation=180.000|XOffset=0mil|YOffset=0mil|HoleType=Round|Shape=RoundedRectangle|*
%AMROUNDEDRECTD40*
21,1,0.03150,0.09843,0,0,180.0*
21,1,0.02362,0.10630,0,0,180.0*
1,1,0.00787,-0.01181,0.04921*
1,1,0.00787,0.01181,0.04921*
1,1,0.00787,0.01181,-0.04921*
1,1,0.00787,-0.01181,-0.04921*
%
%ADD40ROUNDEDRECTD40*%
G04:AMPARAMS|DCode=41|XSize=11.81mil|YSize=25.98mil|CornerRadius=2.95mil|HoleSize=0mil|Usage=FLASHONLY|Rotation=90.000|XOffset=0mil|YOffset=0mil|HoleType=Round|Shape=RoundedRectangle|*
%AMROUNDEDRECTD41*
21,1,0.01181,0.02008,0,0,90.0*
21,1,0.00591,0.02598,0,0,90.0*
1,1,0.00591,0.01004,0.00295*
1,1,0.00591,0.01004,-0.00295*
1,1,0.00591,-0.01004,-0.00295*
1,1,0.00591,-0.01004,0.00295*
%
%ADD41ROUNDEDRECTD41*%
%ADD42R,0.05709X0.05709*%
%ADD43O,0.00984X0.02756*%
%ADD44O,0.02756X0.00984*%
G04:AMPARAMS|DCode=45|XSize=36.42mil|YSize=15.75mil|CornerRadius=3.94mil|HoleSize=0mil|Usage=FLASHONLY|Rotation=0.000|XOffset=0mil|YOffset=0mil|HoleType=Round|Shape=RoundedRectangle|*
%AMROUNDEDRECTD45*
21,1,0.03642,0.00787,0,0,0.0*
21,1,0.02854,0.01575,0,0,0.0*
1,1,0.00787,0.01427,-0.00394*
1,1,0.00787,-0.01427,-0.00394*
1,1,0.00787,-0.01427,0.00394*
1,1,0.00787,0.01427,0.00394*
%
%ADD45ROUNDEDRECTD45*%
G04:AMPARAMS|DCode=46|XSize=36.42mil|YSize=15.75mil|CornerRadius=3.94mil|HoleSize=0mil|Usage=FLASHONLY|Rotation=90.000|XOffset=0mil|YOffset=0mil|HoleType=Round|Shape=RoundedRectangle|*
%AMROUNDEDRECTD46*
21,1,0.03642,0.00787,0,0,90.0*
21,1,0.02854,0.01575,0,0,90.0*
1,1,0.00787,0.00394,0.01427*
1,1,0.00787,0.00394,-0.01427*
1,1,0.00787,-0.00394,-0.01427*
1,1,0.00787,-0.00394,0.01427*
%
%ADD46ROUNDEDRECTD46*%
G04:AMPARAMS|DCode=47|XSize=39.37mil|YSize=70.87mil|CornerRadius=4.92mil|HoleSize=0mil|Usage=FLASHONLY|Rotation=90.000|XOffset=0mil|YOffset=0mil|HoleType=Round|Shape=RoundedRectangle|*
%AMROUNDEDRECTD47*
21,1,0.03937,0.06102,0,0,90.0*
21,1,0.02953,0.07087,0,0,90.0*
1,1,0.00984,0.03051,0.01476*
1,1,0.00984,0.03051,-0.01476*
1,1,0.00984,-0.03051,-0.01476*
1,1,0.00984,-0.03051,0.01476*
%
%ADD47ROUNDEDRECTD47*%
%ADD48O,0.05709X0.02362*%
G04:AMPARAMS|DCode=49|XSize=27.56mil|YSize=27.56mil|CornerRadius=4.13mil|HoleSize=0mil|Usage=FLASHONLY|Rotation=0.000|XOffset=0mil|YOffset=0mil|HoleType=Round|Shape=RoundedRectangle|*
%AMROUNDEDRECTD49*
21,1,0.02756,0.01929,0,0,0.0*
21,1,0.01929,0.02756,0,0,0.0*
1,1,0.00827,0.00965,-0.00965*
1,1,0.00827,-0.00965,-0.00965*
1,1,0.00827,-0.00965,0.00965*
1,1,0.00827,0.00965,0.00965*
%
%ADD49ROUNDEDRECTD49*%
G04:AMPARAMS|DCode=50|XSize=25mil|YSize=50mil|CornerRadius=3.13mil|HoleSize=0mil|Usage=FLASHONLY|Rotation=90.000|XOffset=0mil|YOffset=0mil|HoleType=Round|Shape=RoundedRectangle|*
%AMROUNDEDRECTD50*
21,1,0.02500,0.04375,0,0,90.0*
21,1,0.01875,0.05000,0,0,90.0*
1,1,0.00625,0.02188,0.00938*
1,1,0.00625,0.02188,-0.00938*
1,1,0.00625,-0.02188,-0.00938*
1,1,0.00625,-0.02188,0.00938*
%
%ADD50ROUNDEDRECTD50*%
G04:AMPARAMS|DCode=51|XSize=7.87mil|YSize=20.67mil|CornerRadius=1.97mil|HoleSize=0mil|Usage=FLASHONLY|Rotation=90.000|XOffset=0mil|YOffset=0mil|HoleType=Round|Shape=RoundedRectangle|*
%AMROUNDEDRECTD51*
21,1,0.00787,0.01673,0,0,90.0*
21,1,0.00394,0.02067,0,0,90.0*
1,1,0.00394,0.00837,0.00197*
1,1,0.00394,0.00837,-0.00197*
1,1,0.00394,-0.00837,-0.00197*
1,1,0.00394,-0.00837,0.00197*
%
%ADD51ROUNDEDRECTD51*%
G04:AMPARAMS|DCode=52|XSize=15.75mil|YSize=20.67mil|CornerRadius=3.94mil|HoleSize=0mil|Usage=FLASHONLY|Rotation=90.000|XOffset=0mil|YOffset=0mil|HoleType=Round|Shape=RoundedRectangle|*
%AMROUNDEDRECTD52*
21,1,0.01575,0.01280,0,0,90.0*
21,1,0.00787,0.02067,0,0,90.0*
1,1,0.00787,0.00640,0.00394*
1,1,0.00787,0.00640,-0.00394*
1,1,0.00787,-0.00640,-0.00394*
1,1,0.00787,-0.00640,0.00394*
%
%ADD52ROUNDEDRECTD52*%
G04:AMPARAMS|DCode=53|XSize=35.43mil|YSize=31.5mil|CornerRadius=3.94mil|HoleSize=0mil|Usage=FLASHONLY|Rotation=90.000|XOffset=0mil|YOffset=0mil|HoleType=Round|Shape=RoundedRectangle|*
%AMROUNDEDRECTD53*
21,1,0.03543,0.02362,0,0,90.0*
21,1,0.02756,0.03150,0,0,90.0*
1,1,0.00787,0.01181,0.01378*
1,1,0.00787,0.01181,-0.01378*
1,1,0.00787,-0.01181,-0.01378*
1,1,0.00787,-0.01181,0.01378*
%
%ADD53ROUNDEDRECTD53*%
G04:AMPARAMS|DCode=54|XSize=17.72mil|YSize=35.43mil|CornerRadius=4.43mil|HoleSize=0mil|Usage=FLASHONLY|Rotation=270.000|XOffset=0mil|YOffset=0mil|HoleType=Round|Shape=RoundedRectangle|*
%AMROUNDEDRECTD54*
21,1,0.01772,0.02657,0,0,270.0*
21,1,0.00886,0.03543,0,0,270.0*
1,1,0.00886,-0.01329,-0.00443*
1,1,0.00886,-0.01329,0.00443*
1,1,0.00886,0.01329,0.00443*
1,1,0.00886,0.01329,-0.00443*
%
%ADD54ROUNDEDRECTD54*%
G04:AMPARAMS|DCode=55|XSize=59.06mil|YSize=11.81mil|CornerRadius=2.95mil|HoleSize=0mil|Usage=FLASHONLY|Rotation=0.000|XOffset=0mil|YOffset=0mil|HoleType=Round|Shape=RoundedRectangle|*
%AMROUNDEDRECTD55*
21,1,0.05906,0.00591,0,0,0.0*
21,1,0.05315,0.01181,0,0,0.0*
1,1,0.00591,0.02657,-0.00295*
1,1,0.00591,-0.02657,-0.00295*
1,1,0.00591,-0.02657,0.00295*
1,1,0.00591,0.02657,0.00295*
%
%ADD55ROUNDEDRECTD55*%
G04:AMPARAMS|DCode=56|XSize=45.28mil|YSize=55.12mil|CornerRadius=11.32mil|HoleSize=0mil|Usage=FLASHONLY|Rotation=270.000|XOffset=0mil|YOffset=0mil|HoleType=Round|Shape=RoundedRectangle|*
%AMROUNDEDRECTD56*
21,1,0.04528,0.03248,0,0,270.0*
21,1,0.02264,0.05512,0,0,270.0*
1,1,0.02264,-0.01624,-0.01132*
1,1,0.02264,-0.01624,0.01132*
1,1,0.02264,0.01624,0.01132*
1,1,0.02264,0.01624,-0.01132*
%
%ADD56ROUNDEDRECTD56*%
G04:AMPARAMS|DCode=57|XSize=31.58mil|YSize=38.27mil|CornerRadius=7.89mil|HoleSize=0mil|Usage=FLASHONLY|Rotation=270.000|XOffset=0mil|YOffset=0mil|HoleType=Round|Shape=RoundedRectangle|*
%AMROUNDEDRECTD57*
21,1,0.03158,0.02248,0,0,270.0*
21,1,0.01579,0.03827,0,0,270.0*
1,1,0.01579,-0.01124,-0.00789*
1,1,0.01579,-0.01124,0.00789*
1,1,0.01579,0.01124,0.00789*
1,1,0.01579,0.01124,-0.00789*
%
%ADD57ROUNDEDRECTD57*%
G04:AMPARAMS|DCode=58|XSize=35mil|YSize=35mil|CornerRadius=4.38mil|HoleSize=0mil|Usage=FLASHONLY|Rotation=90.000|XOffset=0mil|YOffset=0mil|HoleType=Round|Shape=RoundedRectangle|*
%AMROUNDEDRECTD58*
21,1,0.03500,0.02625,0,0,90.0*
21,1,0.02625,0.03500,0,0,90.0*
1,1,0.00875,0.01313,0.01313*
1,1,0.00875,0.01313,-0.01313*
1,1,0.00875,-0.01313,-0.01313*
1,1,0.00875,-0.01313,0.01313*
%
%ADD58ROUNDEDRECTD58*%
G04:AMPARAMS|DCode=59|XSize=35mil|YSize=35mil|CornerRadius=3.5mil|HoleSize=0mil|Usage=FLASHONLY|Rotation=90.000|XOffset=0mil|YOffset=0mil|HoleType=Round|Shape=RoundedRectangle|*
%AMROUNDEDRECTD59*
21,1,0.03500,0.02800,0,0,90.0*
21,1,0.02800,0.03500,0,0,90.0*
1,1,0.00700,0.01400,0.01400*
1,1,0.00700,0.01400,-0.01400*
1,1,0.00700,-0.01400,-0.01400*
1,1,0.00700,-0.01400,0.01400*
%
%ADD59ROUNDEDRECTD59*%
G04:AMPARAMS|DCode=60|XSize=42.5mil|YSize=55mil|CornerRadius=4.25mil|HoleSize=0mil|Usage=FLASHONLY|Rotation=90.000|XOffset=0mil|YOffset=0mil|HoleType=Round|Shape=RoundedRectangle|*
%AMROUNDEDRECTD60*
21,1,0.04250,0.04650,0,0,90.0*
21,1,0.03400,0.05500,0,0,90.0*
1,1,0.00850,0.02325,0.01700*
1,1,0.00850,0.02325,-0.01700*
1,1,0.00850,-0.02325,-0.01700*
1,1,0.00850,-0.02325,0.01700*
%
%ADD60ROUNDEDRECTD60*%
G04:AMPARAMS|DCode=61|XSize=21.65mil|YSize=39.37mil|CornerRadius=5.41mil|HoleSize=0mil|Usage=FLASHONLY|Rotation=0.000|XOffset=0mil|YOffset=0mil|HoleType=Round|Shape=RoundedRectangle|*
%AMROUNDEDRECTD61*
21,1,0.02165,0.02854,0,0,0.0*
21,1,0.01083,0.03937,0,0,0.0*
1,1,0.01083,0.00541,-0.01427*
1,1,0.01083,-0.00541,-0.01427*
1,1,0.01083,-0.00541,0.01427*
1,1,0.01083,0.00541,0.01427*
%
%ADD61ROUNDEDRECTD61*%
G04:AMPARAMS|DCode=62|XSize=25.59mil|YSize=47.24mil|CornerRadius=3.2mil|HoleSize=0mil|Usage=FLASHONLY|Rotation=90.000|XOffset=0mil|YOffset=0mil|HoleType=Round|Shape=RoundedRectangle|*
%AMROUNDEDRECTD62*
21,1,0.02559,0.04085,0,0,90.0*
21,1,0.01919,0.04724,0,0,90.0*
1,1,0.00640,0.02042,0.00960*
1,1,0.00640,0.02042,-0.00960*
1,1,0.00640,-0.02042,-0.00960*
1,1,0.00640,-0.02042,0.00960*
%
%ADD62ROUNDEDRECTD62*%
G04:AMPARAMS|DCode=63|XSize=35mil|YSize=35mil|CornerRadius=4.38mil|HoleSize=0mil|Usage=FLASHONLY|Rotation=180.000|XOffset=0mil|YOffset=0mil|HoleType=Round|Shape=RoundedRectangle|*
%AMROUNDEDRECTD63*
21,1,0.03500,0.02625,0,0,180.0*
21,1,0.02625,0.03500,0,0,180.0*
1,1,0.00875,-0.01313,0.01313*
1,1,0.00875,0.01313,0.01313*
1,1,0.00875,0.01313,-0.01313*
1,1,0.00875,-0.01313,-0.01313*
%
%ADD63ROUNDEDRECTD63*%
G04:AMPARAMS|DCode=64|XSize=35mil|YSize=35mil|CornerRadius=3.5mil|HoleSize=0mil|Usage=FLASHONLY|Rotation=0.000|XOffset=0mil|YOffset=0mil|HoleType=Round|Shape=RoundedRectangle|*
%AMROUNDEDRECTD64*
21,1,0.03500,0.02800,0,0,0.0*
21,1,0.02800,0.03500,0,0,0.0*
1,1,0.00700,0.01400,-0.01400*
1,1,0.00700,-0.01400,-0.01400*
1,1,0.00700,-0.01400,0.01400*
1,1,0.00700,0.01400,0.01400*
%
%ADD64ROUNDEDRECTD64*%
G04:AMPARAMS|DCode=65|XSize=31.58mil|YSize=38.27mil|CornerRadius=7.89mil|HoleSize=0mil|Usage=FLASHONLY|Rotation=180.000|XOffset=0mil|YOffset=0mil|HoleType=Round|Shape=RoundedRectangle|*
%AMROUNDEDRECTD65*
21,1,0.03158,0.02248,0,0,180.0*
21,1,0.01579,0.03827,0,0,180.0*
1,1,0.01579,-0.00789,0.01124*
1,1,0.01579,0.00789,0.01124*
1,1,0.01579,0.00789,-0.01124*
1,1,0.01579,-0.00789,-0.01124*
%
%ADD65ROUNDEDRECTD65*%
G04:AMPARAMS|DCode=66|XSize=17.72mil|YSize=35.43mil|CornerRadius=4.43mil|HoleSize=0mil|Usage=FLASHONLY|Rotation=180.000|XOffset=0mil|YOffset=0mil|HoleType=Round|Shape=RoundedRectangle|*
%AMROUNDEDRECTD66*
21,1,0.01772,0.02657,0,0,180.0*
21,1,0.00886,0.03543,0,0,180.0*
1,1,0.00886,-0.00443,0.01329*
1,1,0.00886,0.00443,0.01329*
1,1,0.00886,0.00443,-0.01329*
1,1,0.00886,-0.00443,-0.01329*
%
%ADD66ROUNDEDRECTD66*%
G04:AMPARAMS|DCode=67|XSize=23.62mil|YSize=43.31mil|CornerRadius=5.91mil|HoleSize=0mil|Usage=FLASHONLY|Rotation=0.000|XOffset=0mil|YOffset=0mil|HoleType=Round|Shape=RoundedRectangle|*
%AMROUNDEDRECTD67*
21,1,0.02362,0.03150,0,0,0.0*
21,1,0.01181,0.04331,0,0,0.0*
1,1,0.01181,0.00591,-0.01575*
1,1,0.01181,-0.00591,-0.01575*
1,1,0.01181,-0.00591,0.01575*
1,1,0.01181,0.00591,0.01575*
%
%ADD67ROUNDEDRECTD67*%
G04:AMPARAMS|DCode=68|XSize=21.65mil|YSize=39.37mil|CornerRadius=5.41mil|HoleSize=0mil|Usage=FLASHONLY|Rotation=270.000|XOffset=0mil|YOffset=0mil|HoleType=Round|Shape=RoundedRectangle|*
%AMROUNDEDRECTD68*
21,1,0.02165,0.02854,0,0,270.0*
21,1,0.01083,0.03937,0,0,270.0*
1,1,0.01083,-0.01427,-0.00541*
1,1,0.01083,-0.01427,0.00541*
1,1,0.01083,0.01427,0.00541*
1,1,0.01083,0.01427,-0.00541*
%
%ADD68ROUNDEDRECTD68*%
%ADD69O,0.02362X0.05709*%
G04:AMPARAMS|DCode=70|XSize=25.59mil|YSize=47.24mil|CornerRadius=3.2mil|HoleSize=0mil|Usage=FLASHONLY|Rotation=180.000|XOffset=0mil|YOffset=0mil|HoleType=Round|Shape=RoundedRectangle|*
%AMROUNDEDRECTD70*
21,1,0.02559,0.04085,0,0,180.0*
21,1,0.01919,0.04724,0,0,180.0*
1,1,0.00640,-0.00960,0.02042*
1,1,0.00640,0.00960,0.02042*
1,1,0.00640,0.00960,-0.02042*
1,1,0.00640,-0.00960,-0.02042*
%
%ADD70ROUNDEDRECTD70*%
%ADD128R,0.09449X0.06496*%
%ADD129R,0.13189X0.13189*%
%ADD134C,0.07400*%
%ADD135C,0.22835*%
%ADD136C,0.04362*%
%ADD137C,0.02559*%
%ADD138O,0.06299X0.03937*%
%ADD139O,0.08268X0.03937*%
D24*
X-36500Y136000D02*
D03*
X-23500D02*
D03*
D25*
X9528Y99000D02*
D03*
X472D02*
D03*
X-167527Y-29500D02*
D03*
X-158472D02*
D03*
X-177472Y122000D02*
D03*
X-186528D02*
D03*
X-5528Y131000D02*
D03*
X3528D02*
D03*
D26*
X-36126Y160000D02*
D03*
X-28874D02*
D03*
X-85626Y75000D02*
D03*
X-78374D02*
D03*
D27*
X-124500Y44500D02*
D03*
X-118500D02*
D03*
D28*
X-101063Y159193D02*
D03*
X-103032D02*
D03*
X-105000D02*
D03*
X-106968D02*
D03*
X-108937D02*
D03*
Y170807D02*
D03*
X-106968D02*
D03*
X-105000D02*
D03*
X-103032D02*
D03*
X-101063D02*
D03*
D29*
X5906Y-1850D02*
D03*
X-5906D02*
D03*
Y-18150D02*
D03*
X5906D02*
D03*
D30*
X3937Y-2350D02*
D03*
X1969D02*
D03*
X0D02*
D03*
X-1969D02*
D03*
X-3937D02*
D03*
Y-17650D02*
D03*
X-1969D02*
D03*
X0D02*
D03*
X1969D02*
D03*
X3937D02*
D03*
D31*
X-8150Y-4095D02*
D03*
Y-15905D02*
D03*
X8150D02*
D03*
Y-4095D02*
D03*
D32*
X-7650Y-6063D02*
D03*
Y-8032D02*
D03*
Y-10000D02*
D03*
Y-11969D02*
D03*
Y-13937D02*
D03*
X7650D02*
D03*
Y-11969D02*
D03*
Y-10000D02*
D03*
Y-8032D02*
D03*
Y-6063D02*
D03*
D33*
X-1315Y111047D02*
D03*
Y116953D02*
D03*
D34*
X-75957Y-68728D02*
D03*
X-83634D02*
D03*
X-50366D02*
D03*
X-58043D02*
D03*
X-86193D02*
D03*
X-78516D02*
D03*
X-81075D02*
D03*
X-68279D02*
D03*
X-70839D02*
D03*
X-73398D02*
D03*
X-60602D02*
D03*
X-63161D02*
D03*
X-65720D02*
D03*
X-52925D02*
D03*
X-55484D02*
D03*
X-47807D02*
D03*
D35*
X33268Y167500D02*
D03*
Y162500D02*
D03*
Y157500D02*
D03*
Y152500D02*
D03*
Y147500D02*
D03*
Y142500D02*
D03*
Y137500D02*
D03*
Y132500D02*
D03*
Y127500D02*
D03*
Y122500D02*
D03*
X70669Y167500D02*
D03*
Y162500D02*
D03*
Y157500D02*
D03*
Y152500D02*
D03*
Y147500D02*
D03*
Y142500D02*
D03*
Y137500D02*
D03*
Y132500D02*
D03*
Y127500D02*
D03*
Y122500D02*
D03*
D36*
X132937Y133937D02*
D03*
X129000D02*
D03*
X125063D02*
D03*
Y126063D02*
D03*
X129000D02*
D03*
X132937D02*
D03*
D37*
X8512Y-143032D02*
D03*
Y-145000D02*
D03*
Y-146968D02*
D03*
X-2512D02*
D03*
Y-145000D02*
D03*
Y-143032D02*
D03*
D38*
X6937Y-150512D02*
D03*
X4968D02*
D03*
X3000D02*
D03*
X1031D02*
D03*
X-937D02*
D03*
Y-139488D02*
D03*
X1031D02*
D03*
X3000D02*
D03*
X4968D02*
D03*
X6937D02*
D03*
D39*
X104488Y98709D02*
D03*
Y94968D02*
D03*
Y91228D02*
D03*
X115512D02*
D03*
Y98709D02*
D03*
D40*
X-109330Y186379D02*
D03*
X-100669D02*
D03*
D41*
X-122559Y-8441D02*
D03*
Y-11000D02*
D03*
Y-13559D02*
D03*
X-129803D02*
D03*
Y-11000D02*
D03*
Y-8441D02*
D03*
D42*
X-124000Y15000D02*
D03*
D43*
X-121047Y20512D02*
D03*
X-123016D02*
D03*
X-124984D02*
D03*
X-126953D02*
D03*
X-121047Y9488D02*
D03*
X-123016D02*
D03*
X-124984D02*
D03*
X-126953D02*
D03*
D44*
X-118488Y12047D02*
D03*
Y14016D02*
D03*
Y15984D02*
D03*
Y17953D02*
D03*
X-129512Y12047D02*
D03*
Y14016D02*
D03*
Y15984D02*
D03*
Y17953D02*
D03*
D45*
X73404Y-150118D02*
D03*
X92596D02*
D03*
Y-147559D02*
D03*
Y-145000D02*
D03*
Y-142441D02*
D03*
Y-139882D02*
D03*
X73404D02*
D03*
Y-142441D02*
D03*
Y-145000D02*
D03*
Y-147559D02*
D03*
D46*
X77882Y-154596D02*
D03*
X80441D02*
D03*
X83000D02*
D03*
X85559D02*
D03*
X88118D02*
D03*
Y-135403D02*
D03*
X85559D02*
D03*
X83000D02*
D03*
X80441D02*
D03*
X77882D02*
D03*
D47*
X54000Y75079D02*
D03*
Y84921D02*
D03*
D48*
X-104272Y-98500D02*
D03*
Y-93500D02*
D03*
Y-88500D02*
D03*
Y-83500D02*
D03*
Y-78500D02*
D03*
Y-73500D02*
D03*
Y-68500D02*
D03*
Y-63500D02*
D03*
X-125728Y-98500D02*
D03*
Y-93500D02*
D03*
Y-88500D02*
D03*
Y-83500D02*
D03*
Y-78500D02*
D03*
Y-73500D02*
D03*
Y-68500D02*
D03*
Y-63500D02*
D03*
X96728Y67500D02*
D03*
Y72500D02*
D03*
Y77500D02*
D03*
Y82500D02*
D03*
X75272Y67500D02*
D03*
Y72500D02*
D03*
Y77500D02*
D03*
Y82500D02*
D03*
D49*
X2398Y-189165D02*
D03*
Y-184835D02*
D03*
X9602D02*
D03*
Y-189165D02*
D03*
X15398D02*
D03*
Y-184835D02*
D03*
X22602D02*
D03*
Y-189165D02*
D03*
X-23602D02*
D03*
Y-184835D02*
D03*
X-16398D02*
D03*
Y-189165D02*
D03*
X-10602D02*
D03*
Y-184835D02*
D03*
X-3398D02*
D03*
Y-189165D02*
D03*
D50*
X100000Y-153500D02*
D03*
Y-157000D02*
D03*
Y-160500D02*
D03*
X108000Y-156762D02*
D03*
Y-153238D02*
D03*
Y-136762D02*
D03*
Y-133238D02*
D03*
D51*
X-156526Y-81968D02*
D03*
Y-83937D02*
D03*
X-153474Y-76063D02*
D03*
Y-78031D02*
D03*
X-156526Y-76063D02*
D03*
Y-78031D02*
D03*
X-153474Y-83937D02*
D03*
Y-81968D02*
D03*
Y13032D02*
D03*
Y11063D02*
D03*
X-156526Y16969D02*
D03*
Y18937D02*
D03*
X-153474Y16969D02*
D03*
Y18937D02*
D03*
X-156526Y11063D02*
D03*
Y13032D02*
D03*
D52*
Y-80000D02*
D03*
X-153474D02*
D03*
Y15000D02*
D03*
X-156526D02*
D03*
D53*
X-111181Y-15528D02*
D03*
Y-6472D02*
D03*
X10000Y-169527D02*
D03*
Y-160472D02*
D03*
D54*
X-138654Y-74425D02*
D03*
Y-71276D02*
D03*
Y-80724D02*
D03*
Y-77575D02*
D03*
X-145346D02*
D03*
Y-80724D02*
D03*
Y-71276D02*
D03*
Y-74425D02*
D03*
Y16575D02*
D03*
Y19724D02*
D03*
Y10276D02*
D03*
Y13425D02*
D03*
X-138654D02*
D03*
Y10276D02*
D03*
Y19724D02*
D03*
Y16575D02*
D03*
D55*
X-167000Y-95173D02*
D03*
Y-93992D02*
D03*
Y-92024D02*
D03*
Y-90842D02*
D03*
Y-88874D02*
D03*
Y-86905D02*
D03*
Y-84937D02*
D03*
Y-82968D02*
D03*
Y-81000D02*
D03*
Y-79031D02*
D03*
Y-77063D02*
D03*
Y-75094D02*
D03*
Y-73126D02*
D03*
Y-71945D02*
D03*
Y-69976D02*
D03*
Y-68795D02*
D03*
Y1827D02*
D03*
Y3008D02*
D03*
Y4976D02*
D03*
Y6157D02*
D03*
Y8126D02*
D03*
Y10095D02*
D03*
Y12063D02*
D03*
Y14031D02*
D03*
Y16000D02*
D03*
Y17968D02*
D03*
Y19937D02*
D03*
Y21905D02*
D03*
Y23874D02*
D03*
Y25055D02*
D03*
Y27024D02*
D03*
Y28205D02*
D03*
D56*
X-119331Y-56150D02*
D03*
Y-49850D02*
D03*
X-110669Y-56150D02*
D03*
Y-49850D02*
D03*
D57*
X-161516Y-47240D02*
D03*
Y-39760D02*
D03*
X-168484Y-43500D02*
D03*
X-162067Y63740D02*
D03*
Y71220D02*
D03*
X-169035Y67480D02*
D03*
X-173035Y52220D02*
D03*
Y44740D02*
D03*
X-166067Y48480D02*
D03*
X113516Y-32000D02*
D03*
X120484Y-28260D02*
D03*
Y-35740D02*
D03*
X-180280Y-35311D02*
D03*
Y-42791D02*
D03*
X-173311Y-39051D02*
D03*
D58*
X60000Y-140000D02*
D03*
Y-146000D02*
D03*
X-109500Y63500D02*
D03*
Y57500D02*
D03*
X-156051Y64480D02*
D03*
Y70480D02*
D03*
X-11000Y-141000D02*
D03*
Y-135000D02*
D03*
X-91000Y-33000D02*
D03*
Y-27000D02*
D03*
X-97000Y-33000D02*
D03*
Y-27000D02*
D03*
X-22000Y145000D02*
D03*
Y151000D02*
D03*
X0Y80500D02*
D03*
Y74500D02*
D03*
X-117181Y-14000D02*
D03*
Y-8000D02*
D03*
X-135181Y-3000D02*
D03*
Y-9000D02*
D03*
X-186260Y-36516D02*
D03*
Y-42516D02*
D03*
X-156000Y-46500D02*
D03*
Y-40500D02*
D03*
X-79000Y62000D02*
D03*
Y68000D02*
D03*
X-85000Y62000D02*
D03*
Y68000D02*
D03*
X23000Y115000D02*
D03*
Y121000D02*
D03*
X108500Y-27500D02*
D03*
Y-21500D02*
D03*
X131000Y-73000D02*
D03*
Y-79000D02*
D03*
D59*
X125000D02*
D03*
Y-73000D02*
D03*
X-90000Y172000D02*
D03*
Y166000D02*
D03*
X-84000Y172000D02*
D03*
Y166000D02*
D03*
X-28500Y151000D02*
D03*
Y145000D02*
D03*
X-120999Y172379D02*
D03*
Y166379D02*
D03*
X25032Y134000D02*
D03*
Y128000D02*
D03*
X121000Y97969D02*
D03*
Y91969D02*
D03*
X-93000Y-76000D02*
D03*
Y-82000D02*
D03*
X-52000Y-51000D02*
D03*
Y-57000D02*
D03*
X-41000Y-76000D02*
D03*
Y-82000D02*
D03*
X-36000Y145000D02*
D03*
Y151000D02*
D03*
X133000Y67000D02*
D03*
Y61000D02*
D03*
X-103000Y-56000D02*
D03*
Y-50000D02*
D03*
X-127000Y-50000D02*
D03*
Y-56000D02*
D03*
X-113000Y15000D02*
D03*
Y9000D02*
D03*
X29000Y115000D02*
D03*
Y109000D02*
D03*
X35000Y115000D02*
D03*
Y109000D02*
D03*
X66000Y-146000D02*
D03*
Y-140000D02*
D03*
X100000Y-148000D02*
D03*
Y-142000D02*
D03*
X125000Y-92000D02*
D03*
Y-86000D02*
D03*
X131000Y-92000D02*
D03*
Y-86000D02*
D03*
X105000Y-79500D02*
D03*
Y-85500D02*
D03*
D60*
X86000Y-86126D02*
D03*
Y-78874D02*
D03*
D61*
X118740Y-87815D02*
D03*
X111260D02*
D03*
Y-77185D02*
D03*
X115000D02*
D03*
X118740D02*
D03*
D62*
X20465Y-103232D02*
D03*
X3535D02*
D03*
X20465Y-94768D02*
D03*
X3535D02*
D03*
X-84535Y-192232D02*
D03*
X-101465D02*
D03*
X-84535Y-183768D02*
D03*
X-101465D02*
D03*
X-75465D02*
D03*
X-58535D02*
D03*
X-75465Y-192232D02*
D03*
X-58535D02*
D03*
X-33535D02*
D03*
X-50465D02*
D03*
X-33535Y-183768D02*
D03*
X-50465D02*
D03*
X-28465Y89232D02*
D03*
X-11535D02*
D03*
X-28465Y80768D02*
D03*
X-11535D02*
D03*
D63*
X-17000Y190000D02*
D03*
X-23000D02*
D03*
X-180051Y67480D02*
D03*
X-174051D02*
D03*
X-151000Y6000D02*
D03*
X-157000D02*
D03*
X-124500Y50500D02*
D03*
X-118500D02*
D03*
X-157000Y1000D02*
D03*
X-151000D02*
D03*
X-192051Y67480D02*
D03*
X-186051D02*
D03*
X-128000Y-117000D02*
D03*
X-134000D02*
D03*
X-115870D02*
D03*
X-121870D02*
D03*
X-153551Y46480D02*
D03*
X-159551D02*
D03*
X6000Y-131000D02*
D03*
X0D02*
D03*
X-184551Y45480D02*
D03*
X-178551D02*
D03*
X-184551Y51480D02*
D03*
X-178551D02*
D03*
X-89999Y149379D02*
D03*
X-83999D02*
D03*
X-95999D02*
D03*
X-101999D02*
D03*
X-93000Y125000D02*
D03*
X-87000D02*
D03*
X95000Y39425D02*
D03*
X101000D02*
D03*
X95000Y45425D02*
D03*
X101000D02*
D03*
X-4000Y124000D02*
D03*
X2000D02*
D03*
X-89000Y-51000D02*
D03*
X-83000D02*
D03*
X-138000Y125000D02*
D03*
X-132000D02*
D03*
X101000Y51000D02*
D03*
X95000D02*
D03*
X-158000Y-90000D02*
D03*
X-152000D02*
D03*
X-152000Y-95000D02*
D03*
X-158000D02*
D03*
X-129181Y-3000D02*
D03*
X-123181D02*
D03*
Y-20000D02*
D03*
X-129181D02*
D03*
X-173260Y-29516D02*
D03*
X-179260D02*
D03*
X-174260Y-48516D02*
D03*
X-180260D02*
D03*
X-86000Y12000D02*
D03*
X-92000D02*
D03*
X-86000Y18000D02*
D03*
X-92000D02*
D03*
X-64000Y42000D02*
D03*
X-70000D02*
D03*
X114500Y-21500D02*
D03*
X120500D02*
D03*
X86000Y169000D02*
D03*
X80000D02*
D03*
X92000Y149000D02*
D03*
X98000D02*
D03*
X84700Y-161000D02*
D03*
X78700D02*
D03*
X99000Y-85500D02*
D03*
X93000D02*
D03*
X99000Y-79500D02*
D03*
X93000D02*
D03*
X-185000Y151000D02*
D03*
X-179000D02*
D03*
X32500Y-95000D02*
D03*
X26500D02*
D03*
D64*
X-124500Y74500D02*
D03*
X-118500D02*
D03*
X-186051Y73480D02*
D03*
X-192051D02*
D03*
X-2000Y6000D02*
D03*
X4000D02*
D03*
X-29000Y95000D02*
D03*
X-23000D02*
D03*
X119000Y130000D02*
D03*
X113000D02*
D03*
X15000Y-150000D02*
D03*
X21000D02*
D03*
X-64000Y-57000D02*
D03*
X-58000D02*
D03*
X-83000D02*
D03*
X-89000D02*
D03*
X-58000Y-51000D02*
D03*
X-64000D02*
D03*
X-119000Y3000D02*
D03*
X-113000D02*
D03*
X55000Y69000D02*
D03*
X49000D02*
D03*
X90000Y88516D02*
D03*
X96000D02*
D03*
X55000Y91000D02*
D03*
X49000D02*
D03*
X-85000Y-178000D02*
D03*
X-91000D02*
D03*
X-64000D02*
D03*
X-58000D02*
D03*
X-39000D02*
D03*
X-33000D02*
D03*
X-2000Y12000D02*
D03*
X4000D02*
D03*
X-117000Y27000D02*
D03*
X-123000D02*
D03*
X-139000Y-105000D02*
D03*
X-133000D02*
D03*
Y-99000D02*
D03*
X-139000D02*
D03*
X-110000Y-107000D02*
D03*
X-104000D02*
D03*
X-85000Y30000D02*
D03*
X-79000D02*
D03*
X-70000Y48000D02*
D03*
X-64000D02*
D03*
X-85000Y36000D02*
D03*
X-79000D02*
D03*
X-79000Y56000D02*
D03*
X-85000D02*
D03*
X66000Y-152000D02*
D03*
X60000D02*
D03*
D65*
X-160291Y51996D02*
D03*
X-152811D02*
D03*
X-156551Y58965D02*
D03*
X-44740Y82516D02*
D03*
X-37260D02*
D03*
X-41000Y89484D02*
D03*
X-149291Y63996D02*
D03*
X-141811D02*
D03*
X-145551Y70965D02*
D03*
X93000Y94516D02*
D03*
X89260Y101484D02*
D03*
X96740D02*
D03*
D66*
X85575Y39654D02*
D03*
X88724D02*
D03*
X79276D02*
D03*
X82425D02*
D03*
Y46347D02*
D03*
X79276D02*
D03*
X88724D02*
D03*
X85575D02*
D03*
D67*
X-117760Y68012D02*
D03*
X-121500D02*
D03*
X-125240D02*
D03*
Y56988D02*
D03*
X-117760D02*
D03*
D68*
X-76685Y42260D02*
D03*
Y46000D02*
D03*
Y49740D02*
D03*
X-87315D02*
D03*
Y42260D02*
D03*
X102315Y-28740D02*
D03*
Y-25000D02*
D03*
Y-21260D02*
D03*
X91685D02*
D03*
Y-28740D02*
D03*
D69*
X111500Y61272D02*
D03*
X116500D02*
D03*
X121500D02*
D03*
X126500D02*
D03*
X111500Y82728D02*
D03*
X116500D02*
D03*
X121500D02*
D03*
X126500D02*
D03*
D70*
X-177768Y145465D02*
D03*
Y128535D02*
D03*
X-186232Y145465D02*
D03*
Y128535D02*
D03*
D128*
X-105000Y165000D02*
D03*
D129*
X83000Y-145000D02*
D03*
D134*
X55000Y-85000D02*
D03*
Y-75000D02*
D03*
Y-65000D02*
D03*
Y-55000D02*
D03*
X-55000Y130000D02*
D03*
Y140000D02*
D03*
X-160000Y130000D02*
D03*
Y140000D02*
D03*
X-20000Y160000D02*
D03*
Y170000D02*
D03*
X-55000Y180000D02*
D03*
Y170000D02*
D03*
Y160000D02*
D03*
X-20000Y45000D02*
D03*
Y55000D02*
D03*
Y65000D02*
D03*
X55000Y20000D02*
D03*
X65000D02*
D03*
X75000D02*
D03*
X0Y-170000D02*
D03*
X-10000D02*
D03*
X-20000D02*
D03*
X15000Y140000D02*
D03*
Y150000D02*
D03*
Y160000D02*
D03*
X-55000Y85000D02*
D03*
X-65000D02*
D03*
X130000Y-160000D02*
D03*
Y-150000D02*
D03*
Y-140000D02*
D03*
Y-130000D02*
D03*
X20000Y-140000D02*
D03*
Y-130000D02*
D03*
Y-120000D02*
D03*
X-95000Y75000D02*
D03*
Y85000D02*
D03*
Y95000D02*
D03*
X45000Y-150000D02*
D03*
Y-160000D02*
D03*
X85000Y-120000D02*
D03*
X75000D02*
D03*
X65000D02*
D03*
X55000D02*
D03*
X115000Y15000D02*
D03*
X105000D02*
D03*
X95000D02*
D03*
X-145000Y-30000D02*
D03*
Y-40000D02*
D03*
X-170000Y85000D02*
D03*
X-180000D02*
D03*
X-190000D02*
D03*
X-150000D02*
D03*
X-160000D02*
D03*
X35000Y-170000D02*
D03*
X45000D02*
D03*
X-125000Y-125000D02*
D03*
X20000Y-160000D02*
D03*
Y-170000D02*
D03*
X-180000Y-160000D02*
D03*
X-170000D02*
D03*
X-160000D02*
D03*
X-150000D02*
D03*
X-20000Y-150000D02*
D03*
Y-160000D02*
D03*
X130000Y-10000D02*
D03*
Y0D02*
D03*
X-95000Y110000D02*
D03*
X-85000D02*
D03*
X-75000D02*
D03*
X-160000Y160000D02*
D03*
Y170000D02*
D03*
Y180000D02*
D03*
X-140000Y110000D02*
D03*
X-130000D02*
D03*
X-120000D02*
D03*
X20000Y-85000D02*
D03*
Y-75000D02*
D03*
Y-65000D02*
D03*
X30000Y-85000D02*
D03*
Y-75000D02*
D03*
Y-65000D02*
D03*
X-30000Y45000D02*
D03*
Y55000D02*
D03*
Y65000D02*
D03*
X-10000D02*
D03*
Y55000D02*
D03*
Y45000D02*
D03*
X-55000Y0D02*
D03*
X-65000D02*
D03*
X-75000D02*
D03*
X-55000Y-10000D02*
D03*
X-65000D02*
D03*
X-75000D02*
D03*
X-55000Y-20000D02*
D03*
X-65000D02*
D03*
X-75000D02*
D03*
X-55000Y-30000D02*
D03*
X-65000D02*
D03*
X-75000D02*
D03*
Y10000D02*
D03*
X-65000D02*
D03*
X-55000D02*
D03*
Y-40000D02*
D03*
X-65000D02*
D03*
X-75000D02*
D03*
Y20000D02*
D03*
X-65000D02*
D03*
X-55000D02*
D03*
X-30000Y-65000D02*
D03*
Y-75000D02*
D03*
Y-85000D02*
D03*
X-20000Y-65000D02*
D03*
Y-75000D02*
D03*
Y-85000D02*
D03*
X-10000Y-65000D02*
D03*
Y-75000D02*
D03*
Y-85000D02*
D03*
X0Y-65000D02*
D03*
Y-75000D02*
D03*
Y-85000D02*
D03*
X30000Y65000D02*
D03*
Y55000D02*
D03*
Y45000D02*
D03*
X10000Y-65000D02*
D03*
Y-75000D02*
D03*
Y-85000D02*
D03*
X20000Y65000D02*
D03*
Y55000D02*
D03*
Y45000D02*
D03*
X55000Y-40000D02*
D03*
X65000D02*
D03*
X75000D02*
D03*
X55000Y-30000D02*
D03*
X65000D02*
D03*
X75000D02*
D03*
X55000Y-20000D02*
D03*
X65000D02*
D03*
X75000D02*
D03*
X55000Y-10000D02*
D03*
X65000D02*
D03*
X75000D02*
D03*
X55000Y0D02*
D03*
X65000D02*
D03*
X75000D02*
D03*
X55000Y10000D02*
D03*
X65000D02*
D03*
X75000D02*
D03*
X0Y65000D02*
D03*
Y55000D02*
D03*
Y45000D02*
D03*
X105000Y110000D02*
D03*
X95000D02*
D03*
X85000D02*
D03*
X0Y140000D02*
D03*
Y150000D02*
D03*
Y90000D02*
D03*
X10000D02*
D03*
Y45000D02*
D03*
Y55000D02*
D03*
Y65000D02*
D03*
X-125000Y85000D02*
D03*
X-115000D02*
D03*
X65000Y75000D02*
D03*
Y85000D02*
D03*
X-95000Y45000D02*
D03*
Y35000D02*
D03*
X-55000Y40000D02*
D03*
Y50000D02*
D03*
X130000Y104969D02*
D03*
Y94968D02*
D03*
X-20000Y-120000D02*
D03*
Y-130000D02*
D03*
X10000Y-120000D02*
D03*
X0D02*
D03*
X-30000Y-95000D02*
D03*
X-40000D02*
D03*
X100000Y30000D02*
D03*
X90000D02*
D03*
X110000Y45000D02*
D03*
Y35000D02*
D03*
X105000Y135000D02*
D03*
Y125000D02*
D03*
X65000Y110000D02*
D03*
X75000D02*
D03*
X115000Y-50000D02*
D03*
X105000D02*
D03*
X95000D02*
D03*
Y-40000D02*
D03*
X105000D02*
D03*
X15000Y120000D02*
D03*
Y130000D02*
D03*
X130000Y-35000D02*
D03*
Y-25000D02*
D03*
X115000Y0D02*
D03*
Y-10000D02*
D03*
X85000Y179000D02*
D03*
X95000D02*
D03*
Y169000D02*
D03*
Y159000D02*
D03*
X105000Y169000D02*
D03*
Y159000D02*
D03*
X-65000Y75000D02*
D03*
X-55000D02*
D03*
X85000Y159000D02*
D03*
X45000Y-120000D02*
D03*
X55000Y-160000D02*
D03*
X120000Y45000D02*
D03*
X130000D02*
D03*
X100000Y60000D02*
D03*
X90000D02*
D03*
X-142000Y-63000D02*
D03*
Y-89000D02*
D03*
Y28000D02*
D03*
Y2000D02*
D03*
X95000Y-100000D02*
D03*
X85000D02*
D03*
X120000D02*
D03*
X130000D02*
D03*
Y-65000D02*
D03*
X120000D02*
D03*
X85000D02*
D03*
X95000D02*
D03*
X105000Y0D02*
D03*
Y-10000D02*
D03*
X95000Y0D02*
D03*
Y-10000D02*
D03*
X-100000D02*
D03*
Y0D02*
D03*
X-10000Y-160000D02*
D03*
X65000Y95000D02*
D03*
X-180000Y105000D02*
D03*
Y95000D02*
D03*
X-190000Y105000D02*
D03*
X-180000Y-140000D02*
D03*
X-170000D02*
D03*
X-160000D02*
D03*
X-150000D02*
D03*
X-180000Y-120000D02*
D03*
X-170000D02*
D03*
X-160000D02*
D03*
X-150000D02*
D03*
X-35000Y180000D02*
D03*
Y190000D02*
D03*
X30000Y-150000D02*
D03*
Y-140000D02*
D03*
D135*
X124016Y183071D02*
D03*
X-183071Y-183071D02*
D03*
X124016D02*
D03*
X-183071Y183071D02*
D03*
D136*
X115354D02*
D03*
X132677D02*
D03*
X124016Y174409D02*
D03*
Y191732D02*
D03*
X117913Y189173D02*
D03*
X130118D02*
D03*
X117913Y176969D02*
D03*
X130118D02*
D03*
X-191733Y-183071D02*
D03*
X-174410D02*
D03*
X-183071Y-191732D02*
D03*
Y-174409D02*
D03*
X-189174Y-176969D02*
D03*
X-176969D02*
D03*
X-189174Y-189173D02*
D03*
X-176969D02*
D03*
X115354Y-183071D02*
D03*
X132677D02*
D03*
X124016Y-191732D02*
D03*
Y-174409D02*
D03*
X117913Y-176969D02*
D03*
X130118D02*
D03*
X117913Y-189173D02*
D03*
X130118D02*
D03*
X-191733Y183071D02*
D03*
X-174410D02*
D03*
X-183071Y174409D02*
D03*
Y191732D02*
D03*
X-189174Y189173D02*
D03*
X-176969D02*
D03*
X-189174Y176969D02*
D03*
X-176969D02*
D03*
D137*
X-173063Y-70606D02*
D03*
Y-93362D02*
D03*
Y26394D02*
D03*
Y3638D02*
D03*
D138*
X-186843Y-64957D02*
D03*
Y-99012D02*
D03*
Y32043D02*
D03*
Y-2012D02*
D03*
D139*
X-171095Y-99012D02*
D03*
Y-64957D02*
D03*
Y-2012D02*
D03*
Y32043D02*
D03*
M02*
