G04*
G04 #@! TF.GenerationSoftware,Altium Limited,Altium Designer,19.1.5 (86)*
G04*
G04 Layer_Physical_Order=2*
G04 Layer_Color=16711680*
%FSLAX25Y25*%
%MOIN*%
G70*
G01*
G75*
%ADD11C,0.02000*%
%ADD12C,0.00500*%
%ADD13C,0.01200*%
%ADD15C,0.01000*%
%ADD16C,0.02500*%
%ADD17O,0.05118X0.06535*%
%ADD18C,0.01968*%
G04:AMPARAMS|DCode=19|XSize=23.62mil|YSize=23.62mil|CornerRadius=2.36mil|HoleSize=0mil|Usage=FLASHONLY|Rotation=180.000|XOffset=0mil|YOffset=0mil|HoleType=Round|Shape=RoundedRectangle|*
%AMROUNDEDRECTD19*
21,1,0.02362,0.01890,0,0,180.0*
21,1,0.01890,0.02362,0,0,180.0*
1,1,0.00472,-0.00945,0.00945*
1,1,0.00472,0.00945,0.00945*
1,1,0.00472,0.00945,-0.00945*
1,1,0.00472,-0.00945,-0.00945*
%
%ADD19ROUNDEDRECTD19*%
%ADD20R,0.07480X0.05512*%
%ADD21R,0.05512X0.05118*%
%ADD22R,0.05906X0.03150*%
%ADD23R,0.03740X0.03937*%
G04:AMPARAMS|DCode=24|XSize=23.62mil|YSize=23.62mil|CornerRadius=2.36mil|HoleSize=0mil|Usage=FLASHONLY|Rotation=270.000|XOffset=0mil|YOffset=0mil|HoleType=Round|Shape=RoundedRectangle|*
%AMROUNDEDRECTD24*
21,1,0.02362,0.01890,0,0,270.0*
21,1,0.01890,0.02362,0,0,270.0*
1,1,0.00472,-0.00945,-0.00945*
1,1,0.00472,-0.00945,0.00945*
1,1,0.00472,0.00945,0.00945*
1,1,0.00472,0.00945,-0.00945*
%
%ADD24ROUNDEDRECTD24*%
G04:AMPARAMS|DCode=25|XSize=47mil|YSize=19mil|CornerRadius=4.75mil|HoleSize=0mil|Usage=FLASHONLY|Rotation=90.000|XOffset=0mil|YOffset=0mil|HoleType=Round|Shape=RoundedRectangle|*
%AMROUNDEDRECTD25*
21,1,0.04700,0.00950,0,0,90.0*
21,1,0.03750,0.01900,0,0,90.0*
1,1,0.00950,0.00475,0.01875*
1,1,0.00950,0.00475,-0.01875*
1,1,0.00950,-0.00475,-0.01875*
1,1,0.00950,-0.00475,0.01875*
%
%ADD25ROUNDEDRECTD25*%
G04:AMPARAMS|DCode=26|XSize=27.56mil|YSize=35.43mil|CornerRadius=6.89mil|HoleSize=0mil|Usage=FLASHONLY|Rotation=180.000|XOffset=0mil|YOffset=0mil|HoleType=Round|Shape=RoundedRectangle|*
%AMROUNDEDRECTD26*
21,1,0.02756,0.02165,0,0,180.0*
21,1,0.01378,0.03543,0,0,180.0*
1,1,0.01378,-0.00689,0.01083*
1,1,0.01378,0.00689,0.01083*
1,1,0.01378,0.00689,-0.01083*
1,1,0.01378,-0.00689,-0.01083*
%
%ADD26ROUNDEDRECTD26*%
G04:AMPARAMS|DCode=27|XSize=16mil|YSize=35mil|CornerRadius=2.4mil|HoleSize=0mil|Usage=FLASHONLY|Rotation=270.000|XOffset=0mil|YOffset=0mil|HoleType=Round|Shape=RoundedRectangle|*
%AMROUNDEDRECTD27*
21,1,0.01600,0.03020,0,0,270.0*
21,1,0.01120,0.03500,0,0,270.0*
1,1,0.00480,-0.01510,-0.00560*
1,1,0.00480,-0.01510,0.00560*
1,1,0.00480,0.01510,0.00560*
1,1,0.00480,0.01510,-0.00560*
%
%ADD27ROUNDEDRECTD27*%
G04:AMPARAMS|DCode=28|XSize=27.56mil|YSize=27.56mil|CornerRadius=4.13mil|HoleSize=0mil|Usage=FLASHONLY|Rotation=180.000|XOffset=0mil|YOffset=0mil|HoleType=Round|Shape=RoundedRectangle|*
%AMROUNDEDRECTD28*
21,1,0.02756,0.01929,0,0,180.0*
21,1,0.01929,0.02756,0,0,180.0*
1,1,0.00827,-0.00965,0.00965*
1,1,0.00827,0.00965,0.00965*
1,1,0.00827,0.00965,-0.00965*
1,1,0.00827,-0.00965,-0.00965*
%
%ADD28ROUNDEDRECTD28*%
G04:AMPARAMS|DCode=29|XSize=29.53mil|YSize=11.81mil|CornerRadius=2.95mil|HoleSize=0mil|Usage=FLASHONLY|Rotation=270.000|XOffset=0mil|YOffset=0mil|HoleType=Round|Shape=RoundedRectangle|*
%AMROUNDEDRECTD29*
21,1,0.02953,0.00591,0,0,270.0*
21,1,0.02362,0.01181,0,0,270.0*
1,1,0.00591,-0.00295,-0.01181*
1,1,0.00591,-0.00295,0.01181*
1,1,0.00591,0.00295,0.01181*
1,1,0.00591,0.00295,-0.01181*
%
%ADD29ROUNDEDRECTD29*%
G04:AMPARAMS|DCode=30|XSize=57.09mil|YSize=68.9mil|CornerRadius=5.71mil|HoleSize=0mil|Usage=FLASHONLY|Rotation=180.000|XOffset=0mil|YOffset=0mil|HoleType=Round|Shape=RoundedRectangle|*
%AMROUNDEDRECTD30*
21,1,0.05709,0.05748,0,0,180.0*
21,1,0.04567,0.06890,0,0,180.0*
1,1,0.01142,-0.02284,0.02874*
1,1,0.01142,0.02284,0.02874*
1,1,0.01142,0.02284,-0.02874*
1,1,0.01142,-0.02284,-0.02874*
%
%ADD30ROUNDEDRECTD30*%
G04:AMPARAMS|DCode=31|XSize=43.31mil|YSize=94.49mil|CornerRadius=17.32mil|HoleSize=0mil|Usage=FLASHONLY|Rotation=0.000|XOffset=0mil|YOffset=0mil|HoleType=Round|Shape=RoundedRectangle|*
%AMROUNDEDRECTD31*
21,1,0.04331,0.05984,0,0,0.0*
21,1,0.00866,0.09449,0,0,0.0*
1,1,0.03465,0.00433,-0.02992*
1,1,0.03465,-0.00433,-0.02992*
1,1,0.03465,-0.00433,0.02992*
1,1,0.03465,0.00433,0.02992*
%
%ADD31ROUNDEDRECTD31*%
G04:AMPARAMS|DCode=32|XSize=16mil|YSize=35mil|CornerRadius=2.4mil|HoleSize=0mil|Usage=FLASHONLY|Rotation=0.000|XOffset=0mil|YOffset=0mil|HoleType=Round|Shape=RoundedRectangle|*
%AMROUNDEDRECTD32*
21,1,0.01600,0.03020,0,0,0.0*
21,1,0.01120,0.03500,0,0,0.0*
1,1,0.00480,0.00560,-0.01510*
1,1,0.00480,-0.00560,-0.01510*
1,1,0.00480,-0.00560,0.01510*
1,1,0.00480,0.00560,0.01510*
%
%ADD32ROUNDEDRECTD32*%
%ADD33R,0.01968X0.03150*%
G04:AMPARAMS|DCode=34|XSize=35mil|YSize=35mil|CornerRadius=4.38mil|HoleSize=0mil|Usage=FLASHONLY|Rotation=0.000|XOffset=0mil|YOffset=0mil|HoleType=Round|Shape=RoundedRectangle|*
%AMROUNDEDRECTD34*
21,1,0.03500,0.02625,0,0,0.0*
21,1,0.02625,0.03500,0,0,0.0*
1,1,0.00875,0.01313,-0.01313*
1,1,0.00875,-0.01313,-0.01313*
1,1,0.00875,-0.01313,0.01313*
1,1,0.00875,0.01313,0.01313*
%
%ADD34ROUNDEDRECTD34*%
G04:AMPARAMS|DCode=35|XSize=35.43mil|YSize=31.5mil|CornerRadius=3.94mil|HoleSize=0mil|Usage=FLASHONLY|Rotation=180.000|XOffset=0mil|YOffset=0mil|HoleType=Round|Shape=RoundedRectangle|*
%AMROUNDEDRECTD35*
21,1,0.03543,0.02362,0,0,180.0*
21,1,0.02756,0.03150,0,0,180.0*
1,1,0.00787,-0.01378,0.01181*
1,1,0.00787,0.01378,0.01181*
1,1,0.00787,0.01378,-0.01181*
1,1,0.00787,-0.01378,-0.01181*
%
%ADD35ROUNDEDRECTD35*%
%ADD36O,0.05906X0.02362*%
G04:AMPARAMS|DCode=37|XSize=35mil|YSize=35mil|CornerRadius=3.5mil|HoleSize=0mil|Usage=FLASHONLY|Rotation=270.000|XOffset=0mil|YOffset=0mil|HoleType=Round|Shape=RoundedRectangle|*
%AMROUNDEDRECTD37*
21,1,0.03500,0.02800,0,0,270.0*
21,1,0.02800,0.03500,0,0,270.0*
1,1,0.00700,-0.01400,-0.01400*
1,1,0.00700,-0.01400,0.01400*
1,1,0.00700,0.01400,0.01400*
1,1,0.00700,0.01400,-0.01400*
%
%ADD37ROUNDEDRECTD37*%
G04:AMPARAMS|DCode=38|XSize=35mil|YSize=35mil|CornerRadius=3.5mil|HoleSize=0mil|Usage=FLASHONLY|Rotation=0.000|XOffset=0mil|YOffset=0mil|HoleType=Round|Shape=RoundedRectangle|*
%AMROUNDEDRECTD38*
21,1,0.03500,0.02800,0,0,0.0*
21,1,0.02800,0.03500,0,0,0.0*
1,1,0.00700,0.01400,-0.01400*
1,1,0.00700,-0.01400,-0.01400*
1,1,0.00700,-0.01400,0.01400*
1,1,0.00700,0.01400,0.01400*
%
%ADD38ROUNDEDRECTD38*%
G04:AMPARAMS|DCode=39|XSize=57.09mil|YSize=68.9mil|CornerRadius=2.85mil|HoleSize=0mil|Usage=FLASHONLY|Rotation=0.000|XOffset=0mil|YOffset=0mil|HoleType=Round|Shape=RoundedRectangle|*
%AMROUNDEDRECTD39*
21,1,0.05709,0.06319,0,0,0.0*
21,1,0.05138,0.06890,0,0,0.0*
1,1,0.00571,0.02569,-0.03159*
1,1,0.00571,-0.02569,-0.03159*
1,1,0.00571,-0.02569,0.03159*
1,1,0.00571,0.02569,0.03159*
%
%ADD39ROUNDEDRECTD39*%
G04:AMPARAMS|DCode=40|XSize=39.37mil|YSize=70.87mil|CornerRadius=4.92mil|HoleSize=0mil|Usage=FLASHONLY|Rotation=270.000|XOffset=0mil|YOffset=0mil|HoleType=Round|Shape=RoundedRectangle|*
%AMROUNDEDRECTD40*
21,1,0.03937,0.06102,0,0,270.0*
21,1,0.02953,0.07087,0,0,270.0*
1,1,0.00984,-0.03051,-0.01476*
1,1,0.00984,-0.03051,0.01476*
1,1,0.00984,0.03051,0.01476*
1,1,0.00984,0.03051,-0.01476*
%
%ADD40ROUNDEDRECTD40*%
G04:AMPARAMS|DCode=41|XSize=27.56mil|YSize=35.43mil|CornerRadius=6.89mil|HoleSize=0mil|Usage=FLASHONLY|Rotation=270.000|XOffset=0mil|YOffset=0mil|HoleType=Round|Shape=RoundedRectangle|*
%AMROUNDEDRECTD41*
21,1,0.02756,0.02165,0,0,270.0*
21,1,0.01378,0.03543,0,0,270.0*
1,1,0.01378,-0.01083,-0.00689*
1,1,0.01378,-0.01083,0.00689*
1,1,0.01378,0.01083,0.00689*
1,1,0.01378,0.01083,-0.00689*
%
%ADD41ROUNDEDRECTD41*%
G04:AMPARAMS|DCode=42|XSize=35.43mil|YSize=31.5mil|CornerRadius=3.94mil|HoleSize=0mil|Usage=FLASHONLY|Rotation=90.000|XOffset=0mil|YOffset=0mil|HoleType=Round|Shape=RoundedRectangle|*
%AMROUNDEDRECTD42*
21,1,0.03543,0.02362,0,0,90.0*
21,1,0.02756,0.03150,0,0,90.0*
1,1,0.00787,0.01181,0.01378*
1,1,0.00787,0.01181,-0.01378*
1,1,0.00787,-0.01181,-0.01378*
1,1,0.00787,-0.01181,0.01378*
%
%ADD42ROUNDEDRECTD42*%
%ADD43O,0.05709X0.02362*%
%ADD44R,0.03150X0.01968*%
%ADD45C,0.01500*%
G36*
X130874Y80765D02*
Y70164D01*
X130879Y70139D01*
X130875Y70113D01*
X130904Y69541D01*
X130922Y69468D01*
X130922Y69392D01*
X131146Y68269D01*
X131184Y68176D01*
X131204Y68078D01*
X131642Y67020D01*
X131698Y66936D01*
X131736Y66844D01*
X132250Y66074D01*
X131862Y65755D01*
X129754Y67863D01*
X129756Y67879D01*
Y69296D01*
X129651Y70095D01*
X129343Y70839D01*
X128853Y71478D01*
X128214Y71968D01*
X127470Y72277D01*
Y72773D01*
X128214Y73081D01*
X128853Y73571D01*
X129343Y74210D01*
X129651Y74954D01*
X129756Y75753D01*
Y77170D01*
X129651Y77969D01*
X129343Y78713D01*
X128853Y79352D01*
X128214Y79842D01*
X127470Y80151D01*
X126671Y80256D01*
X125873Y80151D01*
X125128Y79842D01*
X124489Y79352D01*
X123999Y78713D01*
X123691Y77969D01*
X123586Y77170D01*
Y75753D01*
X123691Y74954D01*
X123999Y74210D01*
X124489Y73571D01*
X125128Y73081D01*
X125873Y72773D01*
Y72277D01*
X125128Y71968D01*
X124489Y71478D01*
X123999Y70839D01*
X123691Y70095D01*
X123586Y69296D01*
Y67879D01*
X123691Y67080D01*
X123999Y66336D01*
X124489Y65697D01*
X125128Y65207D01*
X125873Y64899D01*
X126671Y64793D01*
X127470Y64899D01*
X128214Y65207D01*
X128853Y65697D01*
X129025Y65708D01*
X130909Y63825D01*
Y58329D01*
X130499Y57920D01*
X129247D01*
X128857Y57842D01*
X128526Y57621D01*
X126055Y55150D01*
X125637Y55439D01*
X125729Y55900D01*
X125614Y56479D01*
X125286Y56970D01*
X124795Y57298D01*
X124216Y57413D01*
X124156Y57401D01*
X122294Y59263D01*
Y59911D01*
X122428Y59937D01*
X122821Y60200D01*
X123084Y60593D01*
X123176Y61057D01*
Y63223D01*
X123084Y63687D01*
X122821Y64080D01*
X122428Y64343D01*
X121964Y64435D01*
X120586D01*
X120122Y64343D01*
X119729Y64080D01*
X119466Y63687D01*
X119374Y63223D01*
Y61057D01*
X119466Y60593D01*
X119480Y60572D01*
X119092Y60253D01*
X118058Y61287D01*
Y63223D01*
X117966Y63687D01*
X117703Y64080D01*
X117310Y64343D01*
X116846Y64435D01*
X115468D01*
X115004Y64343D01*
X114997Y64338D01*
X114497Y64605D01*
Y80765D01*
X130874Y80765D01*
D02*
G37*
G36*
X47397Y70164D02*
X47402Y70139D01*
X47398Y70114D01*
X47427Y69541D01*
X47445Y69468D01*
X47445Y69392D01*
X47668Y68269D01*
X47707Y68176D01*
X47727Y68078D01*
X48165Y67020D01*
X48221Y66937D01*
X48259Y66844D01*
X48895Y65892D01*
X48966Y65821D01*
X49022Y65737D01*
X49832Y64928D01*
X49915Y64872D01*
X49986Y64801D01*
X50938Y64165D01*
X51031Y64126D01*
X51115Y64070D01*
X52172Y63632D01*
X52271Y63612D01*
X52364Y63574D01*
X53487Y63350D01*
X53562Y63350D01*
X53636Y63332D01*
X54208Y63304D01*
X54233Y63308D01*
X54258Y63303D01*
X79219D01*
X79244Y63308D01*
X79269Y63304D01*
X79842Y63332D01*
X79915Y63350D01*
X79991Y63350D01*
X80904Y63532D01*
X81132Y63068D01*
X80728Y62665D01*
X80279D01*
X79990Y62607D01*
X79745Y62444D01*
X79332D01*
X79087Y62607D01*
X78799Y62665D01*
X77679D01*
X77390Y62607D01*
X77145Y62444D01*
X76732D01*
X76487Y62607D01*
X76199Y62665D01*
X75079D01*
X74790Y62607D01*
X74545Y62444D01*
X74382Y62199D01*
X74324Y61910D01*
Y61522D01*
X73507D01*
Y61712D01*
X73434Y62078D01*
X73227Y62388D01*
X72917Y62596D01*
X72551Y62668D01*
X69926D01*
X69560Y62596D01*
X69250Y62388D01*
X69043Y62078D01*
X68970Y61712D01*
Y59088D01*
X69043Y58722D01*
X69250Y58412D01*
X69560Y58204D01*
X69926Y58132D01*
X70117D01*
Y56365D01*
X65774Y52022D01*
X65012D01*
X64744Y52522D01*
X64893Y52744D01*
X65023Y53400D01*
X64893Y54056D01*
X64521Y54612D01*
X63965Y54984D01*
X63310Y55114D01*
X59766D01*
X59110Y54984D01*
X58656Y54680D01*
X58369D01*
X57934Y55115D01*
Y56313D01*
X57877Y56601D01*
X57714Y56844D01*
X57471Y57007D01*
X57183Y57064D01*
X55294D01*
X55006Y57007D01*
X54763Y56844D01*
X54600Y56601D01*
X54553Y56363D01*
X53914D01*
X53877Y56551D01*
X53714Y56794D01*
X53471Y56957D01*
X53184Y57014D01*
X51985D01*
X51191Y57808D01*
X51398Y58308D01*
X52589D01*
X52938Y58377D01*
X53233Y58575D01*
X53431Y58870D01*
X53500Y59219D01*
Y61581D01*
X53431Y61930D01*
X53233Y62225D01*
X52938Y62423D01*
X52589Y62492D01*
X49833D01*
X49484Y62423D01*
X49189Y62225D01*
X48991Y61930D01*
X48922Y61581D01*
Y61522D01*
X48353D01*
Y61910D01*
X48296Y62199D01*
X48132Y62444D01*
X47887Y62607D01*
X47599Y62665D01*
X46479D01*
X46190Y62607D01*
X45945Y62444D01*
X45532D01*
X45287Y62607D01*
X44999Y62665D01*
X44566D01*
X44141Y63090D01*
X43810Y63310D01*
X43420Y63388D01*
X42419D01*
X42377Y63601D01*
X42214Y63844D01*
X41971Y64007D01*
X41684Y64064D01*
X41109D01*
Y64224D01*
X41031Y64614D01*
X40810Y64945D01*
X38344Y67411D01*
X38405Y67879D01*
Y69296D01*
X38300Y70095D01*
X37992Y70839D01*
X37502Y71478D01*
X36863Y71968D01*
X36119Y72277D01*
X35320Y72382D01*
X34521Y72277D01*
X33777Y71968D01*
X33138Y71478D01*
X32648Y70839D01*
X32340Y70095D01*
X32234Y69296D01*
Y67879D01*
X32340Y67080D01*
X32648Y66336D01*
X33138Y65697D01*
X33777Y65207D01*
X34521Y64899D01*
X35320Y64793D01*
X36119Y64899D01*
X36863Y65207D01*
X37316Y65555D01*
X39069Y63802D01*
Y63446D01*
X39043Y63313D01*
Y61424D01*
X39100Y61136D01*
X39263Y60893D01*
X39507Y60730D01*
X39794Y60673D01*
X41684D01*
X41971Y60730D01*
X42214Y60893D01*
X42377Y61136D01*
X42419Y61349D01*
X42998D01*
X43124Y61223D01*
Y59118D01*
X42678Y58759D01*
X42434Y58848D01*
Y59376D01*
X42377Y59664D01*
X42214Y59907D01*
X41971Y60070D01*
X41684Y60127D01*
X39794D01*
X39507Y60070D01*
X39263Y59907D01*
X39100Y59664D01*
X39043Y59376D01*
Y57487D01*
X39100Y57199D01*
X39263Y56956D01*
X39507Y56793D01*
X39794Y56736D01*
X40992D01*
X41035Y56693D01*
X41366Y56472D01*
X41756Y56394D01*
X45482D01*
X45634Y55894D01*
X45285Y55662D01*
X44792Y54923D01*
X44619Y54052D01*
Y48068D01*
X44792Y47197D01*
X45285Y46459D01*
X46024Y45965D01*
X46895Y45792D01*
X47761D01*
X48632Y45965D01*
X49370Y46459D01*
X49864Y47197D01*
X49900Y47380D01*
X56739D01*
X57129Y47458D01*
X57460Y47679D01*
X57634Y47940D01*
X57918Y47948D01*
X58154Y47887D01*
X58183Y47744D01*
X58554Y47188D01*
X59110Y46816D01*
X59766Y46686D01*
X63310D01*
X63965Y46816D01*
X64521Y47188D01*
X64582Y47278D01*
X69336D01*
X69336Y47278D01*
X69765Y47364D01*
X70129Y47607D01*
X78057Y55535D01*
X78312Y55364D01*
X78742Y55278D01*
X78742Y55278D01*
X83739D01*
X83739Y55278D01*
X84168Y55364D01*
X84532Y55607D01*
X85532Y56607D01*
X85532Y56607D01*
X85775Y56971D01*
X85860Y57400D01*
Y58233D01*
X86002Y58262D01*
X86246Y58424D01*
X86409Y58668D01*
X86466Y58955D01*
Y60431D01*
X86739Y60887D01*
X87318Y61002D01*
X87809Y61330D01*
X88137Y61821D01*
X88252Y62400D01*
X88137Y62979D01*
X87809Y63470D01*
X87318Y63798D01*
X86739Y63913D01*
X86159Y63798D01*
X85708Y63497D01*
X82284D01*
X82185Y63997D01*
X82363Y64070D01*
X82446Y64126D01*
X82539Y64165D01*
X83491Y64801D01*
X83562Y64872D01*
X83645Y64928D01*
X84455Y65737D01*
X84511Y65821D01*
X84582Y65892D01*
X85218Y66844D01*
X85257Y66937D01*
X85312Y67020D01*
X85751Y68078D01*
X85770Y68177D01*
X85809Y68269D01*
X86032Y69392D01*
X86032Y69468D01*
X86051Y69541D01*
X86079Y70114D01*
X86075Y70139D01*
X86080Y70164D01*
X86080Y80765D01*
X102458Y80765D01*
Y64748D01*
X101958Y64431D01*
X101806Y64461D01*
X99876D01*
X99520Y64390D01*
X99218Y64188D01*
X99016Y63886D01*
X98945Y63530D01*
Y63330D01*
X97890D01*
X96514Y64706D01*
X96797Y65130D01*
X97356Y64899D01*
X98155Y64793D01*
X98953Y64899D01*
X99697Y65207D01*
X100336Y65697D01*
X100827Y66336D01*
X101135Y67080D01*
X101240Y67879D01*
Y69296D01*
X101135Y70095D01*
X100827Y70839D01*
X100336Y71478D01*
X99697Y71968D01*
X98953Y72277D01*
Y72773D01*
X99697Y73081D01*
X100336Y73571D01*
X100827Y74210D01*
X101135Y74954D01*
X101240Y75753D01*
Y77170D01*
X101135Y77969D01*
X100827Y78713D01*
X100336Y79352D01*
X99697Y79842D01*
X98953Y80151D01*
X98155Y80256D01*
X97356Y80151D01*
X96612Y79842D01*
X95973Y79352D01*
X95482Y78713D01*
X95174Y77969D01*
X95069Y77170D01*
Y75753D01*
X95174Y74954D01*
X95482Y74210D01*
X95973Y73571D01*
X96612Y73081D01*
X97356Y72773D01*
Y72277D01*
X96612Y71968D01*
X95973Y71478D01*
X95503Y70866D01*
X95451Y70863D01*
X95003Y71089D01*
Y71900D01*
X95003Y71900D01*
X94945Y72193D01*
X94779Y72441D01*
X94779Y72441D01*
X92969Y74251D01*
X93261Y74954D01*
X93366Y75753D01*
Y77170D01*
X93261Y77969D01*
X92953Y78713D01*
X92462Y79352D01*
X91823Y79842D01*
X91079Y80151D01*
X90281Y80256D01*
X89482Y80151D01*
X88738Y79842D01*
X88099Y79352D01*
X87608Y78713D01*
X87300Y77969D01*
X87195Y77170D01*
Y75753D01*
X87300Y74954D01*
X87608Y74210D01*
X88099Y73571D01*
X88738Y73081D01*
X89482Y72773D01*
Y72277D01*
X88738Y71968D01*
X88099Y71478D01*
X87608Y70839D01*
X87300Y70095D01*
X87195Y69296D01*
Y67879D01*
X87300Y67080D01*
X87608Y66336D01*
X88099Y65697D01*
X88738Y65207D01*
X89482Y64899D01*
X90281Y64793D01*
X91079Y64899D01*
X91823Y65207D01*
X92462Y65697D01*
X92953Y66336D01*
X92974Y66388D01*
X93474Y66288D01*
Y65900D01*
X93532Y65607D01*
X93698Y65359D01*
X97032Y62025D01*
X97281Y61859D01*
X97573Y61801D01*
X98945D01*
Y61601D01*
X99016Y61244D01*
X99218Y60942D01*
X99520Y60740D01*
X99876Y60669D01*
X101805D01*
X101920Y60439D01*
X101544Y60131D01*
X99876D01*
X99520Y60060D01*
X99218Y59858D01*
X99016Y59556D01*
X98945Y59199D01*
Y57270D01*
X99016Y56914D01*
X99218Y56612D01*
X99520Y56410D01*
X99732Y56368D01*
X99840Y55821D01*
X99979Y55614D01*
X99711Y55114D01*
X97168D01*
X96512Y54984D01*
X96162Y55351D01*
X96137Y55479D01*
X95809Y55970D01*
X95504Y56174D01*
X95340Y56468D01*
X95382Y56795D01*
X95461Y56914D01*
X95532Y57270D01*
Y59199D01*
X95461Y59556D01*
X95259Y59858D01*
X94957Y60060D01*
X94601Y60131D01*
X92672D01*
X92315Y60060D01*
X92013Y59858D01*
X91811Y59556D01*
X91740Y59199D01*
Y57270D01*
X91811Y56914D01*
X92013Y56612D01*
X92315Y56410D01*
X92672Y56339D01*
X93359D01*
X93414Y56274D01*
X93581Y55839D01*
X93340Y55479D01*
X93225Y54900D01*
X93340Y54321D01*
X93669Y53830D01*
X94160Y53502D01*
X94739Y53387D01*
X94976Y53434D01*
X94996Y53433D01*
X95514Y53082D01*
X95519Y53071D01*
X95584Y52744D01*
X95956Y52188D01*
X96512Y51816D01*
X97168Y51686D01*
X100711D01*
X101367Y51816D01*
X101923Y52188D01*
X101958Y52240D01*
X102458Y52088D01*
Y49712D01*
X101958Y49560D01*
X101923Y49612D01*
X101367Y49984D01*
X100711Y50114D01*
X97168D01*
X96512Y49984D01*
X95956Y49612D01*
X95584Y49056D01*
X95454Y48400D01*
X95584Y47744D01*
X95956Y47188D01*
X96512Y46816D01*
X97168Y46686D01*
X100711D01*
X101367Y46816D01*
X101923Y47188D01*
X101958Y47240D01*
X102458Y47088D01*
Y44712D01*
X101958Y44560D01*
X101923Y44612D01*
X101367Y44984D01*
X100711Y45114D01*
X97168D01*
X96512Y44984D01*
X95956Y44612D01*
X95584Y44056D01*
X95454Y43400D01*
X95584Y42744D01*
X95956Y42188D01*
X96512Y41816D01*
X97168Y41686D01*
X100711D01*
X101367Y41816D01*
X101923Y42188D01*
X101958Y42240D01*
X102458Y42088D01*
Y39712D01*
X101958Y39560D01*
X101923Y39612D01*
X101367Y39984D01*
X100711Y40114D01*
X97168D01*
X97124Y40105D01*
X93003Y44227D01*
Y45612D01*
X93309Y45817D01*
X93637Y46308D01*
X93752Y46887D01*
X93637Y47466D01*
X93309Y47957D01*
X92818Y48285D01*
X92239Y48400D01*
X91659Y48285D01*
X91168Y47957D01*
X90841Y47466D01*
X90725Y46887D01*
X90841Y46308D01*
X91168Y45817D01*
X91474Y45612D01*
Y43910D01*
X91532Y43617D01*
X91698Y43369D01*
X95755Y39312D01*
X95584Y39056D01*
X95454Y38400D01*
X95584Y37744D01*
X95956Y37188D01*
X96512Y36816D01*
X97168Y36686D01*
X100711D01*
X101367Y36816D01*
X101923Y37188D01*
X101958Y37240D01*
X102458Y37088D01*
Y34712D01*
X101958Y34560D01*
X101923Y34612D01*
X101367Y34984D01*
X100711Y35114D01*
X97168D01*
X97150Y35111D01*
X93320Y38941D01*
X93072Y39107D01*
X92779Y39165D01*
X68637D01*
X64920Y42881D01*
X65023Y43400D01*
X64893Y44056D01*
X64521Y44612D01*
X63965Y44984D01*
X63310Y45114D01*
X59766D01*
X59110Y44984D01*
X58554Y44612D01*
X58183Y44056D01*
X58052Y43400D01*
X58164Y42839D01*
X57969Y42545D01*
X57812Y42399D01*
X57739Y42413D01*
X57160Y42298D01*
X56669Y41970D01*
X56340Y41479D01*
X56225Y40900D01*
X56340Y40321D01*
X56669Y39830D01*
X57160Y39502D01*
X57671Y39400D01*
X58155Y38916D01*
X58052Y38400D01*
X58183Y37744D01*
X58554Y37188D01*
X59110Y36816D01*
X59766Y36686D01*
X63310D01*
X63965Y36816D01*
X64521Y37188D01*
X64893Y37744D01*
X65023Y38400D01*
X64893Y39056D01*
X64521Y39612D01*
X63965Y39984D01*
X63310Y40114D01*
X59766D01*
X59558Y40073D01*
X59479Y40119D01*
X59174Y40506D01*
X59252Y40900D01*
X59174Y41294D01*
X59479Y41680D01*
X59558Y41727D01*
X59766Y41686D01*
X63310D01*
X63846Y41793D01*
X67779Y37859D01*
X68027Y37694D01*
X68320Y37635D01*
X68320Y37635D01*
X92462D01*
X95767Y34330D01*
X95584Y34056D01*
X95454Y33400D01*
X95584Y32744D01*
X95956Y32188D01*
X96512Y31816D01*
X97168Y31686D01*
X100711D01*
X101367Y31816D01*
X101923Y32188D01*
X101958Y32240D01*
X102458Y32088D01*
Y29712D01*
X101958Y29560D01*
X101923Y29612D01*
X101367Y29984D01*
X100711Y30114D01*
X97168D01*
X96512Y29984D01*
X95956Y29612D01*
X95584Y29056D01*
X95454Y28400D01*
X95584Y27744D01*
X95956Y27188D01*
X96512Y26816D01*
X97168Y26686D01*
X100711D01*
X101367Y26816D01*
X101923Y27188D01*
X101958Y27240D01*
X102458Y27088D01*
Y24712D01*
X101958Y24560D01*
X101923Y24612D01*
X101367Y24984D01*
X100711Y25114D01*
X97168D01*
X96512Y24984D01*
X95956Y24612D01*
X95584Y24056D01*
X95454Y23400D01*
X95584Y22744D01*
X95956Y22188D01*
X96512Y21816D01*
X97168Y21686D01*
X100711D01*
X101367Y21816D01*
X101923Y22188D01*
X101958Y22240D01*
X102458Y22088D01*
Y14712D01*
X101958Y14560D01*
X101923Y14612D01*
X101367Y14984D01*
X100711Y15114D01*
X97168D01*
X96512Y14984D01*
X95956Y14612D01*
X95584Y14056D01*
X95454Y13400D01*
X95584Y12744D01*
X95956Y12188D01*
X96512Y11817D01*
X97168Y11686D01*
X100711D01*
X101367Y11817D01*
X101923Y12188D01*
X101958Y12240D01*
X102458Y12088D01*
Y9712D01*
X101958Y9560D01*
X101923Y9612D01*
X101367Y9984D01*
X100711Y10114D01*
X97168D01*
X96512Y9984D01*
X95956Y9612D01*
X95584Y9056D01*
X95454Y8400D01*
X95584Y7744D01*
X95956Y7188D01*
X96512Y6816D01*
X97168Y6686D01*
X100711D01*
X101367Y6816D01*
X101923Y7188D01*
X101958Y7240D01*
X102458Y7088D01*
Y6020D01*
X57453Y6019D01*
X57306Y6438D01*
X57291Y6520D01*
X57446Y6751D01*
X57503Y7040D01*
Y8160D01*
X57446Y8449D01*
X57282Y8693D01*
Y9106D01*
X57446Y9351D01*
X57488Y9563D01*
X57609Y9684D01*
X58043Y9642D01*
X58271Y9188D01*
X58183Y9056D01*
X58052Y8400D01*
X58183Y7744D01*
X58554Y7188D01*
X59110Y6816D01*
X59766Y6686D01*
X63310D01*
X63965Y6816D01*
X64521Y7188D01*
X64893Y7744D01*
X65023Y8400D01*
X64893Y9056D01*
X65143Y9568D01*
X65462Y9634D01*
X65659Y9502D01*
X66239Y9387D01*
X66818Y9502D01*
X67309Y9830D01*
X67637Y10321D01*
X67752Y10900D01*
X67637Y11479D01*
X67309Y11970D01*
X66818Y12298D01*
X66239Y12413D01*
X65659Y12298D01*
X65462Y12166D01*
X65143Y12232D01*
X64893Y12744D01*
X65023Y13400D01*
X64893Y14056D01*
X64521Y14612D01*
X63965Y14984D01*
X63310Y15114D01*
X59766D01*
X59110Y14984D01*
X58554Y14612D01*
X58183Y14056D01*
X58052Y13400D01*
X58183Y12744D01*
X58331Y12522D01*
X58064Y12022D01*
X57239D01*
X57239Y12022D01*
X56809Y11936D01*
X56446Y11693D01*
X56267Y11514D01*
X53729D01*
X53440Y11457D01*
X53195Y11293D01*
X53032Y11049D01*
X52974Y10760D01*
Y9640D01*
X53032Y9351D01*
X53118Y9222D01*
X52976Y8824D01*
X52897Y8722D01*
X51707D01*
X48193Y12235D01*
Y13290D01*
X48634Y13635D01*
X49041D01*
X49334Y13693D01*
X49582Y13859D01*
X50858Y15135D01*
X55564D01*
X55769Y14830D01*
X56260Y14502D01*
X56839Y14387D01*
X57418Y14502D01*
X57909Y14830D01*
X58237Y15321D01*
X58352Y15900D01*
X58237Y16479D01*
X57909Y16970D01*
X57418Y17298D01*
X56839Y17413D01*
X56260Y17298D01*
X55769Y16970D01*
X55564Y16665D01*
X50541D01*
X50249Y16607D01*
X50001Y16441D01*
X49629Y16776D01*
X49880Y17383D01*
X49909Y17530D01*
X49953Y17673D01*
X49993Y18076D01*
X49988Y18126D01*
X49997Y18176D01*
Y20762D01*
X49988Y20813D01*
X49992Y20864D01*
X49952Y21266D01*
X49909Y21409D01*
X49879Y21555D01*
X49571Y22297D01*
X49571Y22298D01*
X49571Y22298D01*
X49571Y22298D01*
X49463Y22460D01*
X49350Y22628D01*
X48781Y23197D01*
X48616Y23307D01*
X48451Y23418D01*
X47708Y23726D01*
X47562Y23755D01*
X47419Y23799D01*
X47017Y23839D01*
X46966Y23834D01*
X46915Y23844D01*
X31020Y23844D01*
X31020Y44454D01*
X31506Y44730D01*
X31520Y44728D01*
X31794Y44673D01*
X33683D01*
X33971Y44730D01*
X34075Y44800D01*
X34254D01*
X34337Y44816D01*
X34400Y44782D01*
X34722Y44383D01*
X34646Y44002D01*
X34761Y43423D01*
X35089Y42932D01*
X35580Y42604D01*
X36160Y42489D01*
X36739Y42604D01*
X37230Y42932D01*
X37558Y43423D01*
X37673Y44002D01*
X37558Y44581D01*
X37302Y44964D01*
X37497Y45366D01*
X37550Y45424D01*
X37739Y45387D01*
X38318Y45502D01*
X38809Y45830D01*
X39137Y46321D01*
X39252Y46900D01*
X39137Y47479D01*
X38809Y47970D01*
X38480Y48190D01*
Y49383D01*
X38560Y49437D01*
X38736Y49700D01*
X38798Y50010D01*
Y52372D01*
X38736Y52683D01*
X38560Y52946D01*
X38297Y53122D01*
X37987Y53183D01*
X37396D01*
X37086Y53122D01*
X37079Y53117D01*
X36707Y52986D01*
X36336Y53117D01*
X36328Y53122D01*
X36018Y53183D01*
X35428D01*
X35117Y53122D01*
X34854Y52946D01*
X34679Y52683D01*
X34617Y52372D01*
Y50010D01*
X34679Y49700D01*
X34854Y49437D01*
X35117Y49261D01*
X35240Y49237D01*
Y48030D01*
X34740Y47762D01*
X34254Y47858D01*
X34193D01*
X33971Y48007D01*
X33683Y48064D01*
X32805D01*
Y49663D01*
X32830Y49700D01*
X32892Y50010D01*
Y52372D01*
X32830Y52683D01*
X32655Y52946D01*
X32391Y53122D01*
X32081Y53183D01*
X31520D01*
X31485Y53188D01*
X31020Y53570D01*
X31020Y80765D01*
X47397D01*
X47397Y70164D01*
D02*
G37*
G36*
X269412Y65100D02*
X268912Y64776D01*
X268744Y64809D01*
X266952D01*
X266785Y65309D01*
X267291Y65697D01*
X267781Y66336D01*
X268089Y67080D01*
X268194Y67879D01*
Y69296D01*
X268089Y70095D01*
X267781Y70839D01*
X267291Y71478D01*
X266652Y71968D01*
X265908Y72277D01*
Y72773D01*
X266652Y73081D01*
X267291Y73571D01*
X267781Y74210D01*
X268089Y74954D01*
X268194Y75753D01*
Y77170D01*
X268089Y77969D01*
X267781Y78713D01*
X267291Y79352D01*
X266652Y79842D01*
X265908Y80151D01*
X265109Y80256D01*
X264310Y80151D01*
X263566Y79842D01*
X262927Y79352D01*
X262437Y78713D01*
X262129Y77969D01*
X262023Y77170D01*
Y75753D01*
X262129Y74954D01*
X262437Y74210D01*
X262927Y73571D01*
X263566Y73081D01*
X264310Y72773D01*
Y72277D01*
X263566Y71968D01*
X262927Y71478D01*
X262437Y70839D01*
X262129Y70095D01*
X262023Y69296D01*
Y67879D01*
X262129Y67080D01*
X262437Y66336D01*
X262927Y65697D01*
X263433Y65309D01*
X263265Y64809D01*
X262642D01*
X262255Y64732D01*
X261927Y64513D01*
X261707Y64185D01*
X261630Y63798D01*
Y61275D01*
X259972Y59617D01*
X259751Y59286D01*
X259673Y58896D01*
Y50010D01*
X259211Y49819D01*
X258000Y51030D01*
Y64894D01*
X258033Y64899D01*
X258778Y65207D01*
X259417Y65697D01*
X259907Y66336D01*
X260215Y67080D01*
X260320Y67879D01*
Y69296D01*
X260215Y70095D01*
X259907Y70839D01*
X259417Y71478D01*
X258778Y71968D01*
X258033Y72277D01*
Y72773D01*
X258778Y73081D01*
X259417Y73571D01*
X259907Y74210D01*
X260215Y74954D01*
X260320Y75753D01*
Y77170D01*
X260215Y77969D01*
X259907Y78713D01*
X259417Y79352D01*
X258778Y79842D01*
X258033Y80151D01*
X257235Y80256D01*
X256436Y80151D01*
X255692Y79842D01*
X255053Y79352D01*
X254563Y78713D01*
X254255Y77969D01*
X254149Y77170D01*
Y75753D01*
X254255Y74954D01*
X254563Y74210D01*
X255053Y73571D01*
X255692Y73081D01*
X256436Y72773D01*
Y72277D01*
X255692Y71968D01*
X255053Y71478D01*
X254563Y70839D01*
X254255Y70095D01*
X254149Y69296D01*
Y67879D01*
X254255Y67080D01*
X254563Y66336D01*
X255053Y65697D01*
X255692Y65207D01*
X256436Y64899D01*
X256470Y64894D01*
Y50714D01*
X256528Y50421D01*
X256694Y50173D01*
X258428Y48439D01*
Y44900D01*
X258487Y44607D01*
X258652Y44359D01*
X259428Y43583D01*
Y30717D01*
X256876Y28165D01*
X252693D01*
X252400Y28106D01*
X252152Y27941D01*
X250652Y26441D01*
X250486Y26193D01*
X250428Y25900D01*
Y16717D01*
X249958Y16246D01*
X249458Y16453D01*
Y25400D01*
X249458Y25400D01*
X249399Y25693D01*
X249234Y25941D01*
X248256Y26918D01*
X248352Y27400D01*
X248323Y27543D01*
X248705Y27924D01*
X248894Y27887D01*
X249473Y28002D01*
X249964Y28330D01*
X250292Y28821D01*
X250407Y29400D01*
X250292Y29979D01*
X249964Y30470D01*
X249473Y30798D01*
X248894Y30913D01*
X248315Y30798D01*
X247824Y30470D01*
X247496Y29979D01*
X247388Y29436D01*
X247380Y29400D01*
X246939Y29054D01*
X246638Y29114D01*
X243291D01*
X242635Y28984D01*
X242079Y28612D01*
X241780Y28165D01*
X240845D01*
X240636Y28554D01*
X240622Y28650D01*
X242764Y30791D01*
X243291Y30686D01*
X246638D01*
X247294Y30816D01*
X247850Y31188D01*
X248149Y31635D01*
X250919D01*
X251123Y31330D01*
X251614Y31002D01*
X252193Y30887D01*
X252772Y31002D01*
X253263Y31330D01*
X253591Y31821D01*
X253706Y32400D01*
X253591Y32979D01*
X253263Y33470D01*
X252772Y33798D01*
X252193Y33913D01*
X251614Y33798D01*
X251123Y33470D01*
X250919Y33165D01*
X248149D01*
X247850Y33612D01*
X247294Y33983D01*
X246638Y34114D01*
X243291D01*
X242635Y33983D01*
X242079Y33612D01*
X241708Y33056D01*
X241577Y32400D01*
X241641Y32078D01*
X241438Y31896D01*
X241298Y31914D01*
X240938Y32120D01*
Y50751D01*
X241122Y50882D01*
X241438Y50958D01*
X241914Y50483D01*
Y48150D01*
X241926Y48086D01*
Y46000D01*
X241992Y45668D01*
X242180Y45387D01*
X242461Y45199D01*
X242664Y45159D01*
Y43989D01*
X242635Y43984D01*
X242079Y43612D01*
X241708Y43056D01*
X241577Y42400D01*
X241708Y41744D01*
X242079Y41188D01*
X242635Y40816D01*
X243291Y40686D01*
X246638D01*
X247294Y40816D01*
X247850Y41188D01*
X248221Y41744D01*
X248352Y42400D01*
X248221Y43056D01*
X247850Y43612D01*
X247294Y43984D01*
X246638Y44114D01*
X245722D01*
Y45159D01*
X245925Y45199D01*
X246206Y45387D01*
X246394Y45668D01*
X246460Y46000D01*
Y48800D01*
X246394Y49132D01*
X246206Y49413D01*
X245925Y49601D01*
X245593Y49667D01*
X244972D01*
Y51116D01*
X244856Y51702D01*
X244524Y52198D01*
X240442Y56280D01*
X239946Y56612D01*
X239361Y56728D01*
X222028D01*
X220322Y58434D01*
X220513Y58896D01*
X242755D01*
X252173Y49478D01*
Y40400D01*
X252251Y40010D01*
X252472Y39679D01*
X255692Y36459D01*
X255680Y36400D01*
X255795Y35821D01*
X256123Y35330D01*
X256614Y35002D01*
X257193Y34887D01*
X257772Y35002D01*
X258263Y35330D01*
X258591Y35821D01*
X258706Y36400D01*
X258591Y36979D01*
X258263Y37470D01*
X257772Y37798D01*
X257193Y37913D01*
X257133Y37901D01*
X254212Y40822D01*
Y49900D01*
X254135Y50290D01*
X253914Y50621D01*
X243898Y60637D01*
X243567Y60858D01*
X243177Y60935D01*
X220099D01*
X217414Y63621D01*
X217083Y63842D01*
X216693Y63920D01*
X215549D01*
X212912Y66557D01*
X213129Y67080D01*
X213234Y67879D01*
Y69296D01*
X213129Y70095D01*
X212820Y70839D01*
X212330Y71478D01*
X211691Y71968D01*
X210947Y72277D01*
Y72773D01*
X211691Y73081D01*
X212330Y73571D01*
X212820Y74210D01*
X213129Y74954D01*
X213234Y75753D01*
Y77170D01*
X213129Y77969D01*
X212820Y78713D01*
X212330Y79352D01*
X211691Y79842D01*
X210947Y80151D01*
X210148Y80256D01*
X209350Y80151D01*
X208606Y79842D01*
X207966Y79352D01*
X207476Y78713D01*
X207168Y77969D01*
X207063Y77170D01*
Y75753D01*
X207168Y74954D01*
X207385Y74431D01*
X205472Y72519D01*
X205251Y72188D01*
X205173Y71798D01*
Y71364D01*
X204673Y71195D01*
X204456Y71478D01*
X203817Y71968D01*
X203073Y72277D01*
X202274Y72382D01*
X201476Y72277D01*
X200731Y71968D01*
X200093Y71478D01*
X199602Y70839D01*
X199294Y70095D01*
X199189Y69296D01*
Y67879D01*
X199294Y67080D01*
X199602Y66336D01*
X200093Y65697D01*
X200490Y65392D01*
Y63860D01*
X199870D01*
X199406Y63768D01*
X199013Y63505D01*
X198750Y63112D01*
X198658Y62648D01*
Y61270D01*
X198750Y60806D01*
X199013Y60413D01*
X199406Y60150D01*
X199870Y60058D01*
X202035D01*
X202499Y60150D01*
X202893Y60413D01*
X203155Y60806D01*
X203248Y61270D01*
Y61337D01*
X203536Y61625D01*
X203673Y61831D01*
X204173Y61679D01*
Y57657D01*
X203870Y57323D01*
X203740Y57254D01*
X203248Y57401D01*
Y57530D01*
X203155Y57994D01*
X202893Y58387D01*
X202499Y58650D01*
X202035Y58742D01*
X199870D01*
X199406Y58650D01*
X199013Y58387D01*
X198750Y57994D01*
X198658Y57530D01*
Y56152D01*
X198750Y55688D01*
X199013Y55295D01*
X199406Y55032D01*
X199870Y54940D01*
X202035D01*
X202320Y54996D01*
X203248D01*
X203737Y54507D01*
X203737Y54507D01*
X204101Y54264D01*
X204530Y54178D01*
X205129D01*
X205296Y53684D01*
X205048Y53421D01*
X203045D01*
X202992Y53457D01*
X202703Y53514D01*
X199683D01*
X199394Y53457D01*
X199149Y53294D01*
X198986Y53049D01*
X198928Y52760D01*
Y51640D01*
X198986Y51351D01*
X199149Y51107D01*
Y50694D01*
X198986Y50449D01*
X198928Y50160D01*
Y49040D01*
X198986Y48751D01*
X199149Y48507D01*
X199394Y48343D01*
X199683Y48285D01*
X200071D01*
Y47217D01*
X200012D01*
X199663Y47147D01*
X199367Y46950D01*
X199170Y46654D01*
X199101Y46306D01*
Y43550D01*
X199170Y43201D01*
X199367Y42905D01*
X199663Y42708D01*
X200012Y42638D01*
X202374D01*
X202571Y42678D01*
X202974Y42442D01*
X203071Y42339D01*
Y39337D01*
X201896Y38162D01*
X200012D01*
X199663Y38092D01*
X199367Y37895D01*
X199170Y37599D01*
X199101Y37250D01*
Y34495D01*
X199170Y34146D01*
X199367Y33850D01*
X199663Y33653D01*
X200012Y33583D01*
X202374D01*
X202723Y33653D01*
X203018Y33850D01*
X203216Y34146D01*
X203285Y34495D01*
Y36379D01*
X204986Y38079D01*
X205229Y38443D01*
X205314Y38872D01*
X205314Y38873D01*
Y43435D01*
X207011Y45132D01*
X209005D01*
X209371Y45204D01*
X209681Y45412D01*
X209889Y45722D01*
X209961Y46088D01*
Y48713D01*
X209889Y49078D01*
X209681Y49388D01*
X209371Y49596D01*
X209005Y49668D01*
X206380D01*
X206015Y49596D01*
X205704Y49388D01*
X205497Y49078D01*
X205425Y48713D01*
Y46718D01*
X203785Y45078D01*
X203285Y45285D01*
Y46306D01*
X203216Y46654D01*
X203018Y46950D01*
X202723Y47147D01*
X202374Y47217D01*
X202314D01*
Y48285D01*
X202703D01*
X202992Y48343D01*
X203236Y48507D01*
X203400Y48751D01*
X203457Y49040D01*
Y50160D01*
X203400Y50449D01*
X203236Y50694D01*
Y50751D01*
X203416Y51178D01*
X205349D01*
X205614Y51002D01*
X206193Y50887D01*
X206772Y51002D01*
X207263Y51330D01*
X207591Y51821D01*
X207706Y52400D01*
X207591Y52979D01*
X207263Y53470D01*
X206951Y53678D01*
X207103Y54178D01*
X211244D01*
X211506Y53678D01*
X211486Y53649D01*
X211428Y53360D01*
Y52240D01*
X211486Y51951D01*
X211649Y51706D01*
X211894Y51543D01*
X212183Y51486D01*
X212571D01*
Y49668D01*
X212380D01*
X212015Y49596D01*
X211704Y49388D01*
X211497Y49078D01*
X211424Y48713D01*
Y46088D01*
X211497Y45722D01*
X211704Y45412D01*
X212015Y45204D01*
X212116Y45184D01*
Y43376D01*
X211556Y43001D01*
X211063Y42263D01*
X210889Y41392D01*
Y35408D01*
X211063Y34537D01*
X211556Y33799D01*
X212294Y33305D01*
X213165Y33132D01*
X214032D01*
X214902Y33305D01*
X215641Y33799D01*
X215947Y34257D01*
X216447Y34106D01*
Y31961D01*
X216448Y31960D01*
X216447Y31959D01*
X216448Y31490D01*
X216487Y31294D01*
X216526Y31100D01*
X216886Y30232D01*
X216997Y30066D01*
X217107Y29902D01*
X217771Y29238D01*
X217771Y29238D01*
X217771Y29238D01*
X217771Y29238D01*
X217932Y29130D01*
X218101Y29017D01*
X218969Y28657D01*
X219164Y28618D01*
X219359Y28578D01*
X219829Y28578D01*
X219829Y28578D01*
X219830Y28578D01*
X222420D01*
X222420Y28578D01*
X222421Y28578D01*
X222891Y28578D01*
X223086Y28617D01*
X223281Y28656D01*
X224148Y29016D01*
X224148Y29016D01*
X224148Y29016D01*
X224149Y29017D01*
X224302Y29119D01*
X224479Y29238D01*
X224949Y29708D01*
X225512Y29689D01*
X225577Y29651D01*
X226869Y28359D01*
X227117Y28194D01*
X227409Y28135D01*
X227410Y28135D01*
X231188D01*
X232963Y26359D01*
X233212Y26193D01*
X233504Y26135D01*
X233504Y26135D01*
X240193D01*
X240486Y26193D01*
X240734Y26359D01*
X241010Y26635D01*
X241780D01*
X242079Y26188D01*
X242635Y25816D01*
X243291Y25686D01*
X246638D01*
X247211Y25800D01*
X247928Y25083D01*
Y24161D01*
X247428Y23894D01*
X247294Y23983D01*
X246638Y24114D01*
X243291D01*
X242635Y23983D01*
X242420Y23839D01*
X240960D01*
Y24300D01*
X240894Y24632D01*
X240706Y24913D01*
X240425Y25101D01*
X240093Y25167D01*
X237293D01*
X236961Y25101D01*
X236680Y24913D01*
X236492Y24632D01*
X236426Y24300D01*
Y24174D01*
X236343D01*
X235855Y24077D01*
X235442Y23801D01*
X234155Y22514D01*
X232183D01*
X231982Y22474D01*
X229792D01*
X229763Y22517D01*
X229272Y22845D01*
X228693Y22961D01*
X228114Y22845D01*
X227623Y22517D01*
X227295Y22026D01*
X227180Y21447D01*
X227295Y20868D01*
X227623Y20377D01*
X228114Y20049D01*
X228693Y19934D01*
X228795Y19954D01*
X228940Y19926D01*
X231203D01*
X231483Y19453D01*
X231481Y19425D01*
X231428Y19160D01*
Y18040D01*
X231486Y17751D01*
X231649Y17506D01*
X231894Y17343D01*
X232183Y17286D01*
X232263D01*
X232500Y16785D01*
X232295Y16479D01*
X232180Y15900D01*
X232295Y15321D01*
X232623Y14830D01*
X232816Y14701D01*
Y14099D01*
X232623Y13970D01*
X232295Y13479D01*
X232180Y12900D01*
X232295Y12321D01*
X232623Y11830D01*
X233114Y11502D01*
X233693Y11387D01*
X234272Y11502D01*
X234353Y11556D01*
X234384Y11525D01*
X234632Y11359D01*
X234925Y11301D01*
X235400D01*
Y11101D01*
X235470Y10744D01*
X235672Y10442D01*
X235974Y10240D01*
X236331Y10170D01*
X238260D01*
X238616Y10240D01*
X238918Y10442D01*
X239120Y10744D01*
X239191Y11101D01*
Y13030D01*
X239120Y13386D01*
X238918Y13688D01*
X238616Y13890D01*
X238260Y13961D01*
X236331D01*
X235974Y13890D01*
X235672Y13688D01*
X235585Y13558D01*
X235399Y13528D01*
X235037Y13563D01*
X235034Y13565D01*
X234763Y13970D01*
X234570Y14099D01*
Y14701D01*
X234763Y14830D01*
X235091Y15321D01*
X235206Y15900D01*
X235091Y16479D01*
X234886Y16785D01*
X235122Y17286D01*
X235203D01*
X235492Y17343D01*
X235736Y17506D01*
X235900Y17751D01*
X235957Y18040D01*
Y19160D01*
X235900Y19449D01*
X235736Y19693D01*
Y20107D01*
X235900Y20351D01*
X235957Y20640D01*
Y20712D01*
X236100Y20855D01*
X236680Y20887D01*
X236961Y20699D01*
X237293Y20633D01*
X240093D01*
X240425Y20699D01*
X240706Y20887D01*
X240894Y21168D01*
X240918Y21290D01*
X242011D01*
X242079Y21188D01*
X242635Y20816D01*
X243291Y20686D01*
X243612D01*
X243759Y20466D01*
X244250Y20138D01*
X244829Y20022D01*
X245408Y20138D01*
X245899Y20466D01*
X246046Y20686D01*
X246638D01*
X247294Y20816D01*
X247428Y20906D01*
X247928Y20639D01*
Y16217D01*
X247376Y15665D01*
X242486D01*
X242486Y15665D01*
X242193Y15606D01*
X241945Y15441D01*
X240652Y14148D01*
X240487Y13900D01*
X240428Y13607D01*
Y9400D01*
X240487Y9107D01*
X240652Y8859D01*
X241666Y7846D01*
X241577Y7400D01*
X241708Y6744D01*
X241858Y6520D01*
X241591Y6019D01*
X239458D01*
X239334Y6165D01*
X239141Y6520D01*
X239191Y6770D01*
Y8699D01*
X239120Y9056D01*
X238918Y9358D01*
X238616Y9560D01*
X238260Y9630D01*
X236331D01*
X235974Y9560D01*
X235672Y9358D01*
X235470Y9056D01*
X235400Y8699D01*
Y8587D01*
X234588D01*
X234272Y8798D01*
X233693Y8913D01*
X233114Y8798D01*
X232623Y8470D01*
X232486Y8266D01*
X231986Y8417D01*
Y8699D01*
X231915Y9056D01*
X231714Y9358D01*
X231412Y9560D01*
X231055Y9630D01*
X229126D01*
X228770Y9560D01*
X228467Y9358D01*
X228266Y9056D01*
X228195Y8699D01*
Y6770D01*
X228245Y6520D01*
X228052Y6165D01*
X227928Y6019D01*
X197974D01*
Y80765D01*
X214351Y80765D01*
Y70164D01*
X214356Y70139D01*
X214353Y70114D01*
X214381Y69541D01*
X214399Y69468D01*
X214399Y69392D01*
X214623Y68269D01*
X214661Y68176D01*
X214681Y68078D01*
X215119Y67020D01*
X215175Y66936D01*
X215213Y66844D01*
X215850Y65892D01*
X215921Y65821D01*
X215976Y65737D01*
X216786Y64928D01*
X216869Y64872D01*
X216940Y64801D01*
X217893Y64165D01*
X217985Y64126D01*
X218069Y64070D01*
X219127Y63632D01*
X219225Y63612D01*
X219318Y63574D01*
X220441Y63350D01*
X220517Y63350D01*
X220590Y63332D01*
X221163Y63304D01*
X221188Y63307D01*
X221213Y63302D01*
X246173D01*
X246198Y63307D01*
X246223Y63304D01*
X246796Y63332D01*
X246869Y63350D01*
X246945Y63350D01*
X248068Y63574D01*
X248161Y63612D01*
X248259Y63632D01*
X249317Y64070D01*
X249400Y64126D01*
X249493Y64165D01*
X250445Y64801D01*
X250516Y64872D01*
X250600Y64928D01*
X251410Y65737D01*
X251465Y65821D01*
X251536Y65892D01*
X252173Y66844D01*
X252211Y66937D01*
X252267Y67020D01*
X252705Y68078D01*
X252725Y68176D01*
X252763Y68269D01*
X252987Y69392D01*
X252987Y69468D01*
X253005Y69541D01*
X253033Y70114D01*
X253030Y70139D01*
X253034Y70164D01*
X253034Y80765D01*
X269412D01*
Y65100D01*
D02*
G37*
G36*
X171576Y65697D02*
X172215Y65207D01*
X172959Y64899D01*
X173758Y64793D01*
X174365Y64873D01*
X174599Y64400D01*
X171863Y61665D01*
X169216D01*
X169216Y61665D01*
X168923Y61606D01*
X168675Y61441D01*
X166899Y59665D01*
X158716D01*
X158423Y59606D01*
X158175Y59441D01*
X152703Y53969D01*
X152241D01*
X151860Y53893D01*
X151538Y53678D01*
X151322Y53355D01*
X151247Y52975D01*
Y49312D01*
X149175Y47241D01*
X149009Y46992D01*
X148951Y46700D01*
Y39717D01*
X145668Y36434D01*
X145168Y36641D01*
Y39393D01*
X147257Y41481D01*
X147257Y41481D01*
X147422Y41729D01*
X147480Y42022D01*
Y42626D01*
X147786Y42830D01*
X148114Y43321D01*
X148229Y43900D01*
X148114Y44479D01*
X147786Y44970D01*
X147480Y45174D01*
Y52083D01*
X156033Y60635D01*
X166216D01*
X166508Y60693D01*
X166756Y60859D01*
X170756Y64859D01*
X170756Y64859D01*
X170922Y65107D01*
X170981Y65400D01*
Y65652D01*
X171481Y65822D01*
X171576Y65697D01*
D02*
G37*
G36*
X180089Y73081D02*
X180833Y72773D01*
Y72277D01*
X180089Y71968D01*
X179450Y71478D01*
X178960Y70839D01*
X178651Y70095D01*
X178546Y69296D01*
Y67879D01*
X178651Y67080D01*
X178960Y66336D01*
X179450Y65697D01*
X180089Y65207D01*
X180568Y65009D01*
X180671Y64437D01*
X175399Y59165D01*
X170216D01*
X170216Y59165D01*
X169923Y59106D01*
X169675Y58941D01*
X167899Y57165D01*
X161616D01*
X161323Y57106D01*
X161075Y56941D01*
X158103Y53969D01*
X157241D01*
X156860Y53893D01*
X156538Y53678D01*
X156322Y53355D01*
X156247Y52975D01*
Y49225D01*
X156322Y48845D01*
X156538Y48522D01*
X156860Y48307D01*
X156951Y48288D01*
Y47764D01*
X155175Y45988D01*
X155009Y45740D01*
X154951Y45447D01*
Y39717D01*
X143306Y28072D01*
X142806Y28279D01*
X142806Y31813D01*
X143231Y31994D01*
X143594D01*
Y33305D01*
X144385D01*
X144678Y33363D01*
X144926Y33529D01*
X150257Y38859D01*
X150422Y39107D01*
X150480Y39400D01*
Y46383D01*
X152328Y48231D01*
X153191D01*
X153571Y48307D01*
X153894Y48522D01*
X154109Y48845D01*
X154185Y49225D01*
Y52975D01*
X154133Y53236D01*
X159032Y58135D01*
X167216D01*
X167508Y58193D01*
X167756Y58359D01*
X169533Y60135D01*
X172180D01*
X172473Y60193D01*
X172721Y60359D01*
X177608Y65246D01*
X177773Y65494D01*
X177831Y65786D01*
Y70871D01*
X180062Y73102D01*
X180089Y73081D01*
D02*
G37*
G36*
X50543Y55572D02*
Y54374D01*
X50600Y54086D01*
X50763Y53843D01*
X51007Y53680D01*
X51294Y53623D01*
X53184D01*
X53471Y53680D01*
X53714Y53843D01*
X53877Y54086D01*
X53924Y54324D01*
X54563D01*
X54600Y54136D01*
X54763Y53893D01*
X55006Y53730D01*
X55294Y53673D01*
X56492D01*
X57226Y52940D01*
X57556Y52719D01*
X57946Y52641D01*
X58113D01*
X58469Y52231D01*
X58456Y51739D01*
X58446Y51693D01*
X58202Y51329D01*
X58117Y50900D01*
X58124Y50867D01*
X56677Y49420D01*
X50037D01*
Y54052D01*
X49864Y54923D01*
X49370Y55662D01*
X49022Y55894D01*
X49174Y56394D01*
X49721D01*
X50543Y55572D01*
D02*
G37*
G36*
X185935Y6019D02*
X114497D01*
Y39901D01*
X114997Y40053D01*
X115146Y39830D01*
X115637Y39502D01*
X116216Y39387D01*
X116795Y39502D01*
X117286Y39830D01*
X117614Y40321D01*
X117729Y40900D01*
X117614Y41479D01*
X117337Y41893D01*
Y42771D01*
X117448Y42793D01*
X117691Y42956D01*
X117854Y43199D01*
X117911Y43486D01*
Y45118D01*
X118411Y45325D01*
X119020Y44717D01*
Y43486D01*
X119077Y43199D01*
X119240Y42956D01*
X119484Y42793D01*
X119696Y42751D01*
Y42049D01*
X119484Y42007D01*
X119240Y41844D01*
X119077Y41600D01*
X119020Y41313D01*
Y39423D01*
X119077Y39136D01*
X119240Y38893D01*
X119484Y38730D01*
X119771Y38673D01*
X121661D01*
X121948Y38730D01*
X122191Y38893D01*
X122354Y39136D01*
X122411Y39423D01*
Y41313D01*
X122354Y41600D01*
X122191Y41844D01*
X121948Y42007D01*
X121735Y42049D01*
Y42751D01*
X121948Y42793D01*
X122191Y42956D01*
X122354Y43199D01*
X122411Y43486D01*
Y45376D01*
X122354Y45663D01*
X122191Y45907D01*
X121948Y46070D01*
X121661Y46127D01*
X120916D01*
X120885Y46173D01*
X121153Y46673D01*
X121661D01*
X121948Y46730D01*
X122191Y46893D01*
X122354Y47136D01*
X122411Y47423D01*
Y48622D01*
X129670Y55880D01*
X130921D01*
X131312Y55958D01*
X131642Y56179D01*
X132649Y57186D01*
X132870Y57517D01*
X132948Y57907D01*
Y64247D01*
X132870Y64637D01*
X132827Y64702D01*
X133215Y65021D01*
X133309Y64927D01*
X133392Y64872D01*
X133463Y64801D01*
X134415Y64164D01*
X134508Y64126D01*
X134592Y64070D01*
X135650Y63632D01*
X135748Y63612D01*
X135841Y63574D01*
X136964Y63350D01*
X137039Y63350D01*
X137113Y63332D01*
X137685Y63304D01*
X137710Y63307D01*
X137735Y63302D01*
X162696D01*
X162721Y63307D01*
X162746Y63304D01*
X163319Y63332D01*
X163392Y63350D01*
X163468Y63350D01*
X164591Y63574D01*
X164683Y63612D01*
X164782Y63632D01*
X165840Y64070D01*
X165923Y64126D01*
X166016Y64165D01*
X166968Y64801D01*
X167039Y64872D01*
X167123Y64928D01*
X167932Y65737D01*
X167988Y65821D01*
X168059Y65892D01*
X168695Y66844D01*
X168734Y66936D01*
X168790Y67020D01*
X168951Y67410D01*
X169451Y67310D01*
Y65717D01*
X165899Y62165D01*
X155716D01*
X155423Y62106D01*
X155175Y61941D01*
X146175Y52941D01*
X146009Y52693D01*
X145951Y52400D01*
Y45174D01*
X145646Y44970D01*
X145318Y44479D01*
X145202Y43900D01*
X145318Y43321D01*
X145646Y42830D01*
X145754Y42757D01*
X145798Y42185D01*
X144087Y40475D01*
X144019D01*
X143594Y40656D01*
X143594Y40975D01*
Y44805D01*
X136688D01*
Y40656D01*
X137838D01*
X138263Y40475D01*
X138263Y40156D01*
Y39165D01*
X134380D01*
Y39345D01*
X134323Y39632D01*
X134160Y39876D01*
X133916Y40038D01*
X133629Y40095D01*
X131739D01*
X131452Y40038D01*
X131209Y39876D01*
X131046Y39632D01*
X130989Y39345D01*
Y37455D01*
X131046Y37168D01*
X131209Y36924D01*
X131452Y36762D01*
X131739Y36704D01*
X133629D01*
X133916Y36762D01*
X134160Y36924D01*
X134323Y37168D01*
X134380Y37455D01*
Y37635D01*
X138263D01*
Y36325D01*
X137838Y36144D01*
X136688D01*
X136688Y31994D01*
X136263Y31813D01*
X135901D01*
Y31495D01*
X135401Y31227D01*
X135295Y31298D01*
X134767Y31403D01*
X134380Y31791D01*
Y32845D01*
X134323Y33132D01*
X134160Y33376D01*
X133916Y33538D01*
X133629Y33595D01*
X132431D01*
X129885Y36141D01*
Y36743D01*
X129979Y36762D01*
X130223Y36924D01*
X130386Y37168D01*
X130443Y37455D01*
Y39345D01*
X130386Y39632D01*
X130223Y39876D01*
X129979Y40038D01*
X129692Y40095D01*
X127802D01*
X127515Y40038D01*
X127272Y39876D01*
X127109Y39632D01*
X127052Y39345D01*
Y37455D01*
X127109Y37168D01*
X127272Y36924D01*
X127515Y36762D01*
X127802Y36704D01*
X127846D01*
Y35719D01*
X127923Y35329D01*
X128144Y34998D01*
X130989Y32153D01*
Y30955D01*
X131046Y30668D01*
X131209Y30424D01*
X131452Y30261D01*
X131739Y30204D01*
X132367D01*
X132525Y29790D01*
X132376Y29595D01*
X131739D01*
X131452Y29538D01*
X131209Y29376D01*
X131046Y29132D01*
X130989Y28845D01*
Y26955D01*
X131046Y26668D01*
X131209Y26424D01*
X131452Y26261D01*
X131739Y26204D01*
X133629D01*
X133916Y26261D01*
X134160Y26424D01*
X134323Y26668D01*
X134380Y26955D01*
Y28009D01*
X134767Y28397D01*
X135295Y28502D01*
X135401Y28573D01*
X135901Y28434D01*
Y27664D01*
X136263D01*
X136688Y27483D01*
X136688Y27164D01*
Y23333D01*
X143594D01*
Y26196D01*
X156256Y38859D01*
X156422Y39107D01*
X156481Y39400D01*
X156481Y39400D01*
Y45131D01*
X158256Y46907D01*
X158422Y47155D01*
X158481Y47447D01*
X158481Y47447D01*
Y48288D01*
X158571Y48307D01*
X158894Y48522D01*
X159109Y48845D01*
X159185Y49225D01*
Y52888D01*
X161933Y55635D01*
X168216D01*
X168508Y55693D01*
X168756Y55859D01*
X170533Y57635D01*
X175716D01*
X176008Y57693D01*
X176257Y57859D01*
X182173Y63775D01*
X182338Y64023D01*
X182396Y64316D01*
X182396Y64316D01*
Y64894D01*
X182430Y64899D01*
X183175Y65207D01*
X183814Y65697D01*
X184304Y66336D01*
X184612Y67080D01*
X184717Y67879D01*
Y69296D01*
X184612Y70095D01*
X184304Y70839D01*
X183814Y71478D01*
X183175Y71968D01*
X182430Y72277D01*
Y72773D01*
X183175Y73081D01*
X183814Y73571D01*
X184304Y74210D01*
X184612Y74954D01*
X184717Y75753D01*
Y77170D01*
X184612Y77969D01*
X184304Y78713D01*
X183814Y79352D01*
X183175Y79842D01*
X182430Y80151D01*
X181632Y80256D01*
X180833Y80151D01*
X180089Y79842D01*
X179450Y79352D01*
X178960Y78713D01*
X178651Y77969D01*
X178546Y77170D01*
Y75753D01*
X178651Y74954D01*
X178960Y74210D01*
X178980Y74183D01*
X176526Y71729D01*
X176457Y71625D01*
X176162Y71541D01*
X175993Y71522D01*
X175862Y71538D01*
X175300Y71968D01*
X174556Y72277D01*
Y72773D01*
X175300Y73081D01*
X175940Y73571D01*
X176430Y74210D01*
X176738Y74954D01*
X176843Y75753D01*
Y77170D01*
X176738Y77969D01*
X176430Y78713D01*
X175940Y79352D01*
X175300Y79842D01*
X174556Y80151D01*
X173758Y80256D01*
X172959Y80151D01*
X172215Y79842D01*
X171576Y79352D01*
X171086Y78713D01*
X170777Y77969D01*
X170672Y77170D01*
Y75753D01*
X170777Y74954D01*
X171086Y74210D01*
X171106Y74183D01*
X170057Y73134D01*
X169557Y73341D01*
X169557Y80765D01*
X185935D01*
Y6019D01*
D02*
G37*
G36*
X234172Y46821D02*
X230555D01*
Y43853D01*
X234172D01*
Y42884D01*
X230555D01*
Y41358D01*
X227972Y38774D01*
X227751Y38444D01*
X227673Y38054D01*
Y36598D01*
X227623Y36565D01*
X227345Y36149D01*
X227021Y36171D01*
X226845Y36233D01*
Y36729D01*
X226845Y36729D01*
X226831Y36803D01*
Y38947D01*
X223214D01*
Y43853D01*
X226831D01*
Y46821D01*
X223214D01*
Y47456D01*
X234172D01*
Y46821D01*
D02*
G37*
G36*
X256444Y21195D02*
X256441Y21192D01*
X255980Y20989D01*
X255853Y21034D01*
X255846Y21039D01*
X255535Y21101D01*
X254945D01*
X254635Y21039D01*
X254372Y20863D01*
X254196Y20600D01*
X254134Y20290D01*
Y18198D01*
X253652Y17716D01*
X253486Y17468D01*
X253428Y17176D01*
Y13248D01*
X248574Y8394D01*
X247961Y8445D01*
X247850Y8612D01*
X247294Y8984D01*
X246638Y9114D01*
X243291D01*
X242682Y8993D01*
X241958Y9717D01*
Y10668D01*
X242458Y10935D01*
X242635Y10816D01*
X243291Y10686D01*
X246638D01*
X247294Y10816D01*
X247850Y11188D01*
X248221Y11744D01*
X248352Y12400D01*
X248339Y12465D01*
X251734Y15859D01*
X251734Y15859D01*
X251899Y16107D01*
X251958Y16400D01*
Y25583D01*
X253010Y26635D01*
X256444D01*
Y21195D01*
D02*
G37*
G36*
X261623Y33830D02*
X262114Y33502D01*
X262693Y33387D01*
X262753Y33399D01*
X263153Y32998D01*
X263034Y32400D01*
X263164Y31744D01*
X263536Y31188D01*
X264092Y30816D01*
X264748Y30686D01*
X268094D01*
X268751Y30816D01*
X268912Y30924D01*
X269412Y30657D01*
Y6019D01*
X248790D01*
X248507Y6520D01*
X248576Y6635D01*
X248662D01*
X248954Y6694D01*
X249202Y6859D01*
X254734Y12391D01*
X254899Y12639D01*
X254958Y12931D01*
Y16859D01*
X255216Y17117D01*
X255535D01*
X255846Y17178D01*
X255853Y17183D01*
X256224Y17314D01*
X256596Y17183D01*
X256603Y17178D01*
X256913Y17117D01*
X257504D01*
X257814Y17178D01*
X258077Y17354D01*
X258253Y17617D01*
X258315Y17928D01*
Y20290D01*
X258253Y20600D01*
X258077Y20863D01*
X258044Y20885D01*
X258037Y21140D01*
X258461Y21559D01*
X259287D01*
X260015Y20831D01*
Y19118D01*
X260015Y19118D01*
X260040Y18993D01*
Y17928D01*
X260101Y17617D01*
X260277Y17354D01*
X260540Y17178D01*
X260850Y17117D01*
X261441D01*
X261751Y17178D01*
X262014Y17354D01*
X262190Y17617D01*
X262252Y17928D01*
Y19031D01*
X262267Y19109D01*
X262258Y19156D01*
Y21295D01*
X262258Y21295D01*
X262172Y21724D01*
X261929Y22088D01*
X260873Y23145D01*
Y24199D01*
X260816Y24486D01*
X260653Y24730D01*
X260409Y24893D01*
X260307Y24913D01*
Y25395D01*
X260591Y25821D01*
X260706Y26400D01*
X260591Y26979D01*
X260263Y27470D01*
X259772Y27798D01*
X259445Y27863D01*
X259275Y28401D01*
X260734Y29859D01*
X260899Y30107D01*
X260958Y30400D01*
Y33926D01*
X261458Y34077D01*
X261623Y33830D01*
D02*
G37*
G36*
X31817Y17681D02*
Y13762D01*
X34786D01*
Y17681D01*
X35754D01*
Y13762D01*
X36790D01*
X38243Y12309D01*
X38340Y11821D01*
X38669Y11330D01*
X39160Y11002D01*
X39739Y10887D01*
X40318Y11002D01*
X40649Y11223D01*
X41736D01*
X42004Y10723D01*
X41840Y10479D01*
X41796Y10255D01*
X41578Y10038D01*
X39691D01*
Y6020D01*
X34786Y6020D01*
Y10038D01*
X31817D01*
Y6020D01*
X31020D01*
X31019Y17681D01*
X31817D01*
D02*
G37*
%LPC*%
G36*
X118797Y72382D02*
X117999Y72277D01*
X117254Y71968D01*
X116615Y71478D01*
X116125Y70839D01*
X115817Y70095D01*
X115712Y69296D01*
Y67879D01*
X115817Y67080D01*
X116125Y66336D01*
X116615Y65697D01*
X117254Y65207D01*
X117999Y64899D01*
X118797Y64793D01*
X119596Y64899D01*
X120340Y65207D01*
X120979Y65697D01*
X121469Y66336D01*
X121777Y67080D01*
X121882Y67879D01*
Y69296D01*
X121777Y70095D01*
X121469Y70839D01*
X120979Y71478D01*
X120340Y71968D01*
X119596Y72277D01*
X118797Y72382D01*
D02*
G37*
G36*
X43194Y80256D02*
X42395Y80151D01*
X41651Y79842D01*
X41012Y79352D01*
X40522Y78713D01*
X40214Y77969D01*
X40108Y77170D01*
Y75753D01*
X40214Y74954D01*
X40522Y74210D01*
X41012Y73571D01*
X41651Y73081D01*
X42395Y72773D01*
Y72277D01*
X41651Y71968D01*
X41012Y71478D01*
X40522Y70839D01*
X40214Y70095D01*
X40108Y69296D01*
Y67879D01*
X40214Y67080D01*
X40522Y66336D01*
X41012Y65697D01*
X41651Y65207D01*
X42395Y64899D01*
X43194Y64793D01*
X43992Y64899D01*
X44737Y65207D01*
X45376Y65697D01*
X45866Y66336D01*
X46174Y67080D01*
X46279Y67879D01*
Y69296D01*
X46174Y70095D01*
X45866Y70839D01*
X45376Y71478D01*
X44737Y71968D01*
X43992Y72277D01*
Y72773D01*
X44737Y73081D01*
X45376Y73571D01*
X45866Y74210D01*
X46174Y74954D01*
X46279Y75753D01*
Y77170D01*
X46174Y77969D01*
X45866Y78713D01*
X45376Y79352D01*
X44737Y79842D01*
X43992Y80151D01*
X43194Y80256D01*
D02*
G37*
G36*
X66551Y62668D02*
X63926D01*
X63560Y62596D01*
X63250Y62388D01*
X63043Y62078D01*
X63005Y61885D01*
X62495Y61885D01*
X62486Y61930D01*
X62288Y62225D01*
X61993Y62423D01*
X61644Y62492D01*
X58888D01*
X58539Y62423D01*
X58244Y62225D01*
X58046Y61930D01*
X57977Y61581D01*
Y59219D01*
X58046Y58870D01*
X58244Y58575D01*
X58539Y58377D01*
X58888Y58308D01*
X61644D01*
X61993Y58377D01*
X62288Y58575D01*
X62486Y58870D01*
X62495Y58915D01*
X63005Y58915D01*
X63043Y58722D01*
X63250Y58412D01*
X63560Y58204D01*
X63926Y58132D01*
X66551D01*
X66917Y58204D01*
X67227Y58412D01*
X67434Y58722D01*
X67507Y59088D01*
Y61712D01*
X67434Y62078D01*
X67227Y62388D01*
X66917Y62596D01*
X66551Y62668D01*
D02*
G37*
G36*
X63310Y35114D02*
X59766D01*
X59110Y34984D01*
X58554Y34612D01*
X58183Y34056D01*
X58052Y33400D01*
X58183Y32744D01*
X58554Y32188D01*
X59110Y31816D01*
X59766Y31686D01*
X63310D01*
X63965Y31816D01*
X64521Y32188D01*
X64893Y32744D01*
X65023Y33400D01*
X64893Y34056D01*
X64521Y34612D01*
X63965Y34984D01*
X63310Y35114D01*
D02*
G37*
G36*
Y30114D02*
X59766D01*
X59110Y29984D01*
X58554Y29612D01*
X58183Y29056D01*
X58052Y28400D01*
X58183Y27744D01*
X58554Y27188D01*
X59110Y26816D01*
X59766Y26686D01*
X63310D01*
X63965Y26816D01*
X64521Y27188D01*
X64893Y27744D01*
X65023Y28400D01*
X64893Y29056D01*
X64521Y29612D01*
X63965Y29984D01*
X63310Y30114D01*
D02*
G37*
G36*
Y25114D02*
X59766D01*
X59110Y24984D01*
X58554Y24612D01*
X58183Y24056D01*
X58052Y23400D01*
X58183Y22744D01*
X58554Y22188D01*
X59110Y21816D01*
X59766Y21686D01*
X63310D01*
X63965Y21816D01*
X64521Y22188D01*
X64893Y22744D01*
X65023Y23400D01*
X64893Y24056D01*
X64521Y24612D01*
X63965Y24984D01*
X63310Y25114D01*
D02*
G37*
G36*
Y20114D02*
X59766D01*
X59110Y19984D01*
X58554Y19612D01*
X58183Y19056D01*
X58052Y18400D01*
X58183Y17744D01*
X58554Y17188D01*
X59110Y16816D01*
X59766Y16686D01*
X63310D01*
X63965Y16816D01*
X64521Y17188D01*
X64893Y17744D01*
X65023Y18400D01*
X64893Y19056D01*
X64521Y19612D01*
X63965Y19984D01*
X63310Y20114D01*
D02*
G37*
G36*
X246638Y39114D02*
X243291D01*
X242635Y38984D01*
X242079Y38612D01*
X241708Y38056D01*
X241577Y37400D01*
X241708Y36744D01*
X242079Y36188D01*
X242635Y35816D01*
X243291Y35686D01*
X246638D01*
X247294Y35816D01*
X247850Y36188D01*
X248221Y36744D01*
X248352Y37400D01*
X248221Y38056D01*
X247850Y38612D01*
X247294Y38984D01*
X246638Y39114D01*
D02*
G37*
G36*
X175161Y56064D02*
X173271D01*
X172984Y56007D01*
X172740Y55844D01*
X172713Y55804D01*
X172599Y55781D01*
X172103Y55450D01*
X170632Y53979D01*
X168299D01*
X167878Y54401D01*
X167382Y54732D01*
X166797Y54848D01*
X163635D01*
X163050Y54732D01*
X162554Y54401D01*
X162092Y53939D01*
X161860Y53893D01*
X161538Y53678D01*
X161322Y53355D01*
X161247Y52975D01*
Y52703D01*
X161186Y52400D01*
Y51100D01*
X161247Y50797D01*
Y49225D01*
X161322Y48845D01*
X161538Y48522D01*
X161860Y48307D01*
X162241Y48231D01*
X163191D01*
X163571Y48307D01*
X163894Y48522D01*
X164109Y48845D01*
X164185Y49225D01*
Y50797D01*
X164245Y51100D01*
Y51766D01*
X164269Y51790D01*
X166163D01*
X166186Y51766D01*
Y48937D01*
X166303Y48352D01*
X166634Y47856D01*
X169186Y45303D01*
Y39400D01*
X169303Y38815D01*
X169634Y38318D01*
X172186Y35766D01*
Y20033D01*
X164582Y12429D01*
X159245D01*
Y22700D01*
X159185Y23003D01*
Y24575D01*
X159109Y24955D01*
X158894Y25278D01*
X158571Y25493D01*
X158191Y25569D01*
X157241D01*
X156860Y25493D01*
X156538Y25278D01*
X156322Y24955D01*
X156247Y24575D01*
Y23003D01*
X156186Y22700D01*
Y12429D01*
X148716D01*
X148131Y12313D01*
X147634Y11981D01*
X147303Y11485D01*
X147186Y10900D01*
X147303Y10315D01*
X147634Y9819D01*
X148131Y9487D01*
X148716Y9370D01*
X165216D01*
X165801Y9487D01*
X166297Y9819D01*
X174797Y18318D01*
X175129Y18815D01*
X175245Y19400D01*
Y36400D01*
X175129Y36985D01*
X174797Y37481D01*
X172245Y40033D01*
Y45937D01*
X172129Y46522D01*
X171797Y47019D01*
X169245Y49571D01*
Y50920D01*
X171266D01*
X171851Y51037D01*
X172347Y51368D01*
X173652Y52673D01*
X175161D01*
X175448Y52730D01*
X175691Y52893D01*
X175854Y53136D01*
X175911Y53424D01*
Y55313D01*
X175854Y55601D01*
X175691Y55844D01*
X175448Y56007D01*
X175161Y56064D01*
D02*
G37*
G36*
X165216Y30913D02*
X164637Y30798D01*
X164146Y30470D01*
X163818Y29979D01*
X163702Y29400D01*
X163818Y28821D01*
X164146Y28330D01*
X164637Y28002D01*
X165216Y27887D01*
X165576Y27958D01*
X166951Y26583D01*
Y25511D01*
X166860Y25493D01*
X166538Y25278D01*
X166322Y24955D01*
X166247Y24575D01*
Y20825D01*
X166322Y20445D01*
X166538Y20122D01*
X166860Y19906D01*
X167241Y19831D01*
X168191D01*
X168571Y19906D01*
X168894Y20122D01*
X169109Y20445D01*
X169185Y20825D01*
Y24575D01*
X169109Y24955D01*
X168894Y25278D01*
X168571Y25493D01*
X168481Y25511D01*
Y26900D01*
X168422Y27193D01*
X168256Y27441D01*
X168256Y27441D01*
X166657Y29040D01*
X166729Y29400D01*
X166614Y29979D01*
X166286Y30470D01*
X165795Y30798D01*
X165216Y30913D01*
D02*
G37*
G36*
X160716Y45913D02*
X160137Y45798D01*
X159646Y45470D01*
X159318Y44979D01*
X159202Y44400D01*
X159318Y43821D01*
X159646Y43330D01*
X159951Y43126D01*
Y38217D01*
X155175Y33441D01*
X145440Y23705D01*
X145274Y23457D01*
X145216Y23165D01*
Y21525D01*
X142512Y18821D01*
X136688D01*
Y14990D01*
X136688Y14672D01*
X136688Y14172D01*
Y10341D01*
X143594D01*
Y14172D01*
X143594Y14491D01*
X143594Y14990D01*
Y17740D01*
X146521Y20667D01*
X146687Y20915D01*
X146745Y21208D01*
Y22848D01*
X155716Y31819D01*
X161618Y25916D01*
X161545Y25282D01*
X161538Y25278D01*
X161322Y24955D01*
X161247Y24575D01*
Y20825D01*
X161322Y20445D01*
X161538Y20122D01*
X161860Y19906D01*
X162241Y19831D01*
X163191D01*
X163571Y19906D01*
X163894Y20122D01*
X164109Y20445D01*
X164185Y20825D01*
Y24575D01*
X164109Y24955D01*
X163894Y25278D01*
X163571Y25493D01*
X163480Y25511D01*
Y25900D01*
X163422Y26193D01*
X163257Y26441D01*
X156797Y32900D01*
X161257Y37359D01*
X161422Y37607D01*
X161480Y37900D01*
Y43126D01*
X161786Y43330D01*
X162114Y43821D01*
X162229Y44400D01*
X162114Y44979D01*
X161786Y45470D01*
X161295Y45798D01*
X160716Y45913D01*
D02*
G37*
%LPD*%
D11*
X173184Y54368D02*
X174216D01*
X171266Y52450D02*
X173184Y54368D01*
X167766Y52450D02*
X171266D01*
X170716Y39400D02*
Y45937D01*
X167716Y48937D02*
X170716Y45937D01*
X167716Y48937D02*
Y51100D01*
Y52400D02*
X167766Y52450D01*
X157716Y10900D02*
X165216D01*
X148716D02*
X157716D01*
Y22700D01*
X165216Y10900D02*
X173716Y19400D01*
Y36400D01*
X170716Y39400D02*
X173716Y36400D01*
X162716Y51100D02*
Y52400D01*
X163635Y53319D01*
X166797D01*
X167716Y52400D01*
Y51100D02*
Y52400D01*
X32778Y46329D02*
X34254D01*
X32739Y46369D02*
X32778Y46329D01*
X215693Y60900D02*
X221394Y55199D01*
X209933Y60900D02*
X215693D01*
X221394Y55199D02*
X239361D01*
X208433Y59400D02*
X209933Y60900D01*
X239361Y55199D02*
X243443Y51116D01*
Y48150D02*
Y51116D01*
Y48150D02*
X244193Y47400D01*
Y42953D02*
Y47400D01*
Y42953D02*
X244746Y42400D01*
X244965D01*
X213646Y38447D02*
Y47353D01*
X213598Y38400D02*
X213646Y38447D01*
Y47353D02*
X213693Y47400D01*
D12*
X132684Y38400D02*
X141716D01*
X181632Y64316D02*
Y68587D01*
X175716Y58400D02*
X181632Y64316D01*
X170216Y58400D02*
X175716D01*
X168216Y56400D02*
X170216Y58400D01*
X161616Y56400D02*
X168216D01*
X169216Y60900D02*
X172180D01*
X167216Y58900D02*
X169216Y60900D01*
X158716Y58900D02*
X167216D01*
X165216Y29400D02*
X167716Y26900D01*
X162716Y22700D02*
Y25900D01*
X155716Y32900D02*
X162716Y25900D01*
X140141Y34069D02*
X144385D01*
X152716Y49700D02*
Y51100D01*
X144385Y34069D02*
X149716Y39400D01*
Y46700D01*
X152716Y49700D01*
X172180Y60900D02*
X177067Y65786D01*
Y71188D01*
X152716Y52900D02*
X158716Y58900D01*
X155716Y45447D02*
X157716Y47447D01*
X140141Y25408D02*
X141724D01*
X155716Y39400D01*
Y45447D01*
X157716Y47447D02*
Y51100D01*
X152716D02*
Y52900D01*
X157716Y51100D02*
Y52500D01*
X161616Y56400D01*
X181632Y75753D02*
Y76461D01*
X177067Y71188D02*
X181632Y75753D01*
X170216Y72211D02*
X173758Y75753D01*
X170216Y65400D02*
Y72211D01*
X166216Y61400D02*
X170216Y65400D01*
X146716Y42022D02*
Y43900D01*
X143094Y38400D02*
X146716Y42022D01*
X141716Y38400D02*
X143094D01*
X146716Y43900D02*
Y52400D01*
X155716Y61400D01*
X155716Y32900D02*
X160716Y37900D01*
X145981Y23165D02*
X155716Y32900D01*
X145981Y21208D02*
Y23165D01*
X141519Y16746D02*
X145981Y21208D01*
X160716Y37900D02*
Y44400D01*
X155716Y61400D02*
X166216D01*
X167716Y22700D02*
Y26900D01*
X173758Y75753D02*
Y76461D01*
X140141Y16746D02*
X141519D01*
X36004Y44157D02*
Y50910D01*
X35723Y51191D02*
X36004Y50910D01*
X50541Y15900D02*
X56839D01*
X49041Y14400D02*
X50541Y15900D01*
X42522Y9900D02*
X43239D01*
X41176Y8554D02*
X42522Y9900D01*
X92239Y43910D02*
Y46887D01*
Y43910D02*
X97748Y38400D01*
X90281Y75858D02*
X94239Y71900D01*
Y65900D02*
Y71900D01*
Y65900D02*
X97573Y62565D01*
X100841D01*
X94739Y54900D02*
X95020Y54619D01*
X95656D01*
X96875Y53400D01*
X98939D01*
X37715Y46924D02*
X37739Y46900D01*
X37715Y46924D02*
Y51168D01*
X37691Y51191D02*
X37715Y51168D01*
X36004Y44157D02*
X36160Y44002D01*
X56739Y48400D02*
X59239Y50900D01*
X41176Y15837D02*
X42802D01*
X44239Y14400D01*
X49041D01*
X57739Y40414D02*
X59752Y38400D01*
X57739Y40414D02*
Y40900D01*
X59752Y38400D02*
X61538D01*
X68320D02*
X92779D01*
X63320Y43400D02*
X68320Y38400D01*
X61538Y43400D02*
X63320D01*
X92779Y38400D02*
X97779Y33400D01*
X41176Y7963D02*
Y8554D01*
X97779Y33400D02*
X98939D01*
X97748Y38400D02*
X98939D01*
X90281Y75858D02*
Y76462D01*
X246894Y27199D02*
Y27400D01*
X254193Y12931D02*
Y17176D01*
X248662Y7400D02*
X254193Y12931D01*
X244965Y7400D02*
X248662D01*
X243291Y32400D02*
X252193D01*
X233471Y28347D02*
X239239D01*
X243291Y32400D01*
X231355Y30464D02*
X233471Y28347D01*
X231504Y28900D02*
X233504Y26900D01*
X227409Y28900D02*
X231504D01*
X226081Y30229D02*
X227409Y28900D01*
X251193Y25900D02*
X252693Y27400D01*
X251193Y16400D02*
Y25900D01*
X247193Y12400D02*
X251193Y16400D01*
X254193Y17176D02*
X255240Y18223D01*
X243193Y7400D02*
X244965D01*
X257209Y19109D02*
Y27400D01*
X257193D02*
X260193Y30400D01*
Y43900D01*
X252693Y27400D02*
X257193D01*
X255240Y18223D02*
Y19109D01*
X233504Y26900D02*
X240193D01*
X244965Y27400D02*
X246894D01*
Y27199D02*
X248693Y25400D01*
X242486Y14900D02*
X247693D01*
X241193Y9400D02*
Y13607D01*
Y9400D02*
X243193Y7400D01*
X241193Y13607D02*
X242486Y14900D01*
X247693D02*
X248693Y15900D01*
Y25400D01*
X240193Y26900D02*
X240693Y27400D01*
X244965D01*
X232089Y37463D02*
X232630D01*
X231355Y36729D02*
X232089Y37463D01*
X231355Y30464D02*
Y36729D01*
X226081Y30229D02*
Y36729D01*
X225346Y37463D02*
X226081Y36729D01*
X224756Y37463D02*
X225346D01*
X259193Y44900D02*
X260193Y43900D01*
X259193Y44900D02*
Y48756D01*
X257235Y50714D02*
X259193Y48756D01*
X244965Y12400D02*
X247193D01*
X257235Y50714D02*
Y68588D01*
X246894Y27400D02*
X248894Y29400D01*
X233693Y12900D02*
X234090D01*
X234925Y12065D01*
X237295D01*
X257235Y76147D02*
Y76462D01*
D13*
X134716Y29739D02*
X139354D01*
X116216Y40900D02*
Y44431D01*
X132684Y27900D02*
X134523Y29739D01*
X132684Y31900D02*
X134523Y30061D01*
X37239Y14900D02*
X39739Y12400D01*
X37239Y14900D02*
Y15837D01*
X39794Y12345D02*
X46497D01*
X39739Y12400D02*
X39794Y12345D01*
X57239Y10900D02*
X66239D01*
X56539Y10200D02*
X57239Y10900D01*
X55239Y10200D02*
X56539D01*
X61538Y48400D02*
X69336D01*
X78039Y57103D01*
X101092Y56547D02*
X101239Y56400D01*
X101092Y56547D02*
Y57984D01*
X100841Y58235D02*
X101092Y57984D01*
X51242Y7600D02*
X55239D01*
X46497Y12345D02*
X51242Y7600D01*
X82025Y62375D02*
X86739D01*
X54229Y51391D02*
X54239Y51400D01*
X52248Y51391D02*
X54229D01*
X52239Y51381D02*
X52248Y51391D01*
X59239Y50900D02*
X66239D01*
X71239Y55900D01*
Y60400D01*
X78039Y57103D02*
Y60200D01*
X78239Y60400D01*
X78039Y57103D02*
X78742Y56400D01*
X83739D01*
X84739Y57400D01*
Y59869D01*
X84770Y59900D01*
X47039Y60400D02*
X51211D01*
X60266D02*
X65239D01*
X71239D02*
X75639D01*
X80839Y61189D02*
X82025Y62375D01*
X80839Y60400D02*
Y61189D01*
X36739Y9074D02*
Y11900D01*
Y9074D02*
X37375Y8438D01*
X259185Y26392D02*
X259193Y26400D01*
X259185Y23262D02*
Y26392D01*
X259177Y23254D02*
X259185Y23262D01*
X259177Y23254D02*
X261136Y21295D01*
Y19118D02*
Y21295D01*
Y19118D02*
X261146Y19109D01*
X233546Y10047D02*
X233693Y9900D01*
X232109Y10047D02*
X233546D01*
X230091Y12065D02*
X232109Y10047D01*
X204193Y43900D02*
X207693Y47400D01*
X213693Y47400D02*
Y52800D01*
X213693Y47400D02*
X213693Y47400D01*
X228485Y42900D02*
X228693D01*
X227369Y41784D02*
X228485Y42900D01*
X225140Y41784D02*
X227369D01*
X224756Y41400D02*
X225140Y41784D01*
X204193Y38872D02*
Y43900D01*
X201193Y35872D02*
X204193Y38872D01*
X201193Y44927D02*
Y49600D01*
X206093Y52300D02*
X206193Y52400D01*
X201293Y52300D02*
X206093D01*
X201193Y52200D02*
X201293Y52300D01*
X213593Y55300D02*
X213693Y55400D01*
X204530Y55300D02*
X213593D01*
X203712Y56118D02*
X204530Y55300D01*
X201676Y56118D02*
X203712D01*
X200953Y56841D02*
X201676Y56118D01*
X213693Y52800D02*
X213693Y52800D01*
D15*
X128865Y35719D02*
X132684Y31900D01*
X128865Y35719D02*
Y38282D01*
X128747Y38400D02*
X128865Y38282D01*
X131928Y57907D02*
Y64247D01*
X127588Y68587D02*
X131928Y64247D01*
X126671Y68587D02*
X127588D01*
X121275Y58841D02*
X124216Y55900D01*
X121275Y58841D02*
Y62140D01*
X121094Y52877D02*
Y56809D01*
X116157Y61746D02*
X121094Y56809D01*
X116216Y48368D02*
Y51766D01*
X118716Y54266D01*
Y54660D01*
X118444Y46735D02*
Y50228D01*
Y46735D02*
X120625Y44554D01*
X130921Y56900D02*
X131928Y57907D01*
X129247Y56900D02*
X130921D01*
X120716Y48368D02*
X129247Y56900D01*
X116157Y61746D02*
Y62140D01*
X118444Y50228D02*
X121094Y52877D01*
X120716Y40368D02*
Y44431D01*
X61277Y53661D02*
X61538Y53400D01*
X57946Y53661D02*
X61277D01*
X56239Y55369D02*
X57946Y53661D01*
X40089Y63018D02*
Y64224D01*
X35726Y68588D02*
X40089Y64224D01*
X35320Y68588D02*
X35726D01*
X40089Y63018D02*
X40739Y62369D01*
X31786Y47321D02*
X32739Y46369D01*
X31786Y47321D02*
Y51191D01*
X41756Y57414D02*
X50143D01*
X40739Y58432D02*
X41756Y57414D01*
X48899Y48400D02*
X56739D01*
X47328Y49972D02*
X48899Y48400D01*
X47328Y49972D02*
Y51060D01*
X56214Y55344D02*
X56239Y55369D01*
X52264Y55344D02*
X56214D01*
X52239Y55318D02*
X52264Y55344D01*
X44439Y60400D02*
Y61350D01*
X43420Y62369D02*
X44439Y61350D01*
X40739Y62369D02*
X43420D01*
X50143Y57414D02*
X52239Y55318D01*
X219677Y59916D02*
X243177D01*
X216693Y62900D02*
X219677Y59916D01*
X215127Y62900D02*
X216693D01*
X210148Y67879D02*
X215127Y62900D01*
X260693Y58896D02*
X264118Y62321D01*
X260693Y48900D02*
Y58896D01*
Y48900D02*
X262193Y47400D01*
X243177Y59916D02*
X253193Y49900D01*
Y40400D02*
Y49900D01*
X228693Y38054D02*
X232039Y41400D01*
X228693Y35495D02*
Y38054D01*
X233693Y15900D02*
Y18600D01*
Y7400D02*
X233860Y7567D01*
X237128D01*
X237295Y7735D01*
X253193Y40400D02*
X257193Y36400D01*
X265693Y52479D02*
X266421Y51750D01*
Y42400D02*
Y51750D01*
X262193Y39955D02*
Y47400D01*
X264748Y37400D02*
X266421D01*
X262193Y39955D02*
X264748Y37400D01*
X262693Y34900D02*
X264487Y33105D01*
X265117Y32400D02*
X266421D01*
X264487Y33029D02*
X265117Y32400D01*
X264487Y33029D02*
Y33105D01*
X264118Y62321D02*
X265693D01*
X228693Y31972D02*
X228765Y31900D01*
X228693Y31972D02*
Y35495D01*
X210148Y67879D02*
Y68588D01*
X232039Y41400D02*
X232630D01*
X206193Y64193D02*
Y71798D01*
X210148Y75753D01*
Y76462D01*
X205193Y63193D02*
X206193Y64193D01*
X205193Y57486D02*
Y63193D01*
Y57486D02*
X205779Y56900D01*
X210093D01*
X210893Y57700D01*
X213393D01*
X213693Y58000D01*
D16*
X202274Y62887D02*
Y68588D01*
X201346Y61959D02*
X202274Y62887D01*
X200953Y61959D02*
X201346D01*
D17*
X7204Y68988D02*
D03*
X15078D02*
D03*
Y76862D02*
D03*
X7204D02*
D03*
Y39454D02*
D03*
X15078D02*
D03*
Y47329D02*
D03*
X7204D02*
D03*
X118797Y76461D02*
D03*
X126671D02*
D03*
Y68587D02*
D03*
X118797D02*
D03*
X173758D02*
D03*
X181632D02*
D03*
Y76461D02*
D03*
X173758D02*
D03*
X35320Y76462D02*
D03*
X43194D02*
D03*
Y68588D02*
D03*
X35320D02*
D03*
X90281D02*
D03*
X98155D02*
D03*
Y76462D02*
D03*
X90281D02*
D03*
X202274Y76462D02*
D03*
X210148D02*
D03*
Y68588D02*
D03*
X202274D02*
D03*
X257235D02*
D03*
X265109D02*
D03*
Y76462D02*
D03*
X257235D02*
D03*
D18*
X170216Y55400D02*
D03*
X165216Y29400D02*
D03*
Y25900D02*
D03*
X160216Y25400D02*
D03*
X148716Y10900D02*
D03*
X131216Y41400D02*
D03*
X135216Y16900D02*
D03*
Y24900D02*
D03*
X125216Y37900D02*
D03*
X132716Y47900D02*
D03*
X165216Y32400D02*
D03*
X162716Y17900D02*
D03*
X152716Y61400D02*
D03*
X146216Y54900D02*
D03*
X144716Y46400D02*
D03*
X146716Y39400D02*
D03*
Y43900D02*
D03*
X168216Y37900D02*
D03*
X174216Y46400D02*
D03*
X170216Y26900D02*
D03*
X162216Y29400D02*
D03*
X158716Y32900D02*
D03*
X155716Y29900D02*
D03*
X149716Y23400D02*
D03*
X145216Y16900D02*
D03*
X150716Y31400D02*
D03*
X145716Y26400D02*
D03*
X144716Y31400D02*
D03*
X153216Y40400D02*
D03*
X153716Y46400D02*
D03*
X148716Y49900D02*
D03*
X184716Y72400D02*
D03*
X160716Y44400D02*
D03*
X159216Y56900D02*
D03*
X177716Y63400D02*
D03*
X148716Y35400D02*
D03*
X156216Y58900D02*
D03*
X155216Y35900D02*
D03*
X116216Y31900D02*
D03*
X140216Y50400D02*
D03*
X171216Y63400D02*
D03*
X125216Y47900D02*
D03*
X151216Y18400D02*
D03*
X161716Y35900D02*
D03*
X180716Y52900D02*
D03*
X178216Y27400D02*
D03*
X183216Y63400D02*
D03*
X172216Y12900D02*
D03*
X120216Y14400D02*
D03*
X135216Y35400D02*
D03*
X140216Y60400D02*
D03*
X162716Y46900D02*
D03*
X157716Y44400D02*
D03*
X116216Y40900D02*
D03*
X134716Y29900D02*
D03*
X124216Y55900D02*
D03*
X68239Y23400D02*
D03*
X93239Y40400D02*
D03*
X56239Y22400D02*
D03*
X89739Y41900D02*
D03*
X88739Y45900D02*
D03*
X76239Y33400D02*
D03*
X96339Y60500D02*
D03*
X56839Y15900D02*
D03*
X39739Y12400D02*
D03*
X43239Y9900D02*
D03*
X92239Y46887D02*
D03*
Y62900D02*
D03*
X66239Y10900D02*
D03*
X101239Y56400D02*
D03*
X94739Y54900D02*
D03*
X53239Y31900D02*
D03*
X42739Y42400D02*
D03*
X69239Y26900D02*
D03*
X86739Y62400D02*
D03*
X54239Y51400D02*
D03*
X37739Y46900D02*
D03*
X36160Y44002D02*
D03*
X46239Y32900D02*
D03*
X38739Y40900D02*
D03*
X34254Y46329D02*
D03*
X56239Y36900D02*
D03*
X49739Y43400D02*
D03*
X36239Y56900D02*
D03*
X34739Y58900D02*
D03*
Y54900D02*
D03*
X71239Y35400D02*
D03*
X57739Y40900D02*
D03*
X86739Y54400D02*
D03*
X36739Y11900D02*
D03*
X90739Y15400D02*
D03*
Y30900D02*
D03*
X68739Y43400D02*
D03*
X74739Y15400D02*
D03*
X78739Y47400D02*
D03*
X259193Y26400D02*
D03*
X240193Y7400D02*
D03*
X202693Y31900D02*
D03*
X232693Y24900D02*
D03*
X202693Y15400D02*
D03*
X207693Y40900D02*
D03*
Y35900D02*
D03*
X258193Y13400D02*
D03*
X259693Y11400D02*
D03*
X256693D02*
D03*
Y15400D02*
D03*
X259693D02*
D03*
X251193Y63400D02*
D03*
X255193Y62400D02*
D03*
X248193Y51400D02*
D03*
X221193Y61900D02*
D03*
X222493Y57800D02*
D03*
X244829Y21536D02*
D03*
X233693Y15900D02*
D03*
Y9900D02*
D03*
Y7400D02*
D03*
X257193Y41400D02*
D03*
Y36400D02*
D03*
X249693Y10900D02*
D03*
X256193Y30900D02*
D03*
X252193Y35400D02*
D03*
X262693Y34900D02*
D03*
X260193Y61400D02*
D03*
X253193Y54400D02*
D03*
X252193Y32400D02*
D03*
X248894Y29400D02*
D03*
X228693Y35495D02*
D03*
X217193Y21400D02*
D03*
X228693Y42900D02*
D03*
X228693Y21447D02*
D03*
X233693Y12900D02*
D03*
X206193Y52400D02*
D03*
D19*
X132684Y38400D02*
D03*
X128747D02*
D03*
Y31900D02*
D03*
X132684D02*
D03*
X128747Y27900D02*
D03*
X132684D02*
D03*
X84770Y59900D02*
D03*
X88707D02*
D03*
X46497Y12345D02*
D03*
X50434D02*
D03*
X259177Y23254D02*
D03*
X255240D02*
D03*
D20*
X131125Y9305D02*
D03*
X127188Y61077D02*
D03*
D21*
X182897Y38046D02*
D03*
Y15605D02*
D03*
D22*
X140141Y12416D02*
D03*
Y16746D02*
D03*
X139354Y21077D02*
D03*
X140141Y25408D02*
D03*
X139354Y29739D02*
D03*
X140141Y34069D02*
D03*
X141716Y38400D02*
D03*
X140141Y42731D02*
D03*
D23*
X183783Y21077D02*
D03*
D24*
X116216Y48368D02*
D03*
Y44431D02*
D03*
X174216Y54368D02*
D03*
Y50431D02*
D03*
X120716Y36431D02*
D03*
Y40368D02*
D03*
Y48368D02*
D03*
Y44431D02*
D03*
X40739Y58432D02*
D03*
Y62369D02*
D03*
X52239Y55318D02*
D03*
Y51381D02*
D03*
X56239Y55369D02*
D03*
Y51432D02*
D03*
X32739Y46369D02*
D03*
Y42432D02*
D03*
D25*
X167716Y51100D02*
D03*
X162716D02*
D03*
X157716D02*
D03*
X152716D02*
D03*
Y22700D02*
D03*
X157716D02*
D03*
X162716D02*
D03*
X167716D02*
D03*
D26*
X116157Y62140D02*
D03*
X121275D02*
D03*
X118716Y54660D02*
D03*
D27*
X55239Y7600D02*
D03*
Y10200D02*
D03*
X233693Y21200D02*
D03*
Y18600D02*
D03*
X213693Y58000D02*
D03*
Y52800D02*
D03*
Y55400D02*
D03*
X201193Y52200D02*
D03*
Y49600D02*
D03*
D28*
X93636Y58235D02*
D03*
Y62565D02*
D03*
X100841D02*
D03*
Y58235D02*
D03*
X237295Y7735D02*
D03*
Y12065D02*
D03*
X230091D02*
D03*
Y7735D02*
D03*
D29*
X33754Y62609D02*
D03*
X35723D02*
D03*
X37691D02*
D03*
Y51191D02*
D03*
X35723D02*
D03*
X33754D02*
D03*
X31786D02*
D03*
Y62609D02*
D03*
X261146Y7691D02*
D03*
Y19109D02*
D03*
X259177D02*
D03*
X257209D02*
D03*
X255240D02*
D03*
Y7691D02*
D03*
X257209D02*
D03*
X259177D02*
D03*
D30*
X34739Y56900D02*
D03*
D31*
X41422Y51060D02*
D03*
X47328Y51060D02*
D03*
X213598Y38400D02*
D03*
X207693Y38400D02*
D03*
D32*
X47039Y60400D02*
D03*
X44439D02*
D03*
X80839D02*
D03*
X75639D02*
D03*
X78239D02*
D03*
D33*
X33301Y7963D02*
D03*
X37239D02*
D03*
X41176D02*
D03*
Y15837D02*
D03*
X37239D02*
D03*
X33301D02*
D03*
D34*
X65239Y60400D02*
D03*
X71239D02*
D03*
X207693Y47400D02*
D03*
X213693D02*
D03*
D35*
X60266Y60400D02*
D03*
X51211D02*
D03*
D36*
X61538Y8400D02*
D03*
Y13400D02*
D03*
Y18400D02*
D03*
Y23400D02*
D03*
Y28400D02*
D03*
Y33400D02*
D03*
Y38400D02*
D03*
Y43400D02*
D03*
Y48400D02*
D03*
Y53400D02*
D03*
X98939Y8400D02*
D03*
Y13400D02*
D03*
Y18400D02*
D03*
Y23400D02*
D03*
Y28400D02*
D03*
Y33400D02*
D03*
Y38400D02*
D03*
Y43400D02*
D03*
Y48400D02*
D03*
Y53400D02*
D03*
D37*
X238693Y22900D02*
D03*
Y16900D02*
D03*
X228765Y31900D02*
D03*
Y25900D02*
D03*
D38*
X244193Y47400D02*
D03*
X250193D02*
D03*
X256193D02*
D03*
X262193D02*
D03*
D39*
X258193Y13400D02*
D03*
D40*
X265693Y52479D02*
D03*
Y62321D02*
D03*
D41*
X200953Y56841D02*
D03*
Y61959D02*
D03*
X208433Y59400D02*
D03*
D42*
X201193Y35872D02*
D03*
Y44927D02*
D03*
D43*
X266421Y42400D02*
D03*
Y37400D02*
D03*
Y32400D02*
D03*
Y27400D02*
D03*
X244965Y42400D02*
D03*
Y37400D02*
D03*
Y32400D02*
D03*
Y27400D02*
D03*
X266421Y22400D02*
D03*
Y17400D02*
D03*
Y12400D02*
D03*
Y7400D02*
D03*
X244965Y22400D02*
D03*
Y17400D02*
D03*
Y12400D02*
D03*
Y7400D02*
D03*
D44*
X232630Y45337D02*
D03*
Y41400D02*
D03*
Y37463D02*
D03*
X224756D02*
D03*
Y41400D02*
D03*
Y45337D02*
D03*
D45*
X244829Y21536D02*
Y22536D01*
X236343Y22900D02*
X238693D01*
X234643Y21200D02*
X236343Y22900D01*
X233693Y21200D02*
X234643D01*
X238693Y22900D02*
X239028Y22565D01*
X244800D01*
X244829Y22536D01*
X228940Y21200D02*
X233693D01*
X228693Y21447D02*
X228940Y21200D01*
M02*
