G04*
G04 #@! TF.GenerationSoftware,Altium Limited,Altium Designer,19.1.5 (86)*
G04*
G04 Layer_Color=16711935*
%FSLAX25Y25*%
%MOIN*%
G70*
G01*
G75*
G04:AMPARAMS|DCode=25|XSize=47mil|YSize=19mil|CornerRadius=4.75mil|HoleSize=0mil|Usage=FLASHONLY|Rotation=90.000|XOffset=0mil|YOffset=0mil|HoleType=Round|Shape=RoundedRectangle|*
%AMROUNDEDRECTD25*
21,1,0.04700,0.00950,0,0,90.0*
21,1,0.03750,0.01900,0,0,90.0*
1,1,0.00950,0.00475,0.01875*
1,1,0.00950,0.00475,-0.01875*
1,1,0.00950,-0.00475,-0.01875*
1,1,0.00950,-0.00475,0.01875*
%
%ADD25ROUNDEDRECTD25*%
%ADD48C,0.00800*%
%ADD52O,0.05518X0.06935*%
G04:AMPARAMS|DCode=53|XSize=27.62mil|YSize=27.62mil|CornerRadius=4.36mil|HoleSize=0mil|Usage=FLASHONLY|Rotation=180.000|XOffset=0mil|YOffset=0mil|HoleType=Round|Shape=RoundedRectangle|*
%AMROUNDEDRECTD53*
21,1,0.02762,0.01890,0,0,180.0*
21,1,0.01890,0.02762,0,0,180.0*
1,1,0.00872,-0.00945,0.00945*
1,1,0.00872,0.00945,0.00945*
1,1,0.00872,0.00945,-0.00945*
1,1,0.00872,-0.00945,-0.00945*
%
%ADD53ROUNDEDRECTD53*%
%ADD54R,0.07880X0.05912*%
%ADD55R,0.05912X0.05518*%
%ADD56R,0.06306X0.03550*%
%ADD57R,0.04140X0.04337*%
G04:AMPARAMS|DCode=58|XSize=27.62mil|YSize=27.62mil|CornerRadius=4.36mil|HoleSize=0mil|Usage=FLASHONLY|Rotation=270.000|XOffset=0mil|YOffset=0mil|HoleType=Round|Shape=RoundedRectangle|*
%AMROUNDEDRECTD58*
21,1,0.02762,0.01890,0,0,270.0*
21,1,0.01890,0.02762,0,0,270.0*
1,1,0.00872,-0.00945,-0.00945*
1,1,0.00872,-0.00945,0.00945*
1,1,0.00872,0.00945,0.00945*
1,1,0.00872,0.00945,-0.00945*
%
%ADD58ROUNDEDRECTD58*%
G04:AMPARAMS|DCode=59|XSize=31.56mil|YSize=39.43mil|CornerRadius=8.89mil|HoleSize=0mil|Usage=FLASHONLY|Rotation=180.000|XOffset=0mil|YOffset=0mil|HoleType=Round|Shape=RoundedRectangle|*
%AMROUNDEDRECTD59*
21,1,0.03156,0.02165,0,0,180.0*
21,1,0.01378,0.03943,0,0,180.0*
1,1,0.01778,-0.00689,0.01083*
1,1,0.01778,0.00689,0.01083*
1,1,0.01778,0.00689,-0.01083*
1,1,0.01778,-0.00689,-0.01083*
%
%ADD59ROUNDEDRECTD59*%
G04:AMPARAMS|DCode=60|XSize=20mil|YSize=39mil|CornerRadius=4.4mil|HoleSize=0mil|Usage=FLASHONLY|Rotation=270.000|XOffset=0mil|YOffset=0mil|HoleType=Round|Shape=RoundedRectangle|*
%AMROUNDEDRECTD60*
21,1,0.02000,0.03020,0,0,270.0*
21,1,0.01120,0.03900,0,0,270.0*
1,1,0.00880,-0.01510,-0.00560*
1,1,0.00880,-0.01510,0.00560*
1,1,0.00880,0.01510,0.00560*
1,1,0.00880,0.01510,-0.00560*
%
%ADD60ROUNDEDRECTD60*%
G04:AMPARAMS|DCode=61|XSize=31.56mil|YSize=31.56mil|CornerRadius=6.13mil|HoleSize=0mil|Usage=FLASHONLY|Rotation=180.000|XOffset=0mil|YOffset=0mil|HoleType=Round|Shape=RoundedRectangle|*
%AMROUNDEDRECTD61*
21,1,0.03156,0.01929,0,0,180.0*
21,1,0.01929,0.03156,0,0,180.0*
1,1,0.01227,-0.00965,0.00965*
1,1,0.01227,0.00965,0.00965*
1,1,0.01227,0.00965,-0.00965*
1,1,0.01227,-0.00965,-0.00965*
%
%ADD61ROUNDEDRECTD61*%
G04:AMPARAMS|DCode=62|XSize=33.53mil|YSize=15.81mil|CornerRadius=4.95mil|HoleSize=0mil|Usage=FLASHONLY|Rotation=270.000|XOffset=0mil|YOffset=0mil|HoleType=Round|Shape=RoundedRectangle|*
%AMROUNDEDRECTD62*
21,1,0.03353,0.00591,0,0,270.0*
21,1,0.02362,0.01581,0,0,270.0*
1,1,0.00991,-0.00295,-0.01181*
1,1,0.00991,-0.00295,0.01181*
1,1,0.00991,0.00295,0.01181*
1,1,0.00991,0.00295,-0.01181*
%
%ADD62ROUNDEDRECTD62*%
G04:AMPARAMS|DCode=63|XSize=61.09mil|YSize=72.9mil|CornerRadius=7.71mil|HoleSize=0mil|Usage=FLASHONLY|Rotation=180.000|XOffset=0mil|YOffset=0mil|HoleType=Round|Shape=RoundedRectangle|*
%AMROUNDEDRECTD63*
21,1,0.06109,0.05748,0,0,180.0*
21,1,0.04567,0.07290,0,0,180.0*
1,1,0.01542,-0.02284,0.02874*
1,1,0.01542,0.02284,0.02874*
1,1,0.01542,0.02284,-0.02874*
1,1,0.01542,-0.02284,-0.02874*
%
%ADD63ROUNDEDRECTD63*%
G04:AMPARAMS|DCode=64|XSize=47.31mil|YSize=98.49mil|CornerRadius=19.32mil|HoleSize=0mil|Usage=FLASHONLY|Rotation=0.000|XOffset=0mil|YOffset=0mil|HoleType=Round|Shape=RoundedRectangle|*
%AMROUNDEDRECTD64*
21,1,0.04731,0.05984,0,0,0.0*
21,1,0.00866,0.09849,0,0,0.0*
1,1,0.03865,0.00433,-0.02992*
1,1,0.03865,-0.00433,-0.02992*
1,1,0.03865,-0.00433,0.02992*
1,1,0.03865,0.00433,0.02992*
%
%ADD64ROUNDEDRECTD64*%
G04:AMPARAMS|DCode=65|XSize=20mil|YSize=39mil|CornerRadius=4.4mil|HoleSize=0mil|Usage=FLASHONLY|Rotation=0.000|XOffset=0mil|YOffset=0mil|HoleType=Round|Shape=RoundedRectangle|*
%AMROUNDEDRECTD65*
21,1,0.02000,0.03020,0,0,0.0*
21,1,0.01120,0.03900,0,0,0.0*
1,1,0.00880,0.00560,-0.01510*
1,1,0.00880,-0.00560,-0.01510*
1,1,0.00880,-0.00560,0.01510*
1,1,0.00880,0.00560,0.01510*
%
%ADD65ROUNDEDRECTD65*%
%ADD66R,0.02368X0.03550*%
G04:AMPARAMS|DCode=67|XSize=39mil|YSize=39mil|CornerRadius=6.38mil|HoleSize=0mil|Usage=FLASHONLY|Rotation=0.000|XOffset=0mil|YOffset=0mil|HoleType=Round|Shape=RoundedRectangle|*
%AMROUNDEDRECTD67*
21,1,0.03900,0.02625,0,0,0.0*
21,1,0.02625,0.03900,0,0,0.0*
1,1,0.01275,0.01313,-0.01313*
1,1,0.01275,-0.01313,-0.01313*
1,1,0.01275,-0.01313,0.01313*
1,1,0.01275,0.01313,0.01313*
%
%ADD67ROUNDEDRECTD67*%
G04:AMPARAMS|DCode=68|XSize=39.43mil|YSize=35.5mil|CornerRadius=5.94mil|HoleSize=0mil|Usage=FLASHONLY|Rotation=180.000|XOffset=0mil|YOffset=0mil|HoleType=Round|Shape=RoundedRectangle|*
%AMROUNDEDRECTD68*
21,1,0.03943,0.02362,0,0,180.0*
21,1,0.02756,0.03550,0,0,180.0*
1,1,0.01187,-0.01378,0.01181*
1,1,0.01187,0.01378,0.01181*
1,1,0.01187,0.01378,-0.01181*
1,1,0.01187,-0.01378,-0.01181*
%
%ADD68ROUNDEDRECTD68*%
%ADD69O,0.06306X0.02762*%
G04:AMPARAMS|DCode=70|XSize=39mil|YSize=39mil|CornerRadius=5.5mil|HoleSize=0mil|Usage=FLASHONLY|Rotation=180.000|XOffset=0mil|YOffset=0mil|HoleType=Round|Shape=RoundedRectangle|*
%AMROUNDEDRECTD70*
21,1,0.03900,0.02800,0,0,180.0*
21,1,0.02800,0.03900,0,0,180.0*
1,1,0.01100,-0.01400,0.01400*
1,1,0.01100,0.01400,0.01400*
1,1,0.01100,0.01400,-0.01400*
1,1,0.01100,-0.01400,-0.01400*
%
%ADD70ROUNDEDRECTD70*%
G04:AMPARAMS|DCode=71|XSize=39mil|YSize=39mil|CornerRadius=5.5mil|HoleSize=0mil|Usage=FLASHONLY|Rotation=270.000|XOffset=0mil|YOffset=0mil|HoleType=Round|Shape=RoundedRectangle|*
%AMROUNDEDRECTD71*
21,1,0.03900,0.02800,0,0,270.0*
21,1,0.02800,0.03900,0,0,270.0*
1,1,0.01100,-0.01400,-0.01400*
1,1,0.01100,-0.01400,0.01400*
1,1,0.01100,0.01400,0.01400*
1,1,0.01100,0.01400,-0.01400*
%
%ADD71ROUNDEDRECTD71*%
G04:AMPARAMS|DCode=72|XSize=61.09mil|YSize=72.9mil|CornerRadius=4.85mil|HoleSize=0mil|Usage=FLASHONLY|Rotation=0.000|XOffset=0mil|YOffset=0mil|HoleType=Round|Shape=RoundedRectangle|*
%AMROUNDEDRECTD72*
21,1,0.06109,0.06319,0,0,0.0*
21,1,0.05138,0.07290,0,0,0.0*
1,1,0.00971,0.02569,-0.03159*
1,1,0.00971,-0.02569,-0.03159*
1,1,0.00971,-0.02569,0.03159*
1,1,0.00971,0.02569,0.03159*
%
%ADD72ROUNDEDRECTD72*%
G04:AMPARAMS|DCode=73|XSize=43.37mil|YSize=74.87mil|CornerRadius=6.92mil|HoleSize=0mil|Usage=FLASHONLY|Rotation=270.000|XOffset=0mil|YOffset=0mil|HoleType=Round|Shape=RoundedRectangle|*
%AMROUNDEDRECTD73*
21,1,0.04337,0.06102,0,0,270.0*
21,1,0.02953,0.07487,0,0,270.0*
1,1,0.01384,-0.03051,-0.01476*
1,1,0.01384,-0.03051,0.01476*
1,1,0.01384,0.03051,0.01476*
1,1,0.01384,0.03051,-0.01476*
%
%ADD73ROUNDEDRECTD73*%
G04:AMPARAMS|DCode=74|XSize=31.56mil|YSize=39.43mil|CornerRadius=8.89mil|HoleSize=0mil|Usage=FLASHONLY|Rotation=270.000|XOffset=0mil|YOffset=0mil|HoleType=Round|Shape=RoundedRectangle|*
%AMROUNDEDRECTD74*
21,1,0.03156,0.02165,0,0,270.0*
21,1,0.01378,0.03943,0,0,270.0*
1,1,0.01778,-0.01083,-0.00689*
1,1,0.01778,-0.01083,0.00689*
1,1,0.01778,0.01083,0.00689*
1,1,0.01778,0.01083,-0.00689*
%
%ADD74ROUNDEDRECTD74*%
G04:AMPARAMS|DCode=75|XSize=39.43mil|YSize=35.5mil|CornerRadius=5.94mil|HoleSize=0mil|Usage=FLASHONLY|Rotation=90.000|XOffset=0mil|YOffset=0mil|HoleType=Round|Shape=RoundedRectangle|*
%AMROUNDEDRECTD75*
21,1,0.03943,0.02362,0,0,90.0*
21,1,0.02756,0.03550,0,0,90.0*
1,1,0.01187,0.01181,0.01378*
1,1,0.01187,0.01181,-0.01378*
1,1,0.01187,-0.01181,-0.01378*
1,1,0.01187,-0.01181,0.01378*
%
%ADD75ROUNDEDRECTD75*%
%ADD76O,0.06109X0.02762*%
%ADD77R,0.03550X0.02368*%
D25*
X167716Y51100D02*
D03*
X162716D02*
D03*
X157716D02*
D03*
X152716D02*
D03*
Y22700D02*
D03*
X157716D02*
D03*
X162716D02*
D03*
X167716D02*
D03*
D48*
X120816Y16300D02*
X122716Y20700D01*
X122516Y21300D02*
X124816Y29300D01*
X122216Y17400D02*
X125816Y21000D01*
X122516Y21300D02*
X125816Y21000D01*
X122216Y17400D02*
X126216Y17100D01*
X122716Y20700D02*
X126216Y17100D01*
X124816Y29300D02*
X127316Y16300D01*
X81839Y28800D02*
X84339Y15800D01*
X79739Y20200D02*
X83239Y16600D01*
X79239Y16900D02*
X83239Y16600D01*
X79539Y20800D02*
X82839Y20500D01*
X79239Y16900D02*
X82839Y20500D01*
X79539Y20800D02*
X81839Y28800D01*
X77839Y15800D02*
X79739Y20200D01*
X206793Y13300D02*
X208693Y17700D01*
X208493Y18300D02*
X210793Y26300D01*
X208193Y14400D02*
X211793Y18000D01*
X208493Y18300D02*
X211793Y18000D01*
X208193Y14400D02*
X212193Y14100D01*
X208693Y17700D02*
X212193Y14100D01*
X210793Y26300D02*
X213293Y13300D01*
D52*
X7204Y68988D02*
D03*
X15078D02*
D03*
Y76862D02*
D03*
X7204D02*
D03*
Y39454D02*
D03*
X15078D02*
D03*
Y47329D02*
D03*
X7204D02*
D03*
X118797Y76461D02*
D03*
X126671D02*
D03*
Y68587D02*
D03*
X118797D02*
D03*
X173758D02*
D03*
X181632D02*
D03*
Y76461D02*
D03*
X173758D02*
D03*
X35320Y76462D02*
D03*
X43194D02*
D03*
Y68588D02*
D03*
X35320D02*
D03*
X90281D02*
D03*
X98155D02*
D03*
Y76462D02*
D03*
X90281D02*
D03*
X202274Y76462D02*
D03*
X210148D02*
D03*
Y68588D02*
D03*
X202274D02*
D03*
X257235D02*
D03*
X265109D02*
D03*
Y76462D02*
D03*
X257235D02*
D03*
D53*
X132684Y38400D02*
D03*
X128747D02*
D03*
Y31900D02*
D03*
X132684D02*
D03*
X128747Y27900D02*
D03*
X132684D02*
D03*
X84770Y59900D02*
D03*
X88707D02*
D03*
X46497Y12345D02*
D03*
X50434D02*
D03*
D54*
X131125Y9305D02*
D03*
X127188Y61077D02*
D03*
D55*
X182897Y38046D02*
D03*
Y15605D02*
D03*
D56*
X140141Y12416D02*
D03*
Y16746D02*
D03*
X139354Y21077D02*
D03*
X140141Y25408D02*
D03*
X139354Y29739D02*
D03*
X140141Y34069D02*
D03*
X141716Y38400D02*
D03*
X140141Y42731D02*
D03*
D57*
X183783Y21077D02*
D03*
D58*
X116216Y48368D02*
D03*
Y44431D02*
D03*
X174216Y54368D02*
D03*
Y50431D02*
D03*
X120716Y36431D02*
D03*
Y40368D02*
D03*
Y48368D02*
D03*
Y44431D02*
D03*
X40739Y58432D02*
D03*
Y62369D02*
D03*
X52239Y55318D02*
D03*
Y51381D02*
D03*
X56239Y55369D02*
D03*
Y51432D02*
D03*
X32739Y46369D02*
D03*
Y42432D02*
D03*
D59*
X116157Y62140D02*
D03*
X121275D02*
D03*
X118716Y54660D02*
D03*
D60*
X55239Y7600D02*
D03*
Y10200D02*
D03*
X233693Y21200D02*
D03*
Y18600D02*
D03*
X213693Y58000D02*
D03*
Y52800D02*
D03*
Y55400D02*
D03*
X201193Y52200D02*
D03*
Y49600D02*
D03*
D61*
X93636Y58235D02*
D03*
Y62565D02*
D03*
X100841D02*
D03*
Y58235D02*
D03*
X237295Y7735D02*
D03*
Y12065D02*
D03*
X230091D02*
D03*
Y7735D02*
D03*
D62*
X33754Y62609D02*
D03*
X35723D02*
D03*
X37691D02*
D03*
Y51191D02*
D03*
X35723D02*
D03*
X33754D02*
D03*
X31786D02*
D03*
Y62609D02*
D03*
X261146Y7691D02*
D03*
Y19109D02*
D03*
X259177D02*
D03*
X257209D02*
D03*
X255240D02*
D03*
Y7691D02*
D03*
X257209D02*
D03*
X259177D02*
D03*
D63*
X34739Y56900D02*
D03*
D64*
X41422Y51060D02*
D03*
X47328Y51060D02*
D03*
X213598Y38400D02*
D03*
X207693Y38400D02*
D03*
D65*
X47039Y60400D02*
D03*
X44439D02*
D03*
X80839D02*
D03*
X75639D02*
D03*
X78239D02*
D03*
D66*
X33301Y7963D02*
D03*
X37239D02*
D03*
X41176D02*
D03*
Y15837D02*
D03*
X37239D02*
D03*
X33301D02*
D03*
D67*
X65239Y60400D02*
D03*
X71239D02*
D03*
X207693Y47400D02*
D03*
X213693D02*
D03*
D68*
X60266Y60400D02*
D03*
X51211D02*
D03*
D69*
X61538Y8400D02*
D03*
Y13400D02*
D03*
Y18400D02*
D03*
Y23400D02*
D03*
Y28400D02*
D03*
Y33400D02*
D03*
Y38400D02*
D03*
Y43400D02*
D03*
Y48400D02*
D03*
Y53400D02*
D03*
X98939Y8400D02*
D03*
Y13400D02*
D03*
Y18400D02*
D03*
Y23400D02*
D03*
Y28400D02*
D03*
Y33400D02*
D03*
Y38400D02*
D03*
Y43400D02*
D03*
Y48400D02*
D03*
Y53400D02*
D03*
D70*
X260193Y23900D02*
D03*
X254193D02*
D03*
X244193Y47400D02*
D03*
X250193D02*
D03*
X256193D02*
D03*
X262193D02*
D03*
D71*
X238693Y22900D02*
D03*
Y16900D02*
D03*
X228765Y31900D02*
D03*
Y25900D02*
D03*
D72*
X258193Y13400D02*
D03*
D73*
X265693Y52479D02*
D03*
Y62321D02*
D03*
D74*
X200953Y56841D02*
D03*
Y61959D02*
D03*
X208433Y59400D02*
D03*
D75*
X201193Y35872D02*
D03*
Y44927D02*
D03*
D76*
X266421Y42400D02*
D03*
Y37400D02*
D03*
Y32400D02*
D03*
Y27400D02*
D03*
X244965Y42400D02*
D03*
Y37400D02*
D03*
Y32400D02*
D03*
Y27400D02*
D03*
X266421Y22400D02*
D03*
Y17400D02*
D03*
Y12400D02*
D03*
Y7400D02*
D03*
X244965Y22400D02*
D03*
Y17400D02*
D03*
Y12400D02*
D03*
Y7400D02*
D03*
D77*
X232630Y45337D02*
D03*
Y41400D02*
D03*
Y37463D02*
D03*
X224756D02*
D03*
Y41400D02*
D03*
Y45337D02*
D03*
M02*
