G04*
G04 #@! TF.GenerationSoftware,Altium Limited,Altium Designer,19.1.5 (86)*
G04*
G04 Layer_Physical_Order=1*
G04 Layer_Color=255*
%FSLAX25Y25*%
%MOIN*%
G70*
G01*
G75*
%ADD10P,0.08523X8X337.5*%
%ADD11C,0.02000*%
%ADD12C,0.00500*%
%ADD13C,0.01200*%
%ADD14C,0.01600*%
%ADD15C,0.01000*%
%ADD16C,0.02500*%
%ADD17O,0.05118X0.06535*%
%ADD18C,0.01968*%
G36*
X185935Y6019D02*
X114497D01*
Y34065D01*
X114896Y34190D01*
X114997Y34198D01*
X115067Y34133D01*
X115134Y34032D01*
X115284Y33932D01*
X115416Y33810D01*
X123186Y29044D01*
Y21900D01*
X123303Y21315D01*
X123634Y20819D01*
X134634Y9819D01*
X135131Y9487D01*
X135716Y9370D01*
X148716D01*
X149301Y9487D01*
X149797Y9819D01*
X150129Y10315D01*
X150245Y10900D01*
X150129Y11485D01*
X149797Y11981D01*
X149301Y12313D01*
X148716Y12429D01*
X136349D01*
X126245Y22533D01*
Y28370D01*
X134716D01*
X135301Y28487D01*
X135797Y28819D01*
X136129Y29315D01*
X136245Y29900D01*
X136129Y30485D01*
X135797Y30981D01*
X135301Y31313D01*
X134716Y31429D01*
X125147D01*
X117745Y35970D01*
Y40900D01*
Y52807D01*
X118207Y52998D01*
X120808Y50397D01*
X123946D01*
X127083Y53535D01*
Y56672D01*
X123946Y59809D01*
X120808D01*
X118207Y57208D01*
X117745Y57400D01*
Y59266D01*
X119717Y61238D01*
X120049Y61734D01*
X120165Y62320D01*
Y65134D01*
X120340Y65207D01*
X120979Y65697D01*
X121469Y66336D01*
X121777Y67080D01*
X121882Y67879D01*
Y69296D01*
X121777Y70095D01*
X121469Y70839D01*
X120979Y71478D01*
X120340Y71968D01*
X119596Y72277D01*
X118797Y72382D01*
X117999Y72277D01*
X117254Y71968D01*
X116615Y71478D01*
X116125Y70839D01*
X115817Y70095D01*
X115712Y69296D01*
Y67879D01*
X115817Y67080D01*
X116125Y66336D01*
X116615Y65697D01*
X117106Y65320D01*
Y62953D01*
X115134Y60981D01*
X114997Y60775D01*
X114497Y60927D01*
Y80765D01*
X130874Y80765D01*
Y70164D01*
X130879Y70139D01*
X130875Y70113D01*
X130904Y69541D01*
X130922Y69468D01*
X130922Y69392D01*
X131146Y68269D01*
X131184Y68176D01*
X131204Y68078D01*
X131642Y67020D01*
X131698Y66936D01*
X131736Y66844D01*
X132372Y65892D01*
X132443Y65821D01*
X132499Y65737D01*
X133309Y64927D01*
X133392Y64872D01*
X133463Y64801D01*
X134415Y64164D01*
X134508Y64126D01*
X134592Y64070D01*
X135650Y63632D01*
X135748Y63612D01*
X135841Y63574D01*
X136964Y63350D01*
X137039Y63350D01*
X137113Y63332D01*
X137685Y63304D01*
X137710Y63307D01*
X137735Y63302D01*
X162696D01*
X162721Y63307D01*
X162746Y63304D01*
X163319Y63332D01*
X163392Y63350D01*
X163468Y63350D01*
X164591Y63574D01*
X164683Y63612D01*
X164782Y63632D01*
X165840Y64070D01*
X165923Y64126D01*
X166016Y64165D01*
X166968Y64801D01*
X167039Y64872D01*
X167123Y64928D01*
X167932Y65737D01*
X167988Y65821D01*
X168059Y65892D01*
X168695Y66844D01*
X168734Y66936D01*
X168790Y67020D01*
X169228Y68078D01*
X169247Y68176D01*
X169286Y68269D01*
X169509Y69392D01*
X169509Y69468D01*
X169528Y69541D01*
X169556Y70114D01*
X169552Y70139D01*
X169557Y70164D01*
X169557Y80765D01*
X185935D01*
Y6019D01*
D02*
G37*
G36*
X47397Y73645D02*
X46935Y73454D01*
X45958Y74431D01*
X46174Y74954D01*
X46279Y75753D01*
Y77170D01*
X46174Y77969D01*
X45866Y78713D01*
X45376Y79352D01*
X44737Y79842D01*
X43992Y80151D01*
X43194Y80256D01*
X42395Y80151D01*
X41651Y79842D01*
X41012Y79352D01*
X40522Y78713D01*
X40214Y77969D01*
X40108Y77170D01*
Y75753D01*
X40214Y74954D01*
X40522Y74210D01*
X41012Y73571D01*
X41651Y73081D01*
X42395Y72773D01*
Y72277D01*
X41651Y71968D01*
X41012Y71478D01*
X40522Y70839D01*
X40214Y70095D01*
X40108Y69296D01*
Y67879D01*
X40214Y67080D01*
X40522Y66336D01*
X41012Y65697D01*
X41651Y65207D01*
X42395Y64899D01*
X42429Y64894D01*
Y55445D01*
X42487Y55152D01*
X42653Y54904D01*
X56297Y41260D01*
X56225Y40900D01*
X56340Y40321D01*
X56669Y39830D01*
X57160Y39502D01*
X57739Y39387D01*
X58318Y39502D01*
X58809Y39830D01*
X59137Y40321D01*
X59252Y40900D01*
X59137Y41479D01*
X58809Y41970D01*
X58318Y42298D01*
X57739Y42413D01*
X57378Y42342D01*
X43959Y55761D01*
Y64894D01*
X43992Y64899D01*
X44737Y65207D01*
X45376Y65697D01*
X45632Y66032D01*
X46050Y66073D01*
X46258Y66026D01*
X50630Y61654D01*
X50961Y61433D01*
X51351Y61355D01*
X85651D01*
X85668Y61330D01*
X86159Y61002D01*
X86739Y60887D01*
X87318Y61002D01*
X87809Y61330D01*
X88137Y61821D01*
X88252Y62400D01*
X88137Y62979D01*
X87809Y63470D01*
X87318Y63798D01*
X86739Y63913D01*
X86159Y63798D01*
X85668Y63470D01*
X85618Y63395D01*
X82038D01*
X81939Y63895D01*
X82363Y64070D01*
X82446Y64126D01*
X82539Y64165D01*
X83491Y64801D01*
X83562Y64872D01*
X83645Y64928D01*
X84455Y65737D01*
X84511Y65821D01*
X84582Y65892D01*
X85218Y66844D01*
X85257Y66937D01*
X85312Y67020D01*
X85751Y68078D01*
X85770Y68177D01*
X85809Y68269D01*
X86032Y69392D01*
X86032Y69468D01*
X86051Y69541D01*
X86079Y70114D01*
X86075Y70139D01*
X86080Y70164D01*
X86080Y80765D01*
X102458Y80765D01*
Y57972D01*
X101958Y57705D01*
X101818Y57798D01*
X101239Y57913D01*
X100660Y57798D01*
X100169Y57470D01*
X99840Y56979D01*
X99725Y56400D01*
X99840Y55821D01*
X100117Y55407D01*
Y45365D01*
X77774Y23022D01*
X70239D01*
X69809Y22936D01*
X69446Y22693D01*
X69446Y22693D01*
X65446Y18693D01*
X65202Y18329D01*
X65117Y17900D01*
X65117Y17900D01*
Y11893D01*
X64841Y11479D01*
X64725Y10900D01*
X64841Y10321D01*
X65168Y9830D01*
X65659Y9502D01*
X66239Y9387D01*
X66818Y9502D01*
X67309Y9830D01*
X67637Y10321D01*
X67752Y10900D01*
X67637Y11479D01*
X67360Y11893D01*
Y17435D01*
X70703Y20778D01*
X78239D01*
X78239Y20778D01*
X78668Y20864D01*
X79032Y21107D01*
X101958Y44033D01*
X102252Y43971D01*
X102458Y43845D01*
Y6020D01*
X50954Y6019D01*
X50493Y6177D01*
X50453Y6579D01*
X50410Y6723D01*
X50380Y6870D01*
X50072Y7613D01*
X49851Y7944D01*
X49282Y8513D01*
X48952Y8734D01*
X48208Y9042D01*
X47818Y9119D01*
X47014D01*
X46623Y9042D01*
X45880Y8734D01*
X45549Y8513D01*
X44980Y7944D01*
X44759Y7613D01*
X44451Y6870D01*
X44422Y6723D01*
X44379Y6579D01*
X44339Y6177D01*
X43877Y6020D01*
X31020Y6020D01*
X31019Y17681D01*
X43878Y17681D01*
X43879Y17673D01*
X43922Y17530D01*
X43951Y17383D01*
X44259Y16640D01*
X44480Y16309D01*
X44764Y16025D01*
X44557Y15526D01*
X41539D01*
X41031Y15425D01*
X40601Y15137D01*
X39288Y13824D01*
X39160Y13798D01*
X38669Y13470D01*
X38340Y12979D01*
X38225Y12400D01*
X38340Y11821D01*
X38669Y11330D01*
X39160Y11002D01*
X39739Y10887D01*
X40318Y11002D01*
X40809Y11330D01*
X41137Y11821D01*
X41162Y11949D01*
X42088Y12875D01*
X48346D01*
X48853Y12975D01*
X49283Y13263D01*
X51715Y15695D01*
X52003Y16125D01*
X52103Y16632D01*
Y22304D01*
X52003Y22811D01*
X51715Y23241D01*
X49395Y25562D01*
X48965Y25849D01*
X48458Y25950D01*
X33425D01*
X33125Y26249D01*
Y27025D01*
X33125Y27025D01*
Y44745D01*
X33626Y44964D01*
X33675Y44931D01*
X34254Y44816D01*
X34340Y44833D01*
X34425Y44782D01*
X34725Y44399D01*
X34646Y44002D01*
X34761Y43423D01*
X35089Y42932D01*
X35580Y42604D01*
X36160Y42489D01*
X36739Y42604D01*
X37230Y42932D01*
X37501Y43337D01*
X38044Y43501D01*
X53174Y28371D01*
Y15517D01*
X49422Y11765D01*
X44589D01*
X44296Y11706D01*
X44048Y11541D01*
X44048Y11541D01*
X43807Y11300D01*
X43239Y11413D01*
X42660Y11298D01*
X42169Y10970D01*
X41840Y10479D01*
X41725Y9900D01*
X41840Y9321D01*
X42169Y8830D01*
X42660Y8502D01*
X43239Y8387D01*
X43818Y8502D01*
X44309Y8830D01*
X44637Y9321D01*
X44752Y9900D01*
X45155Y10235D01*
X49739D01*
X50031Y10294D01*
X50279Y10459D01*
X54479Y14659D01*
X54645Y14907D01*
X54703Y15200D01*
X54703Y15200D01*
Y27923D01*
X74040D01*
X74332Y27981D01*
X74581Y28147D01*
X91878Y45445D01*
X92239Y45373D01*
X92818Y45489D01*
X93309Y45817D01*
X93637Y46308D01*
X93752Y46887D01*
X93637Y47466D01*
X93309Y47957D01*
X93003Y48161D01*
Y51900D01*
X93003Y51900D01*
X92945Y52193D01*
X92779Y52441D01*
X92779Y52441D01*
X92268Y52952D01*
Y56848D01*
X94779Y59359D01*
X94945Y59607D01*
X95003Y59900D01*
Y66086D01*
X95451Y66312D01*
X95503Y66309D01*
X95973Y65697D01*
X96612Y65207D01*
X97356Y64899D01*
X97390Y64894D01*
Y58633D01*
X95099Y56342D01*
X94739Y56413D01*
X94160Y56298D01*
X93669Y55970D01*
X93340Y55479D01*
X93225Y54900D01*
X93340Y54321D01*
X93669Y53830D01*
X94160Y53502D01*
X94739Y53387D01*
X94978Y53434D01*
X95374Y53087D01*
Y46117D01*
X75188Y25931D01*
X66104D01*
X65812Y25872D01*
X65564Y25706D01*
X57199Y17342D01*
X56839Y17413D01*
X56260Y17298D01*
X55769Y16970D01*
X55440Y16479D01*
X55325Y15900D01*
X55440Y15321D01*
X55769Y14830D01*
X56260Y14502D01*
X56839Y14387D01*
X57418Y14502D01*
X57909Y14830D01*
X58237Y15321D01*
X58352Y15900D01*
X58280Y16260D01*
X66421Y24401D01*
X75504D01*
X75797Y24459D01*
X76045Y24625D01*
X96679Y45259D01*
X96679Y45259D01*
X96845Y45507D01*
X96903Y45800D01*
X96903Y45800D01*
Y53500D01*
X96845Y53793D01*
X96679Y54041D01*
X96180Y54540D01*
X96252Y54900D01*
X96180Y55260D01*
X98695Y57775D01*
X98861Y58023D01*
X98919Y58316D01*
Y64894D01*
X98953Y64899D01*
X99697Y65207D01*
X100336Y65697D01*
X100827Y66336D01*
X101135Y67080D01*
X101240Y67879D01*
Y69296D01*
X101135Y70095D01*
X100827Y70839D01*
X100336Y71478D01*
X99697Y71968D01*
X98953Y72277D01*
Y72773D01*
X99697Y73081D01*
X100336Y73571D01*
X100827Y74210D01*
X101135Y74954D01*
X101240Y75753D01*
Y77170D01*
X101135Y77969D01*
X100827Y78713D01*
X100336Y79352D01*
X99697Y79842D01*
X98953Y80151D01*
X98155Y80256D01*
X97356Y80151D01*
X96612Y79842D01*
X95973Y79352D01*
X95482Y78713D01*
X95174Y77969D01*
X95069Y77170D01*
Y75753D01*
X95174Y74954D01*
X95482Y74210D01*
X95503Y74183D01*
X93698Y72378D01*
X93532Y72130D01*
X93474Y71837D01*
Y70887D01*
X92974Y70788D01*
X92953Y70839D01*
X92462Y71478D01*
X91823Y71968D01*
X91079Y72277D01*
Y72773D01*
X91823Y73081D01*
X92462Y73571D01*
X92953Y74210D01*
X93261Y74954D01*
X93366Y75753D01*
Y77170D01*
X93261Y77969D01*
X92953Y78713D01*
X92462Y79352D01*
X91823Y79842D01*
X91079Y80151D01*
X90281Y80256D01*
X89482Y80151D01*
X88738Y79842D01*
X88099Y79352D01*
X87608Y78713D01*
X87300Y77969D01*
X87195Y77170D01*
Y75753D01*
X87300Y74954D01*
X87608Y74210D01*
X88099Y73571D01*
X88738Y73081D01*
X89482Y72773D01*
Y72277D01*
X88738Y71968D01*
X88099Y71478D01*
X87608Y70839D01*
X87300Y70095D01*
X87195Y69296D01*
Y67879D01*
X87300Y67080D01*
X87608Y66336D01*
X88099Y65697D01*
X88738Y65207D01*
X89482Y64899D01*
X89516Y64894D01*
Y60259D01*
X88198Y58941D01*
X88032Y58693D01*
X87974Y58400D01*
Y48717D01*
X72422Y33165D01*
X55555D01*
X39279Y49441D01*
X39031Y49606D01*
X38739Y49665D01*
X37239D01*
X36946Y49606D01*
X36698Y49441D01*
X35464Y48206D01*
X35298Y47958D01*
X34955Y47788D01*
X34753Y47743D01*
X34254Y47842D01*
X33675Y47727D01*
X33672Y47725D01*
X33125D01*
Y64519D01*
X33803Y65196D01*
X34521Y64899D01*
X35320Y64793D01*
X36119Y64899D01*
X36863Y65207D01*
X37502Y65697D01*
X37992Y66336D01*
X38300Y67080D01*
X38405Y67879D01*
Y69296D01*
X38300Y70095D01*
X37992Y70839D01*
X37502Y71478D01*
X36863Y71968D01*
X36119Y72277D01*
X35320Y72382D01*
X34521Y72277D01*
X33777Y71968D01*
X33138Y71478D01*
X32648Y70839D01*
X32340Y70095D01*
X32234Y69296D01*
Y67879D01*
X32293Y67435D01*
X31482Y66624D01*
X31020Y66815D01*
X31020Y80765D01*
X47397D01*
X47397Y73645D01*
D02*
G37*
G36*
X269412Y6019D02*
X235130D01*
X234890Y6520D01*
X235091Y6821D01*
X235206Y7400D01*
X235091Y7979D01*
X234763Y8470D01*
X234272Y8798D01*
X233693Y8913D01*
X233114Y8798D01*
X232888Y8647D01*
X232119Y9415D01*
Y11683D01*
X232619Y11835D01*
X232623Y11830D01*
X233114Y11502D01*
X233693Y11387D01*
X234272Y11502D01*
X234763Y11830D01*
X235091Y12321D01*
X235206Y12900D01*
X235135Y13260D01*
X241667Y19792D01*
X241832Y20040D01*
X241891Y20333D01*
Y24984D01*
X245703Y28797D01*
X245869Y29045D01*
X245927Y29338D01*
X245927Y29338D01*
Y54053D01*
X253839Y61964D01*
X254004Y62212D01*
X254063Y62505D01*
Y66237D01*
X254563Y66337D01*
X254563Y66336D01*
X255053Y65697D01*
X255692Y65207D01*
X256436Y64899D01*
X257235Y64793D01*
X258033Y64899D01*
X258778Y65207D01*
X259417Y65697D01*
X259907Y66336D01*
X259928Y66388D01*
X260428Y66288D01*
Y65717D01*
X250652Y55941D01*
X250486Y55693D01*
X250428Y55400D01*
Y37717D01*
X248353Y35642D01*
X248187Y35393D01*
X248129Y35101D01*
Y30674D01*
X247824Y30470D01*
X247496Y29979D01*
X247380Y29400D01*
X247496Y28821D01*
X247824Y28330D01*
X248315Y28002D01*
X248894Y27887D01*
X249473Y28002D01*
X249964Y28330D01*
X250292Y28821D01*
X250407Y29400D01*
X250292Y29979D01*
X249964Y30470D01*
X249658Y30674D01*
Y34784D01*
X251734Y36859D01*
X251734Y36859D01*
X251899Y37107D01*
X251958Y37400D01*
Y55083D01*
X261734Y64859D01*
X261734Y64859D01*
X261899Y65107D01*
X261958Y65400D01*
X261958Y65400D01*
Y66086D01*
X262405Y66312D01*
X262458Y66309D01*
X262927Y65697D01*
X263566Y65207D01*
X264310Y64899D01*
X264344Y64894D01*
Y63633D01*
X253652Y52941D01*
X253486Y52693D01*
X253428Y52400D01*
Y34717D01*
X252553Y33842D01*
X252193Y33913D01*
X251614Y33798D01*
X251123Y33470D01*
X250795Y32979D01*
X250680Y32400D01*
X250795Y31821D01*
X251123Y31330D01*
X251614Y31002D01*
X252193Y30887D01*
X252772Y31002D01*
X253263Y31330D01*
X253591Y31821D01*
X253706Y32400D01*
X253635Y32760D01*
X254734Y33859D01*
X254899Y34107D01*
X254958Y34400D01*
X254958Y34400D01*
Y52083D01*
X265650Y62775D01*
X265650Y62775D01*
X265815Y63023D01*
X265874Y63316D01*
Y64894D01*
X265908Y64899D01*
X266652Y65207D01*
X267291Y65697D01*
X267781Y66336D01*
X268089Y67080D01*
X268194Y67879D01*
Y69296D01*
X268089Y70095D01*
X267781Y70839D01*
X267291Y71478D01*
X266652Y71968D01*
X265908Y72277D01*
Y72773D01*
X266652Y73081D01*
X267291Y73571D01*
X267781Y74210D01*
X268089Y74954D01*
X268194Y75753D01*
Y77170D01*
X268089Y77969D01*
X267781Y78713D01*
X267291Y79352D01*
X266652Y79842D01*
X265908Y80151D01*
X265109Y80256D01*
X264310Y80151D01*
X263566Y79842D01*
X262927Y79352D01*
X262437Y78713D01*
X262129Y77969D01*
X262023Y77170D01*
Y75753D01*
X262129Y74954D01*
X262437Y74210D01*
X262458Y74183D01*
X260652Y72378D01*
X260487Y72130D01*
X260428Y71837D01*
Y70887D01*
X259928Y70788D01*
X259907Y70839D01*
X259417Y71478D01*
X258778Y71968D01*
X258033Y72277D01*
Y72773D01*
X258778Y73081D01*
X259417Y73571D01*
X259907Y74210D01*
X260215Y74954D01*
X260320Y75753D01*
Y77170D01*
X260215Y77969D01*
X259907Y78713D01*
X259417Y79352D01*
X258778Y79842D01*
X258033Y80151D01*
X257235Y80256D01*
X256436Y80151D01*
X255692Y79842D01*
X255053Y79352D01*
X254563Y78713D01*
X254255Y77969D01*
X254149Y77170D01*
Y75753D01*
X254255Y74954D01*
X254563Y74210D01*
X254584Y74183D01*
X253497Y73096D01*
X253034Y73287D01*
X253034Y80765D01*
X269412D01*
Y6019D01*
D02*
G37*
G36*
X93474Y66288D02*
Y60217D01*
X90963Y57705D01*
X90797Y57457D01*
X90739Y57165D01*
Y52635D01*
X90797Y52343D01*
X90963Y52095D01*
X91474Y51583D01*
Y48161D01*
X91168Y47957D01*
X90841Y47466D01*
X90725Y46887D01*
X90797Y46526D01*
X73723Y29453D01*
X54255D01*
X38545Y45163D01*
X38576Y45674D01*
X38809Y45830D01*
X39137Y46321D01*
X39202Y46648D01*
X39739Y46818D01*
X54698Y31859D01*
X54698Y31859D01*
X54946Y31694D01*
X55239Y31635D01*
X72739D01*
X73031Y31694D01*
X73279Y31859D01*
X89279Y47859D01*
X89445Y48107D01*
X89503Y48400D01*
X89503Y48400D01*
Y58083D01*
X90821Y59401D01*
X90987Y59649D01*
X91045Y59942D01*
Y64894D01*
X91079Y64899D01*
X91823Y65207D01*
X92462Y65697D01*
X92953Y66336D01*
X92974Y66388D01*
X93474Y66288D01*
D02*
G37*
G36*
X214351Y80765D02*
Y70164D01*
X214356Y70139D01*
X214353Y70114D01*
X214381Y69541D01*
X214399Y69468D01*
X214399Y69392D01*
X214623Y68269D01*
X214661Y68176D01*
X214681Y68078D01*
X215119Y67020D01*
X215175Y66936D01*
X215213Y66844D01*
X215850Y65892D01*
X215921Y65821D01*
X215976Y65737D01*
X216786Y64928D01*
X216869Y64872D01*
X216940Y64801D01*
X217893Y64165D01*
X217985Y64126D01*
X218069Y64070D01*
X219127Y63632D01*
X219225Y63612D01*
X219318Y63574D01*
X220441Y63350D01*
X220517Y63350D01*
X220590Y63332D01*
X221163Y63304D01*
X221188Y63307D01*
X221213Y63302D01*
X246173D01*
X246198Y63307D01*
X246223Y63304D01*
X246796Y63332D01*
X246869Y63350D01*
X246945Y63350D01*
X248068Y63574D01*
X248161Y63612D01*
X248259Y63632D01*
X249317Y64070D01*
X249400Y64126D01*
X249493Y64165D01*
X250445Y64801D01*
X250516Y64872D01*
X250600Y64928D01*
X251410Y65737D01*
X251465Y65821D01*
X251536Y65892D01*
X252033Y66635D01*
X252533Y66484D01*
Y62822D01*
X244622Y54910D01*
X244456Y54662D01*
X244398Y54370D01*
Y29655D01*
X240585Y25842D01*
X240420Y25594D01*
X240361Y25301D01*
Y20650D01*
X235694Y15982D01*
X235156Y16152D01*
X235091Y16479D01*
X234763Y16970D01*
X234272Y17298D01*
X233693Y17413D01*
X233114Y17298D01*
X232623Y16970D01*
X232295Y16479D01*
X232180Y15900D01*
X232191Y15840D01*
X230939Y14588D01*
X230477Y14780D01*
Y21294D01*
X230515Y21485D01*
Y35456D01*
X230380Y36139D01*
X229993Y36718D01*
X229993Y36718D01*
X229955Y36756D01*
X229376Y37143D01*
X228693Y37279D01*
X228010Y37143D01*
X227431Y36756D01*
X227045Y36177D01*
X226909Y35495D01*
X226947Y35303D01*
Y21639D01*
X226909Y21447D01*
Y10139D01*
X225954Y9184D01*
X201932D01*
X200977Y10139D01*
Y44453D01*
X207455Y50930D01*
X207455Y50930D01*
X207841Y51509D01*
X207977Y52192D01*
Y52400D01*
X207977Y52400D01*
X207841Y53083D01*
X207455Y53662D01*
X204059Y57058D01*
Y65392D01*
X204456Y65697D01*
X204946Y66336D01*
X205255Y67080D01*
X205360Y67879D01*
Y69296D01*
X205255Y70095D01*
X204946Y70839D01*
X204456Y71478D01*
X203817Y71968D01*
X203073Y72277D01*
X202274Y72382D01*
X201476Y72277D01*
X200731Y71968D01*
X200093Y71478D01*
X199602Y70839D01*
X199294Y70095D01*
X199189Y69296D01*
Y67879D01*
X199294Y67080D01*
X199602Y66336D01*
X200093Y65697D01*
X200490Y65392D01*
Y56319D01*
X200626Y55636D01*
X201013Y55057D01*
X203774Y52296D01*
X198436Y46958D01*
X197974Y47150D01*
Y80765D01*
X214351Y80765D01*
D02*
G37*
%LPC*%
G36*
X181632Y80256D02*
X180833Y80151D01*
X180089Y79842D01*
X179450Y79352D01*
X178960Y78713D01*
X178651Y77969D01*
X178546Y77170D01*
Y75753D01*
X178651Y74954D01*
X178960Y74210D01*
X179450Y73571D01*
X180089Y73081D01*
X180833Y72773D01*
Y72277D01*
X180089Y71968D01*
X179450Y71478D01*
X178960Y70839D01*
X178651Y70095D01*
X178546Y69296D01*
Y67879D01*
X178651Y67080D01*
X178960Y66336D01*
X179450Y65697D01*
X180089Y65207D01*
X180833Y64899D01*
X181632Y64793D01*
X182430Y64899D01*
X183175Y65207D01*
X183814Y65697D01*
X184304Y66336D01*
X184612Y67080D01*
X184717Y67879D01*
Y69296D01*
X184612Y70095D01*
X184304Y70839D01*
X183814Y71478D01*
X183175Y71968D01*
X182430Y72277D01*
Y72773D01*
X183175Y73081D01*
X183814Y73571D01*
X184304Y74210D01*
X184612Y74954D01*
X184717Y75753D01*
Y77170D01*
X184612Y77969D01*
X184304Y78713D01*
X183814Y79352D01*
X183175Y79842D01*
X182430Y80151D01*
X181632Y80256D01*
D02*
G37*
G36*
X173758D02*
X172959Y80151D01*
X172215Y79842D01*
X171576Y79352D01*
X171086Y78713D01*
X170777Y77969D01*
X170672Y77170D01*
Y75753D01*
X170777Y74954D01*
X171086Y74210D01*
X171576Y73571D01*
X172215Y73081D01*
X172959Y72773D01*
Y72277D01*
X172215Y71968D01*
X171576Y71478D01*
X171086Y70839D01*
X170777Y70095D01*
X170672Y69296D01*
Y67879D01*
X170777Y67080D01*
X170802Y67020D01*
X160175Y56393D01*
X160009Y56145D01*
X159951Y55853D01*
Y45674D01*
X159646Y45470D01*
X159318Y44979D01*
X159202Y44400D01*
X159318Y43821D01*
X159646Y43330D01*
X160137Y43002D01*
X160716Y42887D01*
X161295Y43002D01*
X161786Y43330D01*
X162114Y43821D01*
X162229Y44400D01*
X162114Y44979D01*
X161786Y45470D01*
X161480Y45674D01*
Y55536D01*
X171613Y65668D01*
X172215Y65207D01*
X172959Y64899D01*
X173758Y64793D01*
X174556Y64899D01*
X175300Y65207D01*
X175940Y65697D01*
X176430Y66336D01*
X176738Y67080D01*
X176843Y67879D01*
Y69296D01*
X176738Y70095D01*
X176430Y70839D01*
X175940Y71478D01*
X175300Y71968D01*
X174556Y72277D01*
Y72773D01*
X175300Y73081D01*
X175940Y73571D01*
X176430Y74210D01*
X176738Y74954D01*
X176843Y75753D01*
Y77170D01*
X176738Y77969D01*
X176430Y78713D01*
X175940Y79352D01*
X175300Y79842D01*
X174556Y80151D01*
X173758Y80256D01*
D02*
G37*
G36*
X126671D02*
X125873Y80151D01*
X125128Y79842D01*
X124489Y79352D01*
X123999Y78713D01*
X123691Y77969D01*
X123586Y77170D01*
Y75753D01*
X123691Y74954D01*
X123999Y74210D01*
X124489Y73571D01*
X125128Y73081D01*
X125873Y72773D01*
Y72277D01*
X125128Y71968D01*
X124489Y71478D01*
X123999Y70839D01*
X123691Y70095D01*
X123586Y69296D01*
Y67879D01*
X123691Y67080D01*
X123999Y66336D01*
X124489Y65697D01*
X125128Y65207D01*
X125873Y64899D01*
X126671Y64793D01*
X127470Y64899D01*
X128214Y65207D01*
X128853Y65697D01*
X129343Y66336D01*
X129651Y67080D01*
X129756Y67879D01*
Y69296D01*
X129651Y70095D01*
X129343Y70839D01*
X128853Y71478D01*
X128214Y71968D01*
X127470Y72277D01*
Y72773D01*
X128214Y73081D01*
X128853Y73571D01*
X129343Y74210D01*
X129651Y74954D01*
X129756Y75753D01*
Y77170D01*
X129651Y77969D01*
X129343Y78713D01*
X128853Y79352D01*
X128214Y79842D01*
X127470Y80151D01*
X126671Y80256D01*
D02*
G37*
G36*
X146716Y45413D02*
X146137Y45298D01*
X145646Y44970D01*
X145318Y44479D01*
X145202Y43900D01*
X145318Y43321D01*
X145646Y42830D01*
X146137Y42502D01*
X146716Y42387D01*
X147076Y42458D01*
X151409Y38125D01*
X151657Y37959D01*
X151950Y37901D01*
X151950Y37901D01*
X155633D01*
X163774Y29760D01*
X163702Y29400D01*
X163818Y28821D01*
X164146Y28330D01*
X164637Y28002D01*
X165216Y27887D01*
X165795Y28002D01*
X166286Y28330D01*
X166614Y28821D01*
X166729Y29400D01*
X166614Y29979D01*
X166286Y30470D01*
X165795Y30798D01*
X165216Y30913D01*
X164856Y30842D01*
X156491Y39206D01*
X156243Y39372D01*
X155950Y39430D01*
X152267D01*
X148157Y43540D01*
X148229Y43900D01*
X148114Y44479D01*
X147786Y44970D01*
X147295Y45298D01*
X146716Y45413D01*
D02*
G37*
G36*
X257193Y37913D02*
X256614Y37798D01*
X256123Y37470D01*
X255795Y36979D01*
X255680Y36400D01*
X255795Y35821D01*
X256123Y35330D01*
X256614Y35002D01*
X257193Y34887D01*
X257253Y34898D01*
X257972Y34179D01*
X258303Y33958D01*
X258693Y33880D01*
X261589D01*
X261623Y33830D01*
X262114Y33502D01*
X262693Y33387D01*
X263272Y33502D01*
X263763Y33830D01*
X264091Y34321D01*
X264206Y34900D01*
X264091Y35479D01*
X263763Y35970D01*
X263272Y36298D01*
X262693Y36413D01*
X262114Y36298D01*
X261623Y35970D01*
X261589Y35919D01*
X259115D01*
X258694Y36340D01*
X258706Y36400D01*
X258591Y36979D01*
X258263Y37470D01*
X257772Y37798D01*
X257193Y37913D01*
D02*
G37*
G36*
X259193Y27913D02*
X258614Y27798D01*
X258123Y27470D01*
X257795Y26979D01*
X257698Y26491D01*
X253864Y22657D01*
X245822D01*
X245408Y22934D01*
X244829Y23049D01*
X244250Y22934D01*
X243759Y22606D01*
X243431Y22115D01*
X243315Y21536D01*
X243431Y20957D01*
X243759Y20466D01*
X244250Y20138D01*
X244829Y20022D01*
X245408Y20138D01*
X245822Y20414D01*
X254329D01*
X254329Y20414D01*
X254758Y20500D01*
X255122Y20743D01*
X259284Y24905D01*
X259772Y25002D01*
X260263Y25330D01*
X260591Y25821D01*
X260706Y26400D01*
X260591Y26979D01*
X260263Y27470D01*
X259772Y27798D01*
X259193Y27913D01*
D02*
G37*
G36*
X210148Y80256D02*
X209350Y80151D01*
X208606Y79842D01*
X207966Y79352D01*
X207476Y78713D01*
X207168Y77969D01*
X207063Y77170D01*
Y75753D01*
X207168Y74954D01*
X207476Y74210D01*
X207966Y73571D01*
X208606Y73081D01*
X209350Y72773D01*
Y72277D01*
X208606Y71968D01*
X207966Y71478D01*
X207476Y70839D01*
X207168Y70095D01*
X207063Y69296D01*
Y67879D01*
X207168Y67080D01*
X207476Y66336D01*
X207966Y65697D01*
X208606Y65207D01*
X209350Y64899D01*
X210148Y64793D01*
X210947Y64899D01*
X211691Y65207D01*
X212330Y65697D01*
X212820Y66336D01*
X213129Y67080D01*
X213234Y67879D01*
Y69296D01*
X213129Y70095D01*
X212820Y70839D01*
X212330Y71478D01*
X211691Y71968D01*
X210947Y72277D01*
Y72773D01*
X211691Y73081D01*
X212330Y73571D01*
X212820Y74210D01*
X213129Y74954D01*
X213234Y75753D01*
Y77170D01*
X213129Y77969D01*
X212820Y78713D01*
X212330Y79352D01*
X211691Y79842D01*
X210947Y80151D01*
X210148Y80256D01*
D02*
G37*
G36*
X237555Y54218D02*
X219831D01*
X219831Y54218D01*
X219831Y54218D01*
X219831D01*
X219830Y54218D01*
X219829Y54218D01*
X219359Y54218D01*
X219163Y54178D01*
X218970Y54140D01*
X218102Y53780D01*
X217936Y53668D01*
X217772Y53559D01*
X217108Y52895D01*
X217108Y52895D01*
X217108Y52895D01*
X217107Y52894D01*
X216997Y52729D01*
X216887Y52564D01*
X216886Y52564D01*
X216886Y52564D01*
X216886Y52564D01*
X216527Y51697D01*
X216527Y51697D01*
X216527Y51697D01*
X216526Y51696D01*
X216488Y51507D01*
X216448Y51307D01*
X216447Y50837D01*
X216448Y50836D01*
X216447Y50836D01*
Y31961D01*
X216448Y31960D01*
X216447Y31959D01*
X216448Y31490D01*
X216487Y31294D01*
X216526Y31100D01*
X216886Y30232D01*
X216997Y30066D01*
X217107Y29902D01*
X217771Y29238D01*
X217771Y29238D01*
X217771Y29238D01*
X217771Y29238D01*
X217932Y29130D01*
X218101Y29017D01*
X218969Y28657D01*
X219164Y28618D01*
X219359Y28578D01*
X219829Y28578D01*
X219829Y28578D01*
X219830Y28578D01*
X222420D01*
X222420Y28578D01*
X222421Y28578D01*
X222891Y28578D01*
X223086Y28617D01*
X223281Y28656D01*
X224148Y29016D01*
X224148Y29016D01*
X224148Y29016D01*
X224149Y29017D01*
X224302Y29119D01*
X224479Y29238D01*
X225143Y29902D01*
X225256Y30071D01*
X225364Y30233D01*
X225723Y31101D01*
X225763Y31301D01*
X225801Y31491D01*
Y32431D01*
X225723Y32821D01*
X225723Y32821D01*
X225363Y33690D01*
X225142Y34021D01*
X224477Y34686D01*
X224147Y34907D01*
X223278Y35267D01*
X223214Y35279D01*
Y47456D01*
X234172D01*
Y35279D01*
X234108Y35267D01*
X233240Y34907D01*
X233074Y34796D01*
X232909Y34686D01*
X232244Y34022D01*
X232140Y33865D01*
X232023Y33691D01*
X231663Y32823D01*
X231623Y32621D01*
X231586Y32433D01*
X231585Y31493D01*
X231623Y31299D01*
X231662Y31103D01*
X232021Y30234D01*
X232137Y30061D01*
X232242Y29903D01*
X232906Y29238D01*
X233079Y29123D01*
X233237Y29017D01*
X234105Y28656D01*
X234293Y28619D01*
X234495Y28578D01*
X234965Y28578D01*
X234965Y28578D01*
X234966Y28578D01*
X234968D01*
X234968Y28578D01*
X237556D01*
X237557Y28578D01*
X237557Y28578D01*
X238027Y28578D01*
X238222Y28618D01*
X238417Y28657D01*
X239284Y29017D01*
X239448Y29126D01*
X239615Y29238D01*
X240278Y29902D01*
X240278Y29902D01*
X240278Y29902D01*
X240279Y29902D01*
X240385Y30060D01*
X240500Y30232D01*
X240860Y31100D01*
X240898Y31294D01*
X240938Y31490D01*
X240938Y31959D01*
X240938Y31960D01*
X240938Y31961D01*
Y31961D01*
X240938Y31961D01*
Y50835D01*
X240938Y50835D01*
X240938Y50835D01*
Y50836D01*
X240938Y50836D01*
X240938Y50837D01*
X240938Y51307D01*
X240897Y51507D01*
X240860Y51696D01*
X240859Y51697D01*
X240859Y51697D01*
X240859Y51697D01*
X240499Y52564D01*
X240389Y52729D01*
X240279Y52894D01*
X239615Y53558D01*
X239615Y53558D01*
X239614Y53558D01*
X239614Y53559D01*
X239456Y53664D01*
X239284Y53780D01*
X238416Y54140D01*
X238222Y54178D01*
X238026Y54218D01*
X237557Y54218D01*
X237556Y54218D01*
X237555Y54218D01*
X237555D01*
X237555Y54218D01*
D02*
G37*
%LPD*%
D10*
X133512Y55103D02*
D03*
X133512Y21697D02*
D03*
X166919Y21697D02*
D03*
X166919Y55103D02*
D03*
X122377D02*
D03*
D11*
X124716Y21900D02*
Y29900D01*
Y21900D02*
X135716Y10900D01*
X124716Y29900D02*
X134716D01*
X135716Y10900D02*
X148716D01*
X116216Y35114D02*
X124716Y29900D01*
X116216Y35114D02*
Y40900D01*
Y59900D01*
X118636Y62320D01*
Y68426D01*
X118797Y68587D01*
D12*
X155950Y38666D02*
X165216Y29400D01*
X146716Y43900D02*
X151950Y38666D01*
X155950D01*
X160716Y55853D02*
X173451Y68587D01*
X160716Y44400D02*
Y55853D01*
X173451Y68587D02*
X173758D01*
X55239Y32400D02*
X72739D01*
X38739Y48900D02*
X55239Y32400D01*
X37239Y48900D02*
X38739D01*
X36004Y47666D02*
X37239Y48900D01*
X36004Y44157D02*
Y47666D01*
X75504Y25166D02*
X96139Y45800D01*
X66104Y25166D02*
X75504D01*
X56839Y15900D02*
X66104Y25166D01*
X88739Y48400D02*
Y58400D01*
X72739Y32400D02*
X88739Y48400D01*
X74040Y28688D02*
X92239Y46887D01*
X53939Y28688D02*
X74040D01*
X96139Y45800D02*
Y53500D01*
X94739Y54900D02*
X96139Y53500D01*
X37739Y44888D02*
Y46900D01*
Y44888D02*
X53939Y28688D01*
Y15200D02*
Y28688D01*
X49739Y11000D02*
X53939Y15200D01*
X44589Y11000D02*
X49739D01*
X43489Y9900D02*
X44589Y11000D01*
X43239Y9900D02*
X43489D01*
X92239Y46887D02*
Y51900D01*
X90281Y59942D02*
Y68588D01*
X88739Y58400D02*
X90281Y59942D01*
X94239Y59900D02*
Y71837D01*
X91503Y57165D02*
X94239Y59900D01*
X91503Y52635D02*
Y57165D01*
Y52635D02*
X92239Y51900D01*
X43194Y55445D02*
X57739Y40900D01*
X43194Y55445D02*
Y68588D01*
X94239Y71837D02*
X98155Y75753D01*
Y58316D02*
Y68588D01*
X94739Y54900D02*
X98155Y58316D01*
Y75753D02*
Y76462D01*
X36004Y44157D02*
X36160Y44002D01*
X253298Y62505D02*
Y71816D01*
X245163Y54370D02*
X253298Y62505D01*
X245163Y29338D02*
Y54370D01*
X241126Y25301D02*
X245163Y29338D01*
X241126Y20333D02*
Y25301D01*
X233693Y12900D02*
X241126Y20333D01*
X253298Y71816D02*
X257235Y75753D01*
X265109Y63316D02*
Y68588D01*
X252193Y32400D02*
X254193Y34400D01*
Y52400D02*
X265109Y63316D01*
X254193Y34400D02*
Y52400D01*
X248894Y29400D02*
Y35101D01*
X261193Y65400D02*
Y71837D01*
X265109Y75753D01*
X251193Y55400D02*
X261193Y65400D01*
X248894Y35101D02*
X251193Y37400D01*
Y55400D01*
X265109Y75753D02*
Y76462D01*
X257235Y75753D02*
Y76462D01*
D13*
X78239Y21900D02*
X101239Y44900D01*
X70239Y21900D02*
X78239D01*
X66239Y17900D02*
X70239Y21900D01*
X66239Y10900D02*
Y17900D01*
X101239Y44900D02*
Y56400D01*
X254329Y21536D02*
X259193Y26400D01*
X244829Y21536D02*
X254329D01*
D14*
X31800Y65068D02*
X35320Y68588D01*
X31800Y46400D02*
Y65068D01*
Y27025D02*
Y46400D01*
X31800Y46400D01*
X34184D01*
X34254Y46329D01*
X31800Y27025D02*
X31800Y27025D01*
X31800Y25700D02*
Y27025D01*
Y25700D02*
X32876Y24624D01*
X48458D01*
X50778Y22304D01*
X48346Y14200D02*
X50778Y16632D01*
X41539Y14200D02*
X48346D01*
X39739Y12400D02*
X41539Y14200D01*
X50778Y16632D02*
Y22304D01*
D15*
X51351Y62375D02*
X86739D01*
X46917Y66808D02*
X51351Y62375D01*
X46917Y66808D02*
Y72030D01*
X43194Y75753D02*
X46917Y72030D01*
X43194Y75753D02*
Y76462D01*
X232693Y7400D02*
X233693D01*
X231100Y8993D02*
X232693Y7400D01*
X231100Y8993D02*
Y13307D01*
X233693Y15900D01*
X257193Y36400D02*
X258693Y34900D01*
X262693D01*
D16*
X228693Y9400D02*
Y21447D01*
X226693Y7400D02*
X228693Y9400D01*
X201193Y7400D02*
X226693D01*
X199193Y9400D02*
X201193Y7400D01*
X199193Y9400D02*
Y45192D01*
X228731Y21485D02*
Y35456D01*
X228693Y35495D02*
X228731Y35456D01*
X228693Y21447D02*
X228731Y21485D01*
X199193Y45192D02*
X206193Y52192D01*
Y52400D01*
X202274Y56319D02*
Y68588D01*
Y56319D02*
X206193Y52400D01*
D17*
X7204Y68988D02*
D03*
X15078D02*
D03*
Y76862D02*
D03*
X7204D02*
D03*
Y39454D02*
D03*
X15078D02*
D03*
Y47329D02*
D03*
X7204D02*
D03*
X118797Y76461D02*
D03*
X126671D02*
D03*
Y68587D02*
D03*
X118797D02*
D03*
X173758D02*
D03*
X181632D02*
D03*
Y76461D02*
D03*
X173758D02*
D03*
X35320Y76462D02*
D03*
X43194D02*
D03*
Y68588D02*
D03*
X35320D02*
D03*
X90281D02*
D03*
X98155D02*
D03*
Y76462D02*
D03*
X90281D02*
D03*
X202274Y76462D02*
D03*
X210148D02*
D03*
Y68588D02*
D03*
X202274D02*
D03*
X257235D02*
D03*
X265109D02*
D03*
Y76462D02*
D03*
X257235D02*
D03*
D18*
X170216Y55400D02*
D03*
X165216Y29400D02*
D03*
Y25900D02*
D03*
X160216Y25400D02*
D03*
X148716Y10900D02*
D03*
X131216Y41400D02*
D03*
X135216Y16900D02*
D03*
Y24900D02*
D03*
X125216Y37900D02*
D03*
X132716Y47900D02*
D03*
X165216Y32400D02*
D03*
X162716Y17900D02*
D03*
X152716Y61400D02*
D03*
X146216Y54900D02*
D03*
X144716Y46400D02*
D03*
X146716Y39400D02*
D03*
Y43900D02*
D03*
X168216Y37900D02*
D03*
X174216Y46400D02*
D03*
X170216Y26900D02*
D03*
X162216Y29400D02*
D03*
X158716Y32900D02*
D03*
X155716Y29900D02*
D03*
X149716Y23400D02*
D03*
X145216Y16900D02*
D03*
X150716Y31400D02*
D03*
X145716Y26400D02*
D03*
X144716Y31400D02*
D03*
X153216Y40400D02*
D03*
X153716Y46400D02*
D03*
X148716Y49900D02*
D03*
X184716Y72400D02*
D03*
X160716Y44400D02*
D03*
X159216Y56900D02*
D03*
X177716Y63400D02*
D03*
X148716Y35400D02*
D03*
X156216Y58900D02*
D03*
X155216Y35900D02*
D03*
X116216Y31900D02*
D03*
X140216Y50400D02*
D03*
X171216Y63400D02*
D03*
X125216Y47900D02*
D03*
X151216Y18400D02*
D03*
X161716Y35900D02*
D03*
X180716Y52900D02*
D03*
X178216Y27400D02*
D03*
X183216Y63400D02*
D03*
X172216Y12900D02*
D03*
X120216Y14400D02*
D03*
X135216Y35400D02*
D03*
X140216Y60400D02*
D03*
X162716Y46900D02*
D03*
X157716Y44400D02*
D03*
X116216Y40900D02*
D03*
X134716Y29900D02*
D03*
X124216Y55900D02*
D03*
X68239Y23400D02*
D03*
X93239Y40400D02*
D03*
X56239Y22400D02*
D03*
X89739Y41900D02*
D03*
X88739Y45900D02*
D03*
X76239Y33400D02*
D03*
X96339Y60500D02*
D03*
X56839Y15900D02*
D03*
X39739Y12400D02*
D03*
X43239Y9900D02*
D03*
X92239Y46887D02*
D03*
Y62900D02*
D03*
X66239Y10900D02*
D03*
X101239Y56400D02*
D03*
X94739Y54900D02*
D03*
X53239Y31900D02*
D03*
X42739Y42400D02*
D03*
X69239Y26900D02*
D03*
X86739Y62400D02*
D03*
X54239Y51400D02*
D03*
X37739Y46900D02*
D03*
X36160Y44002D02*
D03*
X46239Y32900D02*
D03*
X38739Y40900D02*
D03*
X34254Y46329D02*
D03*
X56239Y36900D02*
D03*
X49739Y43400D02*
D03*
X36239Y56900D02*
D03*
X34739Y58900D02*
D03*
Y54900D02*
D03*
X71239Y35400D02*
D03*
X57739Y40900D02*
D03*
X86739Y54400D02*
D03*
X36739Y11900D02*
D03*
X90739Y15400D02*
D03*
Y30900D02*
D03*
X68739Y43400D02*
D03*
X74739Y15400D02*
D03*
X78739Y47400D02*
D03*
X259193Y26400D02*
D03*
X240193Y7400D02*
D03*
X202693Y31900D02*
D03*
X232693Y24900D02*
D03*
X202693Y15400D02*
D03*
X207693Y40900D02*
D03*
Y35900D02*
D03*
X258193Y13400D02*
D03*
X259693Y11400D02*
D03*
X256693D02*
D03*
Y15400D02*
D03*
X259693D02*
D03*
X251193Y63400D02*
D03*
X255193Y62400D02*
D03*
X248193Y51400D02*
D03*
X221193Y61900D02*
D03*
X222493Y57800D02*
D03*
X244829Y21536D02*
D03*
X233693Y15900D02*
D03*
Y9900D02*
D03*
Y7400D02*
D03*
X257193Y41400D02*
D03*
Y36400D02*
D03*
X249693Y10900D02*
D03*
X256193Y30900D02*
D03*
X252193Y35400D02*
D03*
X262693Y34900D02*
D03*
X260193Y61400D02*
D03*
X253193Y54400D02*
D03*
X252193Y32400D02*
D03*
X248894Y29400D02*
D03*
X228693Y35495D02*
D03*
X217193Y21400D02*
D03*
X228693Y42900D02*
D03*
X228693Y21447D02*
D03*
X233693Y12900D02*
D03*
X206193Y52400D02*
D03*
M02*
