G04*
G04 #@! TF.GenerationSoftware,Altium Limited,Altium Designer,19.1.5 (86)*
G04*
G04 Layer_Color=65535*
%FSLAX25Y25*%
%MOIN*%
G70*
G01*
G75*
%ADD46C,0.00600*%
%ADD47C,0.00591*%
%ADD48C,0.00800*%
%ADD49C,0.00598*%
%ADD50C,0.00787*%
G36*
X63567Y29931D02*
X63526D01*
X63476Y29923D01*
X63409Y29915D01*
X63326Y29906D01*
X63226Y29890D01*
X63126Y29873D01*
X63009Y29848D01*
X62759Y29781D01*
X62509Y29690D01*
X62384Y29631D01*
X62260Y29565D01*
X62143Y29481D01*
X62035Y29398D01*
X62026Y29390D01*
X62010Y29373D01*
X61985Y29348D01*
X61951Y29306D01*
X61910Y29256D01*
X61860Y29198D01*
X61818Y29131D01*
X61768Y29048D01*
X61710Y28956D01*
X61668Y28857D01*
X61618Y28748D01*
X61576Y28632D01*
X61543Y28507D01*
X61518Y28373D01*
X61501Y28223D01*
X61493Y28074D01*
Y28065D01*
Y28040D01*
Y27990D01*
X61501Y27932D01*
X61510Y27865D01*
X61518Y27782D01*
X61535Y27690D01*
X61560Y27590D01*
X61626Y27382D01*
X61668Y27266D01*
X61718Y27157D01*
X61785Y27049D01*
X61860Y26941D01*
X61943Y26841D01*
X62035Y26741D01*
X62043Y26732D01*
X62060Y26716D01*
X62093Y26699D01*
X62135Y26666D01*
X62193Y26624D01*
X62260Y26583D01*
X62343Y26541D01*
X62435Y26491D01*
X62534Y26441D01*
X62651Y26391D01*
X62776Y26349D01*
X62918Y26308D01*
X63059Y26274D01*
X63218Y26241D01*
X63392Y26224D01*
X63567Y26208D01*
Y24567D01*
X63526D01*
X63467Y24575D01*
X63401Y24583D01*
X63309Y24592D01*
X63209Y24600D01*
X63092Y24617D01*
X62968Y24642D01*
X62834Y24658D01*
X62693Y24692D01*
X62401Y24758D01*
X62101Y24850D01*
X61818Y24958D01*
X61810Y24967D01*
X61785Y24975D01*
X61751Y24992D01*
X61693Y25025D01*
X61635Y25058D01*
X61560Y25100D01*
X61476Y25150D01*
X61393Y25208D01*
X61202Y25350D01*
X60993Y25516D01*
X60794Y25708D01*
X60602Y25933D01*
X60593Y25924D01*
X60577Y25908D01*
X60552Y25874D01*
X60510Y25833D01*
X60469Y25774D01*
X60410Y25716D01*
X60344Y25649D01*
X60269Y25574D01*
X60177Y25500D01*
X60085Y25416D01*
X59877Y25258D01*
X59644Y25100D01*
X59377Y24958D01*
X59369D01*
X59344Y24941D01*
X59302Y24925D01*
X59244Y24908D01*
X59177Y24883D01*
X59094Y24850D01*
X58994Y24816D01*
X58886Y24783D01*
X58761Y24750D01*
X58628Y24717D01*
X58486Y24683D01*
X58336Y24650D01*
X58170Y24625D01*
X58003Y24600D01*
X57636Y24567D01*
Y26208D01*
X57678D01*
X57728Y26216D01*
X57795Y26224D01*
X57878Y26233D01*
X57978Y26249D01*
X58078Y26266D01*
X58195Y26291D01*
X58436Y26358D01*
X58694Y26449D01*
X58819Y26507D01*
X58936Y26574D01*
X59052Y26657D01*
X59161Y26741D01*
X59169Y26749D01*
X59186Y26766D01*
X59211Y26791D01*
X59244Y26832D01*
X59286Y26882D01*
X59336Y26941D01*
X59386Y27007D01*
X59436Y27091D01*
X59486Y27182D01*
X59536Y27282D01*
X59586Y27391D01*
X59627Y27507D01*
X59661Y27640D01*
X59686Y27774D01*
X59702Y27924D01*
X59711Y28073D01*
Y28082D01*
Y28107D01*
Y28157D01*
X59702Y28215D01*
X59694Y28282D01*
X59686Y28365D01*
X59669Y28457D01*
X59644Y28548D01*
X59577Y28765D01*
X59536Y28873D01*
X59477Y28982D01*
X59419Y29090D01*
X59344Y29198D01*
X59261Y29306D01*
X59161Y29398D01*
X59152Y29406D01*
X59136Y29423D01*
X59102Y29448D01*
X59061Y29473D01*
X59003Y29515D01*
X58936Y29556D01*
X58853Y29598D01*
X58761Y29648D01*
X58661Y29698D01*
X58544Y29748D01*
X58419Y29790D01*
X58286Y29831D01*
X58136Y29864D01*
X57978Y29898D01*
X57811Y29915D01*
X57636Y29931D01*
Y31572D01*
X57678D01*
X57736Y31564D01*
X57803Y31556D01*
X57886Y31547D01*
X57986Y31539D01*
X58103Y31522D01*
X58219Y31506D01*
X58353Y31481D01*
X58494Y31455D01*
X58778Y31389D01*
X59069Y31297D01*
X59352Y31181D01*
X59361D01*
X59386Y31164D01*
X59427Y31147D01*
X59477Y31122D01*
X59536Y31081D01*
X59611Y31039D01*
X59694Y30989D01*
X59785Y30931D01*
X59977Y30797D01*
X60185Y30623D01*
X60402Y30423D01*
X60602Y30198D01*
X60610Y30206D01*
X60627Y30223D01*
X60652Y30256D01*
X60694Y30306D01*
X60743Y30356D01*
X60802Y30423D01*
X60868Y30489D01*
X60943Y30564D01*
X61035Y30639D01*
X61127Y30722D01*
X61335Y30889D01*
X61576Y31039D01*
X61835Y31181D01*
X61843D01*
X61868Y31197D01*
X61910Y31214D01*
X61968Y31239D01*
X62035Y31264D01*
X62118Y31289D01*
X62218Y31322D01*
X62326Y31356D01*
X62451Y31389D01*
X62576Y31431D01*
X62726Y31455D01*
X62876Y31489D01*
X63034Y31514D01*
X63209Y31539D01*
X63567Y31572D01*
Y29931D01*
D02*
G37*
G36*
X57012Y29981D02*
X56995D01*
X56962Y29989D01*
X56845D01*
X56803Y29998D01*
X56495D01*
X56412Y29989D01*
X56320Y29981D01*
X56220Y29973D01*
X56112Y29964D01*
X55879Y29931D01*
X55637Y29881D01*
X55396Y29814D01*
X55287Y29773D01*
X55179Y29723D01*
X55171D01*
X55154Y29706D01*
X55129Y29698D01*
X55087Y29673D01*
X54996Y29606D01*
X54879Y29515D01*
X54754Y29398D01*
X54621Y29256D01*
X54504Y29090D01*
X54404Y28890D01*
X57012D01*
Y27324D01*
X54371D01*
Y27316D01*
X54379Y27299D01*
X54388Y27266D01*
X54404Y27232D01*
X54429Y27182D01*
X54454Y27124D01*
X54529Y26999D01*
X54629Y26857D01*
X54763Y26707D01*
X54838Y26641D01*
X54921Y26574D01*
X55021Y26507D01*
X55121Y26449D01*
X55129D01*
X55146Y26441D01*
X55179Y26424D01*
X55229Y26408D01*
X55287Y26382D01*
X55354Y26358D01*
X55437Y26333D01*
X55529Y26308D01*
X55637Y26283D01*
X55754Y26258D01*
X55879Y26233D01*
X56020Y26208D01*
X56170Y26191D01*
X56329Y26174D01*
X56495Y26166D01*
X57012D01*
Y24567D01*
X56678D01*
X56595Y24575D01*
X56395D01*
X56287Y24583D01*
X56037Y24600D01*
X55762Y24625D01*
X55487Y24658D01*
X55221Y24708D01*
X55212D01*
X55187Y24717D01*
X55154Y24725D01*
X55104Y24733D01*
X55046Y24750D01*
X54979Y24775D01*
X54821Y24825D01*
X54638Y24883D01*
X54446Y24958D01*
X54246Y25050D01*
X54063Y25158D01*
X54054Y25166D01*
X54030Y25183D01*
X53988Y25208D01*
X53938Y25250D01*
X53871Y25291D01*
X53796Y25350D01*
X53713Y25425D01*
X53630Y25500D01*
X53538Y25583D01*
X53438Y25683D01*
X53238Y25891D01*
X53047Y26133D01*
X52880Y26408D01*
X52872Y26416D01*
X52863Y26441D01*
X52838Y26482D01*
X52813Y26541D01*
X52780Y26607D01*
X52747Y26699D01*
X52713Y26791D01*
X52672Y26899D01*
X52630Y27016D01*
X52597Y27149D01*
X52563Y27282D01*
X52530Y27432D01*
X52480Y27740D01*
X52472Y27907D01*
X52464Y28073D01*
Y28082D01*
Y28115D01*
Y28165D01*
X52472Y28223D01*
X52480Y28307D01*
X52488Y28398D01*
X52497Y28507D01*
X52513Y28623D01*
X52538Y28748D01*
X52563Y28881D01*
X52638Y29156D01*
X52688Y29298D01*
X52747Y29448D01*
X52805Y29590D01*
X52880Y29731D01*
X52888Y29739D01*
X52897Y29765D01*
X52922Y29806D01*
X52955Y29856D01*
X52997Y29923D01*
X53055Y29998D01*
X53113Y30081D01*
X53188Y30173D01*
X53263Y30273D01*
X53355Y30373D01*
X53446Y30473D01*
X53555Y30581D01*
X53671Y30681D01*
X53796Y30789D01*
X53921Y30889D01*
X54063Y30981D01*
X54071D01*
X54088Y30997D01*
X54113Y31006D01*
X54146Y31031D01*
X54196Y31056D01*
X54246Y31081D01*
X54313Y31114D01*
X54388Y31147D01*
X54554Y31222D01*
X54754Y31297D01*
X54979Y31372D01*
X55221Y31431D01*
X55229D01*
X55254Y31439D01*
X55287Y31447D01*
X55346Y31455D01*
X55412Y31464D01*
X55487Y31481D01*
X55579Y31489D01*
X55679Y31506D01*
X55796Y31522D01*
X55920Y31530D01*
X56054Y31547D01*
X56187Y31556D01*
X56495Y31572D01*
X56828Y31580D01*
X57012D01*
Y29981D01*
D02*
G37*
G36*
X83329Y24500D02*
X81597D01*
Y27332D01*
X79739D01*
Y24500D01*
X77990D01*
Y31514D01*
X79739D01*
Y29023D01*
X81597D01*
Y31514D01*
X83329D01*
Y24500D01*
D02*
G37*
G36*
X95308Y31631D02*
X95383D01*
X95475Y31614D01*
X95583Y31605D01*
X95700Y31580D01*
X95824Y31547D01*
X95966Y31514D01*
X96108Y31464D01*
X96258Y31405D01*
X96399Y31339D01*
X96549Y31256D01*
X96699Y31164D01*
X96841Y31056D01*
X96982Y30931D01*
X96991Y30922D01*
X97016Y30897D01*
X97049Y30856D01*
X97099Y30806D01*
X97149Y30739D01*
X97216Y30656D01*
X97274Y30556D01*
X97349Y30448D01*
X97416Y30331D01*
X97482Y30198D01*
X97540Y30048D01*
X97591Y29898D01*
X97641Y29731D01*
X97674Y29565D01*
X97699Y29381D01*
X97707Y29190D01*
Y29181D01*
Y29140D01*
X97699Y29081D01*
Y29006D01*
X97682Y28915D01*
X97665Y28807D01*
X97641Y28690D01*
X97607Y28557D01*
X97566Y28415D01*
X97515Y28273D01*
X97457Y28124D01*
X97382Y27974D01*
X97291Y27832D01*
X97191Y27682D01*
X97066Y27549D01*
X96932Y27415D01*
X96924Y27407D01*
X96899Y27391D01*
X96849Y27357D01*
X96791Y27316D01*
X96716Y27257D01*
X96616Y27207D01*
X96508Y27141D01*
X96383Y27082D01*
X96241Y27024D01*
X96091Y26957D01*
X95925Y26907D01*
X95741Y26857D01*
X95541Y26807D01*
X95333Y26774D01*
X95108Y26757D01*
X94875Y26749D01*
X94700D01*
Y28423D01*
X95042D01*
X95117Y28432D01*
X95216Y28448D01*
X95333Y28473D01*
X95450Y28515D01*
X95566Y28565D01*
X95666Y28632D01*
X95675Y28640D01*
X95708Y28673D01*
X95749Y28723D01*
X95799Y28790D01*
X95841Y28873D01*
X95883Y28973D01*
X95916Y29081D01*
X95925Y29215D01*
Y29231D01*
Y29265D01*
X95916Y29323D01*
X95899Y29398D01*
X95875Y29481D01*
X95833Y29573D01*
X95783Y29665D01*
X95708Y29748D01*
X95700Y29756D01*
X95666Y29781D01*
X95625Y29814D01*
X95558Y29856D01*
X95483Y29898D01*
X95391Y29931D01*
X95283Y29956D01*
X95166Y29964D01*
X95108D01*
X95042Y29948D01*
X94958Y29931D01*
X94867Y29906D01*
X94767Y29856D01*
X94675Y29798D01*
X94592Y29715D01*
X94583Y29706D01*
X94558Y29673D01*
X94525Y29615D01*
X94492Y29531D01*
X94458Y29440D01*
X94425Y29315D01*
X94400Y29181D01*
X94392Y29023D01*
Y24500D01*
X92642D01*
Y29015D01*
Y29032D01*
Y29065D01*
X92651Y29131D01*
Y29206D01*
X92667Y29306D01*
X92676Y29423D01*
X92701Y29556D01*
X92734Y29690D01*
X92767Y29840D01*
X92817Y29998D01*
X92867Y30156D01*
X92934Y30314D01*
X93017Y30473D01*
X93109Y30623D01*
X93217Y30773D01*
X93342Y30914D01*
X93350Y30922D01*
X93375Y30947D01*
X93417Y30981D01*
X93467Y31031D01*
X93542Y31081D01*
X93625Y31147D01*
X93725Y31206D01*
X93842Y31281D01*
X93967Y31347D01*
X94108Y31414D01*
X94258Y31472D01*
X94425Y31522D01*
X94608Y31572D01*
X94792Y31605D01*
X95000Y31631D01*
X95208Y31639D01*
X95258D01*
X95308Y31631D01*
D02*
G37*
G36*
X51830Y26424D02*
X49198D01*
Y27715D01*
X51830D01*
Y26424D01*
D02*
G37*
G36*
X91834Y26358D02*
X89202D01*
Y27649D01*
X91834D01*
Y26358D01*
D02*
G37*
G36*
X48382Y27432D02*
Y27415D01*
Y27374D01*
X48373Y27299D01*
Y27207D01*
X48357Y27091D01*
X48340Y26957D01*
X48324Y26807D01*
X48290Y26649D01*
X48248Y26474D01*
X48207Y26299D01*
X48140Y26116D01*
X48074Y25933D01*
X47990Y25758D01*
X47890Y25574D01*
X47782Y25408D01*
X47649Y25250D01*
X47640Y25241D01*
X47615Y25216D01*
X47574Y25175D01*
X47515Y25125D01*
X47440Y25066D01*
X47357Y24991D01*
X47249Y24925D01*
X47132Y24850D01*
X46999Y24767D01*
X46849Y24700D01*
X46691Y24633D01*
X46524Y24567D01*
X46333Y24517D01*
X46141Y24475D01*
X45933Y24450D01*
X45708Y24442D01*
X45658D01*
X45591Y24450D01*
X45508Y24458D01*
X45408Y24467D01*
X45291Y24483D01*
X45158Y24508D01*
X45016Y24542D01*
X44858Y24583D01*
X44700Y24642D01*
X44542Y24708D01*
X44383Y24783D01*
X44217Y24875D01*
X44058Y24983D01*
X43909Y25108D01*
X43767Y25250D01*
X43759Y25258D01*
X43734Y25291D01*
X43700Y25333D01*
X43650Y25400D01*
X43600Y25483D01*
X43542Y25583D01*
X43475Y25699D01*
X43409Y25833D01*
X43334Y25974D01*
X43275Y26141D01*
X43209Y26324D01*
X43159Y26516D01*
X43109Y26724D01*
X43075Y26949D01*
X43051Y27182D01*
X43042Y27432D01*
Y31580D01*
X44783D01*
Y27324D01*
Y27316D01*
Y27299D01*
Y27274D01*
Y27232D01*
X44791Y27182D01*
X44800Y27132D01*
X44816Y27007D01*
X44842Y26866D01*
X44883Y26716D01*
X44941Y26583D01*
X45016Y26458D01*
X45025Y26441D01*
X45058Y26408D01*
X45116Y26366D01*
X45191Y26308D01*
X45291Y26249D01*
X45408Y26208D01*
X45550Y26174D01*
X45708Y26158D01*
X45750D01*
X45783Y26166D01*
X45866Y26174D01*
X45966Y26199D01*
X46083Y26233D01*
X46199Y26283D01*
X46308Y26358D01*
X46407Y26458D01*
X46416Y26474D01*
X46449Y26516D01*
X46483Y26583D01*
X46532Y26682D01*
X46574Y26799D01*
X46616Y26949D01*
X46641Y27124D01*
X46649Y27324D01*
Y31580D01*
X48382D01*
Y27432D01*
D02*
G37*
G36*
X39552Y31689D02*
X39635D01*
X39735Y31672D01*
X39860Y31655D01*
X39985Y31631D01*
X40135Y31597D01*
X40285Y31556D01*
X40443Y31497D01*
X40602Y31431D01*
X40768Y31356D01*
X40926Y31256D01*
X41085Y31147D01*
X41235Y31022D01*
X41376Y30881D01*
X41385Y30872D01*
X41410Y30847D01*
X41443Y30797D01*
X41493Y30731D01*
X41551Y30656D01*
X41609Y30556D01*
X41676Y30439D01*
X41751Y30306D01*
X41818Y30156D01*
X41884Y29998D01*
X41943Y29823D01*
X42001Y29623D01*
X42051Y29423D01*
X42084Y29198D01*
X42109Y28965D01*
X42118Y28715D01*
Y24567D01*
X40377D01*
Y27166D01*
X38819D01*
Y28815D01*
X40377D01*
Y28890D01*
Y28898D01*
Y28915D01*
Y28940D01*
Y28973D01*
X40360Y29065D01*
X40343Y29181D01*
X40310Y29306D01*
X40268Y29440D01*
X40202Y29573D01*
X40118Y29690D01*
X40110Y29706D01*
X40077Y29739D01*
X40018Y29781D01*
X39944Y29840D01*
X39843Y29898D01*
X39727Y29939D01*
X39585Y29973D01*
X39435Y29989D01*
X39394D01*
X39360Y29981D01*
X39277Y29973D01*
X39177Y29948D01*
X39069Y29915D01*
X38952Y29856D01*
X38844Y29781D01*
X38744Y29681D01*
X38736Y29665D01*
X38711Y29623D01*
X38669Y29556D01*
X38627Y29456D01*
X38586Y29331D01*
X38544Y29181D01*
X38519Y29006D01*
X38511Y28798D01*
Y24567D01*
X36770D01*
Y28715D01*
Y28732D01*
Y28773D01*
X36778Y28848D01*
Y28940D01*
X36795Y29057D01*
X36811Y29190D01*
X36828Y29331D01*
X36861Y29498D01*
X36903Y29665D01*
X36945Y29840D01*
X37003Y30023D01*
X37078Y30198D01*
X37161Y30381D01*
X37253Y30556D01*
X37369Y30722D01*
X37495Y30881D01*
X37503Y30889D01*
X37528Y30914D01*
X37569Y30956D01*
X37628Y31006D01*
X37703Y31072D01*
X37794Y31139D01*
X37894Y31214D01*
X38011Y31289D01*
X38144Y31364D01*
X38294Y31439D01*
X38452Y31506D01*
X38619Y31572D01*
X38811Y31622D01*
X39002Y31664D01*
X39219Y31689D01*
X39435Y31697D01*
X39485D01*
X39552Y31689D01*
D02*
G37*
G36*
X35562Y29973D02*
X33596D01*
X33513Y29964D01*
X33429Y29956D01*
X33338Y29948D01*
X33263Y29931D01*
X33196Y29906D01*
X33188D01*
X33171Y29898D01*
X33130Y29856D01*
X33080Y29798D01*
X33063Y29748D01*
X33055Y29698D01*
Y29690D01*
Y29673D01*
X33063Y29648D01*
X33071Y29606D01*
X33105Y29523D01*
X33130Y29465D01*
X33163Y29415D01*
X33171Y29406D01*
X33188Y29390D01*
X33213Y29365D01*
X33255Y29331D01*
X33296Y29290D01*
X33363Y29240D01*
X33429Y29190D01*
X33513Y29140D01*
X34829Y28348D01*
X34837D01*
X34854Y28332D01*
X34887Y28315D01*
X34920Y28290D01*
X34971Y28257D01*
X35020Y28215D01*
X35145Y28115D01*
X35287Y27999D01*
X35429Y27857D01*
X35570Y27707D01*
X35687Y27532D01*
Y27524D01*
X35704Y27507D01*
X35712Y27482D01*
X35737Y27449D01*
X35754Y27407D01*
X35778Y27357D01*
X35837Y27232D01*
X35895Y27082D01*
X35937Y26907D01*
X35970Y26716D01*
X35987Y26516D01*
Y26507D01*
Y26491D01*
Y26466D01*
Y26432D01*
X35978Y26341D01*
X35962Y26224D01*
X35937Y26091D01*
X35895Y25941D01*
X35845Y25791D01*
X35778Y25633D01*
Y25624D01*
X35770Y25616D01*
X35745Y25566D01*
X35695Y25491D01*
X35637Y25400D01*
X35554Y25291D01*
X35462Y25183D01*
X35345Y25075D01*
X35220Y24975D01*
X35204Y24967D01*
X35170Y24941D01*
X35104Y24900D01*
X35020Y24850D01*
X34912Y24800D01*
X34795Y24750D01*
X34662Y24700D01*
X34521Y24658D01*
X34504D01*
X34479Y24650D01*
X34446Y24642D01*
X34404Y24633D01*
X34354D01*
X34287Y24625D01*
X34221Y24617D01*
X34137Y24608D01*
X34046Y24600D01*
X33937Y24592D01*
X33829Y24583D01*
X33704Y24575D01*
X33571D01*
X33429Y24567D01*
X31239D01*
Y26241D01*
X33688D01*
X33729Y26249D01*
X33779D01*
X33888Y26274D01*
X33937Y26299D01*
X33988Y26324D01*
X33996Y26333D01*
X34004Y26341D01*
X34046Y26391D01*
X34087Y26474D01*
X34096Y26524D01*
X34104Y26583D01*
Y26591D01*
Y26607D01*
X34096Y26632D01*
X34087Y26674D01*
X34071Y26716D01*
X34054Y26766D01*
X34021Y26816D01*
X33979Y26866D01*
X33971Y26874D01*
X33954Y26891D01*
X33929Y26924D01*
X33888Y26957D01*
X33838Y27007D01*
X33779Y27057D01*
X33704Y27107D01*
X33621Y27166D01*
X32272Y27982D01*
X32263D01*
X32255Y27999D01*
X32230Y28015D01*
X32197Y28032D01*
X32113Y28098D01*
X32005Y28182D01*
X31888Y28282D01*
X31763Y28415D01*
X31639Y28557D01*
X31530Y28715D01*
Y28723D01*
X31522Y28732D01*
X31505Y28757D01*
X31488Y28790D01*
X31447Y28881D01*
X31397Y28998D01*
X31347Y29140D01*
X31305Y29298D01*
X31272Y29465D01*
X31264Y29640D01*
Y29648D01*
Y29656D01*
Y29681D01*
Y29715D01*
X31272Y29806D01*
X31280Y29915D01*
X31297Y30048D01*
X31330Y30181D01*
X31364Y30331D01*
X31413Y30473D01*
Y30481D01*
X31422Y30489D01*
X31447Y30539D01*
X31480Y30606D01*
X31530Y30698D01*
X31597Y30797D01*
X31680Y30906D01*
X31772Y31014D01*
X31880Y31114D01*
X31897Y31122D01*
X31930Y31156D01*
X31997Y31197D01*
X32080Y31256D01*
X32180Y31314D01*
X32305Y31372D01*
X32438Y31422D01*
X32588Y31472D01*
X32596D01*
X32605Y31481D01*
X32630D01*
X32671Y31489D01*
X32713Y31497D01*
X32771Y31506D01*
X32838Y31514D01*
X32921Y31530D01*
X33013Y31539D01*
X33113Y31547D01*
X33221Y31556D01*
X33346Y31564D01*
X33479Y31572D01*
X33629D01*
X33788Y31580D01*
X35562D01*
Y29973D01*
D02*
G37*
G36*
X100156Y26849D02*
Y26832D01*
Y26791D01*
X100164Y26724D01*
X100181Y26649D01*
X100198Y26557D01*
X100231Y26466D01*
X100281Y26383D01*
X100339Y26308D01*
X100348Y26299D01*
X100373Y26283D01*
X100414Y26249D01*
X100473Y26224D01*
X100556Y26191D01*
X100648Y26158D01*
X100756Y26141D01*
X100881Y26133D01*
X102239D01*
Y24500D01*
X100731D01*
X100648Y24508D01*
X100539Y24517D01*
X100423Y24533D01*
X100289Y24550D01*
X100156Y24575D01*
X100006Y24600D01*
X99856Y24642D01*
X99698Y24683D01*
X99548Y24742D01*
X99398Y24808D01*
X99256Y24883D01*
X99123Y24975D01*
X99007Y25075D01*
X98998Y25083D01*
X98982Y25100D01*
X98948Y25133D01*
X98915Y25183D01*
X98865Y25241D01*
X98815Y25316D01*
X98765Y25408D01*
X98707Y25508D01*
X98648Y25624D01*
X98598Y25758D01*
X98548Y25899D01*
X98498Y26066D01*
X98465Y26233D01*
X98432Y26424D01*
X98415Y26624D01*
X98407Y26841D01*
Y31514D01*
X100156D01*
Y26849D01*
D02*
G37*
G36*
X88727Y29881D02*
X87228D01*
Y24500D01*
X85487D01*
Y29881D01*
X83988D01*
Y31514D01*
X88727D01*
Y29881D01*
D02*
G37*
G36*
X74441Y31622D02*
X74525D01*
X74625Y31605D01*
X74750Y31589D01*
X74875Y31564D01*
X75024Y31530D01*
X75174Y31489D01*
X75333Y31431D01*
X75491Y31364D01*
X75658Y31289D01*
X75816Y31189D01*
X75974Y31081D01*
X76124Y30956D01*
X76266Y30814D01*
X76274Y30806D01*
X76299Y30781D01*
X76332Y30731D01*
X76382Y30664D01*
X76441Y30589D01*
X76499Y30489D01*
X76566Y30373D01*
X76640Y30239D01*
X76707Y30089D01*
X76774Y29931D01*
X76832Y29756D01*
X76890Y29556D01*
X76940Y29356D01*
X76974Y29131D01*
X76999Y28898D01*
X77007Y28648D01*
Y24500D01*
X75266D01*
Y27099D01*
X73708D01*
Y28748D01*
X75266D01*
Y28823D01*
Y28832D01*
Y28848D01*
Y28873D01*
Y28907D01*
X75249Y28998D01*
X75233Y29115D01*
X75199Y29240D01*
X75158Y29373D01*
X75091Y29506D01*
X75008Y29623D01*
X74999Y29640D01*
X74966Y29673D01*
X74908Y29715D01*
X74833Y29773D01*
X74733Y29831D01*
X74616Y29873D01*
X74475Y29906D01*
X74325Y29923D01*
X74283D01*
X74250Y29915D01*
X74167Y29906D01*
X74067Y29881D01*
X73958Y29848D01*
X73842Y29790D01*
X73733Y29715D01*
X73633Y29615D01*
X73625Y29598D01*
X73600Y29556D01*
X73558Y29490D01*
X73517Y29390D01*
X73475Y29265D01*
X73434Y29115D01*
X73409Y28940D01*
X73400Y28732D01*
Y24500D01*
X71659D01*
Y28648D01*
Y28665D01*
Y28707D01*
X71667Y28782D01*
Y28873D01*
X71684Y28990D01*
X71701Y29123D01*
X71718Y29265D01*
X71751Y29431D01*
X71793Y29598D01*
X71834Y29773D01*
X71892Y29956D01*
X71967Y30131D01*
X72051Y30314D01*
X72142Y30489D01*
X72259Y30656D01*
X72384Y30814D01*
X72392Y30822D01*
X72417Y30847D01*
X72459Y30889D01*
X72517Y30939D01*
X72592Y31006D01*
X72684Y31072D01*
X72784Y31147D01*
X72900Y31222D01*
X73034Y31297D01*
X73184Y31372D01*
X73342Y31439D01*
X73509Y31506D01*
X73700Y31556D01*
X73892Y31597D01*
X74108Y31622D01*
X74325Y31631D01*
X74375D01*
X74441Y31622D01*
D02*
G37*
G36*
X153674Y61710D02*
X155942Y61259D01*
X158155Y60588D01*
X160291Y59703D01*
X162331Y58613D01*
X164254Y57328D01*
X166042Y55861D01*
X167677Y54226D01*
X169144Y52438D01*
X170429Y50515D01*
X171519Y48476D01*
X172404Y46339D01*
X173075Y44126D01*
X173526Y41858D01*
X173753Y39556D01*
Y38400D01*
Y37244D01*
X173526Y34942D01*
X173075Y32674D01*
X172404Y30461D01*
X171519Y28324D01*
X170429Y26285D01*
X169144Y24362D01*
X167677Y22574D01*
X166042Y20939D01*
X164254Y19472D01*
X162331Y18187D01*
X160291Y17097D01*
X158155Y16212D01*
X155942Y15540D01*
X153674Y15089D01*
X151372Y14863D01*
X149059D01*
X146758Y15089D01*
X144490Y15540D01*
X142277Y16212D01*
X140140Y17097D01*
X138101Y18187D01*
X136178Y19472D01*
X134390Y20939D01*
X132755Y22574D01*
X131288Y24362D01*
X130003Y26285D01*
X128913Y28324D01*
X128028Y30461D01*
X127356Y32674D01*
X126905Y34942D01*
X126679Y37244D01*
Y38400D01*
Y39556D01*
X126905Y41858D01*
X127356Y44126D01*
X128028Y46339D01*
X128913Y48476D01*
X130003Y50515D01*
X131288Y52438D01*
X132755Y54226D01*
X134390Y55861D01*
X136178Y57328D01*
X138101Y58613D01*
X140140Y59703D01*
X142277Y60588D01*
X144490Y61259D01*
X146758Y61710D01*
X149059Y61937D01*
X151372D01*
X153674Y61710D01*
D02*
G37*
G36*
X230522Y11931D02*
X230480D01*
X230430Y11923D01*
X230363Y11914D01*
X230280Y11906D01*
X230180Y11889D01*
X230080Y11873D01*
X229964Y11848D01*
X229714Y11781D01*
X229464Y11689D01*
X229339Y11631D01*
X229214Y11565D01*
X229097Y11481D01*
X228989Y11398D01*
X228981Y11390D01*
X228964Y11373D01*
X228939Y11348D01*
X228906Y11306D01*
X228864Y11256D01*
X228814Y11198D01*
X228772Y11131D01*
X228722Y11048D01*
X228664Y10956D01*
X228622Y10857D01*
X228572Y10748D01*
X228531Y10632D01*
X228498Y10507D01*
X228472Y10373D01*
X228456Y10223D01*
X228448Y10074D01*
Y10065D01*
Y10040D01*
Y9990D01*
X228456Y9932D01*
X228464Y9865D01*
X228472Y9782D01*
X228489Y9690D01*
X228514Y9590D01*
X228581Y9382D01*
X228622Y9266D01*
X228672Y9157D01*
X228739Y9049D01*
X228814Y8941D01*
X228897Y8841D01*
X228989Y8741D01*
X228997Y8732D01*
X229014Y8716D01*
X229047Y8699D01*
X229089Y8666D01*
X229147Y8624D01*
X229214Y8582D01*
X229297Y8541D01*
X229389Y8491D01*
X229489Y8441D01*
X229605Y8391D01*
X229730Y8349D01*
X229872Y8308D01*
X230013Y8274D01*
X230172Y8241D01*
X230347Y8224D01*
X230522Y8208D01*
Y6567D01*
X230480D01*
X230422Y6575D01*
X230355Y6583D01*
X230263Y6592D01*
X230164Y6600D01*
X230047Y6617D01*
X229922Y6641D01*
X229789Y6658D01*
X229647Y6691D01*
X229356Y6758D01*
X229056Y6850D01*
X228772Y6958D01*
X228764Y6966D01*
X228739Y6975D01*
X228706Y6991D01*
X228647Y7025D01*
X228589Y7058D01*
X228514Y7100D01*
X228431Y7150D01*
X228347Y7208D01*
X228156Y7350D01*
X227948Y7516D01*
X227748Y7708D01*
X227556Y7933D01*
X227548Y7924D01*
X227531Y7908D01*
X227506Y7874D01*
X227465Y7833D01*
X227423Y7774D01*
X227365Y7716D01*
X227298Y7649D01*
X227223Y7575D01*
X227131Y7500D01*
X227040Y7416D01*
X226832Y7258D01*
X226598Y7100D01*
X226332Y6958D01*
X226323D01*
X226298Y6941D01*
X226257Y6925D01*
X226198Y6908D01*
X226132Y6883D01*
X226048Y6850D01*
X225949Y6816D01*
X225840Y6783D01*
X225715Y6750D01*
X225582Y6717D01*
X225440Y6683D01*
X225290Y6650D01*
X225124Y6625D01*
X224957Y6600D01*
X224591Y6567D01*
Y8208D01*
X224632D01*
X224682Y8216D01*
X224749Y8224D01*
X224832Y8233D01*
X224932Y8249D01*
X225032Y8266D01*
X225149Y8291D01*
X225390Y8358D01*
X225649Y8449D01*
X225774Y8507D01*
X225890Y8574D01*
X226007Y8657D01*
X226115Y8741D01*
X226123Y8749D01*
X226140Y8766D01*
X226165Y8791D01*
X226198Y8832D01*
X226240Y8882D01*
X226290Y8941D01*
X226340Y9007D01*
X226390Y9091D01*
X226440Y9182D01*
X226490Y9282D01*
X226540Y9390D01*
X226582Y9507D01*
X226615Y9640D01*
X226640Y9774D01*
X226657Y9924D01*
X226665Y10074D01*
Y10082D01*
Y10107D01*
Y10157D01*
X226657Y10215D01*
X226648Y10282D01*
X226640Y10365D01*
X226623Y10457D01*
X226598Y10548D01*
X226532Y10765D01*
X226490Y10873D01*
X226432Y10982D01*
X226373Y11090D01*
X226298Y11198D01*
X226215Y11306D01*
X226115Y11398D01*
X226107Y11406D01*
X226090Y11423D01*
X226057Y11448D01*
X226015Y11473D01*
X225957Y11515D01*
X225890Y11556D01*
X225807Y11598D01*
X225715Y11648D01*
X225615Y11698D01*
X225499Y11748D01*
X225374Y11789D01*
X225240Y11831D01*
X225091Y11864D01*
X224932Y11898D01*
X224766Y11914D01*
X224591Y11931D01*
Y13572D01*
X224632D01*
X224691Y13564D01*
X224757Y13555D01*
X224841Y13547D01*
X224941Y13539D01*
X225057Y13522D01*
X225174Y13505D01*
X225307Y13480D01*
X225449Y13455D01*
X225732Y13389D01*
X226024Y13297D01*
X226307Y13181D01*
X226315D01*
X226340Y13164D01*
X226382Y13147D01*
X226432Y13122D01*
X226490Y13081D01*
X226565Y13039D01*
X226648Y12989D01*
X226740Y12931D01*
X226931Y12797D01*
X227140Y12622D01*
X227356Y12423D01*
X227556Y12198D01*
X227565Y12206D01*
X227581Y12223D01*
X227606Y12256D01*
X227648Y12306D01*
X227698Y12356D01*
X227756Y12423D01*
X227823Y12489D01*
X227898Y12564D01*
X227989Y12639D01*
X228081Y12722D01*
X228289Y12889D01*
X228531Y13039D01*
X228789Y13181D01*
X228797D01*
X228822Y13197D01*
X228864Y13214D01*
X228922Y13239D01*
X228989Y13264D01*
X229072Y13289D01*
X229172Y13322D01*
X229280Y13355D01*
X229405Y13389D01*
X229530Y13431D01*
X229680Y13455D01*
X229830Y13489D01*
X229989Y13514D01*
X230164Y13539D01*
X230522Y13572D01*
Y11931D01*
D02*
G37*
G36*
X147045Y11931D02*
X147003D01*
X146953Y11923D01*
X146886Y11914D01*
X146803Y11906D01*
X146703Y11889D01*
X146603Y11873D01*
X146486Y11848D01*
X146237Y11781D01*
X145987Y11689D01*
X145862Y11631D01*
X145737Y11564D01*
X145620Y11481D01*
X145512Y11398D01*
X145503Y11390D01*
X145487Y11373D01*
X145462Y11348D01*
X145429Y11306D01*
X145387Y11256D01*
X145337Y11198D01*
X145295Y11131D01*
X145245Y11048D01*
X145187Y10956D01*
X145145Y10857D01*
X145095Y10748D01*
X145054Y10632D01*
X145020Y10507D01*
X144995Y10373D01*
X144979Y10223D01*
X144970Y10073D01*
Y10065D01*
Y10040D01*
Y9990D01*
X144979Y9932D01*
X144987Y9865D01*
X144995Y9782D01*
X145012Y9690D01*
X145037Y9590D01*
X145104Y9382D01*
X145145Y9265D01*
X145195Y9157D01*
X145262Y9049D01*
X145337Y8941D01*
X145420Y8841D01*
X145512Y8741D01*
X145520Y8732D01*
X145537Y8716D01*
X145570Y8699D01*
X145612Y8666D01*
X145670Y8624D01*
X145737Y8582D01*
X145820Y8541D01*
X145912Y8491D01*
X146012Y8441D01*
X146128Y8391D01*
X146253Y8349D01*
X146395Y8308D01*
X146536Y8274D01*
X146695Y8241D01*
X146870Y8224D01*
X147045Y8207D01*
Y6566D01*
X147003D01*
X146945Y6575D01*
X146878Y6583D01*
X146786Y6592D01*
X146686Y6600D01*
X146570Y6617D01*
X146445Y6641D01*
X146311Y6658D01*
X146170Y6691D01*
X145878Y6758D01*
X145578Y6850D01*
X145295Y6958D01*
X145287Y6966D01*
X145262Y6975D01*
X145229Y6991D01*
X145170Y7025D01*
X145112Y7058D01*
X145037Y7100D01*
X144954Y7150D01*
X144870Y7208D01*
X144679Y7350D01*
X144471Y7516D01*
X144271Y7708D01*
X144079Y7933D01*
X144071Y7924D01*
X144054Y7908D01*
X144029Y7874D01*
X143987Y7833D01*
X143946Y7774D01*
X143887Y7716D01*
X143821Y7649D01*
X143746Y7575D01*
X143654Y7500D01*
X143563Y7416D01*
X143354Y7258D01*
X143121Y7100D01*
X142854Y6958D01*
X142846D01*
X142821Y6941D01*
X142780Y6925D01*
X142721Y6908D01*
X142655Y6883D01*
X142571Y6850D01*
X142471Y6816D01*
X142363Y6783D01*
X142238Y6750D01*
X142105Y6717D01*
X141963Y6683D01*
X141813Y6650D01*
X141647Y6625D01*
X141480Y6600D01*
X141114Y6566D01*
Y8207D01*
X141155D01*
X141205Y8216D01*
X141272Y8224D01*
X141355Y8232D01*
X141455Y8249D01*
X141555Y8266D01*
X141672Y8291D01*
X141913Y8358D01*
X142172Y8449D01*
X142296Y8507D01*
X142413Y8574D01*
X142530Y8657D01*
X142638Y8741D01*
X142646Y8749D01*
X142663Y8766D01*
X142688Y8791D01*
X142721Y8832D01*
X142763Y8882D01*
X142813Y8941D01*
X142863Y9007D01*
X142913Y9091D01*
X142963Y9182D01*
X143013Y9282D01*
X143063Y9390D01*
X143104Y9507D01*
X143138Y9640D01*
X143163Y9774D01*
X143179Y9923D01*
X143188Y10073D01*
Y10082D01*
Y10107D01*
Y10157D01*
X143179Y10215D01*
X143171Y10282D01*
X143163Y10365D01*
X143146Y10457D01*
X143121Y10548D01*
X143054Y10765D01*
X143013Y10873D01*
X142955Y10981D01*
X142896Y11090D01*
X142821Y11198D01*
X142738Y11306D01*
X142638Y11398D01*
X142630Y11406D01*
X142613Y11423D01*
X142580Y11448D01*
X142538Y11473D01*
X142480Y11514D01*
X142413Y11556D01*
X142330Y11598D01*
X142238Y11648D01*
X142138Y11698D01*
X142022Y11748D01*
X141897Y11789D01*
X141763Y11831D01*
X141613Y11864D01*
X141455Y11898D01*
X141288Y11914D01*
X141114Y11931D01*
Y13572D01*
X141155D01*
X141214Y13564D01*
X141280Y13555D01*
X141363Y13547D01*
X141463Y13539D01*
X141580Y13522D01*
X141697Y13505D01*
X141830Y13480D01*
X141972Y13455D01*
X142255Y13389D01*
X142546Y13297D01*
X142830Y13181D01*
X142838D01*
X142863Y13164D01*
X142904Y13147D01*
X142955Y13122D01*
X143013Y13081D01*
X143088Y13039D01*
X143171Y12989D01*
X143263Y12931D01*
X143454Y12797D01*
X143663Y12622D01*
X143879Y12422D01*
X144079Y12198D01*
X144087Y12206D01*
X144104Y12223D01*
X144129Y12256D01*
X144171Y12306D01*
X144221Y12356D01*
X144279Y12422D01*
X144346Y12489D01*
X144421Y12564D01*
X144512Y12639D01*
X144604Y12722D01*
X144812Y12889D01*
X145054Y13039D01*
X145312Y13181D01*
X145320D01*
X145345Y13197D01*
X145387Y13214D01*
X145445Y13239D01*
X145512Y13264D01*
X145595Y13289D01*
X145695Y13322D01*
X145803Y13355D01*
X145928Y13389D01*
X146053Y13430D01*
X146203Y13455D01*
X146353Y13489D01*
X146511Y13514D01*
X146686Y13539D01*
X147045Y13572D01*
Y11931D01*
D02*
G37*
G36*
X223966Y11981D02*
X223949D01*
X223916Y11989D01*
X223799D01*
X223758Y11998D01*
X223449D01*
X223366Y11989D01*
X223275Y11981D01*
X223175Y11973D01*
X223066Y11964D01*
X222833Y11931D01*
X222591Y11881D01*
X222350Y11814D01*
X222242Y11773D01*
X222133Y11723D01*
X222125D01*
X222108Y11706D01*
X222083Y11698D01*
X222042Y11673D01*
X221950Y11606D01*
X221833Y11515D01*
X221708Y11398D01*
X221575Y11256D01*
X221459Y11090D01*
X221359Y10890D01*
X223966D01*
Y9324D01*
X221325D01*
Y9315D01*
X221334Y9299D01*
X221342Y9266D01*
X221359Y9232D01*
X221384Y9182D01*
X221409Y9124D01*
X221484Y8999D01*
X221584Y8857D01*
X221717Y8707D01*
X221792Y8641D01*
X221875Y8574D01*
X221975Y8507D01*
X222075Y8449D01*
X222083D01*
X222100Y8441D01*
X222133Y8424D01*
X222183Y8407D01*
X222242Y8382D01*
X222308Y8358D01*
X222392Y8332D01*
X222483Y8308D01*
X222591Y8282D01*
X222708Y8258D01*
X222833Y8233D01*
X222975Y8208D01*
X223125Y8191D01*
X223283Y8174D01*
X223449Y8166D01*
X223966D01*
Y6567D01*
X223633D01*
X223550Y6575D01*
X223349D01*
X223241Y6583D01*
X222991Y6600D01*
X222716Y6625D01*
X222442Y6658D01*
X222175Y6708D01*
X222167D01*
X222142Y6717D01*
X222108Y6725D01*
X222058Y6733D01*
X222000Y6750D01*
X221933Y6775D01*
X221775Y6825D01*
X221592Y6883D01*
X221400Y6958D01*
X221200Y7050D01*
X221017Y7158D01*
X221009Y7166D01*
X220984Y7183D01*
X220942Y7208D01*
X220892Y7250D01*
X220826Y7291D01*
X220751Y7350D01*
X220667Y7425D01*
X220584Y7500D01*
X220492Y7583D01*
X220392Y7683D01*
X220193Y7891D01*
X220001Y8133D01*
X219834Y8407D01*
X219826Y8416D01*
X219818Y8441D01*
X219793Y8483D01*
X219768Y8541D01*
X219734Y8607D01*
X219701Y8699D01*
X219668Y8791D01*
X219626Y8899D01*
X219584Y9016D01*
X219551Y9149D01*
X219518Y9282D01*
X219484Y9432D01*
X219434Y9740D01*
X219426Y9907D01*
X219418Y10074D01*
Y10082D01*
Y10115D01*
Y10165D01*
X219426Y10223D01*
X219434Y10307D01*
X219443Y10398D01*
X219451Y10507D01*
X219468Y10623D01*
X219493Y10748D01*
X219518Y10881D01*
X219593Y11156D01*
X219643Y11298D01*
X219701Y11448D01*
X219759Y11590D01*
X219834Y11731D01*
X219843Y11739D01*
X219851Y11765D01*
X219876Y11806D01*
X219909Y11856D01*
X219951Y11923D01*
X220009Y11998D01*
X220068Y12081D01*
X220143Y12173D01*
X220217Y12273D01*
X220309Y12373D01*
X220401Y12472D01*
X220509Y12581D01*
X220626Y12681D01*
X220751Y12789D01*
X220876Y12889D01*
X221017Y12981D01*
X221025D01*
X221042Y12997D01*
X221067Y13006D01*
X221100Y13031D01*
X221150Y13056D01*
X221200Y13081D01*
X221267Y13114D01*
X221342Y13147D01*
X221509Y13222D01*
X221708Y13297D01*
X221933Y13372D01*
X222175Y13431D01*
X222183D01*
X222208Y13439D01*
X222242Y13447D01*
X222300Y13455D01*
X222367Y13464D01*
X222442Y13480D01*
X222533Y13489D01*
X222633Y13505D01*
X222750Y13522D01*
X222875Y13530D01*
X223008Y13547D01*
X223141Y13555D01*
X223449Y13572D01*
X223783Y13580D01*
X223966D01*
Y11981D01*
D02*
G37*
G36*
X140489Y11981D02*
X140472D01*
X140439Y11989D01*
X140322D01*
X140280Y11998D01*
X139972D01*
X139889Y11989D01*
X139797Y11981D01*
X139698Y11973D01*
X139589Y11964D01*
X139356Y11931D01*
X139114Y11881D01*
X138873Y11814D01*
X138765Y11773D01*
X138656Y11723D01*
X138648D01*
X138631Y11706D01*
X138606Y11698D01*
X138565Y11673D01*
X138473Y11606D01*
X138356Y11514D01*
X138231Y11398D01*
X138098Y11256D01*
X137981Y11090D01*
X137882Y10890D01*
X140489D01*
Y9324D01*
X137848D01*
Y9315D01*
X137856Y9299D01*
X137865Y9265D01*
X137882Y9232D01*
X137907Y9182D01*
X137932Y9124D01*
X138006Y8999D01*
X138106Y8857D01*
X138240Y8707D01*
X138315Y8641D01*
X138398Y8574D01*
X138498Y8507D01*
X138598Y8449D01*
X138606D01*
X138623Y8441D01*
X138656Y8424D01*
X138706Y8407D01*
X138765Y8382D01*
X138831Y8358D01*
X138914Y8332D01*
X139006Y8308D01*
X139114Y8282D01*
X139231Y8258D01*
X139356Y8232D01*
X139497Y8207D01*
X139647Y8191D01*
X139806Y8174D01*
X139972Y8166D01*
X140489D01*
Y6566D01*
X140156D01*
X140072Y6575D01*
X139872D01*
X139764Y6583D01*
X139514Y6600D01*
X139239Y6625D01*
X138964Y6658D01*
X138698Y6708D01*
X138689D01*
X138664Y6717D01*
X138631Y6725D01*
X138581Y6733D01*
X138523Y6750D01*
X138456Y6775D01*
X138298Y6825D01*
X138115Y6883D01*
X137923Y6958D01*
X137723Y7050D01*
X137540Y7158D01*
X137532Y7166D01*
X137507Y7183D01*
X137465Y7208D01*
X137415Y7250D01*
X137348Y7291D01*
X137273Y7350D01*
X137190Y7424D01*
X137107Y7500D01*
X137015Y7583D01*
X136915Y7683D01*
X136715Y7891D01*
X136524Y8133D01*
X136357Y8407D01*
X136349Y8416D01*
X136340Y8441D01*
X136316Y8482D01*
X136291Y8541D01*
X136257Y8607D01*
X136224Y8699D01*
X136190Y8791D01*
X136149Y8899D01*
X136107Y9015D01*
X136074Y9149D01*
X136041Y9282D01*
X136007Y9432D01*
X135957Y9740D01*
X135949Y9907D01*
X135941Y10073D01*
Y10082D01*
Y10115D01*
Y10165D01*
X135949Y10223D01*
X135957Y10307D01*
X135966Y10398D01*
X135974Y10507D01*
X135991Y10623D01*
X136016Y10748D01*
X136041Y10881D01*
X136116Y11156D01*
X136165Y11298D01*
X136224Y11448D01*
X136282Y11590D01*
X136357Y11731D01*
X136365Y11739D01*
X136374Y11764D01*
X136399Y11806D01*
X136432Y11856D01*
X136474Y11923D01*
X136532Y11998D01*
X136590Y12081D01*
X136665Y12173D01*
X136740Y12273D01*
X136832Y12372D01*
X136924Y12472D01*
X137032Y12581D01*
X137148Y12681D01*
X137273Y12789D01*
X137398Y12889D01*
X137540Y12981D01*
X137548D01*
X137565Y12997D01*
X137590Y13006D01*
X137623Y13031D01*
X137673Y13056D01*
X137723Y13081D01*
X137790Y13114D01*
X137865Y13147D01*
X138031Y13222D01*
X138231Y13297D01*
X138456Y13372D01*
X138698Y13430D01*
X138706D01*
X138731Y13439D01*
X138765Y13447D01*
X138823Y13455D01*
X138889Y13464D01*
X138964Y13480D01*
X139056Y13489D01*
X139156Y13505D01*
X139273Y13522D01*
X139398Y13530D01*
X139531Y13547D01*
X139664Y13555D01*
X139972Y13572D01*
X140305Y13580D01*
X140489D01*
Y11981D01*
D02*
G37*
G36*
X159876Y13705D02*
X159968Y13689D01*
X160068Y13655D01*
X160176Y13614D01*
X160284Y13547D01*
X160384Y13455D01*
X160393Y13447D01*
X160426Y13405D01*
X160468Y13355D01*
X160526Y13272D01*
X160576Y13181D01*
X160617Y13072D01*
X160651Y12947D01*
X160659Y12814D01*
Y12797D01*
Y12756D01*
X160643Y12681D01*
X160626Y12597D01*
X160592Y12489D01*
X160543Y12389D01*
X160476Y12281D01*
X160384Y12173D01*
X160376Y12164D01*
X160334Y12131D01*
X160284Y12089D01*
X160201Y12039D01*
X160109Y11989D01*
X160001Y11948D01*
X159876Y11914D01*
X159743Y11906D01*
X159726D01*
X159685Y11914D01*
X159610Y11923D01*
X159526Y11939D01*
X159418Y11973D01*
X159318Y12023D01*
X159210Y12081D01*
X159101Y12173D01*
X159093Y12181D01*
X159060Y12223D01*
X159018Y12281D01*
X158968Y12356D01*
X158918Y12448D01*
X158877Y12556D01*
X158843Y12681D01*
X158835Y12814D01*
Y12822D01*
Y12831D01*
X158843Y12881D01*
X158852Y12947D01*
X158868Y13039D01*
X158902Y13139D01*
X158951Y13247D01*
X159010Y13355D01*
X159101Y13455D01*
X159110Y13464D01*
X159151Y13497D01*
X159210Y13539D01*
X159285Y13589D01*
X159376Y13639D01*
X159485Y13680D01*
X159610Y13714D01*
X159743Y13722D01*
X159810D01*
X159876Y13705D01*
D02*
G37*
G36*
X261313Y13693D02*
X261388Y13684D01*
X261479Y13676D01*
X261579Y13668D01*
X261796Y13635D01*
X262029Y13585D01*
X262279Y13518D01*
X262537Y13426D01*
X262546D01*
X262571Y13410D01*
X262604Y13401D01*
X262654Y13376D01*
X262712Y13343D01*
X262787Y13310D01*
X262862Y13268D01*
X262954Y13218D01*
X263145Y13101D01*
X263362Y12960D01*
X263587Y12793D01*
X263820Y12602D01*
X262637Y11361D01*
X262621Y11377D01*
X262571Y11419D01*
X262496Y11477D01*
X262404Y11552D01*
X262287Y11627D01*
X262162Y11710D01*
X262029Y11794D01*
X261888Y11860D01*
X261871Y11869D01*
X261821Y11885D01*
X261746Y11910D01*
X261654Y11944D01*
X261538Y11977D01*
X261404Y12002D01*
X261263Y12019D01*
X261121Y12027D01*
X261046D01*
X260988Y12019D01*
X260921Y12010D01*
X260838Y11994D01*
X260746Y11977D01*
X260646Y11960D01*
X260438Y11885D01*
X260321Y11844D01*
X260213Y11785D01*
X260097Y11727D01*
X259988Y11644D01*
X259880Y11560D01*
X259772Y11460D01*
X259763Y11452D01*
X259747Y11435D01*
X259722Y11402D01*
X259688Y11361D01*
X259647Y11302D01*
X259597Y11244D01*
X259555Y11161D01*
X259505Y11077D01*
X259447Y10986D01*
X259405Y10877D01*
X259355Y10761D01*
X259314Y10644D01*
X259280Y10511D01*
X259255Y10378D01*
X259239Y10228D01*
X259230Y10078D01*
Y10069D01*
Y10044D01*
Y10003D01*
X259239Y9944D01*
X259247Y9878D01*
X259255Y9794D01*
X259272Y9703D01*
X259297Y9603D01*
X259355Y9395D01*
X259405Y9278D01*
X259455Y9170D01*
X259513Y9053D01*
X259580Y8945D01*
X259663Y8837D01*
X259755Y8728D01*
X259763Y8720D01*
X259780Y8703D01*
X259805Y8678D01*
X259847Y8645D01*
X259905Y8603D01*
X259963Y8553D01*
X260038Y8512D01*
X260113Y8462D01*
X260205Y8403D01*
X260305Y8362D01*
X260413Y8312D01*
X260530Y8270D01*
X260655Y8237D01*
X260780Y8212D01*
X260921Y8195D01*
X261063Y8187D01*
X261113D01*
X261155Y8195D01*
X261205D01*
X261254Y8203D01*
X261388Y8228D01*
X261538Y8262D01*
X261696Y8312D01*
X261862Y8387D01*
X262021Y8487D01*
X262029D01*
X262037Y8503D01*
X262087Y8545D01*
X262162Y8612D01*
X262262Y8711D01*
X262362Y8837D01*
X262471Y8986D01*
X262571Y9153D01*
X262654Y9353D01*
X260930D01*
Y10911D01*
X264595D01*
Y10611D01*
Y10603D01*
Y10577D01*
Y10544D01*
Y10494D01*
Y10436D01*
X264586Y10361D01*
Y10286D01*
X264578Y10194D01*
X264570Y10003D01*
X264553Y9803D01*
X264520Y9586D01*
X264487Y9378D01*
Y9370D01*
X264478Y9353D01*
Y9328D01*
X264470Y9286D01*
X264453Y9236D01*
X264445Y9186D01*
X264411Y9053D01*
X264362Y8903D01*
X264312Y8737D01*
X264245Y8570D01*
X264170Y8403D01*
X264162Y8395D01*
X264153Y8362D01*
X264120Y8312D01*
X264087Y8253D01*
X264037Y8170D01*
X263987Y8087D01*
X263920Y7987D01*
X263845Y7879D01*
X263754Y7762D01*
X263662Y7645D01*
X263554Y7520D01*
X263445Y7404D01*
X263320Y7279D01*
X263187Y7170D01*
X263045Y7054D01*
X262895Y6954D01*
X262887Y6946D01*
X262862Y6929D01*
X262812Y6904D01*
X262754Y6871D01*
X262671Y6837D01*
X262579Y6787D01*
X262479Y6746D01*
X262362Y6696D01*
X262229Y6646D01*
X262087Y6604D01*
X261937Y6554D01*
X261779Y6521D01*
X261613Y6487D01*
X261438Y6462D01*
X261254Y6446D01*
X261071Y6437D01*
X260996D01*
X260946Y6446D01*
X260880D01*
X260796Y6454D01*
X260705Y6462D01*
X260613Y6471D01*
X260397Y6504D01*
X260155Y6554D01*
X259905Y6612D01*
X259655Y6704D01*
X259647D01*
X259630Y6721D01*
X259589Y6729D01*
X259547Y6754D01*
X259489Y6787D01*
X259422Y6821D01*
X259347Y6862D01*
X259264Y6904D01*
X259080Y7021D01*
X258880Y7154D01*
X258681Y7320D01*
X258481Y7504D01*
X258472Y7512D01*
X258456Y7529D01*
X258431Y7554D01*
X258397Y7595D01*
X258356Y7645D01*
X258306Y7704D01*
X258247Y7770D01*
X258189Y7845D01*
X258064Y8020D01*
X257939Y8220D01*
X257814Y8437D01*
X257698Y8678D01*
Y8687D01*
X257689Y8711D01*
X257673Y8745D01*
X257656Y8795D01*
X257639Y8853D01*
X257614Y8928D01*
X257589Y9011D01*
X257564Y9103D01*
X257539Y9203D01*
X257514Y9311D01*
X257473Y9544D01*
X257439Y9803D01*
X257431Y10069D01*
Y10078D01*
Y10103D01*
Y10144D01*
X257439Y10194D01*
Y10261D01*
X257448Y10336D01*
X257456Y10419D01*
X257464Y10511D01*
X257498Y10727D01*
X257548Y10952D01*
X257606Y11202D01*
X257698Y11444D01*
Y11452D01*
X257714Y11477D01*
X257722Y11510D01*
X257748Y11552D01*
X257781Y11610D01*
X257814Y11677D01*
X257856Y11752D01*
X257897Y11835D01*
X258014Y12019D01*
X258147Y12218D01*
X258306Y12427D01*
X258489Y12627D01*
X258497Y12635D01*
X258514Y12652D01*
X258539Y12677D01*
X258580Y12710D01*
X258630Y12760D01*
X258689Y12810D01*
X258755Y12860D01*
X258830Y12926D01*
X259005Y13051D01*
X259214Y13185D01*
X259438Y13310D01*
X259680Y13426D01*
X259688D01*
X259713Y13435D01*
X259747Y13451D01*
X259797Y13468D01*
X259863Y13493D01*
X259938Y13510D01*
X260022Y13535D01*
X260113Y13568D01*
X260213Y13593D01*
X260330Y13618D01*
X260571Y13660D01*
X260838Y13693D01*
X261121Y13701D01*
X261246D01*
X261313Y13693D01*
D02*
G37*
G36*
X248285Y6562D02*
X246552D01*
Y9395D01*
X244694D01*
Y6562D01*
X242945D01*
Y13576D01*
X244694D01*
Y11086D01*
X246552D01*
Y13576D01*
X248285D01*
Y6562D01*
D02*
G37*
G36*
X156061Y11564D02*
X156144Y11556D01*
X156236Y11540D01*
X156344Y11514D01*
X156461Y11490D01*
X156586Y11456D01*
X156711Y11415D01*
X156844Y11356D01*
X156977Y11290D01*
X157111Y11215D01*
X157236Y11123D01*
X157360Y11023D01*
X157477Y10906D01*
X157485Y10898D01*
X157502Y10873D01*
X157535Y10840D01*
X157569Y10781D01*
X157619Y10715D01*
X157669Y10640D01*
X157719Y10540D01*
X157777Y10432D01*
X157835Y10315D01*
X157885Y10182D01*
X157935Y10032D01*
X157985Y9873D01*
X158019Y9707D01*
X158052Y9524D01*
X158069Y9332D01*
X158077Y9124D01*
Y6508D01*
X156536D01*
Y9365D01*
Y9382D01*
Y9415D01*
X156527Y9474D01*
X156511Y9549D01*
X156494Y9624D01*
X156461Y9707D01*
X156411Y9799D01*
X156352Y9873D01*
X156344Y9882D01*
X156319Y9907D01*
X156278Y9940D01*
X156228Y9973D01*
X156161Y10007D01*
X156086Y10040D01*
X155994Y10065D01*
X155894Y10073D01*
X155844D01*
X155794Y10065D01*
X155728Y10048D01*
X155653Y10024D01*
X155578Y9990D01*
X155503Y9940D01*
X155428Y9873D01*
X155420Y9865D01*
X155403Y9840D01*
X155370Y9790D01*
X155336Y9732D01*
X155303Y9665D01*
X155270Y9574D01*
X155253Y9474D01*
X155245Y9365D01*
Y6508D01*
X153712D01*
Y9365D01*
Y9382D01*
Y9415D01*
X153704Y9474D01*
X153687Y9549D01*
X153662Y9624D01*
X153629Y9707D01*
X153587Y9799D01*
X153520Y9873D01*
X153512Y9882D01*
X153487Y9907D01*
X153445Y9940D01*
X153395Y9973D01*
X153329Y10007D01*
X153245Y10040D01*
X153154Y10065D01*
X153054Y10073D01*
X153004D01*
X152954Y10065D01*
X152887Y10048D01*
X152812Y10024D01*
X152737Y9990D01*
X152662Y9940D01*
X152587Y9873D01*
X152579Y9865D01*
X152562Y9840D01*
X152529Y9790D01*
X152504Y9732D01*
X152471Y9665D01*
X152437Y9574D01*
X152421Y9474D01*
X152412Y9365D01*
Y6508D01*
X150880D01*
Y9124D01*
Y9140D01*
Y9174D01*
Y9232D01*
X150888Y9307D01*
X150896Y9399D01*
X150913Y9507D01*
X150930Y9632D01*
X150955Y9765D01*
X150980Y9899D01*
X151021Y10040D01*
X151071Y10190D01*
X151130Y10340D01*
X151196Y10490D01*
X151271Y10632D01*
X151363Y10765D01*
X151463Y10898D01*
X151471Y10906D01*
X151488Y10931D01*
X151521Y10965D01*
X151571Y11006D01*
X151629Y11056D01*
X151704Y11115D01*
X151779Y11173D01*
X151879Y11240D01*
X151979Y11298D01*
X152096Y11356D01*
X152229Y11415D01*
X152363Y11464D01*
X152512Y11514D01*
X152662Y11548D01*
X152829Y11564D01*
X153004Y11573D01*
X153079D01*
X153162Y11564D01*
X153262Y11556D01*
X153387Y11531D01*
X153520Y11506D01*
X153662Y11464D01*
X153804Y11406D01*
X153812D01*
X153820Y11398D01*
X153870Y11373D01*
X153937Y11340D01*
X154028Y11281D01*
X154128Y11215D01*
X154245Y11131D01*
X154362Y11031D01*
X154470Y10923D01*
X154487Y10940D01*
X154520Y10973D01*
X154578Y11031D01*
X154662Y11098D01*
X154762Y11173D01*
X154878Y11256D01*
X155003Y11331D01*
X155136Y11398D01*
X155145D01*
X155153Y11406D01*
X155203Y11423D01*
X155278Y11456D01*
X155370Y11490D01*
X155486Y11514D01*
X155611Y11548D01*
X155753Y11564D01*
X155894Y11573D01*
X155986D01*
X156061Y11564D01*
D02*
G37*
G36*
X168606Y9973D02*
X168448D01*
X168398Y9965D01*
X168323D01*
X168248Y9957D01*
X168064Y9923D01*
X167865Y9882D01*
X167665Y9815D01*
X167473Y9715D01*
X167390Y9657D01*
X167315Y9590D01*
X167298Y9574D01*
X167281Y9549D01*
X167256Y9515D01*
X167232Y9482D01*
X167198Y9424D01*
X167165Y9365D01*
X167131Y9299D01*
X167090Y9215D01*
X167057Y9132D01*
X167023Y9032D01*
X166998Y8916D01*
X166973Y8799D01*
X166957Y8666D01*
X166948Y8524D01*
X166940Y8374D01*
Y6508D01*
X165424D01*
Y11473D01*
X166857D01*
Y10731D01*
X166865Y10740D01*
X166898Y10790D01*
X166948Y10857D01*
X167023Y10940D01*
X167107Y11031D01*
X167215Y11131D01*
X167332Y11215D01*
X167465Y11290D01*
X167473D01*
X167481Y11298D01*
X167531Y11315D01*
X167615Y11348D01*
X167723Y11381D01*
X167865Y11415D01*
X168023Y11448D01*
X168206Y11464D01*
X168414Y11473D01*
X168606D01*
Y9973D01*
D02*
G37*
G36*
X218785Y8424D02*
X216152D01*
Y9715D01*
X218785D01*
Y8424D01*
D02*
G37*
G36*
X135308Y8424D02*
X132675D01*
Y9715D01*
X135308D01*
Y8424D01*
D02*
G37*
G36*
X256790Y8420D02*
X254157D01*
Y9711D01*
X256790D01*
Y8420D01*
D02*
G37*
G36*
X215336Y9432D02*
Y9415D01*
Y9374D01*
X215328Y9299D01*
Y9207D01*
X215311Y9091D01*
X215294Y8957D01*
X215278Y8807D01*
X215245Y8649D01*
X215203Y8474D01*
X215161Y8299D01*
X215094Y8116D01*
X215028Y7933D01*
X214945Y7758D01*
X214845Y7575D01*
X214736Y7408D01*
X214603Y7250D01*
X214595Y7241D01*
X214570Y7216D01*
X214528Y7175D01*
X214470Y7125D01*
X214395Y7066D01*
X214312Y6991D01*
X214203Y6925D01*
X214087Y6850D01*
X213953Y6767D01*
X213803Y6700D01*
X213645Y6633D01*
X213478Y6567D01*
X213287Y6517D01*
X213095Y6475D01*
X212887Y6450D01*
X212662Y6442D01*
X212612D01*
X212545Y6450D01*
X212462Y6458D01*
X212362Y6467D01*
X212246Y6483D01*
X212112Y6508D01*
X211971Y6542D01*
X211812Y6583D01*
X211654Y6641D01*
X211496Y6708D01*
X211338Y6783D01*
X211171Y6875D01*
X211013Y6983D01*
X210863Y7108D01*
X210721Y7250D01*
X210713Y7258D01*
X210688Y7291D01*
X210655Y7333D01*
X210605Y7400D01*
X210555Y7483D01*
X210496Y7583D01*
X210430Y7699D01*
X210363Y7833D01*
X210288Y7974D01*
X210230Y8141D01*
X210163Y8324D01*
X210113Y8516D01*
X210063Y8724D01*
X210030Y8949D01*
X210005Y9182D01*
X209997Y9432D01*
Y13580D01*
X211737D01*
Y9324D01*
Y9315D01*
Y9299D01*
Y9274D01*
Y9232D01*
X211746Y9182D01*
X211754Y9132D01*
X211771Y9007D01*
X211796Y8866D01*
X211838Y8716D01*
X211896Y8582D01*
X211971Y8457D01*
X211979Y8441D01*
X212012Y8407D01*
X212071Y8366D01*
X212146Y8308D01*
X212246Y8249D01*
X212362Y8208D01*
X212504Y8174D01*
X212662Y8158D01*
X212704D01*
X212737Y8166D01*
X212820Y8174D01*
X212920Y8199D01*
X213037Y8233D01*
X213154Y8282D01*
X213262Y8358D01*
X213362Y8457D01*
X213370Y8474D01*
X213404Y8516D01*
X213437Y8582D01*
X213487Y8682D01*
X213528Y8799D01*
X213570Y8949D01*
X213595Y9124D01*
X213603Y9324D01*
Y13580D01*
X215336D01*
Y9432D01*
D02*
G37*
G36*
X131859Y9432D02*
Y9415D01*
Y9374D01*
X131851Y9299D01*
Y9207D01*
X131834Y9091D01*
X131817Y8957D01*
X131801Y8807D01*
X131767Y8649D01*
X131726Y8474D01*
X131684Y8299D01*
X131617Y8116D01*
X131551Y7933D01*
X131467Y7758D01*
X131368Y7574D01*
X131259Y7408D01*
X131126Y7250D01*
X131118Y7241D01*
X131093Y7216D01*
X131051Y7175D01*
X130993Y7125D01*
X130918Y7066D01*
X130834Y6991D01*
X130726Y6925D01*
X130609Y6850D01*
X130476Y6766D01*
X130326Y6700D01*
X130168Y6633D01*
X130001Y6566D01*
X129810Y6516D01*
X129618Y6475D01*
X129410Y6450D01*
X129185Y6442D01*
X129135D01*
X129068Y6450D01*
X128985Y6458D01*
X128885Y6466D01*
X128769Y6483D01*
X128635Y6508D01*
X128494Y6542D01*
X128335Y6583D01*
X128177Y6641D01*
X128019Y6708D01*
X127860Y6783D01*
X127694Y6875D01*
X127536Y6983D01*
X127386Y7108D01*
X127244Y7250D01*
X127236Y7258D01*
X127211Y7291D01*
X127178Y7333D01*
X127128Y7400D01*
X127077Y7483D01*
X127019Y7583D01*
X126953Y7699D01*
X126886Y7833D01*
X126811Y7974D01*
X126753Y8141D01*
X126686Y8324D01*
X126636Y8516D01*
X126586Y8724D01*
X126553Y8949D01*
X126528Y9182D01*
X126519Y9432D01*
Y13580D01*
X128260D01*
Y9324D01*
Y9315D01*
Y9299D01*
Y9274D01*
Y9232D01*
X128269Y9182D01*
X128277Y9132D01*
X128294Y9007D01*
X128319Y8866D01*
X128360Y8716D01*
X128419Y8582D01*
X128494Y8457D01*
X128502Y8441D01*
X128535Y8407D01*
X128594Y8366D01*
X128668Y8308D01*
X128769Y8249D01*
X128885Y8207D01*
X129027Y8174D01*
X129185Y8157D01*
X129227D01*
X129260Y8166D01*
X129343Y8174D01*
X129443Y8199D01*
X129560Y8232D01*
X129676Y8282D01*
X129785Y8358D01*
X129885Y8457D01*
X129893Y8474D01*
X129926Y8516D01*
X129960Y8582D01*
X130010Y8682D01*
X130051Y8799D01*
X130093Y8949D01*
X130118Y9124D01*
X130126Y9324D01*
Y13580D01*
X131859D01*
Y9432D01*
D02*
G37*
G36*
X206506Y13689D02*
X206590D01*
X206690Y13672D01*
X206815Y13655D01*
X206939Y13630D01*
X207089Y13597D01*
X207239Y13555D01*
X207398Y13497D01*
X207556Y13431D01*
X207722Y13355D01*
X207881Y13255D01*
X208039Y13147D01*
X208189Y13022D01*
X208330Y12881D01*
X208339Y12872D01*
X208364Y12847D01*
X208397Y12797D01*
X208447Y12731D01*
X208506Y12656D01*
X208564Y12556D01*
X208630Y12439D01*
X208705Y12306D01*
X208772Y12156D01*
X208839Y11998D01*
X208897Y11823D01*
X208955Y11623D01*
X209005Y11423D01*
X209039Y11198D01*
X209064Y10965D01*
X209072Y10715D01*
Y6567D01*
X207331D01*
Y9166D01*
X205773D01*
Y10815D01*
X207331D01*
Y10890D01*
Y10898D01*
Y10915D01*
Y10940D01*
Y10973D01*
X207314Y11065D01*
X207298Y11181D01*
X207264Y11306D01*
X207223Y11440D01*
X207156Y11573D01*
X207073Y11689D01*
X207064Y11706D01*
X207031Y11739D01*
X206973Y11781D01*
X206898Y11839D01*
X206798Y11898D01*
X206681Y11939D01*
X206540Y11973D01*
X206390Y11989D01*
X206348D01*
X206315Y11981D01*
X206231Y11973D01*
X206131Y11948D01*
X206023Y11914D01*
X205907Y11856D01*
X205798Y11781D01*
X205698Y11681D01*
X205690Y11665D01*
X205665Y11623D01*
X205623Y11556D01*
X205582Y11456D01*
X205540Y11331D01*
X205498Y11181D01*
X205473Y11006D01*
X205465Y10798D01*
Y6567D01*
X203724D01*
Y10715D01*
Y10732D01*
Y10773D01*
X203732Y10848D01*
Y10940D01*
X203749Y11056D01*
X203766Y11190D01*
X203782Y11331D01*
X203816Y11498D01*
X203857Y11665D01*
X203899Y11839D01*
X203957Y12023D01*
X204032Y12198D01*
X204116Y12381D01*
X204207Y12556D01*
X204324Y12722D01*
X204449Y12881D01*
X204457Y12889D01*
X204482Y12914D01*
X204524Y12956D01*
X204582Y13006D01*
X204657Y13072D01*
X204749Y13139D01*
X204849Y13214D01*
X204965Y13289D01*
X205099Y13364D01*
X205248Y13439D01*
X205407Y13505D01*
X205573Y13572D01*
X205765Y13622D01*
X205957Y13664D01*
X206173Y13689D01*
X206390Y13697D01*
X206440D01*
X206506Y13689D01*
D02*
G37*
G36*
X202516Y11973D02*
X200550D01*
X200467Y11964D01*
X200384Y11956D01*
X200292Y11948D01*
X200217Y11931D01*
X200150Y11906D01*
X200142D01*
X200126Y11898D01*
X200084Y11856D01*
X200034Y11798D01*
X200017Y11748D01*
X200009Y11698D01*
Y11689D01*
Y11673D01*
X200017Y11648D01*
X200026Y11606D01*
X200059Y11523D01*
X200084Y11465D01*
X200117Y11415D01*
X200126Y11406D01*
X200142Y11390D01*
X200167Y11365D01*
X200209Y11331D01*
X200251Y11290D01*
X200317Y11240D01*
X200384Y11190D01*
X200467Y11140D01*
X201783Y10348D01*
X201792D01*
X201808Y10332D01*
X201841Y10315D01*
X201875Y10290D01*
X201925Y10257D01*
X201975Y10215D01*
X202100Y10115D01*
X202241Y9999D01*
X202383Y9857D01*
X202524Y9707D01*
X202641Y9532D01*
Y9524D01*
X202658Y9507D01*
X202666Y9482D01*
X202691Y9449D01*
X202708Y9407D01*
X202733Y9357D01*
X202791Y9232D01*
X202849Y9082D01*
X202891Y8907D01*
X202924Y8716D01*
X202941Y8516D01*
Y8507D01*
Y8491D01*
Y8466D01*
Y8433D01*
X202933Y8341D01*
X202916Y8224D01*
X202891Y8091D01*
X202849Y7941D01*
X202799Y7791D01*
X202733Y7633D01*
Y7625D01*
X202725Y7616D01*
X202699Y7566D01*
X202649Y7491D01*
X202591Y7400D01*
X202508Y7291D01*
X202416Y7183D01*
X202300Y7075D01*
X202175Y6975D01*
X202158Y6966D01*
X202125Y6941D01*
X202058Y6900D01*
X201975Y6850D01*
X201867Y6800D01*
X201750Y6750D01*
X201617Y6700D01*
X201475Y6658D01*
X201458D01*
X201433Y6650D01*
X201400Y6641D01*
X201358Y6633D01*
X201308D01*
X201242Y6625D01*
X201175Y6617D01*
X201092Y6608D01*
X201000Y6600D01*
X200892Y6592D01*
X200784Y6583D01*
X200659Y6575D01*
X200525D01*
X200384Y6567D01*
X198193D01*
Y8241D01*
X200642D01*
X200684Y8249D01*
X200734D01*
X200842Y8274D01*
X200892Y8299D01*
X200942Y8324D01*
X200950Y8332D01*
X200958Y8341D01*
X201000Y8391D01*
X201042Y8474D01*
X201050Y8524D01*
X201059Y8582D01*
Y8591D01*
Y8607D01*
X201050Y8632D01*
X201042Y8674D01*
X201025Y8716D01*
X201009Y8766D01*
X200975Y8816D01*
X200934Y8866D01*
X200925Y8874D01*
X200908Y8891D01*
X200884Y8924D01*
X200842Y8957D01*
X200792Y9007D01*
X200734Y9057D01*
X200659Y9107D01*
X200575Y9166D01*
X199226Y9982D01*
X199217D01*
X199209Y9999D01*
X199184Y10015D01*
X199151Y10032D01*
X199068Y10098D01*
X198959Y10182D01*
X198843Y10282D01*
X198718Y10415D01*
X198593Y10557D01*
X198485Y10715D01*
Y10723D01*
X198476Y10732D01*
X198459Y10757D01*
X198443Y10790D01*
X198401Y10881D01*
X198351Y10998D01*
X198301Y11140D01*
X198260Y11298D01*
X198226Y11465D01*
X198218Y11639D01*
Y11648D01*
Y11656D01*
Y11681D01*
Y11715D01*
X198226Y11806D01*
X198235Y11914D01*
X198251Y12048D01*
X198285Y12181D01*
X198318Y12331D01*
X198368Y12472D01*
Y12481D01*
X198376Y12489D01*
X198401Y12539D01*
X198434Y12606D01*
X198485Y12697D01*
X198551Y12797D01*
X198634Y12906D01*
X198726Y13014D01*
X198834Y13114D01*
X198851Y13122D01*
X198884Y13156D01*
X198951Y13197D01*
X199034Y13255D01*
X199134Y13314D01*
X199259Y13372D01*
X199392Y13422D01*
X199542Y13472D01*
X199551D01*
X199559Y13480D01*
X199584D01*
X199626Y13489D01*
X199667Y13497D01*
X199726Y13505D01*
X199792Y13514D01*
X199876Y13530D01*
X199967Y13539D01*
X200067Y13547D01*
X200175Y13555D01*
X200300Y13564D01*
X200434Y13572D01*
X200584D01*
X200742Y13580D01*
X202516D01*
Y11973D01*
D02*
G37*
G36*
X123029Y13689D02*
X123112D01*
X123212Y13672D01*
X123337Y13655D01*
X123462Y13630D01*
X123612Y13597D01*
X123762Y13555D01*
X123920Y13497D01*
X124079Y13430D01*
X124245Y13355D01*
X124404Y13255D01*
X124562Y13147D01*
X124712Y13022D01*
X124853Y12881D01*
X124862Y12872D01*
X124887Y12847D01*
X124920Y12797D01*
X124970Y12731D01*
X125028Y12656D01*
X125087Y12556D01*
X125153Y12439D01*
X125228Y12306D01*
X125295Y12156D01*
X125362Y11998D01*
X125420Y11823D01*
X125478Y11623D01*
X125528Y11423D01*
X125561Y11198D01*
X125586Y10965D01*
X125595Y10715D01*
Y6566D01*
X123854D01*
Y9166D01*
X122296D01*
Y10815D01*
X123854D01*
Y10890D01*
Y10898D01*
Y10915D01*
Y10940D01*
Y10973D01*
X123837Y11065D01*
X123820Y11181D01*
X123787Y11306D01*
X123746Y11440D01*
X123679Y11573D01*
X123596Y11689D01*
X123587Y11706D01*
X123554Y11739D01*
X123496Y11781D01*
X123421Y11839D01*
X123321Y11898D01*
X123204Y11939D01*
X123062Y11973D01*
X122913Y11989D01*
X122871D01*
X122837Y11981D01*
X122754Y11973D01*
X122654Y11948D01*
X122546Y11914D01*
X122429Y11856D01*
X122321Y11781D01*
X122221Y11681D01*
X122213Y11665D01*
X122188Y11623D01*
X122146Y11556D01*
X122105Y11456D01*
X122063Y11331D01*
X122021Y11181D01*
X121996Y11006D01*
X121988Y10798D01*
Y6566D01*
X120247D01*
Y10715D01*
Y10731D01*
Y10773D01*
X120255Y10848D01*
Y10940D01*
X120272Y11056D01*
X120289Y11190D01*
X120305Y11331D01*
X120338Y11498D01*
X120380Y11665D01*
X120422Y11839D01*
X120480Y12023D01*
X120555Y12198D01*
X120638Y12381D01*
X120730Y12556D01*
X120847Y12722D01*
X120972Y12881D01*
X120980Y12889D01*
X121005Y12914D01*
X121047Y12956D01*
X121105Y13006D01*
X121180Y13072D01*
X121272Y13139D01*
X121371Y13214D01*
X121488Y13289D01*
X121621Y13364D01*
X121771Y13439D01*
X121930Y13505D01*
X122096Y13572D01*
X122288Y13622D01*
X122479Y13664D01*
X122696Y13689D01*
X122913Y13697D01*
X122962D01*
X123029Y13689D01*
D02*
G37*
G36*
X119039Y11973D02*
X117073D01*
X116990Y11964D01*
X116907Y11956D01*
X116815Y11948D01*
X116740Y11931D01*
X116673Y11906D01*
X116665D01*
X116648Y11898D01*
X116607Y11856D01*
X116557Y11798D01*
X116540Y11748D01*
X116532Y11698D01*
Y11689D01*
Y11673D01*
X116540Y11648D01*
X116548Y11606D01*
X116582Y11523D01*
X116607Y11464D01*
X116640Y11415D01*
X116648Y11406D01*
X116665Y11390D01*
X116690Y11365D01*
X116732Y11331D01*
X116773Y11290D01*
X116840Y11240D01*
X116907Y11190D01*
X116990Y11140D01*
X118306Y10348D01*
X118314D01*
X118331Y10332D01*
X118364Y10315D01*
X118398Y10290D01*
X118448Y10257D01*
X118498Y10215D01*
X118623Y10115D01*
X118764Y9999D01*
X118906Y9857D01*
X119047Y9707D01*
X119164Y9532D01*
Y9524D01*
X119181Y9507D01*
X119189Y9482D01*
X119214Y9449D01*
X119231Y9407D01*
X119256Y9357D01*
X119314Y9232D01*
X119372Y9082D01*
X119414Y8907D01*
X119447Y8716D01*
X119464Y8516D01*
Y8507D01*
Y8491D01*
Y8466D01*
Y8432D01*
X119456Y8341D01*
X119439Y8224D01*
X119414Y8091D01*
X119372Y7941D01*
X119322Y7791D01*
X119256Y7633D01*
Y7624D01*
X119247Y7616D01*
X119222Y7566D01*
X119172Y7491D01*
X119114Y7400D01*
X119031Y7291D01*
X118939Y7183D01*
X118823Y7075D01*
X118698Y6975D01*
X118681Y6966D01*
X118648Y6941D01*
X118581Y6900D01*
X118498Y6850D01*
X118389Y6800D01*
X118273Y6750D01*
X118139Y6700D01*
X117998Y6658D01*
X117981D01*
X117956Y6650D01*
X117923Y6641D01*
X117881Y6633D01*
X117831D01*
X117765Y6625D01*
X117698Y6617D01*
X117615Y6608D01*
X117523Y6600D01*
X117415Y6592D01*
X117306Y6583D01*
X117182Y6575D01*
X117048D01*
X116907Y6566D01*
X114716D01*
Y8241D01*
X117165D01*
X117206Y8249D01*
X117256D01*
X117365Y8274D01*
X117415Y8299D01*
X117465Y8324D01*
X117473Y8332D01*
X117481Y8341D01*
X117523Y8391D01*
X117565Y8474D01*
X117573Y8524D01*
X117581Y8582D01*
Y8591D01*
Y8607D01*
X117573Y8632D01*
X117565Y8674D01*
X117548Y8716D01*
X117531Y8766D01*
X117498Y8816D01*
X117456Y8866D01*
X117448Y8874D01*
X117431Y8891D01*
X117406Y8924D01*
X117365Y8957D01*
X117315Y9007D01*
X117256Y9057D01*
X117182Y9107D01*
X117098Y9166D01*
X115749Y9982D01*
X115740D01*
X115732Y9999D01*
X115707Y10015D01*
X115674Y10032D01*
X115590Y10098D01*
X115482Y10182D01*
X115366Y10282D01*
X115241Y10415D01*
X115116Y10557D01*
X115007Y10715D01*
Y10723D01*
X114999Y10731D01*
X114982Y10757D01*
X114966Y10790D01*
X114924Y10881D01*
X114874Y10998D01*
X114824Y11140D01*
X114782Y11298D01*
X114749Y11464D01*
X114741Y11639D01*
Y11648D01*
Y11656D01*
Y11681D01*
Y11714D01*
X114749Y11806D01*
X114757Y11914D01*
X114774Y12048D01*
X114807Y12181D01*
X114841Y12331D01*
X114891Y12472D01*
Y12481D01*
X114899Y12489D01*
X114924Y12539D01*
X114957Y12606D01*
X115007Y12697D01*
X115074Y12797D01*
X115157Y12906D01*
X115249Y13014D01*
X115357Y13114D01*
X115374Y13122D01*
X115407Y13156D01*
X115474Y13197D01*
X115557Y13255D01*
X115657Y13314D01*
X115782Y13372D01*
X115915Y13422D01*
X116065Y13472D01*
X116074D01*
X116082Y13480D01*
X116107D01*
X116148Y13489D01*
X116190Y13497D01*
X116249Y13505D01*
X116315Y13514D01*
X116398Y13530D01*
X116490Y13539D01*
X116590Y13547D01*
X116698Y13555D01*
X116823Y13564D01*
X116956Y13572D01*
X117106D01*
X117265Y13580D01*
X119039D01*
Y11973D01*
D02*
G37*
G36*
X267110Y8912D02*
Y8895D01*
Y8853D01*
X267119Y8787D01*
X267135Y8711D01*
X267152Y8620D01*
X267185Y8528D01*
X267235Y8445D01*
X267294Y8370D01*
X267302Y8362D01*
X267327Y8345D01*
X267369Y8312D01*
X267427Y8287D01*
X267510Y8253D01*
X267602Y8220D01*
X267710Y8203D01*
X267835Y8195D01*
X269193D01*
Y6562D01*
X267685D01*
X267602Y6571D01*
X267494Y6579D01*
X267377Y6596D01*
X267244Y6612D01*
X267110Y6637D01*
X266961Y6662D01*
X266811Y6704D01*
X266652Y6746D01*
X266502Y6804D01*
X266352Y6871D01*
X266211Y6946D01*
X266077Y7037D01*
X265961Y7137D01*
X265953Y7146D01*
X265936Y7162D01*
X265903Y7196D01*
X265869Y7245D01*
X265819Y7304D01*
X265769Y7379D01*
X265719Y7470D01*
X265661Y7570D01*
X265603Y7687D01*
X265553Y7820D01*
X265503Y7962D01*
X265453Y8128D01*
X265420Y8295D01*
X265386Y8487D01*
X265370Y8687D01*
X265361Y8903D01*
Y13576D01*
X267110D01*
Y8912D01*
D02*
G37*
G36*
X253682Y11944D02*
X252183D01*
Y6562D01*
X250442D01*
Y11944D01*
X248943D01*
Y13576D01*
X253682D01*
Y11944D01*
D02*
G37*
G36*
X239397Y13684D02*
X239480D01*
X239580Y13668D01*
X239705Y13651D01*
X239830Y13626D01*
X239980Y13593D01*
X240130Y13551D01*
X240288Y13493D01*
X240446Y13426D01*
X240613Y13351D01*
X240771Y13251D01*
X240929Y13143D01*
X241079Y13018D01*
X241221Y12877D01*
X241229Y12868D01*
X241254Y12843D01*
X241287Y12793D01*
X241337Y12727D01*
X241396Y12652D01*
X241454Y12552D01*
X241521Y12435D01*
X241596Y12302D01*
X241662Y12152D01*
X241729Y11994D01*
X241787Y11819D01*
X241846Y11619D01*
X241896Y11419D01*
X241929Y11194D01*
X241954Y10961D01*
X241962Y10711D01*
Y6562D01*
X240221D01*
Y9161D01*
X238664D01*
Y10811D01*
X240221D01*
Y10886D01*
Y10894D01*
Y10911D01*
Y10936D01*
Y10969D01*
X240205Y11061D01*
X240188Y11177D01*
X240155Y11302D01*
X240113Y11435D01*
X240046Y11569D01*
X239963Y11685D01*
X239955Y11702D01*
X239921Y11735D01*
X239863Y11777D01*
X239788Y11835D01*
X239688Y11894D01*
X239571Y11935D01*
X239430Y11969D01*
X239280Y11985D01*
X239238D01*
X239205Y11977D01*
X239122Y11969D01*
X239022Y11944D01*
X238913Y11910D01*
X238797Y11852D01*
X238688Y11777D01*
X238589Y11677D01*
X238580Y11660D01*
X238555Y11619D01*
X238513Y11552D01*
X238472Y11452D01*
X238430Y11327D01*
X238389Y11177D01*
X238364Y11002D01*
X238355Y10794D01*
Y6562D01*
X236614D01*
Y10711D01*
Y10727D01*
Y10769D01*
X236623Y10844D01*
Y10936D01*
X236639Y11052D01*
X236656Y11186D01*
X236673Y11327D01*
X236706Y11494D01*
X236748Y11660D01*
X236789Y11835D01*
X236848Y12019D01*
X236923Y12194D01*
X237006Y12377D01*
X237097Y12552D01*
X237214Y12718D01*
X237339Y12877D01*
X237347Y12885D01*
X237372Y12910D01*
X237414Y12952D01*
X237472Y13002D01*
X237547Y13068D01*
X237639Y13135D01*
X237739Y13210D01*
X237856Y13285D01*
X237989Y13360D01*
X238139Y13435D01*
X238297Y13501D01*
X238464Y13568D01*
X238655Y13618D01*
X238847Y13660D01*
X239063Y13684D01*
X239280Y13693D01*
X239330D01*
X239397Y13684D01*
D02*
G37*
G36*
X181709Y13514D02*
X181817D01*
X181934Y13505D01*
X182192Y13489D01*
X182459Y13472D01*
X182725Y13439D01*
X182842Y13422D01*
X182958Y13397D01*
X182967D01*
X182984Y13389D01*
X183017Y13381D01*
X183059Y13372D01*
X183108Y13355D01*
X183167Y13339D01*
X183308Y13297D01*
X183475Y13239D01*
X183650Y13172D01*
X183833Y13081D01*
X184008Y12981D01*
X184017Y12972D01*
X184042Y12956D01*
X184083Y12931D01*
X184141Y12889D01*
X184208Y12839D01*
X184291Y12781D01*
X184375Y12706D01*
X184475Y12631D01*
X184575Y12539D01*
X184675Y12448D01*
X184783Y12339D01*
X184883Y12223D01*
X185083Y11973D01*
X185183Y11839D01*
X185266Y11698D01*
X185274Y11689D01*
X185283Y11665D01*
X185308Y11623D01*
X185333Y11564D01*
X185374Y11490D01*
X185408Y11406D01*
X185449Y11306D01*
X185491Y11198D01*
X185532Y11073D01*
X185574Y10948D01*
X185616Y10807D01*
X185649Y10665D01*
X185699Y10348D01*
X185707Y10182D01*
X185716Y10015D01*
Y10007D01*
Y9973D01*
Y9932D01*
X185707Y9865D01*
Y9790D01*
X185691Y9699D01*
X185682Y9599D01*
X185666Y9482D01*
X185641Y9365D01*
X185616Y9232D01*
X185541Y8957D01*
X185499Y8816D01*
X185441Y8674D01*
X185383Y8524D01*
X185308Y8382D01*
X185299Y8374D01*
X185291Y8349D01*
X185266Y8308D01*
X185233Y8258D01*
X185191Y8191D01*
X185141Y8116D01*
X185083Y8033D01*
X185016Y7941D01*
X184933Y7841D01*
X184850Y7741D01*
X184758Y7633D01*
X184658Y7525D01*
X184425Y7308D01*
X184166Y7108D01*
X184158D01*
X184150Y7100D01*
X184125Y7083D01*
X184100Y7066D01*
X184017Y7016D01*
X183908Y6950D01*
X183775Y6883D01*
X183617Y6816D01*
X183442Y6741D01*
X183250Y6683D01*
X183242D01*
X183225Y6675D01*
X183200Y6667D01*
X183159Y6658D01*
X183108Y6650D01*
X183050Y6633D01*
X182984Y6617D01*
X182909Y6608D01*
X182742Y6575D01*
X182542Y6550D01*
X182317Y6525D01*
X182084Y6508D01*
Y8191D01*
X182117D01*
X182159Y8199D01*
X182217D01*
X182284Y8216D01*
X182367Y8224D01*
X182459Y8241D01*
X182550Y8266D01*
X182759Y8332D01*
X182867Y8374D01*
X182984Y8424D01*
X183092Y8482D01*
X183200Y8557D01*
X183300Y8632D01*
X183400Y8724D01*
X183408Y8732D01*
X183425Y8749D01*
X183450Y8774D01*
X183483Y8816D01*
X183517Y8866D01*
X183567Y8932D01*
X183608Y8999D01*
X183658Y9082D01*
X183708Y9174D01*
X183750Y9265D01*
X183800Y9374D01*
X183833Y9490D01*
X183867Y9615D01*
X183891Y9740D01*
X183908Y9882D01*
X183916Y10024D01*
Y10032D01*
Y10057D01*
Y10098D01*
X183908Y10157D01*
X183900Y10223D01*
X183891Y10307D01*
X183875Y10390D01*
X183850Y10490D01*
X183783Y10698D01*
X183742Y10807D01*
X183692Y10915D01*
X183625Y11023D01*
X183550Y11131D01*
X183467Y11240D01*
X183375Y11340D01*
X183367Y11348D01*
X183350Y11365D01*
X183317Y11390D01*
X183275Y11423D01*
X183225Y11465D01*
X183159Y11506D01*
X183083Y11556D01*
X183000Y11606D01*
X182900Y11648D01*
X182800Y11698D01*
X182684Y11739D01*
X182559Y11781D01*
X182425Y11814D01*
X182284Y11839D01*
X182142Y11856D01*
X181984Y11864D01*
X181942D01*
X181901Y11856D01*
X181867D01*
X181842Y11848D01*
X181817D01*
Y6508D01*
X180068D01*
Y13522D01*
X181609D01*
X181709Y13514D01*
D02*
G37*
G36*
X178802Y11914D02*
X176836D01*
X176753Y11906D01*
X176669Y11898D01*
X176578Y11889D01*
X176503Y11873D01*
X176436Y11848D01*
X176428D01*
X176411Y11839D01*
X176370Y11798D01*
X176320Y11739D01*
X176303Y11689D01*
X176295Y11639D01*
Y11631D01*
Y11614D01*
X176303Y11590D01*
X176311Y11548D01*
X176345Y11464D01*
X176370Y11406D01*
X176403Y11356D01*
X176411Y11348D01*
X176428Y11331D01*
X176453Y11306D01*
X176495Y11273D01*
X176536Y11231D01*
X176603Y11181D01*
X176669Y11131D01*
X176753Y11081D01*
X178069Y10290D01*
X178077D01*
X178094Y10273D01*
X178127Y10257D01*
X178161Y10232D01*
X178210Y10198D01*
X178260Y10157D01*
X178385Y10057D01*
X178527Y9940D01*
X178669Y9799D01*
X178810Y9649D01*
X178927Y9474D01*
Y9465D01*
X178944Y9449D01*
X178952Y9424D01*
X178977Y9390D01*
X178993Y9349D01*
X179018Y9299D01*
X179077Y9174D01*
X179135Y9024D01*
X179177Y8849D01*
X179210Y8657D01*
X179227Y8457D01*
Y8449D01*
Y8432D01*
Y8407D01*
Y8374D01*
X179218Y8282D01*
X179202Y8166D01*
X179177Y8033D01*
X179135Y7883D01*
X179085Y7733D01*
X179018Y7574D01*
Y7566D01*
X179010Y7558D01*
X178985Y7508D01*
X178935Y7433D01*
X178877Y7341D01*
X178794Y7233D01*
X178702Y7125D01*
X178585Y7016D01*
X178460Y6916D01*
X178444Y6908D01*
X178410Y6883D01*
X178344Y6841D01*
X178260Y6791D01*
X178152Y6741D01*
X178035Y6691D01*
X177902Y6641D01*
X177761Y6600D01*
X177744D01*
X177719Y6592D01*
X177686Y6583D01*
X177644Y6575D01*
X177594D01*
X177527Y6566D01*
X177461Y6558D01*
X177377Y6550D01*
X177286Y6542D01*
X177178Y6533D01*
X177069Y6525D01*
X176944Y6516D01*
X176811D01*
X176669Y6508D01*
X174479D01*
Y8183D01*
X176928D01*
X176969Y8191D01*
X177019D01*
X177128Y8216D01*
X177178Y8241D01*
X177227Y8266D01*
X177236Y8274D01*
X177244Y8282D01*
X177286Y8332D01*
X177328Y8416D01*
X177336Y8466D01*
X177344Y8524D01*
Y8532D01*
Y8549D01*
X177336Y8574D01*
X177328Y8616D01*
X177311Y8657D01*
X177294Y8707D01*
X177261Y8757D01*
X177219Y8807D01*
X177211Y8816D01*
X177194Y8832D01*
X177169Y8866D01*
X177128Y8899D01*
X177078Y8949D01*
X177019Y8999D01*
X176944Y9049D01*
X176861Y9107D01*
X175512Y9923D01*
X175503D01*
X175495Y9940D01*
X175470Y9957D01*
X175437Y9973D01*
X175353Y10040D01*
X175245Y10123D01*
X175128Y10223D01*
X175003Y10357D01*
X174878Y10498D01*
X174770Y10656D01*
Y10665D01*
X174762Y10673D01*
X174745Y10698D01*
X174729Y10731D01*
X174687Y10823D01*
X174637Y10940D01*
X174587Y11081D01*
X174545Y11240D01*
X174512Y11406D01*
X174504Y11581D01*
Y11590D01*
Y11598D01*
Y11623D01*
Y11656D01*
X174512Y11748D01*
X174520Y11856D01*
X174537Y11989D01*
X174570Y12123D01*
X174604Y12273D01*
X174653Y12414D01*
Y12422D01*
X174662Y12431D01*
X174687Y12481D01*
X174720Y12548D01*
X174770Y12639D01*
X174837Y12739D01*
X174920Y12847D01*
X175012Y12956D01*
X175120Y13056D01*
X175137Y13064D01*
X175170Y13097D01*
X175237Y13139D01*
X175320Y13197D01*
X175420Y13255D01*
X175545Y13314D01*
X175678Y13364D01*
X175828Y13414D01*
X175836D01*
X175845Y13422D01*
X175870D01*
X175911Y13430D01*
X175953Y13439D01*
X176011Y13447D01*
X176078Y13455D01*
X176161Y13472D01*
X176253Y13480D01*
X176353Y13489D01*
X176461Y13497D01*
X176586Y13505D01*
X176719Y13514D01*
X176869D01*
X177028Y13522D01*
X178802D01*
Y11914D01*
D02*
G37*
G36*
X164749Y9957D02*
X163974D01*
X163925Y9949D01*
X163866Y9940D01*
X163741Y9923D01*
X163600Y9890D01*
X163450Y9849D01*
X163308Y9782D01*
X163175Y9690D01*
X163158Y9682D01*
X163125Y9640D01*
X163075Y9582D01*
X163016Y9499D01*
X162950Y9399D01*
X162900Y9282D01*
X162867Y9140D01*
X162850Y8982D01*
Y8974D01*
Y8966D01*
Y8941D01*
X162858Y8907D01*
X162867Y8832D01*
X162892Y8732D01*
X162933Y8616D01*
X162983Y8499D01*
X163066Y8391D01*
X163175Y8282D01*
X163191Y8274D01*
X163233Y8241D01*
X163308Y8199D01*
X163408Y8157D01*
X163533Y8108D01*
X163691Y8066D01*
X163866Y8033D01*
X164066Y8024D01*
X164749D01*
Y6508D01*
X164099D01*
X164033Y6516D01*
X163941D01*
X163824Y6533D01*
X163700Y6542D01*
X163550Y6566D01*
X163400Y6592D01*
X163233Y6625D01*
X163058Y6675D01*
X162883Y6725D01*
X162708Y6791D01*
X162533Y6866D01*
X162358Y6958D01*
X162200Y7066D01*
X162042Y7183D01*
X162034Y7191D01*
X162009Y7216D01*
X161967Y7250D01*
X161917Y7308D01*
X161859Y7374D01*
X161792Y7458D01*
X161717Y7558D01*
X161650Y7666D01*
X161575Y7791D01*
X161501Y7924D01*
X161434Y8074D01*
X161375Y8232D01*
X161326Y8407D01*
X161284Y8591D01*
X161259Y8782D01*
X161251Y8991D01*
Y9007D01*
Y9041D01*
X161259Y9099D01*
X161267Y9174D01*
X161276Y9274D01*
X161292Y9382D01*
X161317Y9499D01*
X161351Y9632D01*
X161392Y9774D01*
X161442Y9923D01*
X161509Y10073D01*
X161584Y10223D01*
X161675Y10373D01*
X161784Y10515D01*
X161900Y10656D01*
X162042Y10790D01*
X162050Y10798D01*
X162075Y10823D01*
X162125Y10857D01*
X162183Y10898D01*
X162267Y10948D01*
X162358Y11006D01*
X162475Y11065D01*
X162600Y11131D01*
X162750Y11198D01*
X162908Y11256D01*
X163083Y11315D01*
X163266Y11365D01*
X163475Y11406D01*
X163683Y11448D01*
X163916Y11464D01*
X164158Y11473D01*
X164749D01*
Y9957D01*
D02*
G37*
G36*
X160534Y6508D02*
X158951D01*
Y11473D01*
X160534D01*
Y6508D01*
D02*
G37*
G36*
X171530Y11564D02*
X171580D01*
X171705Y11548D01*
X171855Y11523D01*
X172021Y11490D01*
X172188Y11440D01*
X172363Y11373D01*
X172371D01*
X172379Y11365D01*
X172404Y11356D01*
X172438Y11340D01*
X172529Y11290D01*
X172638Y11231D01*
X172763Y11156D01*
X172896Y11056D01*
X173038Y10948D01*
X173171Y10815D01*
X173179D01*
X173187Y10798D01*
X173229Y10748D01*
X173296Y10673D01*
X173371Y10573D01*
X173462Y10448D01*
X173554Y10307D01*
X173637Y10148D01*
X173712Y9982D01*
Y9973D01*
X173721Y9965D01*
X173729Y9932D01*
X173746Y9899D01*
X173754Y9857D01*
X173771Y9807D01*
X173812Y9682D01*
X173846Y9532D01*
X173871Y9365D01*
X173896Y9182D01*
X173904Y8991D01*
Y8982D01*
Y8966D01*
Y8941D01*
Y8899D01*
X173896Y8857D01*
Y8799D01*
X173879Y8674D01*
X173854Y8516D01*
X173820Y8349D01*
X173779Y8174D01*
X173712Y7999D01*
Y7991D01*
X173704Y7983D01*
X173696Y7958D01*
X173679Y7924D01*
X173637Y7833D01*
X173579Y7724D01*
X173496Y7591D01*
X173404Y7450D01*
X173296Y7308D01*
X173171Y7166D01*
X173154Y7150D01*
X173112Y7108D01*
X173038Y7041D01*
X172938Y6958D01*
X172821Y6866D01*
X172679Y6775D01*
X172529Y6691D01*
X172363Y6608D01*
X172354D01*
X172346Y6600D01*
X172321Y6592D01*
X172280Y6575D01*
X172238Y6566D01*
X172188Y6550D01*
X172071Y6516D01*
X171930Y6475D01*
X171763Y6450D01*
X171588Y6425D01*
X171397Y6417D01*
X171313D01*
X171263Y6425D01*
X171213D01*
X171088Y6442D01*
X170947Y6466D01*
X170780Y6500D01*
X170614Y6542D01*
X170439Y6608D01*
X170430D01*
X170422Y6617D01*
X170397Y6625D01*
X170364Y6641D01*
X170280Y6691D01*
X170172Y6750D01*
X170047Y6825D01*
X169905Y6925D01*
X169772Y7041D01*
X169631Y7166D01*
Y7175D01*
X169614Y7183D01*
X169572Y7233D01*
X169506Y7308D01*
X169422Y7416D01*
X169331Y7533D01*
X169239Y7683D01*
X169156Y7841D01*
X169072Y8008D01*
Y8016D01*
X169064Y8033D01*
X169056Y8058D01*
X169047Y8091D01*
X169031Y8133D01*
X169014Y8183D01*
X168981Y8308D01*
X168948Y8449D01*
X168914Y8616D01*
X168897Y8799D01*
X168889Y8991D01*
Y8999D01*
Y9015D01*
Y9041D01*
Y9082D01*
X168897Y9124D01*
Y9182D01*
X168914Y9307D01*
X168931Y9457D01*
X168964Y9624D01*
X169014Y9799D01*
X169072Y9973D01*
Y9982D01*
X169081Y9999D01*
X169089Y10015D01*
X169106Y10048D01*
X169156Y10140D01*
X169214Y10257D01*
X169289Y10382D01*
X169389Y10523D01*
X169506Y10673D01*
X169631Y10815D01*
X169639Y10823D01*
X169647Y10831D01*
X169697Y10873D01*
X169764Y10940D01*
X169864Y11023D01*
X169989Y11115D01*
X170122Y11206D01*
X170272Y11298D01*
X170439Y11373D01*
X170447D01*
X170464Y11381D01*
X170489Y11390D01*
X170522Y11406D01*
X170614Y11440D01*
X170730Y11473D01*
X170872Y11506D01*
X171038Y11540D01*
X171213Y11564D01*
X171397Y11573D01*
X171480D01*
X171530Y11564D01*
D02*
G37*
%LPC*%
G36*
X171397Y10024D02*
X171380D01*
X171338Y10015D01*
X171263Y10007D01*
X171180Y9990D01*
X171072Y9949D01*
X170972Y9899D01*
X170863Y9824D01*
X170755Y9724D01*
X170747Y9707D01*
X170713Y9674D01*
X170672Y9607D01*
X170630Y9524D01*
X170580Y9415D01*
X170538Y9299D01*
X170505Y9157D01*
X170497Y9007D01*
Y8999D01*
Y8991D01*
Y8966D01*
X170505Y8941D01*
X170513Y8857D01*
X170530Y8757D01*
X170563Y8641D01*
X170605Y8524D01*
X170672Y8399D01*
X170755Y8282D01*
X170763Y8274D01*
X170805Y8241D01*
X170863Y8191D01*
X170938Y8141D01*
X171030Y8083D01*
X171138Y8041D01*
X171263Y8008D01*
X171397Y7991D01*
X171413D01*
X171463Y7999D01*
X171530Y8008D01*
X171621Y8024D01*
X171721Y8066D01*
X171830Y8116D01*
X171938Y8183D01*
X172038Y8282D01*
X172046Y8299D01*
X172080Y8332D01*
X172121Y8399D01*
X172179Y8482D01*
X172230Y8591D01*
X172271Y8716D01*
X172304Y8857D01*
X172313Y9007D01*
Y9015D01*
Y9024D01*
Y9074D01*
X172296Y9157D01*
X172280Y9257D01*
X172246Y9365D01*
X172196Y9482D01*
X172129Y9607D01*
X172038Y9724D01*
X172030Y9740D01*
X171988Y9774D01*
X171938Y9815D01*
X171855Y9873D01*
X171763Y9932D01*
X171655Y9973D01*
X171530Y10007D01*
X171397Y10024D01*
D02*
G37*
%LPD*%
D46*
X29700Y34534D02*
Y52250D01*
X29700Y64068D02*
Y81784D01*
X103777Y5000D02*
Y81784D01*
X113177Y5000D02*
Y81784D01*
X187254Y5000D02*
Y81784D01*
X196654Y5000D02*
Y81784D01*
D47*
X2283Y64067D02*
Y81784D01*
Y64067D02*
X19999D01*
Y81784D01*
X2283D02*
X19999D01*
X2283Y34533D02*
Y52250D01*
Y34533D02*
X19999D01*
Y52250D01*
X2283D02*
X19999D01*
X114860Y80398D02*
X130608D01*
Y64650D02*
Y80398D01*
X114860Y64650D02*
X130608D01*
X114860D02*
Y80398D01*
X169821Y64650D02*
Y80398D01*
Y64650D02*
X185569D01*
Y80398D01*
X169821D02*
X185569D01*
X31383Y80399D02*
X47131D01*
Y64651D02*
Y80399D01*
X31383Y64651D02*
X47131D01*
X31383D02*
Y80399D01*
X86343Y64651D02*
Y80399D01*
Y64651D02*
X102092D01*
Y80399D01*
X86343D02*
X102092D01*
X198337Y80399D02*
X214085D01*
Y64650D02*
Y80399D01*
X198337Y64650D02*
X214085D01*
X198337D02*
Y80399D01*
X253298Y64650D02*
Y80399D01*
Y64650D02*
X269046D01*
Y80399D01*
X253298D02*
X269046D01*
D48*
X106451Y23699D02*
Y22500D01*
Y23099D01*
X109450D01*
X110049Y22500D01*
Y21900D01*
X109450Y21300D01*
X106451Y24899D02*
X110049D01*
Y27298D01*
X107050Y30897D02*
X106451Y30297D01*
Y29098D01*
X107050Y28498D01*
X109450D01*
X110049Y29098D01*
Y30297D01*
X109450Y30897D01*
X106451Y34496D02*
Y33296D01*
Y33896D01*
X109450D01*
X110049Y33296D01*
Y32696D01*
X109450Y32096D01*
X106451Y35695D02*
X110049D01*
Y38095D01*
X107050Y41693D02*
X106451Y41094D01*
Y39894D01*
X107050Y39294D01*
X109450D01*
X110049Y39894D01*
Y41094D01*
X109450Y41693D01*
X106451Y45292D02*
Y44093D01*
Y44693D01*
X109450D01*
X110049Y44093D01*
Y43493D01*
X109450Y42893D01*
X106451Y46492D02*
X110049D01*
Y48891D01*
X107050Y52490D02*
X106451Y51890D01*
Y50691D01*
X107050Y50091D01*
X109450D01*
X110049Y50691D01*
Y51890D01*
X109450Y52490D01*
X106451Y56089D02*
Y54889D01*
Y55489D01*
X109450D01*
X110049Y54889D01*
Y54289D01*
X109450Y53690D01*
X106451Y57288D02*
X110049D01*
Y59688D01*
X107050Y63287D02*
X106451Y62687D01*
Y61487D01*
X107050Y60887D01*
X109450D01*
X110049Y61487D01*
Y62687D01*
X109450Y63287D01*
X173416Y17533D02*
X174582Y15200D01*
X175748Y17533D01*
X176915Y15200D02*
X178081D01*
X177498D01*
Y18699D01*
X176915Y18116D01*
X179830Y15200D02*
Y15783D01*
X180413D01*
Y15200D01*
X179830D01*
X182746Y18116D02*
X183329Y18699D01*
X184495D01*
X185079Y18116D01*
Y15783D01*
X184495Y15200D01*
X183329D01*
X182746Y15783D01*
Y18116D01*
X185416Y40396D02*
Y38064D01*
X183083Y40396D01*
X182500D01*
X181917Y39813D01*
Y38647D01*
X182500Y38064D01*
Y41563D02*
X181917Y42146D01*
Y43312D01*
X182500Y43895D01*
X184833D01*
X185416Y43312D01*
Y42146D01*
X184833Y41563D01*
X182500D01*
X185416Y47394D02*
Y45061D01*
X183083Y47394D01*
X182500D01*
X181917Y46811D01*
Y45645D01*
X182500Y45061D01*
X185416Y50893D02*
Y48560D01*
X183083Y50893D01*
X182500D01*
X181917Y50310D01*
Y49143D01*
X182500Y48560D01*
X185416Y52059D02*
X183083Y54392D01*
X182500Y55558D02*
X181917Y56141D01*
Y57307D01*
X182500Y57891D01*
X184833D01*
X185416Y57307D01*
Y56141D01*
X184833Y55558D01*
X182500D01*
X181917Y61389D02*
X182500Y60223D01*
X183666Y59057D01*
X184833D01*
X185416Y59640D01*
Y60806D01*
X184833Y61389D01*
X184249D01*
X183666Y60806D01*
Y59057D01*
X89939Y21533D02*
X91105Y19200D01*
X92271Y21533D01*
X93437Y19200D02*
X94604D01*
X94021D01*
Y22699D01*
X93437Y22116D01*
X96353Y19200D02*
Y19783D01*
X96936D01*
Y19200D01*
X96353D01*
X99269Y22116D02*
X99852Y22699D01*
X101018D01*
X101602Y22116D01*
Y19783D01*
X101018Y19200D01*
X99852D01*
X99269Y19783D01*
Y22116D01*
X80735Y7200D02*
X78402D01*
X80735Y9533D01*
Y10116D01*
X80152Y10699D01*
X78986D01*
X78402Y10116D01*
X81901D02*
X82484Y10699D01*
X83651D01*
X84234Y10116D01*
Y7783D01*
X83651Y7200D01*
X82484D01*
X81901Y7783D01*
Y10116D01*
X87733Y7200D02*
X85400D01*
X87733Y9533D01*
Y10116D01*
X87150Y10699D01*
X85983D01*
X85400Y10116D01*
X91232Y7200D02*
X88899D01*
X91232Y9533D01*
Y10116D01*
X90648Y10699D01*
X89482D01*
X88899Y10116D01*
X92398Y7200D02*
X94730Y9533D01*
X95897Y10116D02*
X96480Y10699D01*
X97646D01*
X98229Y10116D01*
Y7783D01*
X97646Y7200D01*
X96480D01*
X95897Y7783D01*
Y10116D01*
X99396Y10699D02*
X101728D01*
Y10116D01*
X99396Y7783D01*
Y7200D01*
X268893Y40396D02*
Y38064D01*
X266560Y40396D01*
X265977D01*
X265394Y39813D01*
Y38647D01*
X265977Y38064D01*
Y41563D02*
X265394Y42146D01*
Y43312D01*
X265977Y43895D01*
X268310D01*
X268893Y43312D01*
Y42146D01*
X268310Y41563D01*
X265977D01*
X268893Y47394D02*
Y45061D01*
X266560Y47394D01*
X265977D01*
X265394Y46811D01*
Y45645D01*
X265977Y45061D01*
X268893Y50893D02*
Y48560D01*
X266560Y50893D01*
X265977D01*
X265394Y50310D01*
Y49143D01*
X265977Y48560D01*
X268893Y52059D02*
X266560Y54392D01*
X265977Y55558D02*
X265394Y56141D01*
Y57307D01*
X265977Y57891D01*
X268310D01*
X268893Y57307D01*
Y56141D01*
X268310Y55558D01*
X265977D01*
X265394Y61389D02*
X265977Y60223D01*
X267144Y59057D01*
X268310D01*
X268893Y59640D01*
Y60806D01*
X268310Y61389D01*
X267727D01*
X267144Y60806D01*
Y59057D01*
X256893Y17533D02*
X258059Y15200D01*
X259226Y17533D01*
X260392Y15200D02*
X261558D01*
X260975D01*
Y18699D01*
X260392Y18116D01*
X263307Y15200D02*
Y15783D01*
X263891D01*
Y15200D01*
X263307D01*
X266223Y18116D02*
X266806Y18699D01*
X267973D01*
X268556Y18116D01*
Y15783D01*
X267973Y15200D01*
X266806D01*
X266223Y15783D01*
Y18116D01*
D49*
X173753Y38400D02*
G03*
X173753Y38400I-23537J0D01*
G01*
D50*
X173838D02*
G03*
X173838Y38400I-23622J0D01*
G01*
M02*
