G04*
G04 #@! TF.GenerationSoftware,Altium Limited,Altium Designer,19.1.5 (86)*
G04*
G04 Layer_Color=8388736*
%FSLAX25Y25*%
%MOIN*%
G70*
G01*
G75*
%ADD48C,0.00800*%
%ADD51P,0.08956X8X337.5*%
%ADD52O,0.05518X0.06935*%
D48*
X120716Y20700D02*
X122616Y16300D01*
X118616Y29300D02*
X120916Y21300D01*
X117616Y21000D02*
X121216Y17400D01*
X117616Y21000D02*
X120916Y21300D01*
X117216Y17100D02*
X121216Y17400D01*
X117216Y17100D02*
X120716Y20700D01*
X116116Y16300D02*
X118616Y29300D01*
X69139Y6800D02*
X71639Y19800D01*
X70239Y7600D02*
X73739Y11200D01*
X70239Y7600D02*
X74239Y7900D01*
X70639Y11500D02*
X73939Y11800D01*
X70639Y11500D02*
X74239Y7900D01*
X71639Y19800D02*
X73939Y11800D01*
X73739Y11200D02*
X75639Y6800D01*
X212143Y20950D02*
X214043Y16550D01*
X210043Y29550D02*
X212343Y21550D01*
X209043Y21250D02*
X212643Y17650D01*
X209043Y21250D02*
X212343Y21550D01*
X208643Y17350D02*
X212643Y17650D01*
X208643Y17350D02*
X212143Y20950D01*
X207543Y16550D02*
X210043Y29550D01*
D51*
X133512Y55103D02*
D03*
X133512Y21697D02*
D03*
X166919Y21697D02*
D03*
X166919Y55103D02*
D03*
X122377D02*
D03*
D52*
X7204Y68988D02*
D03*
X15078D02*
D03*
Y76862D02*
D03*
X7204D02*
D03*
Y39454D02*
D03*
X15078D02*
D03*
Y47329D02*
D03*
X7204D02*
D03*
X118797Y76461D02*
D03*
X126671D02*
D03*
Y68587D02*
D03*
X118797D02*
D03*
X173758D02*
D03*
X181632D02*
D03*
Y76461D02*
D03*
X173758D02*
D03*
X35320Y76462D02*
D03*
X43194D02*
D03*
Y68588D02*
D03*
X35320D02*
D03*
X90281D02*
D03*
X98155D02*
D03*
Y76462D02*
D03*
X90281D02*
D03*
X202274Y76462D02*
D03*
X210148D02*
D03*
Y68588D02*
D03*
X202274D02*
D03*
X257235D02*
D03*
X265109D02*
D03*
Y76462D02*
D03*
X257235D02*
D03*
M02*
