M48
;Layer_Color=9474304
;FILE_FORMAT=2:5
INCH,LZ
;TYPE=PLATED
T1F00S00C0.01181
T2F00S00C0.03150
%
T01
X0036739Y00119
X0039739Y00124
X0043239Y00099
X0056839Y00159
X0056239Y00224
X0053239Y00319
X0046239Y00329
X0042739Y00424
X0038739Y00409
X003616Y0044002
X0034254Y0046329
X0037739Y00469
X0034739Y00549
X0036239Y00569
X0034739Y00589
X0054239Y00514
X0049739Y00434
X0057739Y00409
X0056239Y00369
X0071239Y00354
X0076239Y00334
X0069239Y00269
X0068239Y00234
X0066239Y00109
X0074739Y00154
X0090739
Y00309
X0093239Y00404
X0089739Y00419
X0088739Y00459
X0092239Y0046887
X0094739Y00549
X0096339Y00605
X0092239Y00629
X0086739Y00624
Y00544
X0078739Y00474
X0068739Y00434
X0101239Y00564
X0124216Y00559
X0125216Y00479
X0132716
X0131216Y00414
X0125216Y00379
X0116216Y00409
Y00319
X0134716Y00299
X0135216Y00249
Y00169
X0145216
X0151216Y00184
X0149716Y00234
X0145716Y00264
X0144716Y00314
X0150716
X0148716Y00354
X0146716Y00394
Y00439
X0144716Y00464
X0148716Y00499
X0146216Y00549
X0140216Y00504
Y00604
X0152716Y00614
X0156216Y00589
X0153716Y00464
X0153216Y00404
X0155216Y00359
X0155716Y00299
X0148716Y00109
X0120216Y00144
X0135216Y00354
X0158716Y00329
X0161716Y00359
X0165216Y00324
Y00294
X0162216
X0160216Y00254
X0165216Y00259
X0170216Y00269
X0178216Y00274
X0168216Y00379
X0160716Y00444
X0157716
X0162716Y00469
X0174216Y00464
X0170216Y00554
X0171216Y00634
X0177716
X0183216
X0184716Y00724
X0180716Y00529
X0159216Y00569
X0162716Y00179
X0172216Y00129
X0202693Y00154
Y00319
X0207693Y00359
Y00409
X0206193Y00524
X0222493Y00578
X0221193Y00619
X0228693Y00429
X0228693Y0035495
Y0021447
X0232693Y00249
X0233693Y00159
Y00129
Y00099
Y00074
X0240193
X0249693Y00109
X0256693Y00114
X0259693
X0258193Y00134
X0256693Y00154
X0259693
X0259193Y00264
X0256193Y00309
X0252193Y00324
Y00354
X0257193Y00364
Y00414
X0262693Y00349
X0248894Y00294
X0244829Y0021536
X0217193Y00214
X0248193Y00514
X0253193Y00544
X0255193Y00624
X0251193Y00634
X0260193Y00614
T02
X0007204Y0039454
X0015078
Y0047329
X0007204
Y0068988
X0015078
Y0076862
X0007204
X003532Y0076462
X0043194
Y0068588
X003532
X0090281
X0098155
Y0076462
X0090281
X0118797Y0076461
X0126671
Y0068587
X0118797
X0173758
X0181632
Y0076461
X0173758
X0202274Y0076462
X0210148
Y0068588
X0202274
X0257235
X0265109
Y0076462
X0257235
M30
